<svg width="68" height="25" viewBox="0 0 68 25" fill="none" xmlns="http://www.w3.org/2000/svg">
<path d="M66.201 13.5547L52.8126 24.2882C52.4129 24.5892 51.9133 24.4889 51.6136 24.1879C51.3139 23.7867 51.4138 23.3854 51.7135 22.9842L63.6033 10.8462C64.3027 10.0437 65.5016 10.0437 66.4008 10.9466C67.3001 11.7491 67.2002 12.8525 66.3009 13.7553C66.201 13.4544 66.201 13.4544 66.201 13.5547Z" fill="#EC5B60"/>
<path d="M66.201 10.9153L52.8126 0.181721C52.4129 -0.11922 51.9133 -0.0189066 51.6136 0.282034C51.3139 0.683288 51.4138 1.08454 51.7135 1.4858L63.6033 13.6237C64.3027 14.4262 65.5016 14.4262 66.4008 13.5234C67.3001 12.7209 67.2002 11.6175 66.3009 10.7146C66.201 11.0156 66.201 11.0156 66.201 10.9153Z" fill="#EC5B60"/>
<path d="M1 12H62.0054" stroke="#EC5B60" stroke-width="2" stroke-miterlimit="10" stroke-linecap="round"/>
</svg>
