<svg width="32" height="22" viewBox="0 0 32 22" fill="none" xmlns="http://www.w3.org/2000/svg">
<path d="M20.1902 17.8052H26.6754C28.8704 17.8052 30.6663 16.0552 30.6663 13.9163C30.6663 11.7773 28.8704 10.0273 26.6754 10.0273C26.5756 10.0273 26.3761 10.0273 26.2763 10.0273C26.6754 9.34672 26.9747 8.56893 26.9747 7.69391C26.9747 5.16608 24.8795 3.02715 22.1856 3.02715C19.9906 3.02715 18.1947 4.38829 17.596 6.33277C16.7979 3.70772 14.3035 1.66602 11.3103 1.66602C7.7185 1.66602 4.82507 4.48551 4.82507 7.98558C4.82507 8.66615 4.92484 9.34672 5.12439 9.93006C3.02915 10.0273 1.33301 11.6801 1.33301 13.819C1.33301 15.958 3.12893 17.708 5.32394 17.708H11.2106" stroke="#EC5B60" stroke-width="1.5" stroke-linecap="round" stroke-linejoin="round"/>
<path d="M16 20.3333V9.63867" stroke="#EC5B60" stroke-width="1.5" stroke-linecap="round" stroke-linejoin="round"/>
<path d="M11.8096 13.0791L16.0531 9.3457L20.1905 13.0791" stroke="#EC5B60" stroke-width="1.5" stroke-linecap="round" stroke-linejoin="round"/>
</svg>
