<svg width="125" height="185" viewBox="0 0 125 185" fill="none" xmlns="http://www.w3.org/2000/svg">
<path d="M120.032 29.9392C118.819 28.7256 116.851 28.7256 115.638 29.9392C114.424 31.1527 114.424 33.1203 115.638 34.3339C116.851 35.5475 118.819 35.5475 120.032 34.3339C121.246 33.1203 121.246 31.1527 120.032 29.9392Z" fill="#242938"/>
<path d="M139.808 51.913L83.7754 107.946" stroke="#242938" stroke-width="2" stroke-linecap="round"/>
<path d="M84.874 106.298C71.0507 95.1594 35.3825 80.3892 3.29684 110.418C17.6563 121.878 54.0745 137.097 84.874 106.298Z" stroke="#242938" stroke-width="2"/>
<path d="M81.5776 106.847L10.1633 109.593" stroke="#242938" stroke-width="2" stroke-linecap="round"/>
<path d="M85.9722 105.748C77.0374 115.302 64.1996 140.653 84.3242 165.626C93.5237 155.697 106.733 129.819 85.9722 105.748Z" fill="#242938"/>
<path d="M115.326 75.2957C104.429 63.2284 73.7497 45.057 38.2114 68.9103C49.552 81.3432 80.8505 100.026 115.326 75.2957Z" fill="#242938" stroke="#242938" stroke-width="2"/>
<path d="M125.251 66.47C116.316 76.0242 103.478 101.375 123.603 126.348C132.802 116.419 146.012 90.5415 125.251 66.47Z" stroke="#242938" stroke-width="2"/>
<path d="M125.251 68.6678L125.251 93.9375" stroke="#242938" stroke-width="2" stroke-linecap="round"/>
</svg>
