<svg width="189" height="235" viewBox="0 0 189 235" fill="none" xmlns="http://www.w3.org/2000/svg">
<path d="M17.4848 202.146C18.7713 203.97 21.2926 204.405 23.1163 203.119C24.94 201.832 25.3756 199.311 24.0891 197.487C22.8026 195.663 20.2814 195.228 18.4576 196.514C16.6339 197.801 16.1984 200.322 17.4848 202.146Z" fill="#242938"/>
<path d="M-2.99336 169.611L81.2109 110.213" stroke="#242938" stroke-width="2" stroke-linecap="round"/>
<path d="M79.4386 112.082C94.6863 129.415 137.123 156.237 184.885 124.86C169.021 106.996 125.723 79.4325 79.4386 112.082Z" stroke="#242938" stroke-width="2"/>
<path d="M83.7834 112.107L175.903 124.395" stroke="#242938" stroke-width="2" stroke-linecap="round"/>
<path d="M77.9093 112.543C91.4734 102.277 113.535 72.6342 93.2754 36.1787C79.2891 46.8659 56.6342 77.1016 77.9093 112.543Z" fill="#242938"/>
<path d="M33.5548 145.067C44.8476 162.942 80.1376 193.018 130.957 170.319C119.177 151.877 83.2062 121.008 33.5548 145.067Z" fill="#242938" stroke="#242938" stroke-width="2"/>
<path d="M18.884 154.179C32.448 143.914 54.5101 114.271 34.25 77.8154C20.2637 88.5027 -2.39115 118.738 18.884 154.179Z" stroke="#242938" stroke-width="2"/>
<path d="M19.3703 151.364L24.9639 118.983" stroke="#242938" stroke-width="2" stroke-linecap="round"/>
<path d="M15.7663 63.4535C17.294 65.6191 20.288 66.1363 22.4537 64.6087C24.6193 63.081 25.1365 60.0869 23.6089 57.9213C22.0812 55.7556 19.0872 55.2384 16.9215 56.7661C14.7558 58.2938 14.2386 61.2878 15.7663 63.4535Z" fill="#242938"/>
</svg>
