<svg width="129" height="185" viewBox="0 0 129 185" fill="none" xmlns="http://www.w3.org/2000/svg">
<path d="M10.1972 47.1971C11.4107 45.9835 13.3783 45.9835 14.5919 47.1971C15.8055 48.4107 15.8055 50.3782 14.5919 51.5918C13.3783 52.8054 11.4107 52.8054 10.1972 51.5918C8.9836 50.3782 8.9836 48.4107 10.1972 47.1971Z" fill="white"/>
<path d="M-10.9537 51.9128L45.0791 107.946" stroke="white" stroke-width="2" stroke-linecap="round"/>
<path d="M43.9805 106.298C57.8038 95.1593 93.472 80.3891 125.558 110.418C111.198 121.878 74.7799 137.097 43.9805 106.298Z" stroke="white" stroke-width="2"/>
<path d="M47.2769 106.847L118.691 109.594" stroke="white" stroke-width="2" stroke-linecap="round"/>
<path d="M42.8822 105.748C51.8171 115.302 64.6549 140.653 44.5303 165.626C35.3308 155.697 22.1213 129.819 42.8822 105.748Z" fill="white"/>
<path d="M13.5286 75.2957C24.4259 63.2284 55.1048 45.057 90.6431 68.9103C79.3025 81.3432 48.004 100.026 13.5286 75.2957Z" fill="white" stroke="white" stroke-width="2"/>
<path d="M3.60393 66.4701C12.5387 76.0244 25.3766 101.375 5.25195 126.348C-3.94755 116.419 -17.157 90.5416 3.60393 66.4701Z" stroke="white" stroke-width="2"/>
<path d="M3.60352 68.6676L3.60352 93.9373" stroke="white" stroke-width="2" stroke-linecap="round"/>
</svg>
