<svg width="203" height="244" viewBox="0 0 203 244" fill="none" xmlns="http://www.w3.org/2000/svg">
<path d="M210.482 176.772L101.999 102" stroke="white" stroke-width="2" stroke-linecap="round"/>
<path d="M101.886 101.719C88.8883 116.495 52.7137 139.359 11.9994 112.612C25.5223 97.3841 62.4314 73.8876 101.886 101.719Z" stroke="white" stroke-width="2"/>
<path d="M98.1817 101.741L19.6552 112.216" stroke="white" stroke-width="2" stroke-linecap="round"/>
<path d="M102.408 103.096C90.8456 94.3454 72.039 69.0762 89.3096 38C101.232 47.1102 120.544 72.8844 102.408 103.096Z" fill="white"/>
<path d="M163.696 82.9451C164.069 68.5747 159.342 55.4538 154.664 47.4027C138.363 61.3964 132.727 77.5514 132.301 92.1282C131.885 106.404 136.469 119.196 141.017 126.955C157.615 113.635 163.314 97.6246 163.696 82.9451Z" stroke="white" stroke-width="2"/>
<path d="M162.013 144.279C150.192 162.992 113.249 194.477 60.0497 170.714C72.3813 151.408 110.037 119.094 162.013 144.279Z" fill="white" stroke="white" stroke-width="2"/>
<path d="M191.833 163.618C180.27 154.867 161.464 129.598 178.734 98.5217C190.657 107.632 209.969 133.406 191.833 163.618Z" stroke="white" stroke-width="2"/>
<path d="M191.419 161.217L186.65 133.614" stroke="white" stroke-width="2" stroke-linecap="round"/>
<path d="M93 161C124.5 140.5 162.5 144.5 162.5 144.5" stroke="#242938" stroke-width="2" stroke-linecap="round"/>
<path d="M140.759 126.698C140.759 126.698 138.5 95.5 148 69" stroke="white" stroke-width="2" stroke-linecap="round"/>
<path d="M194.49 86.2788C193.188 88.1249 190.636 88.5657 188.79 87.2635C186.944 85.9612 186.503 83.409 187.805 81.5629C189.107 79.7168 191.66 79.2759 193.506 80.5782C195.352 81.8804 195.793 84.4326 194.49 86.2788Z" fill="white"/>
</svg>
