<svg width="126" height="143" viewBox="0 0 126 143" fill="none" xmlns="http://www.w3.org/2000/svg">
<path d="M39.0439 135.389C41.955 135.408 44.3312 132.976 44.3513 129.957C44.3714 126.938 42.0278 124.475 39.1167 124.456C36.2056 124.437 33.8294 126.868 33.8093 129.887C33.7892 132.906 36.1328 135.369 39.0439 135.389Z" fill="#242938"/>
<path d="M93.0807 141.995C94.8056 142.007 96.2133 140.618 96.2247 138.893C96.2362 137.168 94.8472 135.76 93.1223 135.749C91.3974 135.737 89.9897 137.126 89.9782 138.851C89.9668 140.576 91.3558 141.984 93.0807 141.995Z" fill="#242938"/>
<path d="M64 142L63.9463 60.5826" stroke="#242938" stroke-width="2"/>
<path d="M64.3241 62.5376C82.0792 60.7474 118.029 46.132 119.785 1.99191C101.419 3.93071 64.6155 18.7542 64.3241 62.5376Z" stroke="#242938" stroke-width="2"/>
<path d="M66.2937 59.8172L115.452 7.42958" stroke="#242938" stroke-width="2" stroke-linecap="round"/>
<path d="M63.9261 63.7063C63.5732 50.5617 54.8598 23.3586 22.8281 19.6991C23.2564 33.299 32.0756 61.1412 63.9261 63.7063Z" fill="#242938"/>
<path d="M64.4239 106.22C80.7412 107.161 115.522 98.5017 124.109 56.3424C107.216 55.4535 71.6303 64.1838 64.4239 106.22Z" fill="#242938" stroke="#242938" stroke-width="2"/>
<path d="M63.555 119.543C63.2021 106.398 54.4887 79.1949 22.457 75.5354C22.8853 89.1353 31.7045 116.977 63.555 119.543Z" stroke="#242938" stroke-width="2"/>
<path d="M62.002 117.969L44.1611 99.8895" stroke="#242938" stroke-width="2" stroke-linecap="round"/>
<path d="M5.11314 80.6962C7.16178 80.7098 8.83359 79.0601 8.84722 77.0115C8.86086 74.9628 7.21116 73.291 5.16252 73.2774C3.11388 73.2637 1.44207 74.9134 1.42844 76.9621C1.4148 79.0107 3.0645 80.6825 5.11314 80.6962Z" fill="#242938"/>
</svg>
