<svg width="39" height="42" viewBox="0 0 39 42" fill="none" xmlns="http://www.w3.org/2000/svg">
<path d="M7.71424 10.6583C9.70684 12.4983 14.0034 15.6442 15.8173 13.6738C17.6312 11.7034 16.2757 5.3628 14.2831 3.52284C12.2906 1.68296 9.20478 1.78875 7.39086 3.75916C5.57693 5.72956 5.72173 8.81845 7.71424 10.6583Z" fill="black"/>
<path d="M2.70583 21.4365C4.2003 22.8165 7.42272 25.176 8.78311 23.6982C10.1436 22.2204 9.12692 17.4649 7.63245 16.0849C6.13806 14.705 3.82377 14.7844 2.46331 16.2622C1.10285 17.74 1.21144 20.0566 2.70583 21.4365Z" fill="black"/>
<path d="M19.3107 22.4668C20.8052 23.8468 24.0276 26.2063 25.388 24.7284C26.7485 23.2506 25.7318 18.4952 24.2373 17.1152C22.7429 15.7353 20.4286 15.8146 19.0682 17.2925C17.7077 18.7703 17.8163 21.0869 19.3107 22.4668Z" fill="black"/>
<path d="M12.192 30.1978C13.6865 31.5778 16.9089 33.9372 18.2693 32.4594C19.6298 30.9816 18.6131 26.2261 17.1187 24.8462C15.6243 23.4662 13.31 23.5456 11.9495 25.0234C10.5891 26.5012 10.6976 28.8179 12.192 30.1978Z" fill="black"/>
<path d="M5.07644 37.9275C6.5709 39.3075 9.79333 41.6669 11.1537 40.1892C12.5142 38.7114 11.4975 33.9559 10.0031 32.5759C8.50867 31.196 6.19438 31.2753 4.83392 32.7531C3.47345 34.231 3.58205 36.5476 5.07644 37.9275Z" fill="black"/>
<path d="M28.7986 31.2288C30.2931 32.6088 33.5155 34.9682 34.8759 33.4904C36.2364 32.0126 35.2197 27.2571 33.7252 25.8772C32.2308 24.4972 29.9165 24.5766 28.5561 26.0544C27.1956 27.5322 27.3042 29.8489 28.7986 31.2288Z" fill="black"/>
</svg>
