<svg width="36" height="33" viewBox="0 0 36 33" fill="none" xmlns="http://www.w3.org/2000/svg">
<path d="M15.0136 1.60986L18.3543 10.0297L30.0271 4.43924L22.5203 15.2261L32.1842 20.3403L21.034 21.708L21.6951 30.7353L15.0136 24.5919L5.78436 32.9999L8.99419 21.708L0 20.3403L7.50678 15.2261L4.38924 8.016L11.6728 10.0297L15.0136 1.60986Z" fill="black"/>
<path d="M18.6614 0L21.9197 8.41979L33.3007 2.82937L25.9816 13.6162L35.4028 18.7305L24.5314 20.0982L25.1769 29.1255L18.6614 22.982L9.66294 31.39L12.7925 20.0982L4.02319 18.7305L11.3423 13.6162L8.30271 6.40613L15.4042 8.41979L18.6614 0Z" fill="#FFDC4D"/>
</svg>
