<svg width="182" height="68" viewBox="0 0 182 68" fill="none" xmlns="http://www.w3.org/2000/svg">
<path d="M38 47H180.322C181.647 43.5395 181.933 35.5673 172.457 31.3634C162.982 27.1594 155.048 33.115 152.264 36.6183C151.359 25.4675 145.509 2.756 129.354 1.11544C113.199 -0.525122 108.125 15.7267 107.607 24.0576C92.7724 -3.1141 79.8097 17.6065 75.1821 31.3634C59.7269 24.2885 43.9544 38.8399 38 47Z" stroke="black" stroke-width="1.2"/>
<path d="M0 68H84.5965C85.3852 65.2918 85.5543 59.0526 79.9224 55.7626C74.2902 52.4726 69.5737 57.1334 67.9196 59.8752C67.3809 51.1486 63.9033 33.3742 54.301 32.0904C44.6988 30.8064 41.6828 43.5252 41.3749 50.0452C32.5575 28.7802 24.8519 44.9964 22.1013 55.7626C12.9145 50.2258 3.53934 61.6138 0 68Z" fill="white"/>
</svg>
