<svg width="533" height="27" viewBox="0 0 533 27" fill="none" xmlns="http://www.w3.org/2000/svg">
<path opacity="0.1" fill-rule="evenodd" clip-rule="evenodd" d="M215.889 7.41254C219.193 7.41877 221.538 7.56415 223.812 7.75523C223.812 7.70331 223.812 7.65346 223.634 7.60985C226.439 7.59941 229.242 7.63161 231.771 7.70331L225.375 7.88815L223.812 7.75523L223.706 7.93592L220.863 8.01692C216.789 7.98876 212.701 7.96798 208.605 7.95462L215.889 7.41254ZM305.037 3.41862L300.773 3.85685L300.098 3.61177C299.174 3.27323 298.073 2.95131 297.54 2.57331C298.961 2.82877 301.875 3.11331 305.001 3.41862H305.037ZM324.615 1.21708C324.64 1.26329 324.747 1.30924 324.935 1.35415C324.331 1.28769 323.3 1.28769 324.615 1.21708ZM388.358 1.42477C387.825 1.57638 387.257 1.72385 386.653 1.86923C389.069 2.00423 391.485 2.17246 393.972 2.36146C389.389 2.38223 382.851 2.42377 376.739 2.57123L375.958 2.39677C374.812 2.13534 373.08 1.88392 370.806 1.64908C376.988 1.27938 383.81 1.16723 388.358 1.42685V1.42477ZM417.139 5.14246C416.748 5.20477 411.845 6.05631 407.048 6.31592C406.038 6.36411 404.897 6.40202 403.672 6.42808L399.089 5.95454L411.667 5.73646L398.449 5.89015L393.972 5.42492C403.779 5.26085 412.733 5.14662 417.139 5.14246ZM420.727 7.72408C418.968 7.75728 417.379 7.81585 416.108 7.89438L413.55 7.53508C416.151 7.56529 418.604 7.62916 420.727 7.722V7.72408ZM442.188 9.52477C449.117 9.92354 436.219 9.86123 438.6 9.909C443.929 10.8 465.746 10.2558 463.294 11.1198C458.142 11.5394 448.3 11.4106 443.361 11.5705C437.25 11.2548 443.254 10.9163 440.767 10.6712L439.843 11.0451C436.29 10.9745 432.24 10.7626 433.234 10.5882C432.667 10.6348 432.369 10.6908 432.382 10.7481L417.139 8.99931C426.057 9.03254 435.331 9.21738 442.188 9.52477ZM463.792 15.4398L463.436 15.4461L463.187 15.4128L463.792 15.4398ZM488.095 16.9477L484.72 16.4825C487.562 16.551 489.552 16.7172 488.095 16.9477ZM208.534 23.2034L207.326 23.0995C211.127 23.0476 209.848 23.1203 208.534 23.2034ZM463.614 11.6495C463.497 11.6479 463.378 11.6472 463.259 11.6474C463.969 11.3982 463.614 11.4875 463.614 11.6495ZM11.5117 20.9624C10.2962 20.985 8.98875 20.9843 7.78089 20.9603C11.334 21.0808 14.3897 21.2075 17.0546 21.3425C19.8616 21.4692 22.0645 21.6021 24.836 21.7371C29.7393 22.0175 36.9877 22.2875 44.8047 22.2895C50.2282 22.2885 55.4255 22.1624 59.266 21.9385C64.7023 21.897 69.7833 21.8513 74.4734 21.8015C66.7276 21.6644 68.5752 21.5481 71.2756 21.4276C74.0115 21.3072 77.3159 21.1784 75.3972 21.0538C78.0621 21.0455 80.6559 21.1722 82.1837 21.303C82.9654 21.3653 83.3207 21.4318 83.072 21.4795C82.8944 21.5273 82.0416 21.5585 80.194 21.5543L79.3768 21.4816C76.2855 21.7765 81.5442 21.8949 85.0618 21.9676C88.9702 22.0445 93.234 22.0985 92.2391 22.3124C116.507 22.5554 138.714 23.1764 161.241 23.4609L160.531 22.9417L168.276 23.058C169.946 23.1972 169.591 23.4734 164.048 23.3903C165.967 23.7018 174.388 23.2657 174.956 23.1598C185.225 23.4838 168.454 23.6832 171.794 23.733L176.52 23.7496L175.703 23.6811C180.179 23.5212 181.352 23.3135 188.032 23.4152C191.94 23.5606 189.062 23.7434 190.661 23.7808C190.519 23.8161 191.017 23.8389 193.184 23.8244L202.991 23.9802L200.503 23.5482C205.62 23.4069 209.742 23.6728 206.864 23.1826C210.985 23.9365 242.999 23.8493 246.304 24.1068C253.587 23.895 259.663 23.9698 267.089 24.0902C265.49 23.9864 266.023 23.5398 272.348 23.6665C266.521 24.5388 282.794 24.1941 285.566 24.9023C282.51 24.4184 304.468 25.0062 299.423 24.3125C304.575 24.4475 298.464 24.6531 301.804 24.9127C316.016 24.7112 329.412 25.4652 345.863 25.5295C346.573 25.4153 344.548 25.2035 348.67 25.0664L354.852 25.7518C358.192 25.731 360.359 25.1058 364.552 25.5815C364.09 25.4714 363.486 25.3094 365.725 25.2948C394.86 26.2295 431.493 25.5545 459.172 27C455.726 26.7217 458.675 26.7321 462.015 26.7612C460.061 26.6822 463.152 26.4704 463.365 26.3042L474.948 26.9024C479.07 26.487 489.339 27.0353 492.359 26.6262L487.846 26.6552C492.003 26.4143 490.476 26.0737 488.841 25.7123L501.988 25.8618C522.063 26.0903 538.727 25.0062 531.124 23.9615L480.776 17.0557C480.902 17.064 481.06 17.0704 481.237 17.0744L483.725 17.0058C482.552 16.8667 480.207 16.7961 479.674 16.9062L476.867 16.5219C482.552 16.6694 495.876 16.1813 502.45 15.7742C500.389 15.8116 498.541 15.8511 493.816 15.6372C492.003 15.7888 492.359 16.3745 486.496 16.2353C481.451 15.9238 485.963 15.9009 487.1 15.6704C482.978 15.9155 476.938 15.5063 470.116 15.5956L454.02 13.3858C454.42 13.386 454.814 13.3804 455.167 13.3695C455.521 13.3586 455.822 13.3428 456.046 13.3235L453.665 13.1365C457.325 12.8395 463.472 13.3712 463.934 13.0597C469.477 13.257 477.329 13.4439 477.293 13.8925L470.685 14.121C472.71 14.067 473.065 13.7762 470.116 13.7139C474.451 13.8074 464.786 14.5198 475.41 14.4928L478.359 14.1127C483.973 14.31 494.064 14.4865 494.313 14.8791C500.211 14.5675 492.892 14.8168 499.394 14.3931C490.653 14.8292 493.425 13.5062 485.11 14.0815C492.856 13.6225 485.999 13.5602 491.79 13.0535C489.516 13.1158 488.131 13.2674 487.171 12.9558C486.332 12.9543 485.498 12.9473 484.684 12.9351V12.9143C484.638 12.9213 484.591 12.9282 484.542 12.9351C484.08 12.9309 484.009 12.9309 484.471 12.9434C484.024 13.0305 483.161 13.1083 481.984 13.1677C475.517 13.1428 472.355 12.6817 468.411 12.5882C468.304 12.393 471.608 12.6007 473.492 12.4532L467.593 12.312C472.674 12.1749 472.994 11.6682 478.963 12.0046L476.583 11.637C477.933 11.3608 476.974 11.0409 473.456 10.908C473.349 10.7128 464.502 10.6027 469.69 10.6629L462.335 10.1645L463.578 10.1312C460.167 9.55592 446.523 9.16546 451.284 8.31808C448.584 8.16023 445.528 8.00031 444.711 7.65138L448.797 7.49146C445.457 7.28377 448.016 6.66485 442.544 6.66277C452.848 6.13523 436.645 5.42908 435.686 4.95554L429.646 5.06769C427.869 4.76862 424.103 4.52354 419.093 4.20992L414.047 4.347C410.743 4.23692 410.21 4.01469 409.961 3.75923C409.8 3.58196 409.348 3.406 408.611 3.23377C407.871 3.02632 406.739 2.82431 405.236 2.63146C407.403 2.61485 408.434 2.83915 408.327 3.01569C409.084 2.80599 408.917 2.58849 407.842 2.38359C406.767 2.17869 404.818 1.99313 402.18 1.84431C400.693 1.75569 399.063 1.6757 397.312 1.60546C390.561 1.32508 383.455 1.17762 379.156 0.724846C377.573 0.725008 376.011 0.70371 374.593 0.662627C373.175 0.621543 371.94 0.561794 370.983 0.488077C371.339 0.494307 371.658 0.496384 371.978 0.494307C371.523 0.47844 371.048 0.464557 370.557 0.452769C369.313 0.369692 367.963 0.278307 366.364 0.197307C367.321 0.285801 368.467 0.366768 369.775 0.43823C365.961 0.36928 361.937 0.349441 357.979 0.380077C357.76 0.266226 357.499 0.152662 357.197 0.0394612H356.131C351.867 -0.105923 352.258 0.178615 353.857 0.434077C351.731 0.472439 349.752 0.534505 348.03 0.616846C346.786 0.353077 343.802 0.392538 340.995 0.463154C338.081 0.517154 335.381 0.602307 332.574 0.344769C332.005 0.427846 330.513 0.504692 328.594 0.583615C326.818 0.670846 324.508 0.760154 322.554 0.876461C319.214 1.06754 316.549 1.31262 316.691 1.58262C312.96 1.65738 308.945 1.77785 307.702 2.07277C305.869 1.97325 303.985 1.87698 302.052 1.78408C301.415 2.06216 301.13 2.34262 301.2 2.62315C299.423 2.62938 297.789 2.63769 296.474 2.63146C295.378 2.62374 294.318 2.60401 293.347 2.57331C292.432 2.54192 291.692 2.49577 291.215 2.44038C290.918 2.40729 290.68 2.37249 290.505 2.33654C290.24 2.28969 290.179 2.23973 290.327 2.19115C289.865 2.25554 289.901 2.295 289.794 2.33654L289.545 2.44454C289.388 2.50044 289.187 2.55589 288.941 2.61069C288.515 2.70208 288.089 2.75815 287.662 2.81215C286.845 2.92223 286.17 3.02192 286.099 3.37292L282.901 3.16315C280.769 3.29608 281.728 3.75508 277.429 3.66992C265.597 3.58269 250.852 5.00746 231.345 5.38546C244.207 5.81538 220.579 5.46646 228.005 5.93585C224.807 5.84238 221.574 5.86731 221.609 5.63261C217.203 6.13108 207.539 5.97115 209.564 6.59631C206.366 6.50492 207.432 6.32215 205.3 6.27854C205.3 6.33669 205.3 6.51323 203.097 6.46961C200.965 6.42808 202.067 6.30346 202.102 6.18715C195.565 6.58385 202.351 7.03869 208.853 7.45408C202.031 7.46031 200.717 7.57869 202.813 7.97331C199.26 7.911 194.818 7.89023 198.301 7.60985C195.565 7.72408 180.108 8.22462 185.509 8.55069C183.306 8.51331 181.707 8.71062 181.707 8.78123C175.916 9.05746 174.956 9.05538 170.124 9.37315L172.505 9.34408C177.195 9.83423 169.591 9.66808 166.109 9.94639L165.541 9.90277C150.724 10.1645 163.622 10.2621 148.237 10.4802L152.998 10.6858C161.17 11.2382 138.999 10.854 136.831 11.3545L141.273 11.3753C141.273 11.7159 120.309 11.1593 116.045 11.2632C114.588 11.2569 115.832 11.1365 116.223 11.0534C102.721 11.1946 120.7 11.4148 115.903 11.8156C111.817 11.7097 109.756 11.3172 105.137 11.5041C100.696 11.4833 103.005 12.6817 91.7062 12.6651C95.2593 12.7274 98.7414 12.7897 97.6755 13.0348C94.1578 13.3152 77.3159 13.1843 80.6914 13.797C79.74 13.7951 78.8269 13.7746 78.0976 13.7388C76.6764 14.0192 70.4939 14.4886 72.4126 14.8147C54.789 14.1708 59.0528 16.3163 45.6574 15.5665L43.1702 15.7202L39.6171 15.9321L32.5108 16.3537L31.2316 16.2727C25.7953 16.5198 23.166 16.7255 22.3133 16.8916C21.5316 17.0619 22.4554 17.1969 23.4503 17.3215C20.288 17.4108 19.6484 17.3008 18.689 17.2696C10.8721 17.6165 7.74536 17.8345 6.60836 18.0298C5.57794 18.2208 6.50176 18.4078 9.593 18.7359C7.28345 18.765 5.04497 18.7962 2.84202 18.8294C4.36987 18.9208 0.639073 19.251 0.106101 19.7121C-0.640059 20.1607 2.48671 20.7277 11.4762 20.9624H11.5117Z" fill="#FFBB00"/>
</svg>
