<svg width="407" height="14" viewBox="0 0 407 14" fill="none" xmlns="http://www.w3.org/2000/svg">
<path opacity="0.4" fill-rule="evenodd" clip-rule="evenodd" d="M164.853 3.84354C167.376 3.84677 169.167 3.92215 170.903 4.02123C170.903 3.99431 170.903 3.96846 170.768 3.94585C172.91 3.94043 175.05 3.95713 176.981 3.99431L172.097 4.09015L170.903 4.02123L170.822 4.11492L168.651 4.15692C165.54 4.14232 162.419 4.13155 159.291 4.12462L164.853 3.84354ZM232.927 1.77262L229.671 1.99985L229.156 1.87277C228.45 1.69723 227.609 1.53031 227.202 1.33431C228.287 1.46677 230.512 1.61431 232.9 1.77262H232.927ZM247.877 0.631077C247.896 0.655042 247.977 0.678863 248.121 0.702154C247.66 0.667692 246.873 0.667692 247.877 0.631077ZM296.551 0.738769C296.144 0.817384 295.71 0.893846 295.249 0.969231C297.094 1.03923 298.939 1.12646 300.838 1.22446C297.338 1.23523 292.346 1.25677 287.679 1.33323L287.082 1.24277C286.208 1.10721 284.885 0.976849 283.148 0.855077C287.869 0.663384 293.078 0.605231 296.551 0.739846V0.738769ZM318.528 2.66646C318.23 2.69877 314.485 3.14031 310.823 3.27492C310.052 3.29991 309.18 3.31957 308.245 3.33308L304.745 3.08754L314.35 2.97446L304.257 3.05415L300.838 2.81292C308.326 2.72785 315.164 2.66862 318.528 2.66646ZM321.268 4.00508C319.925 4.02229 318.712 4.05266 317.741 4.09338L315.788 3.90708C317.774 3.92274 319.647 3.95586 321.268 4.004V4.00508ZM337.656 4.93877C342.947 5.14554 333.098 5.11323 334.916 5.138C338.986 5.6 355.645 5.31785 353.772 5.76585C349.838 5.98339 342.323 5.91662 338.551 5.99954C333.885 5.83585 338.47 5.66031 336.571 5.53323L335.865 5.72708C333.152 5.69046 330.059 5.58062 330.819 5.49015C330.386 5.51436 330.158 5.5434 330.168 5.57308L318.528 4.66631C325.338 4.68354 332.42 4.77938 337.656 4.93877ZM354.152 8.00585L353.881 8.00908L353.691 7.99185L354.152 8.00585ZM372.71 8.78769L370.133 8.54646C372.303 8.582 373.823 8.66815 372.71 8.78769ZM159.237 12.0314L158.314 11.9775C161.217 11.9506 160.241 11.9883 159.237 12.0314ZM354.017 6.04046C353.928 6.03967 353.836 6.03931 353.745 6.03938C354.288 5.91015 354.017 5.95646 354.017 6.04046ZM8.79036 10.8694C7.86224 10.8811 6.86383 10.8807 5.94151 10.8683C8.6547 10.9308 10.988 10.9965 13.0229 11.0665C15.1664 11.1322 16.8485 11.2011 18.9648 11.2711C22.709 11.4165 28.2439 11.5565 34.2129 11.5575C38.3543 11.557 42.323 11.4916 45.2556 11.3755C49.4068 11.354 53.2867 11.3303 56.8681 11.3045C50.9533 11.2334 52.3642 11.1731 54.4262 11.1106C56.5154 11.0482 59.0386 10.9814 57.5735 10.9168C59.6084 10.9125 61.589 10.9782 62.7557 11.046C63.3526 11.0783 63.6239 11.1128 63.434 11.1375C63.2983 11.1623 62.6472 11.1785 61.2363 11.1763L60.6123 11.1386C58.2518 11.2915 62.2673 11.3529 64.9534 11.3906C67.9379 11.4305 71.1937 11.4585 70.434 11.5694C88.9651 11.6954 105.923 12.0174 123.124 12.1649L122.582 11.8957L128.496 11.956C129.771 12.0282 129.5 12.1714 125.268 12.1283C126.733 12.2898 133.163 12.0637 133.597 12.0088C141.438 12.1768 128.632 12.2802 131.182 12.306L134.791 12.3146L134.167 12.2791C137.585 12.1962 138.481 12.0885 143.582 12.1412C146.566 12.2166 144.368 12.3114 145.589 12.3308C145.481 12.3491 145.861 12.3609 147.516 12.3534L155.004 12.4342L153.105 12.2102C157.012 12.1369 160.159 12.2748 157.962 12.0206C161.109 12.4115 185.555 12.3663 188.078 12.4998C193.64 12.39 198.28 12.4288 203.95 12.4912C202.729 12.4374 203.136 12.2058 207.966 12.2715C203.516 12.7238 215.942 12.5451 218.059 12.9123C215.725 12.6614 232.493 12.9662 228.64 12.6065C232.574 12.6765 227.908 12.7831 230.458 12.9177C241.311 12.8132 251.539 13.2042 264.101 13.2375C264.644 13.1783 263.098 13.0685 266.245 12.9974L270.966 13.3528C273.516 13.342 275.171 13.0178 278.373 13.2645C278.02 13.2074 277.559 13.1234 279.268 13.1158C301.516 13.6005 329.489 13.2505 350.625 14C347.993 13.8557 350.245 13.8611 352.796 13.8762C351.303 13.8352 353.664 13.7254 353.827 13.6392L362.672 13.9494C365.819 13.734 373.66 14.0183 375.966 13.8062L372.521 13.8212C375.695 13.6963 374.528 13.5197 373.28 13.3323L383.319 13.4098C398.649 13.5283 411.373 12.9662 405.567 12.4245L367.121 8.84369C367.218 8.84798 367.339 8.8513 367.474 8.85338L369.373 8.81785C368.478 8.74569 366.687 8.70908 366.28 8.76615L364.137 8.56692C368.478 8.64338 378.652 8.39031 383.672 8.17923C382.098 8.19862 380.687 8.21908 377.079 8.10815C375.695 8.18677 375.966 8.49046 371.49 8.41831C367.637 8.25677 371.083 8.24492 371.951 8.12539C368.803 8.25246 364.191 8.04031 358.982 8.08662L346.691 6.94077C346.996 6.94088 347.297 6.93798 347.567 6.93234C347.837 6.92671 348.067 6.9185 348.237 6.90846L346.42 6.81154C349.214 6.65754 353.908 6.93323 354.261 6.77169C358.493 6.874 364.49 6.97092 364.462 7.20354L359.416 7.322C360.962 7.294 361.234 7.14323 358.982 7.11092C362.292 7.15939 354.912 7.52877 363.024 7.51477L365.276 7.31769C369.563 7.42 377.269 7.51154 377.459 7.71508C381.962 7.55354 376.373 7.68277 381.338 7.46308C374.664 7.68923 376.78 7.00323 370.431 7.30154C376.346 7.06354 371.11 7.03123 375.532 6.76846C373.796 6.80077 372.738 6.87938 372.005 6.71785C371.364 6.71703 370.727 6.71342 370.106 6.70708V6.69631C370.071 6.69992 370.035 6.70351 369.997 6.70708C369.645 6.70492 369.59 6.70492 369.943 6.71138C369.602 6.75654 368.943 6.79689 368.044 6.82769C363.106 6.81477 360.691 6.57569 357.679 6.52723C357.598 6.426 360.121 6.53369 361.559 6.45723L357.055 6.384C360.935 6.31292 361.179 6.05015 365.738 6.22462L363.92 6.034C364.951 5.89077 364.218 5.72492 361.532 5.656C361.451 5.55477 354.695 5.49769 358.656 5.52892L353.04 5.27046L353.989 5.25323C351.385 4.95492 340.966 4.75246 344.602 4.31308C342.54 4.23123 340.206 4.14831 339.582 3.96738L342.703 3.88446C340.152 3.77677 342.106 3.45585 337.927 3.45477C345.796 3.18123 333.423 2.81508 332.691 2.56954L328.078 2.62769C326.722 2.47262 323.846 2.34554 320.02 2.18292L316.168 2.254C313.644 2.19692 313.237 2.08169 313.047 1.94923C312.924 1.85731 312.579 1.76607 312.016 1.67677C311.451 1.5692 310.587 1.46446 309.439 1.36446C311.094 1.35585 311.881 1.47215 311.799 1.56369C312.378 1.45496 312.25 1.34218 311.429 1.23593C310.608 1.12969 309.12 1.03347 307.106 0.956308C305.97 0.910356 304.725 0.86888 303.388 0.832461C298.233 0.687077 292.807 0.610615 289.524 0.375846C288.316 0.37593 287.123 0.364887 286.04 0.343584C284.957 0.322282 284.014 0.291301 283.284 0.253077C283.555 0.256308 283.799 0.257384 284.043 0.256308C283.695 0.24808 283.333 0.240881 282.958 0.234769C282.009 0.191692 280.978 0.144308 279.757 0.102308C280.487 0.148193 281.362 0.190176 282.361 0.227231C279.449 0.191479 276.376 0.181191 273.353 0.197077C273.186 0.138043 272.987 0.0791581 272.757 0.0204614H271.943C268.687 -0.0549232 268.985 0.0926152 270.206 0.225077C268.583 0.244968 267.072 0.277151 265.757 0.319846C264.807 0.183077 262.528 0.203538 260.384 0.240154C258.16 0.268154 256.098 0.312308 253.954 0.178769C253.52 0.221846 252.381 0.261692 250.915 0.302615C249.559 0.347846 247.795 0.394154 246.303 0.454461C243.753 0.553538 241.718 0.680615 241.826 0.820615C238.977 0.859384 235.911 0.921846 234.962 1.07477C233.562 1.02317 232.123 0.973249 230.648 0.925077C230.161 1.06927 229.943 1.21469 229.997 1.36015C228.64 1.36338 227.392 1.36769 226.388 1.36446C225.552 1.36046 224.742 1.35023 224.001 1.33431C223.302 1.31803 222.737 1.2941 222.373 1.26538C222.146 1.24822 221.964 1.23018 221.83 1.21154C221.628 1.18725 221.581 1.16134 221.694 1.13615C221.342 1.16954 221.369 1.19 221.287 1.21154L221.097 1.26754C220.978 1.29653 220.824 1.32528 220.636 1.35369C220.311 1.40108 219.985 1.43015 219.659 1.45815C219.035 1.51523 218.52 1.56692 218.466 1.74892L216.024 1.64015C214.396 1.70908 215.128 1.94708 211.845 1.90292C202.811 1.85769 191.551 2.59646 176.655 2.79246C186.477 3.01538 168.434 2.83446 174.105 3.07785C171.663 3.02938 169.194 3.04231 169.221 2.92062C165.857 3.17908 158.477 3.09615 160.024 3.42031C157.582 3.37292 158.396 3.27815 156.768 3.25554C156.768 3.28569 156.768 3.37723 155.086 3.35462C153.458 3.33308 154.299 3.26846 154.326 3.20815C149.334 3.41385 154.516 3.64969 159.481 3.86508C154.272 3.86831 153.268 3.92969 154.868 4.13431C152.155 4.102 148.764 4.09123 151.423 3.94585C149.334 4.00508 137.531 4.26462 141.655 4.43369C139.973 4.41431 138.752 4.51662 138.752 4.55323C134.33 4.69646 133.597 4.69538 129.907 4.86015L131.725 4.84508C135.306 5.09923 129.5 5.01308 126.841 5.15738L126.407 5.13477C115.093 5.27046 124.942 5.32108 113.194 5.43415L116.83 5.54077C123.07 5.82723 106.14 5.628 104.485 5.88754L107.876 5.89831C107.876 6.07492 91.8682 5.78631 88.6124 5.84015C87.5 5.83692 88.4496 5.77446 88.7481 5.73138C78.4379 5.80462 92.1667 5.91877 88.5039 6.12662C85.3837 6.07169 83.81 5.86815 80.2829 5.96508C76.8914 5.95431 78.655 6.57569 70.027 6.56708C72.7402 6.59938 75.3992 6.63169 74.5852 6.75877C71.8991 6.90415 59.0386 6.83631 61.6162 7.154C60.8896 7.15301 60.1924 7.14239 59.6355 7.12385C58.5503 7.26923 53.8293 7.51262 55.2944 7.68169C41.837 7.34785 45.0928 8.46031 34.8641 8.07154L32.9649 8.15123L30.2517 8.26108L24.8253 8.47969L23.8486 8.43769C19.6974 8.56585 17.6896 8.67246 17.0385 8.75862C16.4416 8.84692 17.147 8.91692 17.9067 8.98154C15.4919 9.02785 15.0036 8.97077 14.271 8.95462C8.30198 9.13446 5.91438 9.24754 5.04616 9.34877C4.25933 9.44785 4.96476 9.54477 7.32524 9.71492C5.56166 9.73 3.85235 9.74615 2.17017 9.76338C3.33685 9.81077 0.487997 9.982 0.081019 10.2211C-0.488751 10.4537 1.89886 10.7477 8.76323 10.8694H8.79036Z" fill="#93B6F2"/>
</svg>
