<svg width="116" height="81" viewBox="0 0 116 81" fill="none" xmlns="http://www.w3.org/2000/svg">
<path d="M31.3901 71.8655L18.2611 65.6567C17.8535 65.5325 17.3438 65.6267 17.3288 66.0854C17.1755 66.4129 17.3498 66.8936 17.5972 67.0758L29.9891 75.0023C30.7823 75.4399 31.7217 75.2806 32.2104 74.3782C32.5389 73.534 32.2705 72.5435 31.3901 71.8655C31.3901 71.8655 31.6084 71.9676 31.3901 71.8655Z" fill="#FFDC4D"/>
<path d="M13.0411 55.7638L6.23675 52.2478C6.01842 52.1456 5.77806 52.2328 5.75604 52.4221C5.62485 52.5603 5.74103 52.8808 5.95936 52.9829L12.4353 57.3432C12.901 57.6276 13.3306 57.5625 13.586 57.0167C13.63 56.6381 13.5068 56.0482 13.0411 55.7638C13.0411 55.7638 13.1212 55.7348 13.0411 55.7638Z" fill="#FFDC4D"/>
<path d="M41.6734 60.9755L39.2299 65.4873C39.1788 65.5965 39.1568 65.7858 39.3461 65.8078C39.4552 65.8589 39.6155 65.8008 39.6665 65.6916L42.736 61.4061C42.9183 61.1587 42.8822 60.8092 42.5547 60.6559C42.2562 60.5828 41.9358 60.699 41.6734 60.9755C41.6734 60.9755 41.7535 60.9464 41.6734 60.9755Z" fill="#FFDC4D"/>
<path d="M14.1304 53.0127L10.4628 50.8977C10.3536 50.8466 10.1934 50.9047 10.2224 50.9848C10.1714 51.094 10.2295 51.2542 10.3386 51.3053L13.831 53.9371C14.0783 54.1194 14.3187 54.0322 14.4208 53.8139C14.4939 53.5154 14.3778 53.195 14.1304 53.0127C14.1304 53.0127 14.2105 52.9836 14.1304 53.0127Z" fill="#FFDC4D"/>
<path d="M39.8458 60.1873L38.3727 62.625C38.3216 62.7342 38.3507 62.8143 38.4308 62.7852C38.54 62.8363 38.6201 62.8073 38.6712 62.6981L40.4718 60.4136C40.603 60.2754 40.5449 60.1151 40.4067 59.984C40.2174 59.9619 39.977 60.0491 39.8458 60.1873Z" fill="#FFDC4D"/>
<path d="M32.3047 73.8903L37.6501 57.6297C37.7452 57.142 37.4908 56.6903 37.1633 56.5371C36.6756 56.442 36.3841 56.6383 36.0707 57.0239L28.8695 72.4163C28.3808 73.3186 28.7874 74.4403 29.9081 75.0311C30.9998 75.5419 31.9322 75.1132 32.523 73.9925C32.1444 73.9484 32.1444 73.9484 32.3047 73.8903Z" fill="#FFDC4D"/>
<path d="M101.084 3.81141C101.084 3.81141 69.8038 4.5457 60.4294 23.4454C51.055 42.3452 72.1461 52.0129 76.6533 36.6907C81.7813 19.3305 50.5202 15.6161 37.0777 32.546C23.3217 49.8615 26.8044 62.4683 29.5338 70.997" stroke="#FFDC4D" stroke-width="2" stroke-miterlimit="10" stroke-linecap="round"/>
</svg>
