<svg width="201" height="12" viewBox="0 0 201 12" fill="none" xmlns="http://www.w3.org/2000/svg">
<path opacity="0.4" fill-rule="evenodd" clip-rule="evenodd" d="M81.4139 3.29446C82.66 3.29723 83.5444 3.36185 84.4019 3.44677C84.4019 3.42369 84.4019 3.40154 84.3349 3.38215C85.3927 3.37751 86.4498 3.39182 87.4034 3.42369L84.9915 3.50585L84.4019 3.44677L84.3617 3.52708L83.2898 3.56308C81.7534 3.55056 80.2117 3.54133 78.667 3.53538L81.4139 3.29446ZM115.033 1.51938L113.425 1.71415L113.17 1.60523C112.822 1.45477 112.406 1.31169 112.205 1.14369C112.741 1.25723 113.84 1.38369 115.019 1.51938H115.033ZM122.416 0.540923C122.425 0.561464 122.465 0.581883 122.536 0.601846C122.309 0.572308 121.92 0.572308 122.416 0.540923ZM146.454 0.633231C146.253 0.700615 146.039 0.766154 145.811 0.830769C146.722 0.890769 147.633 0.965538 148.571 1.04954C146.843 1.05877 144.377 1.07723 142.072 1.14277L141.778 1.06523C141.346 0.94904 140.692 0.837299 139.835 0.732923C142.166 0.568615 144.739 0.518769 146.454 0.634154V0.633231ZM157.307 2.28554C157.16 2.31323 155.311 2.69169 153.502 2.80708C153.121 2.82849 152.691 2.84534 152.229 2.85692L150.501 2.64646L155.244 2.54954L150.259 2.61785L148.571 2.41108C152.269 2.33815 155.646 2.28738 157.307 2.28554ZM158.661 3.43292C157.997 3.44768 157.398 3.47371 156.919 3.50862L155.954 3.34892C156.935 3.36235 157.86 3.39074 158.661 3.432V3.43292ZM166.754 4.23323C169.367 4.41046 164.503 4.38277 165.401 4.404C167.411 4.8 175.638 4.55815 174.713 4.94215C172.77 5.12862 169.059 5.07138 167.196 5.14246C164.891 5.00215 167.156 4.85169 166.218 4.74277L165.87 4.90892C164.53 4.87754 163.002 4.78338 163.377 4.70585C163.163 4.72659 163.051 4.75148 163.056 4.77692L157.307 3.99969C160.671 4.01446 164.168 4.09662 166.754 4.23323ZM174.901 6.86215L174.767 6.86492L174.673 6.85015L174.901 6.86215ZM184.066 7.53231L182.793 7.32554C183.865 7.356 184.615 7.42985 184.066 7.53231ZM78.6402 10.3126L78.1847 10.2665C79.6184 10.2434 79.136 10.2757 78.6402 10.3126ZM174.834 5.17754C174.79 5.17686 174.745 5.17655 174.7 5.17662C174.968 5.06585 174.834 5.10554 174.834 5.17754ZM4.34118 9.31662C3.88282 9.32667 3.38976 9.32635 2.93426 9.31569C4.27419 9.36923 5.42653 9.42554 6.43147 9.48554C7.49002 9.54185 8.32077 9.60092 9.36592 9.66092C11.215 9.78554 13.9485 9.90554 16.8963 9.90646C18.9416 9.90602 20.9015 9.84995 22.3498 9.75046C24.3999 9.732 26.316 9.71169 28.0847 9.68954C25.1637 9.62862 25.8604 9.57692 26.8788 9.52339C27.9105 9.46985 29.1567 9.41262 28.4331 9.35723C29.4381 9.35354 30.4162 9.40985 30.9924 9.468C31.2872 9.49569 31.4211 9.52523 31.3274 9.54646C31.2604 9.56769 30.9388 9.58154 30.242 9.57969L29.9338 9.54739C28.7681 9.67846 30.7512 9.73108 32.0777 9.76338C33.5516 9.79754 35.1595 9.82154 34.7844 9.91662C43.9361 10.0246 52.3106 10.3006 60.8058 10.4271L60.5378 10.1963L63.4588 10.248C64.0886 10.3098 63.9546 10.4326 61.8643 10.3957C62.5879 10.5342 65.7635 10.3403 65.9779 10.2932C69.8503 10.4372 63.5258 10.5258 64.7854 10.548L66.5675 10.5554L66.2593 10.5249C67.9476 10.4538 68.3898 10.3615 70.9089 10.4068C72.3828 10.4714 71.2974 10.5526 71.9004 10.5692C71.8468 10.5849 72.0344 10.5951 72.8517 10.5886L76.5499 10.6578L75.612 10.4658C77.5415 10.4031 79.0958 10.5212 78.0105 10.3034C79.5648 10.6385 91.6376 10.5997 92.8837 10.7142C95.6305 10.62 97.9218 10.6532 100.722 10.7068C100.119 10.6606 100.32 10.4622 102.705 10.5185C100.508 10.9062 106.645 10.7529 107.69 11.0677C106.538 10.8526 114.818 11.1138 112.916 10.8055C114.859 10.8655 112.554 10.9569 113.813 11.0723C119.173 10.9828 124.225 11.3178 130.428 11.3465C130.696 11.2957 129.933 11.2015 131.487 11.1406L133.819 11.4452C135.078 11.436 135.895 11.1582 137.477 11.3695C137.302 11.3206 137.075 11.2486 137.919 11.2422C148.906 11.6575 162.721 11.3575 173.159 12C171.859 11.8763 172.971 11.8809 174.231 11.8938C173.494 11.8588 174.66 11.7646 174.74 11.6908L179.108 11.9566C180.662 11.772 184.535 12.0157 185.674 11.8338L183.972 11.8468C185.54 11.7397 184.964 11.5883 184.347 11.4277L189.305 11.4942C196.876 11.5957 203.16 11.1138 200.292 10.6495L181.306 7.58031C181.353 7.58398 181.413 7.58683 181.48 7.58861L182.418 7.55815C181.976 7.49631 181.091 7.46492 180.89 7.51385L179.832 7.34308C181.976 7.40862 187 7.19169 189.479 7.01077C188.702 7.02738 188.005 7.04492 186.223 6.94985C185.54 7.01723 185.674 7.27754 183.463 7.21569C181.56 7.07723 183.262 7.06708 183.691 6.96462C182.136 7.07354 179.858 6.89169 177.286 6.93138L171.216 5.94923C171.367 5.94932 171.515 5.94684 171.648 5.94201C171.782 5.93718 171.896 5.93014 171.98 5.92154L171.082 5.83846C172.462 5.70646 174.78 5.94277 174.954 5.80431C177.045 5.892 180.006 5.97508 179.992 6.17446L177.5 6.276C178.264 6.252 178.398 6.12277 177.286 6.09508C178.921 6.13662 175.276 6.45323 179.282 6.44123L180.394 6.27231C182.512 6.36 186.317 6.43846 186.411 6.61292C188.635 6.47446 185.875 6.58523 188.327 6.39692C185.031 6.59077 186.076 6.00277 182.94 6.25846C185.861 6.05446 183.275 6.02677 185.459 5.80154C184.602 5.82923 184.079 5.89662 183.717 5.75815C183.401 5.75745 183.086 5.75436 182.78 5.74892V5.73969C182.762 5.74279 182.744 5.74587 182.726 5.74892C182.552 5.74708 182.525 5.74708 182.699 5.75262C182.531 5.79132 182.205 5.8259 181.761 5.85231C179.322 5.84123 178.13 5.63631 176.643 5.59477C176.602 5.508 177.849 5.60031 178.559 5.53477L176.334 5.472C178.251 5.41108 178.371 5.18585 180.622 5.33538L179.724 5.172C180.234 5.04923 179.872 4.90708 178.545 4.848C178.505 4.76123 175.169 4.71231 177.125 4.73908L174.351 4.51754L174.82 4.50277C173.534 4.24708 168.389 4.07354 170.184 3.69692C169.166 3.62677 168.014 3.55569 167.705 3.40062L169.246 3.32954C167.987 3.23723 168.951 2.96215 166.888 2.96123C170.774 2.72677 164.664 2.41292 164.302 2.20246L162.024 2.25231C161.354 2.11938 159.934 2.01046 158.044 1.87108L156.142 1.932C154.896 1.88308 154.695 1.78431 154.601 1.67077C154.54 1.59198 154.369 1.51378 154.092 1.43723C153.812 1.34503 153.385 1.25525 152.819 1.16954C153.636 1.16215 154.025 1.26185 153.984 1.34031C154.27 1.24711 154.207 1.15044 153.802 1.05937C153.396 0.968308 152.661 0.885833 151.666 0.819692C151.106 0.780305 150.491 0.744755 149.831 0.713538C147.285 0.588923 144.605 0.523385 142.984 0.322154C142.387 0.322226 141.798 0.31276 141.263 0.294501C140.728 0.276242 140.262 0.249686 139.902 0.216923C140.036 0.219692 140.156 0.220615 140.277 0.219692C140.105 0.21264 139.926 0.20647 139.741 0.201231C139.272 0.164308 138.763 0.123692 138.16 0.0876922C138.521 0.127023 138.953 0.163008 139.446 0.194769C138.008 0.164124 136.49 0.155307 134.998 0.168923C134.915 0.118323 134.817 0.0678498 134.703 0.0175383H134.301C132.693 -0.0470771 132.84 0.0793845 133.443 0.192923C132.642 0.209973 131.895 0.237558 131.246 0.274154C130.777 0.156923 129.651 0.174461 128.593 0.205846C127.494 0.229846 126.476 0.267692 125.417 0.153231C125.203 0.190154 124.64 0.224308 123.916 0.259384C123.246 0.298154 122.376 0.337846 121.639 0.389538C120.379 0.474461 119.374 0.583384 119.428 0.703384C118.021 0.736615 116.507 0.790154 116.038 0.921231C115.346 0.877002 114.636 0.834213 113.907 0.792923C113.667 0.916515 113.559 1.04116 113.586 1.16585C112.916 1.16862 112.299 1.17231 111.803 1.16954C111.39 1.16611 110.99 1.15734 110.624 1.14369C110.279 1.12974 110 1.10923 109.82 1.08462C109.708 1.06991 109.618 1.05444 109.552 1.03846C109.453 1.01764 109.429 0.995433 109.485 0.973846C109.311 1.00246 109.325 1.02 109.284 1.03846L109.191 1.08646C109.131 1.11131 109.055 1.13595 108.963 1.16031C108.802 1.20092 108.641 1.22585 108.48 1.24985C108.172 1.29877 107.918 1.34308 107.891 1.49908L106.685 1.40585C105.881 1.46492 106.243 1.66892 104.621 1.63108C100.16 1.59231 94.5988 2.22554 87.2426 2.39354C92.0931 2.58462 83.1826 2.42954 85.983 2.63815C84.7771 2.59662 83.5578 2.60769 83.5712 2.50338C81.9097 2.72492 78.2651 2.65385 79.0288 2.93169C77.8229 2.89108 78.2249 2.80985 77.4209 2.79046C77.4209 2.81631 77.4209 2.89477 76.5901 2.87538C75.7862 2.85692 76.2016 2.80154 76.215 2.74985C73.7495 2.92615 76.3088 3.12831 78.7608 3.31292C76.1882 3.31569 75.6924 3.36831 76.483 3.54369C75.143 3.516 73.4681 3.50677 74.7812 3.38215C73.7495 3.43292 67.9208 3.65538 69.9575 3.80031C69.1267 3.78369 68.5238 3.87138 68.5238 3.90277C66.3397 4.02554 65.9779 4.02462 64.1556 4.16585L65.0534 4.15292C66.8221 4.37077 63.9546 4.29692 62.6415 4.42062L62.4271 4.40123C56.8396 4.51754 61.7035 4.56092 55.9016 4.65785L57.6972 4.74923C60.779 4.99477 52.4178 4.824 51.6005 5.04646L53.2754 5.05569C53.2754 5.20708 45.3698 4.95969 43.7619 5.00585C43.2125 5.00308 43.6815 4.94954 43.8289 4.91262C38.7372 4.97538 45.5172 5.07323 43.7083 5.25138C42.1674 5.20431 41.3902 5.02985 39.6483 5.11292C37.9734 5.10369 38.8444 5.63631 34.5834 5.62892C35.9233 5.65662 37.2364 5.68431 36.8345 5.79323C35.5079 5.91785 29.1567 5.85969 30.4296 6.132C30.0708 6.13115 29.7265 6.12205 29.4515 6.10615C28.9155 6.23077 26.584 6.43938 27.3076 6.58431C20.6615 6.29815 22.2694 7.25169 17.2179 6.91846L16.2799 6.98677L14.94 7.08092L12.2602 7.26831L11.7778 7.23231C9.7277 7.34215 8.73615 7.43354 8.41457 7.50738C8.11978 7.58308 8.46816 7.64308 8.84334 7.69846C7.65081 7.73815 7.40962 7.68923 7.04784 7.67538C4.1 7.82954 2.92086 7.92646 2.49208 8.01323C2.1035 8.09815 2.45188 8.18123 3.61762 8.32708C2.74667 8.34 1.90251 8.35385 1.07176 8.36862C1.64793 8.40923 0.241001 8.556 0.0400118 8.76092C-0.241373 8.96031 0.937764 9.21231 4.32778 9.31662H4.34118Z" fill="#93B6F2"/>
</svg>
