<svg width="116" height="32" viewBox="0 0 116 32" fill="none" xmlns="http://www.w3.org/2000/svg">
<g clip-path="url(#clip0)">
<path d="M112.903 17.4546L102.512 7.22258C102.212 6.92164 102.212 6.42007 102.611 6.21945C102.911 5.91851 103.411 5.91851 103.611 6.11913L115.3 15.047C116 15.6489 116.2 16.5517 115.5 17.3542C114.901 17.9561 113.902 18.0564 112.903 17.4546C113.102 17.6552 112.903 17.4546 112.903 17.4546Z" fill="black"/>
<path d="M91.5207 5.81813L85.8257 0.601827C85.6258 0.4012 85.6258 0.200573 85.8257 0.10026C85.9256 -5.39552e-05 86.2253 -5.39552e-05 86.4251 0.10026L92.7197 4.71468C93.1194 5.01562 93.2193 5.51719 92.8196 5.91844C92.5199 6.01875 91.9204 6.11907 91.5207 5.81813C91.5207 5.91844 91.5207 5.81813 91.5207 5.81813Z" fill="black"/>
<path d="M106.308 30.8965L109.705 26.9843C109.805 26.884 110.005 26.7837 110.005 26.9843C110.105 27.0846 110.105 27.2852 110.005 27.2852L107.107 31.699C106.908 32 106.608 32 106.308 31.7993C106.108 31.5987 106.108 31.2978 106.308 30.8965C106.308 30.9968 106.308 30.8965 106.308 30.8965Z" fill="black"/>
<path d="M89.3233 7.82445L86.0261 5.11598C85.9262 5.01567 85.9262 4.81504 86.0261 4.81504C86.126 4.71473 86.3259 4.71473 86.3259 4.81504L90.0227 7.22257C90.3224 7.42319 90.3224 7.62382 90.1226 7.82445C89.8228 7.92476 89.5231 7.92476 89.3233 7.82445C89.3233 7.92476 89.3233 7.82445 89.3233 7.82445Z" fill="black"/>
<path d="M104.909 29.4922L106.708 27.2853C106.808 27.1849 106.907 27.1849 106.907 27.2853C107.007 27.3856 107.007 27.4859 106.907 27.5862L105.409 30.094C105.309 30.2947 105.109 30.2947 105.009 30.1943C104.909 29.8934 104.909 29.6928 104.909 29.4922Z" fill="black"/>
<path d="M115.201 17.5548L101.813 28.2884C101.413 28.5893 100.913 28.489 100.614 28.1881C100.314 27.7868 100.414 27.3855 100.714 26.9843L112.603 14.8464C113.303 14.0439 114.502 14.0439 115.401 14.9467C116.3 15.7492 116.2 16.8526 115.301 17.7555C115.201 17.4545 115.201 17.4545 115.201 17.5548Z" fill="black"/>
<path d="M1 17.0533C29.2756 19.6615 50.0577 -9.02819 64.745 6.01884C72.6382 15.8496 60.5487 41.6301 50.5573 25.6803C49.0586 23.3731 48.8587 20.3637 50.2575 18.0565C54.4539 11.0345 68.9414 15.2477 111.005 15.5486" stroke="black" stroke-width="2" stroke-miterlimit="10" stroke-linecap="round" stroke-dasharray="6 6"/>
</g>
<defs>
<clipPath id="clip0">
<rect width="116" height="32" fill="white"/>
</clipPath>
</defs>
</svg>
