<svg width="113" height="50" viewBox="0 0 113 50" fill="none" xmlns="http://www.w3.org/2000/svg">
<path d="M18.4158 46.5753L7.71442 35.7847C7.3577 35.5172 6.82263 35.428 6.64427 35.8739C6.37674 36.1414 6.37674 36.6765 6.55509 36.944L15.9188 49.1615C16.5431 49.8749 17.524 50.0533 18.3266 49.3398C18.9509 48.6264 19.0401 47.5563 18.4158 46.5753C18.5942 46.7537 18.4158 46.5753 18.4158 46.5753Z" fill="black"/>
<path d="M6.10828 24.1917L0.668398 18.3059C0.490041 18.1275 0.222507 18.1275 0.133329 18.3059C-0.0450277 18.3951 -0.0450277 18.7518 0.133329 18.9301L4.94896 25.5293C5.30567 25.9752 5.75156 26.0644 6.19745 25.6185C6.37581 25.2618 6.46499 24.6376 6.10828 24.1917C6.19745 24.1917 6.10828 24.1917 6.10828 24.1917Z" fill="black"/>
<path d="M32.4161 39.53L28.4031 43.0971C28.3139 43.1863 28.2247 43.3647 28.4031 43.4539C28.4922 43.543 28.6706 43.543 28.7598 43.4539L33.3079 40.3326C33.5754 40.1543 33.6646 39.7975 33.3971 39.53C33.1295 39.3517 32.7728 39.3517 32.4161 39.53C32.5053 39.53 32.4161 39.53 32.4161 39.53Z" fill="black"/>
<path d="M8.1592 21.8729L5.30549 18.4841C5.21631 18.3949 5.03796 18.3949 5.03796 18.4841C4.94878 18.5733 4.94878 18.7517 5.03796 18.8408L7.53495 22.6755C7.71331 22.943 7.98084 22.943 8.1592 22.7647C8.33756 22.4971 8.33756 22.1404 8.1592 21.8729C8.24838 21.8729 8.1592 21.8729 8.1592 21.8729Z" fill="black"/>
<path d="M30.9002 38.1033L28.5815 39.976C28.4924 40.0652 28.4924 40.1544 28.5815 40.1544C28.6707 40.2435 28.7599 40.2435 28.8491 40.1544L31.4353 38.5492C31.6136 38.46 31.6136 38.2816 31.5244 38.1033C31.3461 38.0141 31.0785 38.0141 30.9002 38.1033Z" fill="black"/>
<path d="M18.5938 48.894L29.6519 34.8038C29.9195 34.3579 29.8303 33.8229 29.5628 33.5553C29.1169 33.2878 28.7602 33.377 28.3143 33.6445L15.7401 46.2187C14.9375 46.9321 14.9375 48.1806 15.8293 49.1615C16.7211 50.0533 17.7912 49.9642 18.7722 49.0724C18.4155 48.894 18.4155 48.894 18.5938 48.894Z" fill="black"/>
<path d="M111.25 4.48311C111.25 4.48311 80.2159 -5.95076 64.253 9.29874C48.2901 24.5482 65.5907 41.5813 75.4895 28.1154C86.726 12.8659 57.2971 -1.93773 38.0346 9.92299C18.3262 22.0512 17.256 35.6955 16.8993 45.0593" stroke="black" stroke-width="2" stroke-miterlimit="10" stroke-linecap="round"/>
</svg>
