<svg width="89" height="6" viewBox="0 0 89 6" fill="none" xmlns="http://www.w3.org/2000/svg">
<path fill-rule="evenodd" clip-rule="evenodd" d="M36.0489 1.64723C36.6007 1.64862 36.9923 1.68092 37.372 1.72338C37.372 1.71185 37.372 1.70077 37.3423 1.69108C37.8107 1.68876 38.2788 1.69591 38.701 1.71185L37.6331 1.75292L37.372 1.72338L37.3542 1.76354L36.8796 1.78154C36.1993 1.77528 35.5166 1.77066 34.8327 1.76769L36.0489 1.64723ZM50.9349 0.759692L50.2229 0.857077L50.1102 0.802615C49.9559 0.727385 49.772 0.655846 49.683 0.571846C49.9203 0.628615 50.4068 0.691846 50.929 0.759692H50.9349ZM54.204 0.270461C54.2081 0.280732 54.226 0.290941 54.2574 0.300923C54.1565 0.286154 53.9845 0.286154 54.204 0.270461ZM64.8478 0.316615C64.7588 0.350308 64.6639 0.383077 64.563 0.415385C64.9665 0.445385 65.3699 0.482769 65.7852 0.524769C65.0199 0.529385 63.9282 0.538615 62.9077 0.571385L62.7772 0.532615C62.5859 0.47452 62.2967 0.41865 61.9169 0.366461C62.9492 0.284308 64.0884 0.259385 64.8478 0.317077V0.316615ZM69.6536 1.14277C69.5883 1.15662 68.7695 1.34585 67.9686 1.40354C67.8 1.41425 67.6095 1.42267 67.4049 1.42846L66.6396 1.32323L68.7399 1.27477L66.5328 1.30892L65.7852 1.20554C67.4227 1.16908 68.9179 1.14369 69.6536 1.14277ZM70.2528 1.71646C69.9589 1.72384 69.6937 1.73686 69.4815 1.75431L69.0543 1.67446C69.4887 1.68118 69.8982 1.69537 70.2528 1.716V1.71646ZM73.8363 2.11662C74.9933 2.20523 72.8396 2.19138 73.2371 2.202C74.1271 2.4 77.7699 2.27908 77.3605 2.47108C76.5003 2.56431 74.8568 2.53569 74.0321 2.57123C73.0117 2.50108 74.0143 2.42585 73.599 2.37138L73.4448 2.45446C72.8515 2.43877 72.1751 2.39169 72.3412 2.35292C72.2465 2.3633 72.1967 2.37574 72.1988 2.38846L69.6536 1.99985C71.1427 2.00723 72.6913 2.04831 73.8363 2.11662ZM77.4436 3.43108L77.3843 3.43246L77.3428 3.42508L77.4436 3.43108ZM81.5018 3.76615L80.9382 3.66277C81.4128 3.678 81.745 3.71492 81.5018 3.76615ZM34.8208 5.15631L34.6191 5.13323C35.2539 5.12169 35.0403 5.13785 34.8208 5.15631ZM77.4139 2.58877C77.3945 2.58843 77.3746 2.58828 77.3546 2.58831C77.4733 2.53292 77.4139 2.55277 77.4139 2.58877ZM1.92222 4.65831C1.71926 4.66334 1.50094 4.66317 1.29925 4.65785C1.89255 4.68462 2.40279 4.71277 2.84777 4.74277C3.31648 4.77092 3.68432 4.80046 4.1471 4.83046C4.96585 4.89277 6.17619 4.95277 7.48145 4.95323C8.38707 4.95301 9.25491 4.92497 9.89619 4.87523C10.8039 4.866 11.6524 4.85585 12.4355 4.84477C11.1421 4.81431 11.4506 4.78846 11.9016 4.76169C12.3584 4.73492 12.9102 4.70631 12.5898 4.67862C13.0348 4.67677 13.4679 4.70492 13.723 4.734C13.8535 4.74785 13.9128 4.76262 13.8713 4.77323C13.8416 4.78385 13.6993 4.79077 13.3907 4.78985L13.2543 4.77369C12.7381 4.83923 13.6162 4.86554 14.2036 4.88169C14.8562 4.89877 15.5682 4.91077 15.402 4.95831C19.4543 5.01231 23.1624 5.15031 26.924 5.21354L26.8053 5.09815L28.0987 5.124C28.3775 5.15492 28.3182 5.21631 27.3927 5.19785C27.713 5.26708 29.1192 5.17015 29.2141 5.14662C30.9287 5.21862 28.1284 5.26292 28.6861 5.274L29.4752 5.27769L29.3387 5.26246C30.0863 5.22692 30.282 5.18077 31.3975 5.20338C32.0501 5.23569 31.5695 5.27631 31.8365 5.28462C31.8128 5.29246 31.8958 5.29754 32.2577 5.29431L33.8953 5.32892L33.4799 5.23292C34.3343 5.20154 35.0225 5.26062 34.542 5.15169C35.2302 5.31923 40.5758 5.29985 41.1276 5.35708C42.3439 5.31 43.3584 5.32662 44.5984 5.35338C44.3314 5.33031 44.4204 5.23108 45.4765 5.25923C44.5035 5.45308 47.2208 5.37646 47.6836 5.53385C47.1734 5.42631 50.84 5.55692 49.9975 5.40277C50.8577 5.43277 49.8373 5.47846 50.395 5.53615C52.7682 5.49138 55.0049 5.65892 57.7519 5.67323C57.8706 5.64785 57.5324 5.60077 58.2206 5.57031L59.253 5.72262C59.8107 5.718 60.1726 5.57908 60.8727 5.68477C60.7956 5.66031 60.6947 5.62431 61.0685 5.62108C65.9336 5.82877 72.0505 5.67877 76.6723 6C76.0968 5.93815 76.5893 5.94046 77.147 5.94692C76.8206 5.92938 77.3368 5.88231 77.3724 5.84538L79.3066 5.97831C79.9948 5.886 81.7094 6.00785 82.2138 5.91692L81.4603 5.92338C82.1544 5.86985 81.8993 5.79415 81.6264 5.71385L83.8216 5.74708C87.1738 5.79785 89.9563 5.55692 88.6867 5.32477L80.2796 3.79015C80.3008 3.79199 80.3272 3.79341 80.3567 3.79431L80.772 3.77908C80.5762 3.74815 80.1847 3.73246 80.0957 3.75692L79.627 3.67154C80.5762 3.70431 82.8011 3.59585 83.8987 3.50538C83.5546 3.51369 83.2461 3.52246 82.457 3.47492C82.1544 3.50862 82.2138 3.63877 81.2348 3.60785C80.3923 3.53862 81.1458 3.53354 81.3357 3.48231C80.6474 3.53677 79.6388 3.44585 78.4997 3.46569L75.812 2.97462C75.8787 2.97466 75.9445 2.97342 76.0035 2.971C76.0626 2.96859 76.1129 2.96507 76.1502 2.96077L75.7527 2.91923C76.3638 2.85323 77.3902 2.97138 77.4673 2.90215C78.3929 2.946 79.7041 2.98754 79.6982 3.08723L78.5946 3.138C78.9328 3.126 78.9921 3.06138 78.4997 3.04754C79.2235 3.06831 77.6097 3.22662 79.3837 3.22062L79.8761 3.13615C80.8136 3.18 82.4985 3.21923 82.5401 3.30646C83.525 3.23723 82.3027 3.29262 83.3885 3.19846C81.929 3.29538 82.3918 3.00138 81.0034 3.12923C82.2968 3.02723 81.1517 3.01338 82.1188 2.90077C81.7391 2.91462 81.5077 2.94831 81.3475 2.87908C81.2073 2.87873 81.0681 2.87718 80.9322 2.87446V2.86985C80.9246 2.87139 80.9167 2.87293 80.9085 2.87446C80.8314 2.87354 80.8195 2.87354 80.8966 2.87631C80.822 2.89566 80.6779 2.91295 80.4813 2.92615C79.4015 2.92062 78.8735 2.81815 78.2149 2.79738C78.1971 2.754 78.7489 2.80015 79.0633 2.76738L78.0784 2.736C78.9269 2.70554 78.9803 2.59292 79.977 2.66769L79.5795 2.586C79.8049 2.52462 79.6448 2.45354 79.0574 2.424C79.0396 2.38062 77.5623 2.35615 78.4285 2.36954L77.2004 2.25877L77.408 2.25138C76.8384 2.12354 74.5602 2.03677 75.3552 1.84846C74.9043 1.81338 74.394 1.77785 74.2576 1.70031L74.9399 1.66477C74.3822 1.61862 74.8094 1.48108 73.8957 1.48062C75.6162 1.36338 72.9108 1.20646 72.7506 1.10123L71.742 1.12615C71.4453 1.05969 70.8164 1.00523 69.9799 0.935538L69.1374 0.966C68.5856 0.941538 68.4966 0.892154 68.4551 0.835385C68.4281 0.79599 68.3526 0.756888 68.2296 0.718615C68.106 0.672515 67.917 0.627625 67.666 0.584769C68.0279 0.581077 68.2 0.630923 68.1822 0.670154C68.3086 0.623554 68.2807 0.575219 68.1012 0.529686C67.9217 0.484154 67.5963 0.442917 67.1558 0.409846C66.9075 0.390153 66.6353 0.372377 66.3429 0.356769C65.2157 0.294461 64.0291 0.261692 63.3112 0.161077C63.0469 0.161113 62.7861 0.15638 62.5493 0.14725C62.3126 0.138121 62.1062 0.124843 61.9466 0.108461C62.0059 0.109846 62.0593 0.110308 62.1127 0.109846C62.0366 0.10632 61.9573 0.103235 61.8754 0.100615C61.6677 0.0821538 61.4423 0.0618461 61.1753 0.0438461C61.335 0.0635113 61.5264 0.081504 61.7448 0.0973845C61.108 0.0820622 60.436 0.0776534 59.7751 0.0844615C59.7385 0.0591614 59.695 0.0339249 59.6446 0.00876916H59.4666C58.7546 -0.0235385 58.8199 0.0396922 59.0869 0.0964615C58.7318 0.104986 58.4014 0.118779 58.1138 0.137077C57.9062 0.0784615 57.4078 0.0872307 56.9391 0.102923C56.4526 0.114923 56.0017 0.133846 55.533 0.0766153C55.438 0.0950769 55.1889 0.112154 54.8685 0.129692C54.5718 0.149077 54.1862 0.168923 53.8599 0.194769C53.3022 0.237231 52.8572 0.291692 52.8809 0.351692C52.2579 0.368308 51.5875 0.395077 51.3799 0.460615C51.0737 0.438501 50.7591 0.417107 50.4365 0.396461C50.33 0.458257 50.2824 0.520581 50.2941 0.582923C49.9975 0.584308 49.7245 0.586154 49.505 0.584769C49.3221 0.583053 49.145 0.578669 48.9829 0.571846C48.8302 0.564872 48.7066 0.554615 48.6269 0.542308C48.5773 0.534953 48.5375 0.52722 48.5083 0.519231C48.464 0.50882 48.4538 0.497717 48.4786 0.486923C48.4015 0.501231 48.4074 0.51 48.3896 0.519231L48.3481 0.543231C48.3219 0.555654 48.2882 0.567975 48.2472 0.580154C48.176 0.600461 48.1048 0.612923 48.0336 0.624923C47.8972 0.649385 47.7844 0.671538 47.7726 0.749538L47.2386 0.702923C46.8826 0.732462 47.0428 0.834461 46.3249 0.815538C44.3492 0.796154 41.887 1.11277 38.6298 1.19677C40.7776 1.29231 36.8321 1.21477 38.0721 1.31908C37.5381 1.29831 36.9982 1.30385 37.0042 1.25169C36.2685 1.36246 34.6547 1.32692 34.9929 1.46585C34.4589 1.44554 34.6369 1.40492 34.2809 1.39523C34.2809 1.40815 34.2809 1.44738 33.9131 1.43769C33.5571 1.42846 33.741 1.40077 33.7469 1.37492C32.6553 1.46308 33.7885 1.56415 34.8742 1.65646C33.7351 1.65785 33.5155 1.68415 33.8656 1.77185C33.2723 1.758 32.5307 1.75338 33.1121 1.69108C32.6553 1.71646 30.0744 1.82769 30.9762 1.90015C30.6084 1.89185 30.3414 1.93569 30.3414 1.95138C29.3743 2.01277 29.2141 2.01231 28.4072 2.08292L28.8047 2.07646C29.5879 2.18538 28.3182 2.14846 27.7368 2.21031L27.6419 2.20062C25.1678 2.25877 27.3215 2.28046 24.7525 2.32892L25.5475 2.37462C26.9121 2.49738 23.2099 2.412 22.848 2.52323L23.5896 2.52785C23.5896 2.60354 20.0891 2.47985 19.3772 2.50292C19.1339 2.50154 19.3416 2.47477 19.4068 2.45631C17.1523 2.48769 20.1544 2.53662 19.3534 2.62569C18.6711 2.60215 18.327 2.51492 17.5557 2.55646C16.8141 2.55185 17.1997 2.81815 15.313 2.81446C15.9063 2.82831 16.4878 2.84215 16.3098 2.89662C15.7224 2.95892 12.9102 2.92985 13.4738 3.066C13.3149 3.06557 13.1625 3.06102 13.0407 3.05308C12.8034 3.11538 11.771 3.21969 12.0914 3.29215C9.14863 3.14908 9.86059 3.62585 7.62385 3.45923L7.20854 3.49338L6.61523 3.54046L5.42863 3.63415L5.21504 3.61615C4.30729 3.67108 3.86825 3.71677 3.72585 3.75369C3.59533 3.79154 3.74959 3.82154 3.91571 3.84923C3.38767 3.86908 3.28088 3.84462 3.12069 3.83769C1.81542 3.91477 1.29332 3.96323 1.10346 4.00662C0.931402 4.04908 1.08566 4.09062 1.60183 4.16354C1.21619 4.17 0.842406 4.17692 0.474559 4.18431C0.729679 4.20462 0.106712 4.278 0.0177167 4.38046C-0.106877 4.48015 0.415229 4.60615 1.91628 4.65831H1.92222Z" fill="#93B6F2"/>
</svg>
