<svg width="306" height="14" viewBox="0 0 306 14" fill="none" xmlns="http://www.w3.org/2000/svg">
<path opacity="0.4" fill-rule="evenodd" clip-rule="evenodd" d="M123.944 3.84354C125.841 3.84677 127.187 3.92215 128.492 4.02123C128.492 3.99431 128.493 3.96846 128.391 3.94585C130.001 3.94043 131.61 3.95713 133.062 3.99431L129.39 4.09015L128.492 4.02123L128.431 4.11492L126.799 4.15692C124.46 4.14232 122.113 4.13155 119.762 4.12462L123.944 3.84354ZM175.124 1.77262L172.677 1.99985L172.289 1.87277C171.759 1.69723 171.126 1.53031 170.82 1.33431C171.636 1.46677 173.309 1.61431 175.104 1.77262H175.124ZM186.364 0.631077C186.378 0.655042 186.44 0.678863 186.548 0.702154C186.201 0.667692 185.609 0.667692 186.364 0.631077ZM222.96 0.738769C222.654 0.817384 222.328 0.893846 221.981 0.969231C223.368 1.03923 224.755 1.12646 226.183 1.22446C223.551 1.23523 219.798 1.25677 216.289 1.33323L215.841 1.24277C215.183 1.10721 214.189 0.976849 212.883 0.855077C216.432 0.663384 220.349 0.605231 222.96 0.739846V0.738769ZM239.483 2.66646C239.259 2.69877 236.444 3.14031 233.69 3.27492C233.11 3.29991 232.455 3.31957 231.752 3.33308L229.12 3.08754L236.342 2.97446L228.753 3.05415L226.183 2.81292C231.813 2.72785 236.954 2.66862 239.483 2.66646ZM241.543 4.00508C240.533 4.02229 239.621 4.05266 238.891 4.09338L237.423 3.90708C238.916 3.92274 240.324 3.95586 241.543 4.004V4.00508ZM253.864 4.93877C257.842 5.14554 250.437 5.11323 251.804 5.138C254.864 5.6 267.389 5.31785 265.981 5.76585C263.023 5.98339 257.373 5.91662 254.537 5.99954C251.029 5.83585 254.476 5.66031 253.048 5.53323L252.518 5.72708C250.478 5.69046 248.153 5.58062 248.724 5.49015C248.398 5.51436 248.227 5.5434 248.234 5.57308L239.483 4.66631C244.603 4.68354 249.927 4.77938 253.864 4.93877ZM266.267 8.00585L266.063 8.00908L265.92 7.99185L266.267 8.00585ZM280.22 8.78769L278.282 8.54646C279.914 8.582 281.056 8.66815 280.22 8.78769ZM119.721 12.0314L119.027 11.9775C121.21 11.9506 120.476 11.9883 119.721 12.0314ZM266.165 6.04046C266.098 6.03967 266.029 6.03931 265.961 6.03938C266.369 5.91015 266.165 5.95646 266.165 6.04046ZM6.60897 10.8694C5.91116 10.8811 5.16052 10.8807 4.46708 10.8683C6.50697 10.9308 8.26128 10.9965 9.7912 11.0665C11.4027 11.1322 12.6674 11.2011 14.2586 11.2711C17.0736 11.4165 21.235 11.5565 25.7228 11.5575C28.8364 11.557 31.8203 11.4916 34.0251 11.3755C37.1461 11.354 40.0632 11.3303 42.7558 11.3045C38.3089 11.2334 39.3696 11.1731 40.9199 11.1106C42.4907 11.0482 44.3878 10.9814 43.2862 10.9168C44.8161 10.9125 46.3053 10.9782 47.1824 11.046C47.6312 11.0783 47.8352 11.1128 47.6924 11.1375C47.5904 11.1623 47.1008 11.1785 46.0401 11.1763L45.5709 11.1386C43.7962 11.2915 46.8152 11.3529 48.8347 11.3906C51.0786 11.4305 53.5265 11.4585 52.9553 11.5694C66.8878 11.6954 79.6371 12.0174 92.57 12.1649L92.162 11.8957L96.609 11.956C97.5677 12.0282 97.3638 12.1714 94.1815 12.1283C95.2831 12.2898 100.118 12.0637 100.444 12.0088C106.339 12.1768 96.711 12.2802 98.6285 12.306L101.342 12.3146L100.872 12.2791C103.443 12.1962 104.116 12.0885 107.951 12.1412C110.195 12.2166 108.542 12.3114 109.46 12.3308C109.379 12.3491 109.664 12.3609 110.909 12.3534L116.539 12.4342L115.111 12.2102C118.048 12.1369 120.415 12.2748 118.762 12.0206C121.128 12.4115 139.508 12.3663 141.405 12.4998C145.587 12.39 149.075 12.4288 153.338 12.4912C152.42 12.4374 152.726 12.2058 156.357 12.2715C153.012 12.7238 162.355 12.5451 163.946 12.9123C162.192 12.6614 174.798 12.9662 171.901 12.6065C174.859 12.6765 171.351 12.7831 173.268 12.9177C181.428 12.8132 189.118 13.2042 198.563 13.2375C198.971 13.1783 197.808 13.0685 200.174 12.9974L203.724 13.3528C205.641 13.342 206.886 13.0178 209.293 13.2645C209.027 13.2074 208.681 13.1234 209.966 13.1158C226.693 13.6005 247.724 13.2505 263.615 14C261.636 13.8557 263.329 13.8611 265.247 13.8762C264.125 13.8352 265.9 13.7254 266.022 13.6392L272.672 13.9494C275.038 13.734 280.934 14.0183 282.668 13.8062L280.077 13.8212C282.464 13.6963 281.586 13.5197 280.648 13.3323L288.196 13.4098C299.721 13.5283 309.288 12.9662 304.923 12.4245L276.017 8.84369C276.09 8.84798 276.181 8.8513 276.283 8.85338L277.711 8.81785C277.037 8.74569 275.691 8.70908 275.385 8.76615L273.774 8.56692C277.037 8.64338 284.687 8.39031 288.461 8.17923C287.278 8.19862 286.217 8.21908 283.504 8.10815C282.464 8.18677 282.668 8.49046 279.302 8.41831C276.405 8.25677 278.996 8.24492 279.648 8.12539C277.282 8.25246 273.814 8.04031 269.898 8.08662L260.657 6.94077C260.886 6.94088 261.113 6.93798 261.316 6.93234C261.518 6.92671 261.692 6.9185 261.82 6.90846L260.453 6.81154C262.554 6.65754 266.083 6.93323 266.348 6.77169C269.531 6.874 274.039 6.97092 274.018 7.20354L270.224 7.322C271.387 7.294 271.591 7.14323 269.898 7.11092C272.386 7.15939 266.838 7.52877 272.937 7.51477L274.63 7.31769C277.853 7.42 283.647 7.51154 283.789 7.71508C287.176 7.55354 282.974 7.68277 286.707 7.46308C281.688 7.68923 283.28 7.00323 278.506 7.30154C282.953 7.06354 279.016 7.03123 282.341 6.76846C281.036 6.80077 280.24 6.87938 279.689 6.71785C279.207 6.71703 278.728 6.71342 278.261 6.70708V6.69631C278.235 6.69992 278.208 6.70351 278.18 6.70708C277.915 6.70492 277.874 6.70492 278.139 6.71138C277.882 6.75654 277.387 6.79689 276.711 6.82769C272.998 6.81477 271.183 6.57569 268.919 6.52723C268.857 6.426 270.755 6.53369 271.836 6.45723L268.449 6.384C271.367 6.31292 271.55 6.05015 274.977 6.22462L273.61 6.034C274.386 5.89077 273.835 5.72492 271.815 5.656C271.754 5.55477 266.675 5.49769 269.653 5.52892L265.43 5.27046L266.144 5.25323C264.186 4.95492 256.353 4.75246 259.086 4.31308C257.536 4.23123 255.782 4.14831 255.313 3.96738L257.658 3.88446C255.741 3.77677 257.21 3.45585 254.068 3.45477C259.984 3.18123 250.682 2.81508 250.131 2.56954L246.663 2.62769C245.643 2.47262 243.481 2.34554 240.605 2.18292L237.708 2.254C235.811 2.19692 235.505 2.08169 235.362 1.94923C235.27 1.85731 235.01 1.76607 234.587 1.67677C234.162 1.5692 233.512 1.46446 232.649 1.36446C233.894 1.35585 234.485 1.47215 234.424 1.56369C234.859 1.45496 234.763 1.34218 234.146 1.23593C233.528 1.12969 232.41 1.03347 230.895 0.956308C230.041 0.910356 229.106 0.86888 228.1 0.832461C224.225 0.687077 220.145 0.610615 217.677 0.375846C216.768 0.37593 215.871 0.364887 215.057 0.343584C214.243 0.322282 213.534 0.291301 212.985 0.253077C213.189 0.256308 213.372 0.257384 213.556 0.256308C213.294 0.24808 213.022 0.240881 212.74 0.234769C212.026 0.191692 211.251 0.144308 210.333 0.102308C210.882 0.148193 211.54 0.190176 212.291 0.227231C210.102 0.191479 207.791 0.181191 205.519 0.197077C205.393 0.138043 205.243 0.0791581 205.07 0.0204614H204.458C202.01 -0.0549232 202.235 0.0926152 203.153 0.225077C201.932 0.244968 200.796 0.277151 199.807 0.319846C199.093 0.183077 197.38 0.203538 195.768 0.240154C194.095 0.268154 192.545 0.312308 190.934 0.178769C190.607 0.221846 189.75 0.261692 188.649 0.302615C187.629 0.347846 186.303 0.394154 185.181 0.454461C183.264 0.553538 181.734 0.680615 181.815 0.820615C179.673 0.859384 177.368 0.921846 176.654 1.07477C175.602 1.02317 174.52 0.973249 173.411 0.925077C173.045 1.06927 172.881 1.21469 172.921 1.36015C171.901 1.36338 170.963 1.36769 170.208 1.36446C169.579 1.36046 168.97 1.35023 168.413 1.33431C167.888 1.31803 167.463 1.2941 167.189 1.26538C167.019 1.24822 166.882 1.23018 166.781 1.21154C166.629 1.18725 166.594 1.16134 166.679 1.13615C166.414 1.16954 166.434 1.19 166.373 1.21154L166.23 1.26754C166.14 1.29653 166.025 1.32528 165.884 1.35369C165.639 1.40108 165.394 1.43015 165.149 1.45815C164.68 1.51523 164.293 1.56692 164.252 1.74892L162.416 1.64015C161.192 1.70908 161.743 1.94708 159.274 1.90292C152.482 1.85769 144.016 2.59646 132.817 2.79246C140.201 3.01538 126.636 2.83446 130.9 3.07785C129.064 3.02938 127.207 3.04231 127.228 2.92062C124.698 3.17908 119.15 3.09615 120.313 3.42031C118.477 3.37292 119.089 3.27815 117.865 3.25554C117.865 3.28569 117.865 3.37723 116.6 3.35462C115.376 3.33308 116.008 3.26846 116.029 3.20815C112.275 3.41385 116.172 3.64969 119.905 3.86508C115.988 3.86831 115.233 3.92969 116.437 4.13431C114.397 4.102 111.847 4.09123 113.846 3.94585C112.275 4.00508 103.402 4.26462 106.502 4.43369C105.238 4.41431 104.32 4.51662 104.32 4.55323C100.995 4.69646 100.444 4.69538 97.6697 4.86015L99.0365 4.84508C101.729 5.09923 97.3637 5.01308 95.3647 5.15738L95.0383 5.13477C86.5319 5.27046 93.9367 5.32108 85.104 5.43415L87.8375 5.54077C92.5292 5.82723 79.8003 5.628 78.5559 5.88754L81.1058 5.89831C81.1058 6.07492 69.0705 5.78631 66.6226 5.84015C65.7862 5.83692 66.5002 5.77446 66.7246 5.73138C58.973 5.80462 69.2948 5.91877 66.541 6.12662C64.1951 6.07169 63.012 5.86815 60.3601 5.96508C57.8102 5.95431 59.1362 6.57569 52.6493 6.56708C54.6892 6.59938 56.6883 6.63169 56.0763 6.75877C54.0568 6.90415 44.3878 6.83631 46.3257 7.154C45.7794 7.15301 45.2552 7.14239 44.8365 7.12385C44.0206 7.26923 40.4712 7.51262 41.5727 7.68169C31.4548 7.34785 33.9027 8.46031 26.2123 8.07154L24.7844 8.15123L22.7445 8.26108L18.6647 8.47969L17.9304 8.43769C14.8093 8.56585 13.2998 8.67246 12.8102 8.75862C12.3615 8.84692 12.8918 8.91692 13.463 8.98154C11.6475 9.02785 11.2803 8.97077 10.7295 8.95462C6.24179 9.13446 4.44668 9.24754 3.79392 9.34877C3.20235 9.44785 3.73272 9.54477 5.50742 9.71492C4.1815 9.73 2.89636 9.74615 1.63163 9.76338C2.50878 9.81077 0.366897 9.982 0.0609135 10.2211C-0.367464 10.4537 1.42764 10.7477 6.58857 10.8694H6.60897Z" fill="#93B6F2"/>
</svg>
