<svg width="188" height="154" viewBox="0 0 188 154" fill="none" xmlns="http://www.w3.org/2000/svg">
<path d="M22.7922 121.493L11.8892 101.969C11.4432 101.411 10.7085 101.053 10.1308 101.453C9.58613 101.613 9.23148 102.292 9.42152 102.81L17.5681 123.375C18.1711 124.69 19.6406 125.406 21.2748 124.925C22.653 124.404 23.3623 123.047 22.7922 121.493C23.0151 121.772 22.7922 121.493 22.7922 121.493Z" fill="black"/>
<path d="M15.5334 86.0998L10.1744 75.6658C9.95392 75.3685 9.5878 75.1804 9.29646 75.3986C9.02284 75.488 8.84171 75.8549 8.9342 76.1323L12.9074 87.1421C13.2026 87.8457 13.9349 88.2219 14.7557 87.9538C15.4486 87.6659 15.8109 86.9322 15.5334 86.0998C15.6436 86.2484 15.5334 86.0998 15.5334 86.0998Z" fill="black"/>
<path d="M48.302 119.955L40.1348 122.38C39.9042 122.488 39.7648 122.686 39.9474 122.866C40.0267 123.028 40.3247 123.154 40.5433 123.118L49.2103 121.522C49.7629 121.396 50.0416 121 49.8037 120.514C49.5539 120.099 48.958 119.847 48.302 119.955C48.4173 119.901 48.302 119.955 48.302 119.955Z" fill="black"/>
<path d="M19.9822 84.2713L17.3951 78.3824C17.2874 78.2154 17.1056 78.1121 16.9574 78.2396C16.8193 78.2935 16.725 78.5046 16.7687 78.6617L18.6553 84.8937C18.7965 85.2916 19.1601 85.4981 19.5743 85.3364C19.9246 85.1649 20.1133 84.7428 19.9822 84.2713C20.036 84.3549 19.9822 84.2713 19.9822 84.2713Z" fill="black"/>
<path d="M46.712 117.297L42.0897 118.415C41.9596 118.467 41.8825 118.564 41.9886 118.657C42.0356 118.739 42.2067 118.806 42.3308 118.791L47.2473 118.095C47.5605 118.038 47.7147 117.843 47.5736 117.596C47.4265 117.385 47.0843 117.251 46.712 117.297C46.777 117.271 46.712 117.297 46.712 117.297Z" fill="black"/>
<path d="M21.9651 124.53L46.4843 112.392C47.1325 111.995 47.233 111.264 47.0095 110.732C46.4953 110.155 45.9142 110.065 45.009 110.174L18.7909 119.562C17.2375 120.069 16.4217 121.684 17.3829 123.325C18.3441 124.966 20.0541 125.479 21.9316 124.774C21.6745 124.485 21.6745 124.485 21.9651 124.53Z" fill="black"/>
<path d="M21.4745 121.144C33.8184 92.2242 82.2611 37.7262 88.3339 52.1201C95.8707 70.216 82.9485 115.115 67.9852 114.951C53.0218 114.788 86.9562 52.1951 104.063 60.2942C117.793 66.8277 114.755 90.8141 100 96.8633C104.527 84.7503 123 28.8633 185.5 31.3633" stroke="black" stroke-width="3" stroke-linecap="round"/>
</svg>
