<svg width="24" height="9" viewBox="0 0 24 9" fill="none" xmlns="http://www.w3.org/2000/svg">
<path d="M17.0986 3.73931C17.0986 5.43719 17.4771 8.74645 19.175 8.74645C20.8729 8.74645 23.2413 5.43719 23.2413 3.73931C23.2413 2.04142 21.8679 0.667969 20.17 0.667969C18.4721 0.667969 17.0986 2.04142 17.0986 3.73931Z" fill="black"/>
<path d="M8.54395 3.73931C8.54395 5.43719 8.92246 8.74645 10.6203 8.74645C12.3182 8.74645 14.6866 5.43719 14.6866 3.73931C14.6866 2.04142 13.3024 0.667969 11.6045 0.667969C9.9174 0.667969 8.54395 2.04142 8.54395 3.73931Z" fill="black"/>
<path d="M0 3.73931C0 5.43719 0.378509 8.74645 2.0764 8.74645C3.77428 8.74645 6.14267 5.43719 6.14267 3.73931C6.14267 2.04142 4.75841 0.667969 3.06052 0.667969C1.37345 0.667969 0 2.04142 0 3.73931Z" fill="black"/>
</svg>
