<svg width="188" height="154" viewBox="0 0 188 154" fill="none" xmlns="http://www.w3.org/2000/svg">
<path d="M23.7321 121.628L12.8235 102.102C12.3774 101.544 11.6423 101.186 11.0645 101.586C10.5196 101.746 10.1648 102.424 10.355 102.943L18.506 123.51C19.1094 124.825 20.5796 125.541 22.2143 125.06C23.593 124.54 24.3026 123.183 23.7321 121.628C23.9552 121.907 23.7321 121.628 23.7321 121.628Z" fill="black"/>
<path d="M16.47 86.2302L11.1081 75.7956C10.8875 75.4984 10.5213 75.3102 10.2298 75.5284C9.95611 75.6178 9.77494 75.9846 9.86749 76.2621L13.8431 87.2723C14.1385 87.9759 14.871 88.3522 15.6922 88.0841C16.3853 87.7963 16.7477 87.0627 16.47 86.2302C16.5803 86.3788 16.47 86.2302 16.47 86.2302Z" fill="black"/>
<path d="M49.2529 120.09L41.0827 122.515C40.852 122.623 40.7126 122.821 40.8953 123.001C40.9746 123.163 41.2727 123.289 41.4914 123.253L50.1617 121.657C50.7145 121.531 50.9933 121.135 50.7553 120.649C50.5053 120.235 49.9091 119.982 49.2529 120.09C49.3683 120.036 49.2529 120.09 49.2529 120.09Z" fill="black"/>
<path d="M20.9197 84.4027L18.3312 78.5135C18.2234 78.3464 18.0416 78.2432 17.8933 78.3707C17.7552 78.4246 17.6608 78.6356 17.7046 78.7928L19.5923 85.025C19.7337 85.4228 20.0974 85.6294 20.5118 85.4677C20.8622 85.2962 21.051 84.8742 20.9197 84.4027C20.9736 84.4862 20.9197 84.4027 20.9197 84.4027Z" fill="black"/>
<path d="M47.6616 117.433L43.0375 118.551C42.9074 118.602 42.8303 118.7 42.9364 118.793C42.9834 118.875 43.1546 118.942 43.2788 118.927L48.1972 118.231C48.5105 118.174 48.6647 117.979 48.5235 117.732C48.3764 117.521 48.034 117.387 47.6616 117.433C47.7266 117.407 47.6616 117.433 47.6616 117.433Z" fill="black"/>
<path d="M22.9056 124.666L47.4338 112.528C48.0822 112.13 48.1828 111.4 47.9591 110.867C47.4447 110.29 46.8634 110.201 45.9578 110.31L19.7298 119.697C18.1758 120.203 17.3598 121.819 18.3215 123.46C19.2832 125.102 20.9939 125.614 22.8721 124.909C22.6149 124.621 22.6149 124.621 22.9056 124.666Z" fill="black"/>
<path d="M22.4147 121.278C34.7618 92.3568 83.2203 37.857 89.2964 52.2526C96.8374 70.3506 83.9129 115.252 68.9435 115.088C53.9742 114.923 87.9182 52.3275 105.032 60.4284C118.768 66.9633 115.73 90.9516 100.97 97.0004C105.498 84.8867 123.975 28.9959 186.5 31.5" stroke="black" stroke-width="2" stroke-linecap="round"/>
</svg>
