<svg width="141" height="126" viewBox="0 0 141 126" fill="none" xmlns="http://www.w3.org/2000/svg">
<path d="M21.5007 103L12 82.5001C11.4991 81.5 9.99898 82.0002 10.3549 82.943L18.506 103.51C19.8316 106.4 22.002 105.5 21.5007 103Z" fill="black"/>
<path d="M16.4691 66.2302L11.1071 55.7956C10.8866 55.4984 10.5203 55.3102 10.2289 55.5284C9.95513 55.6178 9.77396 55.9846 9.86651 56.2621L13.8421 67.2723C14.1375 67.9759 14.87 68.3522 15.6912 68.0841C16.3844 67.7963 16.7467 67.0627 16.4691 66.2302C16.4691 66.2302 16.5793 66.3788 16.4691 66.2302Z" fill="black"/>
<path d="M49.2524 100.09L41.0822 102.515C40.8515 102.623 40.7121 102.821 40.8948 103.001C40.9741 103.163 41.2722 103.289 41.4909 103.253L50.1612 101.657C50.714 101.531 50.9928 101.135 50.7548 100.649C50.5048 100.235 49.9087 99.9823 49.2524 100.09C49.2524 100.09 49.3678 100.036 49.2524 100.09Z" fill="black"/>
<path d="M20.9188 64.4027L18.3302 58.5135C18.2225 58.3464 18.0406 58.2432 17.8923 58.3707C17.7542 58.4246 17.6598 58.6356 17.7036 58.7928L19.5914 65.025C19.7327 65.4228 20.0965 65.6294 20.5108 65.4677C20.8612 65.2962 21.05 64.8742 20.9188 64.4027C20.9188 64.4027 20.9726 64.4862 20.9188 64.4027Z" fill="black"/>
<path d="M47.6611 97.4329L43.037 98.5511C42.9069 98.6024 42.8298 98.7001 42.9359 98.7928C42.983 98.8751 43.1541 98.9421 43.2783 98.9268L48.1967 98.2307C48.51 98.1743 48.6642 97.9789 48.523 97.7319C48.3759 97.5209 48.0335 97.3869 47.6611 97.4329C47.6611 97.4329 47.7262 97.4073 47.6611 97.4329Z" fill="black"/>
<path d="M46.9992 93.0003C49.0007 92 48.0016 90.6329 46 91.5004L20.5007 102C18.9467 102.507 18.5 103.645 19.0006 104.5C19.9623 106.141 22.0007 105 22.0007 105C22.0007 105 30.2749 101.358 46.9992 93.0003Z" fill="black"/>
<path d="M20.5 103C32.8471 74.0784 83.2203 17.8571 89.2964 32.2527C96.8374 50.3507 83.9129 95.2525 68.9435 95.088C53.9742 94.9235 87.9182 32.3276 105.032 40.4285C118.768 46.9634 115.73 70.9517 100.97 77.0005C104.068 68.7117 113.697 39.9267 139.5 23.3774" stroke="black" stroke-width="2" stroke-linecap="round"/>
</svg>
