<svg width="258" height="259" viewBox="0 0 258 259" fill="none" xmlns="http://www.w3.org/2000/svg">
<path d="M65.5352 39.0498H126.063C126.627 37.0035 126.748 32.2891 122.718 29.8031C118.689 27.317 115.315 30.8389 114.13 32.9106C113.746 26.3166 111.258 12.8861 104.387 11.9159C97.5165 10.9458 95.3588 20.5563 95.1383 25.4828C88.8293 9.41478 83.3164 21.6679 81.3483 29.8031C74.7754 25.6193 68.0675 34.2244 65.5352 39.0498Z" stroke="#242938" stroke-width="1.04453"/>
<path d="M243.227 17.4337H172.016C171.351 16.1222 171.209 13.1008 175.95 11.5075C180.691 9.91427 184.661 12.1715 186.054 13.4991C186.507 9.27307 189.435 0.665515 197.518 0.0437503C205.601 -0.578015 208.139 5.58134 208.399 8.73874C215.821 -1.55924 222.307 6.29385 224.623 11.5075C232.356 8.82618 240.248 14.3411 243.227 17.4337Z" fill="#F6F6F7"/>
<path d="M2 135.424H216.458C218.457 131.484 218.885 122.409 204.608 117.624C190.331 112.838 178.374 119.617 174.181 123.605C172.815 110.912 163.999 85.0587 139.656 83.1905C115.314 81.3231 107.668 99.8237 106.888 109.308C84.5357 78.376 65.0012 101.964 58.0281 117.624C34.7391 109.57 10.9723 126.134 2 135.424Z" stroke="#242938" stroke-width="1.04453"/>
<path d="M41.6367 47.5023H80.506C80.8683 46.1867 80.946 43.156 78.3583 41.5579C75.7705 39.9598 73.6035 42.2238 72.8435 43.5556C72.5959 39.3166 70.9981 30.6826 66.5862 30.059C62.1743 29.4353 60.7885 35.6135 60.6471 38.7806C56.5958 28.4511 53.0553 36.3282 51.7915 41.5579C47.5705 38.8684 43.2629 44.4001 41.6367 47.5023Z" fill="#F6F6F7"/>
<path d="M113.676 188.516H203.152L194.165 227.036H124.508L113.676 188.516Z" fill="#F6F6F7"/>
<path d="M118.045 98.749C122.087 96.806 126.692 92.4342 128.489 90.4912L150.639 105.452L166.669 83.5449C173.971 82.6543 190.549 81.4076 198.437 83.5449C208.298 86.2165 213.399 94.7658 215.536 98.749C217.246 101.936 223.729 113.97 226.757 119.588C234.852 134.095 252.006 166.21 255.853 178.607C260.662 194.102 249.976 201.292 246.77 203.429C243.564 205.566 241.961 212.755 239.289 217.321C236.618 221.888 221.656 227.717 215.536 229.611C209.415 231.505 196.452 227.426 193.774 225.676C190.131 223.296 171.478 209.549 166.669 206.101C162.822 203.341 157.99 198.345 156.565 195.317C148.648 203.057 131.267 217.37 121.008 219.702C108.184 222.616 99.3921 215.718 90.5514 212.755C81.7104 209.792 81.759 197.843 75.5899 188.468C69.4208 179.093 63.5918 166.56 63.5918 158.302C63.5918 150.045 72.3839 142.807 77.4844 136.395C82.5848 129.983 96.429 108.367 99.3921 105.452C102.355 102.538 112.993 101.178 118.045 98.749Z" fill="#EC5B60"/>
<path d="M103.702 141.298C99.706 124.126 112.541 107.633 130.169 107.29C145.186 106.997 157.707 118.714 158.407 133.718L159.577 158.74C159.577 158.74 137.328 148.408 124.554 154.465C121.719 155.809 116.831 158.74 116.831 158.74C117.171 154.465 112.789 154.445 112.41 154.465C110.565 154.562 106.97 155.339 106.97 155.339L103.702 141.298Z" fill="#F6F6F7"/>
<path d="M218.879 137.961C221.288 120.655 208.039 105.132 190.57 104.791C174.779 104.483 161.614 116.804 160.877 132.581L159.773 156.214C159.773 156.214 167.786 164.746 181.778 162.723C189.502 161.606 200.771 165.929 200.771 165.929C200.771 165.929 203.16 166.734 203.54 166.755C209.417 164.229 215.149 164.763 215.149 164.763L218.879 137.961Z" fill="#F6F6F7"/>
<path d="M154.916 184.436L115.619 153.979C113.773 152.084 113.53 149.704 117.999 150.53C120.382 150.97 122.089 151.577 122.395 151.82L116.785 146.887C114.842 144.652 115.784 141.223 120.331 143.244C121.419 143.71 122.726 144.539 123.245 144.895L120.331 141.786C117.999 139.115 118.388 135.044 123.245 136.832C126.082 137.92 127.811 138.969 130.823 141.155L126.986 135.569C126.403 133.626 126.247 130.264 130.289 132.363C134.33 134.461 146.61 145.721 148.504 147.47C148.893 147.486 148.971 148.014 148.893 146.887C148.796 145.478 147.047 138.192 147.047 135.083C147.047 133.296 147.922 130.906 151.419 135.083C154.916 139.261 161.96 157.476 163.709 159.128C165.022 160.369 168.536 163.776 168.96 163.906C168.975 163.9 168.989 163.894 169.003 163.888C169.003 163.909 168.989 163.915 168.96 163.906C166.207 165.082 158.948 172.486 158.948 172.486C158.948 172.486 152.828 178.752 154.916 184.436Z" fill="#D58B8B"/>
<path d="M122.564 152.059L133.397 160.424" stroke="#242938" stroke-width="1.04453" stroke-linecap="round"/>
<path d="M123.633 145.161L134.465 153.525" stroke="#242938" stroke-width="1.04453" stroke-linecap="round"/>
<path d="M130.629 140.983L141.461 149.348" stroke="#242938" stroke-width="1.04453" stroke-linecap="round"/>
<path d="M206.502 144.201C208.348 142.307 208.591 139.926 204.122 140.752C201.738 141.193 200.032 141.8 199.726 142.042L205.336 137.109C207.279 134.875 206.337 131.445 201.79 133.466C200.702 133.932 199.393 134.761 198.875 135.117L201.79 132.009C204.122 129.337 203.733 125.266 198.875 127.054C196.039 128.142 194.309 129.191 191.298 131.377L195.135 125.791C195.718 123.848 195.874 120.487 191.832 122.585C187.791 124.683 175.511 135.943 173.616 137.692C173.228 137.708 173.15 138.236 173.228 137.109C173.325 135.7 175.074 128.414 175.074 125.305C175.074 123.52 174.199 121.128 170.702 125.305C167.204 129.483 160.161 147.699 158.412 149.35C157.013 150.671 154.59 152.524 153.555 153.285L160.38 163.971C160.38 163.971 167.554 164.988 172.159 164.763C175.95 164.577 181.777 163.364 181.777 163.364L206.502 144.201Z" fill="#D58B8B"/>
<path d="M199.556 142.28L188.723 150.646" stroke="#242938" stroke-width="1.04453" stroke-linecap="round"/>
<path d="M198.49 135.383L187.656 143.748" stroke="#242938" stroke-width="1.04453" stroke-linecap="round"/>
<path d="M191.493 131.205L180.66 139.571" stroke="#242938" stroke-width="1.04453" stroke-linecap="round"/>
<path d="M177.353 167.168C175.834 165.328 172.047 162.101 169.056 163.913C165.319 166.178 158.509 171.152 154.548 180.589C153.847 184.11 154.624 187.44 155.099 188.664C155.005 190.266 157.043 194.423 159.918 196.483" stroke="#242938" stroke-width="1.04453" stroke-linecap="round"/>
<path d="M154.408 184.012C155.414 184.952 157.292 187.24 158.267 187.619M165.972 166.396C167.15 166.498 170.059 167.357 172.278 169.963L165.972 166.396ZM161.991 170.654L167.351 174.168L161.991 170.654ZM158.591 174.291C159.241 174.899 160.808 176.364 161.873 177.359L158.591 174.291ZM155.409 179.295C156.418 180.35 159.199 182.639 162.247 183.361L155.409 179.295Z" stroke="#242938" stroke-width="1.04453" stroke-linecap="round"/>
<path d="M173.811 164.278L185.178 162.772C189.274 163.031 198.701 164.239 203.637 166.998C206.34 165.443 212.983 163.267 217.918 166.998M119.018 157.331C118.402 157.477 117.017 158.04 116.395 159.129C117.156 157.834 117.425 155.116 112.412 154.611C107.399 154.106 103.069 157.12 101.531 158.691" stroke="#242938" stroke-width="1.04453" stroke-linecap="round"/>
<path d="M156.908 120.899C172.841 114.993 174.945 102.052 174.007 96.3203M124.654 97.6804C125.664 100.186 127.163 103.217 129.084 106.278L124.654 97.6804Z" stroke="#242938" stroke-width="1.04453" stroke-linecap="round"/>
<path d="M125.771 100.012L129.075 96.9032M129.075 106.035C129.576 104.675 130.823 101.761 131.795 100.984M147.776 109.824V112.447M138.693 106.035L137.721 107.493M159.094 107.493C160.292 109.711 163.379 114.371 166.138 115.265M167.012 98.6519C168.938 99.364 172.987 101.226 173.764 102.975M168.955 91.9971C169.975 92.3206 172.19 93.1434 172.89 93.8429" stroke="#242938" stroke-width="1.04453" stroke-linecap="round"/>
<path d="M221.949 143.195L226.175 149.51" stroke="#242938" stroke-width="1.04453" stroke-linecap="round"/>
<path d="M219.811 114.147L224.085 106.764" stroke="#242938" stroke-width="1.04453" stroke-linecap="round"/>
<path d="M221.949 117.645L227.778 112.884" stroke="#242938" stroke-width="1.04453" stroke-linecap="round"/>
<path d="M213.691 208.189L217.917 214.504" stroke="#242938" stroke-width="1.04453" stroke-linecap="round"/>
<path d="M217.967 206.441L220.784 210.521" stroke="#242938" stroke-width="1.04453" stroke-linecap="round"/>
<path d="M84.0938 122.211L88.3198 128.526" stroke="#242938" stroke-width="1.04453" stroke-linecap="round"/>
<path d="M88.3652 120.462L91.1826 124.542" stroke="#242938" stroke-width="1.04453" stroke-linecap="round"/>
<path d="M105.566 210.601L109.734 207.914" stroke="#242938" stroke-width="1.04453" stroke-linecap="round"/>
<path d="M103.521 169.814L111.002 164.909" stroke="#242938" stroke-width="1.04453" stroke-linecap="round"/>
<path d="M248.57 175.722L257.307 173.803" stroke="#242938" stroke-width="1.04453" stroke-linecap="round"/>
<path d="M59.2207 162.705L67.9576 160.785" stroke="#242938" stroke-width="1.04453" stroke-linecap="round"/>
<path d="M167.448 85.3907L157.781 80.5332L131.356 89.6168L129.219 91.4627C129.866 96.2881 134.173 106.356 146.22 108.027C163.358 110.32 167.512 93.8914 167.448 85.3907Z" fill="#D58B8B"/>
<path d="M140.975 94.5227C151.947 94.5227 160.842 85.6278 160.842 74.6554C160.842 63.683 151.947 54.7881 140.975 54.7881C130.002 54.7881 121.107 63.683 121.107 74.6554C121.107 85.6278 130.002 94.5227 140.975 94.5227Z" fill="#D58B8B"/>
<path d="M138.875 85.4404L140.138 78.5913L143.83 84.2261L138.875 85.4404Z" fill="#AD5B5B"/>
<path d="M144.605 97.994C149.099 99.5707 153.214 95.2776 153.661 94.1157" stroke="#242938" stroke-width="1.04453" stroke-linecap="round"/>
<path d="M148.26 88.1113L142.674 89.9086C143.305 90.4915 144.84 91.2784 145.928 91.123C147.726 90.8665 148.066 89.2771 148.26 88.1113Z" stroke="#242938" stroke-width="1.04453"/>
<path d="M139.923 78.8516L138.576 85.5189L143.47 84.2035" stroke="#242938" stroke-width="1.04453" stroke-linecap="round"/>
<path d="M132.321 81.0088C133.203 81.0088 133.918 80.2934 133.918 79.4109C133.918 78.5284 133.203 77.813 132.321 77.813C131.438 77.813 130.723 78.5284 130.723 79.4109C130.723 80.2934 131.438 81.0088 132.321 81.0088Z" fill="#242938"/>
<path d="M128.977 76.7722C129.514 75.9674 130.354 74.4962 132.734 74.1592" stroke="#242938" stroke-width="1.04453" stroke-linecap="round"/>
<path d="M142.871 72.3724C143.673 71.8319 145.009 70.7906 147.34 71.3837" stroke="#242938" stroke-width="1.04453" stroke-linecap="round"/>
<path d="M146.699 77.2202C147.582 77.2202 148.297 76.5048 148.297 75.6223C148.297 74.7398 147.582 74.0244 146.699 74.0244C145.817 74.0244 145.102 74.7398 145.102 75.6223C145.102 76.5048 145.817 77.2202 146.699 77.2202Z" fill="#242938"/>
<path d="M161.585 80.0253C164.009 81.095 167.163 79.269 168.629 75.9468C170.095 72.6246 169.319 69.0643 166.895 67.9945C164.471 66.9248 161.317 68.7508 159.851 72.073C158.385 75.3952 159.161 78.9555 161.585 80.0253Z" fill="#F6F6F7"/>
<path d="M161.221 74.432C161.875 73.083 163.796 70.9572 165.185 70.4258" stroke="#242938" stroke-width="1.04453" stroke-linecap="round"/>
<path d="M164.086 71.3057C164.679 71.8638 165.466 73.2043 165.515 74.0102" stroke="#242938" stroke-width="1.04453" stroke-linecap="round"/>
<path d="M149.372 82.6591C150.281 82.6591 151.018 81.9224 151.018 81.0137C151.018 80.1049 150.281 79.3682 149.372 79.3682C148.463 79.3682 147.727 80.1049 147.727 81.0137C147.727 81.9224 148.463 82.6591 149.372 82.6591Z" fill="#AD5B5B"/>
<path d="M132.79 86.2627C133.699 86.2627 134.436 85.526 134.436 84.6172C134.436 83.7084 133.699 82.9717 132.79 82.9717C131.881 82.9717 131.145 83.7084 131.145 84.6172C131.145 85.526 131.881 86.2627 132.79 86.2627Z" fill="#AD5B5B"/>
<path d="M147.289 69.8466C139.206 73.8881 132.263 68.1627 129.802 64.7948C130.501 68.4865 126.725 70.4781 124.75 71.0125C126.771 74.3156 125.591 78.0235 124.75 79.4646C126.771 80.3972 127.179 82.2496 127.13 83.0591C127.13 83.0591 127.13 87.6738 129.802 90.9769C127.786 92.5527 124.154 95.8092 122.224 97.5832C119.349 100.226 112.055 101.923 108.769 102.441C102.357 99.0987 109.562 88.1275 113.966 83.0591C112.622 82.6057 109.488 80.3098 107.7 74.7528C104.825 63.1335 116.184 57.9295 122.224 56.7799C124.313 53.3796 130.123 46.3945 136.651 45.6561C143.18 44.9178 146.463 48.1334 147.289 49.8336C147.289 48.8944 150.447 44.4095 157.15 41.9644C166.632 38.5058 172.192 48.3763 172.791 53.3796C173.989 52.2947 178.426 49.7073 186.587 48.0363C194.747 46.3653 196.334 53.1691 196.107 56.7799C197.823 55.2092 202.51 53.0104 207.523 56.7799C212.536 60.5493 208.704 70.3324 206.162 74.7528C209.854 75.0928 218.938 80.5332 213.157 89.2768C208.533 96.2716 203.297 92.8714 201.256 90.2969C200.123 90.7991 196.904 91.5015 193.096 90.2969C189.499 89.1592 187.409 85.4189 186.697 83.3972C187.46 85.8979 187.679 90.8506 183.041 93.1143C174.375 97.0391 172.014 89.7946 171.917 85.6822C164.922 92.4439 159.805 86.7509 158.121 83.0591C151.826 81.6602 152.648 76.1291 153.847 73.5384C149.339 74.7042 147.596 71.563 147.289 69.8466Z" fill="#242938"/>
<path d="M123.39 227.862C129.841 219.507 150.413 222.487 159.578 225.336V246.661H114.209C116.308 239.222 118.618 234.042 123.39 227.862Z" fill="#242938"/>
<path d="M194.892 226.599C184.749 217.087 168.664 222.503 159.5 225.354V246.661H204.656C202.566 239.572 200.534 231.89 194.892 226.599Z" fill="#242938"/>
<path d="M178.35 224.577C183.855 219.136 193.214 208.382 186.607 208.887C180.001 209.392 178.35 219.557 178.35 224.577Z" stroke="#242938" stroke-width="1.04453"/>
<path d="M177.281 224.237C171.947 218.92 162.881 208.41 169.282 208.904C175.681 209.397 177.281 219.332 177.281 224.237Z" stroke="#242938" stroke-width="1.04453"/>
<path d="M140.44 224.462C134.935 219.022 125.576 208.267 132.182 208.773C138.789 209.278 140.44 219.443 140.44 224.462Z" stroke="#242938" stroke-width="1.04453"/>
<path d="M141.51 224.122C146.842 218.805 155.908 208.295 149.509 208.789C143.11 209.282 141.51 219.217 141.51 224.122Z" stroke="#242938" stroke-width="1.04453"/>
<path d="M44.213 246.369C46.0641 246.369 47.5647 244.869 47.5647 243.018C47.5647 241.167 46.0641 239.666 44.213 239.666C42.3619 239.666 40.8613 241.167 40.8613 243.018C40.8613 244.869 42.3619 246.369 44.213 246.369Z" fill="#242938"/>
<path d="M30.222 258.125C31.5365 258.125 32.6022 257.059 32.6022 255.744C32.6022 254.43 31.5365 253.364 30.222 253.364C28.9074 253.364 27.8418 254.43 27.8418 255.744C27.8418 257.059 28.9074 258.125 30.222 258.125Z" fill="#242938"/>
<path d="M78.7006 250.352C79.8005 250.352 80.6922 249.461 80.6922 248.361C80.6922 247.261 79.8005 246.369 78.7006 246.369C77.6006 246.369 76.709 247.261 76.709 248.361C76.709 249.461 77.6006 250.352 78.7006 250.352Z" fill="#242938"/>
<path d="M59.8535 249.43V198.912" stroke="#242938" stroke-width="1.04453" stroke-linecap="round"/>
<path d="M59.9023 200.272C71.2204 199.058 94.09 189.605 95.0226 161.509C83.3157 162.82 59.9023 172.409 59.9023 200.272Z" stroke="#242938" stroke-width="1.04453"/>
<path d="M61.1641 198.523L92.204 164.909" stroke="#242938" stroke-width="1.04453" stroke-linecap="round"/>
<path d="M59.8699 200.966C59.5884 192.627 53.9034 175.402 33.4141 173.215C33.7456 181.843 39.501 199.473 59.8699 200.966Z" fill="#242938"/>
<path d="M58.66 199.949L41.0645 180.88" stroke="#242938" stroke-width="1.04453" stroke-linecap="round"/>
<path d="M60.1914 227.869C70.5838 228.396 92.6906 222.767 97.9785 196.038C87.22 195.546 64.6013 201.224 60.1914 227.869Z" fill="#242938" stroke="#242938" stroke-width="1.04453"/>
<path d="M61.6074 226.385L81.3713 211.444" stroke="#242938" stroke-width="1.04453" stroke-linecap="round"/>
<path d="M59.8699 236.426C59.5884 228.087 53.9034 210.862 33.4141 208.675C33.7456 217.303 39.501 234.933 59.8699 236.426Z" stroke="#242938" stroke-width="1.04453"/>
<path d="M58.6604 235.409L47.418 223.831" stroke="#242938" stroke-width="1.04453" stroke-linecap="round"/>
</svg>
