<svg width="257" height="230" viewBox="0 0 257 230" fill="none" xmlns="http://www.w3.org/2000/svg">
<path d="M162.746 32.3315C162.746 43.7675 153.475 53.0382 142.039 53.0382C137.991 53.0382 131.889 53.2615 128.699 51.2544C122.876 47.5898 121.332 39.7205 121.332 32.3315C121.332 20.8954 130.603 11.6248 142.039 11.6248C153.475 11.6248 162.746 20.8954 162.746 32.3315Z" fill="#D58B8B"/>
<path d="M122.496 10.6942V25.4292C124.228 24.5244 126.218 22.0944 133.354 24.266C142.272 26.9803 149.639 21.1638 152.587 24.266C155.534 27.3681 154.99 31.53 153.905 33.7274C153.905 33.7274 152.524 40.9022 152.587 44.6624C152.628 47.194 153.362 49.7034 153.362 49.7034C158.822 46.6633 162.125 40.0868 162.59 35.8214L163.444 15.7351L159.179 19.1474L157.86 10.6942L153.052 13.1758V7.12666L146.383 11.8574L137.774 1L126.607 14.4167L122.496 10.6942Z" fill="#242938"/>
<path d="M151.889 54.8216L151.501 48.6949L132.345 47.8418L131.26 53.5808C136.223 63.8177 149.872 58.5441 151.889 54.8216Z" fill="#D58B8B"/>
<path d="M155.502 40.9427C157.584 41.627 159.946 40.1319 160.777 37.6033C161.608 35.0746 160.593 32.47 158.511 31.7857C156.428 31.1014 154.067 32.5965 153.236 35.1251C152.405 37.6538 153.419 40.2584 155.502 40.9427Z" fill="#AD5B5B"/>
<path d="M154.291 36.3642C154.989 35.2009 156.928 33.805 158.712 34.1152" stroke="#242938" stroke-width="2" stroke-linecap="round"/>
<path d="M157.574 34.292C157.785 34.616 158.228 35.6823 158.296 36.4089" stroke="#242938" stroke-width="2" stroke-linecap="round"/>
<path d="M132.811 41.4066L137.25 34.8464L138.527 42.4012L132.811 41.4066Z" fill="#AD5B5B"/>
<path d="M136.782 35.3196L132.768 41.0265L138.146 41.859" stroke="#242938" stroke-width="2" stroke-linecap="round"/>
<path d="M135.99 45.8259C136.688 45.8516 138.44 45.7328 139.868 45.0503" stroke="#242938" stroke-width="2" stroke-linecap="round"/>
<path d="M141.65 29.4651C142.348 29.4393 144.101 29.5582 145.527 30.2407" stroke="#242938" stroke-width="2" stroke-linecap="round"/>
<path d="M130.64 29.7752C129.942 29.7493 128.188 29.8683 126.762 30.5508" stroke="#242938" stroke-width="2" stroke-linecap="round"/>
<path d="M137.154 52.4177C138.86 52.7279 141.885 52.9605 144.211 51.0217" stroke="#242938" stroke-width="2" stroke-linecap="round"/>
<path d="M129.941 35.6663C130.67 35.6663 131.26 35.0761 131.26 34.3479C131.26 33.6198 130.67 33.0295 129.941 33.0295C129.213 33.0295 128.623 33.6198 128.623 34.3479C128.623 35.0761 129.213 35.6663 129.941 35.6663Z" fill="#242938"/>
<path d="M142.969 35.6663C143.697 35.6663 144.287 35.0761 144.287 34.3479C144.287 33.6198 143.697 33.0295 142.969 33.0295C142.241 33.0295 141.65 33.6198 141.65 34.3479C141.65 35.0761 142.241 35.6663 142.969 35.6663Z" fill="#242938"/>
<path d="M144.744 43.0919C146.195 43.0919 147.371 41.9157 147.371 40.4648C147.371 39.0138 146.195 37.8376 144.744 37.8376C143.293 37.8376 142.117 39.0138 142.117 40.4648C142.117 41.9157 143.293 43.0919 144.744 43.0919Z" fill="#AD5B5B"/>
<path d="M127.838 41.6961C129.289 41.6961 130.465 40.5199 130.465 39.069C130.465 37.6181 129.289 36.4419 127.838 36.4419C126.387 36.4419 125.211 37.6181 125.211 39.069C125.211 40.5199 126.387 41.6961 127.838 41.6961Z" fill="#AD5B5B"/>
<path d="M151.832 54.1205C141.337 60.7953 133.8 56.3145 131.344 53.2397C130.277 54.5376 129.675 54.9085 128.423 55.511C127.444 55.9822 100.89 62.0932 94.0758 65.5233C87.2619 68.9534 81.0042 80.4489 78.084 83.3228C75.1637 86.1967 57.6423 93.2887 38.2668 120.313C18.8912 147.336 27.5129 158.044 28.579 178.254C29.6451 198.464 59.4964 207.595 76.508 212.601C90.1172 216.606 114.348 199.746 124.761 190.815C133.429 202.867 167.777 213.621 176.955 215.475C186.133 217.329 199.482 203.933 214.964 195.822C230.446 187.71 228.314 141.82 223.076 132.086C217.838 122.352 211.349 102.188 205.369 87.5873C200.586 75.9064 156.189 59.1729 154.659 57.7823C153.129 56.3917 151.832 54.1205 151.832 54.1205Z" fill="#EC5B60"/>
<path d="M186.736 213.343C184.789 208.661 177.633 196.832 186.644 180.479C197.907 160.037 198.046 163.328 199.715 155.773C201.384 148.217 217.885 147.012 222.382 150.674C225.979 153.603 224.004 157.21 226.924 157.21M139.781 144.37C141.542 152.544 149.719 168.26 168.334 165.739C191.603 162.587 172.367 140.152 175.751 131.901C178.458 125.3 170.111 121.548 165.599 120.498M160.547 60.5173C157.951 66.5896 164.774 80.8385 168.334 83.6938C172.784 87.263 186.134 85.8261 189.286 87.0776C192.438 88.3291 195.868 87.8656 196.702 85.7797C197.37 84.111 197.954 81.3298 198.695 80.3564M34.9766 125.133C41.9295 129.444 55.5017 141.088 56.0208 146.317C56.6698 152.852 46.4721 164.997 49.6705 172.738C52.8688 180.479 54.4927 187.393 49.6705 194.292C47.9242 196.79 45.0815 197.861 43.969 199.623M128.424 194.663C130.881 191.835 127.247 171.57 120.312 172.089C111.644 172.738 80.1244 189.425 78.2239 197.908C76.7035 204.694 75.0719 210.237 74.5157 211.999M91.5736 76.5091C88.5782 64.691 113.879 59.6181 119.478 62.5105C126.477 66.126 127.265 76.5091 126.663 76.5091C126.06 76.5091 119.478 97.1825 119.478 105.665C119.478 114.148 99.2218 107.983 96.4406 101.864C93.6594 95.7456 99.5815 86.6604 95.5775 83.6938C92.3745 81.3206 92.3625 79.6231 91.5736 76.5091Z" stroke="white" stroke-width="2"/>
<path d="M132.967 55.3721C134.79 56.6081 139.864 58.7373 145.575 57.3652" stroke="#242938" stroke-width="2" stroke-linecap="round"/>
<path d="M134.914 58.5706C136.166 59.0186 139.41 59.8684 142.377 59.683" stroke="#242938" stroke-width="2" stroke-linecap="round"/>
<path d="M167.269 105.109C167.16 109.357 167.352 119.079 168.984 123.974" stroke="#242938" stroke-width="2" stroke-linecap="round"/>
<path d="M100.891 98.6194C95.4676 113.035 84.4355 134.259 84.4355 138.298C84.4355 152.25 101.354 149.221 104.738 148.449" stroke="#242938" stroke-width="2" stroke-linecap="round"/>
<path d="M104.135 162.215C109.728 168.581 121.165 181.823 122.166 183.862" stroke="#242938" stroke-width="2" stroke-linecap="round"/>
<path d="M85.1314 137.092L103.255 159.203C105.072 146.928 116.343 140.831 121.75 139.317C121.75 139.317 119.542 126 114.38 121.193C111.59 118.595 107.705 117.578 107.705 117.578C108.957 116.79 111.46 114.713 111.46 112.711C111.46 110.708 108.957 108.724 107.705 107.983C100.585 102.532 97.1989 108.863 96.3951 112.711C90.9069 112.266 90.2144 117.717 90.5547 120.498C84.8811 120.053 85.7803 125.968 86.9391 128.981C83.4905 129.314 84.297 134.527 85.1314 137.092Z" fill="#D58B8B"/>
<path d="M106.746 112.247C106.975 115.705 107.856 118.783 109.537 121.802" stroke="#242938" stroke-width="2" stroke-linecap="round"/>
<path d="M96.254 113.36C96.2077 115.075 96.5414 119.469 98.2472 123.326" stroke="#242938" stroke-width="2" stroke-linecap="round"/>
<path d="M87.3086 129.722C87.3086 131.252 87.7258 133.384 88.8846 134.45M90.5997 121.147C90.6766 121.548 90.5997 124.438 91.8512 127.405L90.5997 121.147Z" stroke="#242938" stroke-width="2" stroke-linecap="round"/>
<path d="M117.578 99.8244C110.162 103.829 107.705 113.545 107.52 117.763C112.461 118.744 115.314 121.836 116.183 123.372C118.958 128.278 120.517 133.816 121.75 139.317C129.797 136.017 138.53 150.627 159.667 150.627C160.995 150.272 164.719 148.477 168.984 144.138C174.314 138.715 171.44 126.709 167.547 117.763C163.653 108.817 162.309 109.927 162.309 103.44C162.309 97.8313 159.744 98.1863 158.879 99.3146C152.065 108.4 161.15 115.538 163.653 128.841C165.655 139.484 157.565 141.681 153.27 141.449C153.344 129.88 143.474 120.653 138.53 117.485C139.568 107.881 134.42 101.092 131.716 98.8974C136.388 95.115 135.733 88.2983 134.821 85.3623C135.007 83.4618 134.497 78.3167 132.55 78.3167C130.993 78.3167 130.17 80.8197 129.954 82.0712C125.801 79.698 121.302 81.0821 119.571 82.0712C119.509 80.9894 119.024 78.8265 117.578 78.8265C114.871 79.4199 114.256 84.0802 114.287 86.3357C110.579 92.5285 114.936 97.9082 117.578 99.8244Z" fill="#242938"/>
<path d="M116.977 90.1814C117.684 89.0995 119.712 87.5531 122.168 90.0219C121.387 91.1566 119.254 92.7771 116.977 90.1814Z" fill="white"/>
<path d="M119.404 88.8306C119.891 89.1365 120.643 90.0867 119.766 91.4393C119.255 91.0991 118.465 90.0997 119.404 88.8306Z" fill="#242938"/>
<path d="M126.617 90.0886C127.337 89.0067 129.401 87.4604 131.901 89.9291C131.106 91.0639 128.936 92.6843 126.617 90.0886Z" fill="white"/>
<path d="M129.473 88.7378C128.987 89.0437 128.234 89.994 129.11 91.3465C129.623 91.0063 130.412 90.0069 129.473 88.7378Z" fill="#242938"/>
<path d="M121.889 85.6386C122.608 84.5568 124.673 83.0104 127.173 85.4792C126.377 86.6139 124.207 88.2344 121.889 85.6386Z" fill="white"/>
<path d="M124.742 84.2881C124.257 84.594 123.504 85.5443 124.38 86.8968C124.893 86.5566 125.681 85.5572 124.742 84.2881Z" fill="#242938"/>
<path d="M125.46 92.3511C125.46 91.6836 123.16 91.6864 123.096 92.3511C123.033 93.0158 123.726 93.5749 124.208 93.649C124.811 93.7417 125.46 93.1855 125.46 92.3511Z" fill="white"/>
<path d="M127.127 94.7255C125.644 95.6155 124.717 94.3547 124.439 93.613C124.3 94.3389 123.54 95.6248 121.611 94.9573" stroke="white" stroke-width="2" stroke-linecap="round"/>
<path d="M242.254 23.4752C210.587 -14.3589 163.12 3.19245 133.477 23.2195M17.9569 114.101C8.47961 99.2705 2.32728 86.1118 1.40429 76.7346C-2.67477 35.2952 24.7198 11.9797 56.1472 8.68861C81.289 6.05576 108.062 25.0821 118.306 34.9244C119.253 34.0837 120.247 33.2274 121.286 32.3602M111.413 216.085C112.516 216.949 114.704 218.624 114.704 218.624C117.559 220.792 129.748 226.087 132.503 227.99C166.242 192.568 228.603 119.014 246.058 67.0524M249.922 47.4914C249.791 51.6551 249.119 56.0253 247.973 60.563" stroke="#242938" stroke-width="2" stroke-linecap="round"/>
<path d="M257.001 39.6647H189.047C188.413 38.4131 188.278 35.53 192.802 34.0096C197.326 32.4892 201.114 34.6432 202.443 35.9101C202.875 31.8774 205.669 23.6636 213.382 23.0703C221.095 22.477 223.518 28.3546 223.765 31.3675C230.848 21.5407 237.037 29.0345 239.247 34.0096C246.627 31.4509 254.157 36.7136 257.001 39.6647Z" fill="#F6F6F7"/>
<path d="M7.30469 127.173H56.7592C57.2203 126.259 57.3192 124.154 54.0267 123.044C50.7343 121.935 47.977 123.507 47.01 124.431C46.6952 121.488 44.662 115.492 39.0487 115.059C33.4353 114.626 31.6721 118.916 31.4922 121.115C26.3376 113.942 21.8329 119.412 20.2249 123.044C14.8545 121.176 9.3737 125.018 7.30469 127.173Z" fill="#F6F6F7"/>
<path d="M168.705 63.0255C169.58 62.1868 170.716 61.5799 172.17 61.4676C176.41 61.1404 177.741 64.3829 177.877 66.0447C181.771 60.6238 185.173 64.7579 186.388 67.5029C190.444 66.091 194.583 68.9946 196.146 70.6225H184.094" stroke="#242938" stroke-width="2" stroke-linecap="round"/>
</svg>
