<svg width="217" height="231" viewBox="0 0 217 231" fill="none" xmlns="http://www.w3.org/2000/svg">
<path d="M110.256 23.4103H1V187.359H164.13V23.4103H137.193" stroke="#242938" stroke-width="2" stroke-linecap="round"/>
<path d="M155.915 94.1794H57.9199V183.231H155.915V94.1794Z" fill="#F6F6F7"/>
<path fill-rule="evenodd" clip-rule="evenodd" d="M38.5545 199.154C38.5545 199.154 54.398 175.103 54.398 166.245C54.398 157.386 47.3048 150.205 38.5545 150.205C29.8043 150.205 22.7109 157.386 22.7109 166.245C22.7109 175.103 38.5545 199.154 38.5545 199.154ZM38.5545 171.96C41.5215 171.96 43.9267 169.525 43.9267 166.521C43.9267 163.518 41.5215 161.083 38.5545 161.083C35.5874 161.083 33.1822 163.518 33.1822 166.521C33.1822 169.525 35.5874 171.96 38.5545 171.96Z" fill="#EC5B60"/>
<path fill-rule="evenodd" clip-rule="evenodd" d="M135.377 216.576C135.377 216.576 159.107 224.861 167.922 225.091C176.735 225.321 183.97 222.08 184.08 217.85C184.19 213.621 177.133 210.005 168.32 209.775C159.505 209.544 135.377 216.576 135.377 216.576ZM162.434 217.284C162.396 218.718 164.789 219.945 167.778 220.023C170.767 220.1 173.219 219.001 173.257 217.567C173.295 216.133 170.902 214.907 167.913 214.828C164.924 214.75 162.472 215.85 162.434 217.284Z" fill="#EC5B60"/>
<path fill-rule="evenodd" clip-rule="evenodd" d="M98.9941 225.425C98.9941 225.425 114.434 230.842 120.169 230.992C125.903 231.143 130.609 229.024 130.68 226.258C130.753 223.492 126.162 221.128 120.428 220.978C114.693 220.828 98.9941 225.425 98.9941 225.425ZM116.598 225.888C116.573 226.826 118.13 227.628 120.074 227.678C122.019 227.73 123.615 227.011 123.639 226.073C123.664 225.135 122.107 224.334 120.162 224.283C118.218 224.231 116.622 224.95 116.598 225.888Z" fill="#EC5B60"/>
<path d="M138.311 91.8205L140.731 28.7179H215.768V89.2368L138.311 91.8205Z" stroke="#242938" stroke-width="2"/>
<path d="M216.354 28.1282H140.07V41.1025H216.354V28.1282Z" fill="#242938"/>
<path d="M146.233 38.1538C148.016 38.1538 149.461 36.7016 149.461 34.9102C149.461 33.1188 148.016 31.6666 146.233 31.6666C144.451 31.6666 143.006 33.1188 143.006 34.9102C143.006 36.7016 144.451 38.1538 146.233 38.1538Z" fill="white"/>
<path d="M154.448 38.1538C156.231 38.1538 157.675 36.7016 157.675 34.9102C157.675 33.1188 156.231 31.6666 154.448 31.6666C152.666 31.6666 151.221 33.1188 151.221 34.9102C151.221 36.7016 152.666 38.1538 154.448 38.1538Z" fill="white"/>
<path d="M163.249 38.1538C165.031 38.1538 166.476 36.7016 166.476 34.9102C166.476 33.1188 165.031 31.6666 163.249 31.6666C161.466 31.6666 160.021 33.1188 160.021 34.9102C160.021 36.7016 161.466 38.1538 163.249 38.1538Z" fill="white"/>
<path d="M109.558 12.8182C92.7595 0.920088 81.4343 14.1927 77.8711 22.3162C82.0012 24.9108 91.1842 29.5662 98.1833 26.5639C105.182 23.5616 108.959 16.0768 109.558 12.8182Z" fill="#F6F6F7"/>
<path d="M94.5936 25.1795C98.9687 25.1795 102.515 21.747 102.515 17.5129C102.515 13.2787 98.9687 9.84619 94.5936 9.84619C90.2186 9.84619 86.6719 13.2787 86.6719 17.5129C86.6719 21.747 90.2186 25.1795 94.5936 25.1795Z" fill="#242938"/>
<path d="M77.871 19.2821L72.5898 16.3334" stroke="#242938" stroke-width="2" stroke-linecap="round"/>
<path d="M81.3916 13.9744L76.6973 10.4359" stroke="#242938" stroke-width="2" stroke-linecap="round"/>
<path d="M87.845 9.2564L84.3242 4.53845" stroke="#242938" stroke-width="2" stroke-linecap="round"/>
<path d="M94.8876 6.89744L94.3008 1" stroke="#242938" stroke-width="2" stroke-linecap="round"/>
<path d="M103.689 8.07688L105.45 2.17944" stroke="#242938" stroke-width="2" stroke-linecap="round"/>
<path d="M109.557 11.0257L113.077 6.30774" stroke="#242938" stroke-width="2" stroke-linecap="round"/>
<path d="M24.472 213.089C14.8282 206.238 8.32663 213.881 6.28125 218.558C8.65245 220.051 13.9237 222.732 17.9419 221.003C21.9602 219.274 24.1281 214.965 24.472 213.089Z" fill="#F6F6F7"/>
<path d="M15.9635 220.385C18.3941 220.385 20.3645 218.404 20.3645 215.962C20.3645 213.519 18.3941 211.538 15.9635 211.538C13.5329 211.538 11.5625 213.519 11.5625 215.962C11.5625 218.404 13.5329 220.385 15.9635 220.385Z" fill="#242938"/>
<path d="M6.28164 216.846L3.34766 215.077" stroke="#242938" stroke-width="2" stroke-linecap="round"/>
<path d="M8.62734 213.897L5.69336 211.538" stroke="#242938" stroke-width="2" stroke-linecap="round"/>
<path d="M11.5631 210.949L9.80273 208.59" stroke="#242938" stroke-width="2" stroke-linecap="round"/>
<path d="M16.2567 209.769L15.6699 206.231" stroke="#242938" stroke-width="2" stroke-linecap="round"/>
<path d="M20.9512 210.359L22.1248 207.41" stroke="#242938" stroke-width="2" stroke-linecap="round"/>
<path d="M24.4727 212.128L26.233 209.179" stroke="#242938" stroke-width="2" stroke-linecap="round"/>
<path d="M123.934 68.2308C125.717 68.2308 127.162 66.7786 127.162 64.9872C127.162 63.1959 125.717 61.7437 123.934 61.7437C122.152 61.7437 120.707 63.1959 120.707 64.9872C120.707 66.7786 122.152 68.2308 123.934 68.2308Z" fill="#D58B8B"/>
<path d="M94.1463 51.5497L95.6087 62.7697C95.6087 62.7697 99.4774 81.501 104.863 98.3414L82.6534 106.564C77.6123 90.4455 73.0345 74.1518 73.1791 71.8511C73.3753 68.7401 75.6075 67.4537 76.6988 67.1993C77.8849 62.5174 81.3963 62.9278 83.0033 63.7182C84.1683 60.3001 87.0074 60.4225 88.2819 60.911C88.1613 59.3191 88.2764 55.2234 89.702 51.5757C91.1275 47.928 93.8746 49.4097 94.1463 51.5497Z" fill="#D58B8B"/>
<path d="M83.1115 64.6923C82.8788 66.1073 83.158 69.5664 85.938 72.6416M85.938 72.6416C90.9413 77.1605 92.2473 71.1482 90.8281 66.3595M85.938 72.6416C86.2027 74.5194 86.8178 78.2244 83.2448 77.5957C79.6717 76.9671 77.4557 71.0723 77.2832 68.2569" stroke="#242938" stroke-width="2" stroke-linecap="round"/>
<path d="M94.4596 82.3847C90.7807 77.0623 91.7359 72.7439 93.6171 70.0646C94.5742 68.7022 95.6819 68.4375 96.6475 69.3761" stroke="#242938" stroke-width="2" stroke-linecap="round"/>
<path d="M74.3496 75.3077C74.8172 76.4589 76.0725 79.1318 77.8549 79.8618C79.6372 80.5908 80.5639 78.7116 80.8044 77.6803" stroke="#242938" stroke-width="2" stroke-linecap="round"/>
<path d="M55.2731 176.504C57.4209 176.993 64.682 179.291 68.0448 180.379C70.1917 184.915 77.3586 198.775 78.4567 205.22C72.6273 206.878 55.7619 210.359 52.6704 210.359C48.8069 210.359 43.9262 207.586 40.8352 206.158C38.3623 205.016 38.5033 202.745 38.883 201.753C36.6379 199.795 36.9985 197.864 37.4594 197.143C32.5462 195.871 31.3451 193.785 31.3587 192.901C31.0469 192.901 30.1385 192.755 28.9997 192.167C27.5762 191.433 27.7389 188.618 28.9997 187.884C30.2606 187.15 30.9926 187.598 37.4594 186.946C42.6328 186.424 45.9598 185.042 46.977 184.417C47.9856 183.08 49.9635 178.57 51.1511 176.325C51.7066 176.121 53.1262 176.015 55.2731 176.504Z" fill="#D58B8B"/>
<path d="M48.5312 184.41C49.6694 184.057 52.3193 183.207 53.8124 182.641" stroke="#242938" stroke-width="2" stroke-linecap="round"/>
<path d="M32.0996 192.987C36.8855 193.703 40.6121 194.636 47.3563 192.667" stroke="#242938" stroke-width="2" stroke-linecap="round"/>
<path d="M40.543 202.361C42.0203 202.776 45.8036 203.525 49.117 203.204M38.5547 197.385C40.5982 197.893 45.0994 198.188 47.8331 197.385H38.5547Z" stroke="#242938" stroke-width="2" stroke-linecap="round"/>
<path d="M150.633 63.5128C150.633 65.0396 150.234 66.3959 149.618 67.3538C148.999 68.316 148.206 68.8205 147.405 68.8205C146.605 68.8205 145.812 68.316 145.193 67.3538C144.577 66.3959 144.178 65.0396 144.178 63.5128C144.178 61.9861 144.577 60.6297 145.193 59.6718C145.812 58.7097 146.605 58.2051 147.405 58.2051C148.206 58.2051 148.999 58.7097 149.618 59.6718C150.234 60.6297 150.633 61.9861 150.633 63.5128Z" stroke="#242938" stroke-width="2"/>
<path d="M158.54 78.0847L161.366 85.1991C169.351 88.8138 173.942 92.8234 179.387 84.7887L174.187 71.6455C175.656 65.7968 175.563 53.9808 163.432 53.505C148.267 52.9102 145.065 67.3631 148.207 73.9056C150.72 79.14 154.695 78.4951 158.54 78.0847Z" fill="#D58B8B"/>
<path d="M164.13 71.7692C166.723 71.7692 168.824 69.789 168.824 67.3462C168.824 64.9034 166.723 62.9231 164.13 62.9231C161.537 62.9231 159.436 64.9034 159.436 67.3462C159.436 69.789 161.537 71.7692 164.13 71.7692Z" fill="#AD5B5B"/>
<path d="M161.195 67.0513C161.794 66.8547 163.103 66.4615 163.543 66.4615" stroke="#242938" stroke-width="2" stroke-linecap="round"/>
<path d="M162.955 67.0513C163.141 67.4987 163.518 68.479 163.542 68.8205" stroke="#242938" stroke-width="2" stroke-linecap="round"/>
<path d="M144.178 62.3334L161.195 62.9231" stroke="#242938" stroke-width="2"/>
<path d="M149.123 68.1656C149.637 68.2796 150.244 67.508 150.478 66.4423C150.711 65.3766 150.484 64.4202 149.97 64.3063C149.456 64.1923 148.849 64.9639 148.616 66.0296C148.382 67.0954 148.609 68.0517 149.123 68.1656Z" fill="#AD5B5B"/>
<path d="M149.459 55.6471L158.762 62.3362L159.835 66.2779C159.994 65.4616 160.861 63.865 163.056 64.0084C165.798 64.1875 166.574 68.4876 164.427 70.1002C162.709 71.3903 160.968 70.6377 160.312 70.1002L162.718 81.2051L195.229 79.2817C195.229 79.2817 192.884 71.7246 186.73 60.0667C180.576 48.4086 172.279 48.2414 168.9 49.615C160.312 45.2671 152.362 51.8248 149.459 55.6471Z" fill="#242938"/>
<path d="M187.228 42.6089C189.136 45.8361 188.11 50.0532 184.937 52.0282C181.763 54.0032 169.41 54.6667 169.41 54.6667C169.41 54.6667 174.855 42.3168 178.028 40.3418C181.202 38.3668 185.32 39.3818 187.228 42.6089Z" fill="#242938"/>
<path d="M103.273 92.9861C93.0985 98.5894 86.5287 99.1406 80.3238 99.5998C80.0045 99.8295 79.2745 101.667 79.1832 102.999C79.0838 104.445 80.3694 113.93 82.3769 119.809C84.3844 125.688 89.3574 138.869 97.8434 141.303C104.632 143.251 123.21 144.335 131.24 141.303C128.29 146.631 124.762 153.245 121.385 158.711C117.846 164.44 93.4179 169.458 80.3238 172.673C69.8486 175.245 66.9259 178.338 66.1348 179.562C66.8647 181.323 70.3915 185.605 72.0203 190.172C74.567 197.315 75.8527 204.961 75.5789 206.063C75.3052 207.166 115.88 202.619 128.366 198.439C129.096 198.852 130.669 199.896 133.932 201.057C142.19 203.997 158.706 199.863 169.975 198.439C181.244 197.015 182.43 201.654 193.517 201.057C204.604 200.46 206.565 198.393 205.562 177.541C204.558 156.69 194.886 95.7032 182.339 85.3618C173.262 77.88 161.215 82.0017 157.018 86.0434C152.82 90.0852 149.627 96.293 143.194 101.575C132.928 108.878 115.637 112.093 111.394 109.291C107.151 106.489 107.196 95.8337 103.273 92.9861Z" fill="#587291"/>
<path d="M187.26 96.5127L190.681 94.7693M188.035 100.275L189.906 100.871M119.933 108.074L121.028 111.194M123.673 109.175V111.194M81.8447 112.066L77.2832 111.194M108.073 141.566L107.389 145.053M122.122 197.54L123.673 202.311M202.085 169.14L206.965 171.067M81.8447 114.865L79.0166 116.241M84.5359 174.049L81.8447 167.718M87.7745 171.067V169.14M87.7745 204.146L85.7675 208M139.547 195.383C139.293 191.517 139.95 186.073 142.642 181.757M142.642 181.757C145.743 176.785 151.545 173.311 161.761 175.471M142.642 181.757L139.547 180.151M85.7675 127.069C90.4658 126.029 100.683 127.472 103.968 141.566M137.312 187.033H141.965M154.098 172.214L153.87 176.481M90.0097 128.491L91.2413 124.224M101.55 137.621H103.968M97.4904 131.932L103.968 128.491" stroke="#242938" stroke-width="2" stroke-linecap="round"/>
<path d="M136.508 196.205C142.627 194.678 156.083 188.915 160.954 178.072C167.043 164.518 176.702 141.622 178.213 138.325M145.252 103.615C141.91 112.483 134.787 131.182 133.029 135.028L145.252 103.615Z" stroke="#242938" stroke-width="2" stroke-linecap="round"/>
<path d="M110.73 110.103C109.328 111.796 106.309 115.7 105.449 117.769" stroke="#242938" stroke-width="2" stroke-linecap="round"/>
<path d="M180.56 140.179C180.169 141.076 178.917 144.453 177.039 150.795" stroke="#242938" stroke-width="2" stroke-linecap="round"/>
</svg>
