<svg width="383" height="312" viewBox="0 0 383 312" fill="none" xmlns="http://www.w3.org/2000/svg">
<path d="M98.4863 160.554V220.049H130.184V238.522H161.408" stroke="#242938" stroke-width="1.2" stroke-linecap="round"/>
<path d="M116.268 179.705C119.29 179.705 121.74 176.949 121.74 173.549C121.74 170.15 119.29 167.394 116.268 167.394C113.247 167.394 110.797 170.15 110.797 173.549C110.797 176.949 113.247 179.705 116.268 179.705Z" fill="#242938"/>
<path d="M131.999 179.705C135.399 179.705 138.154 176.949 138.154 173.549C138.154 170.15 135.399 167.394 131.999 167.394C128.6 167.394 125.844 170.15 125.844 173.549C125.844 176.949 128.6 179.705 131.999 179.705Z" fill="#242938"/>
<path d="M147.729 179.705C150.751 179.705 153.201 176.949 153.201 173.549C153.201 170.15 150.751 167.394 147.729 167.394C144.707 167.394 142.258 170.15 142.258 173.549C142.258 176.949 144.707 179.705 147.729 179.705Z" fill="#242938"/>
<path d="M276.307 137.301H155.936V207.061H276.307V137.301Z" fill="white"/>
<path d="M297.445 269.088L297.283 268.889H297.027H202.822C183.727 268.889 168.246 253.398 168.246 234.288V189.684C168.246 170.575 183.727 155.083 202.822 155.083H326.538C345.635 155.083 361.114 170.575 361.114 189.684V234.288C361.114 253.398 345.633 268.889 326.538 268.889H321.001H320.381L320.466 269.504L325.065 302.812L297.445 269.088Z" stroke="#242938" stroke-width="1.2"/>
<path d="M272.91 295.202L242.066 283.972L236.472 299.338L267.316 310.568L272.91 295.202Z" stroke="#242938" stroke-width="1.2"/>
<path d="M253.617 298.708L242.109 285.03L272.202 295.482L253.617 298.708Z" fill="#242938"/>
<path d="M257.408 227.55C261.518 224.224 261.22 220.712 260.559 219.372L317.131 232.865C317.291 235.205 317.514 241.137 317.131 246.153C316.747 251.168 306.607 267.777 301.584 275.454L297.474 270.48H240.286L224.328 261.144C224.328 260.099 225.451 256.183 229.944 248.878C235.56 239.747 252.272 231.706 257.408 227.55Z" fill="#242938"/>
<path d="M200.829 99.7438L201.411 107.991L221.958 107.017C222.113 105.356 222.505 101.324 222.831 98.4838C223.238 94.933 230.281 86.8005 230.863 85.025C231.445 83.2496 231.445 82.0469 230.281 81.4742C229.35 81.0161 224.926 83.6505 222.831 85.025L223.995 78.6107C224.364 75.0789 224.647 67.5687 222.831 65.7819C221.015 63.995 219.668 67.5954 219.222 69.6191C219.416 68.6645 219.49 66.4004 218.233 64.9801C216.975 63.5598 215.226 66.8318 214.507 68.6454C214.507 67.4236 214.146 64.9801 212.703 64.9801C211.259 64.9801 210.084 69.9054 209.676 72.3681V70.5927C209.735 69.2182 209.676 66.3317 208.978 65.7819C208.105 65.0946 207.232 66.1828 206.242 69.6191C205.253 73.0553 202.517 84.166 199.723 90.294C197.488 95.1964 199.529 98.6361 200.829 99.7438Z" fill="#D58B8B"/>
<path d="M221.611 86.3115C219.773 87.1802 215.516 89.8418 213.18 93.5379" stroke="#242938" stroke-width="1.2" stroke-linecap="round"/>
<path d="M359.405 250.804C360.016 250.115 359.659 246.843 359.405 245.293L374.498 245.924C374.553 247.551 374.629 251.148 374.498 252.526C374.335 254.248 373.081 262.859 370.902 264.581C368.723 266.303 364.854 271.297 363.546 273.536C362.5 275.327 359.841 278.722 358.643 280.195C357.789 280.903 355.875 282.055 355.047 280.999C354.218 279.942 355.61 276.234 356.409 274.512C355.355 276.042 352.933 279.173 351.668 279.449C349.14 279.908 350.288 275.927 351.178 273.88C350.379 274.952 348.367 277.026 346.71 276.751C345.054 276.475 345.802 273.344 346.383 271.814C345.748 272.465 344.324 273.582 343.713 272.847C342.951 271.929 343.278 269.919 343.713 268.14C344.062 266.716 346.22 262.687 347.255 260.85C346.492 261.194 344.945 261.676 344.858 260.85C344.749 259.816 347.419 256.429 350.415 254.765C353.412 253.1 358.643 251.665 359.405 250.804Z" fill="#D58B8B"/>
<path d="M356.076 274.199C356.79 273.029 358.356 270.554 358.913 270.009M346.869 270.69C347.53 269.625 349.246 267.15 350.83 265.768L346.869 270.69ZM351.794 272.732C352.561 271.528 354.417 268.784 355.701 267.444L351.794 272.732Z" stroke="#242938" stroke-width="1.2" stroke-linecap="round"/>
<path d="M348.072 259.746C348.793 258.708 350.765 256.291 352.89 254.928" stroke="#242938" stroke-width="1.2" stroke-linecap="round"/>
<path d="M227.918 112.379C227.509 108.98 225.807 106.26 225.807 106.26C223.493 103.201 204.812 104.765 201.163 105.852C196.602 107.212 198.712 114.419 199.665 118.294C200.618 122.169 205.86 148.685 209.128 156.163C211.742 162.146 221.337 170.169 225.807 173.432C236.927 180.73 259.356 196.099 260.119 199.199C260.881 202.3 257.396 212.457 255.558 217.148C260.119 224.899 269.504 226.667 281.496 226.667C301.783 226.667 310.997 234.258 320.913 237.409C323.568 234.145 320.913 211.301 323.16 207.086C325.406 202.871 348.553 209.602 352.161 213.477C355.769 217.352 351.957 240.672 353.25 244.275C354.544 247.879 352.91 250.122 357.812 250.122C371.427 252.189 380.278 249.262 383.001 247.539C382.547 246.768 381.122 239.611 379.052 217.148C376.465 189.069 374.082 191.585 370.202 188.729C366.245 185.818 339.09 176.696 334.529 175.744C329.967 174.792 313.016 172.48 307.161 170.169C301.306 167.857 274.824 162.35 272.237 159.427C269.65 156.503 242.337 147.519 234.657 135.903C230.028 128.9 228.146 114.283 227.918 112.379Z" fill="#EC5B60"/>
<path d="M216.42 79.0851L217.999 71.3243M208.363 79.0851L209.125 74.116L208.363 79.0851ZM212.011 79.0851L213.589 70.6543L212.011 79.0851Z" stroke="#242938" stroke-width="1.2" stroke-linecap="round"/>
<path d="M293.875 135.933C288.21 135.933 285.559 137.518 281.402 145.332C279.292 149.3 278.089 155.389 279.998 157.409C281.196 158.677 284.039 160.054 286.963 161.072L286.183 163.585L281.402 181.072L303.802 169.269C302.476 168.718 299.706 168.317 299.541 167.355C299.374 166.395 301.238 161.544 302.191 159.239C304.774 156.797 306.4 153.234 306.4 149.268C306.4 141.903 300.793 135.933 293.875 135.933Z" fill="#D58B8B"/>
<path d="M281.777 151.179L285.881 148.244L285.388 152.347L281.777 151.179Z" fill="#AD5B5B"/>
<path d="M285.881 148.244L281.777 151.137L285.574 152.347" stroke="#242938" stroke-width="1.2" stroke-linecap="round" stroke-linejoin="round"/>
<path d="M284.513 154.671C284.031 154.947 283.344 155.303 282.576 154.906C282.113 154.665 281.81 154.044 281.777 153.715" stroke="#242938" stroke-width="1.2"/>
<path d="M281.584 146.438C282.032 146.774 282.667 146.684 283.003 146.237C283.34 145.789 283.25 145.154 282.802 144.818C282.355 144.481 281.72 144.571 281.383 145.019C281.047 145.466 281.137 146.102 281.584 146.438Z" fill="#242938"/>
<path d="M288.334 149.809C288.782 150.145 289.417 150.055 289.753 149.608C290.09 149.16 290 148.525 289.552 148.189C289.105 147.852 288.47 147.942 288.133 148.39C287.797 148.837 287.887 149.473 288.334 149.809Z" fill="#242938"/>
<path d="M289.986 145.508C290.957 145.594 292.156 146.111 292.722 146.876" stroke="#242938" stroke-width="1.2" stroke-linecap="round"/>
<path d="M284.513 142.772C283.811 141.942 282.667 141.277 281.777 141.425" stroke="#242938" stroke-width="1.2" stroke-linecap="round"/>
<path d="M288.287 153.565C288.748 153.912 289.402 153.819 289.748 153.358C290.095 152.898 290.002 152.243 289.541 151.897C289.081 151.551 288.426 151.643 288.08 152.104C287.734 152.565 287.826 153.219 288.287 153.565Z" fill="#AD5B5B"/>
<path d="M280.144 149.495C280.605 149.841 281.259 149.748 281.606 149.288C281.952 148.827 281.859 148.172 281.399 147.826C280.938 147.48 280.284 147.572 279.937 148.033C279.591 148.494 279.684 149.148 280.144 149.495Z" fill="#AD5B5B"/>
<path d="M302.201 159.78C304.965 157.256 306.707 153.574 306.707 149.475C306.707 148.506 306.61 147.561 306.425 146.65C314.33 148.57 328.128 148.57 322.786 139.081C318.599 131.642 310.879 139.345 305.482 143.713C303.36 138.978 298.703 135.692 293.298 135.692C289.36 135.692 286.781 136.383 284.238 139.081C285.063 141.058 288.959 143.713 294.856 143.713C299.413 143.713 302.034 145.634 300.086 147.554C298.528 149.089 297.137 151.809 296.637 152.976C295.784 155.245 295.702 159.78 302.201 159.78Z" fill="#242938"/>
<path d="M297.092 156.216C298.215 157.051 300.055 156.481 301.2 154.942C302.346 153.402 302.364 151.477 301.241 150.641C300.118 149.805 298.278 150.375 297.133 151.915C295.987 153.454 295.969 155.38 297.092 156.216Z" fill="#AD5B5B"/>
<path d="M298.193 153.715C298.463 153.186 299.137 152.442 299.561 152.347" stroke="#242938" stroke-width="1.2" stroke-linecap="round"/>
<path d="M299.562 152.347C299.562 152.66 299.562 153.346 299.562 153.715" stroke="#242938" stroke-width="1.2" stroke-linecap="round"/>
<path d="M222.959 118.145C222.959 121.17 225.286 123.622 228.157 123.622C228.73 123.622 229.283 123.524 229.798 123.344L227.815 112.679C225.104 112.865 222.959 115.241 222.959 118.145Z" fill="#242938"/>
<path d="M217.489 159.187C220.511 159.187 222.96 156.737 222.96 153.715C222.96 150.693 220.511 148.244 217.489 148.244C214.467 148.244 212.018 150.693 212.018 153.715C212.018 156.737 214.467 159.187 217.489 159.187Z" fill="#242938"/>
<path d="M270.837 172.865C273.858 172.865 276.308 170.416 276.308 167.394C276.308 164.372 273.858 161.922 270.837 161.922C267.815 161.922 265.365 164.372 265.365 167.394C265.365 170.416 267.815 172.865 270.837 172.865Z" fill="#242938"/>
<path d="M273.571 209.797C276.593 209.797 279.042 207.347 279.042 204.326C279.042 201.304 276.593 198.854 273.571 198.854C270.549 198.854 268.1 201.304 268.1 204.326C268.1 207.347 270.549 209.797 273.571 209.797Z" fill="#242938"/>
<path d="M300.928 222.108C297.906 222.108 295.457 224.438 295.457 227.389C298.193 227.961 303.469 229.361 305.553 230.315C306.066 229.501 306.4 228.479 306.4 227.452C306.4 224.502 303.951 222.108 300.928 222.108Z" fill="#242938"/>
<path d="M316.659 197.487C320.059 197.487 322.815 194.731 322.815 191.331C322.815 187.932 320.059 185.176 316.659 185.176C313.26 185.176 310.504 187.932 310.504 191.331C310.504 194.731 313.26 197.487 316.659 197.487Z" fill="#242938"/>
<path d="M351.402 189.278C354.421 189.357 356.934 186.93 357.011 183.859C357.019 183.566 357.002 183.344 356.967 183.063L347.669 179.705C346.716 180.677 346.11 182.091 346.072 183.572C345.994 186.644 348.381 189.198 351.402 189.278Z" fill="#242938"/>
<path d="M372.057 241.258C375.079 241.258 377.529 238.808 377.529 235.786C377.529 232.765 375.079 230.315 372.057 230.315C369.036 230.315 366.586 232.765 366.586 235.786C366.586 238.808 369.036 241.258 372.057 241.258Z" fill="#242938"/>
<path d="M64.5771 151.365L64.7406 151.167H64.9984H155.268C174.524 151.167 190.133 135.676 190.133 116.566V76.1522C190.133 57.0422 174.523 41.5505 155.268 41.5505H37.6008C18.3457 41.5505 2.73633 57.0422 2.73633 76.1522V116.566C2.73633 135.676 18.3457 151.167 37.6008 151.167H41.7001H42.3253L42.2397 151.782L37.7792 183.808L64.5771 151.365Z" stroke="#242938" stroke-width="1.2"/>
<path d="M120.371 151.173L111.979 131.83L42.3214 147.304L36.9316 185.176L65.1086 151.309L120.371 151.173Z" fill="#242938"/>
<path d="M173.194 59.5513L169.286 67.0414L150.549 57.9654C151.081 56.3488 152.362 52.4182 153.219 49.6291C154.289 46.1427 151.051 35.7301 151.234 33.8366C151.417 31.9431 151.907 30.817 153.225 30.7435C154.28 30.6846 157.323 34.9088 158.713 37.0284L160.248 30.5603C161.347 27.1073 164.149 19.9633 166.569 19.012C168.991 18.0606 168.775 21.9666 168.364 24.0385C168.573 23.0677 169.429 20.9186 171.18 20.0885C172.929 19.2583 173.223 23.0171 173.152 25.0004C173.651 23.8565 174.985 21.7121 176.328 22.2857C177.673 22.8592 176.757 27.9378 176.131 30.4054L176.856 28.7432C177.363 27.4331 178.595 24.7538 179.47 24.5166C180.565 24.2201 180.933 25.5858 180.451 29.1962C179.97 32.8066 177.981 44.2959 178.082 51.1435C178.162 56.6215 174.857 59.0312 173.194 59.5513Z" fill="#D58B8B"/>
<path d="M158.98 38.1355C160.277 39.6241 163.055 43.6353 163.798 47.7707" stroke="#242938" stroke-width="1.2" stroke-linecap="round"/>
<path d="M166.207 33.3606L167.722 24.887M173.445 36.931L174.638 31.6156L173.445 36.931ZM170.168 35.3146L171.936 26.1699L170.168 35.3146Z" stroke="#242938" stroke-width="1.2" stroke-linecap="round"/>
<path d="M39.8335 62.4131C48.3925 56.1906 74.2774 49.8554 86.15 47.4655C91.6348 46.2947 102.401 47.4655 106.126 50.7121C109.85 53.9586 117.231 70.1913 120.752 72.1528C124.273 74.1142 125.627 74.5877 133.618 70.1913C141.608 65.795 144.452 53.147 151.765 52.0648C157.615 51.199 167.926 60.6772 172.35 65.5244C171.47 66.5616 169.317 69.3391 167.746 72.1528C165.782 75.6699 152.645 92.5113 144.452 100.695C137.897 107.243 119.149 106.535 110.595 105.362C111.024 106.76 112.68 110.746 115.876 115.508C119.073 120.269 119.601 123.715 119.465 124.842C104.636 143.644 61.2989 145.268 58.3194 145.268C55.34 145.268 27.0355 151.964 9.36207 145.268C-8.31135 138.572 4.01265 116.116 6.45036 111.585C8.88807 107.053 29.1346 70.1913 39.8335 62.4131Z" fill="#587291"/>
<path d="M77.9688 100.132C81.1974 101.799 84.9943 102.185 88.524 101.205C92.0536 100.226 95.027 97.9598 96.79 94.9073C98.5529 91.8549 98.9612 88.2659 97.9247 84.9292C96.8883 81.5925 94.4922 78.7817 91.2634 77.115L88.6858 81.5775C90.6626 82.5979 92.1297 84.3189 92.7643 86.3617C93.3989 88.4044 93.1489 90.6022 92.0695 92.4712C90.9902 94.3402 89.1697 95.726 87.0087 96.3264C84.8477 96.9268 82.5231 96.6898 80.5463 95.6701L77.9688 100.132Z" fill="white"/>
<path d="M39.4718 137.301C40.0721 133.949 39.2891 130.502 37.295 127.716C35.301 124.93 32.2593 123.035 28.839 122.448C25.4188 121.859 21.9001 122.626 19.0572 124.58C16.2143 126.533 14.2798 129.515 13.6797 132.866L18.6801 133.725C19.0476 131.674 20.2319 129.849 21.9725 128.652C23.7131 127.457 25.8674 126.987 27.9614 127.347C30.0555 127.707 31.9178 128.867 33.1386 130.572C34.3595 132.278 34.8388 134.388 34.4714 136.441L39.4718 137.301Z" fill="white"/>
<path d="M133.198 73.0112C132.226 76.5619 132.637 80.3729 134.338 83.6058C136.04 86.8388 138.893 89.2287 142.271 90.2498C145.649 91.2723 149.274 90.8409 152.35 89.0519C155.426 87.2639 157.699 84.2645 158.671 80.7138L153.733 79.2205C153.138 81.3944 151.746 83.2308 149.862 84.3258C147.98 85.4207 145.76 85.6846 143.691 85.0592C141.623 84.4338 139.876 82.9705 138.834 80.991C137.793 79.0117 137.541 76.6785 138.137 74.5046L133.198 73.0112Z" fill="white"/>
<path d="M90.8839 145.508C92.8046 142.54 93.4618 138.934 92.7109 135.484C91.9601 132.033 89.8627 129.02 86.8801 127.109C83.8976 125.198 80.2743 124.544 76.8072 125.292C73.3401 126.038 70.3133 128.126 68.3926 131.093L72.7531 133.888C73.929 132.072 75.7822 130.793 77.905 130.335C80.0277 129.878 82.246 130.278 84.0721 131.449C85.8982 132.619 87.1823 134.464 87.642 136.576C88.1018 138.689 87.6993 140.897 86.5234 142.714L90.8839 145.508Z" fill="white"/>
<path d="M96.137 60.2471C99.5614 61.1957 103.196 60.6439 106.242 58.7129C107.445 57.9497 108.518 56.9962 109.429 55.8946C109.429 55.8946 108.359 54.13 107.717 53.2038C107.107 52.3234 106.242 51.2661 106.242 51.2661C105.568 52.343 104.674 53.2566 103.614 53.9285C101.75 55.1107 99.5243 55.4486 97.4277 54.8678C95.3312 54.2871 93.5353 52.8352 92.4351 50.8316C91.7913 49.6595 91.4166 48.3545 91.3247 47.0222C89.5782 47.0222 87.3914 47.2647 86.1758 47.5313C86.3374 49.673 86.9468 51.7691 87.9824 53.6548C89.7795 56.9272 92.7128 59.2986 96.137 60.2471Z" fill="white"/>
<path d="M31.3817 96.1031C27.9567 96.6457 24.4557 95.8114 21.6488 93.7861C20.7066 93.1062 19.8687 92.3114 19.1504 91.4256L22.0945 86.6728C22.6646 87.8676 23.5304 88.9145 24.6264 89.7053C26.345 90.945 28.4884 91.4559 30.5853 91.1245C32.6822 90.7919 34.5608 89.6459 35.8077 87.9362C37.0547 86.2276 37.5679 84.0958 37.2344 82.0104L42.2416 81.2185C42.7863 84.6247 41.9481 88.1065 39.9115 90.8975C37.8748 93.6897 34.8065 95.5618 31.3817 96.1031Z" fill="white"/>
<path d="M109.428 103.104C104.315 93.2986 104.073 82.3705 101.221 73.0112" stroke="#242938" stroke-width="1.2" stroke-linecap="round"/>
<path d="M54.7137 78.4829C54.2156 84.5452 47.529 110.409 45.1387 118.151" stroke="#242938" stroke-width="1.2" stroke-linecap="round"/>
<path d="M36.9316 116.783C42.618 117.761 55.7769 120.501 62.9209 123.622" stroke="#242938" stroke-width="1.2" stroke-linecap="round"/>
<path d="M63.1064 129.658C56.1132 132.952 52.7068 142.899 55.9448 145.377L65.5445 146.953C72.4142 147.44 87.2048 148.378 91.4104 148.228C95.616 148.078 95.7278 146.265 95.2579 145.377C96.0452 145.377 97.8636 145.25 98.8388 144.739C100.85 143.779 100.21 142.239 99.6388 141.587C100.07 141.587 101.735 141.587 102.42 140.123C103.303 138.233 100.502 137.061 98.8388 136.973C99.3213 136.386 99.7476 135.334 98.1912 134.497C95.2579 132.92 88.5914 132.208 86.1535 132.208C85.8182 130.498 83.3472 129.796 82.1536 129.658C77.4426 128.708 70.1539 129.133 63.1064 129.658Z" fill="#D58B8B"/>
<path d="M84.808 131.83C82.5564 131.83 80.0965 131.83 77.9688 131.83" stroke="#242938" stroke-width="1.2" stroke-linecap="round"/>
<path d="M97.1174 137.301C94.2649 136.647 88.1095 135.682 84.8066 135.993" stroke="#242938" stroke-width="1.2" stroke-linecap="round"/>
<path d="M97.1186 141.404C94.5831 140.751 89.1117 139.785 86.1758 140.097" stroke="#242938" stroke-width="1.2" stroke-linecap="round"/>
<path d="M94.3823 145.508C91.8468 144.855 86.3753 143.888 83.4395 144.2" stroke="#242938" stroke-width="1.2" stroke-linecap="round"/>
<path d="M70.2159 22.0496C76.0462 22.0496 80.3426 23.378 84.6217 30.8645C86.7938 34.6645 86.5871 41.0388 84.6217 42.976C83.3903 44.1896 80.464 45.5091 77.4542 46.4838L78.2565 48.8918C78.2565 48.8918 82.1843 51.4287 79.4145 55.4622C73.9051 63.4851 63.6194 57.2976 64.5098 52.5043C64.681 51.5829 62.7625 46.9363 61.7819 44.7282C59.1239 42.3883 57.4492 38.9756 57.4492 35.1752C57.4492 28.1202 63.0965 22.0496 70.2159 22.0496Z" fill="#D58B8B"/>
<path d="M82.0723 36.2786L77.9688 33.3438L78.4611 37.4473L82.0723 36.2786Z" fill="#AD5B5B"/>
<path d="M79.3359 33.3438L82.0717 36.2379L79.5408 37.4473" stroke="#242938" stroke-width="1.2" stroke-linecap="round"/>
<path d="M79.3359 40.727C79.8187 41.2786 80.5053 41.9909 81.2725 41.1957C81.7369 40.7143 82.0386 39.4714 82.0717 38.8149" stroke="#242938" stroke-width="1.2"/>
<path d="M82.57 31.9575C82.1226 32.2939 81.4872 32.2038 81.1508 31.7564C80.8145 31.309 80.9045 30.6736 81.352 30.3373C81.7994 30.0009 82.4348 30.091 82.7711 30.5384C83.1075 30.9858 83.0174 31.6212 82.57 31.9575Z" fill="#242938"/>
<path d="M75.8219 35.3282C75.3745 35.6645 74.7391 35.5744 74.4028 35.127C74.0665 34.6796 74.1565 34.0442 74.6039 33.7079C75.0514 33.3715 75.6867 33.4616 76.0231 33.909C76.3594 34.3564 76.2694 34.9918 75.8219 35.3282Z" fill="#242938"/>
<path d="M72.9525 29.0713C71.9831 29.157 70.7833 29.6747 70.2168 30.4391" stroke="#242938" stroke-width="1.2" stroke-linecap="round"/>
<path d="M76.5996 27.8857C77.3007 27.0538 78.4454 26.3898 79.3353 26.5388" stroke="#242938" stroke-width="1.2" stroke-linecap="round"/>
<path d="M75.8692 39.085C75.4085 39.4313 74.7542 39.3386 74.4078 38.8779C74.0615 38.4171 74.1542 37.7628 74.615 37.4164C75.0757 37.0701 75.73 37.1628 76.0764 37.6236C76.4227 38.0843 76.33 38.7386 75.8692 39.085Z" fill="#AD5B5B"/>
<path d="M84.0118 35.0139C83.5511 35.3603 82.8968 35.2676 82.5504 34.8068C82.2041 34.3461 82.2968 33.6918 82.7575 33.3454C83.2183 32.999 83.8726 33.0918 84.2189 33.5525C84.5653 34.0133 84.4726 34.6676 84.0118 35.0139Z" fill="#AD5B5B"/>
<path d="M67.0621 41.7344C65.9389 42.5702 64.0997 41.9998 62.9541 40.4604C61.8086 38.921 61.7904 36.9955 62.9136 36.1597C64.0367 35.3238 65.8759 35.8942 67.0215 37.4336C68.1671 38.973 68.1853 40.8985 67.0621 41.7344Z" fill="#AD5B5B"/>
<path d="M67.0248 38.8149C66.4854 38.2859 65.1364 37.5416 64.2891 37.447" stroke="#242938" stroke-width="1.2" stroke-linecap="round"/>
<path d="M64.2891 37.447C64.2891 37.7598 64.2891 38.446 64.2891 38.8149" stroke="#242938" stroke-width="1.2" stroke-linecap="round"/>
<path d="M66.778 35.9307C71.3981 32.0376 71.3789 27.2399 70.7918 25.3277C73.5748 26.4315 76.8141 24.7159 78.0862 23.72C80.3932 25.8835 84.8029 31.2455 85.4121 35.2172C86.0597 39.439 84.5643 42.2212 84.0327 42.8439C84.1047 43.1318 76.6468 46.5602 77.3854 46.8066L78.6033 50.2723C87.0245 46.9826 102.847 51.7659 107.223 51.7951C111.351 42.8439 109.675 36.3429 108.411 37.0986C109.14 26.727 102.592 25.6549 99.2263 26.4149C95.2612 18.2338 90.021 21.2935 87.8965 23.846C84.3099 15.1865 78.6922 16.6478 76.332 18.4607C71.3409 11.7936 66.3148 15.1543 64.4257 17.6681C61.1605 17.0199 59.7981 19.6528 59.5247 21.0505C51.0447 19.9582 48.4641 28.2094 48.2335 32.4718C46.2145 33.9659 47.3886 35.6919 48.2281 36.3682C47.3997 39.3579 50.3923 41.5517 51.9918 42.275C48.2162 50.524 45.0714 60.151 49.3065 60.4062C48.2469 61.2297 46.1501 63.6706 46.2418 66.8452C46.2448 72.2119 52.0988 73.2594 55.0259 73.1124C56.6052 70.7417 80.9713 77.1859 75.846 53.6589C75.9811 53.4245 76.104 52.7233 75.5126 51.7951C74.4353 50.1977 72.3121 50.1142 71.3856 50.2723C70.2704 45.5846 68.4542 46.1976 68.4542 46.1976C68.4542 46.1976 74.2059 40.7144 66.778 35.9307Z" fill="#242938"/>
<path d="M74.5091 38.7109C76.7367 38.3207 78.2263 36.1985 77.8361 33.9709C77.4459 31.7432 75.3237 30.2536 73.096 30.6438C70.8684 31.034 69.3788 33.1562 69.769 35.3839C70.1592 37.6115 72.2814 39.1011 74.5091 38.7109Z" stroke="#242938" stroke-width="1.2"/>
<path d="M77.7134 33.4249C78.0676 33.0108 78.9825 32.2551 79.8062 32.5462" stroke="#242938" stroke-width="1.2"/>
<path d="M84.1243 34.6736C86.3519 34.2834 87.8415 32.1612 87.4513 29.9335C87.0611 27.7059 84.9389 26.2163 82.7113 26.6065C80.4836 26.9967 78.994 29.1189 79.3842 31.3465C79.7744 33.5742 81.8966 35.0637 84.1243 34.6736Z" stroke="#242938" stroke-width="1.2"/>
</svg>
