<svg width="251" height="250" viewBox="0 0 251 250" fill="none" xmlns="http://www.w3.org/2000/svg">
<path d="M204.487 212.108C200.635 209.822 195.891 210.032 191.443 210.299C181.154 210.946 170.864 211.594 160.574 212.241L104.604 210.927C97.794 208.222 90.3698 207.689 83.1316 208.051C78.6473 208.279 67.4086 207.499 66.4038 213.746C66.1433 215.346 66.6085 216.984 67.2411 218.47C71.9673 229.727 82.7781 232.032 93.5143 233.194C100.306 233.918 107.098 234.108 113.945 233.88C128.012 233.385 141.986 231.347 155.997 230.147C158.788 229.918 161.56 229.708 164.352 229.537C177.711 228.756 191.499 227.842 203.464 221.708C205.324 220.756 207.334 219.384 207.632 217.27C207.929 215.137 206.292 213.194 204.487 212.108Z" fill="white"/>
<path d="M99.8034 212.432C92.9932 209.727 85.569 209.194 78.3308 209.556C73.8465 209.784 62.6078 209.003 61.603 215.251C61.3425 216.851 61.8077 218.489 62.4404 219.975C67.1666 231.232 77.9773 233.537 88.7136 234.699C95.5052 235.423 102.297 235.613 109.144 235.385C123.211 234.89 137.185 232.851 151.196 231.651C153.987 231.423 156.76 231.213 159.551 231.042C172.911 230.261 186.699 229.347 198.663 223.213C200.524 222.261 202.533 220.889 202.831 218.775C203.129 216.642 201.491 214.699 199.686 213.613C195.835 211.327 191.09 211.537 186.643 211.803C176.353 212.451 166.063 213.099 155.774 213.746" stroke="#242938" stroke-width="1.58095" stroke-linecap="round"/>
<path d="M85.6989 244.337C85.9594 245.956 86.6665 247.556 87.9503 248.528C88.4899 248.928 89.0854 249.214 89.718 249.423C90.4809 249.671 91.281 249.804 92.0811 249.937C92.416 249.995 92.7696 250.052 93.0859 249.918C93.3836 249.785 93.5883 249.518 93.7744 249.252C96.4724 245.347 96.6771 240.204 91.9136 238.204C87.0572 236.166 84.9546 239.594 85.6989 244.337Z" fill="#242938"/>
<path d="M102.557 248.09C105.181 249.747 108.586 249.233 110.744 247.004C111.042 246.699 111.321 246.337 111.433 245.918C111.563 245.404 111.451 244.871 111.302 244.356C110.037 240.204 106.278 237.08 102.073 239.271C97.3843 241.69 98.5565 245.556 102.557 248.09Z" fill="#242938"/>
<path d="M155.736 240.471C156.331 244.242 160.779 247.69 164.202 244.985C167.626 242.261 165.505 235.842 161.932 234.337C157.094 232.299 154.992 235.728 155.736 240.471Z" fill="#242938"/>
<path d="M168.261 239.213C168.566 241.175 170.065 243.225 172.248 243.225C177.222 243.225 177.771 236.119 173.284 234.242C169.358 232.566 167.646 235.347 168.261 239.213Z" fill="#242938"/>
<path d="M104.064 107.592L107.097 26.8862H201.286V104.278L104.064 107.592Z" stroke="#242938" stroke-width="1.58095"/>
<path d="M196.075 76.3157H158.936" stroke="#242938" stroke-width="1.58095" stroke-linecap="round"/>
<path d="M178.121 52.9819H140.963" stroke="#242938" stroke-width="1.58095" stroke-linecap="round"/>
<path d="M196.076 71.5918H181.748" stroke="#242938" stroke-width="1.58095" stroke-linecap="round"/>
<path d="M40.9121 101.954H78.0705" stroke="#242938" stroke-width="1.58095" stroke-linecap="round"/>
<path d="M40.9121 97.2302H55.2396" stroke="#242938" stroke-width="1.58095" stroke-linecap="round"/>
<path d="M201.789 26.3909H106.633V42.6197H201.771V26.3909H201.789Z" fill="#242938"/>
<path d="M114.131 38.6386C116.363 38.6386 118.187 36.791 118.187 34.4862C118.187 32.2004 116.382 30.3337 114.131 30.3337C111.898 30.3337 110.074 32.1814 110.074 34.4862C110.074 36.791 111.898 38.6386 114.131 38.6386Z" fill="white"/>
<path d="M124.662 38.6386C126.895 38.6386 128.718 36.791 128.718 34.4862C128.718 32.2004 126.913 30.3337 124.662 30.3337C122.429 30.3337 120.605 32.1814 120.605 34.4862C120.605 36.791 122.41 38.6386 124.662 38.6386Z" fill="white"/>
<path d="M135.175 38.6386C137.408 38.6386 139.232 36.791 139.232 34.4862C139.232 32.2004 137.427 30.3337 135.175 30.3337C132.943 30.3337 131.119 32.1814 131.119 34.4862C131.138 36.791 132.943 38.6386 135.175 38.6386Z" fill="white"/>
<path d="M33.7871 124.755L36.2619 83.8015H113.705V123.059L33.7871 124.755Z" stroke="#242938" stroke-width="1.58095"/>
<path d="M114.187 83.3252H35.7949V91.6491H114.187V83.3252Z" fill="#242938"/>
<path d="M40.9126 89.611C42.1593 89.611 43.1827 88.6586 43.1827 87.4966C43.1827 86.3347 42.1593 85.3823 40.9126 85.3823C39.666 85.3823 38.6426 86.3347 38.6426 87.4966C38.6426 88.6586 39.6474 89.611 40.9126 89.611Z" fill="white"/>
<path d="M46.8659 89.611C48.1312 89.611 49.1732 88.6586 49.1732 87.4966C49.1732 86.3347 48.1312 85.3823 46.8659 85.3823C45.6006 85.3823 44.5586 86.3347 44.5586 87.4966C44.5586 88.6586 45.582 89.611 46.8659 89.611Z" fill="white"/>
<path d="M52.8033 89.611C54.0499 89.611 55.0733 88.6586 55.0733 87.4966C55.0733 86.3347 54.0499 85.3823 52.8033 85.3823C51.5566 85.3823 50.5332 86.3347 50.5332 87.4966C50.5332 88.6586 51.5566 89.611 52.8033 89.611Z" fill="white"/>
<path d="M91.9149 8.08577L73.4567 1.20947L70.1074 10.6192L88.5656 17.4955L91.9149 8.08577Z" stroke="#242938" stroke-width="1.58095"/>
<path d="M80.4525 10.3145L73.4004 1.53345L91.8214 8.23832L80.4525 10.3145Z" fill="#242938"/>
<path d="M20.5742 48.9055L1.14844 51.8579L2.58118 61.7629L22.007 58.8104L20.5742 48.9055Z" stroke="#242938" stroke-width="1.58095"/>
<path d="M11.5316 56.6477L1 52.1524L20.6305 49.219L11.5316 56.6477Z" fill="#242938"/>
<path d="M23.0681 4.12386L12.4993 1L11.0293 6.25723L21.5981 9.36204L23.0681 4.12386Z" stroke="#242938" stroke-width="1.58095"/>
<path d="M16.76 5.76208L13.2246 1.57153L22.249 4.143L16.76 5.76208Z" stroke="#242938" stroke-width="1.58095" stroke-linejoin="round"/>
<path d="M194.608 154.907L168.762 147.307L165.041 160.603L190.886 168.203L194.608 154.907Z" stroke="#242938" stroke-width="1.58095"/>
<path d="M198.292 151.098L188.635 139.745L212.843 147.079L198.292 151.098Z" stroke="#242938" stroke-width="1.58095"/>
<path d="M67.501 44.0294C66.1055 41.0199 65.231 42.2961 64.9705 43.3628C64.6169 44.7723 64.4867 47.82 64.375 49.5343L66.2357 53.0391L52.2246 60.6964L62.1608 73.8204C66.7753 73.8204 72.3203 68.0298 73.3809 63.7821C73.325 63.9917 71.6318 61.1535 71.0178 60.144C70.2735 58.9059 68.8966 47.039 67.501 44.0294Z" fill="#D58B8B"/>
<path d="M150.376 202.698L142.115 176.431L126.262 180.145L129.704 193.365C130.56 194.393 135.007 198.317 138.822 201.46C142.636 204.622 147.976 203.67 150.376 202.698Z" fill="#D58B8B"/>
<path d="M235.002 151.345L212.375 139.802L202.514 153.04L219.967 163.44C221.27 163.669 225.326 160.945 228.899 160.45C233.141 160.164 233.755 153.65 235.002 151.345Z" fill="#D58B8B"/>
<path d="M122.261 169.041L112.846 144.298L117.907 101.954L151.362 82.7346L180.222 119.078L208.672 132.64L210.179 131.821C211.277 131.212 213.175 130.183 213.845 131.459C214.515 132.735 217.287 134.602 218.925 136.888C220.581 139.174 220.432 140.393 219.129 141.574C217.827 142.755 204.337 156.907 203.109 157.726C201.881 158.545 200.373 158.717 199.648 157.783C198.941 156.85 196.243 154.945 195.238 154.183C194.438 153.574 194.475 152.336 194.587 151.802L194.829 150.069L161.224 137.555L148.943 119.497L140.421 144.45L147.101 166.355C148.497 165.593 150.581 169.517 149.818 171.536C149.055 173.555 151.083 176.946 150.246 179.289C149.576 181.155 147.808 181.251 146.99 181.06C138.43 181.289 121.07 181.631 120.009 181.155C118.688 180.565 118.651 173.117 119.619 170.469C120.382 168.374 121.703 168.641 122.261 169.041Z" fill="#242938"/>
<path d="M126.148 170.069C128.586 170.412 134.28 170.907 137.629 170.088C140.978 169.269 144.179 168.126 145.351 167.65" stroke="white" stroke-width="1.58095" stroke-linecap="round"/>
<path d="M204.17 134.659L178.771 123.802M142.432 165.383L136.031 146.869L140.776 132.602M135.863 166.717L131.733 153.117M128.346 166.469L122.652 149.764L124.904 137.307M194.42 145.44L170.473 134.811M200.3 140.431L182.456 133.65" stroke="white" stroke-width="1.58095" stroke-linecap="round"/>
<path d="M196.521 148.774C198.531 147.345 203.053 143.745 204.969 140.812C206.886 137.878 208.467 134.831 209.025 133.65" stroke="white" stroke-width="1.58095" stroke-linecap="round"/>
<path d="M141.314 202.565C145.054 204.241 148.794 203.251 150.19 202.546L152.088 208.718C153.204 211.156 154.972 216.451 153.204 218.051L104.64 217.213C102.872 215.137 105.049 205.765 106.5 204.184C107.933 202.603 113.627 202.489 116.362 201.994C118.539 201.594 124.382 199.136 127.024 197.955C125.014 195.708 121.274 190.984 122.354 190.146C123.693 189.098 131.192 194.241 131.992 195.003C132.792 195.765 136.644 200.47 141.314 202.565Z" stroke="#242938" stroke-width="1.58095"/>
<path d="M104.344 211.536C105.497 212.47 108.288 214.279 110.298 214.108C115.768 213.67 126.598 216.375 130.933 213.594C133.427 211.841 142.358 215.156 144.907 214.66C147.475 214.165 151.42 213.403 153.076 211.346" stroke="#242938" stroke-width="1.58095"/>
<path d="M105.254 208.28C107.226 209.232 111.971 211.061 115.153 210.718C119.153 210.28 122.521 210.394 124.028 210.032C125.536 209.651 127.396 201.803 124.717 199.022" stroke="#242938" stroke-width="1.58095"/>
<path d="M149.986 202.832C148.516 203.384 144.739 204.851 143.939 206.355C143.139 207.86 143.046 212.641 143.437 214.66" stroke="#242938" stroke-width="1.58095"/>
<path d="M231.055 158.279C234.237 155.65 235.112 151.802 235.149 150.221L241.382 151.364C244.006 151.479 249.421 152.317 249.997 154.679L231.744 200.832C229.139 201.46 217.063 192.698 216.374 190.66C215.686 188.622 218.216 183.403 219.035 180.698C219.686 178.527 220.263 172.088 220.468 169.155C217.584 169.936 211.778 171.136 211.537 169.784C211.257 168.088 219.165 163.65 220.189 163.269C221.212 162.869 227.073 161.555 231.055 158.279Z" stroke="#242938" stroke-width="1.58095"/>
<path d="M221.717 195.993C223.057 195.384 225.922 193.688 226.703 191.784C227.69 189.403 232.676 183.574 233.737 182.298C234.798 181.041 236.249 178.755 235.802 172.812C235.43 169.745 242.445 163.174 243.189 160.621C243.934 158.069 245.124 154.126 244.101 151.688" stroke="#242938" stroke-width="1.58095"/>
<path d="M219.316 193.651C221.047 192.298 224.824 188.851 226.015 185.784C227.485 181.955 229.16 178.946 229.532 177.403C229.904 175.86 223.95 170.546 220.303 171.669" stroke="#242938" stroke-width="1.58095"/>
<path d="M235.299 150.545C235.094 152.126 234.629 156.24 235.559 157.65C236.49 159.078 240.602 161.364 242.537 161.936" stroke="#242938" stroke-width="1.58095"/>
<path d="M145.26 106.068C146.655 106.144 151.4 106.83 153.614 107.173C155.419 109.821 161.336 117.878 162.695 121.84C159.234 123.516 149.093 127.535 147.176 127.859C144.776 128.278 141.445 127.04 139.361 126.45C137.705 125.992 137.556 124.526 137.687 123.859C136.086 122.85 136.105 121.592 136.328 121.078C133.128 120.792 132.179 119.592 132.086 119.04C131.9 119.078 131.304 119.078 130.542 118.83C129.574 118.526 129.388 116.716 130.095 116.107C130.802 115.497 131.304 115.707 135.268 114.602C138.431 113.726 140.366 112.487 140.924 111.973C141.408 111.021 142.171 107.935 142.673 106.392C142.99 106.202 143.864 105.992 145.26 106.068Z" fill="#D58B8B"/>
<path d="M141.521 111.706C142.21 111.383 143.829 110.583 144.722 110.087" stroke="#242938" stroke-width="1.58095" stroke-linecap="round"/>
<path d="M132.422 118.964C135.436 118.869 137.818 119.002 141.781 117.173" stroke="#242938" stroke-width="1.58095" stroke-linecap="round"/>
<path d="M138.564 124.145C139.512 124.259 141.894 124.335 143.904 123.783L138.564 124.145ZM136.814 121.135C138.117 121.25 140.908 120.964 142.49 120.164L136.814 121.135Z" stroke="#242938" stroke-width="1.58095" stroke-linecap="round"/>
<path d="M117.331 51.7434C120.047 51.1529 130.467 54.1435 135.342 55.5911C137.054 55.5911 141.911 55.3054 148.125 56.1244C155.903 57.153 162.453 63.5912 164.072 64.9436C165.69 66.296 171.105 74.3914 175.366 76.62C182.4 79.7629 188.893 88.925 193.415 93.2679C197.955 97.6108 195.48 106.659 193.415 108.887C191.35 111.116 179.497 115.649 174.194 117.459C168.891 119.287 167.16 123.306 163.234 122.564C159.308 121.821 152.219 112.659 151.326 111.002C150.433 109.344 150.879 100.811 154.396 101.687C157.206 102.392 160.946 100.601 162.453 99.6109C161.02 99.6109 158.545 93.706 157.466 90.7536C158.006 93.1917 158.657 98.087 156.908 98.087C154.675 97.9537 136.142 101.801 125.778 103.059C122.95 103.516 114.316 102.792 113.479 101.687C112.642 100.601 113.125 89.6298 113.479 84.2773C112.995 86.1821 110.967 90.6583 106.762 93.2679C101.496 96.5442 99.8399 101.687 95.5975 103.039C91.3551 104.411 89.4386 101.668 86.5359 99.5918C83.6145 97.5156 76.0973 96.1061 73.4551 91.306C70.8315 86.5059 62.8862 76.9248 62.0489 74.3533C61.193 71.7818 70.9989 58.6007 72.4503 61.3055C73.6225 63.4579 85.4566 69.7247 91.2248 72.5819C94.0531 72.7152 100.603 71.3818 104.101 64.9246C108.455 56.8864 113.925 52.4863 117.331 51.7434Z" fill="#587291"/>
<path d="M133.668 56.5437C134.468 57.8009 137.036 59.9533 140.906 58.5247" stroke="#242938" stroke-width="1.58095" stroke-linecap="round"/>
<path d="M134.803 59.0391C135.212 59.3438 136.366 59.9534 137.557 59.9534" stroke="#242938" stroke-width="1.58095" stroke-linecap="round"/>
<path d="M154.322 62.1439C155.252 64.982 157.503 67.0582 157.001 73.2488C156.48 79.4394 157.001 81.9918 157.001 86.1252M122.541 53.439C120.103 55.0771 115.303 60.3343 115.507 68.3535C114.837 69.2868 113.609 71.5916 114.13 73.2488M113.479 83.1918C112.623 81.9156 114.037 78.3537 114.13 77.0584" stroke="#242938" stroke-width="1.58095" stroke-linecap="round" stroke-linejoin="round"/>
<path d="M163.049 99.3063C164.054 98.1634 166.975 95.5348 170.492 94.2014C174.902 92.5442 177.339 92.9252 177.897 92.3347" stroke="#242938" stroke-width="1.58095" stroke-linecap="round"/>
<path d="M90.3336 74.0298C89.7195 74.2012 88.2682 75.306 87.4122 78.3727C86.5749 81.4585 85.4213 83.8776 84.9375 84.7157" stroke="#242938" stroke-width="1.58095" stroke-linecap="round"/>
<path d="M90.7423 75.801C90.519 75.9534 90.1097 76.7534 90.1655 78.7154C90.2213 80.6773 90.0725 82.2583 89.998 82.8107" stroke="#242938" stroke-width="1.58095" stroke-linecap="round"/>
<path d="M181.19 91.2872C181.097 91.0396 180.409 90.4491 178.529 90.1253C176.632 89.7824 175.143 89.3252 174.641 89.1348" stroke="#242938" stroke-width="1.58095" stroke-linecap="round"/>
<path d="M119.713 94.335L124.644 96.4493" stroke="#242938" stroke-width="1.58095" stroke-linecap="round"/>
<path d="M148.033 65.2869L150.787 69.9727" stroke="#242938" stroke-width="1.58095" stroke-linecap="round"/>
<path d="M179.814 106.849L182.568 111.535" stroke="#242938" stroke-width="1.58095" stroke-linecap="round"/>
<path d="M174.734 95.6873L179.721 97.6682" stroke="#242938" stroke-width="1.58095" stroke-linecap="round"/>
<path d="M162.473 91.4396L167.348 89.1919" stroke="#242938" stroke-width="1.58095" stroke-linecap="round"/>
<path d="M160.74 72.7917L166.025 73.6108" stroke="#242938" stroke-width="1.58095" stroke-linecap="round"/>
<path d="M172.723 77.7632L170.732 82.849" stroke="#242938" stroke-width="1.58095" stroke-linecap="round"/>
<path d="M98.7429 92.7729L96.752 97.8587" stroke="#242938" stroke-width="1.58095" stroke-linecap="round"/>
<path d="M104.176 82.4871L107.358 86.8871" stroke="#242938" stroke-width="1.58095" stroke-linecap="round"/>
<path d="M102.222 73.2488L98.5566 77.2488" stroke="#242938" stroke-width="1.58095" stroke-linecap="round"/>
<path d="M79.5406 84.0681L75.875 88.0491" stroke="#242938" stroke-width="1.58095" stroke-linecap="round"/>
<path d="M82.3128 72.5061L77.0098 71.7632" stroke="#242938" stroke-width="1.58095" stroke-linecap="round"/>
<path d="M110.335 61.8582L110.205 67.344" stroke="#242938" stroke-width="1.58095" stroke-linecap="round"/>
<path d="M67.5953 71.0583L67.4648 76.5442" stroke="#242938" stroke-width="1.58095" stroke-linecap="round"/>
<path d="M164.891 111.116L168.705 107.269" stroke="#242938" stroke-width="1.58095" stroke-linecap="round"/>
<path d="M125.982 87.23L129.797 83.3823" stroke="#242938" stroke-width="1.58095" stroke-linecap="round"/>
<path d="M139.66 96.4302L143.475 92.5825" stroke="#242938" stroke-width="1.58095" stroke-linecap="round"/>
<path d="M117.908 70.6201L122.653 73.1535" stroke="#242938" stroke-width="1.58095" stroke-linecap="round"/>
<path d="M147.846 81.5728L152.591 84.1061" stroke="#242938" stroke-width="1.58095" stroke-linecap="round"/>
<path d="M136.031 69.9724L140.776 72.5058" stroke="#242938" stroke-width="1.58095" stroke-linecap="round"/>
<path d="M127.641 56.4106L127.957 61.8774" stroke="#242938" stroke-width="1.58095" stroke-linecap="round"/>
<path d="M129.629 44.5434C131.062 44.5434 132.216 43.3624 132.216 41.8957C132.216 40.429 131.062 39.248 129.629 39.248C128.197 39.248 127.043 40.429 127.043 41.8957C127.043 43.3624 128.197 44.5434 129.629 44.5434Z" fill="#242938"/>
<path d="M129.629 49.4198C131.062 49.4198 132.216 48.2389 132.216 46.7722C132.216 45.3055 131.062 44.1245 129.629 44.1245C128.197 44.1245 127.043 45.3055 127.043 46.7722C127.043 48.2389 128.197 49.4198 129.629 49.4198Z" fill="#242938"/>
<path d="M127.043 46.7721C128.476 46.7721 129.63 45.5912 129.63 44.1245C129.63 42.6578 128.476 41.4768 127.043 41.4768C125.611 41.4768 124.457 42.6578 124.457 44.1245C124.457 45.5912 125.611 46.7721 127.043 46.7721Z" fill="#242938"/>
<path d="M149.95 43.7434C149.95 49.8577 145.112 54.8102 139.139 54.8102C129.11 55.8007 128.328 49.8577 128.328 43.7434C128.328 37.629 133.166 32.6765 139.139 32.6765C145.112 32.6956 149.95 37.648 149.95 43.7434Z" fill="#3D98E7"/>
<path d="M139.139 32.6958C134.878 32.6958 131.175 35.2292 129.426 38.9054L149.838 42.2198C149.112 36.8292 144.591 32.6958 139.139 32.6958Z" fill="#587291"/>
<path d="M149.41 42.1243L121.369 38.1624" stroke="#242938" stroke-width="1.58095" stroke-linecap="round"/>
<path d="M144.274 55.7627L144.07 52.4865L134.078 52.0293L133.52 55.096C136.106 60.5628 143.232 57.7627 144.274 55.7627Z" fill="#3D98E7"/>
<path d="M149.299 46.7725C150.825 46.7725 152.053 45.4963 152.053 43.9153C152.053 42.3343 150.825 41.0581 149.299 41.0581C147.773 41.0581 146.545 42.3343 146.545 43.9153C146.545 45.4963 147.773 46.7725 149.299 46.7725Z" fill="#242938"/>
<path d="M152.09 46.7723C152.871 46.7723 153.504 46.1056 153.504 45.2865C153.504 44.4675 152.871 43.8008 152.09 43.8008C151.308 43.8008 150.676 44.4675 150.676 45.2865C150.676 46.1056 151.308 46.7723 152.09 46.7723Z" fill="#242938"/>
<path d="M153.186 47.8007C153.186 49.6483 151.735 51.4198 149.911 51.6865C147.437 52.0674 145.334 49.515 145.334 47.6673C145.334 45.8197 148.088 44.4292 149.911 44.4292C151.716 44.4482 153.186 45.953 153.186 47.8007Z" fill="#242938"/>
<path d="M129.613 42.1246C131.12 42.3341 132.497 41.2294 132.702 39.6484L127.25 38.9055C127.045 40.4865 128.106 41.9151 129.613 42.1246Z" fill="#242938"/>
<path d="M133.149 41.7436C133.93 41.8007 134.619 41.1912 134.674 40.3721L131.846 40.1626C131.772 40.9626 132.367 41.6864 133.149 41.7436Z" fill="#242938"/>
<path d="M146.172 48.3532C147.251 48.7151 148.498 47.9151 148.926 46.5627C149.354 45.2103 148.833 43.8198 147.735 43.4579C146.656 43.0959 145.409 43.896 144.981 45.2484C144.553 46.6008 145.074 47.9913 146.172 48.3532Z" fill="#0E76D0"/>
<path d="M145.539 45.8962C145.911 45.2676 146.916 44.5247 147.846 44.6962" stroke="#242938" stroke-width="1.58095" stroke-linecap="round"/>
<path d="M147.252 44.7913C147.364 44.9627 147.587 45.5341 147.625 45.9151" stroke="#242938" stroke-width="1.58095" stroke-linecap="round"/>
<path d="M134.32 48.6008L136.646 45.0959L137.316 49.1341L134.32 48.6008Z" fill="#0E76D0"/>
<path d="M136.384 45.3435L134.281 48.3912L137.091 48.8293" stroke="#242938" stroke-width="1.58095" stroke-linecap="round"/>
<path d="M135.975 50.9628C136.347 50.9818 137.259 50.9056 138.003 50.5437" stroke="#242938" stroke-width="1.58095" stroke-linecap="round"/>
<path d="M138.936 42.2197C139.308 42.2007 140.219 42.2769 140.964 42.6388" stroke="#242938" stroke-width="1.58095" stroke-linecap="round"/>
<path d="M133.184 42.3911C132.812 42.3721 131.901 42.4483 131.156 42.8102" stroke="#242938" stroke-width="1.58095" stroke-linecap="round"/>
<path d="M136.59 54.4868C137.483 54.6582 139.065 54.7725 140.274 53.7439" stroke="#242938" stroke-width="1.58095" stroke-linecap="round"/>
<path d="M132.831 45.5341C133.203 45.5341 133.52 45.2102 133.52 44.8293C133.52 44.4483 133.203 44.1245 132.831 44.1245C132.459 44.1245 132.143 44.4483 132.143 44.8293C132.143 45.2102 132.44 45.5341 132.831 45.5341Z" fill="#242938"/>
<path d="M139.624 45.5341C139.996 45.5341 140.312 45.2102 140.312 44.8293C140.312 44.4483 139.996 44.1245 139.624 44.1245C139.252 44.1245 138.936 44.4483 138.936 44.8293C138.936 45.2102 139.252 45.5341 139.624 45.5341Z" fill="#242938"/>
<path d="M140.553 49.4961C141.316 49.4961 141.93 48.8675 141.93 48.0866C141.93 47.3056 141.316 46.677 140.553 46.677C139.79 46.677 139.176 47.3056 139.176 48.0866C139.176 48.8675 139.79 49.4961 140.553 49.4961Z" fill="#0E76D0"/>
<path d="M131.734 48.7532C132.497 48.7532 133.111 48.1246 133.111 47.3436C133.111 46.5627 132.497 45.9341 131.734 45.9341C130.971 45.9341 130.357 46.5627 130.357 47.3436C130.357 48.1246 130.971 48.7532 131.734 48.7532Z" fill="#0E76D0"/>
<path d="M48.3743 64.7155L32.3164 30.5435L51.2212 20.1243L68.7491 53.4772L48.3743 64.7155Z" fill="white"/>
<path d="M45.8607 64.2011L29.8027 30.0291L48.7075 19.6099L66.2354 52.9628L45.8607 64.2011Z" stroke="#242938" stroke-width="1.58095"/>
<path d="M36.8918 30.2767L35.1055 26.7528L42.8274 22.4861L44.5207 25.7623L36.8918 30.2767Z" fill="#242938"/>
<path d="M54.5514 39.7627C47.1086 36.1436 43.4244 42.1818 42.5312 45.6485C44.3361 46.4105 48.2994 47.6486 50.8858 45.9914C53.4908 44.3152 54.5142 41.0961 54.5514 39.7627Z" fill="#F6F6F7"/>
<path d="M49.4521 45.8009C51.1453 45.5151 52.299 43.877 52.0199 42.1437C51.7408 40.4103 50.1406 39.2293 48.4473 39.515C46.7541 39.8008 45.6004 41.4389 45.8795 43.1722C46.1586 44.9056 47.7589 46.0866 49.4521 45.8009Z" fill="#242938"/>
<path d="M42.4379 44.5627L40.2051 43.7437" stroke="#242938" stroke-width="1.58095" stroke-linecap="round"/>
<path d="M43.5546 42.1436L41.5078 40.9246" stroke="#242938" stroke-width="1.58095" stroke-linecap="round"/>
<path d="M45.6746 39.8386L44 38.1052" stroke="#242938" stroke-width="1.58095" stroke-linecap="round"/>
<path d="M48.4295 38.4103L47.7969 36.0674" stroke="#242938" stroke-width="1.58095" stroke-linecap="round"/>
<path d="M51.9824 38.2767L52.2991 35.8767" stroke="#242938" stroke-width="1.58095" stroke-linecap="round"/>
<path d="M54.4395 39.096L55.407 36.8865" stroke="#242938" stroke-width="1.58095" stroke-linecap="round"/>
<path d="M129.629 44.5434C131.062 44.5434 132.216 43.3624 132.216 41.8957C132.216 40.429 131.062 39.248 129.629 39.248C128.197 39.248 127.043 40.429 127.043 41.8957C127.043 43.3624 128.197 44.5434 129.629 44.5434Z" fill="#242938"/>
<path d="M129.629 49.4198C131.062 49.4198 132.216 48.2389 132.216 46.7722C132.216 45.3055 131.062 44.1245 129.629 44.1245C128.197 44.1245 127.043 45.3055 127.043 46.7722C127.043 48.2389 128.197 49.4198 129.629 49.4198Z" fill="#242938"/>
<path d="M127.043 46.7721C128.476 46.7721 129.63 45.5912 129.63 44.1245C129.63 42.6578 128.476 41.4768 127.043 41.4768C125.611 41.4768 124.457 42.6578 124.457 44.1245C124.457 45.5912 125.611 46.7721 127.043 46.7721Z" fill="#242938"/>
<path d="M149.95 43.7434C149.95 49.8577 145.112 54.8102 139.139 54.8102C129.11 55.8007 128.328 49.8577 128.328 43.7434C128.328 37.629 133.166 32.6765 139.139 32.6765C145.112 32.6956 149.95 37.648 149.95 43.7434Z" fill="#D58B8B"/>
<path d="M139.139 32.6958C134.878 32.6958 131.175 35.2292 129.426 38.9054L149.838 42.2198C149.112 36.8292 144.591 32.6958 139.139 32.6958Z" fill="#587291"/>
<path d="M149.41 42.1243L121.369 38.1624" stroke="#242938" stroke-width="1.58095" stroke-linecap="round"/>
<path d="M144.274 55.7627L144.07 52.4865L134.078 52.0293L133.52 55.096C136.106 60.5628 143.232 57.7627 144.274 55.7627Z" fill="#D58B8B"/>
<path d="M149.299 46.7725C150.825 46.7725 152.053 45.4963 152.053 43.9153C152.053 42.3343 150.825 41.0581 149.299 41.0581C147.773 41.0581 146.545 42.3343 146.545 43.9153C146.545 45.4963 147.773 46.7725 149.299 46.7725Z" fill="#242938"/>
<path d="M152.09 46.7723C152.871 46.7723 153.504 46.1056 153.504 45.2865C153.504 44.4675 152.871 43.8008 152.09 43.8008C151.308 43.8008 150.676 44.4675 150.676 45.2865C150.676 46.1056 151.308 46.7723 152.09 46.7723Z" fill="#242938"/>
<path d="M153.186 47.8007C153.186 49.6483 151.735 51.4198 149.911 51.6865C147.437 52.0674 145.334 49.515 145.334 47.6673C145.334 45.8197 148.088 44.4292 149.911 44.4292C151.716 44.4482 153.186 45.953 153.186 47.8007Z" fill="#242938"/>
<path d="M129.613 42.1246C131.12 42.3341 132.497 41.2294 132.702 39.6484L127.25 38.9055C127.045 40.4865 128.106 41.9151 129.613 42.1246Z" fill="#242938"/>
<path d="M133.149 41.7436C133.93 41.8007 134.619 41.1912 134.674 40.3721L131.846 40.1626C131.772 40.9626 132.367 41.6864 133.149 41.7436Z" fill="#242938"/>
<path d="M146.172 48.3532C147.251 48.7151 148.498 47.9151 148.926 46.5627C149.354 45.2103 148.833 43.8198 147.735 43.4579C146.656 43.0959 145.409 43.896 144.981 45.2484C144.553 46.6008 145.074 47.9913 146.172 48.3532Z" fill="#AD5B5B"/>
<path d="M145.539 45.8962C145.911 45.2676 146.916 44.5247 147.846 44.6962" stroke="#242938" stroke-width="1.58095" stroke-linecap="round"/>
<path d="M147.252 44.7913C147.364 44.9627 147.587 45.5341 147.625 45.9151" stroke="#242938" stroke-width="1.58095" stroke-linecap="round"/>
<path d="M134.32 48.6008L136.646 45.0959L137.316 49.1341L134.32 48.6008Z" fill="#AD5B5B"/>
<path d="M136.384 45.3435L134.281 48.3912L137.091 48.8293" stroke="#242938" stroke-width="1.58095" stroke-linecap="round"/>
<path d="M135.975 50.9628C136.347 50.9818 137.259 50.9056 138.003 50.5437" stroke="#242938" stroke-width="1.58095" stroke-linecap="round"/>
<path d="M138.936 42.2197C139.308 42.2007 140.219 42.2769 140.964 42.6388" stroke="#242938" stroke-width="1.58095" stroke-linecap="round"/>
<path d="M133.184 42.3911C132.812 42.3721 131.901 42.4483 131.156 42.8102" stroke="#242938" stroke-width="1.58095" stroke-linecap="round"/>
<path d="M136.59 54.4868C137.483 54.6582 139.065 54.7725 140.274 53.7439" stroke="#242938" stroke-width="1.58095" stroke-linecap="round"/>
<path d="M132.831 45.5341C133.203 45.5341 133.52 45.2102 133.52 44.8293C133.52 44.4483 133.203 44.1245 132.831 44.1245C132.459 44.1245 132.143 44.4483 132.143 44.8293C132.143 45.2102 132.44 45.5341 132.831 45.5341Z" fill="#242938"/>
<path d="M139.624 45.5341C139.996 45.5341 140.312 45.2102 140.312 44.8293C140.312 44.4483 139.996 44.1245 139.624 44.1245C139.252 44.1245 138.936 44.4483 138.936 44.8293C138.936 45.2102 139.252 45.5341 139.624 45.5341Z" fill="#242938"/>
<path d="M140.553 49.4961C141.316 49.4961 141.93 48.8675 141.93 48.0866C141.93 47.3056 141.316 46.677 140.553 46.677C139.79 46.677 139.176 47.3056 139.176 48.0866C139.176 48.8675 139.79 49.4961 140.553 49.4961Z" fill="#AD5B5B"/>
<path d="M131.734 48.7532C132.497 48.7532 133.111 48.1246 133.111 47.3436C133.111 46.5627 132.497 45.9341 131.734 45.9341C130.971 45.9341 130.357 46.5627 130.357 47.3436C130.357 48.1246 130.971 48.7532 131.734 48.7532Z" fill="#AD5B5B"/>
</svg>
