<svg width="375" height="440" viewBox="0 0 375 440" fill="none" xmlns="http://www.w3.org/2000/svg">
<path d="M154.551 55.0128H0.733094C-0.700019 50.8742 -1.00778 41.3401 9.23276 36.3125C19.4733 31.2849 28.0479 38.4074 31.0559 42.597C32.0354 29.2615 38.3593 2.10013 55.8176 0.138047C73.2772 -1.8239 78.7622 17.6123 79.3215 27.5754C95.3534 -4.92007 109.365 19.8603 114.365 36.3125C131.069 27.8514 148.116 45.254 154.551 55.0128Z" fill="white"/>
<path d="M72.2578 48.1526H143.069M72.2578 40.2271H117.585H72.2578Z" stroke="#242938" stroke-width="2.5" stroke-linecap="round"/>
<path d="M186.299 247.001L190.983 125.591H336.05V242.034L186.299 247.001Z" stroke="#242938" stroke-width="2"/>
<path d="M328.017 199.955H270.795" stroke="#242938" stroke-width="2" stroke-linecap="round"/>
<path d="M300.341 164.861H243.119" stroke="#242938" stroke-width="2" stroke-linecap="round"/>
<path d="M328.017 192.848H305.951" stroke="#242938" stroke-width="2" stroke-linecap="round"/>
<path d="M89.0312 238.539H146.254" stroke="#242938" stroke-width="2" stroke-linecap="round"/>
<path d="M89.0312 231.432H111.097" stroke="#242938" stroke-width="2" stroke-linecap="round"/>
<path d="M336.799 124.842H190.264V149.253H336.799V124.842Z" fill="#242938"/>
<path d="M201.796 143.284C205.24 143.284 208.032 140.492 208.032 137.048C208.032 133.604 205.24 130.812 201.796 130.812C198.352 130.812 195.561 133.604 195.561 137.048C195.561 140.492 198.352 143.284 201.796 143.284Z" fill="white"/>
<path d="M218.009 143.284C221.453 143.284 224.245 140.492 224.245 137.048C224.245 133.604 221.453 130.812 218.009 130.812C214.565 130.812 211.773 133.604 211.773 137.048C211.773 140.492 214.565 143.284 218.009 143.284Z" fill="white"/>
<path d="M234.222 143.284C237.666 143.284 240.458 140.492 240.458 137.048C240.458 133.604 237.666 130.812 234.222 130.812C230.778 130.812 227.986 133.604 227.986 137.048C227.986 140.492 230.778 143.284 234.222 143.284Z" fill="white"/>
<path d="M78.0586 272.834L81.8719 211.236H201.128V270.291L78.0586 272.834Z" stroke="#242938" stroke-width="2"/>
<path d="M201.875 210.489H81.168V223.021H201.875V210.489Z" fill="#242938"/>
<path d="M89.0297 219.963C90.9576 219.963 92.5204 218.54 92.5204 216.784C92.5204 215.028 90.9576 213.605 89.0297 213.605C87.1019 213.605 85.5391 215.028 85.5391 216.784C85.5391 218.54 87.1019 219.963 89.0297 219.963Z" fill="white"/>
<path d="M98.1936 219.963C100.156 219.963 101.747 218.54 101.747 216.784C101.747 215.028 100.156 213.605 98.1936 213.605C96.2314 213.605 94.6406 215.028 94.6406 216.784C94.6406 218.54 96.2314 219.963 98.1936 219.963Z" fill="white"/>
<path d="M107.356 219.963C109.284 219.963 110.847 218.54 110.847 216.784C110.847 215.028 109.284 213.605 107.356 213.605C105.428 213.605 103.865 215.028 103.865 216.784C103.865 218.54 105.428 219.963 107.356 219.963Z" fill="white"/>
<path d="M168.567 330.044C197.003 330.044 220.055 306.992 220.055 278.556C220.055 250.121 197.003 227.069 168.567 227.069C140.132 227.069 117.08 250.121 117.08 278.556C117.08 306.992 140.132 330.044 168.567 330.044Z" fill="white"/>
<path d="M165.577 282.547C172.669 282.547 178.418 276.798 178.418 269.706C178.418 262.614 172.669 256.865 165.577 256.865C158.485 256.865 152.736 262.614 152.736 269.706C152.736 276.798 158.485 282.547 165.577 282.547Z" fill="#242938"/>
<path d="M164.641 276.998C165.367 277.144 167.009 277.248 167.757 276.5" stroke="white" stroke-width="2" stroke-linecap="round"/>
<path d="M168.568 263.326C169.295 263.18 170.937 263.076 171.685 263.824" stroke="white" stroke-width="2" stroke-linecap="round"/>
<path d="M160.339 263.326C159.611 263.18 157.971 263.076 157.223 263.824" stroke="white" stroke-width="2" stroke-linecap="round"/>
<path d="M164.766 269.643L161.961 273.507H164.766" stroke="white" stroke-width="2" stroke-linecap="round"/>
<path d="M121.223 297.818C127.64 314.759 144.017 329.109 163.207 329.109C182.397 329.109 198.773 314.759 205.191 297.818C198.614 292.52 181.009 281.923 163.207 281.923C145.405 281.923 127.799 292.52 121.223 297.818Z" fill="#242938"/>
<path d="M140.082 320.943L143.822 317.39L142.825 322.252" stroke="white" stroke-width="2" stroke-linecap="round"/>
<path d="M169.566 269.706C170.117 269.706 170.563 269.259 170.563 268.708C170.563 268.157 170.117 267.711 169.566 267.711C169.015 267.711 168.568 268.157 168.568 268.708C168.568 269.259 169.015 269.706 169.566 269.706Z" fill="white"/>
<path d="M159.343 269.581C159.894 269.581 160.34 269.135 160.34 268.584C160.34 268.033 159.894 267.586 159.343 267.586C158.792 267.586 158.346 268.033 158.346 268.584C158.346 269.135 158.792 269.581 159.343 269.581Z" fill="white"/>
<path d="M167.588 97.3188L139.172 86.9731L134.018 101.13L162.433 111.475L167.588 97.3188Z" stroke="#242938" stroke-width="2"/>
<path d="M149.93 100.658L139.084 87.4429L167.446 97.5409L149.93 100.658Z" fill="#242938"/>
<path d="M57.7237 158.731L27.8105 163.168L30.0208 178.07L59.9339 173.634L57.7237 158.731Z" stroke="#242938" stroke-width="2"/>
<path d="M43.7878 170.077L27.5703 163.303L57.802 158.877L43.7878 170.077Z" fill="#242938"/>
<path d="M61.565 91.3331L45.2754 86.6597L43.0058 94.5703L59.2955 99.2438L61.565 91.3331Z" stroke="#242938" stroke-width="2"/>
<path d="M51.8426 93.808L46.3945 87.5049L60.2949 91.3695L51.8426 93.808Z" stroke="#242938" stroke-width="2" stroke-linejoin="bevel"/>
<path d="M355.23 306.154L315.424 294.733L309.685 314.737L349.491 326.157L355.23 306.154Z" stroke="#242938" stroke-width="2"/>
<path d="M331.41 312.47L316.547 295.387L353.822 306.42L331.41 312.47Z" stroke="#242938" stroke-width="2" stroke-linejoin="bevel"/>
<path d="M168.756 389.199L188.952 352.921L168.195 338.896L157.286 356.349C157.057 358.365 157.423 367.394 157.972 374.924C158.521 382.454 165.181 387.494 168.756 389.199Z" fill="#D58B8B"/>
<path d="M326.136 392.928L310.241 350.74L286.262 357.987L292.362 374.55C293.78 376 300.153 379.723 307.259 388.824C312.904 396.055 322.56 394.625 326.136 392.928Z" fill="#D58B8B"/>
<path d="M166.136 322.626L204.284 237.417L266.867 229.251L309.316 337.088H311.934C313.866 337.088 317.17 337.088 317.17 339.269C317.17 341.451 319.601 345.939 320.224 350.178C320.848 354.416 319.788 355.912 317.17 356.536C314.552 357.159 286.19 366.135 283.946 366.322C281.702 366.509 279.521 365.636 279.209 363.891C278.897 362.146 276.591 357.658 275.781 355.912C275.133 354.516 276.05 352.92 276.591 352.297L278.149 350.178L237.508 276.313L201.791 337.088C204.222 337.088 204.284 343.82 201.791 345.939C199.298 348.058 199.672 354.042 196.867 356.536C194.623 358.53 192.149 357.367 191.194 356.536C179.413 350.635 155.577 338.484 154.48 337.088C153.109 335.342 158.345 325.431 161.524 322.626C164.067 320.382 165.658 321.691 166.136 322.626Z" fill="#242938"/>
<path d="M170.688 326.802C173.742 329.025 181.135 333.809 186.271 335.155C191.407 336.501 196.556 337.295 198.488 337.524" stroke="white" stroke-width="2" stroke-linecap="round"/>
<path d="M301.774 336.464L280.892 279.242M196.119 332.413L219.618 289.029L196.119 332.413ZM186.27 329.421L196.119 311.469L186.27 329.421ZM176.234 323.624L192.254 282.421L176.234 323.624ZM280.892 343.695L262.504 309.1L280.892 343.695ZM292.424 341.326L283.635 317.453L292.424 341.326Z" stroke="white" stroke-width="2" stroke-linecap="round"/>
<path d="M281.391 349.647C285.143 349.209 293.819 347.71 298.507 345.216C303.195 342.723 307.517 339.813 309.092 338.671" stroke="white" stroke-width="2" stroke-linecap="round"/>
<path d="M129.987 151.372C127.826 146.843 126.497 148.775 126.087 150.368C125.538 152.503 125.344 157.084 125.177 159.663L128.052 164.924L106.473 176.455L121.778 196.193C128.88 196.193 137.414 187.488 139.059 181.099C138.98 181.403 136.373 177.138 135.428 175.638C134.248 173.764 132.147 155.9 129.987 151.372Z" fill="#D58B8B"/>
<path d="M206.716 162.99C210.905 162.092 226.953 166.605 234.455 168.787C237.093 168.787 244.578 168.351 254.152 169.597C266.12 171.156 276.218 180.817 278.711 182.874C281.205 184.931 289.557 197.086 296.102 200.452C306.948 205.19 316.922 218.965 323.903 225.51C330.884 232.055 327.082 245.644 323.903 249.01C320.724 252.376 302.46 259.17 294.295 261.913C286.129 264.656 283.449 270.702 277.402 269.58C271.356 268.458 260.448 254.682 259.076 252.189C257.705 249.696 258.391 236.855 263.814 238.164C268.152 239.211 273.89 236.522 276.218 235.047C274.024 235.047 270.192 226.155 268.551 221.708C269.381 225.386 270.371 232.741 267.678 232.741C264.238 232.542 235.701 238.33 219.744 240.221C215.381 240.907 202.091 239.81 200.795 238.164C199.498 236.518 200.254 220.025 200.795 211.984C200.047 214.851 196.93 221.571 190.447 225.51C182.344 230.435 179.788 238.164 173.243 240.221C166.698 242.278 163.769 238.164 159.281 235.047C154.793 231.931 143.199 229.811 139.147 222.581C135.095 215.35 122.878 200.951 121.569 197.086C120.26 193.222 135.345 173.4 137.589 177.451C139.384 180.693 157.618 190.105 166.511 194.406C170.875 194.614 180.948 192.598 186.333 182.874C193.065 170.719 201.48 164.112 206.716 162.99Z" fill="#587291"/>
<path d="M231.898 170.221C233.124 172.112 237.072 175.357 243.056 173.213" stroke="#242938" stroke-width="2" stroke-linecap="round"/>
<path d="M233.645 173.961C234.288 174.418 236.038 175.332 237.883 175.332" stroke="#242938" stroke-width="2" stroke-linecap="round"/>
<path d="M214.757 165.546C211.017 167.998 203.612 175.919 203.911 187.986C202.872 189.399 200.994 192.848 201.792 195.342M263.689 178.636C265.123 182.896 268.601 186.017 267.803 195.342C267.005 204.667 267.803 208.494 267.803 214.727M200.795 210.302C199.486 208.369 201.643 203.021 201.792 201.076L200.795 210.302Z" stroke="#242938" stroke-width="2" stroke-linecap="round"/>
<path d="M277.152 234.549C278.711 232.825 283.186 228.877 288.622 226.882C295.416 224.389 299.156 224.95 300.029 224.077" stroke="#242938" stroke-width="2" stroke-linecap="round"/>
<path d="M165.14 196.526C164.184 196.775 161.948 198.433 160.652 203.071C159.355 207.708 157.576 211.361 156.85 212.608" stroke="#242938" stroke-width="2" stroke-linecap="round"/>
<path d="M165.778 199.171C165.444 199.4 164.795 200.594 164.883 203.548C164.97 206.503 164.749 208.89 164.627 209.713" stroke="#242938" stroke-width="2" stroke-linecap="round"/>
<path d="M305.077 222.472C304.922 222.098 303.881 221.222 300.97 220.711C298.059 220.2 295.766 219.501 294.984 219.215" stroke="#242938" stroke-width="2" stroke-linecap="round"/>
<path d="M210.395 227.069L217.999 230.248" stroke="#242938" stroke-width="2" stroke-linecap="round"/>
<path d="M254.021 183.363L258.269 190.427" stroke="#242938" stroke-width="2" stroke-linecap="round"/>
<path d="M302.971 245.894L307.218 252.958" stroke="#242938" stroke-width="2" stroke-linecap="round"/>
<path d="M295.145 229.105L302.825 232.097" stroke="#242938" stroke-width="2" stroke-linecap="round"/>
<path d="M276.238 222.719L283.751 219.328" stroke="#242938" stroke-width="2" stroke-linecap="round"/>
<path d="M273.594 194.66L281.742 195.899" stroke="#242938" stroke-width="2" stroke-linecap="round"/>
<path d="M292.049 202.136L288.975 209.783" stroke="#242938" stroke-width="2" stroke-linecap="round"/>
<path d="M178.104 224.701L175.029 232.348" stroke="#242938" stroke-width="2" stroke-linecap="round"/>
<path d="M186.461 209.253L191.359 215.881" stroke="#242938" stroke-width="2" stroke-linecap="round"/>
<path d="M183.45 195.343L177.803 201.347" stroke="#242938" stroke-width="2" stroke-linecap="round"/>
<path d="M148.533 211.605L142.887 217.608" stroke="#242938" stroke-width="2" stroke-linecap="round"/>
<path d="M152.786 194.223L144.619 193.103" stroke="#242938" stroke-width="2" stroke-linecap="round"/>
<path d="M195.966 178.2L195.752 186.439" stroke="#242938" stroke-width="2" stroke-linecap="round"/>
<path d="M130.142 192.038L129.928 200.277" stroke="#242938" stroke-width="2" stroke-linecap="round"/>
<path d="M279.967 252.317L285.84 246.535" stroke="#242938" stroke-width="2" stroke-linecap="round"/>
<path d="M220.055 216.379L225.928 210.597" stroke="#242938" stroke-width="2" stroke-linecap="round"/>
<path d="M241.125 230.217L246.998 224.435" stroke="#242938" stroke-width="2" stroke-linecap="round"/>
<path d="M207.617 191.391L214.931 195.192" stroke="#242938" stroke-width="2" stroke-linecap="round"/>
<path d="M253.73 207.871L261.045 211.672" stroke="#242938" stroke-width="2" stroke-linecap="round"/>
<path d="M235.529 190.417L242.843 194.219" stroke="#242938" stroke-width="2" stroke-linecap="round"/>
<path d="M222.613 170.002L223.094 178.231" stroke="#242938" stroke-width="2" stroke-linecap="round"/>
<path d="M225.665 152.144C227.868 152.144 229.654 150.358 229.654 148.155C229.654 145.952 227.868 144.166 225.665 144.166C223.462 144.166 221.676 145.952 221.676 148.155C221.676 150.358 223.462 152.144 225.665 152.144Z" fill="#242938"/>
<path d="M225.665 159.5C227.868 159.5 229.654 157.714 229.654 155.511C229.654 153.308 227.868 151.521 225.665 151.521C223.462 151.521 221.676 153.308 221.676 155.511C221.676 157.714 223.462 159.5 225.665 159.5Z" fill="#242938"/>
<path d="M221.677 155.511C223.88 155.511 225.666 153.725 225.666 151.522C225.666 149.318 223.88 147.532 221.677 147.532C219.474 147.532 217.688 149.318 217.688 151.522C217.688 153.725 219.474 155.511 221.677 155.511Z" fill="#242938"/>
<path d="M256.956 150.96C256.956 160.152 249.505 167.603 240.313 167.603C224.854 169.099 223.67 160.152 223.67 150.96C223.67 141.769 231.121 134.317 240.313 134.317C249.505 134.317 256.956 141.769 256.956 150.96Z" fill="#D58B8B"/>
<path d="M240.315 134.317C233.738 134.317 228.054 138.131 225.35 143.667L256.799 148.654C255.676 140.554 248.723 134.317 240.315 134.317Z" fill="#587291"/>
<path d="M256.146 148.529L212.949 142.545" stroke="#242938" stroke-width="2" stroke-linecap="round"/>
<path d="M248.231 169.037L247.919 164.112L232.523 163.427L231.65 168.039C235.64 176.267 246.61 172.029 248.231 169.037Z" fill="#D58B8B"/>
<path d="M255.959 155.51C258.3 155.51 260.198 153.585 260.198 151.209C260.198 148.834 258.3 146.908 255.959 146.908C253.618 146.908 251.721 148.834 251.721 151.209C251.721 153.585 253.618 155.51 255.959 155.51Z" fill="#242938"/>
<path d="M260.26 155.51C261.465 155.51 262.441 154.506 262.441 153.266C262.441 152.027 261.465 151.022 260.26 151.022C259.055 151.022 258.078 152.027 258.078 153.266C258.078 154.506 259.055 155.51 260.26 155.51Z" fill="#242938"/>
<path d="M261.944 157.069C261.944 159.858 259.7 162.514 256.895 162.928C253.093 163.489 249.852 159.671 249.852 156.882C249.852 154.093 254.106 152.02 256.895 152.02C259.683 152.02 261.944 154.28 261.944 157.069Z" fill="#242938"/>
<path d="M225.634 148.511C227.955 148.817 230.088 147.155 230.398 144.8L221.993 143.694C221.683 146.049 223.313 148.206 225.634 148.511Z" fill="#242938"/>
<path d="M231.083 147.937C232.284 148.026 233.333 147.097 233.425 145.861L229.073 145.537C228.981 146.773 229.881 147.847 231.083 147.937Z" fill="#242938"/>
<path d="M251.135 157.882C252.809 158.432 254.707 157.23 255.375 155.198C256.043 153.165 255.228 151.072 253.554 150.522C251.88 149.972 249.982 151.173 249.314 153.206C248.646 155.238 249.462 157.332 251.135 157.882Z" fill="#AD5B5B"/>
<path d="M250.162 154.202C250.723 153.267 252.281 152.145 253.715 152.394" stroke="#242938" stroke-width="2" stroke-linecap="round"/>
<path d="M252.801 152.536C252.97 152.796 253.326 153.654 253.38 154.238" stroke="#242938" stroke-width="2" stroke-linecap="round"/>
<path d="M232.896 158.254L236.464 152.981L237.49 159.054L232.896 158.254Z" fill="#AD5B5B"/>
<path d="M236.088 153.362L232.861 157.949L237.185 158.618" stroke="#242938" stroke-width="2" stroke-linecap="round"/>
<path d="M235.451 161.806C236.012 161.827 237.421 161.731 238.568 161.183" stroke="#242938" stroke-width="2" stroke-linecap="round"/>
<path d="M240.002 148.657C240.563 148.636 241.972 148.732 243.119 149.28" stroke="#242938" stroke-width="2" stroke-linecap="round"/>
<path d="M231.152 148.906C230.591 148.885 229.182 148.981 228.035 149.529" stroke="#242938" stroke-width="2" stroke-linecap="round"/>
<path d="M236.387 167.104C237.758 167.354 240.189 167.541 242.059 165.982" stroke="#242938" stroke-width="2" stroke-linecap="round"/>
<path d="M230.589 153.641C231.174 153.641 231.649 153.166 231.649 152.581C231.649 151.996 231.174 151.521 230.589 151.521C230.004 151.521 229.529 151.996 229.529 152.581C229.529 153.166 230.004 153.641 230.589 153.641Z" fill="#242938"/>
<path d="M241.062 153.641C241.647 153.641 242.121 153.166 242.121 152.581C242.121 151.996 241.647 151.521 241.062 151.521C240.476 151.521 240.002 151.996 240.002 152.581C240.002 153.166 240.476 153.641 241.062 153.641Z" fill="#242938"/>
<path d="M242.487 159.609C243.653 159.609 244.598 158.663 244.598 157.497C244.598 156.331 243.653 155.386 242.487 155.386C241.32 155.386 240.375 156.331 240.375 157.497C240.375 158.663 241.32 159.609 242.487 159.609Z" fill="#AD5B5B"/>
<path d="M228.899 158.488C230.065 158.488 231.01 157.542 231.01 156.376C231.01 155.21 230.065 154.265 228.899 154.265C227.732 154.265 226.787 155.21 226.787 156.376C226.787 157.542 227.732 158.488 228.899 158.488Z" fill="#AD5B5B"/>
<path d="M159.405 378.851C161.499 384.785 166.511 387.973 168.755 388.824L163.955 397.302C162.438 401.063 158.495 408.497 154.855 408.148L104.738 352.609C105.175 348.495 117.766 341.326 121.007 341.326C124.249 341.326 130.358 347.622 133.786 350.178C136.529 352.222 145.359 356.265 149.432 358.032C149.806 353.46 151.065 344.405 153.109 344.755C155.665 345.191 157.909 358.904 157.909 360.587C157.909 362.27 156.787 371.433 159.405 378.851Z" stroke="#242938" stroke-width="2"/>
<path d="M110.66 346.438C110.847 348.681 111.795 353.693 114.088 355.787C120.326 361.482 128.737 376.452 136.342 378.477C140.892 379.474 146.627 392.938 149.868 395.307C153.11 397.675 158.096 401.353 162.086 401.104" stroke="#242938" stroke-width="2"/>
<path d="M115.211 344.131C116.229 347.332 119.2 354.541 122.94 357.782C127.616 361.834 131.044 365.761 133.039 367.07C135.033 368.379 145.63 362.395 145.879 356.536" stroke="#242938" stroke-width="2"/>
<path d="M168.195 388.887C166.054 387.806 160.466 385.06 157.972 385.708C155.479 386.356 150.118 391.172 148.311 393.687" stroke="#242938" stroke-width="2"/>
<path d="M312.32 392.413C317.816 395.474 323.683 394.547 325.93 393.699L327.942 403.231C329.295 407.055 331.259 415.238 328.3 417.384H253.404C251.008 414.012 256.27 391.843 258.7 389.697C261.129 387.552 269.876 388.229 274.137 387.875C277.545 387.592 286.842 384.778 291.063 383.407C288.318 379.733 283.269 372.112 285.033 371.02C287.237 369.656 297.996 378.45 299.11 379.711C300.224 380.973 305.447 388.584 312.32 392.413Z" stroke="#242938" stroke-width="2"/>
<path d="M254.326 400.377C255.952 401.935 259.979 405.066 263.084 405.117C266.966 405.182 277.99 409.003 280.369 409.813C282.748 410.623 286.762 411.402 294.783 407.397C298.855 405.132 312.064 411.43 316.062 411.06C320.059 410.689 326.231 410.146 329.058 407.318" stroke="#242938" stroke-width="2"/>
<path d="M256.211 395.637C259.092 397.361 266.092 400.8 271.041 400.754C277.227 400.696 282.396 401.371 284.757 401.033C287.12 400.694 291.103 389.195 287.411 384.637" stroke="#242938" stroke-width="2"/>
<path d="M325.549 394.118C323.23 394.724 317.222 396.364 315.782 398.501C314.342 400.637 313.511 407.795 313.82 410.877" stroke="#242938" stroke-width="2"/>
<path d="M96.6558 181.737L71.9258 130.336L101.035 114.672L128.036 164.852L96.6558 181.737Z" stroke="#242938" stroke-width="2"/>
<path d="M82.8599 130.702L80.1172 125.404L92.0229 118.983L94.6409 123.908L82.8599 130.702Z" fill="#242938"/>
<path d="M110.033 144.961C98.5627 139.53 92.9076 148.6 91.5137 153.813C94.3016 154.951 100.391 156.814 104.393 154.318C108.396 151.822 109.983 146.969 110.033 144.961Z" fill="white"/>
<path d="M102.187 154.047C104.803 153.62 106.578 151.153 106.151 148.537C105.724 145.921 103.257 144.146 100.641 144.573C98.025 145 96.2504 147.467 96.6774 150.083C97.1043 152.699 99.5711 154.474 102.187 154.047Z" fill="#242938"/>
<path d="M91.388 152.175L87.9453 150.945" stroke="#242938" stroke-width="2" stroke-linecap="round"/>
<path d="M93.1005 148.536L89.9414 146.696" stroke="#242938" stroke-width="2" stroke-linecap="round"/>
<path d="M96.364 145.088L93.7988 142.483" stroke="#242938" stroke-width="2" stroke-linecap="round"/>
<path d="M100.606 142.916L99.6406 139.39" stroke="#242938" stroke-width="2" stroke-linecap="round"/>
<path d="M106.086 142.716L106.561 139.092" stroke="#242938" stroke-width="2" stroke-linecap="round"/>
<path d="M109.867 143.945L111.36 140.608" stroke="#242938" stroke-width="2" stroke-linecap="round"/>
<path d="M225.665 152.144C227.868 152.144 229.654 150.358 229.654 148.155C229.654 145.952 227.868 144.166 225.665 144.166C223.462 144.166 221.676 145.952 221.676 148.155C221.676 150.358 223.462 152.144 225.665 152.144Z" fill="#242938"/>
<path d="M225.665 159.5C227.868 159.5 229.654 157.714 229.654 155.511C229.654 153.308 227.868 151.521 225.665 151.521C223.462 151.521 221.676 153.308 221.676 155.511C221.676 157.714 223.462 159.5 225.665 159.5Z" fill="#242938"/>
<path d="M221.677 155.511C223.88 155.511 225.666 153.725 225.666 151.522C225.666 149.318 223.88 147.532 221.677 147.532C219.474 147.532 217.688 149.318 217.688 151.522C217.688 153.725 219.474 155.511 221.677 155.511Z" fill="#242938"/>
<path d="M256.956 150.96C256.956 160.152 249.505 167.603 240.313 167.603C224.854 169.099 223.67 160.152 223.67 150.96C223.67 141.769 231.121 134.317 240.313 134.317C249.505 134.317 256.956 141.769 256.956 150.96Z" fill="#D58B8B"/>
<path d="M240.315 134.317C233.738 134.317 228.054 138.131 225.35 143.667L256.799 148.654C255.676 140.554 248.723 134.317 240.315 134.317Z" fill="#587291"/>
<path d="M256.146 148.529L212.949 142.545" stroke="#242938" stroke-width="2" stroke-linecap="round"/>
<path d="M248.231 169.037L247.919 164.112L232.523 163.427L231.65 168.039C235.64 176.267 246.61 172.029 248.231 169.037Z" fill="#D58B8B"/>
<path d="M255.959 155.51C258.3 155.51 260.198 153.585 260.198 151.209C260.198 148.834 258.3 146.908 255.959 146.908C253.618 146.908 251.721 148.834 251.721 151.209C251.721 153.585 253.618 155.51 255.959 155.51Z" fill="#242938"/>
<path d="M260.26 155.51C261.465 155.51 262.441 154.506 262.441 153.266C262.441 152.027 261.465 151.022 260.26 151.022C259.055 151.022 258.078 152.027 258.078 153.266C258.078 154.506 259.055 155.51 260.26 155.51Z" fill="#242938"/>
<path d="M261.944 157.069C261.944 159.858 259.7 162.514 256.895 162.928C253.093 163.489 249.852 159.671 249.852 156.882C249.852 154.093 254.106 152.02 256.895 152.02C259.683 152.02 261.944 154.28 261.944 157.069Z" fill="#242938"/>
<path d="M225.634 148.511C227.955 148.817 230.088 147.155 230.398 144.8L221.993 143.694C221.683 146.049 223.313 148.206 225.634 148.511Z" fill="#242938"/>
<path d="M231.083 147.937C232.284 148.026 233.333 147.097 233.425 145.861L229.073 145.537C228.981 146.773 229.881 147.847 231.083 147.937Z" fill="#242938"/>
<path d="M251.135 157.882C252.809 158.432 254.707 157.23 255.375 155.198C256.043 153.165 255.228 151.072 253.554 150.522C251.88 149.972 249.982 151.173 249.314 153.206C248.646 155.238 249.462 157.332 251.135 157.882Z" fill="#AD5B5B"/>
<path d="M250.162 154.202C250.723 153.267 252.281 152.145 253.715 152.394" stroke="#242938" stroke-width="2" stroke-linecap="round"/>
<path d="M252.801 152.536C252.97 152.796 253.326 153.654 253.38 154.238" stroke="#242938" stroke-width="2" stroke-linecap="round"/>
<path d="M232.896 158.254L236.464 152.981L237.49 159.054L232.896 158.254Z" fill="#AD5B5B"/>
<path d="M236.088 153.362L232.861 157.949L237.185 158.618" stroke="#242938" stroke-width="2" stroke-linecap="round"/>
<path d="M235.451 161.806C236.012 161.827 237.421 161.731 238.568 161.183" stroke="#242938" stroke-width="2" stroke-linecap="round"/>
<path d="M240.002 148.657C240.563 148.636 241.972 148.732 243.119 149.28" stroke="#242938" stroke-width="2" stroke-linecap="round"/>
<path d="M231.152 148.906C230.591 148.885 229.182 148.981 228.035 149.529" stroke="#242938" stroke-width="2" stroke-linecap="round"/>
<path d="M236.387 167.104C237.758 167.354 240.189 167.541 242.059 165.982" stroke="#242938" stroke-width="2" stroke-linecap="round"/>
<path d="M230.589 153.641C231.174 153.641 231.649 153.166 231.649 152.581C231.649 151.996 231.174 151.521 230.589 151.521C230.004 151.521 229.529 151.996 229.529 152.581C229.529 153.166 230.004 153.641 230.589 153.641Z" fill="#242938"/>
<path d="M241.062 153.641C241.647 153.641 242.121 153.166 242.121 152.581C242.121 151.996 241.647 151.521 241.062 151.521C240.476 151.521 240.002 151.996 240.002 152.581C240.002 153.166 240.476 153.641 241.062 153.641Z" fill="#242938"/>
<path d="M242.487 159.609C243.653 159.609 244.598 158.663 244.598 157.497C244.598 156.331 243.653 155.386 242.487 155.386C241.32 155.386 240.375 156.331 240.375 157.497C240.375 158.663 241.32 159.609 242.487 159.609Z" fill="#AD5B5B"/>
<path d="M228.899 158.488C230.065 158.488 231.01 157.542 231.01 156.376C231.01 155.21 230.065 154.265 228.899 154.265C227.732 154.265 226.787 155.21 226.787 156.376C226.787 157.542 227.732 158.488 228.899 158.488Z" fill="#AD5B5B"/>
</svg>
