<svg width="346" height="217" viewBox="0 0 346 217" fill="none" xmlns="http://www.w3.org/2000/svg">
<path d="M224 100L255 99L252.868 158H187V101.408L200.179 100.941" fill="#FFDC4D"/>
<path d="M235.249 114.341L282 113L279.21 190H193V140.5" stroke="black" stroke-width="2"/>
<path d="M237 73L190.249 74.2012H148V142H234.21L237 73Z" fill="black"/>
<path d="M149.034 67L149.539 52H236V67H149.034Z" stroke="black" stroke-width="2"/>
<path d="M156 64C158.209 64 160 62.2091 160 60C160 57.7909 158.209 56 156 56C153.791 56 152 57.7909 152 60C152 62.2091 153.791 64 156 64Z" fill="black"/>
<path d="M167 64C169.209 64 171 62.2091 171 60C171 57.7909 169.209 56 167 56C164.791 56 163 57.7909 163 60C163 62.2091 164.791 64 167 64Z" fill="black"/>
<path d="M178 64C180.209 64 182 62.2091 182 60C182 57.7909 180.209 56 178 56C175.791 56 174 57.7909 174 60C174 62.2091 175.791 64 178 64Z" fill="black"/>
<path d="M77.5283 22L80.5386 29.7782L91.0565 24.614L84.2925 34.5798L93 39.3044L82.9527 40.5674L83.5488 48.9077L77.5283 43.232L69.2123 51L72.1039 40.5674L64 39.3044L70.764 34.5798L67.9552 27.9184L74.5179 29.7782L77.5283 22Z" fill="#FFDC4D"/>
<path d="M330.528 188L333.539 195.778L344.057 190.614L337.293 200.58L346 205.304L335.953 206.567L336.549 214.908L330.528 209.232L322.212 217L325.104 206.567L317 205.304L323.764 200.58L320.955 193.918L327.518 195.778L330.528 188Z" fill="black"/>
<path d="M205 99L189 114.5L179 106" stroke="white" stroke-width="2" stroke-miterlimit="10" stroke-linecap="round" stroke-linejoin="round"/>
<path d="M59.9002 88L77.3425 134.411L107.526 111.244L85.408 148.48L150 166.448L79.2618 159.985L102.842 215L71.275 169.965L41.5514 211.942L50.1535 166.448L0 174.4L51.5361 150.391L13.2873 92.7404L57.6804 131.888L59.9002 88Z" fill="#FFDC4D"/>
<path d="M288.654 0L295.92 18.508L321.308 6.21939L304.981 29.9305L326 41.1723L301.749 44.1788L303.186 64.0222L288.654 50.5179L268.581 69L275.56 44.1788L256 41.1723L272.327 29.9305L265.547 14.0816L281.388 18.508L288.654 0Z" fill="#FFDC4D"/>
</svg>
