<svg xmlns="http://www.w3.org/2000/svg" viewBox="0 0 1110 366"><defs><style>.cls-1{fill:#fff;}.cls-2{fill:none;stroke:#000;stroke-width:1.2px;}.cls-3{fill:#d1eaff;}</style></defs><g id="Layer_2" data-name="Layer 2"><g id="Layer_1-2" data-name="Layer 1"><rect class="cls-1" width="1110" height="366" rx="20"/><path class="cls-2" d="M873,108h83.6c.78-2,.95-6.71-4.62-9.18s-10.22,1-11.86,3.09c-.53-6.55-4-19.88-13.46-20.84s-12.47,8.57-12.77,13.46c-8.72-15.94-16.33-3.78-19,4.29C885.76,94.67,876.5,103.21,873,108Z"/><path class="cls-3" d="M1045,86H976.33c-.64-1.2-.78-4,3.79-5.44a10.37,10.37,0,0,1,9.74,1.83c.44-3.88,3.27-11.78,11.06-12.35s10.24,5.08,10.49,8c7.16-9.45,13.42-2.24,15.65,2.54C1034.52,78.1,1042.13,83.16,1045,86Z"/><path class="cls-3" d="M119,146H278.24c1.49-2.26,1.8-7.46-8.8-10.2s-19.48,1.14-22.59,3.43c-1-7.27-7.56-22.08-25.64-23.16s-23.75,9.54-24.33,15c-16.59-17.72-31.1-4.21-36.28,4.76C143.31,131.19,125.66,140.68,119,146Z"/><path class="cls-2" d="M111,143H276.21c1.54-3.08,1.87-10.19-9.13-13.94a23.83,23.83,0,0,0-23.44,4.69c-1-9.94-7.84-30.18-26.59-31.65s-24.65,13-25.25,20.45c-17.22-24.22-32.27-5.75-37.64,6.51C136.22,122.76,117.91,135.73,111,143Z"/><path class="cls-3" d="M851,115h36.82a4.82,4.82,0,0,0-2-5.44c-2.45-1.46-4.51.61-5.22,1.83-.24-3.88-1.75-11.78-5.93-12.35s-5.5,5.08-5.63,8c-3.84-9.45-7.19-2.24-8.39,2.54C856.62,107.1,852.54,112.16,851,115Z"/></g></g></svg>