<svg width="291" height="243" viewBox="0 0 291 243" fill="none" xmlns="http://www.w3.org/2000/svg">
<path d="M80.6742 26.0318C44.1423 1.02759 19.5135 28.9204 11.7656 45.9925C20.7477 51.445 40.7162 61.2284 55.9378 54.919C71.1593 48.6095 79.3714 32.8801 80.6742 26.0318Z" fill="white"/>
<path d="M48.3746 53.3792C57.4924 53.3792 64.8839 45.8298 64.8839 36.5172C64.8839 27.2046 57.4924 19.6553 48.3746 19.6553C39.2567 19.6553 31.8652 27.2046 31.8652 36.5172C31.8652 45.8298 39.2567 53.3792 48.3746 53.3792Z" fill="#242938"/>
<path d="M12.4848 40.4644L1 34.7241" stroke="#242938" stroke-width="2" stroke-linecap="round"/>
<path d="M20.3812 28.9837L10.332 21.0908" stroke="#242938" stroke-width="2" stroke-linecap="round"/>
<path d="M33.2991 18.9382L26.1211 8.17529" stroke="#242938" stroke-width="2" stroke-linecap="round"/>
<path d="M49.0918 13.9155L47.6562 1" stroke="#242938" stroke-width="2" stroke-linecap="round"/>
<path d="M112.551 122.455L110.945 74.3809L157.708 76.7744L160.473 122.455H112.551Z" stroke="#587291" stroke-width="2"/>
<path d="M68.4727 16.0684L72.0616 4.58789" stroke="#242938" stroke-width="2" stroke-linecap="round"/>
<path d="M80.6758 22.5264L87.8538 12.481" stroke="#242938" stroke-width="2" stroke-linecap="round"/>
<path d="M169.085 90.8838H96.5879V163.354H169.085V90.8838Z" fill="white"/>
<path d="M164.227 69.3577L162.621 21.2832L209.384 23.6768L212.149 69.3577H164.227Z" stroke="#242938" stroke-width="2"/>
<path d="M110.473 68.6404L108.789 22.001H154.702L156.164 68.6404H110.473Z" stroke="#242938" stroke-width="2"/>
<path d="M109.508 57.8784H156.245L156.882 68.6414H109.874L109.508 57.8784Z" fill="#242938"/>
<path d="M58.7927 177.705L57.1074 131.687L101.821 129.631L104.482 177.705H58.7927Z" stroke="#587291" stroke-width="2"/>
<path d="M92.2429 144.992C86.8244 139.609 82.3183 148.078 80.7424 152.984C76.1967 150.094 66.7145 145.615 65.1508 150.817C63.5871 156.019 74.8937 164.213 80.7424 167.66C86.8335 162.347 97.6613 150.374 92.2429 144.992Z" fill="#242938"/>
<path d="M58.7912 121.02L57.1074 74.3809H103.02L104.482 121.02H58.7912Z" stroke="#242938" stroke-width="2"/>
<path d="M167.182 123.173L165.496 76.4672L210.21 74.3809L212.871 123.173H167.182Z" stroke="#242938" stroke-width="2"/>
<path d="M132.477 52.1375C138.82 52.1375 143.962 47.1581 143.962 41.0158C143.962 34.8734 138.82 29.894 132.477 29.894C126.134 29.894 120.992 34.8734 120.992 41.0158C120.992 47.1581 126.134 52.1375 132.477 52.1375Z" fill="white"/>
<path d="M80.936 83.709L83.8419 91.0226L93.995 86.1666L87.4655 95.5364L95.8711 99.9787L86.1722 101.167L86.7478 109.008L80.936 103.672L72.9084 110.975L75.6997 101.167L67.877 99.9787L74.4065 95.5364L71.6949 89.2735L78.0301 91.0226L80.936 83.709Z" fill="#242938"/>
<path d="M84.5219 82.2734L87.4278 89.5871L97.581 84.7311L91.0514 94.1008L99.457 98.5432L89.7583 99.7312L90.3337 107.573L84.5219 102.236L76.4943 109.54L79.2857 99.7312L71.4629 98.5432L77.9924 94.1008L75.2809 87.838L81.616 89.5871L84.5219 82.2734Z" fill="white"/>
<path d="M143.805 211.686H148.875H150.839C157.874 223.283 172.538 231.487 178.476 233.183C184.415 234.879 191.998 245.926 216.254 242.259C254.9 236.071 258.554 224.153 274.908 209.44C291.262 194.726 293.5 164.749 287.013 153.703C280.527 142.656 282.217 113.229 279.111 103.603C276.004 93.9773 266.137 77.0177 241.927 66.5669C222.558 58.2063 199.626 75.337 190.582 84.9475C178.156 87.001 161.163 98.2402 154.22 103.603C153.747 104.458 148.519 111.716 131.38 133.901C109.955 161.632 127.725 198.943 131.38 200.089C135.034 201.235 139.008 211.686 143.805 211.686Z" fill="#587291"/>
<path d="M174.109 212.865C174.109 210.391 173.163 208.018 171.481 206.269C169.798 204.52 167.516 203.537 165.137 203.537C162.756 203.537 160.474 204.52 158.792 206.269C157.109 208.018 156.164 210.391 156.164 212.865H159.643C159.643 211.35 160.221 209.898 161.251 208.827C162.282 207.755 163.679 207.153 165.137 207.153C166.593 207.153 167.99 207.755 169.021 208.827C170.051 209.898 170.629 211.35 170.629 212.865H174.109Z" fill="white"/>
<path d="M207.844 193.087C209.764 194.253 212.022 194.523 214.121 193.838C216.22 193.152 217.989 191.567 219.037 189.433C220.086 187.298 220.329 184.787 219.712 182.454C219.096 180.12 217.67 178.154 215.75 176.988L214.218 180.109C215.393 180.823 216.265 182.026 216.643 183.456C217.021 184.885 216.872 186.421 216.23 187.729C215.588 189.036 214.505 190.006 213.22 190.425C211.935 190.845 210.552 190.68 209.377 189.966L207.844 193.087Z" fill="white"/>
<path d="M201.806 217.169C199.676 218.301 198.103 220.199 197.433 222.445C196.763 224.689 197.05 227.097 198.231 229.14C199.413 231.181 201.392 232.689 203.733 233.332C206.075 233.975 208.587 233.699 210.716 232.567L208.989 229.581C207.685 230.275 206.147 230.444 204.714 230.05C203.28 229.656 202.068 228.733 201.345 227.483C200.621 226.233 200.445 224.758 200.856 223.384C201.266 222.009 202.23 220.847 203.534 220.154L201.806 217.169Z" fill="white"/>
<path d="M181.708 149.004C179.578 150.136 178.005 152.034 177.335 154.279C176.665 156.524 176.952 158.933 178.134 160.974C179.315 163.016 181.294 164.524 183.636 165.167C185.977 165.81 188.488 165.534 190.619 164.401L188.891 161.416C187.587 162.11 186.049 162.279 184.616 161.885C183.182 161.491 181.97 160.568 181.247 159.318C180.523 158.068 180.348 156.594 180.758 155.219C181.169 153.844 182.132 152.683 183.436 151.989L181.708 149.004Z" fill="white"/>
<path d="M236.554 132.287C236.235 129.958 234.989 127.848 233.087 126.423C231.187 124.998 228.789 124.373 226.42 124.686C224.051 125.001 221.905 126.227 220.456 128.096C219.006 129.964 218.371 132.323 218.69 134.653L222.153 134.194C221.958 132.768 222.347 131.324 223.235 130.179C224.122 129.035 225.435 128.285 226.885 128.093C228.336 127.9 229.804 128.283 230.968 129.155C232.132 130.028 232.895 131.319 233.091 132.746L236.554 132.287Z" fill="white"/>
<path d="M190.617 89.7912C191.986 91.741 194.124 93.1005 196.562 93.5721C199 94.0437 201.537 93.5882 203.617 92.3055C205.696 91.0238 207.147 89.0195 207.651 86.7338C208.154 84.449 207.668 82.0696 206.299 80.1206L203.259 81.9954C204.096 83.1887 204.395 84.6455 204.086 86.0443C203.778 87.4439 202.89 88.6711 201.617 89.4563C200.344 90.2414 198.79 90.52 197.297 90.2315C195.805 89.9421 194.495 89.1097 193.658 87.9164L190.617 89.7912Z" fill="white"/>
<path d="M268.14 203.872C267.821 201.376 266.575 199.115 264.673 197.588C262.773 196.061 260.375 195.392 258.006 195.728C255.637 196.064 253.491 197.378 252.042 199.38C250.592 201.383 249.957 203.91 250.276 206.406L253.739 205.914C253.544 204.386 253.933 202.839 254.821 201.613C255.708 200.387 257.021 199.583 258.471 199.378C259.922 199.171 261.39 199.581 262.554 200.516C263.718 201.451 264.481 202.834 264.677 204.363L268.14 203.872Z" fill="white"/>
<path d="M259.527 165.942C260.795 168.094 262.849 169.643 265.237 170.25C267.625 170.856 270.151 170.469 272.26 169.175C274.368 167.88 275.886 165.783 276.48 163.346C277.074 160.909 276.695 158.331 275.426 156.179L272.345 158.072C273.121 159.389 273.352 160.968 272.989 162.46C272.625 163.952 271.696 165.236 270.405 166.028C269.114 166.821 267.567 167.058 266.106 166.687C264.644 166.316 263.386 165.367 262.609 164.049L259.527 165.942Z" fill="white"/>
<path d="M253.785 99.4415C255.001 101.485 256.97 102.958 259.258 103.534C261.546 104.109 263.967 103.742 265.987 102.512C268.008 101.283 269.463 99.2909 270.031 96.9757C270.601 94.6606 270.238 92.2113 269.022 90.1665L266.068 91.9647C266.813 93.2168 267.035 94.7163 266.686 96.1337C266.338 97.5511 265.447 98.7703 264.209 99.5237C262.973 100.276 261.491 100.501 260.09 100.148C258.689 99.7959 257.484 98.8945 256.739 97.6433L253.785 99.4415Z" fill="white"/>
<path d="M155.445 117.381C156.714 119.424 158.768 120.897 161.156 121.473C163.543 122.048 166.069 121.681 168.177 120.451C170.286 119.222 171.804 117.23 172.398 114.915C172.992 112.6 172.613 110.15 171.345 108.105L168.262 109.904C169.039 111.156 169.271 112.655 168.907 114.073C168.544 115.49 167.614 116.709 166.323 117.463C165.032 118.215 163.486 118.44 162.024 118.087C160.562 117.735 159.305 116.833 158.528 115.582L155.445 117.381Z" fill="white"/>
<path d="M145.394 146.644C144.339 144.34 142.428 142.558 140.082 141.689C137.735 140.821 135.146 140.935 132.884 142.01C130.621 143.084 128.87 145.029 128.017 147.417C127.163 149.806 127.276 152.441 128.331 154.745L131.639 153.174C130.993 151.764 130.924 150.15 131.447 148.688C131.97 147.226 133.041 146.035 134.427 145.377C135.812 144.72 137.397 144.649 138.833 145.181C140.27 145.713 141.44 146.805 142.086 148.214L145.394 146.644Z" fill="white"/>
<path d="M219.332 110.732L198.261 107.387C197.389 110.988 195.645 118.678 195.645 120.63C195.645 122.583 199.286 127.923 201.107 130.348C203.325 130.288 208.783 129.453 212.859 126.597C216.936 123.74 218.873 114.83 219.332 110.732Z" fill="white"/>
<path d="M154.012 167.575C162.554 171.746 182.9 178.836 195.947 173.831C212.255 167.575 209.377 169.037 212.803 164.151C216.229 159.265 217.92 152.416 222.214 149.859C226.508 147.302 225.64 137.576 222.214 125.887C218.787 114.197 230.528 80.2709 251.632 79.4033" stroke="#242938" stroke-width="2" stroke-linecap="round"/>
<path d="M150.461 174.117L161.187 178.577M146.113 199.53C147.499 201.172 150.612 204.845 151.973 206.406L146.113 199.53ZM146.728 194.28L155.328 199.53L146.728 194.28ZM147.531 188.38L157.171 189.03L147.531 188.38ZM149.326 182.48H157.738H149.326Z" stroke="#242938" stroke-width="2" stroke-linecap="round"/>
<path d="M185.592 90.1665C180.949 92.9087 170.635 102.119 166.52 117.019C161.376 135.643 155.186 142.741 154.867 146.402C154.612 149.332 154.761 158.924 154.867 163.355" stroke="#242938" stroke-width="2" stroke-linecap="round"/>
<path d="M210.715 75.4322C215.621 78.8275 228.642 83.0984 235.838 73.6631" stroke="#242938" stroke-width="2" stroke-linecap="round"/>
<path d="M219.332 80.2539C221.014 80.845 225.38 81.5014 229.381 79.4033" stroke="#242938" stroke-width="2" stroke-linecap="round"/>
<path d="M211.721 65.3729C212.118 69.6424 210.706 72.2852 210 73.8615C218.472 81.1406 232.415 80.659 238.712 70.1061C237.112 67.7879 233.38 63.0763 234.259 57.8784L211.721 65.3729Z" fill="#AD5B5B"/>
<path d="M239.43 45.2355C239.43 57.2749 230.271 67.0349 218.973 67.0349C215.729 67.0349 211.212 67.7338 208.487 66.3016C201.721 62.7457 198.516 53.818 198.516 45.2355C198.516 33.196 207.675 23.436 218.973 23.436C230.271 23.436 239.43 33.196 239.43 45.2355Z" fill="#AD5B5B"/>
<path d="M221.406 41.3754C214.288 41.7812 209.04 37.0869 207.306 34.689C205.769 34.3047 202.734 35.1041 202.88 41.3754C203.026 47.6467 200.932 51.9505 199.868 53.3186C201.434 57.5486 204.364 62.3899 207.306 64.6162C209.079 65.9574 211.063 66.8056 212.006 67.1524C212.101 69.2669 211.413 70.9796 211.231 71.2103L172.672 77.2511L173.721 74.0693C175.501 68.5819 186.863 63.2328 188.917 60.8349C190.97 58.4371 178.923 47.8312 186.863 42.7127C194.803 37.5941 192.887 35.5191 195.533 26.1582C197.651 18.6695 206.667 17.1354 210.911 17.3046C221.972 11.3652 233.453 14.3072 236.921 21.178C239.02 24.0831 238.564 29.6167 244.542 28.7405C250.656 27.3571 257.592 30.9078 259.189 34.689C261.429 39.992 255.904 46.4939 265.304 47.8312C272.824 48.901 279.419 53.626 281.777 55.8548L266.992 62.2644L262.794 58.0221L261.197 63.9706L234.046 71.1642C233.24 70.4725 231.144 67.9179 229.209 63.2328C227.275 58.5478 228.403 53.7489 229.209 51.9352C229.575 48.2462 228.525 40.9696 221.406 41.3754Z" fill="#242938"/>
<path d="M211.438 58.5952L212.509 51.4199L215.744 57.39L211.438 58.5952Z" fill="#804141"/>
<path d="M217.895 67.9043C218.989 68.0088 221.528 67.7285 222.919 65.7705" stroke="#242938" stroke-width="2" stroke-linecap="round"/>
<path d="M212.623 52.1377L211.438 58.5955L215.744 57.3216" stroke="#242938" stroke-width="2" stroke-linecap="round"/>
<path d="M217.895 61.4658L212.152 62.4022C212.718 62.9083 214.16 63.6484 215.259 63.6175C217.072 63.5666 217.578 62.3574 217.895 61.4658Z" stroke="#242938" stroke-width="2"/>
<path d="M206.412 54.29C207.205 54.29 207.848 53.6475 207.848 52.855C207.848 52.0624 207.205 51.4199 206.412 51.4199C205.619 51.4199 204.977 52.0624 204.977 52.855C204.977 53.6475 205.619 54.29 206.412 54.29Z" fill="#242938"/>
<path d="M217.178 52.1372C217.971 52.1372 218.613 51.4947 218.613 50.7022C218.613 49.9096 217.971 49.2671 217.178 49.2671C216.385 49.2671 215.742 49.9096 215.742 50.7022C215.742 51.4947 216.385 52.1372 217.178 52.1372Z" fill="#242938"/>
<path d="M216.461 44.2815C217.642 44.1024 219.197 44.5766 220.05 45.6797" stroke="#242938" stroke-width="2" stroke-linecap="round"/>
<path d="M207.127 47.1143C205.618 47.2092 203.734 48.0157 202.82 49.2668" stroke="#242938" stroke-width="2" stroke-linecap="round"/>
<path d="M232.942 53.6111C235.224 54.6183 238.193 52.8991 239.574 49.7712C240.954 46.6434 240.223 43.2913 237.941 42.2841C235.659 41.2769 232.69 42.9961 231.309 46.124C229.929 49.2518 230.66 52.604 232.942 53.6111Z" fill="#804141"/>
<path d="M232.969 48.5498C233.561 47.1001 235.3 44.8157 236.558 44.2446" stroke="#242938" stroke-width="2" stroke-linecap="round"/>
<path d="M235.121 44.9619C236.014 45.5542 237.201 46.9767 237.274 47.832" stroke="#242938" stroke-width="2" stroke-linecap="round"/>
<path d="M221.127 57.8782C222.118 57.8782 222.921 57.0751 222.921 56.0844C222.921 55.0937 222.118 54.2905 221.127 54.2905C220.135 54.2905 219.332 55.0937 219.332 56.0844C219.332 57.0751 220.135 57.8782 221.127 57.8782Z" fill="#804141"/>
<path d="M205.69 58.5957C206.482 58.5957 207.125 57.9532 207.125 57.1606C207.125 56.3681 206.482 55.7256 205.69 55.7256C204.897 55.7256 204.254 56.3681 204.254 57.1606C204.254 57.9532 204.897 58.5957 205.69 58.5957Z" fill="#804141"/>
<path d="M109.781 127.149L151.139 166.91C144.174 177.707 144.246 191.999 145.153 197.796C122.443 187.543 108.119 175.198 103.796 170.307C101.619 167.553 104.703 164.752 106.516 163.695C103.904 158.804 108.754 156.524 111.505 155.996C110.816 151.214 114.755 150.26 116.811 150.381C114.468 148.101 108.856 141.631 105.156 133.987C101.455 126.343 106.698 126.243 109.781 127.149Z" fill="#AD5B5B"/>
</svg>
