<svg width="1090" height="448" viewBox="0 0 1090 448" fill="none" xmlns="http://www.w3.org/2000/svg">
<path d="M108.71 288.083L117.175 294.977L126.09 282.243L124.602 297.996L137.733 297.7L126.872 305.686L132.892 314.792L122.275 312.255L117.581 326.518L114.274 312.756L104.056 316.6L108.892 306.813L101.374 301.06L110.184 298.9L108.71 288.083Z" fill="#010101"/>
<path d="M906.144 74.0415L906.806 78.9018L899.836 79.3401L906.226 82.4572L903.039 87.4238L908.644 85.1277L910.727 89.5685L912.239 84.9023L918.809 86.4405L914.305 81.9509L918.171 78.9317L913.285 78.4957L912.838 74.2656L909.948 77.1388L906.144 74.0415Z" fill="#010101"/>
<path d="M893.932 268.347L892.189 273.884L891.866 274.91L892.913 275.158L900.784 277.02L892.815 279.349L891.736 279.664L892.175 280.699L894.855 287.018L888.809 283.242L888.002 282.738L887.458 283.519L884.141 288.283L883.309 282.538L883.177 281.627L882.259 281.683L874.323 282.164L880.281 277.961L881.207 277.308L880.445 276.471L876.537 272.177L882.324 272.643L883.143 272.709L883.366 271.918L884.762 266.967L887.57 270.91L888.092 271.643L888.876 271.201L893.932 268.347Z" stroke="#010101" stroke-width="2"/>
<path d="M122.038 207.682L123.957 209.882L126.908 206.929L125.783 211.013L129.272 211.529L126.027 213.142L127.197 215.815L124.505 214.666L122.6 218.213L122.364 214.436L119.481 214.988L121.216 212.627L119.494 210.77L121.925 210.6L122.038 207.682Z" fill="#010101"/>
<path d="M124 45H0.586164C-0.558739 42.7431 -0.811291 37.5439 7.40507 34.8022C15.6214 32.0605 22.5077 35.939 24.9154 38.2293C25.7067 30.9571 30.7746 16.1452 44.7828 15.0753C58.791 14.0054 63.1854 24.6044 63.64 30.0376C76.5034 12.3169 87.7503 25.8248 91.7575 34.8022C105.16 30.1881 118.831 39.667 124 45Z" fill="#D1EAFF"/>
<path d="M922 448H1089.21C1090.76 444.916 1091.1 437.81 1079.97 434.063C1068.84 430.316 1059.51 435.617 1056.24 438.747C1055.17 428.808 1048.31 408.565 1029.33 407.103C1010.35 405.641 1004.39 420.126 1003.78 427.551C986.35 403.333 971.112 421.794 965.683 434.063C947.526 427.757 929.003 440.712 922 448Z" fill="#D1EAFF"/>
<path d="M72 62H329.764C332.176 57.4205 332.7 46.8404 315.505 41.2608C298.363 35.6812 283.999 43.5768 278.914 48.2616C277.289 33.4704 266.699 3.30901 237.395 1.15087C208.143 -1.00728 198.969 20.5215 198.025 31.6281C171.184 -4.42873 147.699 23.0481 139.311 41.3134C111.37 31.8386 82.7992 51.1566 72 62Z" stroke="black" stroke-width="2"/>
<path d="M851 441H1037.11C1038.85 437.697 1039.23 430.065 1026.81 426.041C1014.44 422.016 1004.06 427.711 1000.39 431.09C999.22 420.421 991.574 398.666 970.416 397.109C949.296 395.552 942.672 411.081 941.991 419.092C922.612 393.084 905.655 412.904 899.599 426.079C879.425 419.244 858.797 433.179 851 441Z" stroke="black" stroke-width="2"/>
</svg>
