<svg width="222" height="189" viewBox="0 0 222 189" fill="none" xmlns="http://www.w3.org/2000/svg">
<path d="M45.8149 157.45L50.5633 150.332L67.8195 163.222L42.7266 161.721L45.8149 157.45Z" fill="#D58B8B"/>
<path d="M220.38 164.63C222.02 160.379 221.063 151.283 220.38 147.266C219.229 140.496 209.052 143.608 203.938 146.419C204.673 150.667 206.209 161.018 206.461 168.441C206.713 175.864 204.135 175.987 202.558 176.565L190.334 177.912C188.284 179.26 183.789 189 183.789 189H221.563C222.746 187.499 218.329 169.943 220.38 164.63Z" fill="#242938"/>
<path d="M71.7709 174.271C72.4581 166.755 69.9481 165.539 68.608 164.006C68.608 164.006 61.4228 157.085 56.3466 160.835C51.4265 152.639 44.8274 154.611 44.8274 154.611C44.3197 154.778 42.8437 155.508 41.0006 157.085C38.6968 159.057 30.6919 162.537 17.0641 164.006C5.91893 165.208 6.64304 165.166 3.59244 172.369C1.99716 176.135 0 185.947 0 185.947H68.608C68.608 185.947 71.0836 181.787 71.7709 174.271Z" fill="#242938"/>
<path d="M45.4385 157.794C44.3278 152.671 41.2036 143.169 37.5921 146.151C33.9806 149.133 41.3183 155.156 45.4385 157.794Z" stroke="#242938" stroke-width="2"/>
<path d="M44.7602 157.794C42.1656 153.032 36.4343 144.555 34.2655 148.75C32.0967 152.944 40.3582 156.527 44.7602 157.794Z" stroke="#242938" stroke-width="2"/>
<path d="M201.991 128.956L206.617 158.789C207.558 167.672 208.89 175.926 204.03 177.184C200.246 178.164 194.086 177.957 191.173 178.049C190.64 178.685 189.827 179.631 189.069 180.722C188.116 182.096 187.221 182.729 186.162 184.251C181.754 187.304 123.962 184.966 91.805 183.994L91.4923 183.984C88.3039 183.093 82.6727 178.387 85.6517 166.69C87.5513 159.23 101.688 149.723 115.873 142.022C112.946 133.159 106.301 115.537 103.134 115.946C99.9669 116.355 68.4044 163.506 68.4044 163.506L40.6914 142.988C40.6914 142.988 80.4933 84.297 84.319 81.1211C89.1012 77.1512 96.5488 75.7755 104.741 78.4483C111.295 80.5865 145.807 109.868 162.245 124.242C164.359 124.213 166.571 124.31 168.869 124.565C171.092 124.812 173.396 125.205 175.768 125.772C177.153 126.104 178.472 126.408 179.727 126.687C182.853 127.382 185.584 127.919 187.959 128.328C197.469 129.966 201.275 129.548 201.991 128.956Z" fill="#242938"/>
<path d="M136.994 132.694L118.005 141.513" stroke="white" stroke-width="2" stroke-linecap="round"/>
<path d="M103.74 114.378C103.854 111.742 103.612 106.152 101.729 104.881" stroke="white" stroke-width="2" stroke-linecap="round"/>
<path d="M101.728 115.056C101.468 113.468 100.695 110.16 99.6934 109.629" stroke="white" stroke-width="2" stroke-linecap="round"/>
<path d="M187.179 177.468C172.655 174.951 140.135 170.456 126.254 172.606C112.373 174.757 108.64 175.982 108.51 176.326" stroke="white" stroke-width="2" stroke-linecap="round"/>
<path d="M166.156 135.408C167.696 142.071 174.327 155.335 188.536 155.077" stroke="white" stroke-width="2" stroke-linecap="round"/>
<path d="M154.599 24.2256C154.084 33.4711 149.348 42.9699 140.195 42.4494C139.875 42.4494 136.46 40.0223 136.153 40.0198C131.635 39.9824 128.452 39.6233 125.989 37.5743C122.046 34.2941 121.141 27.8864 121.45 22.3406C121.966 13.0951 129.804 6.02224 138.958 6.54273C148.111 7.06329 155.115 14.9802 154.599 24.2256Z" fill="#D58B8B"/>
<path d="M154.601 24.1938C155.105 14.9649 148.265 7.06225 139.325 6.54269C137.332 6.42685 135.403 6.68765 133.604 7.26505C134.74 9.63936 137.204 15.4292 137.96 19.5944C138.715 23.7594 139.12 26.0021 139.228 26.6027C139.231 28.1963 140.702 32.651 146.568 37.7212C151.113 34.9858 154.284 30.0222 154.601 24.1938Z" fill="#242938"/>
<path d="M139.071 6.01845C132.475 5.63073 126.557 9.28925 123.532 14.9275L154.796 22.0037C154.127 13.4551 147.505 6.51421 139.071 6.01845Z" fill="#587291"/>
<path d="M154.627 21.4401L111.223 13.2996" stroke="#242938" stroke-width="2" stroke-linecap="round"/>
<path d="M138.011 29.9854C139.476 30.9485 141.612 30.286 142.782 28.5058C143.951 26.7255 143.71 24.5016 142.245 23.5385C140.779 22.5754 138.643 23.2379 137.474 25.0181C136.305 26.7983 136.545 29.0223 138.011 29.9854Z" fill="#AD5B5B"/>
<path d="M138.351 26.1889C139.033 25.219 140.595 24.3509 141.742 25.1388" stroke="#242938" stroke-width="2" stroke-linecap="round"/>
<path d="M141.062 25.5104C141.062 25.8456 141.062 26.8896 141.062 27.5455" stroke="#242938" stroke-width="2" stroke-linecap="round"/>
<path d="M122.074 27.493L125.437 22.797L126.143 28.224L122.074 27.493Z" fill="#AD5B5B"/>
<path d="M125.383 22.797L122.074 27.2928L126.143 28.224" stroke="#242938" stroke-width="2" stroke-linecap="round"/>
<path d="M125.465 31.6158C126.067 31.6158 127.588 31.6158 128.856 31.6158" stroke="#242938" stroke-width="2" stroke-linecap="round"/>
<path d="M127.499 19.4049C127.994 19.4141 129.229 19.5626 130.212 20.0833" stroke="#242938" stroke-width="2" stroke-linecap="round"/>
<path d="M128.294 23.6234C128.876 23.6562 129.374 23.2111 129.407 22.6293C129.44 22.0475 128.995 21.5494 128.413 21.5166C127.831 21.4838 127.333 21.9289 127.3 22.5107C127.267 23.0924 127.712 23.5906 128.294 23.6234Z" fill="#242938"/>
<path d="M124.107 18.0778C123.626 18.0019 122.408 18.0255 121.395 18.7266" stroke="#242938" stroke-width="2" stroke-linecap="round"/>
<path d="M121.84 22.6323C122.422 22.6651 122.92 22.22 122.953 21.6382C122.986 21.0565 122.54 20.5583 121.959 20.5255C121.377 20.4927 120.879 20.9378 120.846 21.5196C120.813 22.1014 121.258 22.5995 121.84 22.6323Z" fill="#242938"/>
<path d="M130.978 29.1305C132.137 29.1957 133.13 28.3089 133.195 27.1496C133.26 25.9903 132.374 24.9977 131.215 24.9324C130.056 24.8671 129.063 25.754 128.998 26.9132C128.933 28.0725 129.819 29.0652 130.978 29.1305Z" fill="#AD5B5B"/>
<path d="M82.8855 61.1078C88.4887 57.5946 96.5685 56.7159 99.9084 56.7159C101.949 56.8362 106.469 58.1911 108.219 62.6487C109.969 67.1062 103.408 73.1945 99.9084 75.6814C97.5091 75.1491 91.7372 74.5237 87.8465 76.2803C82.1605 78.8474 72.1315 79.2218 65.8632 79.0751C59.0153 78.9155 59.9621 75.6814 61.2915 74.0844C60.416 74.1846 58.3732 73.7853 57.206 71.389C56.0388 68.9935 59.4433 67.5295 61.2915 67.0974C61.4471 65.1805 63.7556 64.3683 64.8904 64.2024C64.9228 63.4704 65.4936 61.9864 67.5169 61.9063C70.0463 61.8069 75.8823 65.5004 82.8855 61.1078Z" fill="#D58B8B"/>
<path d="M86.3721 52.9453V11.0643" stroke="#242938" stroke-width="2" stroke-linecap="round"/>
<path d="M76.6604 57.5825C92.2852 57.5825 104.952 44.9161 104.952 29.2913C104.952 13.6664 92.2852 1 76.6604 1C61.0356 1 48.3691 13.6664 48.3691 29.2913C48.3691 44.9161 61.0356 57.5825 76.6604 57.5825Z" fill="white"/>
<path d="M76.6604 57.5825C92.2852 57.5825 104.952 44.9161 104.952 29.2913C104.952 13.6664 92.2852 1 76.6604 1C61.0356 1 48.3691 13.6664 48.3691 29.2913C48.3691 44.9161 61.0356 57.5825 76.6604 57.5825Z" stroke="#242938" stroke-width="2"/>
<path d="M62.5557 35.6809C61.8679 31.6968 52.8114 29.7611 48.3691 29.2913C48.3691 43.2899 58.5848 55.4244 72.3124 57.2375C72.5513 57.1088 73.3225 55.8928 73.7811 54.8028C74.3543 53.4403 73.2556 51.1852 69.1952 51.467C67.0988 51.6126 63.4155 40.661 62.5557 35.6809Z" fill="#242938"/>
<path d="M91.9995 12.5777C92.8556 10.496 88.8135 5.21137 86.6904 2.82788C93.3092 5.22159 98.3472 10.0127 101.448 15.6981C100.846 15.907 100.143 16.2495 99.083 16.4808C97.758 16.7699 90.9293 15.1797 91.9995 12.5777Z" fill="#242938"/>
<path d="M85.4698 56.1486C84.9609 54.5958 77.8363 47.1449 79.8002 42.7427C87.9256 35.6309 76.3181 25.6788 76.6679 23.0281C77.9208 13.5322 97.1479 25.1008 104.039 23.7993" stroke="#242938" stroke-width="2"/>
<path d="M50.6689 18.1321C53.4507 19.3178 63.6976 17.2692 65.4545 13.4372C67.6506 8.6471 64.5273 7.41402 67.9435 6.32321C70.6764 5.45057 71.4229 2.24545 71.2762 1.53406" stroke="#242938" stroke-width="2"/>
<path d="M86.1299 68.9493C83.1672 69.603 76.5171 70.7143 73.6122 69.9302C69.9817 68.9493 69.6951 65.7142 72.2749 64.5373M70.0772 64.5373C67.5928 63.9492 62.5285 63.6552 62.1463 67.1852M69.5996 68.1653C66.7328 67.2176 60.4646 66.2438 58.3242 69.9302M62.5609 73.7542C64.6109 74.3194 69.2014 75.6038 71.1618 76.225C73.6122 77.002 79.3495 77.3545 82.9277 76.7902" stroke="#242938" stroke-width="2" stroke-linecap="round"/>
<path d="M158.225 24.8322C148.14 27.5317 137.387 46.8586 137.387 46.8586C141.65 51.1088 147.857 50.5305 141.94 59.2216C138.93 64.7771 132.576 76.0994 131.226 76.9445C129.539 78.0008 123.731 70.0979 121.141 68.6112C119.069 67.4218 117.583 68.1159 117.099 68.6112L107.877 59.2216L96.3008 75.8881L105.091 83.9867C104.659 84.978 104.055 87.5625 105.091 89.9725C106.386 92.985 113.45 98.5014 117.099 104.487C120.749 110.473 125.419 115.168 130.559 117.946C134.672 120.168 138.263 117.02 139.546 115.168C139.336 116.015 139.043 118.313 139.546 120.723C140.048 123.133 138.342 129.109 137.427 131.795C139.428 130.726 145.958 128.204 156.067 126.67C166.176 125.137 179.978 129.448 185.616 131.795C191.11 132.943 202.098 133.908 202.098 128.587C201.47 119.393 194.485 68.6112 184.007 51.9055C180.363 46.0954 166.898 29.0575 158.225 24.8322Z" fill="#587291"/>
<path d="M179.728 106.739C179.442 115.914 186.66 123.582 195.847 123.867C197.791 123.928 199.668 123.652 201.422 123.094C201.422 123.094 200.12 113.231 199.108 106.938C198.083 100.553 196.197 90.635 196.197 90.635C187.315 90.7177 180.006 97.793 179.728 106.739Z" fill="white"/>
<path d="M155.305 104.203C163.92 104.203 170.904 96.9132 170.904 87.9214C170.904 78.9296 163.92 71.6403 155.305 71.6403C146.691 71.6403 139.707 78.9296 139.707 87.9214C139.707 96.9132 146.691 104.203 155.305 104.203Z" fill="white"/>
<path d="M141.254 117.092C140.682 117.092 140.117 117.121 139.561 117.18C139.561 118.108 139.443 119.709 139.837 122.014C140.139 123.784 138.353 129.359 137.671 132.016C141.254 130.258 149.021 127.742 155.982 126.898C153.608 121.145 147.907 117.092 141.254 117.092Z" fill="white"/>
<path d="M112.577 79.1725C112.577 73.2729 109.104 68.1446 103.996 65.5349L96.3008 75.8405L105.285 83.9599C104.694 85.4789 104.087 89.0767 106.392 91.3134C110.16 88.4792 112.577 84.0947 112.577 79.1725Z" fill="white"/>
<path d="M157.339 31.6253C157.339 40.2373 164.318 47.2187 172.928 47.2187C175.362 47.2187 177.666 46.6605 179.719 45.6651C179.719 45.6651 173.313 37.2947 168.76 32.8218C162.278 26.4532 158.496 24.8322 158.496 24.8322C157.604 26.7968 157.339 29.3266 157.339 31.6253Z" fill="white"/>
<path d="M140.385 114.378C148.645 108.883 153.004 102.156 157.221 97.8534C161.438 93.5508 173.624 74.5731 177.007 70.9618" stroke="#242938" stroke-width="2" stroke-linecap="round"/>
<path d="M134.2 80.1679C135.023 81.4047 136.735 84.2247 136.994 85.6137M131.568 79.1024C132.014 80.3652 132.921 83.7827 132.985 87.3501C133.05 90.9175 133.012 92.8354 132.985 93.3484L131.568 79.1024Z" stroke="#242938" stroke-width="2" stroke-linecap="round"/>
<path d="M174.971 79.1024C174.263 80.7912 172.458 85.1912 170.902 89.2781" stroke="#242938" stroke-width="2" stroke-linecap="round"/>
<path d="M155.884 29.6577L159.069 34.3904M141.062 44.3645C141.783 45.225 144.019 47.4075 147.196 49.2537L141.062 44.3645ZM143.264 39.7882L147.196 42.6043L143.264 39.7882ZM150.066 32.0436C151.678 33.0866 155.098 35.5013 155.884 36.8155L150.066 32.0436ZM162.764 32.0436C161.978 30.8311 160.138 28.2339 159.069 27.5455L162.764 32.0436ZM147.196 35.7594L152.189 39.7882L147.196 35.7594Z" stroke="#242938" stroke-width="2" stroke-linecap="round"/>
<path d="M107.704 64.178L113.935 69.1729M99.6934 76.4136L106.311 81.1375L99.6934 76.4136ZM102.054 72.9675L107.704 77.9624L102.054 72.9675ZM105.073 68.7083L110.723 74.2065L105.073 68.7083Z" stroke="#242938" stroke-width="2" stroke-linecap="round"/>
</svg>
