<svg width="221" height="203" viewBox="0 0 221 203" fill="none" xmlns="http://www.w3.org/2000/svg">
<path d="M20.9512 121.358C22.8616 111.069 31.6262 92.0403 34.266 97.9528C37.5658 105.344 36.2922 126.502 31.8346 127.734C27.377 128.966 33.8608 98.0979 39.4183 100.272C43.8643 102.011 41.2708 111.044 39.4183 115.343C40.0744 109.547 40.9173 101.431 50.0123 95.9967" stroke="#FFDC4D" stroke-width="2" stroke-linecap="round"/>
<path d="M154.768 22.8118C155.967 16.0252 161.47 3.47468 163.128 7.37462C165.199 12.2495 164.4 26.2051 161.601 27.0176C158.803 27.83 162.874 7.47021 166.363 8.904C169.155 10.051 167.526 16.0092 166.363 18.845C166.775 15.0215 167.304 9.66877 173.015 6.08423" stroke="#FFDC4D" stroke-width="2" stroke-linecap="round"/>
<path d="M21.5328 21.633L23.918 27.7979L32.2522 23.7048L26.8925 31.6037L33.792 35.3484L25.8309 36.3493L26.3033 42.9598L21.5328 38.4614L14.9434 44.6181L17.2347 36.3493L10.8135 35.3484L16.1731 31.6037L13.9474 26.3238L19.1475 27.7979L21.5328 21.633Z" fill="black"/>
<path d="M49.3363 63.5471H23.1036C22.8591 62.9877 22.8066 61.6989 24.5531 61.0193C26.2995 60.3397 27.7621 61.3025 28.275 61.8688C28.4421 60.0662 29.5204 56.3946 32.498 56.1294C35.4755 55.8642 36.4109 58.4915 36.5063 59.8383C39.2405 55.4457 41.6299 58.7954 42.4829 61.0193C45.3316 59.8756 48.2388 62.2279 49.3363 63.5471Z" fill="#D1EAFF"/>
<path d="M79.0732 23.6612H110.687C110.982 23.1018 111.045 21.813 108.941 21.1334C106.835 20.4537 105.073 21.4166 104.455 21.9829C104.254 20.1803 102.954 16.5087 99.3653 16.2435C95.7773 15.9782 94.6502 18.6055 94.5349 19.9523C91.2401 15.5597 88.3606 18.9094 87.3321 21.1334C83.8991 19.9896 80.3958 22.342 79.0732 23.6612Z" fill="#D1EAFF"/>
<path d="M105.969 0L107.443 3.62645L112.59 1.21867L109.279 5.86514L113.541 8.06791L108.624 8.65668L108.916 12.5452L105.969 9.89909L101.899 13.5207L103.314 8.65668L99.3486 8.06791L102.659 5.86514L101.284 2.75932L104.496 3.62645L105.969 0Z" fill="black"/>
<path d="M117.73 62.8711L118.361 64.1404L120.568 63.2977L119.149 64.9239L120.975 65.6949L118.868 65.901L118.993 67.262L117.73 66.3358L115.986 67.6034L116.592 65.901L114.893 65.6949L116.311 64.9239L115.722 63.8369L117.098 64.1404L117.73 62.8711Z" fill="black"/>
<path d="M191.263 19.0525C191.263 20.6141 190.927 23.6612 189.434 23.6612C187.941 23.6612 185.856 20.6141 185.856 19.0525C185.856 17.4908 187.067 16.2248 188.56 16.2248C190.053 16.2248 191.263 17.4908 191.263 19.0525Z" fill="black"/>
<path d="M198.022 20.3095C198.022 21.4452 197.769 23.6612 196.65 23.6612C195.53 23.6612 193.967 21.4452 193.967 20.3095C193.967 19.1737 194.875 18.253 195.994 18.253C197.114 18.253 198.022 19.1737 198.022 20.3095Z" fill="black"/>
<path d="M191.939 28.0029C191.939 29.2806 191.644 31.7737 190.338 31.7737C189.032 31.7737 187.208 29.2806 187.208 28.0029C187.208 26.7252 188.267 25.6894 189.573 25.6894C190.88 25.6894 191.939 26.7252 191.939 28.0029Z" fill="black"/>
<path d="M198.022 28.0029C198.022 29.2806 197.77 31.7737 196.65 31.7737C195.53 31.7737 193.967 29.2806 193.967 28.0029C193.967 26.7252 194.874 25.6894 195.994 25.6894C197.114 25.6894 198.022 26.7252 198.022 28.0029Z" fill="black"/>
<path d="M204.78 28.0029C204.78 29.2806 204.486 31.7737 203.179 31.7737C201.873 31.7737 200.049 29.2806 200.049 28.0029C200.049 26.7252 201.108 25.6894 202.414 25.6894C203.721 25.6894 204.78 26.7252 204.78 28.0029Z" fill="black"/>
<path d="M191.939 35.8581C191.939 36.9938 191.644 39.2099 190.338 39.2099C189.032 39.2099 187.208 36.9938 187.208 35.8581C187.208 34.7224 188.267 33.8016 189.573 33.8016C190.88 33.8016 191.939 34.7224 191.939 35.8581Z" fill="black"/>
<path d="M208.159 38.1716C208.159 40.5851 207.612 45.2942 205.186 45.2942C202.76 45.2942 199.373 40.5851 199.373 38.1716C199.373 35.7581 201.34 33.8016 203.766 33.8016C206.192 33.8016 208.159 35.7581 208.159 38.1716Z" fill="black"/>
<path d="M18.2475 146.728C18.2475 147.864 17.9531 150.079 16.6467 150.079C15.3403 150.079 13.5166 147.864 13.5166 146.728C13.5166 145.592 14.5757 144.671 15.882 144.671C17.1884 144.671 18.2475 145.592 18.2475 146.728Z" fill="black"/>
<path d="M24.3295 146.728C24.3295 147.864 24.0352 150.079 22.7287 150.079C21.4223 150.079 19.5986 147.864 19.5986 146.728C19.5986 145.592 20.6577 144.671 21.964 144.671C23.2705 144.671 24.3295 145.592 24.3295 146.728Z" fill="black"/>
<path d="M30.4125 146.728C30.4125 147.864 30.1182 150.079 28.8117 150.079C27.5053 150.079 25.6816 147.864 25.6816 146.728C25.6816 145.592 26.7407 144.671 28.047 144.671C29.3535 144.671 30.4125 145.592 30.4125 146.728Z" fill="black"/>
<path d="M45.6558 170.693L50.3877 163.6L67.5842 176.445L42.5781 174.949L45.6558 170.693Z" fill="#ED4546"/>
<path d="M219.616 177.848C221.251 173.612 220.297 164.548 219.616 160.545C218.469 153.798 208.328 156.899 203.231 159.701C203.964 163.934 205.494 174.249 205.746 181.646C205.997 189.043 203.428 189.166 201.856 189.742L189.675 191.084C187.632 192.427 183.152 202.134 183.152 202.134H220.795C221.974 200.638 217.573 183.142 219.616 177.848Z" fill="black"/>
<path d="M71.5226 187.456C72.2074 179.966 69.7061 178.754 68.3706 177.226C68.3706 177.226 61.2103 170.329 56.1516 174.067C51.2486 165.899 44.6723 167.864 44.6723 167.864C44.1664 168.031 42.6955 168.757 40.8588 170.329C38.5629 172.295 30.5857 175.762 17.005 177.226C5.89845 178.424 6.62006 178.383 3.58001 185.56C1.99025 189.314 0 199.092 0 199.092H68.3706C68.3706 199.092 70.8377 194.946 71.5226 187.456Z" fill="black"/>
<path d="M45.281 171.036C44.1742 165.93 41.0608 156.461 37.4618 159.433C33.8628 162.405 41.1751 168.407 45.281 171.036Z" stroke="black" stroke-width="2"/>
<path d="M44.6054 171.036C42.0198 166.29 36.3084 157.843 34.147 162.023C31.9857 166.203 40.2187 169.773 44.6054 171.036Z" stroke="black" stroke-width="2"/>
<path d="M201.292 142.298L205.901 172.028C206.839 180.88 208.167 189.106 203.323 190.359C199.552 191.335 193.414 191.129 190.511 191.221C189.979 191.855 189.169 192.797 188.414 193.884C187.464 195.254 186.572 195.885 185.518 197.402C181.125 200.444 123.532 198.114 91.4866 197.145L91.1749 197.136C87.9976 196.248 82.3859 191.558 85.3546 179.901C87.2476 172.467 101.335 162.993 115.472 155.319C112.555 146.487 105.933 128.925 102.776 129.333C99.6202 129.74 68.1669 176.728 68.1669 176.728L40.5498 156.282C40.5498 156.282 80.214 97.7933 84.0265 94.6284C88.7921 90.6722 96.2139 89.3013 104.378 91.9648C110.909 94.0956 145.302 123.276 161.683 137.6C163.79 137.571 165.994 137.668 168.284 137.922C170.5 138.168 172.795 138.56 175.159 139.125C176.539 139.456 177.854 139.759 179.104 140.036C182.22 140.729 184.941 141.265 187.307 141.672C196.785 143.305 200.578 142.888 201.292 142.298Z" fill="#D1EAFF"/>
<path d="M136.52 146.023L117.597 154.812" stroke="white" stroke-width="2" stroke-linecap="round"/>
<path d="M103.381 127.77C103.494 125.144 103.253 119.573 101.376 118.306" stroke="white" stroke-width="2" stroke-linecap="round"/>
<path d="M101.377 128.446C101.117 126.864 100.347 123.567 99.3486 123.038" stroke="white" stroke-width="2" stroke-linecap="round"/>
<path d="M186.532 190.641C172.058 188.133 139.65 183.654 125.817 185.797C111.984 187.94 108.265 189.161 108.135 189.504" stroke="white" stroke-width="2" stroke-linecap="round"/>
<path d="M165.581 148.727C167.115 155.368 173.723 168.585 187.884 168.329" stroke="white" stroke-width="2" stroke-linecap="round"/>
<path d="M154.064 37.9296C153.551 47.1431 148.832 56.6091 139.71 56.0904C139.391 56.0904 135.988 53.6717 135.682 53.6691C131.18 53.6319 128.008 53.274 125.553 51.2321C121.624 47.9633 120.722 41.5777 121.03 36.0511C121.544 26.8376 129.355 19.7892 138.477 20.3079C147.599 20.8267 154.578 28.7161 154.064 37.9296Z" fill="#ED4546"/>
<path d="M154.066 37.8979C154.568 28.7009 147.751 20.8256 138.842 20.3079C136.856 20.1924 134.934 20.4523 133.141 21.0277C134.273 23.3938 136.729 29.1637 137.482 33.3144C138.234 37.465 138.638 39.6999 138.745 40.2985C138.748 41.8865 140.215 46.3259 146.06 51.3785C150.589 48.6525 153.749 43.7062 154.066 37.8979Z" fill="black"/>
<path d="M138.794 20.3071C132.378 19.947 126.621 23.3449 123.679 28.5815L154.092 35.1537C153.44 27.214 146.999 20.7675 138.794 20.3071Z" fill="#FFDC4D"/>
<path d="M154.092 35.1537L110.838 27.0414" stroke="black" stroke-width="2" stroke-linecap="round"/>
<path d="M137.534 43.6694C138.994 44.6292 141.123 43.969 142.288 42.1949C143.453 40.4209 143.214 38.2046 141.753 37.2449C140.292 36.2851 138.164 36.9452 136.999 38.7193C135.834 40.4934 136.073 42.7096 137.534 43.6694Z" fill="#D7090A"/>
<path d="M137.872 39.886C138.552 38.9195 140.109 38.0544 141.251 38.8395" stroke="black" stroke-width="2" stroke-linecap="round"/>
<path d="M140.574 39.21C140.574 39.544 140.574 40.5844 140.574 41.2381" stroke="black" stroke-width="2" stroke-linecap="round"/>
<path d="M121.651 41.1856L125.003 36.5058L125.706 41.9141L121.651 41.1856Z" fill="#D7090A"/>
<path d="M124.949 36.5058L121.651 40.986L125.706 41.9141" stroke="black" stroke-width="2" stroke-linecap="round"/>
<path d="M125.03 45.2942C125.63 45.2942 127.146 45.2942 128.409 45.2942" stroke="black" stroke-width="2" stroke-linecap="round"/>
<path d="M127.058 33.1256C127.551 33.1347 128.782 33.2827 129.761 33.8016" stroke="black" stroke-width="2" stroke-linecap="round"/>
<path d="M127.851 37.3294C128.43 37.362 128.927 36.9185 128.959 36.3388C128.992 35.759 128.548 35.2625 127.969 35.2299C127.389 35.1972 126.892 35.6408 126.86 36.2205C126.827 36.8003 127.271 37.2967 127.851 37.3294Z" fill="black"/>
<path d="M123.678 31.803C123.198 31.7274 121.985 31.7509 120.975 32.4496" stroke="black" stroke-width="2" stroke-linecap="round"/>
<path d="M121.418 36.3418C121.998 36.3744 122.494 35.9309 122.527 35.3512C122.559 34.7714 122.116 34.2749 121.536 34.2423C120.956 34.2096 120.46 34.6532 120.427 35.2329C120.395 35.8127 120.838 36.3091 121.418 36.3418Z" fill="black"/>
<path d="M130.526 42.8175C131.681 42.8825 132.67 41.9987 132.735 40.8435C132.8 39.6882 131.916 38.699 130.761 38.6339C129.606 38.5689 128.617 39.4527 128.552 40.6079C128.487 41.7632 129.371 42.7524 130.526 42.8175Z" fill="#D7090A"/>
<path d="M82.5986 74.6842C88.1824 71.1832 96.2342 70.3076 99.5625 70.3076C101.596 70.4274 106.1 71.7776 107.844 76.2197C109.588 80.6619 103.05 86.7291 99.5625 89.2074C97.1716 88.6769 91.4196 88.0537 87.5424 89.8042C81.8761 92.3624 71.8817 92.7355 65.6351 92.5893C58.8109 92.4303 59.7545 89.2074 61.0792 87.6159C60.2068 87.7158 58.1711 87.3179 57.0079 84.9298C55.8447 82.5426 59.2375 81.0837 61.0792 80.6531C61.2343 78.7428 63.5349 77.9335 64.6658 77.7681C64.6981 77.0387 65.2668 75.5598 67.2831 75.4799C69.8038 75.3809 75.6196 79.0616 82.5986 74.6842Z" fill="#ED4546"/>
<path d="M48.6338 66.5497V35.9297L66.5012 27.8143L75.3667 36.2025L74.8893 66.7543L66.5012 66.5497V31.4287L51.9754 38.112V66.5497H48.6338Z" fill="#3D98E7"/>
<path d="M54.2939 41.0443V44.8633L63.5686 41.7945V36.8844L54.2939 41.0443Z" fill="black"/>
<path d="M54.2939 48.5459V51.8194L63.5686 50.1826V45.6817L54.2939 48.5459Z" fill="black"/>
<path d="M54.2939 55.5022V59.4575L63.5686 58.9802V54.3428L54.2939 55.5022Z" fill="black"/>
<path d="M54.2939 66.7546L54.7031 62.8674H63.5686V66.7546H54.2939Z" fill="black"/>
<path d="M63.568 27.3369V25.0183L77.821 18.4032V66.5497H86.0727V24.8137L77.821 15.198L60.1582 23.3816V28.7009L63.568 27.3369Z" fill="#3D98E7"/>
<path d="M87.3008 32.7245L90.6424 31.2242V66.5498H98.8259V37.6346L90.6424 28.019L87.3008 29.5193V32.7245Z" fill="#3D98E7"/>
<path d="M75.3661 36.2024L74.8887 66.7543" stroke="black" stroke-width="2" stroke-linecap="round"/>
<path d="M86.0742 66.5499V24.8139" stroke="black" stroke-width="2" stroke-linecap="round"/>
<path d="M77.8213 18.4033V66.5498" stroke="black" stroke-width="2" stroke-linecap="round"/>
<path d="M98.8262 66.55V37.6348" stroke="black" stroke-width="2" stroke-linecap="round"/>
<path d="M90.6426 31.2239V66.5495" stroke="black" stroke-width="2" stroke-linecap="round"/>
<path d="M85.8325 82.4986C82.8801 83.15 76.2529 84.2575 73.3581 83.4761C69.7402 82.4986 69.4546 79.2747 72.0255 78.1018M69.8354 78.1018C67.3595 77.5158 62.3128 77.2228 61.9319 80.7405M69.3594 81.7173C66.5025 80.7728 60.256 79.8024 58.123 83.4761M62.3451 87.2869C64.388 87.8501 68.9625 89.13 70.9162 89.7492C73.3581 90.5234 79.0756 90.8747 82.6414 90.3123" stroke="black" stroke-width="2" stroke-linecap="round"/>
<path d="M157.679 38.5339C147.628 41.2241 136.913 60.4842 136.913 60.4842C141.161 64.7197 147.347 64.1434 141.45 72.8044C138.451 78.3407 132.119 89.6238 130.774 90.466C129.092 91.5186 123.304 83.6431 120.723 82.1615C118.658 80.9763 117.177 81.6679 116.695 82.1615L107.505 72.8044L95.9688 89.4133L104.729 97.4838C104.298 98.4717 103.696 101.047 104.729 103.449C106.019 106.451 113.058 111.948 116.695 117.914C120.332 123.879 124.986 128.557 130.109 131.325C134.207 133.54 137.786 130.403 139.064 128.557C138.855 129.402 138.564 131.692 139.064 134.094C139.565 136.495 137.864 142.45 136.952 145.127C138.947 144.061 145.454 141.548 155.528 140.02C165.602 138.491 179.356 142.788 184.975 145.127C190.45 146.271 201.4 147.232 201.4 141.93C200.774 132.768 193.813 82.1615 183.372 65.5136C179.74 59.7236 166.321 42.7446 157.679 38.5339Z" fill="#FFDC4D"/>
<path d="M179.106 120.157C178.821 129.301 186.013 136.943 195.169 137.227C197.107 137.287 198.977 137.012 200.725 136.456C200.725 136.456 199.427 126.627 198.419 120.356C197.397 113.992 195.518 104.109 195.518 104.109C186.666 104.192 179.383 111.242 179.106 120.157Z" fill="#FFB84D"/>
<path d="M154.768 117.63C163.353 117.63 170.312 110.366 170.312 101.405C170.312 92.4443 163.353 85.1802 154.768 85.1802C146.183 85.1802 139.224 92.4443 139.224 101.405C139.224 110.366 146.183 117.63 154.768 117.63Z" fill="#FFB84D"/>
<path d="M140.766 130.474C140.196 130.474 139.633 130.504 139.079 130.562C139.079 131.487 138.961 133.083 139.354 135.38C139.655 137.144 137.875 142.7 137.195 145.347C140.766 143.595 148.506 141.088 155.443 140.247C153.077 134.513 147.396 130.474 140.766 130.474Z" fill="#FFB84D"/>
<path d="M112.189 92.6864C112.189 86.8072 108.728 81.6966 103.637 79.0959L95.9688 89.3659L104.922 97.4572C104.333 98.9709 103.728 102.556 106.025 104.785C109.78 101.961 112.189 97.5915 112.189 92.6864Z" fill="#FFB84D"/>
<path d="M156.795 45.3036C156.795 53.8858 163.75 60.843 172.33 60.843C174.756 60.843 177.052 60.2868 179.098 59.2949C179.098 59.2949 172.714 50.9534 168.177 46.496C161.717 40.1494 157.949 38.5339 157.949 38.5339C157.059 40.4918 156.795 43.0128 156.795 45.3036Z" fill="#FFB84D"/>
<path d="M139.899 127.77C148.131 122.294 152.475 115.591 156.677 111.303C160.879 107.015 173.024 88.1029 176.395 84.5042" stroke="black" stroke-width="2" stroke-linecap="round"/>
<path d="M133.735 93.6784C134.555 94.9109 136.261 97.7211 136.519 99.1054M131.112 92.6166C131.556 93.875 132.46 97.2806 132.525 100.836C132.589 104.391 132.551 106.302 132.525 106.813L131.112 92.6166Z" stroke="black" stroke-width="2" stroke-linecap="round"/>
<path d="M174.367 92.6166C173.66 94.2995 171.861 98.6843 170.312 102.757" stroke="black" stroke-width="2" stroke-linecap="round"/>
<path d="M155.345 43.3429L158.518 48.0593M140.574 57.9988C141.292 58.8563 143.52 61.0313 146.686 62.8711L140.574 57.9988ZM142.768 53.4383L146.686 56.2448L142.768 53.4383ZM149.546 45.7206C151.153 46.76 154.561 49.1663 155.345 50.4759L149.546 45.7206ZM162.201 45.7206C161.418 44.5122 159.584 41.9241 158.518 41.238L162.201 45.7206ZM146.686 49.4235L151.662 53.4383L146.686 49.4235Z" stroke="black" stroke-width="2" stroke-linecap="round"/>
<path d="M107.332 77.7438L113.541 82.7214M99.3486 89.9371L105.944 94.6446L99.3486 89.9371ZM101.701 86.5029L107.332 91.4805L101.701 86.5029ZM104.709 82.2584L110.34 87.7376L104.709 82.2584Z" stroke="black" stroke-width="2" stroke-linecap="round"/>
</svg>
