<svg width="245" height="210" viewBox="0 0 245 210" fill="none" xmlns="http://www.w3.org/2000/svg">
<path d="M90 63C107.121 63 121 49.1208 121 32C121 14.8792 107.121 1 90 1C72.8792 1 59 14.8792 59 32C59 49.1208 72.8792 63 90 63Z" fill="white"/>
<path d="M90 63C107.121 63 121 49.1208 121 32C121 14.8792 107.121 1 90 1C72.8792 1 59 14.8792 59 32C59 49.1208 72.8792 63 90 63Z" stroke="#242938" stroke-width="2"/>
<path d="M74.5449 39.0014C73.7912 34.6358 63.8676 32.5148 59 32C59 47.339 70.1938 60.6352 85.2357 62.622C85.4974 62.4809 86.3425 61.1485 86.845 59.9541C87.4731 58.4612 86.2693 55.9901 81.8201 56.299C79.5229 56.4585 75.487 44.4584 74.5449 39.0014Z" fill="#242938"/>
<path d="M106.808 13.6862C107.746 11.4053 103.317 5.61463 100.99 3.00293C108.243 5.62582 113.763 10.8756 117.161 17.1054C116.501 17.3343 115.731 17.7096 114.569 17.963C113.118 18.2798 105.635 16.5374 106.808 13.6862Z" fill="#242938"/>
<path d="M99.6531 61.4287C99.0955 59.7273 91.2887 51.563 93.4406 46.7393C102.344 38.9466 89.6252 28.0417 90.0085 25.1372C91.3814 14.7321 112.449 27.4083 120 25.9821" stroke="#242938" stroke-width="2"/>
<path d="M61.5215 19.7725C64.5696 21.0716 75.7976 18.8269 77.7227 14.628C80.1291 9.37928 76.7066 8.02814 80.4499 6.83289C83.4446 5.8767 84.2625 2.36471 84.1017 1.58521" stroke="#242938" stroke-width="2"/>
<path d="M50.4811 175.236L55.7131 167.393L74.7271 181.595L47.0781 179.942L50.4811 175.236Z" fill="#D58B8B"/>
<path d="M242.828 183.147C244.635 178.464 243.58 168.441 242.828 164.015C241.559 156.555 230.347 159.984 224.711 163.082C225.521 167.763 227.213 179.168 227.491 187.347C227.769 195.526 224.928 195.661 223.19 196.298L209.722 197.782C207.463 199.267 202.51 210 202.51 210H244.131C245.435 208.345 240.569 189.001 242.828 183.147Z" fill="#242938"/>
<path d="M79.0817 193.77C79.839 185.489 77.0733 184.149 75.5966 182.46C75.5966 182.46 67.6796 174.834 62.0863 178.966C56.665 169.935 49.3936 172.108 49.3936 172.108C48.8343 172.292 47.2079 173.096 45.1771 174.834C42.6386 177.007 33.8183 180.841 18.8023 182.46C6.52185 183.784 7.31973 183.739 3.95838 191.674C2.2006 195.825 0 206.636 0 206.636H75.5966C75.5966 206.636 78.3245 202.052 79.0817 193.77Z" fill="#242938"/>
<path d="M50.0661 175.616C48.8422 169.97 45.3998 159.5 41.4204 162.786C37.4411 166.072 45.5262 172.709 50.0661 175.616Z" stroke="#242938" stroke-width="2"/>
<path d="M49.3215 175.616C46.4627 170.367 40.1476 161.028 37.7578 165.65C35.3681 170.271 44.4712 174.219 49.3215 175.616Z" stroke="#242938" stroke-width="2"/>
<path d="M222.567 143.84L227.663 176.712C228.7 186.5 230.168 195.595 224.813 196.981C220.643 198.06 213.856 197.832 210.646 197.933C210.059 198.634 209.163 199.676 208.328 200.878C207.278 202.393 206.291 203.091 205.125 204.768C200.268 208.131 136.588 205.555 101.156 204.484L100.812 204.473C97.2984 203.492 91.0936 198.306 94.3761 185.417C96.4692 177.198 112.046 166.722 127.676 158.237C124.451 148.471 117.129 129.054 113.639 129.504C110.149 129.955 75.3719 181.909 75.3719 181.909L44.8359 159.301C44.8359 159.301 88.6922 94.6314 92.9076 91.132C98.1769 86.7578 106.383 85.2419 115.41 88.187C122.632 90.543 160.659 122.807 178.771 138.645C181.101 138.613 183.538 138.721 186.07 139.001C188.52 139.273 191.058 139.706 193.672 140.332C195.198 140.697 196.651 141.032 198.034 141.339C201.479 142.105 204.488 142.697 207.104 143.148C217.583 144.953 221.777 144.492 222.567 143.84Z" fill="#242938"/>
<path d="M150.947 147.959L130.023 157.676" stroke="white" stroke-width="2" stroke-linecap="round"/>
<path d="M114.308 127.777C114.434 124.872 114.167 118.713 112.092 117.312" stroke="white" stroke-width="2" stroke-linecap="round"/>
<path d="M112.09 128.524C111.803 126.774 110.952 123.129 109.848 122.544" stroke="white" stroke-width="2" stroke-linecap="round"/>
<path d="M206.248 197.293C190.243 194.52 154.411 189.567 139.116 191.936C123.821 194.306 119.708 195.656 119.564 196.035" stroke="white" stroke-width="2" stroke-linecap="round"/>
<path d="M183.08 150.949C184.776 158.291 192.083 172.905 207.74 172.622" stroke="white" stroke-width="2" stroke-linecap="round"/>
<path d="M170.347 28.4409C169.779 38.6281 164.561 49.0945 154.475 48.521C154.123 48.521 150.359 45.8467 150.021 45.8439C145.044 45.8027 141.536 45.407 138.822 43.1493C134.478 39.535 133.48 32.4745 133.821 26.3638C134.389 16.1766 143.026 8.38322 153.112 8.95673C163.198 9.53032 170.915 18.2536 170.347 28.4409Z" fill="#D58B8B"/>
<path d="M170.349 28.4058C170.904 18.2368 163.368 9.52917 153.517 8.95669C151.321 8.82905 149.196 9.11642 147.213 9.75263C148.465 12.3688 151.18 18.7485 152.013 23.3379C152.845 27.9272 153.292 30.3983 153.41 31.0601C153.413 32.816 155.035 37.7245 161.498 43.3112C166.506 40.2971 170 34.828 170.349 28.4058Z" fill="#242938"/>
<path d="M153.234 8.3791C145.967 7.95189 139.446 11.9831 136.113 18.1956L170.562 25.9927C169.824 16.5733 162.528 8.92535 153.234 8.3791Z" fill="#EC5B60"/>
<path d="M170.378 25.3716L122.553 16.4019" stroke="#242938" stroke-width="2" stroke-linecap="round"/>
<path d="M152.07 34.7874C153.685 35.8486 156.038 35.1186 157.326 33.1571C158.615 31.1955 158.35 28.745 156.735 27.6838C155.12 26.6226 152.766 27.3525 151.478 29.3141C150.19 31.2757 150.455 33.7261 152.07 34.7874Z" fill="#AD5B5B"/>
<path d="M152.441 30.6041C153.193 29.5354 154.915 28.5789 156.178 29.447" stroke="#242938" stroke-width="2" stroke-linecap="round"/>
<path d="M155.432 29.8566C155.432 30.2259 155.432 31.3763 155.432 32.099" stroke="#242938" stroke-width="2" stroke-linecap="round"/>
<path d="M134.508 32.0411L138.214 26.8667L138.991 32.8466L134.508 32.0411Z" fill="#AD5B5B"/>
<path d="M138.154 26.8667L134.508 31.8204L138.991 32.8466" stroke="#242938" stroke-width="2" stroke-linecap="round"/>
<path d="M138.246 36.5839C138.909 36.5839 140.586 36.5839 141.982 36.5839" stroke="#242938" stroke-width="2" stroke-linecap="round"/>
<path d="M140.484 23.1293C141.03 23.1394 142.39 23.303 143.473 23.8768" stroke="#242938" stroke-width="2" stroke-linecap="round"/>
<path d="M141.364 27.7773C142.005 27.8134 142.554 27.323 142.59 26.6819C142.626 26.0409 142.136 25.492 141.495 25.4559C140.854 25.4198 140.305 25.9102 140.269 26.5512C140.233 27.1922 140.723 27.7412 141.364 27.7773Z" fill="#242938"/>
<path d="M136.749 21.667C136.218 21.5833 134.876 21.6093 133.76 22.3819" stroke="#242938" stroke-width="2" stroke-linecap="round"/>
<path d="M134.253 26.6852C134.894 26.7213 135.443 26.2309 135.479 25.5899C135.515 24.9489 135.024 24.3999 134.383 24.3638C133.742 24.3277 133.193 24.8181 133.157 25.4592C133.121 26.1002 133.612 26.6491 134.253 26.6852Z" fill="#242938"/>
<path d="M144.321 33.8453C145.598 33.9172 146.692 32.94 146.764 31.6626C146.836 30.3853 145.859 29.2915 144.582 29.2196C143.305 29.1477 142.211 30.1249 142.139 31.4022C142.067 32.6796 143.044 33.7734 144.321 33.8453Z" fill="#AD5B5B"/>
<path d="M91.3273 69.0799C97.5013 65.2089 106.404 64.2407 110.084 64.2407C112.333 64.3732 117.313 65.8662 119.241 70.7778C121.169 75.6894 113.94 82.3978 110.084 85.1381C107.441 84.5515 101.081 83.8625 96.7937 85.798C90.5285 88.6266 79.4778 89.0391 72.5711 88.8774C65.0256 88.7016 66.0689 85.1381 67.5337 83.3784C66.569 83.4888 64.3182 83.0489 63.0321 80.4084C61.7459 77.7689 65.4973 76.1558 67.5337 75.6797C67.7051 73.5675 70.2488 72.6726 71.4992 72.4898C71.5349 71.6832 72.1638 70.0481 74.3932 69.9598C77.1803 69.8502 83.6107 73.92 91.3273 69.0799Z" fill="#D58B8B"/>
<path d="M94.9037 77.7204C91.6392 78.4407 84.3117 79.6652 81.1109 78.8012C77.1106 77.7204 76.7948 74.1557 79.6374 72.8589M77.2158 72.8589C74.4783 72.211 68.8982 71.887 68.477 75.7765M76.6896 76.8565C73.5307 75.8122 66.6241 74.7393 64.2656 78.8012M68.9339 83.0147C71.1927 83.6375 76.2507 85.0527 78.4109 85.7372C81.1109 86.5933 87.4327 86.9818 91.3753 86.3599" stroke="#242938" stroke-width="2" stroke-linecap="round"/>
<path d="M174.343 29.1091C163.231 32.0836 151.383 53.3793 151.383 53.3793C156.08 58.0624 162.92 57.4252 156.399 67.0016C153.083 73.123 146.082 85.5987 144.595 86.5298C142.735 87.6937 136.336 78.9858 133.482 77.3477C131.199 76.0372 129.561 76.8019 129.028 77.3477L118.867 67.0016L106.111 85.3659L115.797 94.2894C115.321 95.3817 114.655 98.2295 115.797 100.885C117.224 104.204 125.007 110.283 129.028 116.878C133.05 123.474 138.195 128.647 143.86 131.708C148.391 134.156 152.348 130.688 153.761 128.647C153.53 129.581 153.208 132.113 153.761 134.768C154.315 137.424 152.435 144.008 151.426 146.968C153.632 145.789 160.827 143.011 171.965 141.321C183.104 139.631 198.312 144.382 204.525 146.968C210.578 148.233 222.685 149.296 222.685 143.433C221.994 133.303 214.297 77.3477 202.752 58.9403C198.737 52.5383 183.899 33.7649 174.343 29.1091Z" fill="#EC5B60"/>
<path d="M198.034 119.359C197.72 129.469 205.672 137.919 215.796 138.233C217.938 138.299 220.006 137.996 221.938 137.381C221.938 137.381 220.504 126.513 219.389 119.579C218.259 112.543 216.181 101.615 216.181 101.615C206.394 101.706 198.341 109.502 198.034 119.359Z" fill="#F6F6F7"/>
<path d="M171.125 116.565C180.617 116.565 188.312 108.533 188.312 98.625C188.312 88.7173 180.617 80.6854 171.125 80.6854C161.632 80.6854 153.938 88.7173 153.938 98.625C153.938 108.533 161.632 116.565 171.125 116.565Z" fill="#F6F6F7"/>
<path d="M155.644 130.767C155.013 130.767 154.391 130.799 153.778 130.864C153.778 131.886 153.648 133.651 154.082 136.191C154.415 138.141 152.447 144.284 151.695 147.211C155.644 145.274 164.201 142.502 171.872 141.572C169.255 135.233 162.974 130.767 155.644 130.767Z" fill="white"/>
<path d="M124.046 88.9848C124.046 82.4842 120.219 76.8336 114.59 73.958L106.111 85.3133L116.011 94.2598C115.359 95.9335 114.691 99.8978 117.231 102.362C121.382 99.2395 124.046 94.4084 124.046 88.9848Z" fill="#F6F6F7"/>
<path d="M173.367 36.5943C173.367 46.0835 181.058 53.7761 190.544 53.7761C193.226 53.7761 195.765 53.161 198.027 52.0643C198.027 52.0643 190.968 42.8412 185.952 37.9127C178.809 30.8954 174.643 29.1091 174.643 29.1091C173.659 31.2739 173.367 34.0614 173.367 36.5943Z" fill="#F6F6F7"/>
<path d="M154.686 127.777C163.788 121.722 168.59 114.31 173.236 109.569C177.883 104.828 191.311 83.917 195.038 79.9379" stroke="#242938" stroke-width="2" stroke-linecap="round"/>
<path d="M147.871 90.0817C148.777 91.4445 150.663 94.5517 150.949 96.0823M144.971 88.9077C145.461 90.2992 146.461 94.0647 146.532 97.9955C146.604 101.926 146.562 104.04 146.532 104.605L144.971 88.9077Z" stroke="#242938" stroke-width="2" stroke-linecap="round"/>
<path d="M192.796 88.9077C192.015 90.7685 190.026 95.6168 188.312 100.12" stroke="#242938" stroke-width="2" stroke-linecap="round"/>
<path d="M171.763 34.4264L175.272 39.6413M155.432 50.6313C156.225 51.5795 158.689 53.9843 162.19 56.0186L155.432 50.6313ZM157.858 45.5888L162.19 48.6919L157.858 45.5888ZM165.352 37.0554C167.128 38.2047 170.897 40.8653 171.763 42.3134L165.352 37.0554ZM179.344 37.0554C178.478 35.7194 176.45 32.8576 175.272 32.0991L179.344 37.0554ZM162.19 41.1497L167.691 45.5888L162.19 41.1497Z" stroke="#242938" stroke-width="2" stroke-linecap="round"/>
<path d="M118.675 72.463L125.54 77.9667M109.848 85.945L117.14 91.1501L109.848 85.945ZM112.449 82.1479L118.675 87.6516L112.449 82.1479ZM115.775 77.4548L122.001 83.5131L115.775 77.4548Z" stroke="#242938" stroke-width="2" stroke-linecap="round"/>
</svg>
