<svg width="268" height="218" viewBox="0 0 268 218" fill="none" xmlns="http://www.w3.org/2000/svg">
<path d="M248 27.6431C236.454 2.84556 214.388 10.0088 204.8 16.6902C207.859 22.4162 215.41 33.8979 225.56 35.3033C235.707 36.7087 245.117 30.8891 248 27.6431Z" fill="white"/>
<path d="M222.051 32.1145C226.955 35.0193 233.285 33.3983 236.19 28.4939C239.095 23.5895 237.474 17.259 232.57 14.3542C227.665 11.4495 221.335 13.0705 218.43 17.9749C215.525 22.8792 217.146 29.2098 222.051 32.1145Z" fill="#242938"/>
<path d="M206.6 13.9188L203 6.71875" stroke="#242938" stroke-width="2" stroke-linecap="round"/>
<path d="M214.8 8.51836L213 1.31836" stroke="#242938" stroke-width="2" stroke-linecap="round"/>
<path d="M225.527 8.6294L225.473 1.20801" stroke="#242938" stroke-width="2" stroke-linecap="round"/>
<path d="M235.4 10.318L237.2 4.91797" stroke="#242938" stroke-width="2" stroke-linecap="round"/>
<path d="M244.4 19.318L249.8 13.918" stroke="#242938" stroke-width="2" stroke-linecap="round"/>
<path d="M249.8 26.5187L257 24.7188" stroke="#242938" stroke-width="2" stroke-linecap="round"/>
<path d="M171 47L170.531 11.208H1V146.435L176 152.208L175.759 146" stroke="#242938" stroke-width="2"/>
<path d="M1 9.20801H172V39.208H1V9.20801Z" fill="#242938"/>
<path d="M158.5 32.208C154.358 32.208 151 28.8501 151 24.708C151 20.5659 154.358 17.208 158.5 17.208C162.642 17.208 166 20.5659 166 24.708C166 28.8501 162.642 32.208 158.5 32.208Z" fill="white"/>
<path d="M139.5 32.208C135.358 32.208 132 28.8501 132 24.708C132 20.5659 135.358 17.208 139.5 17.208C143.642 17.208 147 20.5659 147 24.708C147 28.8501 143.642 32.208 139.5 32.208Z" fill="white"/>
<path d="M120.5 32.208C116.358 32.208 113 28.8501 113 24.708C113 20.5659 116.358 17.208 120.5 17.208C124.642 17.208 128 20.5659 128 24.708C128 28.8501 124.642 32.208 120.5 32.208Z" fill="white"/>
<path d="M197.776 119.952L254.497 169.131L246.735 178.207L190.345 129.194L197.776 119.952Z" fill="#242938"/>
<path d="M122.787 122.837C138.133 143.083 166.808 147.191 186.834 132.011C206.86 116.831 210.654 88.1131 195.308 67.867C179.961 47.6208 151.286 43.5135 131.26 58.693C111.234 73.8726 107.44 102.591 122.787 122.837Z" stroke="#242938" stroke-width="2"/>
<path d="M127.568 119.213C140.912 136.818 166.062 140.227 183.74 126.827C194.07 118.997 199.563 107.16 199.683 95.1601L127.568 119.213Z" fill="white"/>
<path d="M181.877 61.7349C168.119 53.1093 149.71 53.4917 135.783 64.0486C130.987 67.6836 127.209 72.1558 124.505 77.0946L181.877 61.7349Z" fill="white"/>
<path d="M120.043 92.2914L191.444 71.0464C195.799 76.7918 198.351 83.3405 199.196 90.0161L124.302 113.248C120.913 106.649 119.531 99.3911 120.043 92.2914Z" fill="white"/>
</svg>
