<svg width="226" height="76" viewBox="0 0 226 76" fill="none" xmlns="http://www.w3.org/2000/svg">
<path d="M99 31H225.397C226.575 28.6679 226.828 23.2954 218.413 20.4623C209.999 17.6292 202.952 21.6428 200.48 24.0036C199.675 16.489 194.479 1.18339 180.132 0.077795C165.786 -1.0278 161.279 9.92453 160.819 15.5389C147.645 -2.77258 136.132 11.1915 132.022 20.4623C118.296 15.6944 104.289 25.5009 99 31Z" fill="#D1EAFF"/>
<path d="M146 75H1.68745C0.343128 72.4421 0.0554867 66.5498 9.66243 63.4426C19.2694 60.3352 27.3148 64.7373 30.1385 67.3266C31.0572 59.0848 36.9892 42.2979 53.3707 41.0853C69.7491 39.8728 74.8945 51.885 75.4199 58.0428C90.46 37.9591 103.607 53.2743 108.297 63.4426C123.968 58.2131 139.962 68.9685 146 75Z" stroke="black"/>
</svg>
