<svg width="270" height="332" viewBox="0 0 270 332" fill="none" xmlns="http://www.w3.org/2000/svg">
<path d="M102.581 231.103L37.3184 233.434L42.1136 99.521H190.265V227.969L160.623 229.028" stroke="#587291" stroke-width="2"/>
<path opacity="0.2" d="M207.939 171.576L141.322 171.252L142.96 97.8037L156.679 82.5273L203.727 82.7569L207.939 171.576Z" fill="#787B84"/>
<path d="M156.365 82.5273L142.682 97.4821L159.676 96.8946L156.365 82.5273Z" fill="#242938"/>
<path d="M79.469 167.885L14.2061 170.216L19.0013 36.3032H167.153V164.751L137.512 165.81" stroke="#242938" stroke-width="2"/>
<path d="M38.6777 134.189L56.4657 105.916L76.7795 127.917L99.4578 90.6712L116.225 118.944L141.322 70.291" stroke="#242938" stroke-width="2" stroke-linecap="round"/>
<path d="M25.7627 159.34H74.0258M25.7627 150.503H56.1012H25.7627Z" stroke="#242938" stroke-width="2" stroke-linecap="round"/>
<path d="M167.152 36.3032H18.9639V62.814H167.152V36.3032Z" fill="#242938"/>
<path d="M30.5202 56.6963C33.899 56.6963 36.6381 53.6529 36.6381 49.8987C36.6381 46.1445 33.899 43.1011 30.5202 43.1011C27.1414 43.1011 24.4023 46.1445 24.4023 49.8987C24.4023 53.6529 27.1414 56.6963 30.5202 56.6963Z" fill="white"/>
<path d="M46.8347 56.6963C50.2135 56.6963 52.9525 53.6529 52.9525 49.8987C52.9525 46.1445 50.2135 43.1011 46.8347 43.1011C43.4559 43.1011 40.7168 46.1445 40.7168 49.8987C40.7168 53.6529 43.4559 56.6963 46.8347 56.6963Z" fill="white"/>
<path d="M63.1491 56.6963C66.5279 56.6963 69.267 53.6529 69.267 49.8987C69.267 46.1445 66.5279 43.1011 63.1491 43.1011C59.7703 43.1011 57.0312 46.1445 57.0312 49.8987C57.0312 53.6529 59.7703 56.6963 63.1491 56.6963Z" fill="white"/>
<path d="M42.7568 73.2226L47.128 67.5723L83.5426 99.3846L81.3334 102.24L42.7568 73.2226Z" fill="#242938"/>
<path d="M35.959 89.9894L38.3333 83.207L83.5423 101.532L82.3425 104.959L35.959 89.9894Z" fill="#242938"/>
<path d="M37.998 81.1914L41.4607 75.0498L82.1826 100.496L80.4327 103.6L37.998 81.1914Z" fill="#242938"/>
<path d="M73.1802 123.902C79.3086 137.63 94.715 144.716 107.365 138.994C130.652 130.333 125.116 116.912 118.987 103.183C112.859 89.4548 97.637 82.9634 84.9873 88.6847C72.3381 94.4059 67.0518 110.173 73.1802 123.902Z" fill="#D58B8B"/>
<path d="M115.491 128.751L108.014 130.2C108.745 131.006 110.614 132.191 112.043 132.149C114.402 132.08 115.072 130.165 115.491 128.751Z" stroke="#242938" stroke-width="2"/>
<path d="M117.531 123L112.638 116.515L111.413 123.993L117.531 123Z" fill="#AD5B5B"/>
<path d="M112.626 116.515L117.531 123.088L111.413 123.993" stroke="#242938" stroke-width="2" stroke-linecap="round"/>
<path d="M118.719 116.326C117.79 116.743 116.692 116.312 116.265 115.363C115.839 114.414 116.246 113.306 117.175 112.889C118.104 112.471 119.202 112.902 119.629 113.852C120.055 114.801 119.648 115.908 118.719 116.326Z" fill="#242938"/>
<path d="M105.35 121.957C104.421 122.375 103.323 121.944 102.896 120.995C102.47 120.045 102.877 118.938 103.806 118.52C104.734 118.103 105.833 118.534 106.259 119.483C106.686 120.432 106.279 121.54 105.35 121.957Z" fill="#242938"/>
<path d="M101.895 112.436C100.289 112.963 98.4665 114.314 97.8164 115.835" stroke="#242938" stroke-width="2" stroke-linecap="round"/>
<path d="M115.49 108.358C116.905 108.358 118.937 108.358 120.249 108.358" stroke="#242938" stroke-width="2" stroke-linecap="round"/>
<path d="M85.2301 130.185C83.1961 132.482 78.9951 132.009 75.8467 129.13C72.6984 126.25 71.795 122.054 73.8289 119.758C75.8629 117.461 80.064 117.933 83.2123 120.813C86.3606 123.692 87.264 127.889 85.2301 130.185Z" fill="#AD5B5B"/>
<path d="M82.863 123.992C81.5207 122.72 78.4671 121.182 76.7451 121.278" stroke="#242938" stroke-width="2" stroke-linecap="round"/>
<path d="M78.7843 121.953C78.146 122.954 77.8182 125.018 78.4283 126.031" stroke="#242938" stroke-width="2" stroke-linecap="round"/>
<path d="M105.789 127.345C104.833 127.775 103.702 127.331 103.262 126.354C102.823 125.376 103.243 124.236 104.199 123.806C105.155 123.376 106.287 123.82 106.726 124.797C107.165 125.775 106.746 126.915 105.789 127.345Z" fill="#AD5B5B"/>
<path d="M120.765 122.198C119.809 122.627 118.677 122.184 118.238 121.206C117.799 120.229 118.218 119.088 119.175 118.658C120.131 118.229 121.262 118.673 121.701 119.65C122.141 120.627 121.721 121.768 120.765 122.198Z" fill="#AD5B5B"/>
<path d="M90.8318 111.893C106.045 111.406 115.303 102.532 114.791 95.7469C114.681 94.3 106.742 87.3337 101.442 86.9683C85.9533 82.3963 71.6135 93.6774 68.6592 104.949C64.3995 124.773 79.2674 135.567 87.3858 138.267C87.3858 138.267 88.2511 134.408 85.5669 129.576C84.7517 129.018 84.9488 130.402 82.5455 130.097C75.0777 129.15 72.2763 122.222 74.9883 119.898C79.2099 116.28 84.025 120.791 86.0132 125.177C87.2308 124.369 86.511 121.107 85.3177 119.492C83.1854 116.605 79.3225 113.72 79.4495 112.198C80.1867 110.688 83.4637 112.129 90.8318 111.893Z" fill="#242938"/>
<path d="M142.682 171.236C142.682 174.787 141.832 178.135 140.328 181.082C136.818 187.955 129.753 192.649 121.61 192.649C109.971 192.649 100.537 183.062 100.537 171.236C100.537 163.954 104.114 157.519 109.584 153.65C112.995 151.237 117.138 149.824 121.61 149.824C123.466 149.824 125.266 150.068 126.98 150.526C136.018 152.938 142.682 161.297 142.682 171.236Z" stroke="#242938" stroke-width="2"/>
<path d="M82.1799 181.093C74.7832 181.093 68.766 175.309 68.5869 168.108L85.2517 154.582C90.9598 156.222 95.7774 161.752 95.7774 167.778C95.7774 169.986 95.2287 172.067 94.2582 173.899C91.9932 178.174 87.434 181.093 82.1799 181.093Z" stroke="#242938" stroke-width="2" stroke-linecap="round"/>
<path d="M140.642 303.921C140.642 296.825 144.245 290.555 149.756 286.785C153.191 284.435 157.365 283.057 161.87 283.057C163.74 283.057 165.553 283.295 167.28 283.741C173.147 285.256 178.024 289.179 180.748 294.37C175.86 298.638 168.255 301.513 160.58 303.362C153.068 305.171 145.593 305.973 140.763 306.169C140.683 305.431 140.642 304.68 140.642 303.921Z" stroke="#242938" stroke-width="2"/>
<path d="M202.501 223.238C202.501 228.874 201.129 234.188 198.702 238.866C193.043 249.775 181.647 257.226 168.513 257.226C149.741 257.226 134.524 242.009 134.524 223.238C134.524 211.677 140.296 201.464 149.118 195.323C154.618 191.495 161.302 189.25 168.513 189.25C171.507 189.25 174.41 189.637 177.175 190.364C191.751 194.193 202.501 207.461 202.501 223.238Z" stroke="#242938" stroke-width="2"/>
<path d="M157.636 268.782C157.636 274.418 156.251 279.732 153.8 284.41C148.084 295.319 136.574 302.77 123.308 302.77C104.35 302.77 88.9805 287.553 88.9805 268.782C88.9805 257.221 94.8095 247.008 103.72 240.867C109.275 237.038 116.026 234.793 123.308 234.793C126.333 234.793 129.265 235.181 132.058 235.908C146.779 239.737 157.636 253.005 157.636 268.782Z" stroke="#242938" stroke-width="2"/>
<path d="M153.238 219.126C155.18 215.603 156.277 211.601 156.277 207.36C156.277 195.482 147.676 185.494 136.017 182.611C133.804 182.064 131.481 181.773 129.087 181.773C123.319 181.773 117.971 183.462 113.571 186.345C106.515 190.967 101.896 198.656 101.896 207.36C101.896 214.685 105.168 221.292 110.413 225.957" stroke="#242938" stroke-width="2"/>
<path d="M87.6201 138.244C90.5931 139.839 97.7716 141.795 104.219 140.637C108.621 139.846 113.839 136.9 114.811 136.229" stroke="#242938" stroke-width="2" stroke-linecap="round"/>
<path d="M150.671 134.727C145.336 134.727 127.713 142.089 119.57 145.769C120.358 147.083 122.723 150.574 125.875 154.02C129.816 158.327 147.882 200.068 150.671 212.687C153.459 225.306 155.763 245.327 157.339 255.58C158.6 263.783 168.332 288.645 173.041 300.051C190.937 295.634 210.123 278.553 217.479 270.566L202.929 218.997C209.355 224.235 225.275 234.395 237.546 233.133C252.884 231.555 255.672 223.304 257.248 218.997C258.825 214.689 262.341 204.8 265.857 194.972C269.373 185.143 269.798 159.541 269.798 149.712C269.798 139.884 268.828 104.15 268.403 100.995C268.277 100.057 231.808 105.2 224.996 105.606L228.512 137.882C228.512 163.242 227.056 165.048 222.208 179.198C214.872 175.537 197.764 165.777 188.015 156.022C175.83 143.827 157.339 134.727 150.671 134.727Z" fill="#587291"/>
<path d="M261.629 80.3523C265.216 87.7716 261.05 98.0339 257.287 101.425C245.427 103.722 238.678 104.084 226.209 104.959C223.63 102.652 217.807 95.4273 215.162 84.9872C212.518 74.5471 222.83 76.313 228.317 78.501C230.208 78.8867 235.088 77.7911 239.473 70.3238C243.859 62.8565 239.135 56.8407 236.225 54.7662C234.532 53.3612 232.49 50.4266 237.865 49.9272C248.41 49.2168 255.207 61.8369 257.287 68.2357C260.375 69.7964 260.433 75.8282 260.076 78.6489L261.629 80.3523Z" fill="#D58B8B"/>
<path d="M221.174 68.3804C222.81 71.9421 226.174 76.6764 227.652 78.5985L215.49 82.5273C210.745 59.6688 219.128 63.9282 221.174 68.3804Z" fill="#D58B8B"/>
<path fill-rule="evenodd" clip-rule="evenodd" d="M79.6592 157.981C72.4506 163.487 56.6362 175.377 51.0475 178.875C44.0617 183.248 22.4359 215.805 19.1556 231.962C15.8753 248.118 5.97356 280.007 3.78668 285.109C1.5998 290.211 -2.10574 310.012 3.78668 321.37C8.09969 329.684 14.3653 329.569 19.1297 329.483C20.8744 329.451 22.4178 329.422 23.5902 329.813C27.9639 331.271 32.3984 332 36.0432 332C39.3766 332 56.5814 329.002 66.1884 327.329C67.0857 327.172 67.9168 327.028 68.6641 326.898C75.6622 325.683 83.5268 326.391 86.5844 326.898C87.8195 324.225 91.0913 318.358 94.2987 316.268C96.2973 314.967 104.299 314.314 112.734 313.626C121.225 312.932 130.157 312.204 133.845 310.741C131.152 300.254 125.547 278.099 124.672 273.386C121.505 256.318 111.292 221.818 96.8501 194.242C96.5804 193.727 96.0507 192.754 95.3375 191.447C90.9528 183.401 79.6592 162.683 79.6592 157.981ZM75.8156 248.665C78.448 255.853 83.8099 270.847 84.1986 273.325C84.5874 275.804 86.6285 284.644 87.6004 288.753C81.7485 288.045 69.3157 286.664 66.3999 286.81C63.484 286.955 56.9639 285.98 54.0683 285.473C57.8954 277.152 66.2298 259.647 68.9512 256.197C71.6727 252.747 74.6614 249.738 75.8156 248.665Z" fill="#587291"/>
<path d="M174.63 276.259C178.759 276.259 182.107 272.912 182.107 268.782C182.107 264.652 178.759 261.305 174.63 261.305C170.5 261.305 167.152 264.652 167.152 268.782C167.152 272.912 170.5 276.259 174.63 276.259Z" fill="white"/>
<path d="M259.602 136.908C259.602 141.038 262.958 144.385 267.099 144.385C268.05 144.385 268.961 144.208 269.798 143.887C269.798 142.147 269.558 133.772 269.438 129.802C268.702 129.561 267.916 129.431 267.099 129.431C262.958 129.431 259.602 132.778 259.602 136.908Z" fill="white"/>
<path d="M235.808 194.008C239.938 194.008 243.286 190.66 243.286 186.53C243.286 182.401 239.938 179.053 235.808 179.053C231.679 179.053 228.331 182.401 228.331 186.53C228.331 190.66 231.679 194.008 235.808 194.008Z" fill="white"/>
<path d="M235.808 124.673C239.938 124.673 243.286 121.325 243.286 117.195C243.286 113.066 239.938 109.718 235.808 109.718C231.679 109.718 228.331 113.066 228.331 117.195C228.331 121.325 231.679 124.673 235.808 124.673Z" fill="white"/>
<path d="M235.809 230.913C235.809 226.674 232.276 223.238 227.919 223.238C224.079 223.238 220.88 225.905 220.175 229.44C223.602 231.118 231.454 234.229 235.438 233.247C235.679 232.511 235.809 231.726 235.809 230.913Z" fill="white"/>
<path d="M168.514 226.637C172.643 226.637 175.991 223.137 175.991 218.82C175.991 214.502 172.643 211.002 168.514 211.002C164.384 211.002 161.036 214.502 161.036 218.82C161.036 223.137 164.384 226.637 168.514 226.637Z" fill="white"/>
<path d="M174.63 179.053C178.759 179.053 182.107 175.554 182.107 171.236C182.107 166.919 178.759 163.419 174.63 163.419C170.5 163.419 167.152 166.919 167.152 171.236C167.152 175.554 170.5 179.053 174.63 179.053Z" fill="white"/>
<path d="M69.6073 244.99C73.9247 244.99 77.4246 241.642 77.4246 237.513C77.4246 233.383 73.9247 230.035 69.6073 230.035C65.2899 230.035 61.79 233.383 61.79 237.513C61.79 241.642 65.2899 244.99 69.6073 244.99Z" fill="white"/>
<path d="M77.4238 177.641C77.4238 181.8 80.6386 185.171 84.6042 185.171C86.5395 185.171 88.3682 184.61 89.6595 183.304C88.3384 180.653 85.1212 173.966 83.3979 170.216C80.0066 170.818 77.4238 173.913 77.4238 177.641Z" fill="white"/>
<path d="M108.05 244.92C108.469 249.109 112.222 252.167 116.431 251.749C117.306 251.663 118.134 251.432 118.89 251.085L114.2 236.833C110.466 237.656 107.661 241.037 108.05 244.92Z" fill="white"/>
<path d="M48.2175 322.483C44.0749 322.483 40.7168 325.78 40.7168 329.847C40.7168 330.352 40.7684 330.844 40.8668 331.32L55.6716 329.022C55.254 325.344 52.0759 322.483 48.2175 322.483Z" fill="white"/>
<path d="M23.7235 290.534C27.8531 290.534 31.2009 287.187 31.2009 283.057C31.2009 278.927 27.8531 275.58 23.7235 275.58C19.5938 275.58 16.2461 278.927 16.2461 283.057C16.2461 287.187 19.5938 290.534 23.7235 290.534Z" fill="white"/>
<path d="M93.7391 298.691C97.8687 298.691 101.216 295.344 101.216 291.214C101.216 287.084 97.8687 283.737 93.7391 283.737C89.6095 283.737 86.2617 287.084 86.2617 291.214C86.2617 295.344 89.6095 298.691 93.7391 298.691Z" fill="white"/>
<path d="M122.289 312.966C126.419 312.966 129.766 309.619 129.766 305.489C129.766 301.359 126.419 298.011 122.289 298.011C118.159 298.011 114.812 301.359 114.812 305.489C114.812 309.619 118.159 312.966 122.289 312.966Z" fill="#587291"/>
<path d="M29.4252 215.081C33.7847 215.081 37.3187 211.787 37.3187 207.724C37.3187 205.094 35.8377 202.786 33.6106 201.485C33.6106 201.485 30.9773 205.313 29.4252 207.842C27.9155 210.3 25.7627 214.243 25.7627 214.243C26.8573 214.778 28.1033 215.081 29.4252 215.081Z" fill="white"/>
<path d="M173.176 144.281C173.733 147.692 176.561 150.07 179.856 150.07C180.24 150.07 180.787 150.012 181.154 149.945C177.178 146.655 174.904 145.323 173.176 144.281Z" fill="white"/>
<path d="M131.989 164.778C136.018 164.778 139.283 161.431 139.283 157.301C139.283 153.171 136.018 149.824 131.989 149.824C129.302 149.824 126.954 151.314 125.688 153.533C127.438 155.706 130.239 160.771 131.989 164.778Z" fill="white"/>
<path d="M210.072 271.501C205.89 271.501 202.5 274.911 202.5 279.117C202.5 280.559 202.897 281.908 203.59 283.057C206.74 280.505 213.379 274.946 214.736 273.117C213.45 272.104 211.831 271.501 210.072 271.501Z" fill="white"/>
<path d="M195.703 233.774C195.703 238.092 199.08 241.591 203.247 241.591C205.349 241.591 207.25 240.701 208.619 239.264L205.118 226.199C204.519 226.041 203.893 225.957 203.247 225.957C199.08 225.957 195.703 229.456 195.703 233.774Z" fill="white"/>
<path d="M49.5556 286.612C47.9798 286.112 43.3548 286.527 37.4603 292.179C31.5658 297.829 25.847 301.594 23.7246 302.77" stroke="#242938" stroke-width="2" stroke-linecap="round"/>
<path d="M48.1946 291.214C47.5179 291.246 45.5484 292.346 43.084 296.505C40.6196 300.664 38.2135 303.774 37.3184 304.809" stroke="#242938" stroke-width="2" stroke-linecap="round"/>
<path d="M97.1377 294.613C96.8381 293.986 94.9744 292.573 89.9104 291.932C84.8476 291.291 80.8365 290.279 79.4639 289.854" stroke="#242938" stroke-width="2" stroke-linecap="round"/>
<path d="M57.0907 192.648C56.2402 198.376 64.7399 209.111 68.1756 220.232C70.5784 228.01 69.4498 234.278 74.0253 244.31" stroke="#242938" stroke-width="2" stroke-linecap="round"/>
<path d="M152.877 141.667C161.577 144.075 172.215 167.039 176.701 178.152C181.186 189.265 202.545 202.963 200.295 213.722" stroke="#242938" stroke-width="2" stroke-linecap="round"/>
<path d="M224.933 181.092C227.169 181.362 232.795 182.698 237.412 185.88C243.182 189.858 244.827 193.124 246.005 193.328" stroke="#242938" stroke-width="2" stroke-linecap="round"/>
<path d="M98.9616 299.613L87.6201 325.279L102.822 327.852C113.7 328.648 137.123 330.179 143.783 329.934C150.443 329.689 150.619 326.728 149.876 325.279C151.123 325.279 154.003 325.071 155.547 324.238C158.732 322.669 157.719 320.154 156.814 319.092C157.497 319.092 160.071 319.153 161.459 316.091C162.857 313.003 158.181 311.701 155.547 311.558C156.311 310.599 157.176 308.446 154.521 307.515C151.203 306.351 135.458 304.82 135.458 303.778C134.928 300.985 131.014 299.837 129.124 299.613C121.663 298.061 110.122 298.756 98.9616 299.613Z" fill="#D58B8B"/>
<path d="M133.164 303.45C129.807 303.136 126.14 302.689 122.968 302.783" stroke="#242938" stroke-width="2" stroke-linecap="round"/>
<path d="M86.3181 140.599C86.359 143.708 86.269 150.565 85.582 153.118M91.8391 142.072C92.0845 145.549 92.428 152.799 91.8391 153.977M97.9732 143.054C98.1769 146.654 98.7584 154.272 99.4454 155.941M103.862 143.054C104.066 145.426 104.647 150.467 105.334 151.645M109.996 142.072C110.548 144.772 111.922 150.467 113.002 151.645M115.333 138.267C115.659 139.945 116.829 143.864 118.89 146.122" stroke="#242938" stroke-width="2" stroke-linecap="round"/>
<path d="M153.559 310.927C148.991 309.628 139.135 307.709 133.846 308.328" stroke="#242938" stroke-width="2" stroke-linecap="round"/>
<path d="M153.558 317.045C149.305 316.07 140.128 314.631 135.204 315.095" stroke="#242938" stroke-width="2" stroke-linecap="round"/>
<path d="M147.439 323.163C143.659 322.188 135.502 320.75 131.125 321.213" stroke="#242938" stroke-width="2" stroke-linecap="round"/>
<path fill-rule="evenodd" clip-rule="evenodd" d="M208.073 62.5398C196.965 61.6535 188.226 52.33 188.226 40.9589C188.226 29.002 197.888 19.3091 209.807 19.3091C221.486 19.3091 230.999 28.6151 231.378 40.2385C232.133 44.131 233.753 51.2866 236.081 55.2269C239.225 60.544 244.366 66.618 248.724 71.3664L239.638 80.4877C234.899 76.1204 228.81 70.9699 223.29 67.7114C218.835 65.0825 210.369 63.0577 208.073 62.5398Z" fill="#FEFEFE"/>
<path d="M243.287 72.8229C233.044 63.9418 213.019 44.811 214.858 39.337C217.156 32.4945 227.137 38.671 228.588 43.6969C230.04 48.7228 216.007 63.0738 211.168 61.3178C206.329 59.5618 200.341 48.2383 206.45 46.7851C211.337 45.6225 229.052 65.9602 239.778 75.7294" stroke="#242938" stroke-width="2" stroke-linecap="round"/>
<path d="M192.085 63.9414L183.535 73.0104M170.438 6.84938L183.535 18.4747L170.438 6.84938ZM209.184 0.275879V11.4143V0.275879ZM178.987 46.2295L164.435 49.2728L178.987 46.2295ZM234.894 22.0049L241.927 14.9445L234.894 22.0049Z" stroke="#242938" stroke-width="2" stroke-linecap="round"/>
<path d="M249.7 70.4134L238.408 81.6211L246.68 89.9557L257.973 78.748L249.7 70.4134Z" fill="#242938"/>
</svg>
