<svg width="215" height="149" viewBox="0 0 215 149" fill="none" xmlns="http://www.w3.org/2000/svg">
<path d="M29.245 114.616C13.2885 125.577 22.5964 137.122 29.245 141.525H112.294H195.344C195.344 141.525 191.438 133.195 191.561 127.511C191.674 122.246 195.344 114.616 195.344 114.616H112.294H29.245Z" stroke="black"/>
<path d="M102.657 141.525C90.0319 128.897 97.3961 118.705 102.657 115.188L29.3412 114.616C27.6212 115.144 23.6222 117.509 21.3861 122.75C17.9117 131.368 24.7832 138.858 28.6532 141.525H102.657Z" fill="black"/>
<path d="M26.4141 131.335C28.2812 126.978 36.8478 118.92 39.4279 121.424C42.653 124.554 41.4083 133.514 37.0515 134.035C32.6947 134.557 39.0318 121.486 44.4636 122.406C48.8091 123.143 46.2742 126.968 44.4636 128.788C45.1049 126.334 45.9288 122.897 54.8181 120.596" stroke="#FFDC4D" stroke-linecap="round"/>
<path d="M172.919 84.6625C175.277 74.9805 186.098 57.0749 189.357 62.6387C193.431 69.5935 191.858 89.5036 186.356 90.6631C180.852 91.8227 188.857 62.7756 195.718 64.8209C201.207 66.4571 198.006 74.9579 195.718 79.0034C196.528 73.5488 197.569 65.912 208.798 60.798" stroke="#FFDC4D" stroke-linecap="round"/>
<path d="M7.32538 95.1818C-4.1305 103.098 2.55212 111.437 7.32538 114.616H66.9507H126.576C126.576 114.616 123.771 108.6 123.859 104.495C123.941 100.693 126.576 95.1818 126.576 95.1818H66.9507H7.32538Z" stroke="black"/>
<path d="M59.303 114.616C50.3509 105.496 55.573 98.1355 59.303 95.5944L7.31558 95.1818C6.09592 95.5627 3.26031 97.2714 1.67476 101.057C-0.788942 107.281 4.08352 112.69 6.82778 114.616H59.303Z" fill="black"/>
<path d="M135.437 95.1818C143.756 89.0926 138.903 82.6783 135.437 80.2323H92.1373H48.8379C48.8379 80.2323 50.874 84.8604 50.8101 88.0178C50.7508 90.9429 48.8379 95.1818 48.8379 95.1818H92.1373H135.437Z" stroke="black"/>
<path d="M96.6768 80.2323C103.333 87.2479 99.4502 92.9103 96.6768 94.8644L135.334 95.1818C136.241 94.8888 138.35 93.5751 139.529 90.6631C141.361 85.875 137.737 81.7141 135.697 80.2323H96.6768Z" fill="black"/>
<path d="M125.081 85.924C124.099 87.8606 119.589 91.4418 118.232 90.3287C116.534 88.9381 117.189 84.9561 119.483 84.7239C121.775 84.4918 118.44 90.3015 115.582 89.8924C113.294 89.565 114.628 87.8651 115.582 87.056C115.244 88.1471 114.81 89.6746 110.132 90.697" stroke="#FFDC4D" stroke-linecap="round"/>
<path d="M20.5436 80.2323C12.2245 74.1431 17.0773 67.7288 20.5436 65.2828H63.8431H107.142C107.142 65.2828 105.105 69.9109 105.169 73.0684C105.229 75.9934 107.142 80.2323 107.142 80.2323H63.8431H20.5436Z" stroke="black"/>
<path d="M87.7068 72.7576H77.2422V86.2121L82.8965 81.1164L87.7068 86.2121V72.7576Z" fill="black"/>
<path d="M184.879 131.061H169.93V149L178.007 142.206L184.879 149V131.061Z" fill="#FFDC4D"/>
<path d="M57.8088 65.2828C51.3813 72.2984 55.1302 77.9608 57.8088 79.9149L20.4844 80.2323C19.6088 79.9394 17.573 78.6256 16.4346 75.7137C14.6658 70.9255 18.164 66.7646 20.1342 65.2828H57.8088Z" fill="black"/>
<path d="M18.9395 71.2762C19.9221 73.6969 24.4308 78.1735 25.7888 76.7821C27.4863 75.0439 26.8311 70.0664 24.538 69.7762C22.245 69.486 25.5804 76.7481 28.4393 76.2367C30.7263 75.8275 29.3921 73.7026 28.4393 72.6912C28.7767 74.0552 29.2103 75.9645 33.8889 77.2424" stroke="#FFDC4D" stroke-linecap="round"/>
<path d="M17.8416 2.495L18.9279 5.30175L22.7233 3.43827L20.2825 7.03442L23.4246 8.7393L19.799 9.19503L20.0141 12.2046L17.8416 10.1566L14.8408 12.9596L15.8842 9.19503L12.96 8.7393L15.4008 7.03442L14.3872 4.63064L16.7553 5.30175L17.8416 2.495Z" fill="#FFDC4D"/>
<path d="M150.094 68.2727L151.336 70.6785L155.673 69.0812L152.884 72.1637L156.475 73.625L152.332 74.0156L152.578 76.5952L150.094 74.8397L146.665 77.2424L147.857 74.0156L144.516 73.625L147.305 72.1637L146.146 70.1032L148.853 70.6785L150.094 68.2727Z" fill="#FFDC4D"/>
<path d="M68.0726 29.4041L68.6934 31.0077L70.862 29.9431L69.4673 31.998L71.263 32.972L69.1912 33.2329L69.3143 34.9526L68.0726 33.782L66.3578 35.3839L66.954 33.2329L65.2832 32.972L66.6779 31.998L66.0984 30.6245L67.4518 31.0077L68.0726 29.4041Z" fill="#FFDC4D"/>
<path d="M38.3734 22.3501C38.3734 24.2338 38.0013 27.9092 36.3499 27.9092C34.6987 27.9092 32.3936 24.2338 32.3936 22.3501C32.3936 20.4665 33.7322 18.9395 35.3835 18.9395C37.0348 18.9395 38.3734 20.4665 38.3734 22.3501Z" fill="black"/>
<path d="M45.8491 24.2033C45.8491 25.4591 45.5701 27.9091 44.3316 27.9091C43.0931 27.9091 41.3643 25.4591 41.3643 24.2033C41.3643 22.9474 42.3682 21.9293 43.6066 21.9293C44.8451 21.9293 45.8491 22.9474 45.8491 24.2033Z" fill="black"/>
<path d="M38.3735 32.2464C38.3735 33.8162 38.0945 36.8788 36.856 36.8788C35.6175 36.8788 33.8887 33.8162 33.8887 32.2464C33.8887 30.6765 34.8927 29.4041 36.1311 29.4041C37.3695 29.4041 38.3735 30.6765 38.3735 32.2464Z" fill="black"/>
<path d="M45.8491 32.2464C45.8491 33.8162 45.5701 36.8788 44.3316 36.8788C43.0931 36.8788 41.3643 33.8162 41.3643 32.2464C41.3643 30.6765 42.3682 29.4041 43.6066 29.4041C44.8451 29.4041 45.8491 30.6765 45.8491 32.2464Z" fill="black"/>
<path d="M51.8286 32.2464C51.8286 33.8162 51.5495 36.8788 50.3111 36.8788C49.0726 36.8788 47.3438 33.8162 47.3438 32.2464C47.3438 30.6765 48.3477 29.4041 49.5861 29.4041C50.8246 29.4041 51.8286 30.6765 51.8286 32.2464Z" fill="black"/>
<path d="M39.8685 42.1425C39.8685 43.3984 39.4964 45.8485 37.8451 45.8485C36.1938 45.8485 33.8887 43.3984 33.8887 42.1425C33.8887 40.8866 35.2273 39.8687 36.8785 39.8687C38.5298 39.8687 39.8685 40.8866 39.8685 42.1425Z" fill="black"/>
<path d="M56.3133 44.4165C56.3133 46.928 55.6618 51.8282 52.7722 51.8282C49.8825 51.8282 45.8486 46.928 45.8486 44.4165C45.8486 41.905 48.1912 39.8687 51.0808 39.8687C53.9704 39.8687 56.3133 41.905 56.3133 44.4165Z" fill="black"/>
<path d="M163.95 102.509C163.95 104.079 163.67 107.141 162.432 107.141C161.194 107.141 159.465 104.079 159.465 102.509C159.465 100.939 160.469 99.6667 161.707 99.6667C162.946 99.6667 163.95 100.939 163.95 102.509Z" fill="black"/>
<path d="M171.424 102.509C171.424 104.079 171.052 107.141 169.401 107.141C167.75 107.141 165.444 104.079 165.444 102.509C165.444 100.939 166.783 99.6667 168.434 99.6667C170.086 99.6667 171.424 100.939 171.424 102.509Z" fill="black"/>
<path d="M177.404 102.509C177.404 104.079 177.125 107.141 175.886 107.141C174.648 107.141 172.919 104.079 172.919 102.509C172.919 100.939 173.923 99.6667 175.161 99.6667C176.4 99.6667 177.404 100.939 177.404 102.509Z" fill="black"/>
<path d="M213.283 54.8181H158.232C157.719 53.6935 157.609 51.1026 161.274 49.7364C164.939 48.3702 168.008 50.3057 169.085 51.4442C169.435 47.8203 171.698 40.4393 177.947 39.9062C184.195 39.3729 186.158 44.6547 186.358 47.3621C192.096 38.5316 197.111 45.2656 198.901 49.7364C204.879 47.4371 210.98 52.1662 213.283 54.8181Z" stroke="black"/>
<path d="M50.333 15.9495H103.895C104.395 14.8248 104.503 12.234 100.936 10.8677C97.3699 9.50147 94.3836 11.437 93.3361 12.5756C92.9952 8.95177 90.7939 1.57069 84.7138 1.0375C78.6337 0.504472 76.7247 5.7861 76.5295 8.4935C70.9472 -0.336995 66.0674 6.39697 64.3258 10.8677C58.5101 8.56859 52.5735 13.2976 50.333 15.9495Z" stroke="black"/>
<path d="M124.218 8.47473L135.545 23.6705L126.3 60.798L113.121 46.1942L124.218 8.47473Z" fill="#D1EAFF"/>
<path d="M150.495 14.4546L134.369 23.3919L125.081 60.798L140.552 53.3288L150.495 14.4546Z" fill="#D1EAFF"/>
<path d="M133.956 9.96973L135.546 23.5492L125.942 60.798L125.081 48.5384L133.956 9.96973Z" fill="#D1EAFF"/>
<path d="M135.67 23.2383L114.589 11.4647L105.646 51.1784L124.524 62.293L143.186 61.5022L154.98 20.4267L135.67 23.2383Z" fill="black"/>
<path d="M135.545 43.7365C136.232 40.3477 139.389 34.0808 140.339 36.0281C141.528 38.4623 141.069 45.4308 139.464 45.8366C137.859 46.2423 140.193 36.0759 142.194 36.7918C143.795 37.3645 142.862 40.3397 142.194 41.7557C142.431 39.8465 142.734 37.1736 146.01 35.3838" stroke="white" stroke-linecap="round"/>
<path d="M131.288 27.9586L124.855 56.2636" stroke="white" stroke-linecap="round"/>
<path d="M136.068 28.0016L130.537 56.2206" stroke="white" stroke-linecap="round"/>
<path d="M104.151 123.586C118.693 123.586 149.851 123.586 157.97 123.586" stroke="black"/>
<path d="M134.051 131.061C148.593 131.061 179.751 131.061 187.869 131.061" stroke="black"/>
</svg>
