<svg width="202" height="180" viewBox="0 0 202 180" fill="none" xmlns="http://www.w3.org/2000/svg">
<path d="M15.4508 127.958C15.4508 129.468 15.1032 132.414 13.5605 132.414C12.0178 132.414 9.86426 129.468 9.86426 127.958C9.86426 126.448 11.1148 125.225 12.6575 125.225C14.2003 125.225 15.4508 126.448 15.4508 127.958Z" fill="black"/>
<path d="M22.0644 129.728C22.0644 130.878 21.8013 133.123 20.6333 133.123C19.4653 133.123 17.835 130.878 17.835 129.728C17.835 128.578 18.7818 127.645 19.9497 127.645C21.1176 127.645 22.0644 128.578 22.0644 129.728Z" fill="black"/>
<path d="M16.1807 136.991C16.1807 138.142 15.9175 140.386 14.7495 140.386C13.5816 140.386 11.9512 138.142 11.9512 136.991C11.9512 135.841 12.898 134.908 14.0659 134.908C15.2339 134.908 16.1807 135.841 16.1807 136.991Z" fill="black"/>
<path d="M22.0742 136.991C22.0742 138.142 21.8111 140.386 20.6431 140.386C19.4751 140.386 17.8447 138.142 17.8447 136.991C17.8447 135.841 18.7915 134.908 19.9594 134.908C21.1274 134.908 22.0742 135.841 22.0742 136.991Z" fill="black"/>
<path d="M27.958 136.991C27.958 138.142 27.6948 140.386 26.5269 140.386C25.3589 140.386 23.7285 138.142 23.7285 136.991C23.7285 135.841 24.6753 134.908 25.8432 134.908C27.0112 134.908 27.958 135.841 27.958 136.991Z" fill="black"/>
<path d="M176.18 51.0096C176.18 52.1599 175.916 54.4044 174.749 54.4044C173.581 54.4044 171.95 52.1599 171.95 51.0096C171.95 49.8593 172.897 48.9268 174.065 48.9268C175.233 48.9268 176.18 49.8593 176.18 51.0096Z" fill="black"/>
<path d="M182.072 51.0096C182.072 52.1599 181.809 54.4044 180.641 54.4044C179.473 54.4044 177.843 52.1599 177.843 51.0096C177.843 49.8593 178.79 48.9268 179.957 48.9268C181.125 48.9268 182.072 49.8593 182.072 51.0096Z" fill="black"/>
<path d="M110.721 43.8647H53.3652V117.742H110.721" fill="#FFDC4D"/>
<path d="M187.957 51.0096C187.957 52.1599 187.694 54.4044 186.526 54.4044C185.358 54.4044 183.728 52.1599 183.728 51.0096C183.728 49.8593 184.674 48.9268 185.842 48.9268C187.01 48.9268 187.957 49.8593 187.957 51.0096Z" fill="black"/>
<path d="M16.2529 144.255C16.2529 145.405 15.9898 147.649 14.8218 147.649C13.6538 147.649 12.0234 145.405 12.0234 144.255C12.0234 143.104 12.9703 142.172 14.1381 142.172C15.3061 142.172 16.2529 143.104 16.2529 144.255Z" fill="black"/>
<path d="M95.8408 95.3568L98.6393 23.9097H185.316V92.434L95.8408 95.3568Z" stroke="black"/>
<path d="M180.515 67.6711H146.325" stroke="black" stroke-linecap="round"/>
<path d="M163.979 47.0195H129.789" stroke="black" stroke-linecap="round"/>
<path d="M180.516 63.4895H167.332" stroke="black" stroke-linecap="round"/>
<path d="M37.7227 90.3772H71.9128" stroke="black" stroke-linecap="round"/>
<path d="M37.7227 86.1953H50.907" stroke="black" stroke-linecap="round"/>
<path d="M185.763 23.4697H98.209V37.8351H185.763V23.4697Z" fill="black"/>
<path d="M105.1 34.3219C107.158 34.3219 108.826 32.679 108.826 30.6523C108.826 28.6256 107.158 26.9827 105.1 26.9827C103.042 26.9827 101.374 28.6256 101.374 30.6523C101.374 32.679 103.042 34.3219 105.1 34.3219Z" fill="white"/>
<path d="M114.785 34.3219C116.843 34.3219 118.511 32.679 118.511 30.6523C118.511 28.6256 116.843 26.9827 114.785 26.9827C112.728 26.9827 111.06 28.6256 111.06 30.6523C111.06 32.679 112.728 34.3219 114.785 34.3219Z" fill="white"/>
<path d="M124.473 34.3219C126.531 34.3219 128.199 32.679 128.199 30.6523C128.199 28.6256 126.531 26.9827 124.473 26.9827C122.415 26.9827 120.747 28.6256 120.747 30.6523C120.747 32.679 122.415 34.3219 124.473 34.3219Z" fill="white"/>
<path d="M31.167 110.559L33.4454 74.3105H104.701V109.063L31.167 110.559Z" stroke="black"/>
<path d="M105.147 73.8706H33.0254V81.2454H105.147V73.8706Z" fill="black"/>
<path d="M37.7234 79.4456C38.8752 79.4456 39.809 78.6081 39.809 77.5749C39.809 76.5417 38.8752 75.7041 37.7234 75.7041C36.5715 75.7041 35.6377 76.5417 35.6377 77.5749C35.6377 78.6081 36.5715 79.4456 37.7234 79.4456Z" fill="white"/>
<path d="M43.1991 79.4456C44.3715 79.4456 45.322 78.6081 45.322 77.5749C45.322 76.5417 44.3715 75.7041 43.1991 75.7041C42.0266 75.7041 41.0762 76.5417 41.0762 77.5749C41.0762 78.6081 42.0266 79.4456 43.1991 79.4456Z" fill="white"/>
<path d="M48.6716 79.4456C49.8235 79.4456 50.7573 78.6081 50.7573 77.5749C50.7573 76.5417 49.8235 75.7041 48.6716 75.7041C47.5197 75.7041 46.5859 76.5417 46.5859 77.5749C46.5859 78.6081 47.5197 79.4456 48.6716 79.4456Z" fill="white"/>
<path d="M190.847 173.057H135.302V99.1804H190.847V170.268" stroke="#FFDC4D"/>
<path d="M201.001 14.8356C196.814 26.7619 177.606 48.8173 171.821 41.9638C164.589 33.397 167.38 8.87252 177.15 7.44472C186.918 6.01692 172.709 41.7959 160.53 39.2762C150.787 37.2605 156.47 26.79 160.53 21.8067C159.092 28.5258 157.245 37.9323 137.313 44.2315" stroke="#D1EAFF" stroke-linecap="round"/>
<path d="M54.8541 155.108C52.6751 164.801 42.6782 182.727 39.6671 177.157C35.9035 170.194 37.3562 150.262 42.4405 149.101C47.5248 147.941 40.1294 177.021 33.7905 174.972C28.7194 173.334 31.6776 164.825 33.7905 160.774C33.0422 166.236 32.0808 173.881 21.707 179" stroke="#D1EAFF" stroke-linecap="round"/>
<path d="M84.6589 7.27225L67.6807 1.18408L64.6011 9.51478L81.5793 15.603L84.6589 7.27225Z" stroke="black"/>
<path d="M74.1103 9.23721L67.6299 1.46069L84.5758 7.40312L74.1103 9.23721Z" fill="black"/>
<path d="M19.0188 43.4208L1.14453 46.0232L2.46937 54.7923L20.3436 52.1899L19.0188 43.4208Z" stroke="black"/>
<path d="M10.6899 50.0892L1 46.1024L19.0633 43.498L10.6899 50.0892Z" fill="black"/>
<path d="M21.3076 3.75882L11.5771 1L10.2253 5.6564L19.9558 8.41522L21.3076 3.75882Z" stroke="black"/>
<path d="M15.5023 5.20681L12.2471 1.49756L20.5525 3.77182L15.5023 5.20681Z" stroke="black"/>
<path d="M196.775 130.167L172.991 123.446L169.562 135.218L193.346 141.938L196.775 130.167Z" stroke="black"/>
<path d="M182.544 133.884L173.663 123.831L195.935 130.323L182.544 133.884Z" stroke="black"/>
<path d="M73.2749 74.5276L69.9014 78.06" stroke="black" stroke-linecap="round"/>
<path d="M119.342 37.3982C120.728 37.5778 122.003 36.5999 122.188 35.214L117.166 34.5635C116.981 35.9494 117.955 37.2185 119.342 37.3982Z" fill="black"/>
<path d="M42.278 56.9508L27.502 26.7021L44.8945 17.4846L61.0277 47.0141L42.278 56.9508Z" stroke="black"/>
<path d="M34.0352 26.9179L32.3965 23.7999L39.5101 20.0217L41.0743 22.9196L34.0352 26.9179Z" fill="black"/>
<path d="M50.2711 35.3092C43.4178 32.1133 40.0389 37.4504 39.2061 40.5184C40.8718 41.1878 44.5101 42.2845 46.9016 40.8156C49.2931 39.3468 50.2414 36.491 50.2711 35.3092Z" fill="#D1EAFF"/>
<path d="M45.5841 40.6557C47.1471 40.4044 48.2075 38.9528 47.9524 37.4133C47.6973 35.8738 46.2233 34.8295 44.6603 35.0807C43.0972 35.332 42.0369 36.7836 42.292 38.3231C42.5471 39.8626 44.021 40.9069 45.5841 40.6557Z" fill="black"/>
<path d="M39.1322 39.5542L37.0752 38.8306" stroke="black" stroke-linecap="round"/>
<path d="M40.1531 37.4122L38.2656 36.3296" stroke="black" stroke-linecap="round"/>
<path d="M42.104 35.3829L40.5713 33.8501" stroke="black" stroke-linecap="round"/>
<path d="M44.6365 34.1055L44.0605 32.0305" stroke="black" stroke-linecap="round"/>
<path d="M47.9141 33.9883L48.1977 31.8552" stroke="black" stroke-linecap="round"/>
<path d="M50.1719 34.7117L51.0641 32.748" stroke="black" stroke-linecap="round"/>
</svg>
