<svg width="273" height="165" viewBox="0 0 273 165" fill="none" xmlns="http://www.w3.org/2000/svg">
<g clip-path="url(#clip0)">
<path d="M42.5 124.6L47 21.2001L182.3 13.6001L191.6 116.2L42.5 124.6Z" stroke="black"/>
<path d="M164.6 86.7999C162.3 80.4999 155.1 67.7999 144.3 66.9999C130.8 65.9999 124.9 79.8999 121.5 82.1999C118.1 84.4999 102.2 100.5 79.2998 54.8999" stroke="#FFDC4D" stroke-linecap="round"/>
<path d="M77.2002 68.1001L62.5002 71.1001L64.4002 75.8001L58.2002 80.7001L63.0002 85.8001L69.4002 79.0001L72.3002 81.4001L77.2002 68.1001Z" fill="#FFDC4D" stroke="black"/>
<path d="M77.8004 66.2L60.5004 69.7L62.7004 75.3L55.4004 81L61.0004 87L68.6004 79L72.0004 81.8L77.8004 66.2Z" stroke="black"/>
<path d="M106.7 4.3999L68.0004 5.8999L67.9004 25.0999" stroke="#FFDC4D" stroke-linecap="round"/>
<path d="M114.8 143.7L154.2 141.5L148.6 90.7L120.7 92.3L113.2 101.4L114.8 143.7Z" stroke="black"/>
<path d="M163.9 143.1L120.1 145.6L118.2 97.5999L126.6 87.0999L157.5 85.3999L163.9 143.1Z" fill="#FFDC4D"/>
<path d="M126.7 87.1001L118.3 97.6001L129.5 96.5001L126.7 87.1001Z" fill="black"/>
<path d="M46.6004 20.7L182.7 13L183.8 32.1L45.9004 39.9L46.6004 20.7Z" fill="black"/>
<path d="M122.7 54.8L163.3 53.8L122.7 54.8ZM108.8 45.8L165.1 45.3L108.8 45.8Z" stroke="black" stroke-linecap="round"/>
<path d="M45.3002 136.9L23.4002 137.3L45.3002 136.9ZM52.6002 131.7L22.2002 132.7L52.6002 131.7Z" stroke="black" stroke-linecap="round"/>
<path d="M55.8999 33.1C58.0999 33 59.7999 31.1 59.6999 28.8C59.5999 26.6 57.6999 24.9 55.3999 25C53.1999 25.1 51.4999 27 51.5999 29.3C51.7999 31.6 53.6999 33.3 55.8999 33.1Z" fill="white"/>
<path d="M67.4997 32.4999C69.6997 32.3999 71.3998 30.4999 71.2998 28.1999C71.1998 25.9999 69.2997 24.2999 66.9997 24.3999C64.6997 24.4999 63.0998 26.3999 63.1998 28.6999C63.3998 30.8999 65.2997 32.5999 67.4997 32.4999Z" fill="white"/>
<path d="M79.1001 31.8C81.3001 31.7 83.0001 29.8 82.9001 27.5C82.8001 25.3 80.9001 23.6 78.6001 23.7C76.4001 23.8 74.7001 25.7 74.8001 28C74.9001 30.2 76.8001 32 79.1001 31.8Z" fill="white"/>
<path d="M112.6 98.2999C114.9 91.8999 115.6 77.7999 111.8 79.7999C107 82.3999 100.4 94.3999 103 96.9999C105.6 99.5999 112 80.0999 107.5 78.7999C103.9 77.7999 102.5 83.7999 102.2 86.9999C103.8 83.5999 106.1 78.7999 101.8 71.8999" stroke="black" stroke-linecap="round"/>
<path d="M21.5004 149.7C26.0004 137.2 27.4004 109.7 19.9004 113.7C10.5004 118.7 -2.19961 142 2.80039 147.1C7.80039 152.2 20.3004 114.2 11.5004 111.7C4.50039 109.7 1.70039 121.5 1.20039 127.6C4.30039 120.9 8.70039 111.7 0.400391 98.2" stroke="#FFDC4D" stroke-linecap="round"/>
<path d="M272 89.1999C261.2 97.5999 231.1 106.5 230 96.8999C228.6 84.8999 245.5 64.2999 255 68.5999C264.6 72.9999 230.9 97.1999 221.4 87.8999C213.9 80.3999 225.1 74.1999 231.7 71.9999C226.5 77.2999 219.3 84.6999 197.8 78.8999" stroke="#FFDC4D" stroke-linecap="round"/>
<path d="M130.6 104.6L148.6 103.6L149.6 120.5L130.5 121.9L130.6 104.6Z" fill="black"/>
<path d="M162.6 89.9999C162.6 90.4999 162.3 90.9999 161.7 91.3999C161.1 91.7999 160.2 92.0999 159.1 92.0999C158.1 92.0999 157.2 91.8999 156.5 91.3999C155.9 90.9999 155.5 90.4999 155.5 89.9999C155.5 89.4999 155.8 88.9999 156.4 88.5999C157 88.1999 157.9 87.8999 159 87.8999C160 87.8999 160.9 88.0999 161.6 88.5999C162.3 88.9999 162.6 89.4999 162.6 89.9999Z" stroke="black"/>
<path d="M162.9 94.8C162.9 95.3 162.6 95.8 162 96.2C161.4 96.6 160.5 96.9 159.4 96.9C158.4 96.9 157.5 96.7 156.8 96.3C156.2 95.9 155.8 95.4 155.8 94.9C155.8 94.4 156.1 93.9 156.7 93.5C157.3 93.1 158.2 92.8 159.3 92.8C160.3 92.8 161.2 93 161.9 93.5C162.6 93.8 162.9 94.3 162.9 94.8Z" stroke="black"/>
<path d="M163.8 99.3999C163.8 99.8999 163.5 100.4 162.9 100.8C162.3 101.2 161.4 101.5 160.3 101.5C159.3 101.5 158.4 101.3 157.7 100.9C157.1 100.5 156.7 99.9999 156.7 99.4999C156.7 98.9999 157 98.4999 157.6 98.0999C158.2 97.6999 159.1 97.3999 160.2 97.3999C161.2 97.3999 162.1 97.5999 162.8 98.0999C163.4 98.3999 163.7 98.8999 163.8 99.3999Z" stroke="black"/>
<path d="M164 104.2C164 104.7 163.7 105.2 163.1 105.6C162.5 106 161.6 106.3 160.6 106.3C159.6 106.3 158.7 106.1 158 105.7C157.4 105.3 157 104.8 157 104.3C157 103.8 157.3 103.3 157.9 102.9C158.5 102.5 159.4 102.2 160.5 102.2C161.5 102.2 162.4 102.4 163.1 102.9C163.7 103.2 164 103.7 164 104.2Z" stroke="black"/>
<path d="M164.5 108.9C164.5 109.4 164.2 109.9 163.6 110.3C163 110.7 162.1 111 161 111C160 111 159.1 110.8 158.4 110.3C157.8 109.9 157.4 109.4 157.4 108.9C157.4 108.4 157.7 107.9 158.3 107.5C158.9 107.1 159.8 106.8 160.9 106.8C161.9 106.8 162.8 107 163.5 107.5C164.1 107.8 164.4 108.4 164.5 108.9Z" stroke="black"/>
<path d="M164.7 113.7C164.7 114.2 164.4 114.7 163.8 115.1C163.2 115.5 162.3 115.8 161.2 115.8C160.2 115.8 159.3 115.6 158.6 115.2C158 114.8 157.6 114.3 157.6 113.8C157.6 113.3 157.9 112.8 158.5 112.4C159.1 112 160 111.7 161.1 111.7C162.1 111.7 163 111.9 163.7 112.4C164.4 112.7 164.7 113.2 164.7 113.7Z" stroke="black"/>
<path d="M165.6 118.3C165.6 118.8 165.3 119.3 164.7 119.7C164.1 120.1 163.2 120.4 162.1 120.4C161.1 120.4 160.2 120.2 159.5 119.7C158.9 119.3 158.5 118.8 158.5 118.3C158.5 117.8 158.8 117.3 159.4 116.9C160 116.5 160.9 116.2 162 116.2C163 116.2 163.9 116.4 164.6 116.9C165.3 117.3 165.6 117.8 165.6 118.3Z" stroke="black"/>
<path d="M165.9 123.1C165.9 123.6 165.6 124.1 165 124.5C164.4 124.9 163.5 125.2 162.4 125.2C161.4 125.2 160.5 125 159.8 124.6C159.2 124.2 158.8 123.7 158.8 123.2C158.8 122.7 159.1 122.2 159.7 121.8C160.3 121.4 161.2 121.1 162.3 121.1C163.3 121.1 164.2 121.3 164.9 121.8C165.6 122.1 165.9 122.6 165.9 123.1Z" stroke="black"/>
<path d="M166 127.7C166 128.2 165.7 128.7 165.1 129.1C164.5 129.5 163.6 129.8 162.5 129.8C161.5 129.8 160.6 129.6 159.9 129.1C159.3 128.7 158.9 128.2 158.9 127.7C158.9 127.2 159.2 126.7 159.8 126.3C160.4 125.9 161.3 125.6 162.4 125.6C163.4 125.6 164.3 125.8 165 126.3C165.6 126.7 166 127.2 166 127.7Z" stroke="black"/>
<path d="M167 132.7C167 133.2 166.7 133.7 166.1 134.1C165.5 134.5 164.6 134.8 163.5 134.8C162.5 134.8 161.6 134.6 160.9 134.1C160.3 133.7 159.9 133.2 159.9 132.7C159.9 132.2 160.2 131.7 160.8 131.3C161.4 130.9 162.3 130.6 163.4 130.6C164.4 130.6 165.3 130.8 166 131.3C166.6 131.7 167 132.2 167 132.7Z" stroke="black"/>
<path d="M168 137.7C168 138.2 167.7 138.7 167.1 139.1C166.5 139.5 165.6 139.8 164.5 139.8C163.5 139.8 162.6 139.6 161.9 139.1C161.3 138.7 160.9 138.2 160.9 137.7C160.9 137.2 161.2 136.7 161.8 136.3C162.4 135.9 163.3 135.6 164.4 135.6C165.4 135.6 166.3 135.8 167 136.3C167.6 136.7 168 137.2 168 137.7Z" stroke="black"/>
<path d="M97.9002 122.1L99.1002 144.1L14.1002 146.4L13.7002 89.5999L44.2002 87.8999" stroke="black"/>
<path d="M13 89.6L44.5 87.8L43.7 104.8L13.6 106L13 89.6Z" fill="black"/>
<path d="M20.1998 101.1C22.0998 101 23.4998 99.4 23.3998 97.5C23.2998 95.6 21.6998 94.2 19.7998 94.3C17.8998 94.4 16.4998 96 16.5998 97.9C16.6998 99.7 18.2998 101.2 20.1998 101.1Z" fill="white"/>
<path d="M29.8003 100.5C31.7003 100.4 33.1003 98.8001 33.0003 96.9001C32.9003 95.0001 31.3003 93.6001 29.4003 93.7001C27.5003 93.8001 26.1004 95.4001 26.2004 97.3001C26.3004 99.2001 27.9003 100.6 29.8003 100.5Z" fill="white"/>
<path d="M39.4 100C41.3 99.9001 42.7 98.3001 42.6 96.4001C42.5 94.5001 40.9 93.1001 39 93.2001C37.1 93.3001 35.7 94.9001 35.8 96.8001C36 98.7001 37.6 100.1 39.4 100Z" fill="white"/>
<path d="M148.6 39.4L154.6 27L164.5 41.2L148.6 39.4Z" fill="black"/>
<path d="M207 15.3L197.7 0L155.1 26L151.8 32.7L154.1 30.8L152.6 34.8L156.6 34.2L153.9 36.4L158.8 38.9L156.4 40.4L164.4 41.4L207 15.3Z" fill="#FFDC4D"/>
<path d="M159.3 28.3001L197.2 5.6001" stroke="black" stroke-linecap="round"/>
<path d="M161.9 31.8001L199.8 9.1001" stroke="black" stroke-linecap="round"/>
<path d="M164 36.0999L201.9 13.3999" stroke="black" stroke-linecap="round"/>
<path d="M184.7 130.5C185.2 133.5 187 139.4 190 138.8C193.1 138.3 196.3 131.6 195.8 128.5C195.3 125.5 192.3 123.4 189.3 124C186.2 124.6 184.2 127.5 184.7 130.5Z" fill="black"/>
<path d="M173.9 138.9C174.2 140.7 175.2 144 177 143.7C178.8 143.4 180.6 139.5 180.3 137.8C180 136 178.3 134.9 176.6 135.2C174.7 135.5 173.6 137.2 173.9 138.9Z" fill="black"/>
<path d="M184.7 148.5C185 150.3 186 153.6 187.8 153.3C189.6 153 191.4 149.1 191.1 147.4C190.8 145.7 189.1 144.5 187.4 144.8C185.6 145 184.4 146.7 184.7 148.5Z" fill="black"/>
<path d="M175.8 150C176.1 151.8 177.1 155.1 178.9 154.8C180.7 154.5 182.5 150.6 182.2 148.9C181.9 147.1 180.2 146 178.5 146.3C176.7 146.6 175.5 148.3 175.8 150Z" fill="black"/>
<path d="M167 151.6C167.3 153.4 168.3 156.7 170.1 156.4C171.9 156.1 173.7 152.2 173.4 150.5C173.1 148.7 171.4 147.6 169.7 147.9C167.8 148.2 166.7 149.8 167 151.6Z" fill="black"/>
<path d="M186.5 159.6C186.8 161.4 187.8 164.7 189.6 164.4C191.4 164.1 193.2 160.2 192.9 158.5C192.6 156.7 190.9 155.6 189.2 155.9C187.4 156.1 186.2 157.8 186.5 159.6Z" fill="black"/>
<path d="M87.9 46.7999C87.2 47.7999 85.7 49.6999 84.6 49.0999C83.6 48.3999 83.4 45.3999 84.1 44.3999C84.8 43.3999 86.2 43.0999 87.2 43.6999C88.3 44.2999 88.6 45.6999 87.9 46.7999Z" fill="black"/>
<path d="M93.1998 50.2001C92.4998 51.2001 90.9998 53.1001 89.8998 52.5001C88.8998 51.8001 88.6998 48.8001 89.3998 47.8001C90.0998 46.8001 91.4998 46.5001 92.4998 47.1001C93.5998 47.7001 93.8998 49.1001 93.1998 50.2001Z" fill="black"/>
<path d="M98.4996 53.6C97.7996 54.6 96.2996 56.5 95.1996 55.9C94.1996 55.2 93.9996 52.2 94.6996 51.2C95.3996 50.2 96.7996 49.9 97.7996 50.5C98.7996 51.1 99.0996 52.5 98.4996 53.6Z" fill="black"/>
</g>
<defs>
<clipPath id="clip0">
<rect width="272.5" height="164.4" fill="white"/>
</clipPath>
</defs>
</svg>
