<svg width="167" height="155" viewBox="0 0 167 155" fill="none" xmlns="http://www.w3.org/2000/svg">
<path d="M167 66.3868H111.176L109.369 108.65L133.96 107.914L155.831 107.26L167 106.925V66.3868Z" fill="#D1EAFF"/>
<path d="M132.73 102.911L135.273 109.355L144.157 105.077L138.444 113.333L145.798 117.248L137.312 118.294L137.816 125.204L132.73 120.502L125.706 126.937L128.149 118.294L121.304 117.248L127.017 113.333L124.645 107.815L130.188 109.355L132.73 102.911Z" fill="black"/>
<path d="M49.5005 83.4173C48.6505 79.0839 44.7506 71.0695 43.5759 73.5598C42.1076 76.6726 42.6744 85.584 44.6578 86.1031C46.6413 86.6216 43.7562 73.6208 41.2833 74.5364C39.305 75.269 40.459 79.0733 41.2833 80.884C40.9914 78.4428 40.6163 75.0244 36.5693 72.7357" stroke="black" stroke-linecap="round"/>
<path d="M28.4863 49.2387V1H92.7694V12.0482H117.699V47.3403" stroke="#FFDC4D"/>
<path d="M91.7118 33.6779V109.755L1 112.992L3.84406 33.6779H91.7118Z" stroke="black"/>
<path d="M3.84538 33.6779H91.7132V49.4274H3.27734L3.84538 33.6779Z" fill="black"/>
<path d="M10.7607 45.5759C12.8258 45.5759 14.4999 43.7746 14.4999 41.5526C14.4999 39.3307 12.8258 37.5294 10.7607 37.5294C8.69559 37.5294 7.02148 39.3307 7.02148 41.5526C7.02148 43.7746 8.69559 45.5759 10.7607 45.5759Z" fill="white"/>
<path d="M20.4814 45.5759C22.5465 45.5759 24.2206 43.7746 24.2206 41.5526C24.2206 39.3307 22.5465 37.5294 20.4814 37.5294C18.4163 37.5294 16.7422 39.3307 16.7422 41.5526C16.7422 43.7746 18.4163 45.5759 20.4814 45.5759Z" fill="white"/>
<path d="M30.2031 45.5759C32.2682 45.5759 33.9423 43.7746 33.9423 41.5526C33.9423 39.3307 32.2682 37.5294 30.2031 37.5294C28.138 37.5294 26.4639 39.3307 26.4639 41.5526C26.4639 43.7746 28.138 45.5759 30.2031 45.5759Z" fill="white"/>
<path d="M59.4411 19.5175L56.96 76.1746L136.101 73.8622V19.5175H59.4411Z" stroke="black"/>
<path d="M88.0723 100.809H113.085M88.0723 98.0649H103.795H88.0723Z" stroke="black" stroke-linecap="round"/>
<path d="M147.408 25.9585C147.408 27.1611 147.137 29.5075 145.936 29.5075C144.734 29.5075 143.057 27.1611 143.057 25.9585C143.057 24.756 144.031 23.7811 145.233 23.7811C146.434 23.7811 147.408 24.756 147.408 25.9585Z" fill="black"/>
<path d="M156.361 32.3697C156.361 33.5722 156.094 35.9187 154.909 35.9187C153.725 35.9187 152.071 33.5722 152.071 32.3697C152.071 31.1671 153.032 30.1923 154.216 30.1923C155.4 30.1923 156.361 31.1671 156.361 32.3697Z" fill="black"/>
<path d="M159.718 40.897C159.718 42.0996 159.452 44.446 158.267 44.446C157.082 44.446 155.429 42.0996 155.429 40.897C155.429 39.6945 156.389 38.7196 157.574 38.7196C158.758 38.7196 159.718 39.6945 159.718 40.897Z" fill="black"/>
<path d="M162.392 32.3697C162.392 33.5722 162.126 35.9187 160.941 35.9187C159.756 35.9187 158.103 33.5722 158.103 32.3697C158.103 31.1671 159.063 30.1923 160.247 30.1923C161.432 30.1923 162.392 31.1671 162.392 32.3697Z" fill="black"/>
<path d="M52.228 23.7811L56.8258 36.0642L64.7821 29.9328L58.9518 39.7875L75.9781 44.5429L57.3317 42.8324L63.5474 57.3926L55.2264 45.4738L47.3913 56.5832L49.6588 44.5429L36.4385 46.6474L50.0233 40.2934L39.941 25.0357L51.6429 35.3964L52.228 23.7811Z" fill="#FFDC4D"/>
<path d="M107.065 1.34751C107.276 1.78004 106.336 2.67304 104.966 3.34209C103.597 4.01109 55.6807 26.9805 55.6807 26.9805C55.6807 26.9805 102.833 2.44473 104.203 1.7757C105.573 1.10668 106.854 0.914967 107.065 1.34751Z" fill="black"/>
<path d="M104.471 2.83054C105.159 2.51668 105.669 2.16083 105.612 2.03572C105.555 1.91062 104.952 2.06364 104.265 2.3775C103.578 2.69136 103.067 3.04722 103.124 3.17232C103.181 3.29742 103.784 3.1444 104.471 2.83054Z" fill="white"/>
<path d="M38.8562 58.1395C36.3573 59.9466 29.6486 68.6448 30.2036 74.2106C31.6093 88.3059 48.2273 86.8362 48.2273 99.4376C48.2273 113.099 22.0508 112.039 22.0508 126.857C22.0508 140.206 46.6967 145.089 48.2273 146.591" stroke="black" stroke-linecap="round"/>
<path d="M38.9874 58.4819L36.4385 57.0503L41.1012 56.1477L40.4583 51.4891C40.4523 51.4622 40.4489 51.4382 40.4484 51.4172L40.4583 51.4891C40.5709 51.9935 41.5985 53.4713 41.5985 53.4713C41.5985 53.4713 43.9817 53.077 44.6137 52.4754L43.246 55.5875L46.8829 56.1477H41.1012L41.5985 60.1936L38.9874 58.4819Z" fill="#FFDC4D"/>
<path d="M118.922 147.656C116.927 137.477 107.777 118.653 105.021 124.502C101.576 131.814 102.906 152.746 107.56 153.964C112.214 155.183 105.445 124.646 99.6429 126.796C95.0014 128.517 97.7088 137.453 99.6429 141.706C98.9578 135.972 98.0781 127.943 88.583 122.567" stroke="black" stroke-linecap="round"/>
<path d="M26.3037 97.9355C26.3037 99.1512 26.5745 101.523 27.7763 101.523C28.978 101.523 30.6556 99.1512 30.6556 97.9355C30.6556 96.7199 29.6814 95.7346 28.4796 95.7346C27.2779 95.7346 26.3037 96.7199 26.3037 97.9355Z" fill="black"/>
<path d="M20.2119 97.9355C20.2119 99.1512 20.4827 101.523 21.6845 101.523C22.8862 101.523 24.5638 99.1512 24.5638 97.9355C24.5638 96.7199 23.5896 95.7346 22.3878 95.7346C21.1862 95.7346 20.2119 96.7199 20.2119 97.9355Z" fill="black"/>
<path d="M14.1807 97.9355C14.1807 99.1512 14.4515 101.523 15.6532 101.523C16.8549 101.523 18.5325 99.1512 18.5325 97.9355C18.5325 96.7199 17.5583 95.7346 16.3566 95.7346C15.1549 95.7346 14.1807 96.7199 14.1807 97.9355Z" fill="black"/>
</svg>
