<svg width="231" height="212" viewBox="0 0 231 212" fill="none" xmlns="http://www.w3.org/2000/svg">
<path d="M156.353 143.676L102.925 143.418L104.238 84.846L115.241 72.6638L152.975 72.8468L156.353 143.676Z" fill="#D1EAFF"/>
<path d="M131.693 101.36C133.314 94.4078 140.751 81.5509 142.991 85.546C145.791 90.54 144.711 104.836 140.928 105.669C137.146 106.501 142.648 85.644 147.363 87.1128C151.136 88.2878 148.935 94.3915 147.363 97.2965C147.919 93.3797 148.635 87.8961 156.353 84.2241" stroke="black" stroke-linecap="round"/>
<path d="M56.8948 193.667C54.9496 185.11 46.025 169.286 43.3371 174.203C39.9772 180.35 41.274 197.945 45.8129 198.97C50.3517 199.993 43.7497 174.324 38.0909 176.131C33.5638 177.578 36.2046 185.09 38.0909 188.665C37.4228 183.845 36.5646 177.096 27.3037 172.576" stroke="black" stroke-linecap="round"/>
<path d="M115.82 72.6638L104.569 84.224L118.543 83.7698L115.82 72.6638Z" fill="black"/>
<path d="M4.83986 35.5061L1 142.85L123.474 138.469V35.5061H4.83986Z" stroke="black"/>
<path d="M21.5498 113.95L35.652 91.2976L51.7565 108.925L69.7357 79.0835L83.0283 101.735L102.925 62.7549" stroke="black" stroke-linecap="round"/>
<path d="M10.042 133.767H49.4967M10.042 127.162H34.8435H10.042Z" stroke="black" stroke-linecap="round"/>
<path d="M123.474 35.5061H5.93164V56.9749H123.474V35.5061Z" fill="black"/>
<path d="M14.5628 52.0206C17.0596 52.0206 19.0837 49.6176 19.0837 46.6533C19.0837 43.6891 17.0596 41.2861 14.5628 41.2861C12.066 41.2861 10.042 43.6891 10.042 46.6533C10.042 49.6176 12.066 52.0206 14.5628 52.0206Z" fill="white"/>
<path d="M27.7129 52.0206C30.6637 52.0206 33.0558 49.6176 33.0558 46.6533C33.0558 43.6891 30.6637 41.2861 27.7129 41.2861C24.7622 41.2861 22.3701 43.6891 22.3701 46.6533C22.3701 49.6176 24.7622 52.0206 27.7129 52.0206Z" fill="white"/>
<path d="M40.8653 52.0206C43.8161 52.0206 46.2081 49.6176 46.2081 46.6533C46.2081 43.6891 43.8161 41.2861 40.8653 41.2861C37.9145 41.2861 35.5225 43.6891 35.5225 46.6533C35.5225 49.6176 37.9145 52.0206 40.8653 52.0206Z" fill="white"/>
<path d="M64.2915 105.641L61.0045 99.9126L60.1816 106.518L64.2915 105.641Z" fill="#0E76D0"/>
<path d="M199.642 70.9026C202.514 76.9108 199.179 85.2214 196.167 87.9672C186.673 89.8274 181.271 90.1212 171.29 90.8296C169.225 88.9612 164.565 83.1106 162.447 74.6559C160.331 66.2014 168.585 67.6314 172.977 69.4033C174.491 69.7157 178.397 68.8284 181.907 62.7813C185.418 56.7341 181.637 51.8625 179.307 50.1825C177.952 49.0447 176.318 46.6682 180.62 46.2638C189.061 45.6885 194.501 55.9085 196.167 61.0903C198.638 62.3542 198.685 67.2388 198.399 69.5231L199.642 70.9026Z" fill="#3D98E7"/>
<path d="M166.879 61.4277C168.165 64.2565 170.809 68.0167 171.971 69.5433L162.412 72.6638C158.682 54.5086 165.271 57.8915 166.879 61.4277Z" fill="#3D98E7"/>
<path fill-rule="evenodd" clip-rule="evenodd" d="M156.645 56.7199C147.741 56.0142 140.735 48.5897 140.735 39.5346C140.735 30.0131 148.481 22.2944 158.035 22.2944C167.397 22.2944 175.023 29.705 175.327 38.961C175.932 42.0607 177.23 47.7588 179.097 50.8965C181.617 55.1307 185.738 59.9675 189.232 63.7487L181.948 71.0122C178.149 67.5344 173.268 63.433 168.843 60.8382C165.272 58.7447 158.486 57.1323 156.645 56.7199Z" fill="#FFDC4D"/>
<path d="M200.303 13.2117L199.109 16.3122L194.935 14.2537L197.619 18.2263L194.164 20.1096L198.151 20.6131L197.914 23.9378L200.303 21.6754L203.603 24.7718L202.455 20.6131L205.672 20.1096L202.988 18.2263L204.102 15.5709L201.497 16.3122L200.303 13.2117Z" fill="black"/>
<path d="M185.123 65.3353C177.008 58.0813 161.144 42.4553 162.6 37.9841C164.421 32.3952 172.328 37.4401 173.478 41.5452C174.628 45.6504 163.511 57.3723 159.677 55.938C155.844 54.5036 151.1 45.2547 155.939 44.0677C159.811 43.118 173.845 59.7298 182.343 67.7094" stroke="black" stroke-linecap="round"/>
<path d="M143.826 57.1997L137.024 64.4067M126.605 11.8298L137.024 21.0682L126.605 11.8298ZM157.429 6.60596V15.4575V6.60596ZM133.406 43.1244L121.829 45.5429L133.406 43.1244ZM177.882 23.8736L183.477 18.2628L177.882 23.8736Z" stroke="black" stroke-linecap="round"/>
<path d="M189.914 62.9345L180.887 71.9355L187.5 78.6292L196.528 69.6281L189.914 62.9345Z" fill="black"/>
<path d="M24.8368 2.5119C24.8368 3.89924 24.4788 6.6058 22.8899 6.6058C21.301 6.6058 19.083 3.89924 19.083 2.5119C19.083 1.12456 20.3711 0 21.9599 0C23.5488 0 24.8368 1.12456 24.8368 2.5119Z" fill="black"/>
<path d="M32.2356 2.5119C32.2356 3.89924 31.9287 6.6058 30.5668 6.6058C29.2048 6.6058 27.3037 3.89924 27.3037 2.5119C27.3037 1.12456 28.4078 0 29.7696 0C31.1315 0 32.2356 1.12456 32.2356 2.5119Z" fill="black"/>
<path d="M40.4547 2.5119C40.4547 3.89924 40.0455 6.6058 38.2296 6.6058C36.4137 6.6058 33.8789 3.89924 33.8789 2.5119C33.8789 1.12456 35.351 0 37.1667 0C38.9826 0 40.4547 1.12456 40.4547 2.5119Z" fill="black"/>
<path d="M192.171 74.3339C206.127 83.9718 229.352 105.884 210.608 116.43C187.178 129.612 166.234 114.74 166.428 106.41C166.621 98.0788 208.373 103.072 207.805 135.326C207.238 167.58 149.638 162.405 139.549 151.535C129.46 140.664 145.7 140.171 158.464 150.023C171.229 159.875 175.323 192.783 144.429 190.156C110.247 187.248 105.282 174.061 107.471 170.538C109.66 167.016 122.081 167.11 128.212 174.283C134.343 181.456 108.784 187.486 70.4657 157.761" stroke="black" stroke-linecap="round"/>
</svg>
