<svg width="184" height="188" viewBox="0 0 184 188" fill="none" xmlns="http://www.w3.org/2000/svg">
<path d="M161.588 53.8157H64.5217V123.761H161.588V53.8157Z" fill="#D1EAFF"/>
<path d="M93.7669 67.0136L138.514 66.7764C140.044 66.7649 141.296 68.0586 141.312 69.6652C141.328 71.2722 140.102 72.5841 138.572 72.5956L93.825 72.8329C92.2963 72.8443 91.0437 71.5506 91.0276 69.944C91.0114 68.337 92.2378 67.0251 93.7669 67.0136Z" stroke="black" stroke-width="1.2"/>
<path d="M94.7901 77.1808L150.795 76.6553C152.279 76.6304 153.501 77.9301 153.524 79.5583C153.547 81.1869 152.362 82.5272 150.878 82.5526L94.8733 83.0781C93.3892 83.103 92.1671 81.8033 92.1441 80.1751C92.1212 78.5465 93.3059 77.2062 94.7901 77.1808Z" stroke="black" stroke-width="1.2"/>
<path d="M95.6986 87.3612L151.489 87.8574C153.033 87.8813 154.263 89.0676 154.237 90.5069C154.212 91.9461 152.94 93.0938 151.397 93.0703L95.6062 92.574C94.0627 92.5501 92.8325 91.3638 92.8578 89.9245C92.8835 88.4853 94.155 87.3376 95.6986 87.3612Z" stroke="black" stroke-width="1.2"/>
<path d="M13.7065 140.059C13.7065 141.446 13.4054 144.127 12.0505 144.127C10.6955 144.127 8.79858 141.43 8.79858 140.059C8.79858 138.687 9.8976 137.562 11.2525 137.562C12.6075 137.562 13.7065 138.672 13.7065 140.059Z" fill="black"/>
<path d="M19.5176 141.677C19.5176 142.725 19.2918 144.775 18.253 144.775C17.2293 144.775 15.7991 142.725 15.7991 141.677C15.7991 140.629 16.6271 139.766 17.6659 139.766C18.6896 139.766 19.5176 140.629 19.5176 141.677Z" fill="black"/>
<path d="M14.3536 148.319C14.3536 149.367 14.1278 151.417 13.089 151.417C12.0652 151.417 10.635 149.367 10.635 148.319C10.635 147.271 11.463 146.408 12.5018 146.408C13.5105 146.408 14.3536 147.256 14.3536 148.319Z" fill="black"/>
<path d="M19.5325 148.319C19.5325 149.367 19.3067 151.417 18.2679 151.417C17.2442 151.417 15.814 149.367 15.814 148.319C15.814 147.271 16.642 146.408 17.6808 146.408C18.6895 146.408 19.5325 147.256 19.5325 148.319Z" fill="black"/>
<path d="M24.6966 148.319C24.6966 149.367 24.4708 151.417 23.432 151.417C22.3932 151.417 20.978 149.367 20.978 148.319C20.978 147.271 21.8061 146.408 22.8448 146.408C23.8686 146.408 24.6966 147.256 24.6966 148.319Z" fill="black"/>
<path d="M155.027 69.7355C155.027 70.7835 154.801 72.8333 153.763 72.8333C152.739 72.8333 151.309 70.7835 151.309 69.7355C151.309 68.6875 152.137 67.8245 153.175 67.8245C154.199 67.8245 155.027 68.6875 155.027 69.7355Z" fill="black"/>
<path d="M160.206 69.7355C160.206 70.7835 159.98 72.8333 158.941 72.8333C157.918 72.8333 156.487 70.7835 156.487 69.7355C156.487 68.6875 157.315 67.8245 158.354 67.8245C159.378 67.8245 160.206 68.6875 160.206 69.7355Z" fill="black"/>
<path d="M165.385 69.7355C165.385 70.7835 165.159 72.8333 164.12 72.8333C163.081 72.8333 161.666 70.7835 161.666 69.7355C161.666 68.6875 162.494 67.8245 163.533 67.8245C164.557 67.8245 165.385 68.6875 165.385 69.7355Z" fill="black"/>
<path d="M14.4139 154.946C14.4139 155.994 14.1881 158.044 13.1493 158.044C12.1105 158.044 10.6953 155.994 10.6953 154.946C10.6953 153.898 11.5233 153.035 12.5621 153.035C13.5859 153.051 14.4139 153.898 14.4139 154.946Z" fill="black"/>
<path d="M84.3892 110.268L86.8431 44.969H163.051V107.586L84.3892 110.268Z" stroke="black" stroke-width="1.2"/>
<path d="M117.901 180.951L168.004 186.718L175.454 121.999L125.13 118.147L117.901 180.951Z" fill="white"/>
<path d="M162.884 152.163L135.231 148.98" stroke="black" stroke-width="1.2" stroke-linecap="round"/>
<path d="M152.952 132.341L129.554 129.647" stroke="black" stroke-width="1.2" stroke-linecap="round"/>
<path d="M163.292 148.618L152.656 147.394" stroke="black" stroke-width="1.2" stroke-linecap="round"/>
<path d="M163.458 44.5684H86.4668V57.6991H163.443V44.5684H163.458Z" fill="black"/>
<path d="M92.5342 54.478C94.3408 54.478 95.8161 52.9831 95.8161 51.1183C95.8161 49.2689 94.3558 47.7586 92.5342 47.7586C90.7276 47.7586 89.2522 49.2535 89.2522 51.1183C89.2522 52.9831 90.7276 54.478 92.5342 54.478Z" fill="white"/>
<path d="M101.055 54.478C102.862 54.478 104.337 52.9831 104.337 51.1183C104.337 49.2689 102.877 47.7586 101.055 47.7586C99.2486 47.7586 97.7732 49.2535 97.7732 51.1183C97.7732 52.9831 99.2335 54.478 101.055 54.478Z" fill="white"/>
<path d="M109.561 54.478C111.368 54.478 112.843 52.9831 112.843 51.1183C112.843 49.2689 111.383 47.7586 109.561 47.7586C107.754 47.7586 106.279 49.2535 106.279 51.1183C106.294 52.9831 107.754 54.478 109.561 54.478Z" fill="white"/>
<path d="M28.8918 110.284H58.9566" stroke="black" stroke-width="1.2" stroke-linecap="round"/>
<path d="M28.8918 106.462H40.4842" stroke="black" stroke-width="1.2" stroke-linecap="round"/>
<path d="M23.1255 128.732L25.1278 95.597H87.7865V127.36L23.1255 128.732Z" stroke="black" stroke-width="1.2"/>
<path d="M88.1779 95.2118H24.7515V101.947H88.1779V95.2118Z" fill="black"/>
<path d="M28.8914 100.298C29.9001 100.298 30.7281 99.527 30.7281 98.5869C30.7281 97.6467 29.9001 96.8762 28.8914 96.8762C27.8827 96.8762 27.0547 97.6467 27.0547 98.5869C27.0547 99.527 27.8677 100.298 28.8914 100.298Z" fill="white"/>
<path d="M33.7093 100.298C34.7331 100.298 35.5762 99.527 35.5762 98.5869C35.5762 97.6467 34.7331 96.8762 33.7093 96.8762C32.6856 96.8762 31.8425 97.6467 31.8425 98.5869C31.8425 99.527 32.6706 100.298 33.7093 100.298Z" fill="white"/>
<path d="M38.512 100.298C39.5207 100.298 40.3487 99.527 40.3487 98.5869C40.3487 97.6467 39.5207 96.8762 38.512 96.8762C37.5033 96.8762 36.6753 97.6467 36.6753 98.5869C36.6753 99.527 37.5033 100.298 38.512 100.298Z" fill="white"/>
<path d="M115.676 178.035L165.779 183.803L173.229 119.084L122.905 115.232L115.676 178.035Z" stroke="black" stroke-width="1.2"/>
<path d="M183 7.78864C179.312 18.6847 162.435 38.8431 157.346 32.5859C150.993 24.7568 153.447 2.34834 162.028 1.03835C170.625 -0.271641 158.129 32.4318 147.41 30.1355C138.844 28.2861 143.842 18.7309 147.41 14.1691C146.145 20.3029 144.52 28.9026 126.996 34.6665" stroke="black" stroke-width="1.2" stroke-linecap="round"/>
<path d="M48.3478 164.872C46.4358 173.733 37.6437 190.116 34.994 185.015C31.682 178.65 32.9616 160.433 37.4329 159.37C41.9043 158.306 35.4005 184.891 29.8302 183.011C25.3739 181.516 27.9784 173.733 29.8302 170.034C29.1678 175.028 28.3247 182.009 19.2014 186.694" stroke="black" stroke-width="1.2" stroke-linecap="round"/>
<path d="M74.5585 29.7577L59.624 24.1941L56.9141 31.8074L71.8486 37.371L74.5585 29.7577Z" stroke="black" stroke-width="1.2"/>
<path d="M65.2844 31.5609L59.5786 24.4562L74.483 29.8811L65.2844 31.5609Z" fill="black"/>
<path d="M16.8377 62.7848L1.12036 65.1736L2.27959 73.1876L17.9969 70.7988L16.8377 62.7848Z" stroke="black" stroke-width="1.2"/>
<path d="M9.5211 69.049L1 65.4119L16.883 63.0385L9.5211 69.049Z" fill="black"/>
<path d="M18.8553 26.5521L10.3041 24.0246L9.11475 28.2782L17.666 30.7903L18.8553 26.5521Z" stroke="black" stroke-width="1.2"/>
<path d="M13.7516 27.8776L10.8911 24.487L18.1928 26.5676L13.7516 27.8776Z" stroke="black" stroke-width="1.2"/>
<path d="M105.06 57.2983C106.279 57.4678 107.393 56.5739 107.559 55.2947L103.148 54.6937C102.982 55.9729 103.84 57.1287 105.06 57.2983Z" fill="black"/>
<path d="M107.92 56.99C108.552 57.0363 109.109 56.5431 109.155 55.8804L106.866 55.7109C106.806 56.3582 107.288 56.9438 107.92 56.99Z" fill="black"/>
<path d="M39.3301 75.5765L26.3376 47.9281L41.6335 39.4979L55.8152 66.4837L39.3301 75.5765Z" fill="#FFDC4D"/>
<path d="M37.2973 75.1604L24.3049 47.5119L39.6008 39.0818L53.7825 66.0675L37.2973 75.1604Z" stroke="black" stroke-width="1.2"/>
<path d="M30.041 47.7123L28.5957 44.8611L34.8435 41.4089L36.2135 44.0597L30.041 47.7123Z" fill="black"/>
<path d="M44.328 55.3873C38.3061 52.4591 35.3252 57.3446 34.6025 60.1495C36.0629 60.7659 39.2696 61.7677 41.3622 60.4269C43.4699 59.0707 44.2979 56.4661 44.328 55.3873Z" fill="white"/>
<path d="M40.2031 60.2729C41.5731 60.0417 42.5065 58.7163 42.2806 57.3138C42.0548 55.9114 40.7601 54.9558 39.3901 55.187C38.0201 55.4182 37.0867 56.7436 37.3125 58.1461C37.5383 59.5485 38.8331 60.504 40.2031 60.2729Z" fill="black"/>
<path d="M34.5273 59.2709L32.7207 58.6082" stroke="black" stroke-width="1.2" stroke-linecap="round"/>
<path d="M35.4302 57.3137L33.7742 56.3274" stroke="black" stroke-width="1.2" stroke-linecap="round"/>
<path d="M37.1469 55.4489L35.792 54.0464" stroke="black" stroke-width="1.2" stroke-linecap="round"/>
<path d="M39.3752 54.2931L38.8633 52.3975" stroke="black" stroke-width="1.2" stroke-linecap="round"/>
<path d="M42.2505 54.1852L42.5067 52.2433" stroke="black" stroke-width="1.2" stroke-linecap="round"/>
<path d="M44.2375 54.8478L45.0204 53.0601" stroke="black" stroke-width="1.2" stroke-linecap="round"/>
</svg>
