<svg width="253" height="317" viewBox="0 0 253 317" fill="none" xmlns="http://www.w3.org/2000/svg">
<path d="M107.024 30.0493C106.79 33.6603 101.841 36.5022 95.7559 36.5022C90.0385 36.5022 85.3242 33.9612 84.5886 30.6845C84.5217 30.4839 84.5217 30.2499 84.4883 30.0158C85.7923 28.7787 87.8318 27.7757 90.306 27.1738C91.5431 28.2772 93.4823 30.2164 94.7529 31.3867C94.8532 29.9155 94.9201 28.6115 95.0204 27.2407H96.7924C96.8593 28.6115 96.9262 29.8821 97.0265 31.487C98.1298 30.3836 100.036 28.4444 101.239 27.1738C103.68 27.8425 105.72 28.8122 107.024 30.0493Z" fill="#242938"/>
<path d="M94.1182 24.5996L93.416 27.4082H98.2307L97.562 24.5996H94.1182Z" fill="#242938"/>
<path d="M90.3066 28.4445C90.3066 28.4445 95.7566 26.8731 101.207 28.4445" stroke="#242938" stroke-width="2" stroke-linecap="round"/>
<path d="M101.005 18.0462C101.406 16.7088 101.674 12.8637 99.1326 12.8303C99.3666 12.0947 98.2967 10.7573 95.8559 10.9245C93.8832 11.0248 92.0443 12.3288 91.0078 14.268C90.3725 15.4382 90.3057 16.7422 90.7069 18.0462C90.0716 18.1465 90.0047 18.5811 90.0382 19.0492C90.0716 19.3836 90.105 19.7514 90.2388 20.0857C90.8406 21.49 91.3756 22.9611 92.1112 24.2986C92.8802 25.7028 94.2845 26.3715 95.8559 26.3715C97.4274 26.3715 98.7982 25.7028 99.6006 24.2986C100.336 22.9611 100.871 21.49 101.473 20.0857C101.607 19.7848 101.64 19.417 101.674 19.0492C101.707 18.5811 101.64 18.113 101.005 18.0462Z" fill="#242938"/>
<path d="M192.175 32.8884C191.993 35.7094 188.127 37.9296 183.373 37.9296C178.906 37.9296 175.223 35.9445 174.649 33.3847C174.596 33.228 174.596 33.0452 174.57 32.8623C175.589 31.8959 177.182 31.1123 179.115 30.6421C180.082 31.5041 181.597 33.019 182.589 33.9332C182.668 32.7839 182.72 31.7653 182.798 30.6943H184.183C184.235 31.7653 184.287 32.7578 184.365 34.0116C185.227 33.1496 186.716 31.6347 187.657 30.6421C189.563 31.1645 191.157 31.922 192.175 32.8884Z" fill="#242938"/>
<path d="M182.093 28.6313L181.545 30.8255H185.306L184.784 28.6313H182.093Z" fill="#242938"/>
<path d="M179.115 31.635C179.115 31.635 183.373 30.4073 187.63 31.635" stroke="#242938" stroke-width="2" stroke-linecap="round"/>
<path d="M187.473 23.5113C187.787 22.4665 187.996 19.4627 186.011 19.4366C186.193 18.8619 185.358 17.8171 183.451 17.9477C181.91 18.0261 180.473 19.0448 179.663 20.5597C179.167 21.4739 179.115 22.4926 179.428 23.5113C178.932 23.5897 178.88 23.9292 178.906 24.2949C178.932 24.5561 178.958 24.8435 179.063 25.1047C179.533 26.2017 179.951 27.351 180.525 28.3958C181.126 29.4929 182.223 30.0153 183.451 30.0153C184.678 30.0153 185.749 29.4929 186.376 28.3958C186.951 27.351 187.369 26.2017 187.839 25.1047C187.943 24.8696 187.97 24.5823 187.996 24.2949C188.022 23.9292 187.97 23.5636 187.473 23.5113Z" fill="#242938"/>
<path d="M78.6367 12.3288L95.7555 2.03076L112.874 12.3288V32.9583L95.7555 43.2564L78.6367 32.9583V12.3288Z" stroke="#242938" stroke-width="2"/>
<path d="M170 18.9935L183.5 11L197 18.9935V35.0065L183.5 43L170 35.0065V18.9935Z" stroke="#242938" stroke-width="2"/>
<path d="M40.4203 59.8402C22.3319 47.3688 10.1615 61.2779 6.31641 69.8039C10.7633 72.5121 20.6601 77.3937 28.183 74.2507C35.706 71.1078 39.7516 63.2506 40.4203 59.8402Z" fill="#F6F6F7"/>
<path d="M24.4718 73.181C29.0525 73.181 32.7972 69.4697 32.7972 64.8556C32.7972 60.275 29.0859 56.5303 24.4718 56.5303C19.8578 56.5303 16.1465 60.2416 16.1465 64.8556C16.1465 69.4363 19.8912 73.181 24.4718 73.181Z" fill="#242938"/>
<path d="M6.55024 66.9618L1 63.8857" stroke="#242938" stroke-width="2" stroke-linecap="round"/>
<path d="M10.4616 61.211L5.58008 57.1987" stroke="#242938" stroke-width="2" stroke-linecap="round"/>
<path d="M17.0155 56.2291L13.3711 51.0801" stroke="#242938" stroke-width="2" stroke-linecap="round"/>
<path d="M24.8718 53.7219L24.2031 47.436" stroke="#242938" stroke-width="2" stroke-linecap="round"/>
<path d="M34.3008 54.8916L36.1397 48.8398" stroke="#242938" stroke-width="2" stroke-linecap="round"/>
<path d="M40.4199 58.0684L43.8972 52.7856" stroke="#242938" stroke-width="2" stroke-linecap="round"/>
<path d="M236.117 153.559C230.266 140.887 219.098 144.532 214.217 147.942C215.755 150.885 219.6 156.736 224.749 157.471C229.864 158.207 234.646 155.231 236.117 153.559Z" fill="#F6F6F7"/>
<path d="M223.076 155.699C225.584 157.17 228.827 156.367 230.298 153.86C231.769 151.352 230.967 148.109 228.459 146.638C225.952 145.167 222.709 145.969 221.237 148.477C219.733 150.984 220.535 154.194 223.076 155.699Z" fill="#242938"/>
<path d="M215.252 146.504L213.213 143.027" stroke="#242938" stroke-width="2" stroke-linecap="round"/>
<path d="M219.299 144.632L217.928 140.854" stroke="#242938" stroke-width="2" stroke-linecap="round"/>
<path d="M224.481 144.03L224.146 140.018" stroke="#242938" stroke-width="2" stroke-linecap="round"/>
<path d="M229.596 145.167L231.267 141.522" stroke="#242938" stroke-width="2" stroke-linecap="round"/>
<path d="M234.344 148.878L237.319 146.17" stroke="#242938" stroke-width="2" stroke-linecap="round"/>
<path d="M236.686 152.589L240.297 150.817" stroke="#242938" stroke-width="2" stroke-linecap="round"/>
<path d="M76.8971 52.8521L83.651 64.7216L65.6629 72.7795C61.0488 62.2809 51.9544 40.3139 52.4894 36.5358C53.0244 32.7576 56.0335 30.0493 57.3041 30.0828C57.3041 29.2469 58.0731 26.8061 59.678 25.7027C61.7175 24.2985 64.1583 24.2316 65.1613 24.7666C67.3012 18.4139 73.8211 21.0553 75.2253 22.2255C83.6176 20.3197 88.4322 23.8638 89.6025 25.6359C90.7727 27.3745 87.8638 29.0797 87.262 28.7788C86.6602 28.4779 82.5476 27.4748 80.0066 28.1435C75.8606 29.3138 76.1615 33.9278 77.3318 36.5023C78.502 39.0768 80.8759 37.6726 84.7209 36.5023C88.566 35.3321 92.1436 33.5935 92.1436 36.5023C92.1436 38.1406 88.0979 44.2927 81.4443 46.2654C77.4321 47.5025 76.2618 51.7488 76.8971 52.8521Z" fill="#D58B8B"/>
<path d="M76.7632 21.5566C74.8574 21.7907 72.0488 23.8302 72.0488 27.1403" stroke="#242938" stroke-width="2" stroke-linecap="round"/>
<path d="M65.9975 22.627C65.6632 22.861 64.1586 25.1012 63.8242 27.9097" stroke="#242938" stroke-width="2" stroke-linecap="round"/>
<path d="M58.7084 27.3076C58.3741 27.5417 56.8695 29.7818 56.5352 32.5904" stroke="#242938" stroke-width="2" stroke-linecap="round"/>
<path d="M123.369 289.65L131.051 259.209L113.079 253.106L108.514 267.987C108.735 269.503 110.784 276.003 112.67 281.397C114.549 286.767 120.425 289.108 123.369 289.65Z" fill="#D58B8B"/>
<path d="M233.266 291.534L221.192 259.684L202.963 265.151L207.611 277.659C208.702 278.742 213.531 281.554 218.933 288.44C223.191 293.907 230.54 292.824 233.266 291.534Z" fill="#D58B8B"/>
<path d="M111.664 238.484L117.501 195.5L137.001 145C137.001 145 156.706 142.993 165.909 142.5C175.591 141.981 199.501 138.5 199.501 138.5L201.198 198.5L220.466 249.393H222.465C223.945 249.393 226.438 249.393 226.438 251.044C226.438 252.694 228.282 256.073 228.749 259.271C229.216 262.469 228.411 263.603 226.438 264.068C224.439 264.532 202.886 271.315 201.198 271.443C199.484 271.572 197.822 270.928 197.589 269.612C197.355 268.297 195.589 264.919 194.992 263.577C194.499 262.52 195.2 261.308 195.615 260.844L196.81 259.245L169.001 215L161.001 184.5L146.001 213.5L140.001 254C144.001 254 144.501 258 143.051 261.617C141.6 265.235 141.441 267.73 139.311 269.612C137.597 271.108 135.728 270.231 135.001 269.612C126.042 265.151 103.64 250.45 102.783 249.393C101.744 248.078 105.717 240.599 108.132 238.484C110.08 236.782 111.3 237.762 111.664 238.484Z" fill="#242938"/>
<path d="M115.117 241.63C117.428 243.307 123.063 246.917 126.958 247.923C130.853 248.929 134.774 249.548 136.254 249.703" stroke="white" stroke-width="2" stroke-linecap="round"/>
<path d="M214.751 248.929L196.999 209.5M134.435 245.86L140.999 209.5M126.957 243.59L129.999 222M119.322 239.232L123.499 203.5M198.859 254.371L187.499 226.5M207.636 252.591L200.963 234.564" stroke="white" stroke-width="2" stroke-linecap="round"/>
<path d="M199.25 258.858C202.106 258.523 208.702 257.388 212.259 255.505C215.817 253.623 219.115 251.431 220.309 250.554" stroke="white" stroke-width="2" stroke-linecap="round"/>
<path d="M114.489 283.951C117.187 287.871 121.498 289.193 123.32 289.369L121.476 296.491C121.112 299.527 119.668 305.74 116.937 306.183L69.2169 275.651C68.7367 272.575 76.5519 264.857 78.9336 264.214C81.3153 263.571 87.0391 266.942 90.05 268.133C92.4587 269.086 99.7447 270.272 103.077 270.762C102.453 267.351 101.6 260.503 103.172 260.346C105.139 260.162 109.463 269.707 109.792 270.927C110.121 272.148 111.101 279.069 114.489 283.951Z" stroke="#242938" stroke-width="2"/>
<path d="M72.3379 269.974C72.9066 271.584 74.5894 275.03 76.6856 276.12C82.3954 279.041 91.5052 288.283 97.4673 288.25C100.996 288.073 107.855 296.747 110.707 297.847C113.552 298.923 117.938 300.625 120.824 299.659" stroke="#242938" stroke-width="2"/>
<path d="M75.2227 267.406C76.6063 269.544 80.2049 274.209 83.5758 275.838C87.8099 277.874 91.0895 280.061 92.8239 280.608C94.5584 281.155 101.155 274.701 100.181 270.396" stroke="#242938" stroke-width="2"/>
<path d="M122.907 289.534C121.113 289.163 116.489 288.274 114.786 289.241C113.084 290.207 110.095 294.78 109.263 296.981" stroke="#242938" stroke-width="2"/>
<path d="M222.749 291.147C226.93 293.468 231.396 292.746 233.084 292.127L234.616 299.322C235.655 302.211 237.135 308.375 234.876 309.999H177.982C176.165 307.446 180.163 290.708 182.007 289.109C183.851 287.485 190.498 288 193.744 287.743C196.341 287.536 203.404 285.396 206.598 284.364C204.521 281.579 200.677 275.828 202.028 275.002C203.716 273.971 211.869 280.599 212.726 281.553C213.557 282.507 217.53 288.258 222.749 291.147Z" stroke="#242938" stroke-width="2"/>
<path d="M178.684 297.156C179.93 298.343 182.968 300.69 185.331 300.741C188.291 300.793 196.653 303.681 198.47 304.274C200.288 304.893 203.326 305.486 209.429 302.443C212.519 300.741 222.568 305.486 225.606 305.203C228.644 304.919 233.344 304.506 235.474 302.392" stroke="#242938" stroke-width="2"/>
<path d="M180.111 293.571C182.293 294.861 187.616 297.466 191.381 297.44C196.081 297.388 200.002 297.904 201.794 297.646C203.586 297.388 206.624 288.723 203.819 285.267" stroke="#242938" stroke-width="2"/>
<path d="M232.799 292.436C231.034 292.9 226.463 294.138 225.373 295.737C224.282 297.362 223.659 302.752 223.893 305.073" stroke="#242938" stroke-width="2"/>
<path d="M210.011 45.2396L210.594 58.8837L230.115 56.1547C228.447 44.8088 224.482 21.3666 222.022 18.4499C219.562 15.5331 215.573 14.8371 214.515 15.5404C214.071 14.8322 212.123 13.1728 210.177 13.0906C207.703 12.9843 205.599 14.2243 205.034 15.2104C199.846 10.9649 195.725 16.6663 195.157 18.4038C187.035 21.2473 184.838 26.8077 184.788 28.9307C184.72 31.0254 188.091 30.9248 188.441 30.3501C188.791 29.7755 191.742 26.741 194.25 25.9576C198.385 24.7466 200.581 28.8156 200.957 31.6185C201.333 34.4214 198.576 34.4927 194.697 35.5438C190.817 36.595 186.863 37.0225 188.408 39.487C189.278 40.875 195.974 43.938 202.659 42.0748C206.716 40.9915 209.963 43.9673 210.011 45.2396Z" fill="#D58B8B"/>
<path d="M193.498 18.6543C195.237 17.8402 198.7 18.0762 200.458 20.8806" stroke="#242938" stroke-width="2" stroke-linecap="round"/>
<path d="M203.188 13.842C203.596 13.8627 206.06 14.9613 207.836 17.1632" stroke="#242938" stroke-width="2" stroke-linecap="round"/>
<path d="M211.85 13.9353C212.258 13.9559 214.723 15.0546 216.498 17.2565" stroke="#242938" stroke-width="2" stroke-linecap="round"/>
<path d="M66.2652 72.0103C60.2135 74.2171 63.7242 83.9801 66.2652 88.5942V96.184L72.3504 106.482L78.3688 116.312C81.5451 118.92 89.1015 123.768 93.7155 122.33C99.4998 120.525 117.622 115.275 120.865 116.312C122.833 116.941 124.485 145.192 138.452 152C152.994 159.088 175.966 143.729 178.708 142.224C181.483 140.72 197.331 142.759 200.34 140.72C203.35 138.68 199.07 116.814 200.34 114.038C201.611 111.263 205.891 110.795 209.134 108.789C212.377 106.783 209.134 104.743 211.909 103.74C214.116 102.938 224.748 102.403 229.797 102.236C235.748 99.3938 248.487 92.6733 251.663 88.6276C255.642 83.5789 249.657 72.0438 247.685 72.0438C245.679 72.0438 239.861 55.928 237.855 54.9249C235.849 53.9553 233.04 47.1011 231.535 45.095C230.031 43.0889 221.706 49.3747 219.499 50.6452C217.259 51.9158 203.116 57.7001 205.891 58.9037C208.097 59.8734 209 64.3537 209.134 66.4935C208.565 67.0619 207.73 68.5331 209.134 69.7367C210.538 70.9404 213.581 73.6152 214.918 74.7855H205.891C199.438 73.1137 185.261 70.2048 180.246 72.0103C175.231 73.8493 166.905 71.2413 163.395 69.7367C154.735 78.3965 147.279 74.8858 144.236 72.0103C143.567 73.1806 140.859 75.3539 138.452 74.7855C135.443 74.0499 126.883 75.287 117.622 79.2992C108.36 83.3114 107.792 81.5394 103.78 81.5394C99.7673 81.5394 100.235 86.12 99.4998 83.813C98.7643 81.5394 96.4907 79.5333 95.4542 77.2597C94.4177 74.9861 92.679 72.0103 90.9404 72.0103C89.2018 72.0103 88.3993 66.226 86.1257 63.9525C83.8521 61.6454 73.8216 69.2352 66.2652 72.0103Z" fill="#587291"/>
<path d="M176.143 74.0405L176.143 74.0405L176.139 74.0379C175.968 73.9463 175.784 73.7843 175.605 73.5674C175.724 73.5655 175.844 73.5635 175.965 73.5614C176.421 73.5536 176.896 73.5455 177.372 73.5455C179.232 73.5455 180.633 72.9469 181.425 72.5412C181.457 72.5359 181.503 72.5296 181.567 72.523C181.733 72.5056 181.965 72.4916 182.256 72.4818C182.834 72.4622 183.592 72.4609 184.422 72.4713C185.528 72.4851 186.742 72.5192 187.799 72.5553C187.391 73.5139 186.848 74.7396 186.307 75.8432C185.879 76.6819 184.841 77.6342 183.599 78.3312C182.992 78.6716 182.379 78.9266 181.829 79.0699C181.27 79.2156 180.853 79.2262 180.59 79.1651C180.376 79.1071 180.075 78.9182 179.688 78.5104C179.31 78.1107 178.933 77.5914 178.548 77.0193C178.417 76.8249 178.281 76.6171 178.144 76.4078C177.901 76.0382 177.656 75.664 177.433 75.351C177.251 75.0962 177.059 74.846 176.861 74.6299C176.671 74.4216 176.431 74.1964 176.143 74.0405ZM181.379 72.5501C181.379 72.5501 181.381 72.5495 181.386 72.5484C181.381 72.5496 181.379 72.5501 181.379 72.5501Z" stroke="#F6F6F7" stroke-width="2"/>
<path d="M127.795 90.9876L127.795 90.9871C125.755 89.5501 123.531 88.8256 121.704 88.2305C121.421 88.1381 121.147 88.0489 120.884 87.9605C118.8 87.2587 117.674 86.6732 117.258 85.5432C116.295 82.8953 116.297 81.5788 116.684 80.7878C116.819 80.7288 116.952 80.6705 117.085 80.6127C119.885 79.3893 122.149 78.4001 126.321 76.8971L126.324 76.8958C129.953 75.5733 133.846 75.0951 136.986 75.1879C138.556 75.2344 139.906 75.4227 140.922 75.7025C141.429 75.8425 141.831 75.9991 142.126 76.158C142.346 76.2767 142.478 76.3807 142.552 76.4553C143.855 80.0685 144.832 85.2429 144.601 89.8274C144.362 94.5661 142.877 98.1786 139.748 99.3243C138.241 99.8747 136.863 99.1837 134.88 97.3763C134.33 96.8745 133.739 96.2896 133.104 95.6615C131.595 94.1678 129.839 92.4303 127.795 90.9876Z" stroke="#F6F6F7" stroke-width="2"/>
<path d="M89.2825 102.567L89.2837 102.565C90.1574 101.749 91.424 101.736 93.6009 102.055C93.8757 102.095 94.1615 102.14 94.4574 102.187C96.3527 102.484 98.6592 102.845 101.115 102.49L101.117 102.49C103.584 102.129 105.933 101.371 107.955 100.718C108.804 100.444 109.595 100.189 110.313 99.9896C112.903 99.2701 114.453 99.2723 115.555 100.445C116.82 101.801 116.878 103.518 116.097 105.765C115.433 107.678 114.242 109.74 112.977 111.929C112.733 112.351 112.486 112.778 112.24 113.209L112.239 113.211C111.592 114.352 111.084 115.512 110.629 116.618C108.085 117.333 104.488 118.336 101.402 119.18C99.7606 119.629 98.2668 120.032 97.1535 120.323C96.5961 120.468 96.1392 120.584 95.8087 120.663C95.6426 120.703 95.5155 120.732 95.4266 120.75C95.3907 120.757 95.3672 120.761 95.3537 120.764C95.138 120.774 94.9322 120.833 94.8078 120.869C94.6696 120.91 94.5089 120.964 94.3513 121.017C94.3237 121.026 94.2962 121.035 94.269 121.045C93.8847 121.173 93.4349 121.318 92.9175 121.427C91.8907 121.643 90.6209 121.709 89.2333 121.165L89.1792 121.144L89.123 121.129L88.1394 120.87C83.3283 115.454 83.9124 107.566 89.2825 102.567Z" stroke="#F6F6F7" stroke-width="2"/>
<path d="M189.066 113.015L189.066 113.015C189.455 114.799 190.032 116.459 190.558 117.976C190.709 118.41 190.855 118.832 190.992 119.241C191.623 121.129 192.061 122.784 191.987 124.425C191.57 133.251 185.12 139.887 177.856 139.521L177.852 139.521C170.581 139.185 164.748 132.002 165.163 123.148C165.246 121.483 165.993 120.381 167.277 118.993C167.546 118.702 167.84 118.397 168.153 118.074C169.317 116.869 170.735 115.401 172.087 113.353L172.088 113.351C173.21 111.647 173.974 109.853 174.613 108.173C174.808 107.66 174.989 107.165 175.164 106.688C175.575 105.565 175.951 104.539 176.392 103.597C177.01 102.276 177.692 101.279 178.612 100.618C179.51 99.9722 180.741 99.5737 182.607 99.6575C184.391 99.7451 185.646 101.078 186.674 103.656C187.53 105.803 188.105 108.508 188.71 111.352C188.827 111.902 188.945 112.457 189.066 113.015Z" stroke="#F6F6F7" stroke-width="2"/>
<path d="M232.396 87.1167L232.398 87.119C235.356 90.7544 235.08 95.511 232.242 97.8151L232.242 97.8151L232.238 97.8189C229.393 100.157 224.663 99.4818 221.712 95.8868C221.283 95.3575 220.563 94.7477 219.82 94.1401C219.613 93.9705 219.399 93.798 219.182 93.6221C218.581 93.1352 217.948 92.6233 217.325 92.0817C216.48 91.3467 215.697 90.5951 215.102 89.8517C214.497 89.0968 214.155 88.4337 214.068 87.8749C213.932 86.9765 214.029 86.2956 214.257 85.7327C214.489 85.1596 214.883 84.6404 215.445 84.1101C216.015 83.5727 216.715 83.0613 217.533 82.4792C217.612 82.4234 217.691 82.367 217.771 82.3099C218.512 81.7843 219.327 81.2056 220.134 80.5398C220.67 80.1009 221.436 80.0774 222.764 80.7314C223.861 81.272 225.049 82.1328 226.338 83.0672C226.59 83.2499 226.846 83.4354 227.106 83.6218C227.954 84.2331 228.839 84.7178 229.617 85.1441C229.83 85.2609 230.035 85.3732 230.23 85.4827C231.174 86.0146 231.889 86.4892 232.396 87.1167Z" stroke="#F6F6F7" stroke-width="2"/>
<path d="M149.39 117.894L149.392 117.896C152.35 121.532 152.075 126.288 149.237 128.592L149.237 128.592L149.232 128.596C146.387 130.934 141.658 130.259 138.706 126.664C138.277 126.135 137.557 125.525 136.814 124.917C136.607 124.748 136.394 124.575 136.176 124.399C135.575 123.913 134.942 123.401 134.319 122.859C133.474 122.124 132.691 121.372 132.096 120.629C131.491 119.874 131.149 119.211 131.062 118.652C130.927 117.754 131.024 117.073 131.251 116.51C131.483 115.937 131.877 115.418 132.44 114.887C133.009 114.35 133.709 113.839 134.527 113.257C134.606 113.201 134.685 113.144 134.766 113.087C135.506 112.562 136.321 111.983 137.128 111.317C137.665 110.878 138.43 110.855 139.758 111.509C140.855 112.049 142.043 112.91 143.333 113.845C143.585 114.027 143.841 114.213 144.1 114.399C144.948 115.01 145.833 115.495 146.611 115.921C146.824 116.038 147.029 116.151 147.224 116.26C148.168 116.792 148.883 117.267 149.39 117.894Z" stroke="#F6F6F7" stroke-width="2"/>
<path d="M234.344 54.5576L235.318 54.7824C235.377 54.5277 235.471 54.2173 235.578 53.8947C235.667 54.0112 235.758 54.1276 235.85 54.2425C236.134 54.5974 236.441 54.9512 236.748 55.2564C237.037 55.5427 237.37 55.8309 237.719 56.0242C237.729 56.0332 237.77 56.0711 237.844 56.162C237.954 56.2968 238.088 56.491 238.245 56.7453C238.556 57.2522 238.911 57.9257 239.274 58.676C240 60.1722 240.726 61.895 241.171 63.0179L241.206 63.1059L241.257 63.1858L241.519 63.5968C240.118 64.0375 238.347 64.4156 236.676 64.4366C234.454 64.4646 232.788 63.8725 232.056 62.457L232.056 62.4569L232.053 62.4521C231.508 61.411 231.423 60.577 231.54 59.8987C231.659 59.203 232.007 58.5738 232.481 57.9854C232.936 57.421 233.466 56.9428 233.966 56.4916C233.993 56.4669 234.021 56.4422 234.048 56.4176C234.296 56.1931 234.557 55.9553 234.764 55.7289C234.945 55.5311 235.223 55.2008 235.319 54.7804L234.344 54.5576ZM234.344 54.5576C234.453 54.0842 234.661 53.4622 234.866 52.9019L231.168 62.9164C229.3 59.3534 231.749 57.1449 233.284 55.7598C233.838 55.2602 234.273 54.8678 234.344 54.5576ZM238.222 55.1594C237.558 54.8033 236.657 53.7052 235.987 52.7632L242.49 63.2601L242.101 62.6489C241.198 60.3753 239.159 55.6609 238.222 55.1594Z" stroke="#F6F6F7" stroke-width="2"/>
<path d="M74.8434 89.632L74.8399 89.6329C72.9799 90.1194 71.1487 89.6816 69.5571 88.8628C67.9957 88.0594 66.7484 86.9293 66.0768 86.1361C65.5953 85.3342 65.112 83.8677 64.6985 82.2344C64.2945 80.6383 63.9872 79.0095 63.8209 77.9748C63.812 77.2256 63.9026 76.0971 64.2087 75.0998C64.5395 74.0216 65.0201 73.407 65.57 73.2296C67.6474 72.5594 72.6825 70.0683 75.2283 68.7535C75.436 68.846 75.6242 69.0518 75.79 69.4776C76.0302 70.0943 76.1359 70.9971 76.1159 72.0712C76.0763 74.1993 75.5554 76.6039 75.181 77.7451C75.0065 78.2599 75.0168 78.8376 75.0746 79.355C75.1348 79.8946 75.2625 80.4901 75.41 81.0917C75.5185 81.5341 75.6363 81.9772 75.7548 82.4227C75.9728 83.2421 76.1928 84.0693 76.3605 84.9146C76.6181 86.2127 76.6947 87.3136 76.4719 88.1283C76.366 88.5156 76.1979 88.816 75.9634 89.0488C75.7292 89.2813 75.3813 89.4934 74.8434 89.632Z" stroke="#F6F6F7" stroke-width="2"/>
<path d="M196.088 134.358C196.531 132.394 197.167 128.261 196.129 127.382M138.969 146.563C138.117 143.669 136.648 137.6 137.403 136.444M147.097 146.954L145.484 136.536M156.146 145.341C156.298 143.911 156.261 140.249 154.843 136.923M165.594 142.441C165.912 141.475 166.503 139.061 166.327 136.918M175.232 131.718C175.79 134.719 176.658 140.728 175.533 140.902M183.636 137.753C184.8 136.228 187.099 132.785 186.983 131.03M190.1 135.285C191.167 133.53 193.268 129.812 193.134 128.946" stroke="#242938" stroke-width="2" stroke-linecap="round"/>
<path d="M81.7118 103.406C81.2103 102.537 80.4078 100.498 81.0097 99.4611C81.7787 98.1571 94.5844 85.8864 98.7972 85.6523" stroke="#242938" stroke-width="2" stroke-linecap="round"/>
<path d="M215.753 74.8862C214.884 74.2175 223.076 71.1081 228.058 74.3513C235.246 79.0657 239.626 80.5368 240.629 82.8104" stroke="#242938" stroke-width="2" stroke-linecap="round"/>
<path d="M81.9125 65.7916C82.9156 65.3904 85.256 65.7247 86.7606 70.0713M65.8636 73.4148C65.663 74.6854 65.3955 77.3936 65.8636 78.0958M69.809 72.2112L70.1433 76.19M76.4993 68.5C77.168 69.2356 78.7394 71.0411 79.5753 72.4788M72.9519 70.6397C73.4869 71.509 74.5568 73.4148 74.7574 73.9832L72.9519 70.6397Z" stroke="#242938" stroke-width="2" stroke-linecap="round"/>
<path d="M148.816 79.8491C150.435 80.1502 154.707 80.3683 158.857 78.652C163.049 76.9566 164.776 75.0687 165.102 74.3592" stroke="#242938" stroke-width="2" stroke-linecap="round"/>
<path d="M152.959 83.5552C153.947 83.4976 156.342 83.1319 158.158 82.1598" stroke="#242938" stroke-width="2" stroke-linecap="round"/>
<path d="M212.679 56.129C211.776 56.6974 210.673 58.8038 213.314 62.582M228.227 47.603C229.363 48.1714 231.704 49.5423 232.005 50.3447M225.151 49.8098L228.193 52.4177M221.84 51.7156C222.242 52.6517 223.144 54.6244 223.512 55.1259M217.36 53.822L218.798 58.6366" stroke="#242938" stroke-width="2" stroke-linecap="round"/>
<path d="M138.118 67.8314L141.094 75.4212C149.453 79.2663 160.219 79.2663 165.936 70.7069C165.936 70.7069 158.413 64.3542 154.568 60.9772C156.106 54.7583 157.377 38.8431 144.671 38.3416C134.775 37.9404 126.75 43.524 124.811 52.0166C124.711 52.4512 124.911 52.8525 125.279 53.1199C127.319 54.5577 126.249 61.111 127.352 63.3845C129.926 68.9348 134.072 68.2661 138.118 67.8314Z" fill="#D58B8B"/>
<path d="M138.5 67.5C141.5 67 144 66 146 64" stroke="#242938" stroke-width="2" stroke-linecap="round"/>
<path d="M145.815 59.6293C148.489 59.6293 150.629 57.4895 150.629 54.8147C150.629 52.1399 148.489 50 145.815 50C143.14 50 141 52.1399 141 54.8147C141 57.4895 143.173 59.6293 145.815 59.6293Z" fill="#804141"/>
<path d="M145 54.9027C145.635 54.6018 147.073 54 147.541 54" stroke="#242938" stroke-width="2" stroke-linecap="round"/>
<path d="M146.973 54.6685C147.24 55.1365 147.742 56.1396 147.775 56.5074" stroke="#242938" stroke-width="2" stroke-linecap="round"/>
<path d="M133.162 56.9864C134.155 57.1156 135.397 56.3081 135.832 55.2099C136.266 54.1118 135.832 53.1428 134.838 53.0136C133.845 52.8844 132.603 53.6919 132.168 54.7901C131.734 55.8882 132.168 56.8895 133.162 56.9864Z" fill="#804141"/>
<path d="M129 60.6325C129.561 60.7533 131.063 60.8725 132.315 60.4868" stroke="#242938" stroke-width="2" stroke-linecap="round"/>
<path d="M163.5 40.1804C158.652 33.8946 141.286 20.152 135 25.0001C132.626 26.839 136.675 35.6853 134 40.5C134.926 40.3195 135.757 39.488 138.5 41C140.411 42.0536 139.087 47.7703 144.103 48.9405C149.449 50.1879 151.614 52.5911 151.605 55.3261C151.593 58.7063 152.817 62.5566 155.5 60.5C162.521 55.1169 171.023 49.9769 163.5 40.1804Z" fill="#242938"/>
<path d="M133.904 44.3262C134.439 44.8611 135.676 46.3323 136.211 48.004" stroke="#242938" stroke-width="2" stroke-linecap="round"/>
<path d="M130.026 50.4115C130.561 50.9799 131.497 51.0133 132.065 50.4783C132.634 49.9434 132.667 49.0072 132.132 48.4388C131.597 47.8704 130.661 47.8369 130.093 48.3719C129.524 48.9069 129.491 49.8431 130.026 50.4115Z" fill="#242938"/>
</svg>
