<svg width="375" height="340" viewBox="0 0 375 340" fill="none" xmlns="http://www.w3.org/2000/svg">
<path d="M95.8516 191.991V250.087H127.118V268.126H157.918" stroke="#242938" stroke-width="1.2" stroke-linecap="round"/>
<path d="M113.23 210.198C116.43 210.198 119.023 207.419 119.023 203.992C119.023 200.564 116.43 197.785 113.23 197.785C110.031 197.785 107.438 200.564 107.438 203.992C107.438 207.419 110.031 210.198 113.23 210.198Z" fill="#242938"/>
<path d="M129.369 210.198C132.797 210.198 135.575 207.419 135.575 203.992C135.575 200.564 132.797 197.785 129.369 197.785C125.941 197.785 123.162 200.564 123.162 203.992C123.162 207.419 125.941 210.198 129.369 210.198Z" fill="#242938"/>
<path d="M144.678 210.198C147.877 210.198 150.47 207.419 150.47 203.992C150.47 200.564 147.877 197.785 144.678 197.785C141.478 197.785 138.885 200.564 138.885 203.992C138.885 207.419 141.478 210.198 144.678 210.198Z" fill="#242938"/>
<path d="M269.637 168.82H152.125V236.679H269.637V168.82Z" fill="white"/>
<path d="M291.488 298.598L291.328 298.403H291.078H198.513C179.75 298.403 164.539 283.13 164.539 264.288V220.313C164.539 201.473 179.75 186.199 198.513 186.199H320.075C338.839 186.199 354.048 201.473 354.048 220.313V264.288C354.048 283.13 338.837 298.403 320.075 298.403H314.634H314.024L314.108 299.009L318.627 331.848L291.488 298.598Z" stroke="#242938" stroke-width="1.2"/>
<path d="M267.205 323.418L236.996 312.42L231.517 327.47L261.726 338.468L267.205 323.418Z" stroke="#242938" stroke-width="1.2"/>
<path d="M141.26 11.1081L99.2832 27.5327L107.466 48.445L149.442 32.0204L141.26 11.1081Z" stroke="#242938" stroke-width="1.2"/>
<path d="M248.245 326.882L236.535 312.814L267.155 323.564L248.245 326.882Z" fill="#242938"/>
<path d="M124.52 32.3265L99.1621 28.3767L141.34 11.3107L124.52 32.3265Z" fill="#242938"/>
<path d="M252.065 257.056C256.05 253.817 255.762 250.397 255.12 249.092L309.982 262.233C310.137 264.512 310.354 270.289 309.982 275.174C309.61 280.058 299.776 296.234 294.905 303.711L290.92 298.866H235.46L219.984 289.774C219.984 288.756 221.074 284.943 225.431 277.828C230.877 268.935 247.083 261.104 252.065 257.056Z" fill="#242938"/>
<path d="M198.741 132.458L199.274 139.856L218.097 138.982C218.239 137.493 218.599 133.876 218.897 131.328C219.271 128.142 225.723 120.847 226.256 119.254C226.789 117.662 226.789 116.583 225.723 116.069C224.87 115.658 220.817 118.021 218.897 119.254L219.964 113.5C220.302 110.332 220.561 103.595 218.897 101.992C217.234 100.389 216 103.619 215.591 105.434C215.769 104.578 215.836 102.547 214.685 101.273C213.533 99.9988 211.93 102.934 211.272 104.561C211.272 103.465 210.941 101.273 209.619 101.273C208.296 101.273 207.219 105.691 206.846 107.9V106.308C206.899 105.075 206.846 102.485 206.206 101.992C205.406 101.376 204.606 102.352 203.7 105.434C202.793 108.517 200.287 118.484 197.727 123.981C195.68 128.379 197.549 131.464 198.741 132.458Z" fill="#AD5B5B"/>
<path d="M216.675 119.994C215.232 120.691 211.889 122.824 210.055 125.787" stroke="#242938" stroke-width="1.2" stroke-linecap="round"/>
<path d="M348.373 280.426C349.035 279.716 348.648 276.344 348.373 274.746L364.726 275.397C364.785 277.074 364.868 280.781 364.726 282.201C364.549 283.976 363.191 292.851 360.83 294.626C358.469 296.4 354.277 301.548 352.86 303.855C351.727 305.701 348.846 309.2 347.547 310.718C346.622 311.448 344.548 312.635 343.65 311.547C342.753 310.458 344.261 306.636 345.126 304.861C343.985 306.438 341.36 309.665 339.99 309.949C337.251 310.422 338.494 306.32 339.459 304.21C338.593 305.314 336.413 307.452 334.618 307.168C332.823 306.884 333.634 303.658 334.264 302.08C333.575 302.751 332.032 303.903 331.371 303.145C330.544 302.199 330.899 300.128 331.371 298.294C331.749 296.826 334.086 292.673 335.208 290.78C334.382 291.135 332.705 291.632 332.611 290.78C332.492 289.715 335.385 286.224 338.632 284.508C341.879 282.793 347.547 281.314 348.373 280.426Z" fill="#AD5B5B"/>
<path d="M335.016 301.233C335.787 299.978 337.792 297.063 339.643 295.435M340.768 303.639C341.665 302.22 343.832 298.988 345.332 297.409M345.77 305.366C346.604 303.988 348.434 301.073 349.084 300.431" stroke="#242938" stroke-width="1.2" stroke-linecap="round"/>
<path d="M336.67 289.643C337.784 288.752 340.832 286.676 344.118 285.505" stroke="#242938" stroke-width="1.2" stroke-linecap="round"/>
<path d="M223.924 145.063C223.527 141.757 221.872 139.112 221.872 139.112C219.621 136.136 201.454 137.657 197.905 138.715C193.47 140.037 195.522 147.046 196.449 150.815C197.376 154.584 202.474 180.37 205.651 187.643C208.194 193.462 217.525 201.264 221.872 204.438C232.686 211.535 254.497 226.482 255.239 229.497C255.98 232.512 252.591 242.39 250.803 246.953C255.239 254.49 264.366 256.209 276.027 256.209C295.756 256.209 304.717 263.592 314.36 266.656C316.942 263.482 314.36 241.266 316.545 237.167C318.729 233.068 341.239 239.613 344.748 243.382C348.257 247.151 344.549 269.83 345.807 273.334C347.065 276.839 345.476 279.021 350.243 279.021C363.484 281.031 372.091 278.183 374.739 276.508C374.298 275.758 372.912 268.798 370.899 246.953C368.383 219.645 366.066 222.092 362.292 219.315C358.444 216.483 332.037 207.612 327.601 206.686C323.165 205.76 306.68 203.512 300.987 201.264C295.293 199.016 269.539 193.66 267.023 190.817C264.508 187.974 237.946 179.237 230.478 167.94C225.976 161.13 224.146 146.914 223.924 145.063Z" fill="#EC5B60"/>
<path d="M205.916 115.029L206.701 109.663M209.675 115.029L211.302 105.926M214.22 115.029L215.847 106.649" stroke="#242938" stroke-width="1.2" stroke-linecap="round"/>
<path d="M287.824 167.993C281.827 167.993 279.02 169.504 274.618 176.953C272.385 180.736 271.112 186.54 273.133 188.467C274.4 189.675 277.411 190.988 280.506 191.958L279.68 194.355L274.618 211.026L298.335 199.773C296.931 199.248 293.998 198.866 293.823 197.949C293.647 197.033 295.62 192.408 296.629 190.211C299.363 187.883 301.085 184.486 301.085 180.705C301.085 173.685 295.149 167.993 287.824 167.993Z" fill="#AD5B5B"/>
<path d="M276.258 182.302L279.568 178.75L279.17 183.716L276.258 182.302Z" fill="#804141"/>
<path d="M278.74 179.579L276.258 181.913L278.555 182.889" stroke="#242938" stroke-width="1.2" stroke-linecap="round"/>
<path d="M278.742 186.278L275.432 184.543C275.472 185.139 275.837 186.266 276.399 186.704C277.327 187.426 278.158 186.779 278.742 186.278Z" stroke="#242938" stroke-width="1.2"/>
<path d="M275.704 177.715C276.142 178.044 276.765 177.956 277.094 177.518C277.423 177.08 277.335 176.457 276.897 176.128C276.459 175.799 275.836 175.887 275.507 176.325C275.178 176.763 275.266 177.385 275.704 177.715Z" fill="#242938"/>
<path d="M282.315 181.017C282.754 181.346 283.376 181.258 283.705 180.82C284.035 180.381 283.947 179.759 283.508 179.43C283.07 179.1 282.448 179.188 282.118 179.627C281.789 180.065 281.877 180.687 282.315 181.017Z" fill="#242938"/>
<path d="M282.879 177.096C283.759 177.148 284.848 177.46 285.362 177.923" stroke="#242938" stroke-width="1.2" stroke-linecap="round"/>
<path d="M277.914 174.613C277.278 174.111 276.239 173.708 275.432 173.798" stroke="#242938" stroke-width="1.2" stroke-linecap="round"/>
<path d="M282.268 184.696C282.72 185.035 283.36 184.944 283.7 184.493C284.039 184.042 283.948 183.401 283.497 183.061C283.045 182.722 282.405 182.813 282.065 183.264C281.726 183.716 281.817 184.356 282.268 184.696Z" fill="#804141"/>
<path d="M274.292 180.709C274.743 181.048 275.384 180.958 275.723 180.506C276.062 180.055 275.972 179.414 275.52 179.075C275.069 178.736 274.428 178.827 274.089 179.278C273.75 179.729 273.84 180.37 274.292 180.709Z" fill="#804141"/>
<path d="M297.066 190.337C299.887 187.996 301.663 184.58 301.663 180.777C301.663 179.879 301.564 179.003 301.377 178.157C309.441 179.938 323.518 179.938 318.068 171.136C313.797 164.236 305.921 171.381 300.415 175.433C298.249 171.041 293.498 167.993 287.983 167.993C283.965 167.993 281.334 168.633 278.74 171.136C279.582 172.97 283.557 175.433 289.573 175.433C294.222 175.433 296.896 177.215 294.909 178.996C293.32 180.42 291.9 182.943 291.39 184.025C290.519 186.13 290.436 190.337 297.066 190.337Z" fill="#242938"/>
<path d="M290.894 187.291C291.994 188.11 293.795 187.551 294.917 186.043C296.039 184.535 296.057 182.65 294.957 181.831C293.857 181.012 292.055 181.571 290.933 183.079C289.811 184.586 289.793 186.472 290.894 187.291Z" fill="#804141"/>
<path d="M291.154 184.543C291.643 183.903 292.867 183.003 293.637 182.888" stroke="#242938" stroke-width="1.2" stroke-linecap="round"/>
<path d="M292.809 182.888C292.809 183.267 292.809 184.097 292.809 184.543" stroke="#242938" stroke-width="1.2" stroke-linecap="round"/>
<path d="M219.156 150.609C219.156 153.354 221.409 155.579 224.188 155.579C224.743 155.579 225.277 155.49 225.777 155.327L223.857 145.648C221.232 145.817 219.156 147.973 219.156 150.609Z" fill="#FEFEFE"/>
<path d="M213.365 190.337C216.564 190.337 219.158 187.928 219.158 184.958C219.158 181.987 216.564 179.579 213.365 179.579C210.166 179.579 207.572 181.987 207.572 184.958C207.572 187.928 210.166 190.337 213.365 190.337Z" fill="#FEFEFE"/>
<path d="M265.086 203.577C268.057 203.577 270.465 201.169 270.465 198.198C270.465 195.227 268.057 192.819 265.086 192.819C262.115 192.819 259.707 195.227 259.707 198.198C259.707 201.169 262.115 203.577 265.086 203.577Z" fill="#FEFEFE"/>
<path d="M267.569 239.989C270.539 239.989 272.948 237.396 272.948 234.196C272.948 230.997 270.539 228.404 267.569 228.404C264.598 228.404 262.189 230.997 262.189 234.196C262.189 237.396 264.598 239.989 267.569 239.989Z" fill="#FEFEFE"/>
<path d="M294.879 251.575C291.45 251.575 288.672 254.159 288.672 257.432C291.775 258.067 297.76 259.62 300.125 260.678C300.707 259.775 301.085 258.642 301.085 257.503C301.085 254.23 298.307 251.575 294.879 251.575Z" fill="#FEFEFE"/>
<path d="M310.602 226.749C313.573 226.749 315.981 224.341 315.981 221.37C315.981 218.399 313.573 215.991 310.602 215.991C307.631 215.991 305.223 218.399 305.223 221.37C305.223 224.341 307.631 226.749 310.602 226.749Z" fill="#FEFEFE"/>
<path d="M344.394 220.126C347.363 220.209 349.833 217.692 349.909 214.507C349.916 214.203 349.9 213.972 349.865 213.681L340.724 210.198C339.787 211.206 339.191 212.672 339.154 214.209C339.077 217.395 341.424 220.044 344.394 220.126Z" fill="#FEFEFE"/>
<path d="M364.807 271.436C368.006 271.436 370.599 268.843 370.599 265.643C370.599 262.444 368.006 259.851 364.807 259.851C361.607 259.851 359.014 262.444 359.014 265.643C359.014 268.843 361.607 271.436 364.807 271.436Z" fill="#FEFEFE"/>
<path d="M63.5192 182.44L63.6789 182.246H63.9305H152.029C170.822 182.246 186.055 167.017 186.055 148.229V108.497C186.055 89.7097 170.82 74.4795 152.029 74.4795H37.1919C18.3999 74.4795 3.16602 89.7097 3.16602 108.497V148.229C3.16602 167.017 18.3999 182.246 37.1919 182.246H41.1926H41.8028L41.7192 182.851L37.366 214.336L63.5192 182.44Z" stroke="#242938" stroke-width="1.2"/>
<path d="M116.54 182.759L108.467 163.855L41.4528 178.978L36.2676 215.99L63.3751 182.892L116.54 182.759Z" fill="#242938"/>
<path d="M167.493 94.5834L163.841 101.788L146.332 93.0579C146.83 91.5027 148.027 87.7217 148.828 85.0387C149.827 81.6851 146.801 71.6687 146.972 69.8472C147.143 68.0258 147.601 66.9426 148.833 66.8718C149.818 66.8152 152.663 70.8786 153.961 72.9175L155.395 66.6956C156.423 63.374 159.041 56.5018 161.302 55.5868C163.565 54.6716 163.363 58.4289 162.979 60.4219C163.175 59.4881 163.975 57.4208 165.611 56.6223C167.246 55.8237 167.52 59.4395 167.454 61.3472C167.92 60.2469 169.167 58.1841 170.422 58.7358C171.679 59.2876 170.823 64.1729 170.238 66.5465L170.915 64.9476C171.389 63.6874 172.54 61.1101 173.358 60.8819C174.381 60.5966 174.725 61.9104 174.275 65.3834C173.825 68.8564 171.967 79.9085 172.06 86.4956C172.135 91.7651 169.047 94.0831 167.493 94.5834Z" fill="#AD5B5B"/>
<path d="M154.609 73.6514C156.168 75.0578 159.509 78.8474 160.402 82.7544" stroke="#242938" stroke-width="1.2" stroke-linecap="round"/>
<path d="M161.229 69.6349L162.715 62.0659M168.333 72.8241L169.504 68.0762L168.333 72.8241ZM165.117 71.3803L166.851 63.2119L165.117 71.3803Z" stroke="#242938" stroke-width="1.2" stroke-linecap="round"/>
<path d="M39.7013 95.4978C48.0851 89.3421 73.4398 83.0749 85.0693 80.7107C90.4418 79.5525 100.988 80.7107 104.636 83.9224C108.284 87.1341 115.514 103.192 118.963 105.133C122.412 107.073 123.738 107.541 131.565 103.192C139.391 98.8432 142.177 86.3311 149.341 85.2606C155.071 84.4041 165.17 93.7805 169.504 98.5756C168.642 99.6016 166.533 102.349 164.994 105.133C163.07 108.612 150.203 125.273 142.177 133.369C135.757 139.845 117.393 139.146 109.013 137.985C109.434 139.368 111.056 143.311 114.187 148.022C117.318 152.732 117.835 156.141 117.702 157.255C103.177 175.856 60.7271 177.462 57.8087 177.462C54.8903 177.462 27.1654 184.086 9.85394 177.462C-7.45754 170.838 4.61407 148.624 7.00186 144.141C9.38965 139.658 29.2216 103.192 39.7013 95.4978Z" fill="#242938"/>
<path d="M75.9902 132.499C79.1156 134.124 82.7909 134.5 86.2077 133.545C89.6243 132.59 92.5026 130.382 94.2092 127.406C95.9157 124.431 96.3108 120.933 95.3076 117.681C94.3043 114.428 91.9849 111.689 88.8594 110.064L86.3643 114.414C88.2779 115.408 89.698 117.086 90.3123 119.077C90.9265 121.068 90.6846 123.21 89.6397 125.032C88.5949 126.854 86.8327 128.205 84.7409 128.79C82.649 129.375 80.3988 129.144 78.4853 128.15L75.9902 132.499Z" fill="#587291"/>
<path d="M38.5552 168.82C39.1477 165.502 38.3748 162.089 36.4065 159.331C34.4382 156.573 31.4357 154.697 28.0595 154.116C24.6834 153.533 21.2101 154.292 18.4039 156.226C15.5976 158.16 13.6881 161.112 13.0957 164.43L18.0316 165.281C18.3944 163.25 19.5634 161.443 21.2816 160.258C22.9997 159.075 25.1262 158.609 27.1932 158.966C29.2603 159.322 31.0986 160.471 32.3036 162.159C33.5088 163.848 33.9819 165.937 33.6193 167.969L38.5552 168.82Z" fill="#587291"/>
<path d="M129.481 106.753C128.491 110.058 128.909 113.605 130.642 116.614C132.377 119.624 135.285 121.848 138.726 122.798C142.168 123.75 145.862 123.349 148.996 121.684C152.13 120.019 154.447 117.228 155.437 113.923L150.405 112.533C149.799 114.556 148.38 116.265 146.461 117.285C144.543 118.304 142.281 118.549 140.173 117.967C138.066 117.385 136.285 116.023 135.224 114.181C134.163 112.338 133.907 110.167 134.514 108.143L129.481 106.753Z" fill="#587291"/>
<path d="M87.9833 177.096C89.8554 174.223 90.496 170.733 89.7641 167.393C89.0322 164.052 86.9879 161.136 84.0807 159.286C81.1736 157.436 77.6419 156.803 74.2624 157.527C70.883 158.249 67.9327 160.27 66.0605 163.143L70.3108 165.848C71.457 164.09 73.2634 162.852 75.3325 162.409C77.4015 161.967 79.5638 162.354 81.3436 163.487C83.1236 164.62 84.3752 166.405 84.8233 168.45C85.2715 170.495 84.8791 172.632 83.733 174.392L87.9833 177.096Z" fill="#587291"/>
<path d="M94.6653 92.2738C97.9557 93.1346 101.448 92.6338 104.375 90.8815C105.531 90.1889 106.562 89.3236 107.438 88.3238C107.438 88.3238 106.409 86.7225 105.792 85.882C105.206 85.083 104.375 84.1235 104.375 84.1235C103.728 85.1008 102.869 85.9299 101.85 86.5397C100.058 87.6125 97.9201 87.9191 95.9055 87.3921C93.891 86.865 92.1654 85.5475 91.1082 83.7293C90.4896 82.6655 90.1295 81.4813 90.0412 80.2722C88.3631 80.2722 86.2618 80.4923 85.0938 80.7342C85.2491 82.6778 85.8346 84.58 86.8297 86.2913C88.5565 89.261 91.3751 91.413 94.6653 92.2738Z" fill="#587291"/>
<path d="M31.0787 128.937C27.6658 129.475 24.1771 128.649 21.3802 126.644C20.4414 125.97 19.6064 125.184 18.8906 124.307L21.8244 119.601C22.3924 120.784 23.2551 121.821 24.3473 122.604C26.0598 123.831 28.1956 124.337 30.2851 124.009C32.3747 123.679 34.2466 122.545 35.4891 120.852C36.7316 119.161 37.2431 117.05 36.9108 114.986L41.9003 114.202C42.4431 117.574 41.6078 121.021 39.5784 123.784C37.5489 126.548 34.4915 128.402 31.0787 128.937Z" fill="#587291"/>
<path d="M107.438 134.89C102.282 125.452 102.038 114.934 99.1621 105.926" stroke="#242938" stroke-width="1.2" stroke-linecap="round"/>
<path d="M53.648 111.719C53.1745 117.537 46.8175 142.358 44.5449 149.787" stroke="#242938" stroke-width="1.2" stroke-linecap="round"/>
<path d="M35.4414 148.958C41.2355 149.787 54.6436 152.108 61.9231 154.751" stroke="#242938" stroke-width="1.2" stroke-linecap="round"/>
<path d="M61.6263 159.45C54.9778 162.724 51.7393 172.611 54.8177 175.074L63.9442 176.64C70.4753 177.124 84.5369 178.056 88.5352 177.907C92.5336 177.758 92.6398 175.956 92.1931 175.074C92.9416 175.074 94.6704 174.947 95.5975 174.44C97.5097 173.485 96.9013 171.954 96.358 171.307C96.7684 171.307 98.3513 171.307 99.0019 169.852C99.8414 167.973 97.179 166.808 95.5975 166.721C96.0562 166.138 96.4615 165.092 94.9819 164.26C92.1931 162.692 85.8552 161.985 83.5374 161.985C83.2187 160.285 80.8694 159.587 79.7347 159.45C75.2558 158.506 68.3264 158.928 61.6263 159.45Z" fill="#AD5B5B"/>
<path d="M81.7856 162.199C80.1509 161.818 78.3651 161.273 76.8203 161.387" stroke="#242938" stroke-width="1.2" stroke-linecap="round"/>
<path d="M94.1984 167.165C91.3222 166.373 85.1155 165.206 81.7852 165.582" stroke="#242938" stroke-width="1.2" stroke-linecap="round"/>
<path d="M94.1976 169.648C91.7048 169.252 86.3258 168.668 83.4395 168.857" stroke="#242938" stroke-width="1.2" stroke-linecap="round"/>
<path d="M90.8882 173.785C88.779 172.995 84.2274 171.826 81.7852 172.203" stroke="#242938" stroke-width="1.2" stroke-linecap="round"/>
<path d="M68.6339 55.4456C74.2888 55.4456 76.9346 56.9765 81.0851 64.5254C83.1918 68.357 84.3921 74.2388 82.4858 76.1921C81.2915 77.4158 78.4532 78.7464 75.534 79.7291L76.3122 82.1573C76.3122 82.1573 80.1217 84.7152 77.4352 88.7823C72.0916 96.8721 62.1154 90.6331 62.979 85.7998C63.1451 84.8707 61.2843 80.1854 60.3332 77.959C57.7552 75.5995 56.1309 72.1583 56.1309 68.3264C56.1309 61.2126 61.7287 55.4456 68.6339 55.4456Z" fill="#AD5B5B"/>
<path d="M80.1305 69.991L76.8203 67.0317L77.2174 71.1695L80.1305 69.991Z" fill="#804141"/>
<path d="M76.8203 67.0312L80.1305 69.9495L77.0682 71.169" stroke="#242938" stroke-width="1.2" stroke-linecap="round"/>
<path d="M77.6465 73.7318L80.9567 71.9966C80.9167 72.5923 80.5516 73.7202 79.9897 74.1571C79.0614 74.8788 78.2307 74.2323 77.6465 73.7318Z" stroke="#242938" stroke-width="1.2"/>
<path d="M80.7842 65.5901C80.346 65.9196 79.7237 65.8314 79.3943 65.3931C79.0649 64.9549 79.1531 64.3326 79.5913 64.0032C80.0295 63.6738 80.6518 63.762 80.9812 64.2002C81.3107 64.6384 81.2225 65.2607 80.7842 65.5901Z" fill="#242938"/>
<path d="M74.1729 68.8909C73.7347 69.2203 73.1124 69.1321 72.783 68.6939C72.4536 68.2557 72.5418 67.6334 72.98 67.304C73.4182 66.9746 74.0405 67.0628 74.3699 67.501C74.6993 67.9392 74.6111 68.5615 74.1729 68.8909Z" fill="#242938"/>
<path d="M72.6799 64.5488C71.8002 64.6007 70.7113 64.9139 70.1973 65.3764" stroke="#242938" stroke-width="1.2" stroke-linecap="round"/>
<path d="M77.6465 62.0658C78.2827 61.5625 79.3215 61.1609 80.1291 61.251" stroke="#242938" stroke-width="1.2" stroke-linecap="round"/>
<path d="M74.218 72.5709C73.7667 72.9102 73.1259 72.8193 72.7867 72.3681C72.4474 71.9168 72.5383 71.276 72.9895 70.9367C73.4408 70.5975 74.0816 70.6883 74.4209 71.1396C74.7601 71.5909 74.6693 72.2317 74.218 72.5709Z" fill="#804141"/>
<path d="M82.1965 68.5836C81.7453 68.9229 81.1044 68.832 80.7652 68.3808C80.426 67.9295 80.5168 67.2887 80.9681 66.9494C81.4193 66.6102 82.0602 66.701 82.3994 67.1523C82.7386 67.6036 82.6478 68.2444 82.1965 68.5836Z" fill="#804141"/>
<path d="M60.2809 77.7895C57.7352 75.4478 56.1312 72.0325 56.1312 68.2294C56.1312 67.3316 56.1132 66.5362 56.3342 65.4375C56.5551 64.3389 57.2585 62.8854 57.2585 62.8854C59.2129 58.4938 63.5015 55.4456 68.4778 55.4456C72.1048 55.4456 74.4783 56.0866 76.8197 58.5891C76.0599 60.4228 72.4736 62.8854 67.0431 62.8854C62.8484 62.8854 60.4344 64.6667 62.2275 66.448C63.662 67.8731 64.9427 70.3949 65.4038 71.4777C66.1894 73.5816 66.2647 77.7895 60.2809 77.7895Z" fill="#242938"/>
<path d="M65.5967 75.1662C64.4967 75.9848 62.6953 75.4262 61.5733 73.9184C60.4513 72.4107 60.4335 70.5248 61.5335 69.7062C62.6336 68.8875 64.435 69.4461 65.557 70.9539C66.679 72.4616 66.6968 74.3475 65.5967 75.1662Z" fill="#804141"/>
<path d="M65.2327 71.9964C64.7432 71.3563 63.5189 70.4558 62.75 70.3413" stroke="#242938" stroke-width="1.2" stroke-linecap="round"/>
<path d="M63.5776 71.1689C63.1173 71.3582 62.6393 71.7733 62.7727 71.9965" stroke="#242938" stroke-width="1.2" stroke-linecap="round"/>
</svg>
