<svg width="265" height="275" viewBox="0 0 265 275" fill="none" xmlns="http://www.w3.org/2000/svg">
<path d="M158.779 153.845H41.2031V226.92H158.779V153.845Z" fill="#FFDC4D"/>
<path d="M168.057 78.0674H31.6221L27.2061 201.074L168.057 196.054V103.5" stroke="black" stroke-width="2"/>
<path d="M164 141H129M164 133H136.059H164Z" stroke="black" stroke-width="2" stroke-linecap="round"/>
<path d="M226.717 80.808C226.717 82.3216 226.377 85.2749 224.863 85.2749C223.349 85.2749 221.236 82.3216 221.236 80.808C221.236 79.2944 222.463 78.0674 223.977 78.0674C225.49 78.0674 226.717 79.2944 226.717 80.808Z" fill="black"/>
<path d="M234.356 80.808C234.356 82.3216 234.014 85.2749 232.502 85.2749C230.988 85.2749 228.875 82.3216 228.875 80.808C228.875 79.2944 230.102 78.0674 231.616 78.0674C233.129 78.0674 234.356 79.2944 234.356 80.808Z" fill="black"/>
<path d="M241.981 80.808C241.981 82.3216 241.639 85.2749 240.127 85.2749C238.613 85.2749 236.5 82.3216 236.5 80.808C236.5 79.2944 237.727 78.0674 239.241 78.0674C240.754 78.0674 241.981 79.2944 241.981 80.808Z" fill="black"/>
<path d="M44.8722 100.946C48.7108 100.946 51.8225 97.5747 51.8225 93.4162C51.8225 89.2578 48.7108 85.8867 44.8722 85.8867C41.0336 85.8867 37.9219 89.2578 37.9219 93.4162C37.9219 97.5747 41.0336 100.946 44.8722 100.946Z" fill="black"/>
<path d="M62.8755 100.946C66.7408 100.946 69.8741 97.5747 69.8741 93.4162C69.8741 89.2578 66.7408 85.8867 62.8755 85.8867C59.0103 85.8867 55.877 89.2578 55.877 93.4162C55.877 97.5747 59.0103 100.946 62.8755 100.946Z" fill="black"/>
<path d="M80.879 100.946C84.7176 100.946 87.8294 97.5747 87.8294 93.4162C87.8294 89.2578 84.7176 85.8867 80.879 85.8867C77.0405 85.8867 73.9287 89.2578 73.9287 93.4162C73.9287 97.5747 77.0405 100.946 80.879 100.946Z" fill="black"/>
<path d="M193.329 27.2915L196.334 34.9036L206.834 29.8496L200.082 39.6026L208.774 44.2264L198.745 45.4622L199.339 53.6244L193.329 48.0701L185.027 55.672L187.915 45.4622L179.824 44.2264L186.577 39.6026L183.772 33.0834L190.324 34.9036L193.329 27.2915Z" fill="#FFDC4D"/>
<path d="M223.204 53.9346L223.985 55.9023L226.716 54.5958L224.96 57.117L227.221 58.3123L224.613 58.6317L224.767 60.7417L223.204 59.3059L221.045 61.271L221.796 58.6317L219.691 58.3123L221.447 57.117L220.718 55.4318L222.422 55.9023L223.204 53.9346Z" fill="#FFDC4D"/>
<path d="M41.0586 131.525C23.0957 119.13 10.9855 132.957 7.17578 141.42C11.5923 144.122 21.411 148.971 28.8955 145.844C36.3801 142.716 40.418 134.919 41.0586 131.525Z" fill="#D1EAFF"/>
<path d="M25.2271 144.771C29.7854 144.771 33.4806 141.076 33.4806 136.518C33.4806 131.96 29.7854 128.264 25.2271 128.264C20.6689 128.264 16.9736 131.96 16.9736 136.518C16.9736 141.076 20.6689 144.771 25.2271 144.771Z" fill="black"/>
<path d="M7.41738 138.604L1.91504 135.563" stroke="black" stroke-width="2" stroke-linecap="round"/>
<path d="M11.3306 132.9L6.47852 128.902" stroke="black" stroke-width="2" stroke-linecap="round"/>
<path d="M17.8265 127.952L14.1943 122.821" stroke="black" stroke-width="2" stroke-linecap="round"/>
<path d="M25.6255 125.442L24.9639 119.19" stroke="black" stroke-width="2" stroke-linecap="round"/>
<path d="M34.9805 126.621L36.7914 120.601" stroke="black" stroke-width="2" stroke-linecap="round"/>
<path d="M41.0586 129.755L44.5172 124.505" stroke="black" stroke-width="2" stroke-linecap="round"/>
<path d="M251.482 234.698C246.716 220.363 234.263 222.96 228.631 226.05C229.947 229.385 233.353 236.155 238.793 237.545C244.233 238.935 249.713 236.307 251.482 234.698Z" fill="#D1EAFF"/>
<path d="M237.212 235.424C239.732 237.323 243.314 236.82 245.213 234.3C247.112 231.781 246.609 228.199 244.089 226.3C241.57 224.401 237.988 224.904 236.089 227.423C234.19 229.943 234.693 233.525 237.212 235.424Z" fill="black"/>
<path d="M229.936 224.595L228.162 220.622" stroke="black" stroke-width="2" stroke-linecap="round"/>
<path d="M234.476 223.072L233.46 218.841" stroke="black" stroke-width="2" stroke-linecap="round"/>
<path d="M240.129 223.044L240.258 218.694" stroke="black" stroke-width="2" stroke-linecap="round"/>
<path d="M245.485 224.906L247.725 221.175" stroke="black" stroke-width="2" stroke-linecap="round"/>
<path d="M250.165 229.454L253.674 226.882" stroke="black" stroke-width="2" stroke-linecap="round"/>
<path d="M252.22 233.719L256.318 232.259" stroke="black" stroke-width="2" stroke-linecap="round"/>
<path d="M58.8188 44.3892C51.9226 34.2027 42.7321 38.9848 38.999 42.6491C40.7652 44.9727 44.9289 49.5296 49.4998 49.4192C54.0708 49.309 57.7876 46.0409 58.8188 44.3892Z" fill="#D1EAFF"/>
<path d="M47.7932 48.105C50.1871 49.0382 52.8842 47.854 53.8173 45.4601C54.7505 43.0662 53.5663 40.3691 51.1724 39.436C48.7785 38.5028 46.0814 39.687 45.1483 42.0809C44.2151 44.4748 45.3993 47.1719 47.7932 48.105Z" fill="black"/>
<path d="M39.7018 41.2202L37.4346 38.4968" stroke="black" stroke-width="2" stroke-linecap="round"/>
<path d="M42.9242 39.0257L41.1943 35.9331" stroke="black" stroke-width="2" stroke-linecap="round"/>
<path d="M47.3482 37.757L46.4912 34.3186" stroke="black" stroke-width="2" stroke-linecap="round"/>
<path d="M51.959 38.0351L52.8914 34.6165" stroke="black" stroke-width="2" stroke-linecap="round"/>
<path d="M56.6299 40.5695L58.8133 37.7786" stroke="black" stroke-width="2" stroke-linecap="round"/>
<path d="M59.1807 43.4599L62.0718 41.4109" stroke="black" stroke-width="2" stroke-linecap="round"/>
<path d="M187.45 209.882C184.989 217.154 184.062 234.595 200.048 246.178" stroke="white" stroke-width="2" stroke-linecap="round"/>
<path d="M97.5892 13.7696L111.418 9.81277L123.527 52.1331L109.699 56.0896C98.0121 59.4338 85.8281 52.6705 82.484 40.9842C79.1399 29.2978 85.9029 17.1134 97.5892 13.7696Z" stroke="black" stroke-width="2"/>
<path d="M82 42.5C71.1083 43.3366 59.7922 49.9183 58.3869 65.5C56.6494 84.7641 70.2411 100.85 58.3869 117.984C51.34 128.168 46.6583 134.491 46.6582 145.978C46.6582 152.639 50.616 172.911 77.7416 175.083C104.867 177.255 116.996 160.795 120.698 152.494C127.07 138.207 105 121 82 143C60.5 163.565 79.2861 214.178 127.07 214.661C167.007 215.064 183.468 157.817 188.319 125.562C190.859 108.668 204.334 90.1342 228.621 103.649C258.981 120.542 249.569 148.054 239.095 152.494C228.621 156.934 221.623 129.471 233.593 129.471C272.117 129.471 206.713 232.972 220.175 257.473C230.909 277.011 253.865 274.269 264.001 270.456" stroke="black" stroke-width="2" stroke-linecap="round"/>
<path d="M110.998 6.90274L121.507 3.8961L135.268 51.9893L124.759 54.9963L110.998 6.90274Z" stroke="black" stroke-width="2"/>
<path d="M129.943 33.2974L149.947 27.4188L151.607 33.0683L131.602 38.9473L129.943 33.2974Z" fill="black"/>
<path d="M146.144 12.1474L126.139 18.0261L127.799 23.6757L147.804 17.7969L146.144 12.1474Z" fill="black"/>
<path d="M77.2339 109.984L138.502 109.001C141.438 108.954 143.855 111.387 143.901 114.434C143.946 117.482 141.602 119.991 138.667 120.039L77.3985 121.022C74.4631 121.069 72.046 118.636 72.0006 115.589C71.9552 112.54 74.2985 110.032 77.2339 109.984Z" stroke="black" stroke-width="2" stroke-linecap="round"/>
</svg>
