<svg width="308" height="318" viewBox="0 0 308 318" fill="none" xmlns="http://www.w3.org/2000/svg">
<path d="M168.241 137.369H150.16V203.759L92.6875 205.585V215.017L165.867 214.226L168.241 137.369Z" fill="#DDDDE0"/>
<path d="M16.5137 207.97L20.678 92.0457H149.54V203.236L124.189 204.136H109.882H109.869H109.857L16.5137 207.97Z" stroke="#242938" stroke-width="2"/>
<path d="M28.6406 195.909H66.996H28.6406ZM28.6406 189.824H92.0792H28.6406Z" stroke="#242938" stroke-width="2" stroke-linecap="round"/>
<path d="M113.143 230.839H80.6323H113.143ZM113.143 221.954H71.1348H113.143ZM113.143 226.092H87.7432H113.143Z" stroke="#242938" stroke-width="2" stroke-linecap="round"/>
<path d="M123.129 50.751H183C183.56 49.6922 183.682 47.2459 179.688 45.9558C175.706 44.6657 172.37 46.4913 171.189 47.5745C170.811 44.1546 168.352 37.1808 161.545 36.6819C154.751 36.1829 152.62 41.1606 152.401 43.7286C146.166 35.3918 140.711 41.7448 138.763 45.968C132.273 43.7773 125.637 48.2439 123.129 50.751Z" stroke="#242938" stroke-width="2"/>
<path d="M149.977 129.519H174.938L177.921 212.035L92.0176 210.027V205.645" stroke="#242938" stroke-width="2"/>
<path d="M17.5598 158.18H1V238.506H113.083" stroke="#242938" stroke-width="2"/>
<path d="M17.9244 158.667H1.12109V173.15H17.9244V158.667Z" fill="#242938"/>
<path d="M117.102 210.696V228.404" stroke="#242938" stroke-width="2"/>
<path d="M19.971 91.3154H150.27V114.634H19.1309L19.971 91.3154Z" fill="#242938"/>
<path d="M30.2219 108.939C33.2781 108.939 35.7621 106.273 35.7621 102.987C35.7621 99.7012 33.2781 97.0359 30.2219 97.0359C27.1656 97.0359 24.6816 99.7012 24.6816 102.987C24.6816 106.273 27.1656 108.939 30.2219 108.939Z" fill="white"/>
<path d="M44.6398 108.939C47.6961 108.939 50.18 106.273 50.18 102.987C50.18 99.7012 47.6961 97.0359 44.6398 97.0359C41.5836 97.0359 39.0996 99.7012 39.0996 102.987C39.0996 106.273 41.5714 108.939 44.6398 108.939Z" fill="white"/>
<path d="M59.0558 108.939C62.1243 108.939 64.5961 106.273 64.5961 102.987C64.5961 99.7012 62.1121 97.0359 59.0558 97.0359C55.9996 97.0359 53.5156 99.7012 53.5156 102.987C53.5156 106.273 55.9874 108.939 59.0558 108.939Z" fill="white"/>
<path d="M173.112 298.117L192.838 262.701L172.564 249.009L161.91 266.048C161.691 268.019 162.044 276.831 162.579 284.182C163.115 291.533 169.617 296.45 173.112 298.117Z" fill="#AD5B5B"/>
<path d="M163.979 288.016C166.025 293.809 170.92 296.924 173.111 297.752L168.423 306.028C166.938 309.704 163.09 316.957 159.535 316.616L110.586 262.397C111.012 258.38 123.31 251.382 126.476 251.382C129.642 251.382 135.608 257.528 138.957 260.023C141.636 262.019 150.256 265.963 154.238 267.691C154.603 263.224 155.833 254.388 157.83 254.729C160.326 255.155 162.518 268.543 162.518 270.186C162.518 271.829 161.422 280.774 163.979 288.016Z" stroke="#242938" stroke-width="2"/>
<path d="M116.369 256.373C116.552 258.563 117.477 263.456 119.718 265.5C125.806 271.062 134.025 285.679 141.452 287.651C145.897 288.624 151.498 301.769 154.664 304.081C157.829 306.393 162.7 309.984 166.596 309.74" stroke="#242938" stroke-width="2"/>
<path d="M120.816 254.121C121.815 257.249 124.713 264.283 128.366 267.448C132.932 271.403 136.28 275.237 138.229 276.515C140.177 277.793 150.527 271.951 150.77 266.231" stroke="#242938" stroke-width="2"/>
<path d="M172.564 297.813C170.469 296.754 165.014 294.076 162.579 294.709C160.144 295.342 154.908 300.04 153.143 302.498" stroke="#242938" stroke-width="2"/>
<path d="M255.364 292.872L239.839 251.687L216.424 258.758L222.378 274.932C223.766 276.344 229.988 279.983 236.929 288.868C242.445 295.927 251.869 294.527 255.364 292.872Z" fill="#AD5B5B"/>
<path d="M241.871 292.373C247.241 295.367 252.976 294.454 255.168 293.627L257.128 302.937C258.443 306.673 260.367 314.657 257.481 316.751H184.326C181.988 313.452 187.127 291.813 189.501 289.72C191.875 287.626 200.411 288.284 204.575 287.943C207.899 287.663 216.983 284.925 221.111 283.586C218.432 279.996 213.5 272.559 215.217 271.488C217.373 270.162 227.881 278.742 228.964 279.971C230.048 281.2 235.162 288.637 241.871 292.373Z" stroke="#242938" stroke-width="2"/>
<path d="M185.229 300.15C186.811 301.671 190.744 304.726 193.788 304.774C197.575 304.835 208.351 308.572 210.665 309.363C212.99 310.154 216.911 310.921 224.741 307.002C228.71 304.787 241.617 310.945 245.526 310.58C249.434 310.215 255.461 309.691 258.213 306.929" stroke="#242938" stroke-width="2"/>
<path d="M187.066 295.513C189.879 297.192 196.71 300.551 201.556 300.515C207.596 300.454 212.649 301.111 214.95 300.782C217.251 300.454 221.148 289.22 217.544 284.778" stroke="#242938" stroke-width="2"/>
<path d="M254.792 294.04C252.527 294.637 246.658 296.231 245.245 298.324C243.833 300.405 243.029 307.391 243.334 310.41" stroke="#242938" stroke-width="2"/>
<path d="M187.967 203.978L186.566 133.45L255.971 131.442V140.265C256.605 166.359 252.623 185.941 250.553 192.477L234.407 216.635L247.509 268.117L212.928 273.898L206.779 257.772L191.802 280.409L160.266 261.606L187.967 203.978Z" fill="#242938"/>
<path d="M185.592 265.926L241.055 177.082" stroke="white" stroke-width="2" stroke-linecap="round"/>
<path fill-rule="evenodd" clip-rule="evenodd" d="M221.268 37.7285C209.433 36.7305 180.332 41.0997 158.56 66.5118C147.967 78.013 141.94 82.8812 116.796 77.1002C91.7735 71.3435 84.4798 73.4247 78.0995 75.2502L78.0142 75.2746C71.6217 77.1002 65.5944 83.1246 67.4208 87.9928C65.9962 90.6095 63.5853 96.3905 65.29 98.5812C66.9947 100.772 87.183 106.954 97.0701 109.778C105.569 110.691 124.15 112.699 130.433 113.429C138.287 114.342 159.169 115.802 182.183 96.4513L186.444 93.7738V134.606C198.56 137.137 227.271 141.056 245.195 136.432L238.559 140.995C238.035 147.835 238.303 159.312 252.379 164.911C253.243 164.643 254.205 164.339 255.24 164.01C270.229 159.312 301.961 149.369 305.833 139.292C309.948 126.293 308.049 122.703 299.392 106.322C299.209 105.981 299.026 105.628 298.832 105.275C289.699 87.9928 271.496 54.9498 265.468 49.2296C259.441 43.5095 235.515 34.0773 221.268 37.7285ZM255.971 130.103V99.8591C260.208 104.021 268.841 113.417 269.426 117.75C270.01 122.082 260.695 127.79 255.971 130.103Z" fill="#AD5B5B"/>
<path d="M51.1277 133.559L48.5098 112.565L73.045 122.606L51.1277 133.559Z" fill="#242938"/>
<path d="M106.287 53.7938L81.4963 41.8545L48.2793 110.776L49.5943 122.168L50.9094 117.799L52.334 124.188L57.0219 120.05L55.439 125.101L63.7797 124.188L61.9898 128.131L73.0703 122.703L106.287 53.7938Z" fill="#DDDDE0"/>
<path d="M55.6328 110.375L85.5865 49.583" stroke="#242938" stroke-width="2" stroke-linecap="round"/>
<path d="M61.9043 112.626L91.858 51.8345" stroke="#242938" stroke-width="2" stroke-linecap="round"/>
<path d="M68.2363 116.399L98.19 55.6074" stroke="#242938" stroke-width="2" stroke-linecap="round"/>
<path d="M158.561 66.5118C180.332 41.0997 209.433 36.7305 221.269 37.7285C235.515 34.0773 259.441 43.5095 265.469 49.2296C269.669 53.2094 279.776 70.4551 288.603 86.3863L263.52 108.135L259.38 103.571L256.823 129.92L244.099 137.101C231.253 139.231 199.777 139.961 186.444 134.606V93.7738L182.183 96.4513C179.638 98.5933 177.117 100.48 174.633 102.147L158.561 66.5118Z" fill="#EC5B60"/>
<path d="M189.56 125.368L201.512 122.289L200.827 119.632L188.876 122.711L189.56 125.368Z" fill="white"/>
<path d="M223.685 86.7357L235.637 83.6572L234.952 81.0001L223.001 84.0786L223.685 86.7357Z" fill="white"/>
<path d="M205.757 52.6476L213.086 42.7173L210.878 41.0879L203.55 51.0182L205.757 52.6476Z" fill="white"/>
<path d="M195.208 79.5598L199.949 73.1355L197.742 71.5061L193 77.9305L195.208 79.5598Z" fill="white"/>
<path d="M247.208 69.0537L251.949 62.6294L249.742 61L245 67.4243L247.208 69.0537Z" fill="white"/>
<path d="M214.999 128.695L231.979 131.923L232.491 129.227L215.512 126L214.999 128.695Z" fill="white"/>
<path d="M180.82 55.2535L192.305 63.0271L193.843 60.7549L182.358 52.9813L180.82 55.2535Z" fill="white"/>
<path d="M266 75.2723L280.312 84.9602L281.851 82.688L267.538 73.0001L266 75.2723Z" fill="white"/>
<path d="M236.94 121.059L247.217 114.225L245.697 111.94L235.421 118.775L236.94 121.059Z" fill="white"/>
<path d="M170.506 69.3943L167.859 80.2932L170.354 80.8989L173 70L170.506 69.3943Z" fill="white"/>
<path d="M240.945 48.3287L255 51L255.443 48.6713L241.388 46L240.945 48.3287Z" fill="white"/>
<path d="M200.065 87.5037L211 78L209.257 75.9939L198.321 85.4976L200.065 87.5037Z" fill="white"/>
<path d="M213.299 111.868L220.564 99.3328L218.265 97.9999L211 110.535L213.299 111.868Z" fill="white"/>
<path d="M230.087 65.0438L221.639 53.2739L219.479 54.8237L227.928 66.5936L230.087 65.0438Z" fill="white"/>
<path d="M186.933 88.9666C186.007 82.2971 185.289 76.7109 186.007 72.5364" stroke="#242938" stroke-width="2" stroke-linecap="round"/>
<path d="M258.042 100.894C257.117 94.2244 256.398 88.6381 257.117 84.4636" stroke="#242938" stroke-width="2" stroke-linecap="round"/>
<path d="M254.024 88.9664C253.647 86.301 253.367 84.0617 253.647 82.3943" stroke="#242938" stroke-width="2" stroke-linecap="round"/>
<path d="M214.816 20.6534C217.373 20.6534 219.443 18.5844 219.443 16.0286C219.443 13.4728 217.373 11.4038 214.816 11.4038C212.259 11.4038 210.189 13.4728 210.189 16.0286C210.189 18.5844 212.259 20.6534 214.816 20.6534Z" fill="#242938"/>
<path d="M214.816 29.1729C217.373 29.1729 219.443 27.104 219.443 24.5481C219.443 21.9923 217.373 19.9233 214.816 19.9233C212.259 19.9233 210.189 21.9923 210.189 24.5481C210.189 27.104 212.259 29.1729 214.816 29.1729Z" fill="#242938"/>
<path d="M210.201 24.5479C212.758 24.5479 214.828 22.479 214.828 19.9231C214.828 17.3673 212.758 15.2983 210.201 15.2983C207.644 15.2983 205.574 17.3673 205.574 19.9231C205.574 22.479 207.644 24.5479 210.201 24.5479Z" fill="#242938"/>
<path d="M251.076 19.2781C251.076 29.9273 242.443 38.5563 231.789 38.5563C213.878 40.2845 212.502 29.9273 212.502 19.2781C212.502 8.62891 221.135 0 231.789 0C242.443 0 251.076 8.62891 251.076 19.2781Z" fill="#AD5B5B"/>
<path d="M231.788 0C224.166 0 217.579 4.4179 214.449 10.8318L250.893 16.6128C249.59 7.2293 241.529 0 231.788 0Z" fill="#EC5B60"/>
<path d="M250.139 16.4543L200.082 9.5293" stroke="#242938" stroke-width="2" stroke-linecap="round"/>
<path d="M240.97 40.2115L240.605 34.5035L222.766 33.7124L221.756 39.0553C226.371 48.5848 239.083 43.6801 240.97 40.2115Z" fill="#AD5B5B"/>
<path d="M249.919 24.5478C252.634 24.5478 254.826 22.3206 254.826 19.57C254.826 16.8195 252.622 14.5923 249.919 14.5923C247.216 14.5923 245.012 16.8195 245.012 19.57C245.012 22.3206 247.203 24.5478 249.919 24.5478Z" fill="#242938"/>
<path d="M254.9 24.5479C256.3 24.5479 257.433 23.3795 257.433 21.9434C257.433 20.5072 256.3 19.3389 254.9 19.3389C253.5 19.3389 252.367 20.5072 252.367 21.9434C252.367 23.3795 253.512 24.5479 254.9 24.5479Z" fill="#242938"/>
<path d="M256.848 26.3492C256.848 29.5744 254.243 32.6535 251.004 33.1403C246.596 33.7854 242.846 29.3675 242.846 26.1423C242.846 22.9171 247.777 20.5073 251.004 20.5073C254.231 20.5073 256.848 23.124 256.848 26.3492Z" fill="#242938"/>
<path d="M214.779 16.4423C217.47 16.7952 219.942 14.8723 220.295 12.1461L210.554 10.8682C210.201 13.5822 212.088 16.0893 214.779 16.4423Z" fill="#242938"/>
<path d="M221.099 15.7729C222.487 15.8824 223.705 14.7993 223.815 13.3631L218.774 12.9858C218.664 14.422 219.699 15.6755 221.099 15.7729Z" fill="#242938"/>
<path d="M244.331 27.2989C246.267 27.9317 248.471 26.5443 249.25 24.1954C250.029 21.8465 249.08 19.4124 247.143 18.7795C245.207 18.1466 243.004 19.5341 242.236 21.883C241.445 24.2319 242.395 26.6538 244.331 27.2989Z" fill="#804141"/>
<path d="M243.197 23.0266C243.843 21.9434 245.657 20.6412 247.313 20.9333" stroke="#242938" stroke-width="2" stroke-linecap="round"/>
<path d="M246.256 21.1035C246.451 21.4078 246.865 22.3936 246.926 23.0751" stroke="#242938" stroke-width="2" stroke-linecap="round"/>
<path d="M223.193 27.7244L227.333 21.6147L228.527 28.6493L223.193 27.7244Z" fill="#804141"/>
<path d="M226.894 22.0532L223.156 27.3717L228.161 28.1507" stroke="#242938" stroke-width="2" stroke-linecap="round"/>
<path d="M226.152 31.8385C226.798 31.8629 228.441 31.7533 229.769 31.1201" stroke="#242938" stroke-width="2" stroke-linecap="round"/>
<path d="M231.424 16.6124C232.069 16.5881 233.701 16.6977 235.04 17.3309" stroke="#242938" stroke-width="2" stroke-linecap="round"/>
<path d="M221.173 16.8927C220.528 16.8684 218.896 16.978 217.557 17.6111" stroke="#242938" stroke-width="2" stroke-linecap="round"/>
<path d="M227.236 37.9728C228.831 38.265 231.644 38.4842 233.812 36.6699" stroke="#242938" stroke-width="2" stroke-linecap="round"/>
<path d="M220.527 22.3818C221.209 22.3818 221.756 21.8341 221.756 21.1526C221.756 20.471 221.209 19.9233 220.527 19.9233C219.845 19.9233 219.297 20.471 219.297 21.1526C219.297 21.8341 219.845 22.3818 220.527 22.3818Z" fill="#242938"/>
<path d="M232.654 22.3818C233.336 22.3818 233.883 21.8341 233.883 21.1526C233.883 20.471 233.336 19.9233 232.654 19.9233C231.972 19.9233 231.424 20.471 231.424 21.1526C231.424 21.8341 231.984 22.3818 232.654 22.3818Z" fill="#242938"/>
<path d="M234.309 29.2949C235.66 29.2949 236.756 28.1996 236.756 26.8486C236.756 25.4977 235.66 24.4023 234.309 24.4023C232.957 24.4023 231.861 25.4977 231.861 26.8486C231.861 28.1996 232.957 29.2949 234.309 29.2949Z" fill="#804141"/>
<path d="M218.567 27.9922C219.918 27.9922 221.014 26.8968 221.014 25.5459C221.014 24.195 219.918 23.0996 218.567 23.0996C217.215 23.0996 216.119 24.195 216.119 25.5459C216.119 26.8968 217.215 27.9922 218.567 27.9922Z" fill="#804141"/>
<path d="M100.664 75.9561C86.2229 69.3353 78.0283 76.9176 78.0283 76.9176C74.9477 79.802 73.3526 84.9988 91.6658 82.7594C91.8484 82.8081 95.8909 83.7817 98.6793 80.9582C100.615 78.9987 100.664 76.5159 100.664 75.9561Z" fill="#AD5B5B"/>
<path d="M100.664 75.9561C86.2229 69.3353 78.0283 76.9176 78.0283 76.9176C74.9477 79.802 73.3526 84.9988 91.6658 82.7594" stroke="#242938" stroke-width="2" stroke-linecap="round"/>
<path d="M207.266 255.885L229.427 222.964" stroke="white" stroke-width="2" stroke-linecap="round"/>
<path d="M190.281 199.353L215.06 160.651" stroke="white" stroke-width="2" stroke-linecap="round"/>
<path d="M94.5738 137.88L131.444 138.026L94.5738 137.88ZM82.2148 129.385L133.355 130.371L82.2148 129.385Z" stroke="#242938" stroke-width="2" stroke-linecap="round"/>
</svg>
