<svg width="318" height="303" viewBox="0 0 318 303" fill="none" xmlns="http://www.w3.org/2000/svg">
<path d="M181.027 145.99H294.854V257.694H270.786V301.017H193.902" stroke="#242938" stroke-width="2"/>
<path d="M171.662 93.3421L274.679 91.7508C279.615 91.6754 283.679 95.6107 283.756 100.541C283.832 105.472 279.892 109.53 274.956 109.607L171.938 111.198C167.003 111.274 162.939 107.338 162.862 102.408C162.786 97.4771 166.726 93.4188 171.662 93.3421Z" stroke="#242938" stroke-width="2"/>
<path d="M204.659 114.581L307.675 116.28C312.611 116.362 316.546 120.426 316.465 125.356C316.383 130.286 312.316 134.217 307.379 134.137L204.364 132.437C199.427 132.355 195.493 128.291 195.573 123.361C195.656 118.431 199.722 114.5 204.659 114.581Z" stroke="#242938" stroke-width="2"/>
<path d="M275.693 132.026C279.789 132.093 283.163 128.832 283.231 124.741C283.299 120.651 280.034 117.28 275.938 117.213C271.843 117.145 268.469 120.406 268.401 124.497C268.333 128.587 271.598 131.958 275.693 132.026Z" fill="white"/>
<path d="M228.453 109.123C232.548 109.06 235.817 105.693 235.754 101.602C235.69 97.5115 232.319 94.2467 228.224 94.31C224.128 94.3733 220.86 97.7406 220.923 101.831C220.987 105.922 224.358 109.187 228.453 109.123Z" fill="white"/>
<path d="M124.562 70.1567C123.694 76.6478 121.333 77.4203 119.773 79.5207C117.616 93.1534 121.333 125.324 121.333 125.324C121.333 125.324 151.112 102.694 156.078 91.202V66.9586L124.562 70.1567Z" fill="#D58B8B"/>
<path d="M173.416 49.369C169.264 67.5414 151.397 81.2147 134.153 77.2848C129.201 76.16 122.608 73.5175 118.945 70.4007C109.841 62.69 108.023 48.0952 110.981 35.1401C115.132 16.9677 132.457 5.42198 149.701 9.35188C166.944 13.2818 177.554 31.1966 173.416 49.369Z" fill="#D58B8B"/>
<path d="M147.516 40.6284C134.547 38.8938 128.998 30.099 127.844 25.9252C124.046 31.1831 116.136 31.82 112.65 31.4812C110.954 38.1214 109.136 53.055 112.65 61.0232C116.38 69.4928 122.35 72.8399 124.046 73.3549C124.249 73.9647 122.662 77.5287 121.604 78.8432L113.938 80.4016C94.7277 84.196 74.011 95.4436 66.0473 100.593C63.8223 93.3296 69.6425 91.3375 72.8307 91.2427C59.4266 73.1381 70.1445 63.5573 77.1721 61.0232C74.8929 41.455 88.0256 40.9401 94.8769 43.1354C91.3495 23.1336 103.316 19.2579 109.733 19.8271C111.089 1.8309 124.181 2.11547 130.558 4.51406C135.768 -0.472834 141.316 2.75239 143.446 4.98836C157.665 -6.88262 171.978 5.19163 177.364 12.7126C182.79 13.0921 182.655 17.6182 181.909 19.8271C186.901 24.3261 183.984 31.82 181.909 35.0046C198.406 45.683 187.647 59.1531 180.213 64.5465C183.102 64.8175 189.777 66.8367 193.305 72.7451C199.546 82.5563 190.076 91.2833 184.554 94.4272C178.91 91.9338 160.229 86.1609 151.587 83.5862C151.071 83.3151 150.026 82.1768 150.026 79.7918C150.135 75.618 153.92 72.989 155.792 72.203C152.373 62.3376 160.432 59.7764 164.882 59.7358L162.711 47.4718C160.921 51.8083 156.023 59.2479 150.705 54.3153C145.386 49.3826 146.363 43.1354 147.516 40.6284Z" fill="#242938"/>
<path d="M125.85 59.9932L129.947 50.1143L133.284 59.8712L125.85 59.9932Z" fill="#AD5B5B"/>
<path d="M130.883 76.4987C132.362 76.9865 135.97 77.4066 138.48 75.2384" stroke="#242938" stroke-width="2" stroke-linecap="round"/>
<path d="M129.472 50.968L125.389 60.0068L132.783 59.7222" stroke="#242938" stroke-width="2" stroke-linecap="round"/>
<path d="M129.473 66.308C130.694 66.6061 133.733 66.7958 136.12 65.2239" stroke="#242938" stroke-width="2" stroke-linecap="round"/>
<path d="M118.822 50.8867C120.07 51.1712 121.332 50.3853 121.617 49.1385C121.902 47.8783 121.115 46.6315 119.867 46.347C118.619 46.0624 117.357 46.8484 117.072 48.0951C116.787 49.3418 117.574 50.6021 118.822 50.8867Z" fill="#242938"/>
<path d="M137.979 50.6833C139.227 50.9679 140.489 50.1819 140.774 48.9352C141.059 47.6749 140.272 46.4282 139.024 46.1436C137.776 45.859 136.514 46.645 136.229 47.8917C135.944 49.1384 136.717 50.3987 137.979 50.6833Z" fill="#242938"/>
<path d="M134.004 37.5387C136.107 37.2676 139.905 38.6228 140.72 39.4359" stroke="#242938" stroke-width="2" stroke-linecap="round"/>
<path d="M121.481 35.6007C119.378 35.2483 116.57 35.6684 114.955 36.9423" stroke="#242938" stroke-width="2" stroke-linecap="round"/>
<path d="M159.916 59.6543C163.009 61.958 168.097 60.3861 171.258 56.1445C174.419 51.9029 174.473 46.5908 171.366 44.287C168.273 41.9833 163.185 43.5553 160.024 47.7969C156.863 52.0384 156.809 57.3506 159.916 59.6543Z" fill="#AD5B5B"/>
<path d="M161.205 51.5914C162.575 49.884 165.994 47.4854 168.138 47.1873" stroke="#242938" stroke-width="2" stroke-linecap="round"/>
<path d="M166.293 48.0681C166.958 49.0574 167.636 51.212 167.446 52.3774" stroke="#242938" stroke-width="2" stroke-linecap="round"/>
<path d="M140.868 62.1342C142.157 62.4323 143.446 61.6192 143.744 60.3318C144.043 59.0445 143.229 57.7571 141.94 57.459C140.651 57.1608 139.362 57.9739 139.064 59.2613C138.765 60.5487 139.579 61.836 140.868 62.1342Z" fill="#AD5B5B"/>
<path d="M116.488 57.9739C117.777 58.272 119.066 57.4589 119.364 56.1716C119.663 54.8842 118.849 53.5968 117.56 53.2987C116.271 53.0006 114.982 53.8136 114.683 55.101C114.385 56.3884 115.185 57.6758 116.488 57.9739Z" fill="#AD5B5B"/>
<path d="M116.123 55.7922C120.75 57.0661 125.525 54.3558 126.801 49.7348C128.076 45.1138 125.362 40.3437 120.736 39.0699C116.11 37.7961 111.334 40.5063 110.059 45.1273C108.784 49.7483 111.497 54.532 116.123 55.7922Z" stroke="#242938" stroke-width="2"/>
<path d="M127.004 48.6372C128.089 48.1493 130.599 47.4988 131.956 48.854" stroke="#242938" stroke-width="2"/>
<path d="M138.21 56.7814C142.837 58.0552 147.612 55.3449 148.887 50.7239C150.163 46.1029 147.449 41.3328 142.823 40.059C138.197 38.7852 133.421 41.4955 132.146 46.1165C130.871 50.7375 133.598 55.5075 138.21 56.7814Z" stroke="#242938" stroke-width="2"/>
<path d="M37.7603 141.383C53.6064 99.0481 82.6668 85.4832 121.739 78.572L122.553 122.953L151.383 83.5183C167.975 87.5566 198.664 95.1047 205.379 103.439C210.942 110.336 220.913 134.065 224.78 148.632C228.647 163.2 234.955 193.284 242.078 223.504C249.201 253.723 222.949 271.814 214.808 277.709C206.668 283.604 179.399 283.536 169.02 281.571C160.717 279.999 126.352 272.248 110.208 268.562C109.461 269.443 106.789 272.505 102.067 277.709C96.1658 284.214 77.7148 277.709 68.9642 277.709C60.2135 277.709 41.966 281.232 37.7603 277.709C33.5546 274.186 29.0097 272.153 16.6638 264.361C4.31789 256.569 0.722656 242.611 0.722656 234.819C0.722656 227.027 17.9526 194.301 37.7603 141.383Z" fill="#EC5B60"/>
<path d="M187.404 231.824C189.317 227.068 188.136 221.403 188.91 215.129C190.09 205.589 191.935 195.629 185.708 193.122C175.126 188.867 172.711 199.924 164.137 206.47C157.475 211.565 152.157 211.538 150.041 216.782C145.197 228.762 149.647 241.839 159.971 245.999C170.282 250.146 182.56 243.804 187.404 231.824Z" fill="white"/>
<path d="M168.71 231.922L144.741 239.194L148.664 246.733L139.15 255.889L147.899 263.613L157.486 251.291L162.68 254.794L168.71 231.922Z" fill="white" stroke="#242938" stroke-width="2"/>
<path d="M169.431 228.569L141.266 237.124L145.874 245.982L134.693 256.747L144.97 265.821L156.238 251.337L162.339 255.452L169.431 228.569Z" stroke="#242938" stroke-width="2"/>
<path d="M84.0887 145.673C78.0107 153.37 65.7326 171.773 65.2985 183.752C64.8643 195.731 59.8717 216.343 57.4297 225.151" stroke="#242938" stroke-width="2" stroke-linecap="round"/>
<path d="M228.959 240.375C231.075 235.144 236.393 235.158 243.055 230.062C243.516 234.114 243.434 243.966 239.419 251.013C235.403 258.06 232.228 262.301 231.143 263.548C226.72 257.531 225.608 248.682 228.959 240.375Z" fill="white"/>
<path d="M30.1909 250.945C35.8483 260.133 46.6204 263.643 41.3157 273.725C40.4068 275.446 39.0772 276.828 37.2185 277.303C36.3096 276.395 33.5555 274.525 29.8246 272.289C26.4464 270.269 17.9807 265.554 14.2905 262.938C2.29731 253.615 0.316545 239.874 0.859221 234.358C6.95076 231.946 14.5075 232.299 21.3453 235.89C26.3514 238.532 25.7952 243.817 30.1909 250.945Z" fill="white"/>
<path d="M82.259 119.971C79.3422 109.252 87.0889 97.8013 99.5704 94.4135C105.024 92.9364 108.226 97.178 116.312 99.4004C118.252 99.9289 120.192 100.2 122.078 100.363L122.688 122.695L137.069 103.317C138.345 104.455 139.335 106.108 140 108.507C141.763 114.984 132.701 119.524 124.371 124.362C118.903 127.533 115.091 131.91 110.153 133.265C97.671 136.639 85.1759 130.69 82.259 119.971Z" fill="white"/>
<path d="M183.836 134.241C174.787 127.763 173.566 114.009 181.095 103.507C184.243 99.1295 189.1 100.092 196.223 97.2458C206.059 101.338 212.15 110.892 215.718 123.359C215.23 124.647 214.646 125.866 213.86 126.95C206.316 137.453 192.885 140.719 183.836 134.241Z" fill="white"/>
<path d="M101.931 249.319C89.4767 255.268 83.4123 273.237 89.1783 277.709L106.273 280.555C118.51 281.436 144.843 283.129 152.332 282.858C159.821 282.587 160.025 279.308 159.183 277.709C160.581 277.709 163.823 277.479 165.56 276.557C169.142 274.822 168.002 272.044 166.984 270.865C167.758 270.865 170.715 270.865 171.936 268.223C173.51 264.808 168.518 262.694 165.56 262.531C166.415 261.474 167.174 259.577 164.407 258.059C159.183 255.214 147.312 253.926 142.971 253.926C142.374 250.837 137.978 249.563 135.848 249.319C127.464 247.611 114.481 248.37 101.931 249.319Z" fill="#D58B8B"/>
<path d="M140.462 253.994C136.839 253.452 132.892 252.68 129.473 252.842" stroke="#242938" stroke-width="2" stroke-linecap="round"/>
<path d="M163.254 262.193C158.098 260.77 146.973 258.669 141.004 259.347" stroke="#242938" stroke-width="2" stroke-linecap="round"/>
<path d="M163.253 269.307C158.531 268.006 148.356 266.096 142.902 266.719" stroke="#242938" stroke-width="2" stroke-linecap="round"/>
<path d="M156.877 276.083C152.658 274.917 143.568 273.196 138.697 273.752" stroke="#242938" stroke-width="2" stroke-linecap="round"/>
<path d="M144.6 207.31C150.135 210.521 160.812 213.096 174.65 211.036C188.489 208.977 176.143 194.097 172.208 173.431C169.074 156.953 167.338 147.968 169.02 126.883" stroke="#242938" stroke-width="2" stroke-linecap="round"/>
<path d="M165.289 157.712C165.452 159.65 166.388 165.368 168.884 172.686" stroke="#242938" stroke-width="2" stroke-linecap="round"/>
<path d="M102.215 153.918C102.215 143.944 94.3054 136.016 84.9036 136.274C75.5017 136.531 67.8364 144.716 68.0942 154.432C68.0942 157.753 69.0846 160.571 70.5634 163.132C72.7884 166.967 77.2383 171.317 77.2383 175.925V182.321C77.2383 185.899 79.2191 188.975 81.9324 188.975H88.3631C90.8323 188.975 93.0573 185.912 93.0573 182.321V176.169C93.0573 171.561 97.5072 166.967 99.9764 162.875C101.469 160.314 102.215 157.238 102.215 153.918Z" fill="white"/>
<path d="M81.9324 188.975C79.219 188.975 77.2383 185.899 77.2383 182.321V175.925L93.0573 176.169V182.321C93.0573 185.912 90.8323 188.975 88.3631 188.975H81.9324Z" fill="#D1EAFF"/>
<path d="M77.3887 176.562H92.9092" stroke="#242938" stroke-width="2" stroke-miterlimit="10" stroke-linecap="round" stroke-linejoin="round"/>
<path d="M86.6001 176.562H83.6968L80.5357 156.98C80.2779 155.923 81.3226 154.866 82.3808 154.866H87.9161C88.9743 154.866 90.019 155.923 89.7612 156.98L86.6001 176.562Z" stroke="#242938" stroke-width="2" stroke-miterlimit="10" stroke-linecap="round" stroke-linejoin="round"/>
<path d="M92.9091 181.21H86.709" stroke="#242938" stroke-width="2" stroke-miterlimit="10" stroke-linecap="round" stroke-linejoin="round"/>
<path d="M84.959 125.473V116.949" stroke="#242938" stroke-width="2" stroke-miterlimit="10" stroke-linecap="round" stroke-linejoin="round"/>
<path d="M64.2684 174.692L58.8145 180.031" stroke="#242938" stroke-width="2" stroke-miterlimit="10" stroke-linecap="round" stroke-linejoin="round"/>
<path d="M111.279 127.831L105.119 133.997" stroke="#242938" stroke-width="2" stroke-miterlimit="10" stroke-linecap="round" stroke-linejoin="round"/>
<path d="M55.7766 154.121H48.1113" stroke="#242938" stroke-width="2" stroke-miterlimit="10" stroke-linecap="round" stroke-linejoin="round"/>
<path d="M122.173 154.121H113.49" stroke="#242938" stroke-width="2" stroke-miterlimit="10" stroke-linecap="round" stroke-linejoin="round"/>
<path d="M64.4719 133.658L58.8145 128.021" stroke="#242938" stroke-width="2" stroke-miterlimit="10" stroke-linecap="round" stroke-linejoin="round"/>
<path d="M111.28 180.221L105.297 174.38" stroke="#242938" stroke-width="2" stroke-miterlimit="10" stroke-linecap="round" stroke-linejoin="round"/>
<path d="M104.564 182.24L134.411 206.822C122.35 217.365 117.357 224.317 111.415 238.41L80.9437 217.636C77.6741 217.921 70.5108 217.771 68.0416 214.899C65.5724 212.026 69.1405 208.313 71.2298 206.822C67.4311 201.876 71.7318 197.133 74.106 195.859C73.9432 189.571 79.6956 187.986 82.8431 187.498C85.8956 172.916 98.7978 177.226 104.564 182.24Z" fill="#D58B8B"/>
<path d="M84.2539 187.552C86.6145 187.037 92.394 186.752 96.5455 189.801" stroke="#242938" stroke-width="2" stroke-linecap="round"/>
<path d="M75.4629 195.954C77.8235 195.439 83.603 195.154 87.7545 198.217" stroke="#242938" stroke-width="2" stroke-linecap="round"/>
<path d="M73.2773 206.51C75.638 205.982 81.4175 205.711 85.5689 208.76" stroke="#242938" stroke-width="2" stroke-linecap="round"/>
<path d="M75.5176 212.676L80.3474 216.999" stroke="#242938" stroke-width="2" stroke-linecap="round"/>
</svg>
