<svg width="286" height="286" viewBox="0 0 286 286" fill="none" xmlns="http://www.w3.org/2000/svg">
<path d="M266.564 124.696H180.961L178.19 189.427L215.899 188.3L249.437 187.297L266.564 186.786V124.696Z" fill="#D1EAFF"/>
<path d="M43.5791 212.403H58.0772L58.5464 147.671L52.1598 148.798L46.4798 149.801L43.5791 150.313V212.403Z" fill="#D1EAFF"/>
<path d="M66.0781 212.403H80.5762L81.0455 173.221L74.6588 173.903L68.9788 174.51L66.0781 174.819V212.403Z" fill="#D1EAFF"/>
<path d="M111.075 212.403H125.573L126.043 192.859L119.655 193.2L113.975 193.502L111.075 193.657V212.403Z" fill="#D1EAFF"/>
<path d="M88.5762 212.403H103.074L103.544 157.967L97.1564 158.915L91.4769 159.759L88.5762 160.189V212.403Z" fill="#D1EAFF"/>
<path d="M247.859 225.177L251.758 235.047L265.381 228.494L256.62 241.14L267.899 247.135L254.885 248.738L255.657 259.321L247.859 252.119L237.088 261.976L240.834 248.738L230.338 247.135L239.099 241.14L235.46 232.688L243.961 235.047L247.859 225.177Z" fill="black"/>
<path d="M249.575 226.703L253.474 236.573L267.097 230.019L258.336 242.665L269.615 248.661L256.601 250.263L257.373 260.846L249.575 253.645L238.804 263.501L242.55 250.263L232.054 248.661L240.815 242.665L237.176 234.213L245.677 236.573L249.575 226.703Z" fill="#FFDC4D"/>
<path d="M75.5072 64.2544L78.4751 71.7719L88.8446 66.7807L82.1759 76.4126L90.7606 80.9789L80.8552 82.1995L81.4429 90.2603L75.5072 84.7749L67.3086 92.2824L70.1594 82.1995L62.1699 80.9789L68.8386 76.4126L66.0692 69.9744L72.5394 71.7719L75.5072 64.2544Z" fill="#FFDC4D"/>
<path d="M204.598 90.5531C207.768 74.4686 222.317 44.7235 226.699 53.9664C232.176 65.52 230.062 98.5949 222.662 100.521C215.264 102.446 226.026 54.193 235.251 57.5911C242.631 60.3096 238.326 74.4307 235.251 81.1514C236.34 72.0898 237.739 59.4036 252.836 50.9082" stroke="#FFDC4D" stroke-width="2" stroke-linecap="round"/>
<path d="M86.3841 150.78C85.0806 144.143 79.1001 131.868 77.2989 135.682C75.0474 140.45 75.9163 154.099 78.958 154.894C81.9995 155.688 77.5754 135.776 73.7834 137.178C70.7496 138.3 72.5193 144.127 73.7834 146.9C73.3357 143.161 72.7605 137.925 66.5547 134.42" stroke="black" stroke-width="2" stroke-linecap="round"/>
<path d="M54.1621 98.4317V24.5483H152.737V41.47H190.966V95.524" stroke="#FFDC4D" stroke-width="2"/>
<path d="M46.8538 245.643C46.8538 249.837 45.9086 258.023 41.7138 258.023C37.5189 258.023 31.6631 249.837 31.6631 245.643C31.6631 241.448 35.0636 238.047 39.2585 238.047C43.4533 238.047 46.8538 241.448 46.8538 245.643Z" fill="black"/>
<path d="M68.0228 245.643C68.0228 249.837 67.0775 258.023 62.8827 258.023C58.6879 258.023 52.832 249.837 52.832 245.643C52.832 241.448 56.2326 238.047 60.4274 238.047C64.6222 238.047 68.0228 241.448 68.0228 245.643Z" fill="black"/>
<path d="M89.1576 245.643C89.1576 249.837 88.2124 258.023 84.0175 258.023C79.8228 258.023 73.9668 249.837 73.9668 245.643C73.9668 241.448 77.3674 238.047 81.5622 238.047C85.7571 238.047 89.1576 241.448 89.1576 245.643Z" fill="black"/>
<path d="M237.488 78.6751C237.488 80.637 237.043 84.4652 235.068 84.4652C233.094 84.4652 230.338 80.637 230.338 78.6751C230.338 76.7131 231.939 75.1226 233.913 75.1226C235.887 75.1226 237.488 76.7131 237.488 78.6751Z" fill="black"/>
<path d="M245.951 80.9752C245.951 82.4699 245.614 85.3866 244.12 85.3866C242.625 85.3866 240.538 82.4699 240.538 80.9752C240.538 79.4803 241.75 78.2686 243.245 78.2686C244.739 78.2686 245.951 79.4803 245.951 80.9752Z" fill="black"/>
<path d="M238.42 90.4131C238.42 91.9079 238.082 94.8245 236.589 94.8245C235.094 94.8245 233.007 91.9079 233.007 90.4131C233.007 88.9183 234.219 87.7065 235.713 87.7065C237.208 87.7065 238.42 88.9183 238.42 90.4131Z" fill="black"/>
<path d="M245.963 90.4131C245.963 91.9079 245.626 94.8245 244.131 94.8245C242.637 94.8245 240.55 91.9079 240.55 90.4131C240.55 88.9183 241.761 87.7065 243.256 87.7065C244.751 87.7065 245.963 88.9183 245.963 90.4131Z" fill="black"/>
<path d="M253.494 90.4131C253.494 91.9079 253.158 94.8245 251.663 94.8245C250.168 94.8245 248.081 91.9079 248.081 90.4131C248.081 88.9183 249.293 87.7065 250.788 87.7065C252.282 87.7065 253.494 88.9183 253.494 90.4131Z" fill="black"/>
<path d="M238.515 99.851C238.515 101.346 238.177 104.262 236.683 104.262C235.188 104.262 233.102 101.346 233.102 99.851C233.102 98.3562 234.313 97.1445 235.808 97.1445C237.303 97.1445 238.515 98.3562 238.515 99.851Z" fill="black"/>
<path d="M257.793 102.619C257.793 105.642 257.111 111.54 254.083 111.54C251.056 111.54 246.83 105.642 246.83 102.619C246.83 99.5956 249.284 97.1445 252.312 97.1445C255.339 97.1445 257.793 99.5956 257.793 102.619Z" fill="black"/>
<path d="M118.608 214.669H133.405L160.364 213.708V97.1875H25.6229L21.2617 218.665L67.0798 217.033" stroke="black" stroke-width="2"/>
<path d="M123.183 83.5827H167.145M123.183 75.6948H150.818H123.183Z" stroke="black" stroke-width="2" stroke-linecap="round"/>
<path d="M25.622 97.1875H160.363V121.31H24.751L25.622 97.1875Z" fill="black"/>
<path d="M36.2251 115.41C39.3918 115.41 41.959 112.651 41.959 109.248C41.959 105.845 39.3918 103.086 36.2251 103.086C33.0584 103.086 30.4912 105.845 30.4912 109.248C30.4912 112.651 33.0584 115.41 36.2251 115.41Z" fill="white"/>
<path d="M51.1333 115.41C54.3 115.41 56.8672 112.651 56.8672 109.248C56.8672 105.845 54.3 103.086 51.1333 103.086C47.9666 103.086 45.3994 105.845 45.3994 109.248C45.3994 112.651 47.9666 115.41 51.1333 115.41Z" fill="white"/>
<path d="M66.0415 115.41C69.2083 115.41 71.7754 112.651 71.7754 109.248C71.7754 105.845 69.2083 103.086 66.0415 103.086C62.8748 103.086 60.3076 105.845 60.3076 109.248C60.3076 112.651 62.8748 115.41 66.0415 115.41Z" fill="white"/>
<path d="M149.608 138.176L97.8242 139.687L101.629 52.9102H219.183V136.146L195.664 136.832" stroke="black" stroke-width="2"/>
<path d="M219.184 52.9102H101.638V63.0155H219.184V52.9102Z" fill="black"/>
<path d="M188.218 181.532L136.434 182.659L140.238 117.927H257.793V180.017L234.273 180.529" stroke="black" stroke-width="2"/>
<path d="M145.532 177.419H183.888M145.532 173.215H169.643H145.532Z" stroke="black" stroke-width="2" stroke-linecap="round"/>
<path d="M257.794 117.927H140.248V129.939H257.794V117.927Z" fill="black"/>
<path d="M119.37 220.982C119.37 229.522 115.973 235.474 110.805 239.308C105.614 243.161 98.5844 244.911 91.294 244.911C84.0051 244.911 77.9802 243.162 73.7808 239.345C69.5914 235.537 67.127 229.586 67.127 220.982C67.127 203.778 78.9079 189.999 93.2483 189.999C107.589 189.999 119.37 203.778 119.37 220.982Z" stroke="black" stroke-width="2"/>
<path d="M119.128 213.056L131.927 216.127C137.054 225.739 134.031 231.614 133.574 240.239C124.229 239.647 100.86 237.919 98.1219 235.258C95.3448 232.558 98.4269 231.554 100.141 231.505L95.8196 230.313C94.6336 230.043 92.222 229.069 92.0636 227.343C91.9053 225.616 95.1683 225.554 96.8196 225.739C88.3386 224.149 90.8373 220.097 92.9719 219.982C94.0143 219.927 98.2515 220.454 100.231 220.775C99.4899 220.567 97.7958 219.901 96.955 218.913C95.9034 217.68 96.4306 216.51 98.0237 215.873C99.3803 215.33 109.896 216.139 113.072 216.445C115.613 216.691 118.201 214.287 119.128 213.056Z" fill="#ED4546"/>
<path d="M100.713 220.77L112.017 221.881" stroke="black" stroke-width="2" stroke-linecap="round"/>
<path d="M98.1641 226.104L109.469 227.214" stroke="black" stroke-width="2" stroke-linecap="round"/>
<path d="M101.236 232.184L112.541 233.293" stroke="black" stroke-width="2" stroke-linecap="round"/>
<path d="M96.8061 20.8149C99.8434 24.2619 102.173 28.2735 103.661 32.6207C105.148 36.9678 105.765 41.5655 105.475 46.1509C105.186 50.7365 103.996 55.22 101.974 59.3457C99.9521 63.4715 97.1369 67.1585 93.6899 70.1963C90.243 73.2341 86.2313 75.5633 81.8841 77.0506C77.5369 78.5381 72.9394 79.1547 68.3539 78.8654C63.7684 78.5761 59.2849 77.3864 55.1591 75.3643C51.0334 73.3422 47.3464 70.5272 44.3086 67.0802L60.6051 52.7183C61.7569 54.0253 63.1548 55.0926 64.7191 55.8593C66.2833 56.626 67.9833 57.0771 69.7219 57.1867C71.4605 57.2964 73.2036 57.0627 74.8519 56.4987C76.5001 55.9347 78.0211 55.0516 79.3281 53.8998C80.6351 52.748 81.7023 51.3501 82.469 49.7858C83.2357 48.2216 83.6868 46.5216 83.7965 44.783C83.9062 43.0444 83.6724 41.3012 83.1084 39.653C82.5444 38.0047 81.6613 36.4837 80.5095 35.1767L96.8061 20.8149Z" stroke="black" stroke-width="2"/>
<path d="M103.402 53.6725L112.84 81.4622L94.2017 87.0392L87.0518 74.7888C94.2494 70.3558 97.8247 65.5734 99.4454 62.7768C98.3805 58.5504 96.9667 54.5305 97.92 50.7172C98.9258 46.6928 101.781 49.4302 103.402 53.6725Z" fill="#ED4546"/>
<path d="M94.4881 84.5126C91.59 86.4574 93.2806 88.5325 94.4881 89.3269C93.7731 89.3269 92.0953 89.9466 91.1038 92.4253C89.8646 95.5236 92.3431 97.2873 92.3431 105.486C92.3431 113.685 91.1038 128.604 92.3431 139.949C93.5825 151.294 99.8271 157.3 107.501 164.021C115.176 170.742 121.039 183.564 126.33 189.808C130.563 194.804 142.075 199.611 147.303 201.391C147.303 204.861 141.678 212.148 138.866 215.358C136.212 214.643 130.563 214.223 129.19 218.265C127.474 223.318 130.906 225.272 130.906 229.133C130.906 232.994 128.951 238.047 130.906 239.954C132.469 241.479 136.038 241.733 137.627 241.67C138.389 243.042 141.662 244.625 143.204 245.245C143.204 251.639 155.464 261.129 161.031 262.881C168.753 265.312 213.083 277.801 230.91 260.45C248.738 243.1 243.447 193.908 239.586 172.458C236.497 155.298 226.731 142.332 222.235 137.995C221.44 136.708 219.175 133.705 216.467 131.989C201.786 122.36 170.898 133.18 168.515 134.134C166.131 135.087 168.515 137.995 166.322 137.995C164.568 137.995 162.064 140.409 161.031 141.617C158.695 141.617 152.68 141.284 147.303 139.949C140.582 138.281 130.906 130.034 126.33 122.36C121.754 114.686 119.799 95.5713 118.131 89.3269C116.463 83.0826 114.032 84.5126 113.317 80.8899C112.602 77.2673 98.1111 82.0816 94.4881 84.5126Z" fill="#FFDC4D"/>
<path d="M160.362 143.811C159.6 146.654 158.122 155.489 158.313 168.073C158.503 180.657 153.911 192.764 151.592 197.245" stroke="black" stroke-width="2" stroke-linecap="round"/>
<path d="M153.165 244.864C156.549 243.72 167.322 243.958 177.427 244.864C187.533 245.77 203.93 238.572 206.838 234.997C209.745 231.422 239.823 196.387 237.154 173.459C234.819 153.404 225.054 144.122 206.838 153.487C202.865 155.489 193.891 163.497 189.773 179.513C184.625 199.533 184.577 211.926 176.045 212.784C167.513 213.642 155.024 209.4 148.97 212.308C142.774 214.548 140.6 217.055 138.96 225.559C137.321 234.063 136.783 240.605 138.15 242.528" stroke="black" stroke-width="2" stroke-linecap="round"/>
<path d="M130.62 236.658C132.446 237.12 136.349 238.05 137.341 238.088M129.762 219.546C131.731 219.133 136.187 218.488 138.246 219.213L129.762 219.546ZM130.62 224.265L137.722 225.743L130.62 224.265ZM131.954 230.986L136.959 230.748L131.954 230.986Z" stroke="black" stroke-width="2" stroke-linecap="round"/>
<path d="M96.4275 84.7192C96.3646 85.8368 96.2692 88.2131 96.3903 88.7779M108.85 80.8774C109.45 81.9039 110.593 84.2816 110.372 85.5814L108.85 80.8774ZM105.518 82.2862L105.503 86.5687L105.518 82.2862ZM100.789 84.3559L101.717 87.1225L100.789 84.3559Z" stroke="black" stroke-width="2" stroke-linecap="round"/>
<path d="M219.183 139.95C213.606 142.126 201.709 147.224 198.734 150.198C195.016 153.916 185.387 158.635 183.91 157.872M169.229 141.094C170.769 143.875 174.338 150.007 176.283 152.295" stroke="black" stroke-width="2" stroke-linecap="round"/>
<path d="M211.271 136.804C210.318 137.217 208.059 138.31 206.648 139.378C204.884 140.712 203.12 142.762 201.929 143.811" stroke="black" stroke-width="2" stroke-linecap="round"/>
<path d="M172.946 136.041C173.15 136.271 173.635 136.88 173.937 137.476C174.314 138.221 174.693 139.364 174.948 139.949" stroke="black" stroke-width="2" stroke-linecap="round"/>
<path d="M201.213 136.804C199.433 139.823 194.94 146.69 191.203 150.007C187.466 153.325 185.61 154.218 185.149 154.25" stroke="black" stroke-width="2" stroke-linecap="round"/>
<path d="M210.241 115.553C210.241 126.194 201.614 134.82 190.974 134.82C187.353 134.82 182.561 135.537 179.667 133.8C174.057 130.432 171.707 122.573 171.707 115.553C171.707 104.912 180.333 96.2861 190.974 96.2861C201.614 96.2861 210.241 104.912 210.241 115.553Z" fill="#ED4546"/>
<path d="M193.682 94.0463C183.041 94.0463 167.084 84.2635 167.084 94.9043C167.084 98.9416 168.991 105.661 171.939 112.446C172.386 110.73 173.481 107.116 174.282 106.392C175.283 105.486 180.335 112.636 185.674 108.251C191.013 103.866 199.497 105.343 198.782 107.584C198.303 109.085 194.731 121.545 203.549 130.152C207.646 126.619 211.557 120.617 211.557 114.781C211.557 102.95 210.241 94.0463 193.682 94.0463Z" fill="black"/>
<path d="M200.158 136.48L199.796 130.779L181.973 129.985L180.962 135.326C180.962 142.19 180.431 152.908 183.53 153.201C188.471 153.668 199.004 138.609 200.158 136.48Z" fill="#ED4546"/>
<path d="M198.286 123.311C200.223 123.948 202.421 122.556 203.194 120.204C203.967 117.851 203.023 115.427 201.085 114.791C199.148 114.154 196.95 115.545 196.177 117.898C195.404 120.251 196.348 122.674 198.286 123.311Z" fill="#D7090A"/>
<path d="M197.161 119.05C197.81 117.968 199.615 116.669 201.274 116.957" stroke="black" stroke-width="2" stroke-linecap="round"/>
<path d="M200.215 117.122C200.41 117.424 200.823 118.416 200.886 119.093" stroke="black" stroke-width="2" stroke-linecap="round"/>
<path d="M178.229 124.091L182.36 117.986L183.547 125.016L178.229 124.091Z" fill="#D7090A"/>
<path d="M181.925 118.427L178.19 123.737L183.194 124.512" stroke="black" stroke-width="2" stroke-linecap="round"/>
<path d="M180.955 127.992C181.604 128.016 183.235 127.905 184.562 127.271" stroke="black" stroke-width="2" stroke-linecap="round"/>
<path d="M185.912 112.401C186.561 112.378 188.192 112.488 189.52 113.123" stroke="black" stroke-width="2" stroke-linecap="round"/>
<path d="M177.603 112.878C176.954 112.854 175.324 112.965 173.996 113.6" stroke="black" stroke-width="2" stroke-linecap="round"/>
<path d="M186.294 135.051C187.881 135.34 190.695 135.556 192.86 133.752" stroke="black" stroke-width="2" stroke-linecap="round"/>
<path d="M176.954 118.359C177.632 118.359 178.181 117.81 178.181 117.132C178.181 116.455 177.632 115.906 176.954 115.906C176.277 115.906 175.728 116.455 175.728 117.132C175.728 117.81 176.277 118.359 176.954 118.359Z" fill="black"/>
<path d="M187.14 118.171C187.817 118.171 188.367 117.622 188.367 116.944C188.367 116.267 187.817 115.717 187.14 115.717C186.462 115.717 185.913 116.267 185.913 116.944C185.913 117.622 186.462 118.171 187.14 118.171Z" fill="black"/>
<path d="M187.69 124.246C189.04 124.246 190.134 123.151 190.134 121.801C190.134 120.451 189.04 119.357 187.69 119.357C186.34 119.357 185.245 120.451 185.245 121.801C185.245 123.151 186.34 124.246 187.69 124.246Z" fill="#D7090A"/>
<path d="M175.201 123.769C176.551 123.769 177.646 122.675 177.646 121.325C177.646 119.975 176.551 118.88 175.201 118.88C173.851 118.88 172.757 119.975 172.757 121.325C172.757 122.675 173.851 123.769 175.201 123.769Z" fill="#D7090A"/>
</svg>
