<svg width="1110" height="82" viewBox="0 0 1110 82" fill="none" xmlns="http://www.w3.org/2000/svg">
<rect width="1110" height="82" rx="4" fill="#FAFAFA"/>
<path d="M930.33 23L932.406 28.3643L939.66 24.8027L934.995 31.6758L941 34.9342L934.071 35.8051L934.482 41.5571L930.33 37.6429L924.595 43L926.589 35.8051L921 34.9342L925.665 31.6758L923.728 27.0816L928.254 28.3643L930.33 23Z" fill="#FFDC4D"/>
<path d="M808.865 48.3607L809.278 55.6773C809.259 55.8914 809.119 56.112 808.901 56.032C808.719 56.0416 808.527 55.8689 808.489 55.7187L807.132 48.4211C807.078 47.9672 807.33 47.5581 807.845 47.5007C808.302 47.5072 808.714 47.8205 808.865 48.3607C808.865 48.3607 808.858 48.2393 808.865 48.3607Z" fill="black"/>
<path d="M812.915 59.9933L813.269 63.8418C813.275 63.9632 813.189 64.0591 813.096 64.0335C813.007 64.0686 812.879 63.9535 812.873 63.8321L812.062 59.9771C812.017 59.7054 812.129 59.5168 812.432 59.5009C812.618 59.5521 812.87 59.7216 812.915 59.9933C812.915 59.9933 812.944 59.9613 812.915 59.9933Z" fill="black"/>
<path d="M815.907 45.6172L813.334 45.9043C813.273 45.9075 813.18 45.8819 813.206 45.7892C813.203 45.7285 813.26 45.6646 813.321 45.6614L815.907 45.0387C816.057 45.0004 816.214 45.0835 816.223 45.2657C816.201 45.4191 816.086 45.547 815.907 45.6172C815.907 45.6172 815.935 45.5853 815.907 45.6172Z" fill="black"/>
<path d="M814.408 60.0067L814.701 62.1227C814.704 62.1834 814.647 62.2474 814.615 62.2186C814.554 62.2218 814.49 62.1642 814.487 62.1035L813.919 59.9714C813.88 59.8212 813.967 59.7253 814.088 59.7189C814.241 59.7413 814.369 59.8564 814.408 60.0067C814.408 60.0067 814.436 59.9747 814.408 60.0067Z" fill="black"/>
<path d="M815.929 46.6206L814.51 46.8472C814.449 46.8504 814.417 46.8216 814.446 46.7896C814.443 46.7289 814.471 46.697 814.532 46.6938L815.942 46.285C816.031 46.2498 816.095 46.3074 816.13 46.3969C816.105 46.4896 816.019 46.5854 815.929 46.6206Z" fill="black"/>
<path d="M808.091 47.549L816.709 48.1327C816.955 48.1807 817.118 48.3853 817.127 48.5675C817.079 48.8136 816.932 48.9127 816.692 48.9861L808.129 49.4349C807.615 49.4923 807.167 49.0895 807.103 48.4534C807.072 47.8461 807.449 47.4914 808.085 47.4276C808.034 47.613 808.034 47.613 808.091 47.549Z" fill="black"/>
<path d="M855.126 30.3998C855.126 30.3998 849.022 43.0576 838.692 44.0108C828.363 44.9639 828.012 33.5151 835.846 34.1991C844.713 34.9684 840.418 49.9495 830.09 53.1408C819.589 56.3322 814.594 52.4615 811.235 49.7088C818.124 53.148 824.013 52.3697 830.088 50.214C842.481 45.8162 851.771 34.3616 855.126 30.3998Z" fill="#D2E8F8"/>
<path d="M853.903 28.675C853.903 28.675 847.628 43.1627 837.013 43.9626C826.398 44.7625 825.876 33.0669 833.895 33.8646C842.986 34.7584 838.795 50.0808 828.329 53.1566C817.624 56.3058 812.389 52.2868 808.919 49.3933" stroke="black" stroke-width="1.5" stroke-miterlimit="10" stroke-linecap="round"/>
<path d="M864.265 64L864.992 65.8773L867.531 64.6307L865.898 67.0368L868 68.1769L865.575 68.4815L865.718 70.4951L864.265 69.1249L862.258 71L862.956 68.4815L861 68.1769L862.633 67.0368L861.954 65.4283L863.539 65.8773L864.265 64Z" fill="#FFDC4D"/>
<path d="M835.131 15L836.273 17.9504L840.263 15.9915L837.697 19.7717L841 21.5638L837.189 22.0429L837.415 25.2064L835.131 23.0536L831.977 26L833.074 22.0429L830 21.5638L832.566 19.7717L831.5 17.2449L833.99 17.9504L835.131 15Z" fill="#FFDC4D"/>
<path d="M221.5 17L236 25V40.9999L221.5 49L207 40.9999V25L221.5 17Z" fill="#D1EAFF"/>
<path d="M204 23.0259L222.5 13L241 23.0259V42.9741L222.5 53L204 42.9741V23.0259Z" stroke="black" stroke-width="1.5"/>
<path d="M216 29.5241L222.5 26L229 29.5241V36.4759L222.5 40L216 36.4759V29.5241Z" stroke="black" stroke-width="1.5"/>
<path d="M222 24V20" stroke="black" stroke-width="1.5" stroke-linecap="round"/>
<path d="M222 48V42" stroke="black" stroke-width="1.5" stroke-linecap="round"/>
<path d="M208 40L214 37" stroke="black" stroke-width="1.5" stroke-linecap="round"/>
<path d="M230 28L236 25" stroke="black" stroke-width="1.5" stroke-linecap="round"/>
<path d="M214 28L208 25" stroke="black" stroke-width="1.5" stroke-linecap="round"/>
<path d="M236 40L231 38" stroke="black" stroke-width="1.5" stroke-linecap="round"/>
<path d="M257.875 46.7998L264.4 50.3998V57.5998L257.875 61.1998L251.35 57.5998V50.3998L257.875 46.7998Z" fill="#D1EAFF"/>
<path d="M250 49.5117L258.325 45L266.65 49.5117V58.4883L258.325 63L250 58.4883V49.5117Z" stroke="black"/>
<path d="M255.4 52.4359L258.325 50.8501L261.25 52.4359V55.5643L258.325 57.1501L255.4 55.5643V52.4359Z" stroke="black"/>
<path d="M258.1 49.9499V48.1499" stroke="black" stroke-linecap="round"/>
<path d="M258.1 60.7498V58.0498" stroke="black" stroke-linecap="round"/>
<path d="M251.8 57.1498L254.5 55.7998" stroke="black" stroke-linecap="round"/>
<path d="M261.7 51.7499L264.4 50.3999" stroke="black" stroke-linecap="round"/>
<path d="M254.5 51.7499L251.8 50.3999" stroke="black" stroke-linecap="round"/>
<path d="M264.4 57.15L262.15 56.25" stroke="black" stroke-linecap="round"/>
<path fill-rule="evenodd" clip-rule="evenodd" d="M661.654 63.6472C662.95 63.6486 663.87 63.6809 664.761 63.7234C664.761 63.7118 664.761 63.7008 664.692 63.6911C665.791 63.6888 666.891 63.6959 667.882 63.7118L665.374 63.7529L664.761 63.7234L664.719 63.7635L663.605 63.7815C662.007 63.7753 660.404 63.7707 658.798 63.7677L661.654 63.6472ZM696.611 62.7597L694.939 62.8571L694.674 62.8026C694.312 62.7274 693.88 62.6558 693.671 62.5718C694.229 62.6286 695.371 62.6918 696.597 62.7597H696.611ZM704.288 62.2705C704.298 62.2807 704.34 62.2909 704.413 62.3009C704.177 62.2862 703.772 62.2862 704.288 62.2705ZM729.283 62.3166C729.074 62.3503 728.851 62.3831 728.614 62.4154C729.562 62.4454 730.509 62.4828 731.484 62.5248C729.687 62.5294 727.124 62.5386 724.727 62.5714L724.421 62.5326C723.971 62.4745 723.292 62.4186 722.4 62.3665C724.825 62.2843 727.5 62.2594 729.283 62.3171V62.3166ZM740.568 63.1428C740.415 63.1566 738.493 63.3458 736.612 63.4035C736.216 63.4142 735.768 63.4227 735.288 63.4285L733.491 63.3232L738.423 63.2748L733.24 63.3089L731.484 63.2055C735.33 63.1691 738.841 63.1437 740.568 63.1428ZM741.976 63.7165C741.286 63.7238 740.663 63.7369 740.164 63.7543L739.161 63.6745C740.181 63.6812 741.143 63.6954 741.976 63.716V63.7165ZM750.391 64.1166C753.108 64.2052 748.05 64.1914 748.984 64.202C751.074 64.4 759.628 64.2791 758.667 64.4711C756.647 64.5643 752.787 64.5357 750.851 64.5712C748.454 64.5011 750.809 64.4258 749.834 64.3714L749.471 64.4545C748.078 64.4388 746.49 64.3917 746.88 64.3529C746.658 64.3633 746.54 64.3757 746.546 64.3885L740.568 63.9998C744.066 64.0072 747.702 64.0483 750.391 64.1166ZM758.862 65.4311L758.723 65.4325L758.625 65.4251L758.862 65.4311ZM768.392 65.7662L767.068 65.6628C768.183 65.678 768.963 65.7149 768.392 65.7662ZM658.77 67.1563L658.296 67.1332C659.787 67.1217 659.286 67.1378 658.77 67.1563ZM758.792 64.5888C758.747 64.5884 758.7 64.5883 758.653 64.5883C758.932 64.5329 758.792 64.5528 758.792 64.5888ZM581.514 66.6583C581.037 66.6633 580.525 66.6632 580.051 66.6578C581.444 66.6846 582.643 66.7128 583.687 66.7428C584.788 66.7709 585.652 66.8005 586.739 66.8305C588.661 66.8928 591.504 66.9528 594.569 66.9532C596.695 66.953 598.733 66.925 600.239 66.8752C602.371 66.866 604.363 66.8558 606.203 66.8448C603.165 66.8143 603.89 66.7885 604.949 66.7617C606.021 66.7349 607.317 66.7063 606.565 66.6786C607.61 66.6768 608.627 66.7049 609.226 66.734C609.532 66.7478 609.672 66.7626 609.574 66.7732C609.505 66.7838 609.17 66.7908 608.446 66.7898L608.125 66.7737C606.913 66.8392 608.975 66.8655 610.354 66.8817C611.887 66.8988 613.559 66.9108 613.169 66.9583C622.685 67.0123 631.393 67.1503 640.226 67.2135L639.947 67.0982L642.985 67.124C643.639 67.1549 643.5 67.2163 641.327 67.1978C642.079 67.2671 645.381 67.1702 645.604 67.1466C649.63 67.2186 643.054 67.2629 644.364 67.274L646.217 67.2777L645.896 67.2625C647.652 67.2269 648.112 67.1808 650.731 67.2034C652.264 67.2357 651.135 67.2763 651.762 67.2846C651.706 67.2925 651.901 67.2975 652.751 67.2943L656.597 67.3289L655.621 67.2329C657.628 67.2015 659.244 67.2606 658.115 67.1517C659.732 67.3192 672.285 67.2998 673.581 67.3571C676.437 67.31 678.819 67.3266 681.731 67.3534C681.104 67.3303 681.313 67.2311 683.793 67.2592C681.508 67.4531 687.889 67.3765 688.976 67.5338C687.778 67.4263 696.388 67.5569 694.41 67.4028C696.43 67.4328 694.034 67.4785 695.343 67.5362C700.916 67.4914 706.169 67.6589 712.62 67.6732C712.898 67.6478 712.104 67.6008 713.72 67.5703L716.145 67.7226C717.454 67.718 718.304 67.5791 719.948 67.6848C719.767 67.6603 719.53 67.6243 720.408 67.6211C731.833 67.8288 746.197 67.6788 757.051 68C755.699 67.9382 756.856 67.9405 758.165 67.9469C757.399 67.9294 758.611 67.8823 758.695 67.8454L763.237 67.9783C764.853 67.886 768.88 68.0078 770.064 67.9169L768.294 67.9234C769.924 67.8698 769.325 67.7942 768.684 67.7138L773.839 67.7471C781.711 67.7978 788.246 67.5569 785.264 67.3248L765.522 65.7902C765.571 65.792 765.633 65.7934 765.703 65.7943L766.678 65.7791C766.218 65.7482 765.299 65.7325 765.09 65.7569L763.989 65.6715C766.218 65.7043 771.443 65.5958 774.021 65.5054C773.213 65.5137 772.488 65.5225 770.635 65.4749C769.924 65.5086 770.064 65.6388 767.765 65.6078C765.786 65.5386 767.556 65.5335 768.002 65.4823C766.386 65.5368 764.017 65.4458 761.342 65.4657L755.031 64.9746C755.187 64.9747 755.342 64.9734 755.48 64.971C755.619 64.9686 755.737 64.9651 755.825 64.9608L754.891 64.9192C756.326 64.8532 758.737 64.9714 758.918 64.9022C761.091 64.946 764.17 64.9875 764.156 65.0872L761.565 65.138C762.359 65.126 762.498 65.0614 761.342 65.0475C763.042 65.0683 759.252 65.2266 763.418 65.2206L764.574 65.1362C766.776 65.18 770.733 65.2192 770.83 65.3065C773.143 65.2372 770.273 65.2926 772.822 65.1985C769.395 65.2954 770.482 65.0014 767.222 65.1292C770.259 65.0272 767.57 65.0134 769.841 64.9008C768.949 64.9146 768.406 64.9483 768.03 64.8791C767.7 64.8787 767.373 64.8772 767.054 64.8745V64.8698C767.036 64.8714 767.018 64.8729 766.999 64.8745C766.817 64.8735 766.79 64.8735 766.971 64.8763C766.795 64.8957 766.457 64.913 765.995 64.9262C763.46 64.9206 762.22 64.8182 760.673 64.7974C760.631 64.754 761.927 64.8002 762.666 64.7674L760.353 64.736C762.345 64.7055 762.471 64.5929 764.811 64.6677L763.878 64.586C764.407 64.5246 764.031 64.4535 762.652 64.424C762.61 64.3806 759.141 64.3562 761.175 64.3695L758.291 64.2588L758.778 64.2514C757.441 64.1235 752.091 64.0368 753.958 63.8485C752.899 63.8134 751.701 63.7778 751.38 63.7003L752.982 63.6648C751.673 63.6186 752.676 63.4811 750.53 63.4806C754.571 63.3634 748.217 63.2065 747.841 63.1012L745.473 63.1262C744.776 63.0597 743.299 63.0052 741.335 62.9355L739.356 62.966C738.061 62.9415 737.852 62.8922 737.754 62.8354C737.691 62.796 737.513 62.7569 737.225 62.7186C736.934 62.6725 736.49 62.6276 735.901 62.5848C736.751 62.5811 737.155 62.6309 737.113 62.6702C737.41 62.6236 737.345 62.5752 736.923 62.5297C736.501 62.4842 735.737 62.4429 734.703 62.4098C734.12 62.3902 733.481 62.3724 732.794 62.3568C730.147 62.2945 727.36 62.2617 725.675 62.1611C725.054 62.1611 724.442 62.1564 723.886 62.1473C723.329 62.1381 722.845 62.1248 722.47 62.1085C722.609 62.1098 722.735 62.1103 722.86 62.1098C722.681 62.1063 722.495 62.1032 722.303 62.1006C721.815 62.0822 721.286 62.0618 720.659 62.0438C721.034 62.0635 721.483 62.0815 721.996 62.0974C720.501 62.0821 718.923 62.0777 717.371 62.0845C717.285 62.0592 717.183 62.0339 717.064 62.0088H716.646C714.974 61.9765 715.128 62.0397 715.755 62.0965C714.921 62.105 714.145 62.1188 713.47 62.1371C712.982 62.0785 711.812 62.0872 710.711 62.1029C709.568 62.1149 708.51 62.1338 707.409 62.0766C707.186 62.0951 706.601 62.1122 705.848 62.1297C705.152 62.1491 704.246 62.1689 703.48 62.1948C702.17 62.2372 701.125 62.2917 701.181 62.3517C699.718 62.3683 698.144 62.3951 697.656 62.4606C696.937 62.4385 696.198 62.4171 695.441 62.3965C695.191 62.4583 695.079 62.5206 695.106 62.5829C694.41 62.5843 693.769 62.5862 693.253 62.5848C692.824 62.5831 692.408 62.5787 692.027 62.5718C691.669 62.5649 691.378 62.5546 691.191 62.5423C691.075 62.535 690.981 62.5272 690.913 62.5192C690.809 62.5088 690.785 62.4977 690.843 62.4869C690.662 62.5012 690.676 62.51 690.634 62.5192L690.537 62.5432C690.475 62.5557 690.396 62.568 690.3 62.5802C690.132 62.6005 689.965 62.6129 689.798 62.6249C689.478 62.6494 689.213 62.6715 689.185 62.7495L687.931 62.7029C687.095 62.7325 687.471 62.8345 685.786 62.8155C681.146 62.7962 675.364 63.1128 667.715 63.1968C672.759 63.2923 663.493 63.2148 666.405 63.3191C665.151 63.2983 663.883 63.3038 663.897 63.2517C662.17 63.3625 658.38 63.3269 659.174 63.4658C657.92 63.4455 658.338 63.4049 657.502 63.3952C657.502 63.4082 657.502 63.4474 656.639 63.4377C655.803 63.4285 656.234 63.4008 656.248 63.3749C653.685 63.4631 656.346 63.5642 658.896 63.6565C656.221 63.6578 655.705 63.6842 656.527 63.7718C655.134 63.758 653.392 63.7534 654.758 63.6911C653.685 63.7165 647.624 63.8277 649.742 63.9002C648.878 63.8918 648.251 63.9357 648.251 63.9514C645.98 64.0128 645.604 64.0123 643.709 64.0829L644.643 64.0765C646.482 64.1854 643.5 64.1485 642.135 64.2103L641.912 64.2006C636.102 64.2588 641.159 64.2805 635.127 64.3289L636.994 64.3746C640.198 64.4974 631.504 64.412 630.654 64.5232L632.396 64.5278C632.396 64.6035 624.176 64.4798 622.504 64.5029C621.932 64.5015 622.42 64.4748 622.573 64.4563C617.279 64.4877 624.329 64.5366 622.448 64.6257C620.846 64.6022 620.038 64.5149 618.226 64.5565C616.485 64.5518 617.39 64.8182 612.96 64.8145C614.353 64.8283 615.718 64.8422 615.301 64.8966C613.921 64.9589 607.317 64.9298 608.641 65.066C608.268 65.0656 607.91 65.061 607.624 65.0531C607.066 65.1154 604.642 65.2197 605.394 65.2922C598.484 65.1491 600.156 65.6258 594.903 65.4592L593.928 65.4934L592.535 65.5405L589.748 65.6342L589.247 65.6162C587.115 65.6711 586.084 65.7168 585.749 65.7537C585.443 65.7915 585.805 65.8215 586.195 65.8492C584.955 65.8691 584.705 65.8446 584.328 65.8377C581.263 65.9148 580.037 65.9632 579.591 66.0066C579.187 66.0491 579.549 66.0906 580.762 66.1635C579.856 66.17 578.978 66.1769 578.114 66.1843C578.714 66.2046 577.251 66.278 577.042 66.3805C576.749 66.4802 577.975 66.6062 581.5 66.6583H581.514Z" fill="#93B6F2"/>
</svg>
