<svg width="350" height="342" viewBox="0 0 350 342" fill="none" xmlns="http://www.w3.org/2000/svg">
<path d="M56.127 110.657C31.1893 93.8357 14.3769 112.6 9.08789 124.085C15.2193 127.752 28.8505 134.334 39.2412 130.089C49.6319 125.845 55.2377 115.264 56.127 110.657Z" fill="#F6F6F7"/>
<path d="M34.3832 128.804C40.5103 128.804 45.4773 123.639 45.4773 117.266C45.4773 110.894 40.5103 105.729 34.3832 105.729C28.2561 105.729 23.2891 110.894 23.2891 117.266C23.2891 123.639 28.2561 128.804 34.3832 128.804Z" fill="#242938"/>
<path d="M9.08836 119.929L1.10059 115.491" stroke="#242938" stroke-width="2" stroke-linecap="round"/>
<path d="M14.4139 111.941L8.20117 106.616" stroke="#242938" stroke-width="2" stroke-linecap="round"/>
<path d="M23.2889 105.728L17.0762 97.7407" stroke="#242938" stroke-width="2" stroke-linecap="round"/>
<path d="M33.9395 101.291V93.3032" stroke="#242938" stroke-width="2" stroke-linecap="round"/>
<path d="M47.252 103.953L49.9145 95.0781" stroke="#242938" stroke-width="2" stroke-linecap="round"/>
<path d="M56.1279 108.391L60.5656 100.403" stroke="#242938" stroke-width="2" stroke-linecap="round"/>
<path d="M325.937 239.524C317.871 222.057 302.46 227.102 295.761 231.808C297.899 235.841 303.172 243.929 310.263 244.919C317.351 245.91 323.923 241.811 325.937 239.524Z" fill="#F6F6F7"/>
<path d="M308.373 242.672C311.845 244.728 316.326 243.581 318.382 240.109C320.438 236.637 319.291 232.156 315.819 230.1C312.348 228.044 307.866 229.191 305.81 232.663C303.754 236.134 304.901 240.616 308.373 242.672Z" fill="#242938"/>
<path d="M298.423 229.095L294.873 224.658" stroke="#242938" stroke-width="2" stroke-linecap="round"/>
<path d="M302.861 226.433L301.974 221.995" stroke="#242938" stroke-width="2" stroke-linecap="round"/>
<path d="M310.849 226.433V221.108" stroke="#242938" stroke-width="2" stroke-linecap="round"/>
<path d="M317.062 228.208L319.724 222.883" stroke="#242938" stroke-width="2" stroke-linecap="round"/>
<path d="M324.162 233.533L327.712 229.095" stroke="#242938" stroke-width="2" stroke-linecap="round"/>
<path d="M326.824 237.971L333.037 236.196" stroke="#242938" stroke-width="2" stroke-linecap="round"/>
<path d="M240.734 13.9801C235.041 1.75311 224.161 5.28513 219.434 8.57952C220.942 11.4029 224.665 17.0642 229.67 17.7571C234.673 18.4501 239.313 15.5806 240.734 13.9801Z" fill="#587291"/>
<path d="M227.939 16.1847C230.357 17.6169 233.479 16.8176 234.911 14.3994C236.343 11.9812 235.544 8.8598 233.126 7.42755C230.707 5.9953 227.586 6.79458 226.154 9.21279C224.721 11.631 225.521 14.7524 227.939 16.1847Z" fill="#242938"/>
<path d="M220.321 7.21272L218.546 3.6626" stroke="#242938" stroke-width="2" stroke-linecap="round"/>
<path d="M223.871 5.43757L222.983 1.88745" stroke="#242938" stroke-width="2" stroke-linecap="round"/>
<path d="M230.084 4.55012L229.196 1" stroke="#242938" stroke-width="2" stroke-linecap="round"/>
<path d="M234.521 5.43774L235.409 2.77515" stroke="#242938" stroke-width="2" stroke-linecap="round"/>
<path d="M238.959 9.87524L241.622 7.21265" stroke="#242938" stroke-width="2" stroke-linecap="round"/>
<path d="M241.621 13.4254L245.171 12.5378" stroke="#242938" stroke-width="2" stroke-linecap="round"/>
<path d="M50.3595 9.87524L63.2286 16.9755V31.1759L50.3595 38.2762L37.4902 31.1759V16.9755L50.3595 9.87524Z" fill="#F6F6F7"/>
<path d="M34.8271 15.2235L51.2465 6.3252L67.6658 15.2235V32.9281L51.2465 41.8264L34.8271 32.9281V15.2235Z" stroke="#242938" stroke-width="2"/>
<path d="M45.4775 20.9908L51.2465 17.863L57.0154 20.9908V27.1607L51.2465 30.2885L45.4775 27.1607V20.9908Z" stroke="#242938" stroke-width="2"/>
<path d="M50.8027 16.088V12.5378" stroke="#242938" stroke-width="2" stroke-linecap="round"/>
<path d="M50.8027 37.3887V32.0635" stroke="#242938" stroke-width="2" stroke-linecap="round"/>
<path d="M38.3779 30.2886L43.7031 27.626" stroke="#242938" stroke-width="2" stroke-linecap="round"/>
<path d="M57.9033 19.6382L63.2285 16.9756" stroke="#242938" stroke-width="2" stroke-linecap="round"/>
<path d="M43.7031 19.6382L38.3779 16.9756" stroke="#242938" stroke-width="2" stroke-linecap="round"/>
<path d="M63.2287 30.2885L58.791 28.5134" stroke="#242938" stroke-width="2" stroke-linecap="round"/>
<path d="M31.2767 175.844L40.152 180.947V191.153L31.2767 196.257L22.4014 191.153V180.947L31.2767 175.844Z" fill="#F6F6F7"/>
<path d="M20.626 179.397L30.8326 173.181L41.0392 179.397V191.816L30.8326 198.032L20.626 191.816V179.397Z" stroke="#242938" stroke-width="2"/>
<path d="M26.8389 183.169L30.8328 181.169L34.8266 183.169V187.156L30.8328 189.156L26.8389 187.156V183.169Z" stroke="#242938" stroke-width="2"/>
<path d="M31.2764 179.394V175.844" stroke="#242938" stroke-width="2" stroke-linecap="round"/>
<path d="M31.2764 194.482V190.932" stroke="#242938" stroke-width="2" stroke-linecap="round"/>
<path d="M23.2891 190.044L25.0641 189.156" stroke="#242938" stroke-width="2" stroke-linecap="round"/>
<path d="M35.7139 182.056L38.3765 180.281" stroke="#242938" stroke-width="2" stroke-linecap="round"/>
<path d="M25.0641 182.056L23.2891 180.281" stroke="#242938" stroke-width="2" stroke-linecap="round"/>
<path d="M39.264 190.044L35.7139 189.156" stroke="#242938" stroke-width="2" stroke-linecap="round"/>
<path d="M235.408 62.68L300.602 48.9268L302.861 59.2829L237.961 72.8901L235.408 62.68Z" fill="#242938"/>
<path d="M197.244 117.267C219.792 117.267 238.071 99.1866 238.071 76.8839C238.071 54.5811 219.792 36.5012 197.244 36.5012C174.697 36.5012 156.418 54.5811 156.418 76.8839C156.418 99.1866 174.697 117.267 197.244 117.267Z" stroke="#242938" stroke-width="2"/>
<path d="M197.245 111.941C216.851 111.941 232.746 95.981 232.746 76.2931C232.746 64.7887 227.319 54.5571 218.895 48.0391L197.245 111.941Z" fill="#F6F6F7"/>
<path d="M185.707 42.7139C172.23 47.82 162.631 61.0458 162.631 76.5568C162.631 81.8975 163.769 86.9673 165.812 91.528L185.707 42.7139Z" fill="#F6F6F7"/>
<path d="M174.169 102.831L197.422 40.939C203.821 40.939 209.821 42.6445 214.995 45.6262L191.275 111.054C184.79 109.913 178.916 107 174.169 102.831Z" fill="#F6F6F7"/>
<path d="M134.231 46.2642L151.981 56.6926V77.5497L134.231 87.9781L116.479 77.5497V56.6926L134.231 46.2642Z" fill="#F6F6F7"/>
<path d="M114.704 54.4657L134.23 42.7139L153.755 54.4657V78.0012L134.23 89.753L114.704 78.0012V54.4657Z" stroke="#242938" stroke-width="2"/>
<path d="M126.242 62.4537L134.231 57.802L142.218 62.4537V71.7884L134.231 76.4401L126.242 71.7884V62.4537Z" stroke="#242938" stroke-width="2"/>
<path d="M133.343 54.2518V48.0391" stroke="#242938" stroke-width="2" stroke-linecap="round"/>
<path d="M133.343 85.3154V79.9902" stroke="#242938" stroke-width="2" stroke-linecap="round"/>
<path d="M118.255 76.44L124.468 72.8899" stroke="#242938" stroke-width="2" stroke-linecap="round"/>
<path d="M143.993 61.3521L150.206 57.802" stroke="#242938" stroke-width="2" stroke-linecap="round"/>
<path d="M124.468 61.3521L118.255 57.802" stroke="#242938" stroke-width="2" stroke-linecap="round"/>
<path d="M151.094 76.44L144.881 72.8899" stroke="#242938" stroke-width="2" stroke-linecap="round"/>
<path d="M105.927 100.637L115.283 117.4L90.3775 128.804C83.9828 113.942 71.382 82.8846 72.1359 77.5534C72.8898 72.2222 77.0272 68.3704 78.7998 68.4161C78.7998 67.2482 79.8768 63.7985 82.0981 62.233C84.9252 60.2407 88.2908 60.172 89.7044 60.9277C92.6661 51.9279 101.686 55.6836 103.638 57.3553C115.283 54.6759 121.947 59.6911 123.563 62.1643C125.178 64.6376 121.14 67.0421 120.332 66.6299C119.524 66.2177 113.803 64.775 110.302 65.7368C104.581 67.3856 104.985 73.9122 106.6 77.5534C108.216 81.1945 111.514 79.2022 116.832 77.5534C122.149 75.9045 127.13 73.4308 127.13 77.5534C127.13 79.8892 121.543 88.5834 112.322 91.3623C106.667 93.0661 105.029 99.0568 105.927 100.637Z" fill="#D58B8B"/>
<path d="M288.769 45.1299L313.511 92.9674L285.982 106.616C282.923 100.216 276.044 86.7184 272.999 83.9352C269.192 80.4561 266.065 79.3187 262.531 77.7798C258.996 76.241 247.372 75.3712 247.848 73.1633C248.324 70.9554 250.771 70.0188 253.626 68.8814C255.91 67.9714 261.148 68.5023 263.482 68.8814L258.996 59.2469C258.406 57.329 257.582 53.2388 258.996 52.2218C261.647 50.3151 263.3 51.7982 264.57 52.2218C264.252 51.7089 264.108 50.2682 266.065 48.6089C268.023 46.9496 270.416 47.9176 271.367 48.6089C271.095 48.0291 271.506 45.5661 273.678 44.5278C276.057 43.3904 278.074 44.55 279.388 45.1299C279.07 44.6616 279.008 42.641 281.835 41.2494C284.663 39.8577 287.681 43.5018 288.769 45.1299Z" fill="#D58B8B"/>
<path d="M105.829 57.802C102.974 58.1107 98.7285 60.7038 98.7285 64.9022" stroke="#242938" stroke-width="2" stroke-linecap="round"/>
<path d="M279.785 46.2642L282.448 49.8143" stroke="#242938" stroke-width="2" stroke-linecap="round"/>
<path d="M272.685 49.8142L275.347 54.2519" stroke="#242938" stroke-width="2" stroke-linecap="round"/>
<path d="M266.473 53.3643L268.248 57.8019" stroke="#242938" stroke-width="2" stroke-linecap="round"/>
<path d="M91.6284 59.5769C91.23 59.8222 89.3518 62.0752 88.9658 64.9021" stroke="#242938" stroke-width="2" stroke-linecap="round"/>
<path d="M80.978 64.9021C80.5796 65.27 78.7014 68.6496 78.3154 72.8899" stroke="#242938" stroke-width="2" stroke-linecap="round"/>
<path d="M85.7107 300.211L176.065 219.333H272.416L240.681 302.481C250.343 299.234 263.117 301.213 272.685 304.819L265.004 338.262L217.233 337.277C199.984 336.957 198.232 324.187 199.513 317.842L211.236 258.269L142.78 302.481L151.405 304.768L142.78 337.475L90.6293 335.407C66.1037 329.37 77.1311 309.427 85.7107 300.211Z" fill="#242938"/>
<path d="M177.053 245.814L93.4033 311.385L141.9 314.298M174.343 236.196C174.396 238.335 175.081 242.144 177.053 245.814L174.343 236.196ZM183.044 252.521C180.319 250.726 178.39 248.302 177.053 245.814L183.044 252.521Z" stroke="white" stroke-width="2" stroke-linecap="round"/>
<path d="M172.874 305.677L180.753 318.258M172.874 305.677C172.874 305.677 171.341 303.648 171.012 303.648C165.22 303.648 164.562 309.938 164.562 309.938L151.005 305.677L141.33 337.399L203.457 340.037C203.457 340.037 201.451 333.373 198.653 330.162C194.409 325.293 183.845 323.195 183.845 323.195L180.753 318.258L172.874 305.677ZM172.874 305.677H186.412L189.637 318.258H180.753L172.874 305.677Z" stroke="#242938" stroke-width="2"/>
<path d="M294.645 305.677L302.707 318.258M294.645 305.677C294.645 305.677 293.076 303.648 292.74 303.648C286.814 303.648 286.141 309.938 286.141 309.938L272.269 305.677L262.034 337.737L325.936 340.037C325.936 340.037 323.884 333.373 321.021 330.162C316.679 325.293 305.87 323.195 305.87 323.195L302.707 318.258L294.645 305.677ZM294.645 305.677H308.496L311.796 318.258H302.707L294.645 305.677Z" stroke="#242938" stroke-width="2"/>
<path d="M90.9463 126.598C82.5381 129.659 87.4429 143.137 90.9463 149.493V159.967L99.3679 174.201L107.722 187.764C112.146 191.366 122.598 198.077 129.012 196.089C137.029 193.605 162.16 186.354 166.674 187.764C171.188 189.174 167.01 194.343 166.674 198.573C166.404 201.957 171.457 215.247 174.017 221.469C194.97 236.038 243.075 225.631 246.915 223.55C250.755 221.469 272.719 224.289 276.896 221.469C281.073 218.649 275.144 188.435 276.896 184.608C278.648 180.781 284.576 180.109 289.09 177.357C293.604 174.604 289.09 171.784 292.931 170.374C296.003 169.246 310.74 168.517 317.724 168.293C325.988 164.354 343.622 155.079 348.042 149.493C353.566 142.51 345.28 126.598 342.517 126.598C339.755 126.598 331.67 104.307 328.908 102.964C326.146 101.621 322.238 92.1542 320.149 89.4014C318.061 86.6486 306.54 95.3099 303.441 97.0555C300.342 98.8012 280.736 106.791 284.576 108.47C287.649 109.812 288.865 116.012 289.09 118.944C288.282 119.749 287.15 121.777 289.09 123.442C291.031 125.107 295.244 128.791 297.108 130.425H284.576C275.616 128.098 255.956 124.073 249.003 126.598C242.051 129.122 230.52 125.546 225.625 123.442C213.606 135.42 203.257 130.536 199.08 126.598C198.137 128.209 194.404 131.23 191.063 130.425C186.885 129.418 175.028 131.096 162.16 136.669C149.291 142.242 148.55 139.757 142.958 139.757C137.366 139.757 138.04 146.069 137.029 142.913C136.019 139.757 132.852 137.005 131.437 133.849C130.023 130.693 127.597 126.598 125.172 126.598C122.746 126.598 121.668 118.608 118.502 115.452C115.335 112.297 101.456 122.771 90.9463 126.598Z" fill="#EC5B60"/>
<path d="M243.059 131.062C241.819 130.342 240.842 128.19 240.584 127.36C241.54 127.36 243.273 127.36 245.082 127.36C247.135 127.235 248.576 126.623 249.673 126.31C250.448 125.922 255.832 125.323 261.269 126.122C260.838 127.299 259.558 130.509 258.369 133C256.883 136.115 251.845 139.16 249.261 138.468C246.677 137.776 244.61 131.962 243.059 131.062Z" fill="#F6F6F7"/>
<path d="M195.001 130C198.702 140.044 203.46 161.465 193.334 165.166C187.634 167.248 183.585 159.156 175.92 153.767C169.966 149.58 162.804 150.193 161.185 145.802C159.718 141.825 158.407 139.116 159.5 137.5C163.739 135.667 167.384 134.235 173.501 132C183.626 128.3 193.111 127.34 195.001 130Z" fill="#F6F6F7"/>
<path d="M121.592 195.989C114.165 187.82 115.009 175.661 122.957 168.089C126.431 164.779 132.606 168.699 139.894 167.608C149.276 166.202 156.643 160.599 160.823 165.197C165.303 170.126 160.539 177.425 156.48 184.696C155.513 186.429 154.79 188.216 154.111 189.934C147.103 191.952 132.982 195.989 132.291 195.989C131.427 195.989 127.772 198.234 123.32 196.465L121.592 195.989Z" fill="#F6F6F7"/>
<path d="M267.346 199.837C267.588 194.784 264.55 189.888 263.185 183.79C261.109 174.513 259.539 164.631 252.743 164.324C241.2 163.799 242.598 174.888 236.595 183.79C231.93 190.705 226.829 192.419 226.564 197.988C225.953 210.726 234.589 221.465 245.852 221.976C257.113 222.486 266.737 212.575 267.346 199.837Z" fill="#F6F6F7"/>
<path d="M322.714 146.928C320.952 144.754 317.943 143.831 315.158 141.808C310.921 138.729 306.661 135.217 303.847 137.552C299.07 141.518 294.087 143.231 294.977 149.083C295.669 153.627 303.892 158.54 305.835 160.937C310.279 166.418 317.661 167.725 322.322 163.857C326.984 159.987 327.16 152.409 322.714 146.928Z" fill="#F6F6F7"/>
<path d="M318.946 113.918C321.811 119.479 331.592 117.738 336 116L335 113.5C333.714 110.233 330.255 103.589 328.932 102.866C327.61 102.143 325.326 98.3207 324.5 97C324.156 97.8109 323.698 100.753 323.423 102.032C323.078 103.63 315.365 106.967 318.946 113.918Z" fill="#F6F6F7"/>
<path d="M103.685 153.509C97.3986 155.11 91.6177 150.495 89.5131 147.987C87.8295 145.337 86.4731 138.693 86.0053 135.701C85.9351 133.355 86.5254 127.939 89.5 127C90.9869 126.012 99.5156 122.271 103 120.5C107.631 120.983 106.351 132.25 105.158 135.701C103.965 139.152 111.542 151.507 103.685 153.509Z" fill="#F6F6F7"/>
<path d="M275.867 219.32C276.987 216.51 278.892 210.508 277.548 208.98M178.262 221.493C177.678 218.727 173.032 212.695 174.43 207.795L178.262 221.493ZM188.143 224.325C187.56 219.847 186.745 210.508 188.143 208.98V224.325ZM199.504 226.433C199.504 220.462 199.504 208.941 199.504 210.627V226.433ZM213.956 226.433C214.515 224.369 215.301 218.925 213.956 213.656V226.433ZM228.678 224.325C229.371 222.986 230.815 219.504 231.03 216.291L228.678 224.325ZM245.483 210.627C245.639 215.193 245.523 224.325 243.803 224.325L245.483 210.627ZM256.575 221.493C258.658 219.518 262.88 214.907 263.095 212.273L256.575 221.493ZM266.725 219.32C268.719 216.971 272.708 211.944 272.708 210.627L266.725 219.32Z" stroke="#242938" stroke-width="2" stroke-linecap="round"/>
<path d="M113.3 170.518C112.627 169.28 111.494 166.439 112.348 164.982C113.416 163.162 131.056 145.987 136.893 145.667" stroke="#242938" stroke-width="2" stroke-linecap="round"/>
<path d="M298.512 131.304C297.289 130.452 308.935 126.552 316.011 130.635C326.247 136.541 332.472 138.368 333.924 141.23" stroke="#242938" stroke-width="2" stroke-linecap="round"/>
<path d="M113.506 118.321C114.831 117.793 117.994 118.215 120.03 124.128M91.9747 128.682C91.7138 130.398 91.3484 134.067 91.9747 135.017V128.682ZM96.8028 127.032L97.2595 132.443L96.8028 127.032ZM101.5 124.92C102.196 126.108 103.653 128.682 103.914 129.474L101.5 124.92ZM107.307 121.621C108.221 122.61 110.322 125.079 111.418 127.032L107.307 121.621Z" stroke="#242938" stroke-width="2" stroke-linecap="round"/>
<path d="M197.245 133.242C199.23 134.597 204.773 137.195 211.054 136.739C217.336 136.284 220.441 134.218 221.208 133.242" stroke="#242938" stroke-width="2" stroke-linecap="round"/>
<path d="M207.008 139.455C208.265 139.455 211.447 139.455 214.108 139.455" stroke="#242938" stroke-width="2" stroke-linecap="round"/>
<path d="M294.43 105.453C293.262 106.269 291.792 109.242 295.253 114.604M314.775 93.3032C316.264 94.1281 319.337 96.0576 319.724 97.1763L314.775 93.3032ZM310.738 96.4393L314.705 100.14L310.738 96.4393ZM306.416 99.181C306.947 100.505 308.129 103.329 308.599 104.037L306.416 99.181ZM300.534 102.149C300.788 103.538 301.519 106.851 302.422 108.986L300.534 102.149Z" stroke="#242938" stroke-width="2" stroke-linecap="round"/>
<path d="M178.607 100.403C178.607 102.446 178.003 104.26 177.072 105.542C176.135 106.829 174.936 107.504 173.725 107.504C172.515 107.504 171.315 106.829 170.379 105.542C169.446 104.26 168.844 102.446 168.844 100.403C168.844 98.3611 169.446 96.5467 170.379 95.2653C171.315 93.9782 172.515 93.3032 173.725 93.3032C174.936 93.3032 176.135 93.9782 177.072 95.2653C178.003 96.5467 178.607 98.3611 178.607 100.403Z" stroke="#242938" stroke-width="2"/>
<path d="M191.016 121.24L195.182 131.631C206.954 136.91 222.055 136.905 230.083 125.17C230.083 125.17 219.486 116.469 214.082 111.836C216.25 103.294 216.113 86.0363 198.227 85.3414C175.87 84.4728 171.149 105.581 175.781 115.137C179.485 122.782 185.347 121.84 191.016 121.24Z" fill="#D58B8B"/>
<path d="M199.02 111.941C202.942 111.941 206.12 108.961 206.12 105.285C206.12 101.609 202.942 98.6284 199.02 98.6284C195.099 98.6284 191.92 101.609 191.92 105.285C191.92 108.961 195.099 111.941 199.02 111.941Z" fill="#AD5B5B"/>
<path d="M194.582 104.841C195.489 104.545 197.468 103.954 198.132 103.954" stroke="#242938" stroke-width="2" stroke-linecap="round"/>
<path d="M197.245 104.841C197.807 105.514 198.949 106.99 199.02 107.504" stroke="#242938" stroke-width="2" stroke-linecap="round"/>
<path d="M168.844 97.7407L194.582 98.6283" stroke="#242938" stroke-width="2"/>
<path d="M177.037 106.424C177.793 106.591 178.685 105.461 179.029 103.902C179.373 102.342 179.039 100.942 178.282 100.776C177.526 100.609 176.634 101.738 176.29 103.298C175.946 104.857 176.281 106.257 177.037 106.424Z" fill="#AD5B5B"/>
<path d="M177.719 88.329L191.428 98.1835L193.01 103.99C193.245 102.788 194.522 100.436 197.755 100.647C201.799 100.911 202.941 107.246 199.777 109.622C197.246 111.522 194.68 110.413 193.714 109.622L197.755 129.692L245.171 123.148C245.171 123.148 241.715 112.015 232.645 94.84C223.576 77.6653 211.349 77.4189 206.369 79.4425C193.714 73.0372 181.995 82.698 177.719 88.329Z" fill="#242938"/>
<path d="M233.115 68.7546C235.911 73.4244 234.408 79.5269 229.757 82.3849C225.109 85.2429 207.008 86.2029 207.008 86.2029C207.008 86.2029 214.985 68.3319 219.635 65.4739C224.284 62.6159 230.32 64.0847 233.115 68.7546Z" fill="#242938"/>
</svg>
