<svg width="266" height="267" viewBox="0 0 266 267" fill="none" xmlns="http://www.w3.org/2000/svg">
<path d="M135.203 174H14V249.271H135.203V174Z" fill="#F6F6F7"/>
<path d="M71 26.8469H170.929C171.86 24.8272 172.06 20.1744 165.408 17.7209C158.755 15.2674 153.183 18.7432 151.23 20.7878C150.593 14.28 146.485 1.02482 135.143 0.0673804C123.8 -0.89016 120.238 8.59496 119.874 13.4571C109.458 -2.40115 100.356 9.692 97.107 17.7209C86.2552 13.5918 75.1807 22.0845 71 26.8469Z" fill="#F6F6F7"/>
<path d="M266 80.4531H151.612C150.546 77.3637 150.317 70.2467 157.932 66.4937C165.548 62.7407 171.925 68.0575 174.162 71.1849C174.89 61.2303 179.593 40.9549 192.576 39.4903C205.56 38.0257 209.639 52.5344 210.055 59.9717C221.977 35.7145 232.397 54.2125 236.116 66.4937C248.537 60.1777 261.215 73.1683 266 80.4531Z" fill="#F6F6F7"/>
<path d="M80.834 237.18L86.11 90.3416H249.287V231.186L216.991 232.336H198.951H198.94H198.928L80.834 237.18Z" stroke="#242938" stroke-width="2.5"/>
<path d="M204.802 75.3328H257.461M204.802 69.416H238.51H204.802Z" stroke="#242938" stroke-width="2.5" stroke-linecap="round"/>
<path d="M12.1504 44.3595H43.7946M12.1504 33.6199H60.9103H12.1504Z" stroke="#242938" stroke-width="2.5" stroke-linecap="round"/>
<path d="M85.5354 89.7449H249.885V119.145H84.4727L85.5354 89.7449Z" fill="#242938"/>
<path d="M98.4685 111.956C102.331 111.956 105.462 108.593 105.462 104.445C105.462 100.297 102.331 96.9348 98.4685 96.9348C94.6059 96.9348 91.4746 100.297 91.4746 104.445C91.4746 108.593 94.6059 111.956 98.4685 111.956Z" fill="white"/>
<path d="M116.652 111.956C120.515 111.956 123.646 108.593 123.646 104.445C123.646 100.297 120.515 96.9348 116.652 96.9348C112.79 96.9348 109.658 100.297 109.658 104.445C109.658 108.593 112.79 111.956 116.652 111.956Z" fill="white"/>
<path d="M134.836 111.956C138.698 111.956 141.83 108.593 141.83 104.445C141.83 100.297 138.698 96.9348 134.836 96.9348C130.973 96.9348 127.842 100.297 127.842 104.445C127.842 108.593 130.973 111.956 134.836 111.956Z" fill="white"/>
<path d="M50.5666 60.0878L50.3875 59.8696H50.1051H22.9963C11.4003 59.8696 2 50.4765 2 38.8895C2 27.3025 11.4004 17.9094 22.9963 17.9094H52.85C64.4459 17.9094 73.8463 27.3026 73.8463 38.8895V45.168C73.8463 53.2874 67.2591 59.8696 59.1333 59.8696H58.448L58.5419 60.5479L60.0828 71.6772L50.5666 60.0878Z" stroke="#242938" stroke-width="2.5"/>
<path d="M235.302 146.526C222.117 135.738 221.122 116.149 189.03 107.349C181.806 105.369 174.622 104.485 167.834 104.396C167.834 104.396 162.972 114.608 152.858 114.608C145.146 114.608 139.922 109.438 139.922 109.438C135.48 111.383 129.989 114.106 125.592 118.038C117.983 124.846 118.378 130.666 114.994 134.346C111.611 138.025 104.197 144.836 98.4259 141.803C92.6543 138.77 95.7391 134.694 98.4259 123.209C101.113 111.724 103.501 100.588 102.158 97.2073C100.814 93.8265 75.1406 90.1475 72.1055 91.8379C69.6774 93.1902 62.0715 113.315 58.5721 123.209C54.6249 139.648 53.4275 174.347 80.2156 181.626C107.004 188.904 125.609 176.803 131.563 169.843C134.787 177.957 152.244 218.416 159.575 233.381L224.008 230.994L250.179 218.764C250.858 212.582 251.811 197.585 250.179 187.045C248.139 173.87 248.487 157.315 235.302 146.526Z" fill="#587291"/>
<path d="M155.352 164.623L140.234 156.817L137.036 163.001L152.154 170.807L155.352 164.623Z" fill="#242938"/>
<path d="M189.035 113.615L172.938 119.129L175.198 125.714L191.294 120.199L189.035 113.615Z" fill="#242938"/>
<path d="M147.738 127.802L153.783 111.908L147.272 109.436L141.227 125.329L147.738 127.802Z" fill="#242938"/>
<path d="M210.062 179.25L214.656 162.879L207.949 160.999L203.355 177.371L210.062 179.25Z" fill="#242938"/>
<path d="M218.932 204.821L235.649 207.996L236.95 201.157L220.233 197.982L218.932 204.821Z" fill="#242938"/>
<path d="M240.822 174.181L250.262 188.328L248.323 172.876L246.618 170.319L240.822 174.181Z" fill="#242938"/>
<path d="M216.144 126.358L221.833 142.384L228.397 140.056L227.746 138.223C225.962 135.917 221.833 129.026 218.683 125.446L216.144 126.358Z" fill="#242938"/>
<path d="M192.096 213.03L201.265 227.355L207.133 223.605L197.965 209.28L192.096 213.03Z" fill="#242938"/>
<path d="M185.458 179.289L169.178 184.237L171.205 190.896L187.485 185.949L185.458 179.289Z" fill="#242938"/>
<path d="M98.3835 143.991L82.1035 148.938L84.1306 155.598L100.411 150.65L98.3835 143.991Z" fill="#242938"/>
<path d="M106.117 179.324L100.46 175.263L94.3477 183.764C96.4532 183.815 101.152 183.838 103.102 183.518L106.117 179.324Z" fill="#242938"/>
<path d="M74.2696 111.715L77.8022 105.715L67.677 99.7607L64.9902 106.257L74.2696 111.715Z" fill="#242938"/>
<path d="M100.509 100.24L94.6426 116.201L99.6181 118.027C100.414 115.988 102.106 106.355 102.504 100.972L100.509 100.24Z" fill="#242938"/>
<path d="M67.1429 162.398L60.6045 159.999L59.7227 162.398C60.4782 164.21 62.465 168.701 64.2415 170.738L67.1429 162.398Z" fill="#242938"/>
<path d="M156.612 212.096L156.324 205.142L146.936 205.532L149.921 212.374L156.612 212.096Z" fill="#242938"/>
<path d="M181.914 152.094C192.064 156.303 213.379 166.95 217.439 175.859C221.499 184.768 223.244 198.927 223.609 204.893M126.835 134.196C126.736 139.598 127.263 153.198 130.169 164.374L126.835 134.196Z" stroke="#242938" stroke-width="2.5" stroke-linecap="round"/>
<path d="M178.829 138.372C179.957 141.09 183.387 147.361 188.084 150.702" stroke="#242938" stroke-width="2.5" stroke-linecap="round"/>
<path d="M153.083 59.8701C143.115 59.8701 138.451 62.52 131.135 75.587C127.422 82.2197 125.307 92.4007 128.666 95.7814C130.772 97.8993 135.775 100.203 140.921 101.903L139.921 112.818C138.974 115.209 143.909 119.649 150.916 120.375C159.209 121.233 167.607 117.295 169.923 110.581C170.456 109.036 166.038 102.694 167.715 98.8399C172.258 94.7552 175.121 88.7992 175.121 82.166C175.121 69.8524 165.255 59.8701 153.083 59.8701Z" fill="#D58B8B"/>
<path d="M133.559 84.3241L139.329 78.8728L138.636 86.4948L133.559 84.3241Z" fill="#AD5B5B"/>
<path d="M138.751 79.3059L133.248 84.1968L138.339 86.2412" stroke="#242938" stroke-width="2.5" stroke-linecap="round"/>
<path d="M137.997 91.4021L132.248 88.7014C132.318 89.6282 132.952 91.3842 133.928 92.0644C135.541 93.187 136.984 92.1807 137.997 91.4021Z" stroke="#242938" stroke-width="2.5"/>
<path d="M132.183 76.6658C132.946 77.2395 134.031 77.0859 134.605 76.3227C135.179 75.5595 135.026 74.4757 134.262 73.902C133.498 73.3283 132.413 73.482 131.839 74.2452C131.265 75.0083 131.419 76.0921 132.183 76.6658Z" fill="#242938"/>
<path d="M143.706 82.4146C144.47 82.9883 145.554 82.8347 146.129 82.0715C146.703 81.3083 146.549 80.2245 145.785 79.6508C145.021 79.0771 143.937 79.2307 143.363 79.9939C142.789 80.7571 142.942 81.8409 143.706 82.4146Z" fill="#242938"/>
<path d="M145.76 75.042C147.331 75.1782 149.276 76.0008 150.195 77.2151" stroke="#242938" stroke-width="2.5" stroke-linecap="round"/>
<path d="M137.022 70.8948C135.831 69.861 133.886 69.0361 132.375 69.2211" stroke="#242938" stroke-width="2.5" stroke-linecap="round"/>
<path d="M143.625 88.8232C144.411 89.414 145.528 89.2558 146.119 88.4699C146.711 87.684 146.552 86.568 145.766 85.9772C144.979 85.3864 143.862 85.5446 143.271 86.3305C142.68 87.1164 142.838 88.2324 143.625 88.8232Z" fill="#AD5B5B"/>
<path d="M129.726 81.8786C130.513 82.4694 131.63 82.3112 132.221 81.5253C132.812 80.7394 132.654 79.6234 131.867 79.0326C131.081 78.4418 129.964 78.6 129.373 79.3859C128.782 80.1718 128.94 81.2879 129.726 81.8786Z" fill="#AD5B5B"/>
<path d="M167.716 98.84C172.26 94.7553 186.343 75.587 186.343 75.587L179.577 76.7738L180.323 67.7254H170.551L164.241 55.346L153.356 57.8815L151.515 48.1868L138.193 65.3528C139.55 68.551 145.951 72.8457 155.644 72.8457C163.133 72.8457 167.441 75.9526 164.241 79.0594C161.681 81.5448 159.394 85.9435 158.571 87.8317C157.169 91.5008 157.035 98.84 167.716 98.84Z" fill="#242938"/>
<path d="M158.659 93.3431C160.577 94.7687 163.716 93.7958 165.672 91.17C167.627 88.5442 167.658 85.2598 165.741 83.8341C163.824 82.4084 160.684 83.3813 158.729 86.0072C156.773 88.633 156.742 91.9174 158.659 93.3431Z" fill="#AD5B5B"/>
<path d="M159.457 88.3537C160.303 87.2997 162.419 85.8161 163.748 85.6282" stroke="#242938" stroke-width="2.5" stroke-linecap="round"/>
<path d="M162.605 86.1799C163.014 86.7895 163.438 88.1249 163.319 88.8438" stroke="#242938" stroke-width="2.5" stroke-linecap="round"/>
<path d="M75.1662 77.1245C71.333 82.8782 73.1528 87.6688 74.5419 89.3443L74.3393 91.4403C81.7399 92.1036 97.4764 93.9858 101.215 96.2131C101.585 94.8648 101.959 93.5175 102.297 92.3372C103.559 87.9174 114.085 79.0689 115.188 76.9378C116.293 74.8068 116.547 73.2809 115.215 72.3113C114.148 71.5356 108.063 73.955 105.154 75.2617L107.969 67.3664C109.179 62.9625 111.127 53.4933 109.237 50.8472C107.348 48.2012 104.902 52.4882 103.915 54.9625C104.36 53.792 104.933 50.9348 103.663 48.8704C102.394 46.806 99.5134 50.5922 98.2307 52.7434C98.4904 51.1933 98.5581 48.0177 96.7549 47.7165C94.9518 47.4152 92.4372 53.4188 91.4053 56.4583L91.7824 54.2058C92.1466 52.474 92.687 48.7997 91.9307 47.9564C90.9853 46.9023 89.6639 48.1006 87.6985 52.2539C85.7332 56.4072 79.9566 69.9327 75.1662 77.1245Z" fill="#D58B8B"/>
<path d="M103.832 75.5635C101.229 76.2244 95.0647 78.551 91.2227 82.5702" stroke="#242938" stroke-width="2.5" stroke-linecap="round"/>
<path d="M99.4495 66.4668L103.248 56.7182M88.6875 64.669L90.7872 58.3716L88.6875 64.669ZM93.5595 65.4828L97.5041 54.8623L93.5595 65.4828Z" stroke="#242938" stroke-width="2.5" stroke-linecap="round"/>
<path d="M227.273 224.108C228.174 223.142 227.789 219.443 227.413 217.273C237.591 222.354 241.82 219.967 249.715 218.158C249.796 220.436 249.768 224.59 249.575 226.52C249.333 228.932 247.481 240.993 244.261 243.406C241.04 245.818 235.324 252.813 233.392 255.949C231.846 258.458 227.917 263.213 226.145 265.277C224.885 266.268 222.055 267.882 220.832 266.403C219.609 264.923 221.664 259.729 222.845 257.316C221.288 259.46 217.708 263.845 215.84 264.231C212.104 264.874 213.8 259.299 215.116 256.431C213.934 257.933 210.961 260.838 208.513 260.453C206.066 260.066 207.172 255.681 208.031 253.537C207.091 254.448 204.988 256.014 204.085 254.985C202.958 253.698 203.441 250.883 204.085 248.391C204.6 246.397 207.789 240.752 209.319 238.179C208.192 238.662 205.905 239.337 205.777 238.179C205.615 236.732 209.56 231.988 213.988 229.656C218.416 227.323 226.145 225.314 227.273 224.108Z" fill="#D58B8B"/>
<path d="M222.827 257.652C223.9 255.846 226.256 252.022 227.093 251.18M208.982 252.232C209.976 250.587 212.556 246.764 214.939 244.627L208.982 252.232ZM216.388 255.387C217.541 253.527 220.332 249.287 222.264 247.216L216.388 255.387Z" stroke="#242938" stroke-width="2.5" stroke-linecap="round"/>
<path d="M210.275 237.169C211.57 235.734 215.113 232.392 218.932 230.507" stroke="#242938" stroke-width="2.5" stroke-linecap="round"/>
<path d="M45.8029 115.847L45.6237 115.629H45.3417H30.3231C24.0695 115.629 19 110.563 19 104.314C19 98.0651 24.0695 93 30.3231 93H46.8839C53.1379 93 58.207 98.0651 58.207 104.314V107.764C58.207 112.107 54.6823 115.629 50.3357 115.629H49.6501L49.7446 116.307L50.4671 121.514L45.8029 115.847Z" stroke="#242938" stroke-width="2.5"/>
</svg>
