<svg width="452" height="410" viewBox="0 0 452 410" fill="none" xmlns="http://www.w3.org/2000/svg">
<path d="M115 232V302.202H152.782V324H190" stroke="#242938" stroke-width="1.2" stroke-linecap="round"/>
<path d="M136 254C139.866 254 143 250.642 143 246.5C143 242.358 139.866 239 136 239C132.134 239 129 242.358 129 246.5C129 250.642 132.134 254 136 254Z" fill="#242938"/>
<path d="M155.5 254C159.642 254 163 250.642 163 246.5C163 242.358 159.642 239 155.5 239C151.358 239 148 242.358 148 246.5C148 250.642 151.358 254 155.5 254Z" fill="#242938"/>
<path d="M174 254C177.866 254 181 250.642 181 246.5C181 242.358 177.866 239 174 239C170.134 239 167 242.358 167 246.5C167 250.642 170.134 254 174 254Z" fill="#242938"/>
<path d="M325 204H183V286H325V204Z" fill="white"/>
<path d="M351.403 360.822L351.21 360.585H350.907H239.053C216.381 360.585 198 342.13 198 319.362V266.223C198 243.457 216.381 225 239.053 225H385.947C408.621 225 427 243.457 427 266.223V319.362C427 342.13 408.619 360.585 385.947 360.585H379.372H378.636L378.737 361.318L384.197 401L351.403 360.822Z" stroke="#242938" stroke-width="1.2"/>
<path d="M322.062 390.814L285.558 377.523L278.936 395.709L315.441 409L322.062 390.814Z" stroke="#242938" stroke-width="1.2"/>
<path d="M169.87 13.4235L119.146 33.2708L129.034 58.5409L179.758 38.6936L169.87 13.4235Z" stroke="#242938" stroke-width="1.2"/>
<path d="M299.149 395L285 378L322 390.99L299.149 395Z" fill="#242938"/>
<path d="M149.642 39.0627L119 34.2898L169.967 13.6675L149.642 39.0627Z" fill="#242938"/>
<path d="M303.765 310.623C308.581 306.71 308.233 302.576 307.457 301L373.752 316.878C373.939 319.632 374.201 326.614 373.752 332.516C373.302 338.418 361.419 357.965 355.533 367L350.717 361.146H283.7L265 350.159C265 348.929 266.316 344.321 271.581 335.724C278.163 324.978 297.746 315.515 303.765 310.623Z" fill="#242938"/>
<path d="M239.328 160.06L239.972 169L262.718 167.944C262.889 166.144 263.324 161.773 263.685 158.694C264.136 154.845 271.932 146.03 272.577 144.105C273.221 142.181 273.221 140.877 271.932 140.256C270.901 139.759 266.004 142.615 263.685 144.105L264.973 137.152C265.382 133.324 265.695 125.183 263.685 123.246C261.674 121.309 260.183 125.212 259.689 127.405C259.905 126.371 259.986 123.916 258.594 122.377C257.202 120.837 255.265 124.384 254.47 126.35C254.47 125.025 254.071 122.377 252.473 122.377C250.875 122.377 249.573 127.716 249.122 130.385V128.461C249.186 126.971 249.122 123.842 248.349 123.246C247.382 122.501 246.416 123.68 245.32 127.405C244.225 131.13 241.196 143.174 238.103 149.817C235.629 155.131 237.888 158.859 239.328 160.06Z" fill="#AD5B5B"/>
<path d="M261 145C259.257 145.841 255.217 148.419 253 152" stroke="#242938" stroke-width="1.2" stroke-linecap="round"/>
<path d="M420.145 338.863C420.944 338.005 420.477 333.93 420.145 332L439.905 332.786C439.977 334.812 440.077 339.292 439.905 341.008C439.691 343.153 438.051 353.877 435.197 356.021C432.344 358.166 427.279 364.386 425.566 367.174C424.197 369.405 420.715 373.633 419.146 375.468C418.029 376.35 415.522 377.784 414.438 376.468C413.353 375.153 415.175 370.535 416.221 368.39C414.841 370.296 411.67 374.195 410.015 374.538C406.704 375.11 408.207 370.153 409.373 367.603C408.327 368.937 405.691 371.521 403.523 371.178C401.354 370.835 402.334 366.936 403.095 365.03C402.263 365.84 400.398 367.232 399.599 366.316C398.6 365.173 399.028 362.67 399.599 360.454C400.056 358.681 402.881 353.662 404.236 351.374C403.237 351.803 401.211 352.404 401.097 351.374C400.955 350.088 404.45 345.869 408.374 343.796C412.297 341.723 419.146 339.935 420.145 338.863Z" fill="#AD5B5B"/>
<path d="M404 364.006C404.932 362.49 407.355 358.967 409.591 357M410.951 366.913C412.035 365.199 414.653 361.293 416.467 359.385M416.996 369C418.003 367.335 420.214 363.812 421 363.037" stroke="#242938" stroke-width="1.2" stroke-linecap="round"/>
<path d="M406 350C407.346 348.923 411.03 346.414 415 345" stroke="#242938" stroke-width="1.2" stroke-linecap="round"/>
<path d="M269.758 175.292C269.278 171.297 267.278 168.101 267.278 168.101C264.558 164.505 242.605 166.343 238.317 167.621C232.957 169.219 235.437 177.689 236.557 182.243C237.677 186.797 243.837 217.957 247.677 226.746C250.75 233.777 262.025 243.205 267.278 247.04C280.345 255.616 306.702 273.678 307.598 277.321C308.494 280.964 304.398 292.901 302.238 298.414C307.598 307.522 318.627 309.6 332.719 309.6C356.559 309.6 367.386 318.521 379.039 322.223C382.159 318.388 379.039 291.543 381.679 286.589C384.319 281.635 411.52 289.545 415.76 294.099C420 298.654 415.52 326.059 417.04 330.293C418.56 334.528 416.64 337.164 422.4 337.164C438.4 339.593 448.8 336.153 452 334.128C451.467 333.222 449.792 324.812 447.36 298.414C444.32 265.416 441.52 268.372 436.96 265.017C432.31 261.595 400.399 250.875 395.039 249.756C389.679 248.638 369.759 245.921 362.879 243.205C355.999 240.488 324.878 234.016 321.838 230.581C318.798 227.145 286.702 216.587 277.678 202.936C272.238 194.707 270.027 177.529 269.758 175.292Z" fill="#EC5B60"/>
<path d="M248 139L248.949 132.516M252.542 139L254.508 128M258.034 139L260 128.874" stroke="#242938" stroke-width="1.2" stroke-linecap="round"/>
<path d="M346.975 203C339.728 203 336.337 204.825 331.018 213.828C328.319 218.398 326.78 225.412 329.222 227.74C330.754 229.2 334.392 230.787 338.132 231.959L337.135 234.855L331.018 255L359.676 241.402C357.98 240.767 354.436 240.306 354.224 239.198C354.011 238.091 356.396 232.503 357.615 229.847C360.919 227.034 363 222.93 363 218.361C363 209.877 355.827 203 346.975 203Z" fill="#AD5B5B"/>
<path d="M333 220.292L337 216L336.52 222L333 220.292Z" fill="#804141"/>
<path d="M336 217L333 219.82L335.776 221" stroke="#242938" stroke-width="1.2" stroke-linecap="round"/>
<path d="M336 225.096L332 223C332.048 223.72 332.49 225.082 333.168 225.61C334.29 226.483 335.294 225.702 336 225.096Z" stroke="#242938" stroke-width="1.2"/>
<path d="M332.33 214.748C332.859 215.146 333.611 215.04 334.009 214.51C334.407 213.981 334.301 213.229 333.771 212.831C333.242 212.433 332.49 212.539 332.092 213.069C331.694 213.598 331.8 214.35 332.33 214.748Z" fill="#242938"/>
<path d="M340.319 218.738C340.849 219.136 341.601 219.029 341.999 218.5C342.397 217.97 342.29 217.218 341.761 216.82C341.231 216.422 340.479 216.529 340.081 217.058C339.683 217.588 339.79 218.34 340.319 218.738Z" fill="#242938"/>
<path d="M341 214C342.064 214.062 343.38 214.44 344 215" stroke="#242938" stroke-width="1.2" stroke-linecap="round"/>
<path d="M335 211C334.231 210.393 332.975 209.906 332 210.015" stroke="#242938" stroke-width="1.2" stroke-linecap="round"/>
<path d="M340.262 223.183C340.807 223.593 341.581 223.484 341.991 222.938C342.401 222.393 342.291 221.619 341.746 221.209C341.201 220.799 340.426 220.909 340.017 221.454C339.607 221.999 339.716 222.774 340.262 223.183Z" fill="#804141"/>
<path d="M330.624 218.366C331.169 218.776 331.944 218.666 332.354 218.121C332.764 217.575 332.654 216.801 332.108 216.391C331.563 215.981 330.789 216.091 330.379 216.636C329.969 217.181 330.079 217.956 330.624 218.366Z" fill="#804141"/>
<path d="M358.145 230C361.553 227.171 363.7 223.043 363.7 218.448C363.7 217.363 363.58 216.304 363.353 215.282C373.098 217.435 390.109 217.435 383.523 206.798C378.362 198.46 368.844 207.094 362.191 211.991C359.575 206.683 353.833 203 347.169 203C342.314 203 339.134 203.774 336 206.798C337.017 209.015 341.82 211.991 349.09 211.991C354.708 211.991 357.939 214.143 355.537 216.296C353.618 218.017 351.902 221.065 351.286 222.373C350.234 224.916 350.133 230 358.145 230Z" fill="#242938"/>
<path d="M350.686 226.32C352.015 227.309 354.192 226.634 355.547 224.812C356.903 222.99 356.925 220.711 355.595 219.722C354.266 218.733 352.089 219.408 350.734 221.23C349.378 223.051 349.356 225.33 350.686 226.32Z" fill="#804141"/>
<path d="M351 223C351.591 222.226 353.07 221.139 354 221" stroke="#242938" stroke-width="1.2" stroke-linecap="round"/>
<path d="M353 221C353 221.457 353 222.461 353 223" stroke="#242938" stroke-width="1.2" stroke-linecap="round"/>
<path d="M264 181.993C264 185.311 266.722 188 270.08 188C270.75 188 271.397 187.892 272 187.695L269.68 176C266.509 176.204 264 178.809 264 181.993Z" fill="#FEFEFE"/>
<path d="M257 230C260.866 230 264 227.09 264 223.5C264 219.91 260.866 217 257 217C253.134 217 250 219.91 250 223.5C250 227.09 253.134 230 257 230Z" fill="#FEFEFE"/>
<path d="M319.5 246C323.09 246 326 243.09 326 239.5C326 235.91 323.09 233 319.5 233C315.91 233 313 235.91 313 239.5C313 243.09 315.91 246 319.5 246Z" fill="#FEFEFE"/>
<path d="M322.5 290C326.09 290 329 286.866 329 283C329 279.134 326.09 276 322.5 276C318.91 276 316 279.134 316 283C316 286.866 318.91 290 322.5 290Z" fill="#FEFEFE"/>
<path d="M355.5 304C351.357 304 348 307.122 348 311.077C351.75 311.845 358.982 313.721 361.839 315C362.543 313.908 363 312.539 363 311.163C363 307.208 359.643 304 355.5 304Z" fill="#FEFEFE"/>
<path d="M374.5 274C378.09 274 381 271.09 381 267.5C381 263.91 378.09 261 374.5 261C370.91 261 368 263.91 368 267.5C368 271.09 370.91 274 374.5 274Z" fill="#FEFEFE"/>
<path d="M415.334 265.997C418.921 266.097 421.906 263.055 421.998 259.207C422.007 258.84 421.987 258.561 421.945 258.209L410.9 254C409.767 255.218 409.047 256.99 409.002 258.846C408.909 262.697 411.745 265.898 415.334 265.997Z" fill="#FEFEFE"/>
<path d="M440 328C443.866 328 447 324.866 447 321C447 317.134 443.866 314 440 314C436.134 314 433 317.134 433 321C433 324.866 436.134 328 440 328Z" fill="#FEFEFE"/>
<path d="M75.9298 220.458L76.1227 220.223H76.4268H182.884C205.592 220.223 224 201.82 224 179.117V131.106C224 108.404 205.591 89.9998 182.884 89.9998H44.1163C21.4084 89.9998 3 108.404 3 131.106V179.117C3 201.82 21.4084 220.223 44.1163 220.223H48.9507H49.688L49.587 220.954L44.3267 259L75.9298 220.458Z" stroke="#242938" stroke-width="1.2"/>
<path d="M140 220.843L130.244 198L49.2657 216.275L43 261L75.7563 221.004L140 220.843Z" fill="#242938"/>
<path d="M201.57 114.293L197.158 123L176 112.45C176.601 110.571 178.048 106.002 179.016 102.76C180.224 98.7072 176.567 86.6035 176.773 84.4024C176.98 82.2015 177.533 80.8926 179.022 80.807C180.213 80.7386 183.65 85.6488 185.219 88.1126L186.952 80.5942C188.193 76.5803 191.357 68.2761 194.09 67.1704C196.824 66.0645 196.58 70.6048 196.116 73.0131C196.352 71.8847 197.319 69.3866 199.296 68.4217C201.272 67.4567 201.604 71.8259 201.524 74.1312C202.086 72.8016 203.593 70.309 205.11 70.9757C206.629 71.6424 205.594 77.5457 204.887 80.414L205.706 78.4819C206.278 76.9591 207.67 73.8447 208.658 73.5689C209.894 73.2242 210.309 74.8118 209.766 79.0085C209.222 83.2052 206.977 96.5604 207.09 104.52C207.18 110.888 203.449 113.689 201.57 114.293Z" fill="#AD5B5B"/>
<path d="M186 88.9998C187.883 90.6992 191.92 95.2785 193 99.9998" stroke="#242938" stroke-width="1.2" stroke-linecap="round"/>
<path d="M194 84.146L195.797 74.9998M202.585 87.9998L204 82.2624L202.585 87.9998ZM198.699 86.2551L200.795 76.3846L198.699 86.2551Z" stroke="#242938" stroke-width="1.2" stroke-linecap="round"/>
<path d="M47.1484 115.398C57.2792 107.96 87.9174 100.387 101.97 97.5297C108.462 96.1301 121.206 97.5297 125.614 101.411C130.022 105.291 138.759 124.696 142.926 127.041C147.094 129.386 148.697 129.951 158.155 124.696C167.612 119.441 170.979 104.321 179.635 103.028C186.56 101.993 198.763 113.323 204 119.117C202.958 120.357 200.409 123.677 198.55 127.041C196.226 131.245 180.677 151.377 170.979 161.161C163.22 168.987 141.03 168.141 130.904 166.739C131.412 168.41 133.373 173.175 137.156 178.867C140.939 184.559 141.564 188.678 141.404 190.025C123.851 212.502 72.5556 214.442 69.029 214.442C65.5025 214.442 32.0002 222.447 11.0813 214.442C-9.83762 206.438 4.74952 179.595 7.63489 174.178C10.5203 168.761 34.4848 124.696 47.1484 115.398Z" fill="#242938"/>
<path d="M91 160.11C94.7766 162.073 99.2179 162.528 103.347 161.374C107.475 160.22 110.953 157.552 113.015 153.956C115.078 150.361 115.555 146.134 114.343 142.204C113.13 138.274 110.328 134.963 106.551 133L103.536 138.256C105.848 139.458 107.564 141.485 108.307 143.891C109.049 146.297 108.756 148.885 107.494 151.087C106.231 153.288 104.102 154.92 101.574 155.628C99.0464 156.335 96.3272 156.056 94.015 154.855L91 160.11Z" fill="#587291"/>
<path d="M45.7648 204C46.4808 199.991 45.5468 195.866 43.1683 192.534C40.7899 189.201 37.1617 186.934 33.0819 186.231C29.0024 185.527 24.8053 186.445 21.4143 188.782C18.0233 191.119 15.7159 194.685 15 198.694L20.9645 199.723C21.4029 197.269 22.8154 195.086 24.8917 193.654C26.9678 192.224 29.5375 191.661 32.0352 192.093C34.533 192.523 36.7544 193.911 38.2105 195.951C39.6668 197.992 40.2386 200.516 39.8003 202.971L45.7648 204Z" fill="#587291"/>
<path d="M155.636 129C154.44 132.993 154.945 137.279 157.039 140.915C159.135 144.552 162.648 147.24 166.807 148.388C170.967 149.538 175.43 149.053 179.217 147.041C183.004 145.03 185.804 141.656 187 137.663L180.92 135.983C180.188 138.428 178.473 140.494 176.154 141.725C173.836 142.957 171.102 143.254 168.556 142.55C166.01 141.847 163.858 140.201 162.576 137.975C161.293 135.748 160.983 133.124 161.717 130.679L155.636 129Z" fill="#587291"/>
<path d="M105.491 214C107.753 210.528 108.527 206.311 107.643 202.275C106.759 198.238 104.288 194.714 100.775 192.479C97.2623 190.244 92.9947 189.478 88.911 190.353C84.8274 191.225 81.2622 193.668 79 197.139L84.1359 200.408C85.521 198.284 87.7038 196.788 90.204 196.252C92.7043 195.718 95.3171 196.186 97.4678 197.555C99.6188 198.924 101.131 201.082 101.673 203.552C102.214 206.023 101.74 208.606 100.355 210.732L105.491 214Z" fill="#587291"/>
<path d="M113.566 111.502C117.542 112.542 121.762 111.937 125.299 109.82C126.696 108.983 127.942 107.937 129 106.729C129 106.729 127.757 104.794 127.012 103.778C126.304 102.813 125.299 101.654 125.299 101.654C124.517 102.835 123.479 103.836 122.248 104.573C120.083 105.87 117.499 106.24 115.065 105.603C112.63 104.966 110.545 103.374 109.268 101.177C108.52 99.8918 108.085 98.4608 107.978 96.9998C105.951 96.9998 103.411 97.2656 102 97.558C102.188 99.9066 102.895 102.205 104.098 104.273C106.184 107.862 109.59 110.462 113.566 111.502Z" fill="#587291"/>
<path d="M36.7279 155.806C32.6038 156.455 28.3881 155.457 25.0083 153.034C23.8739 152.221 22.8649 151.27 22 150.21L25.5451 144.525C26.2315 145.954 27.274 147.206 28.5937 148.152C30.6631 149.636 33.244 150.247 35.7689 149.85C38.2939 149.452 40.5559 148.081 42.0574 146.036C43.5588 143.992 44.1768 141.442 43.7752 138.947L49.8045 138C50.4604 142.075 49.4511 146.24 46.9987 149.579C44.5463 152.919 40.8518 155.159 36.7279 155.806Z" fill="#587291"/>
<path d="M129 163C122.77 151.595 122.475 138.885 119 128" stroke="#242938" stroke-width="1.2" stroke-linecap="round"/>
<path d="M64 135C63.4278 142.03 55.7461 172.023 53 181" stroke="#242938" stroke-width="1.2" stroke-linecap="round"/>
<path d="M42 180C49.0015 181.001 65.2037 183.805 74 187" stroke="#242938" stroke-width="1.2" stroke-linecap="round"/>
<path d="M73.6427 192.677C65.6087 196.633 61.6953 208.58 65.4152 211.557L76.4436 213.45C84.3357 214.034 101.328 215.161 106.159 214.98C110.99 214.8 111.119 212.623 110.579 211.557C111.484 211.557 113.573 211.404 114.693 210.791C117.004 209.637 116.268 207.787 115.612 207.005C116.108 207.005 118.021 207.005 118.807 205.247C119.821 202.976 116.604 201.569 114.693 201.463C115.247 200.758 115.737 199.494 113.949 198.49C110.579 196.595 102.92 195.741 100.12 195.741C99.7346 193.687 96.8958 192.843 95.5245 192.677C90.1124 191.536 81.739 192.047 73.6427 192.677Z" fill="#AD5B5B"/>
<path d="M98 196C96.0246 195.538 93.8667 194.881 92 195.018" stroke="#242938" stroke-width="1.2" stroke-linecap="round"/>
<path d="M113 202C109.524 201.044 102.024 199.633 98 200.088" stroke="#242938" stroke-width="1.2" stroke-linecap="round"/>
<path d="M113 205C109.988 204.522 103.488 203.816 100 204.044" stroke="#242938" stroke-width="1.2" stroke-linecap="round"/>
<path d="M109 210C106.451 209.045 100.951 207.632 98 208.088" stroke="#242938" stroke-width="1.2" stroke-linecap="round"/>
<path d="M82.1085 66.9998C88.9417 66.9998 92.1389 68.8497 97.1543 77.9717C99.7 82.6018 101.15 89.7092 98.8469 92.0695C97.4037 93.5483 93.974 95.1561 90.4464 96.3436L91.3867 99.2777C91.3867 99.2777 95.9902 102.369 92.7439 107.283C86.2867 117.059 74.2317 109.52 75.2752 103.679C75.4759 102.557 73.2274 96.895 72.078 94.2046C68.9628 91.3535 67 87.1952 67 82.5647C67 73.9685 73.7644 66.9998 82.1085 66.9998Z" fill="#AD5B5B"/>
<path d="M96 84.5759L92 81L92.4799 86L96 84.5759Z" fill="#804141"/>
<path d="M92 80.9998L96 84.5261L92.2995 85.9998" stroke="#242938" stroke-width="1.2" stroke-linecap="round"/>
<path d="M93 89.0965L97 86.9998C96.9516 87.7196 96.5105 89.0826 95.8315 89.6105C94.7097 90.4826 93.7059 89.7014 93 89.0965Z" stroke="#242938" stroke-width="1.2"/>
<path d="M96.7933 79.258C96.2637 79.6561 95.5118 79.5495 95.1137 79.02C94.7156 78.4904 94.8222 77.7385 95.3517 77.3404C95.8813 76.9423 96.6332 77.0489 97.0313 77.5784C97.4294 78.108 97.3228 78.86 96.7933 79.258Z" fill="#242938"/>
<path d="M88.804 83.247C88.2745 83.6451 87.5225 83.5385 87.1244 83.009C86.7264 82.4795 86.8329 81.7275 87.3625 81.3294C87.892 80.9313 88.644 81.0379 89.0421 81.5675C89.4401 82.097 89.3335 82.849 88.804 83.247Z" fill="#242938"/>
<path d="M87 77.9998C85.937 78.0624 84.6212 78.4409 84 78.9998" stroke="#242938" stroke-width="1.2" stroke-linecap="round"/>
<path d="M93 74.9998C93.7688 74.3916 95.0241 73.9062 96 74.0151" stroke="#242938" stroke-width="1.2" stroke-linecap="round"/>
<path d="M88.8594 87.6938C88.3141 88.1037 87.5397 87.9939 87.1298 87.4486C86.7199 86.9033 86.8296 86.129 87.3749 85.719C87.9202 85.3091 88.6946 85.4189 89.1045 85.9642C89.5145 86.5095 89.4047 87.2838 88.8594 87.6938Z" fill="#804141"/>
<path d="M98.4971 82.8752C97.9518 83.2851 97.1774 83.1753 96.7675 82.63C96.3576 82.0847 96.4673 81.3104 97.0126 80.9004C97.5579 80.4905 98.3323 80.6003 98.7422 81.1456C99.1522 81.6909 99.0424 82.4652 98.4971 82.8752Z" fill="#804141"/>
<path d="M72.0149 93.9998C68.9387 91.1701 67.0004 87.0432 67.0004 82.4475C67.0004 81.3626 66.9787 80.4015 67.2458 79.0738C67.5127 77.7463 68.3626 75.9899 68.3626 75.9899C70.7243 70.6832 75.9066 66.9998 81.9198 66.9998C86.3026 66.9998 89.1707 67.7744 92 70.7984C91.0819 73.0142 86.7483 75.9899 80.1862 75.9899C75.1173 75.9899 72.2003 78.1424 74.3671 80.295C76.1005 82.017 77.6481 85.0643 78.2053 86.3728C79.1546 88.9151 79.2456 93.9998 72.0149 93.9998Z" fill="#242938"/>
<path d="M78.4385 90.8296C77.1092 91.8188 74.9325 91.1438 73.5767 89.3219C72.2208 87.5 72.1993 85.2211 73.5286 84.2318C74.8579 83.2426 77.0347 83.9176 78.3905 85.7396C79.7463 87.5615 79.7678 89.8404 78.4385 90.8296Z" fill="#804141"/>
<path d="M78 86.9998C77.4086 86.2262 75.9292 85.1381 75 84.9998" stroke="#242938" stroke-width="1.2" stroke-linecap="round"/>
<path d="M76 85.9998C75.4438 86.2284 74.8662 86.7301 75.0275 86.9998" stroke="#242938" stroke-width="1.2" stroke-linecap="round"/>
</svg>
