<svg width="92" height="92" viewBox="0 0 92 92" fill="none" xmlns="http://www.w3.org/2000/svg">
<path d="M46 0C20.608 0 0 20.608 0 46C0 71.392 20.608 92 46 92C71.392 92 92 71.392 92 46C92 20.608 71.392 0 46 0Z" fill="#EAECFB"/>
<path d="M21.2012 67H20L22.8828 59.4414H23.8379L26.7207 67H25.5195L24.8574 65.2598H21.8574L21.2012 67ZM24.4414 64.1816L23.3574 61.1816L22.2793 64.1816H24.4414ZM29.7148 67.0586C29.3555 67.0586 29.0195 66.9922 28.707 66.8594C28.3945 66.7227 28.1191 66.5332 27.8809 66.291C27.6465 66.0449 27.4629 65.7539 27.3301 65.418C27.2012 65.082 27.1367 64.709 27.1367 64.2988C27.1367 63.8926 27.2012 63.5215 27.3301 63.1855C27.4629 62.8496 27.6465 62.5605 27.8809 62.3184C28.1191 62.0723 28.3945 61.8809 28.707 61.7441C29.0195 61.6074 29.3555 61.5391 29.7148 61.5391C29.9727 61.5391 30.1934 61.5723 30.377 61.6387C30.5605 61.7012 30.7168 61.7676 30.8457 61.8379C30.9902 61.9277 31.1133 62.0293 31.2148 62.1426V59.4414H32.293V67H31.5137L31.2734 66.4609C31.168 66.5742 31.0449 66.6738 30.9043 66.7598C30.7754 66.8379 30.6133 66.9082 30.418 66.9707C30.2227 67.0293 29.9883 67.0586 29.7148 67.0586ZM29.7734 62.5586C29.5664 62.5586 29.3691 62.6016 29.1816 62.6875C28.9941 62.7695 28.8281 62.8887 28.6836 63.0449C28.5391 63.2012 28.4238 63.3867 28.3379 63.6016C28.2559 63.8125 28.2148 64.0449 28.2148 64.2988C28.2148 64.5566 28.2559 64.791 28.3379 65.002C28.4238 65.2129 28.5391 65.3965 28.6836 65.5527C28.8281 65.709 28.9941 65.8301 29.1816 65.916C29.3691 65.998 29.5664 66.0391 29.7734 66.0391C29.9805 66.0391 30.1777 65.998 30.3652 65.916C30.5566 65.8301 30.7227 65.709 30.8633 65.5527C31.0078 65.3965 31.1211 65.2129 31.2031 65.002C31.2891 64.791 31.332 64.5566 31.332 64.2988C31.332 64.041 31.2891 63.8066 31.2031 63.5957C31.1211 63.3848 31.0078 63.2012 30.8633 63.0449C30.7227 62.8887 30.5566 62.7695 30.3652 62.6875C30.1777 62.6016 29.9805 62.5586 29.7734 62.5586ZM36.0781 67.0586C35.7188 67.0586 35.3828 66.9922 35.0703 66.8594C34.7578 66.7227 34.4824 66.5332 34.2441 66.291C34.0098 66.0449 33.8262 65.7539 33.6934 65.418C33.5645 65.082 33.5 64.709 33.5 64.2988C33.5 63.8926 33.5645 63.5215 33.6934 63.1855C33.8262 62.8496 34.0098 62.5605 34.2441 62.3184C34.4824 62.0723 34.7578 61.8809 35.0703 61.7441C35.3828 61.6074 35.7188 61.5391 36.0781 61.5391C36.3359 61.5391 36.5566 61.5723 36.7402 61.6387C36.9238 61.7012 37.0801 61.7676 37.209 61.8379C37.3535 61.9277 37.4766 62.0293 37.5781 62.1426V59.4414H38.6562V67H37.877L37.6367 66.4609C37.5312 66.5742 37.4082 66.6738 37.2676 66.7598C37.1387 66.8379 36.9766 66.9082 36.7812 66.9707C36.5859 67.0293 36.3516 67.0586 36.0781 67.0586ZM36.1367 62.5586C35.9297 62.5586 35.7324 62.6016 35.5449 62.6875C35.3574 62.7695 35.1914 62.8887 35.0469 63.0449C34.9023 63.2012 34.7871 63.3867 34.7012 63.6016C34.6191 63.8125 34.5781 64.0449 34.5781 64.2988C34.5781 64.5566 34.6191 64.791 34.7012 65.002C34.7871 65.2129 34.9023 65.3965 35.0469 65.5527C35.1914 65.709 35.3574 65.8301 35.5449 65.916C35.7324 65.998 35.9297 66.0391 36.1367 66.0391C36.3438 66.0391 36.541 65.998 36.7285 65.916C36.9199 65.8301 37.0859 65.709 37.2266 65.5527C37.3711 65.3965 37.4844 65.2129 37.5664 65.002C37.6523 64.791 37.6953 64.5566 37.6953 64.2988C37.6953 64.041 37.6523 63.8066 37.5664 63.5957C37.4844 63.3848 37.3711 63.2012 37.2266 63.0449C37.0859 62.8887 36.9199 62.7695 36.7285 62.6875C36.541 62.6016 36.3438 62.5586 36.1367 62.5586ZM45.7402 59.4414C46.0684 59.4414 46.377 59.5059 46.666 59.6348C46.959 59.7598 47.2129 59.9316 47.4277 60.1504C47.6465 60.3652 47.8184 60.6191 47.9434 60.9121C48.0723 61.2012 48.1367 61.5098 48.1367 61.8379C48.1367 62.166 48.0723 62.4766 47.9434 62.7695C47.8184 63.0625 47.6465 63.3164 47.4277 63.5312C47.2129 63.7461 46.959 63.918 46.666 64.0469C46.377 64.1758 46.0684 64.2402 45.7402 64.2402H44.1172V67H42.9805V59.4414H45.7402ZM45.7402 63.1621C45.9082 63.1621 46.0664 63.1289 46.2148 63.0625C46.3672 62.9922 46.502 62.8965 46.6191 62.7754C46.7363 62.6543 46.8281 62.5137 46.8945 62.3535C46.9648 62.1934 47 62.0215 47 61.8379C47 61.6621 46.9648 61.4941 46.8945 61.334C46.8281 61.1738 46.7363 61.0352 46.6191 60.918C46.502 60.7969 46.3672 60.7012 46.2148 60.6309C46.0664 60.5566 45.9082 60.5195 45.7402 60.5195H44.1172V63.1621H45.7402ZM51.916 61.5391C52.2129 61.5391 52.4922 61.5977 52.7539 61.7148C53.0195 61.832 53.25 61.9922 53.4453 62.1953C53.6445 62.3984 53.7988 62.6445 53.9082 62.9336C54.0215 63.2188 54.0781 63.5352 54.0781 63.8828V67H53V63.8828C53 63.707 52.9648 63.5391 52.8945 63.3789C52.8281 63.2188 52.7363 63.0781 52.6191 62.957C52.5059 62.8359 52.373 62.7402 52.2207 62.6699C52.0684 62.5957 51.9082 62.5586 51.7402 62.5586C51.5566 62.5586 51.3848 62.5957 51.2246 62.6699C51.0645 62.7402 50.9238 62.8359 50.8027 62.957C50.6816 63.0781 50.5859 63.2188 50.5156 63.3789C50.4492 63.5352 50.416 63.7031 50.416 63.8828V67H49.3379V59.4414H50.416V62.1426C50.5293 62.0293 50.6582 61.9277 50.8027 61.8379C50.9316 61.7676 51.0898 61.7012 51.2773 61.6387C51.4648 61.5723 51.6777 61.5391 51.916 61.5391ZM59.2344 64.2988C59.2344 64.041 59.1914 63.8066 59.1055 63.5957C59.0234 63.3848 58.9141 63.2012 58.7773 63.0449C58.6406 62.8887 58.4805 62.7695 58.2969 62.6875C58.1133 62.6016 57.9258 62.5586 57.7344 62.5586C57.543 62.5586 57.3555 62.6016 57.1719 62.6875C56.9883 62.7695 56.8281 62.8887 56.6914 63.0449C56.5547 63.2012 56.4434 63.3867 56.3574 63.6016C56.2754 63.8125 56.2344 64.0449 56.2344 64.2988C56.2344 64.5566 56.2754 64.791 56.3574 65.002C56.4434 65.2129 56.5547 65.3965 56.6914 65.5527C56.8281 65.709 56.9883 65.8301 57.1719 65.916C57.3555 65.998 57.543 66.0391 57.7344 66.0391C57.9258 66.0391 58.1133 65.998 58.2969 65.916C58.4805 65.8301 58.6406 65.709 58.7773 65.5527C58.9141 65.3965 59.0234 65.2129 59.1055 65.002C59.1914 64.791 59.2344 64.5566 59.2344 64.2988ZM60.3125 64.2988C60.3125 64.7051 60.2461 65.0781 60.1133 65.418C59.9844 65.7539 59.8008 66.0449 59.5625 66.291C59.3281 66.5332 59.0547 66.7227 58.7422 66.8594C58.4297 66.9922 58.0938 67.0586 57.7344 67.0586C57.375 67.0586 57.0391 66.9922 56.7266 66.8594C56.4141 66.7227 56.1387 66.5332 55.9004 66.291C55.666 66.0449 55.4824 65.7539 55.3496 65.418C55.2207 65.082 55.1562 64.709 55.1562 64.2988C55.1562 63.8926 55.2207 63.5215 55.3496 63.1855C55.4824 62.8496 55.666 62.5605 55.9004 62.3184C56.1387 62.0723 56.4141 61.8809 56.7266 61.7441C57.0391 61.6074 57.375 61.5391 57.7344 61.5391C58.0938 61.5391 58.4297 61.6074 58.7422 61.7441C59.0547 61.8809 59.3281 62.0723 59.5625 62.3184C59.8008 62.5605 59.9844 62.8496 60.1133 63.1855C60.2461 63.5215 60.3125 63.8926 60.3125 64.2988ZM63.0137 65.2012C63.0137 65.4395 63.0938 65.6387 63.2539 65.7988C63.4141 65.959 63.6133 66.0391 63.8516 66.0391C63.8906 66.0391 63.9316 66.0371 63.9746 66.0332C64.0215 66.0293 64.0645 66.0234 64.1035 66.0156C64.1426 66.0078 64.1797 65.9961 64.2148 65.9805V66.9414C64.168 66.9648 64.1113 66.9844 64.0449 67C63.9238 67.0391 63.7812 67.0586 63.6172 67.0586C63.3789 67.0586 63.1562 67.0156 62.9492 66.9297C62.7461 66.8398 62.5684 66.7148 62.416 66.5547C62.2637 66.3945 62.1445 66.2012 62.0586 65.9746C61.9766 65.748 61.9355 65.4902 61.9355 65.2012V62.6172H60.9746V61.5977H61.3965C61.6035 61.5977 61.7754 61.5312 61.9121 61.3984C62.0488 61.2617 62.1172 61.0898 62.1172 60.8828V60.1621H63.0137V61.5977H64.2148V62.6172H63.0137V65.2012ZM69.1367 64.2988C69.1367 64.041 69.0938 63.8066 69.0078 63.5957C68.9258 63.3848 68.8164 63.2012 68.6797 63.0449C68.543 62.8887 68.3828 62.7695 68.1992 62.6875C68.0156 62.6016 67.8281 62.5586 67.6367 62.5586C67.4453 62.5586 67.2578 62.6016 67.0742 62.6875C66.8906 62.7695 66.7305 62.8887 66.5938 63.0449C66.457 63.2012 66.3457 63.3867 66.2598 63.6016C66.1777 63.8125 66.1367 64.0449 66.1367 64.2988C66.1367 64.5566 66.1777 64.791 66.2598 65.002C66.3457 65.2129 66.457 65.3965 66.5938 65.5527C66.7305 65.709 66.8906 65.8301 67.0742 65.916C67.2578 65.998 67.4453 66.0391 67.6367 66.0391C67.8281 66.0391 68.0156 65.998 68.1992 65.916C68.3828 65.8301 68.543 65.709 68.6797 65.5527C68.8164 65.3965 68.9258 65.2129 69.0078 65.002C69.0938 64.791 69.1367 64.5566 69.1367 64.2988ZM70.2148 64.2988C70.2148 64.7051 70.1484 65.0781 70.0156 65.418C69.8867 65.7539 69.7031 66.0449 69.4648 66.291C69.2305 66.5332 68.957 66.7227 68.6445 66.8594C68.332 66.9922 67.9961 67.0586 67.6367 67.0586C67.2773 67.0586 66.9414 66.9922 66.6289 66.8594C66.3164 66.7227 66.041 66.5332 65.8027 66.291C65.5684 66.0449 65.3848 65.7539 65.252 65.418C65.123 65.082 65.0586 64.709 65.0586 64.2988C65.0586 63.8926 65.123 63.5215 65.252 63.1855C65.3848 62.8496 65.5684 62.5605 65.8027 62.3184C66.041 62.0723 66.3164 61.8809 66.6289 61.7441C66.9414 61.6074 67.2773 61.5391 67.6367 61.5391C67.9961 61.5391 68.332 61.6074 68.6445 61.7441C68.957 61.8809 69.2305 62.0723 69.4648 62.3184C69.7031 62.5605 69.8867 62.8496 70.0156 63.1855C70.1484 63.5215 70.2148 63.8926 70.2148 64.2988Z" fill="#010101"/>
<path fill-rule="evenodd" clip-rule="evenodd" d="M56.1605 26.1013V26.1013C55.4801 26.1013 54.8634 25.7109 54.5734 25.1007C54.0498 23.9966 53.3839 22.5855 52.9899 21.8174C52.4079 20.6751 51.4647 20.0104 50.1585 20.0014C50.1366 19.9995 41.6134 19.9995 41.5915 20.0014C40.2853 20.0104 39.3439 20.6751 38.7601 21.8174C38.3679 22.5855 37.702 23.9966 37.1784 25.1007C36.8884 25.7109 36.2699 26.1013 35.5913 26.1013V26.1013C31.9499 26.1013 29 29.0378 29 32.6608V43.4406C29 47.0617 31.9499 50 35.5913 50H56.1605C59.8001 50 62.75 47.0617 62.75 43.4406V32.6608C62.75 29.0378 59.8001 26.1013 56.1605 26.1013Z" stroke="#010101" stroke-width="1.5" stroke-linecap="round" stroke-linejoin="round"/>
<path fill-rule="evenodd" clip-rule="evenodd" d="M40.0764 37.4055C40.0745 40.589 42.6851 43.1931 45.8777 43.1913C49.0648 43.1877 51.6681 40.5944 51.6736 37.4182C51.6791 34.2293 49.0776 31.6306 45.8814 31.627C42.6669 31.6233 40.0508 34.2656 40.0764 37.4055Z" stroke="#010101" stroke-width="1.5" stroke-linecap="round" stroke-linejoin="round"/>
<path d="M54.8193 33.1573C54.6431 33.1393 54.469 33.0935 54.274 33.0154C54.0571 32.9195 53.8694 32.7974 53.6878 32.6139C53.3617 32.2685 53.1729 31.8169 53.1729 31.3511C53.1729 31.1036 53.2237 30.8583 53.3229 30.6362C53.4224 30.411 53.5403 30.2212 53.7533 30.0146C53.9154 29.8741 54.0814 29.7611 54.3083 29.6615C54.9813 29.3961 55.7818 29.5547 56.2821 30.0525C56.432 30.1995 56.5583 30.377 56.6284 30.5266L56.6699 30.6328C56.7707 30.8583 56.8215 31.1036 56.8215 31.3511C56.8215 31.8264 56.6351 32.266 56.2891 32.6319C55.99 32.9316 55.5972 33.1159 55.1782 33.1573L54.9972 33.1662L54.8193 33.1573Z" fill="#010101"/>
</svg>
