<svg width="1440" height="493" viewBox="0 0 1440 493" fill="none" xmlns="http://www.w3.org/2000/svg">
<rect width="1440" height="493" fill="#E4EEFF"/>
<path d="M1150 323.726C1147.37 310.449 1135.31 285.894 1131.67 293.525C1127.13 303.062 1128.88 330.364 1135.02 331.954C1141.15 333.543 1132.23 293.711 1124.58 296.517C1118.46 298.76 1122.03 310.417 1124.58 315.966C1123.68 308.485 1122.52 298.013 1110 291" stroke="black" stroke-width="2" stroke-linecap="round"/>
<path d="M250.571 294.775C270.324 266.716 323.287 222.179 323.676 243.554C324.162 270.274 291.881 331.702 276.233 329.119C260.585 326.537 322.209 243.418 336.76 257.722C348.401 269.165 328.181 292.511 316.616 302.754C326.424 286.356 339.918 263.292 375.751 259.834" stroke="black" stroke-width="2" stroke-linecap="round"/>
<path d="M738.772 94.0272C738.772 97.3561 739.513 103.851 742.799 103.851C746.084 103.851 750.671 97.3561 750.671 94.0272C750.671 90.6985 748.007 88 744.722 88C741.436 88 738.772 90.6985 738.772 94.0272Z" fill="black"/>
<path d="M724.89 98.464C724.89 100.961 725.445 105.832 727.909 105.832C730.373 105.832 733.814 100.961 733.814 98.464C733.814 95.9675 731.816 93.9436 729.352 93.9436C726.887 93.9436 724.89 95.9675 724.89 98.464Z" fill="black"/>
<path d="M737.781 114.315C737.781 116.811 738.337 121.682 740.801 121.682C743.265 121.682 746.705 116.811 746.705 114.315C746.705 111.818 744.708 109.794 742.243 109.794C739.779 109.794 737.781 111.818 737.781 114.315Z" fill="black"/>
<path d="M724.89 114.315C724.89 116.811 725.445 121.682 727.909 121.682C730.373 121.682 733.814 116.811 733.814 114.315C733.814 111.818 731.816 109.794 729.352 109.794C726.887 109.794 724.89 111.818 724.89 114.315Z" fill="black"/>
<path d="M712 114.315C712 116.811 712.555 121.682 715.02 121.682C717.484 121.682 720.924 116.811 720.924 114.315C720.924 111.818 718.926 109.794 716.462 109.794C713.998 109.794 712 111.818 712 114.315Z" fill="black"/>
<path d="M737.781 130.166C737.781 132.663 738.337 137.534 740.801 137.534C743.265 137.534 746.705 132.663 746.705 130.166C746.705 127.669 744.708 125.646 742.243 125.646C739.779 125.646 737.781 127.669 737.781 130.166Z" fill="black"/>
<path d="M821.784 411.992L829.708 424.162C829.99 424.482 830.474 424.669 830.727 424.286C831.029 424.088 831.133 423.587 831.018 423.302L824.621 410.055C824.175 409.267 823.292 408.91 822.403 409.422C821.68 409.969 821.39 410.953 821.784 411.992C821.784 411.992 821.651 411.79 821.784 411.992Z" fill="black"/>
<path d="M828.965 435.323L832.915 441.884C833.048 442.086 833.298 442.137 833.416 441.988C833.6 441.939 833.669 441.605 833.537 441.404L830.309 434.295C830.061 433.809 829.661 433.639 829.158 433.97C828.922 434.269 828.717 434.836 828.965 435.323C828.965 435.323 828.881 435.305 828.965 435.323Z" fill="black"/>
<path d="M807.318 415.873L811.764 413.313C811.865 413.246 811.983 413.097 811.833 412.979C811.767 412.878 811.6 412.843 811.499 412.91L806.639 414.95C806.354 415.065 806.201 415.381 806.4 415.683C806.616 415.902 806.949 415.971 807.318 415.873C807.318 415.873 807.234 415.856 807.318 415.873Z" fill="black"/>
<path d="M826.596 437.095L828.61 440.819C828.677 440.919 828.843 440.954 828.861 440.871C828.961 440.804 828.996 440.637 828.93 440.537L827.336 436.465C827.221 436.18 826.97 436.128 826.769 436.26C826.55 436.476 826.481 436.81 826.596 437.095C826.596 437.095 826.513 437.078 826.596 437.095Z" fill="black"/>
<path d="M808.459 417.502L810.991 416.199C811.092 416.132 811.109 416.049 811.026 416.032C810.959 415.931 810.876 415.914 810.775 415.98L808.044 416.981C807.86 417.03 807.826 417.197 807.874 417.381C808.024 417.499 808.274 417.551 808.459 417.502Z" fill="black"/>
<path d="M822.066 409.788L808.989 420.832C808.652 421.197 808.632 421.715 808.83 422.017C809.196 422.354 809.547 422.34 810.016 422.176L824.218 412.844C825.108 412.332 825.349 411.164 824.705 410.073C824.043 409.066 823.024 408.942 821.934 409.586C822.233 409.822 822.233 409.822 822.066 409.788Z" fill="black"/>
<path d="M726.756 433.402C726.756 433.402 753.777 449.176 771.668 437.998C789.56 426.819 776.669 407.528 764.798 418.213C751.329 430.307 776.001 449.86 796.325 442.491C817.117 434.959 820.761 422.398 822.908 413.704" stroke="black" stroke-width="2" stroke-miterlimit="10" stroke-linecap="round"/>
<path d="M1153 117H1295.32C1296.65 113.539 1296.93 105.567 1287.46 101.363C1277.98 97.1594 1270.05 103.115 1267.26 106.618C1266.36 95.4675 1260.51 72.756 1244.35 71.1154C1228.2 69.4749 1223.13 85.7267 1222.61 94.0576C1207.77 66.8859 1194.81 87.6065 1190.18 101.363C1174.73 94.2885 1158.95 108.84 1153 117Z" stroke="black" stroke-width="1.2"/>
<path d="M1115 138H1199.6C1200.39 135.292 1200.55 129.053 1194.92 125.763C1189.29 122.473 1184.57 127.133 1182.92 129.875C1182.38 121.149 1178.9 103.374 1169.3 102.09C1159.7 100.806 1156.68 113.525 1156.37 120.045C1147.56 98.7802 1139.85 114.996 1137.1 125.763C1127.91 120.226 1118.54 131.614 1115 138Z" fill="white"/>
</svg>
