<svg width="453" height="205" viewBox="0 0 453 205" fill="none" xmlns="http://www.w3.org/2000/svg">
<path d="M372.928 125.073C358.27 143.095 312.764 171.926 311.384 160.467C309.719 146.08 328.045 116.829 338.637 119.994C349.23 123.159 312.378 160.694 301.88 151.457C293.461 144.02 300.506 127.605 312.217 126.316C306.534 133.995 282.028 169.919 238.153 155.408" stroke="black" stroke-width="2"/>
<path d="M24.4257 5.03846L18.4397 12.4482C18.2123 12.6501 17.878 12.7473 17.6644 12.5378C17.4473 12.4312 17.3473 12.1208 17.4645 11.917L22.3684 3.8714C22.7164 3.36283 23.385 3.16844 24.0363 3.48827C24.5773 3.80621 24.7772 4.42704 24.4257 5.03846Z" fill="black"/>
<path d="M13.1677 22.3242L8.2198 27.014C8.04169 27.1345 7.8047 27.1672 7.68696 26.9914C7.55412 26.8897 7.52544 26.6537 7.62958 26.5193L11.9284 21.2469C12.2258 20.918 12.6997 20.8527 13.0982 21.1577C13.4228 21.449 13.4802 21.9211 13.1677 22.3242C13.2568 22.2639 13.1677 22.3242 13.1677 22.3242Z" fill="black"/>
<path d="M38.9395 8.02886L34.2388 6.47246C34.1068 6.40562 34.0294 6.28811 34.1387 6.18674C34.1877 6.09401 34.3631 6.02607 34.4895 6.05085L39.4954 7.13497C39.8142 7.21795 39.9689 7.45298 39.822 7.73118C39.6693 7.96732 39.3186 8.10321 38.9395 8.02886C39.0055 8.06227 38.9395 8.02886 38.9395 8.02886Z" fill="black"/>
<path d="M15.2547 24.1827L12.702 26.9139C12.6108 26.9848 12.4912 27.0064 12.4345 26.9079C12.3692 26.8518 12.358 26.7179 12.4123 26.6401L14.6469 23.5859C14.8009 23.395 15.0401 23.3517 15.2361 23.5201C15.3951 23.6816 15.4173 23.9494 15.2547 24.1827C15.3003 24.1473 15.2547 24.1827 15.2547 24.1827Z" fill="black"/>
<path d="M37.9682 9.54332L35.3032 8.81014C35.2286 8.77795 35.1856 8.71981 35.2489 8.66789C35.2777 8.62091 35.3783 8.58509 35.4501 8.59625L38.2936 9.0896C38.4745 9.12801 38.5605 9.24429 38.4741 9.38523C38.3849 9.50516 38.1836 9.5768 37.9682 9.54332C38.0055 9.55942 37.9682 9.54332 37.9682 9.54332Z" fill="black"/>
<path d="M33.9251 10.309C34.1473 10.4926 34.158 10.8368 34.0258 11.044C33.7683 11.2491 33.5179 11.2448 33.1457 11.1337L22.8165 5.30084C22.201 4.97608 21.9751 4.23897 22.497 3.61937C23.019 2.99978 23.9233 3.09695 24.531 3.59505C26.1471 4.91967 29.6742 6.79728 33.9251 10.309Z" fill="black"/>
<path d="M22.1152 5.00079C23.3156 23.2366 39.3863 62.4498 45.4881 55.7259C53.1055 47.2538 54.6649 20.1444 46.4279 17.3528C38.191 14.5611 44.747 55.4195 55.6875 54.2722C64.4745 53.3332 67.4273 39.5947 60.501 33.4363C60.6512 40.9505 60.0197 75.1545 94.7744 85.8184" stroke="black" stroke-width="2" stroke-linecap="round"/>
<path d="M309.078 49.0826C300.548 30.7623 284.246 36.0545 277.162 40.9907C279.422 45.221 285.001 53.7037 292.5 54.742C299.996 55.7802 306.948 51.4808 309.078 49.0826Z" fill="#D1EAFF"/>
<path d="M289.906 52.3858C293.53 54.5319 298.207 53.3343 300.353 49.7109C302.499 46.0876 301.301 41.4106 297.678 39.2646C294.054 37.1186 289.377 38.3162 287.231 41.9395C285.085 45.5628 286.283 50.2398 289.906 52.3858Z" fill="black"/>
<path d="M278.492 38.9424L275.832 33.623" stroke="black" stroke-width="2" stroke-linecap="round"/>
<path d="M284.55 34.9521L283.22 29.6328" stroke="black" stroke-width="2" stroke-linecap="round"/>
<path d="M292.475 35.0356L292.435 29.5527" stroke="black" stroke-width="2" stroke-linecap="round"/>
<path d="M299.77 36.2844L301.099 32.2949" stroke="black" stroke-width="2" stroke-linecap="round"/>
<path d="M306.419 42.9329L310.408 38.9434" stroke="black" stroke-width="2" stroke-linecap="round"/>
<path d="M310.407 48.2517L315.727 46.9219" stroke="black" stroke-width="2" stroke-linecap="round"/>
<path d="M126.596 36.9395H251.844C252.094 71.7368 254.537 106.363 255.885 141.11L126.596 136.844V36.9395Z" stroke="black" stroke-width="2"/>
<path d="M126.596 35.4629H252.93V57.6268H126.596V35.4629Z" fill="black"/>
<path d="M242.956 52.455C239.896 52.455 237.415 49.9742 237.415 46.914C237.415 43.8538 239.896 41.373 242.956 41.373C246.016 41.373 248.497 43.8538 248.497 46.914C248.497 49.9742 246.016 52.455 242.956 52.455Z" fill="white"/>
<path d="M228.919 52.455C225.859 52.455 223.378 49.9742 223.378 46.914C223.378 43.8538 225.859 41.373 228.919 41.373C231.979 41.373 234.46 43.8538 234.46 46.914C234.46 49.9742 231.979 52.455 228.919 52.455Z" fill="white"/>
<path d="M214.882 52.455C211.822 52.455 209.341 49.9742 209.341 46.914C209.341 43.8538 211.822 41.373 214.882 41.373C217.942 41.373 220.423 43.8538 220.423 46.914C220.423 49.9742 217.942 52.455 214.882 52.455Z" fill="white"/>
<path d="M374.417 110.22L380.69 82.7519L409.63 68.479L429.595 93.9216L423.321 121.39L374.417 110.22Z" fill="#D1EAFF"/>
<path d="M366.567 108.937L373.369 79.159L404.098 63.5393L425.096 90.9745L418.295 120.753L402.513 117.148L375.884 111.066L366.567 108.937Z" stroke="black" stroke-width="2"/>
<path d="M374.767 80.0488L394.553 94.342L421.526 91.3203" stroke="black" stroke-width="2" stroke-linecap="round"/>
<path d="M407.779 88.3267L412.762 82.3498M391.708 86.8216L387.348 81.1318L391.708 86.8216ZM395.274 86.4181L395.696 72.5275L395.274 86.4181ZM401.05 87.4153L407.435 74.8259L401.05 87.4153Z" stroke="black" stroke-width="2" stroke-linecap="round"/>
</svg>
