<svg width="100" height="100" viewBox="0 0 100 100" fill="none" xmlns="http://www.w3.org/2000/svg">
<path d="M50 0C22.4 0 0 22.4 0 50C0 77.6 22.4 100 50 100C77.6 100 100 77.6 100 50C100 22.4 77.6 0 50 0Z" fill="#EAECFB"/>
<path d="M18.1367 67H16.9355L19.8184 59.4414H20.7734L23.6562 67H22.4551L21.793 65.2598H18.793L18.1367 67ZM21.377 64.1816L20.293 61.1816L19.2148 64.1816H21.377ZM26.6504 67.0586C26.291 67.0586 25.9551 66.9922 25.6426 66.8594C25.3301 66.7227 25.0547 66.5332 24.8164 66.291C24.582 66.0449 24.3984 65.7539 24.2656 65.418C24.1367 65.082 24.0723 64.709 24.0723 64.2988C24.0723 63.8926 24.1367 63.5215 24.2656 63.1855C24.3984 62.8496 24.582 62.5605 24.8164 62.3184C25.0547 62.0723 25.3301 61.8809 25.6426 61.7441C25.9551 61.6074 26.291 61.5391 26.6504 61.5391C26.9082 61.5391 27.1289 61.5723 27.3125 61.6387C27.4961 61.7012 27.6523 61.7676 27.7812 61.8379C27.9258 61.9277 28.0488 62.0293 28.1504 62.1426V59.4414H29.2285V67H28.4492L28.209 66.4609C28.1035 66.5742 27.9805 66.6738 27.8398 66.7598C27.7109 66.8379 27.5488 66.9082 27.3535 66.9707C27.1582 67.0293 26.9238 67.0586 26.6504 67.0586ZM26.709 62.5586C26.502 62.5586 26.3047 62.6016 26.1172 62.6875C25.9297 62.7695 25.7637 62.8887 25.6191 63.0449C25.4746 63.2012 25.3594 63.3867 25.2734 63.6016C25.1914 63.8125 25.1504 64.0449 25.1504 64.2988C25.1504 64.5566 25.1914 64.791 25.2734 65.002C25.3594 65.2129 25.4746 65.3965 25.6191 65.5527C25.7637 65.709 25.9297 65.8301 26.1172 65.916C26.3047 65.998 26.502 66.0391 26.709 66.0391C26.916 66.0391 27.1133 65.998 27.3008 65.916C27.4922 65.8301 27.6582 65.709 27.7988 65.5527C27.9434 65.3965 28.0566 65.2129 28.1387 65.002C28.2246 64.791 28.2676 64.5566 28.2676 64.2988C28.2676 64.041 28.2246 63.8066 28.1387 63.5957C28.0566 63.3848 27.9434 63.2012 27.7988 63.0449C27.6582 62.8887 27.4922 62.7695 27.3008 62.6875C27.1133 62.6016 26.916 62.5586 26.709 62.5586ZM33.0137 67.0586C32.6543 67.0586 32.3184 66.9922 32.0059 66.8594C31.6934 66.7227 31.418 66.5332 31.1797 66.291C30.9453 66.0449 30.7617 65.7539 30.6289 65.418C30.5 65.082 30.4355 64.709 30.4355 64.2988C30.4355 63.8926 30.5 63.5215 30.6289 63.1855C30.7617 62.8496 30.9453 62.5605 31.1797 62.3184C31.418 62.0723 31.6934 61.8809 32.0059 61.7441C32.3184 61.6074 32.6543 61.5391 33.0137 61.5391C33.2715 61.5391 33.4922 61.5723 33.6758 61.6387C33.8594 61.7012 34.0156 61.7676 34.1445 61.8379C34.2891 61.9277 34.4121 62.0293 34.5137 62.1426V59.4414H35.5918V67H34.8125L34.5723 66.4609C34.4668 66.5742 34.3438 66.6738 34.2031 66.7598C34.0742 66.8379 33.9121 66.9082 33.7168 66.9707C33.5215 67.0293 33.2871 67.0586 33.0137 67.0586ZM33.0723 62.5586C32.8652 62.5586 32.668 62.6016 32.4805 62.6875C32.293 62.7695 32.127 62.8887 31.9824 63.0449C31.8379 63.2012 31.7227 63.3867 31.6367 63.6016C31.5547 63.8125 31.5137 64.0449 31.5137 64.2988C31.5137 64.5566 31.5547 64.791 31.6367 65.002C31.7227 65.2129 31.8379 65.3965 31.9824 65.5527C32.127 65.709 32.293 65.8301 32.4805 65.916C32.668 65.998 32.8652 66.0391 33.0723 66.0391C33.2793 66.0391 33.4766 65.998 33.6641 65.916C33.8555 65.8301 34.0215 65.709 34.1621 65.5527C34.3066 65.3965 34.4199 65.2129 34.502 65.002C34.5879 64.791 34.6309 64.5566 34.6309 64.2988C34.6309 64.041 34.5879 63.8066 34.502 63.5957C34.4199 63.3848 34.3066 63.2012 34.1621 63.0449C34.0215 62.8887 33.8555 62.7695 33.6641 62.6875C33.4766 62.6016 33.2793 62.5586 33.0723 62.5586ZM44.416 65.0195C44.3535 65.3086 44.2539 65.5781 44.1172 65.8281C43.9805 66.0742 43.8066 66.2891 43.5957 66.4727C43.3887 66.6562 43.1504 66.8008 42.8809 66.9062C42.6152 67.0078 42.3262 67.0586 42.0137 67.0586C41.6543 67.0586 41.3184 66.9922 41.0059 66.8594C40.6934 66.7227 40.418 66.5332 40.1797 66.291C39.9453 66.0449 39.7617 65.7539 39.6289 65.418C39.5 65.082 39.4355 64.709 39.4355 64.2988C39.4355 63.8926 39.5 63.5215 39.6289 63.1855C39.7617 62.8496 39.9453 62.5605 40.1797 62.3184C40.418 62.0723 40.6934 61.8809 41.0059 61.7441C41.3184 61.6074 41.6543 61.5391 42.0137 61.5391C42.3262 61.5391 42.6152 61.5918 42.8809 61.6973C43.1504 61.7988 43.3887 61.9434 43.5957 62.1309C43.8066 62.3145 43.9785 62.5312 44.1113 62.7812C44.248 63.0273 44.3496 63.293 44.416 63.5781H43.2734C43.1836 63.2734 43.0352 63.0273 42.8281 62.8398C42.6211 62.6523 42.3496 62.5586 42.0137 62.5586C41.8223 62.5586 41.6348 62.6016 41.4512 62.6875C41.2676 62.7695 41.1074 62.8887 40.9707 63.0449C40.834 63.2012 40.7227 63.3867 40.6367 63.6016C40.5547 63.8125 40.5137 64.0449 40.5137 64.2988C40.5137 64.5566 40.5547 64.791 40.6367 65.002C40.7227 65.2129 40.834 65.3965 40.9707 65.5527C41.1074 65.709 41.2676 65.8301 41.4512 65.916C41.6348 65.998 41.8223 66.0391 42.0137 66.0391C42.3496 66.0391 42.6211 65.9453 42.8281 65.7578C43.0391 65.5703 43.1875 65.3242 43.2734 65.0195H44.416ZM49.2793 64.2988C49.2793 64.041 49.2363 63.8066 49.1504 63.5957C49.0684 63.3848 48.959 63.2012 48.8223 63.0449C48.6855 62.8887 48.5254 62.7695 48.3418 62.6875C48.1582 62.6016 47.9707 62.5586 47.7793 62.5586C47.5879 62.5586 47.4004 62.6016 47.2168 62.6875C47.0332 62.7695 46.873 62.8887 46.7363 63.0449C46.5996 63.2012 46.4883 63.3867 46.4023 63.6016C46.3203 63.8125 46.2793 64.0449 46.2793 64.2988C46.2793 64.5566 46.3203 64.791 46.4023 65.002C46.4883 65.2129 46.5996 65.3965 46.7363 65.5527C46.873 65.709 47.0332 65.8301 47.2168 65.916C47.4004 65.998 47.5879 66.0391 47.7793 66.0391C47.9707 66.0391 48.1582 65.998 48.3418 65.916C48.5254 65.8301 48.6855 65.709 48.8223 65.5527C48.959 65.3965 49.0684 65.2129 49.1504 65.002C49.2363 64.791 49.2793 64.5566 49.2793 64.2988ZM50.3574 64.2988C50.3574 64.7051 50.291 65.0781 50.1582 65.418C50.0293 65.7539 49.8457 66.0449 49.6074 66.291C49.373 66.5332 49.0996 66.7227 48.7871 66.8594C48.4746 66.9922 48.1387 67.0586 47.7793 67.0586C47.4199 67.0586 47.084 66.9922 46.7715 66.8594C46.459 66.7227 46.1836 66.5332 45.9453 66.291C45.7109 66.0449 45.5273 65.7539 45.3945 65.418C45.2656 65.082 45.2012 64.709 45.2012 64.2988C45.2012 63.8926 45.2656 63.5215 45.3945 63.1855C45.5273 62.8496 45.7109 62.5605 45.9453 62.3184C46.1836 62.0723 46.459 61.8809 46.7715 61.7441C47.084 61.6074 47.4199 61.5391 47.7793 61.5391C48.1387 61.5391 48.4746 61.6074 48.7871 61.7441C49.0996 61.8809 49.373 62.0723 49.6074 62.3184C49.8457 62.5605 50.0293 62.8496 50.1582 63.1855C50.291 63.5215 50.3574 63.8926 50.3574 64.2988ZM56.9609 61.5391C57.2188 61.5391 57.459 61.5898 57.6816 61.6914C57.9043 61.7891 58.0996 61.9355 58.2676 62.1309C58.4355 62.3223 58.5684 62.5566 58.666 62.834C58.7676 63.1074 58.8184 63.416 58.8184 63.7598V67H57.7402V63.7598C57.7402 63.4004 57.6367 63.1113 57.4297 62.8926C57.2266 62.6699 56.9902 62.5586 56.7207 62.5586C56.4473 62.5586 56.209 62.6699 56.0059 62.8926C55.8027 63.1113 55.7012 63.4004 55.7012 63.7598V67H54.6172V63.7598C54.6172 63.4004 54.5156 63.1113 54.3125 62.8926C54.1094 62.6699 53.8711 62.5586 53.5977 62.5586C53.3242 62.5586 53.0859 62.6699 52.8828 62.8926C52.6797 63.1113 52.5781 63.4004 52.5781 63.7598V67H51.5V61.5977H52.2793L52.5195 62.1426C52.6172 62.0293 52.7324 61.9277 52.8652 61.8379C52.9785 61.7676 53.1172 61.7012 53.2812 61.6387C53.4453 61.5723 53.6309 61.5391 53.8379 61.5391C54.0957 61.5391 54.3164 61.584 54.5 61.6738C54.6836 61.7598 54.8398 61.8555 54.9688 61.9609C55.1133 62.0898 55.2363 62.2305 55.3379 62.3828C55.3379 62.3828 55.373 62.3398 55.4434 62.2539C55.5098 62.1719 55.6113 62.0762 55.748 61.9668C55.8848 61.8574 56.0527 61.7598 56.252 61.6738C56.4512 61.584 56.6875 61.5391 56.9609 61.5391ZM62.8438 61.5391C63.2031 61.5391 63.5391 61.6074 63.8516 61.7441C64.1641 61.8809 64.4375 62.0723 64.6719 62.3184C64.9102 62.5605 65.0957 62.8496 65.2285 63.1855C65.3613 63.5215 65.4277 63.8926 65.4277 64.2988C65.4277 64.7051 65.3613 65.0781 65.2285 65.418C65.0957 65.7539 64.9102 66.0449 64.6719 66.291C64.4375 66.5332 64.1641 66.7227 63.8516 66.8594C63.5391 66.9922 63.2031 67.0586 62.8438 67.0586C62.5859 67.0586 62.3652 67.0293 62.1816 66.9707C61.998 66.9121 61.8438 66.8418 61.7188 66.7598C61.5742 66.6699 61.4492 66.5703 61.3438 66.4609V68.9219H60.2656V61.5977H61.0449L61.2852 62.1426C61.3906 62.0293 61.5137 61.9277 61.6543 61.8379C61.7832 61.7676 61.9453 61.7012 62.1406 61.6387C62.3359 61.5723 62.5703 61.5391 62.8438 61.5391ZM62.7852 66.0391C62.9922 66.0391 63.1895 65.998 63.377 65.916C63.5645 65.8301 63.7305 65.709 63.875 65.5527C64.0195 65.3965 64.1328 65.2129 64.2148 65.002C64.3008 64.791 64.3438 64.5566 64.3438 64.2988C64.3438 64.041 64.3008 63.8066 64.2148 63.5957C64.1328 63.3848 64.0195 63.2012 63.875 63.0449C63.7305 62.8887 63.5645 62.7695 63.377 62.6875C63.1895 62.6016 62.9922 62.5586 62.7852 62.5586C62.5781 62.5586 62.3789 62.6016 62.1875 62.6875C62 62.7695 61.834 62.8887 61.6895 63.0449C61.5488 63.2012 61.4355 63.3867 61.3496 63.6016C61.2676 63.8125 61.2266 64.0449 61.2266 64.2988C61.2266 64.5566 61.2676 64.791 61.3496 65.002C61.4355 65.2129 61.5488 65.3965 61.6895 65.5527C61.834 65.709 62 65.8301 62.1875 65.916C62.3789 65.998 62.5781 66.0391 62.7852 66.0391ZM68.668 61.5391C68.9805 61.5391 69.2656 61.5898 69.5234 61.6914C69.7852 61.7891 70.0078 61.9238 70.1914 62.0957C70.375 62.2676 70.5176 62.4707 70.6191 62.7051C70.7207 62.9355 70.7715 63.1875 70.7715 63.4609V67H69.9922L69.752 66.4609C69.6465 66.5742 69.5215 66.6738 69.377 66.7598C69.248 66.8379 69.0859 66.9082 68.8906 66.9707C68.6953 67.0293 68.4609 67.0586 68.1875 67.0586C67.5859 67.0586 67.125 66.9102 66.8047 66.6133C66.4883 66.3125 66.3301 65.9219 66.3301 65.4414C66.3301 65.168 66.3809 64.9219 66.4824 64.7031C66.5879 64.4805 66.7656 64.293 67.0156 64.1406C67.2695 63.9844 67.6113 63.8633 68.041 63.7773C68.4746 63.6875 69.0234 63.6426 69.6875 63.6426V63.4609C69.6875 63.1875 69.6016 62.9688 69.4297 62.8047C69.2578 62.6406 69.0039 62.5586 68.668 62.5586C68.3086 62.5586 68.0469 62.623 67.8828 62.752C67.7188 62.8809 67.6211 63.0371 67.5898 63.2207H66.5117C66.543 62.7402 66.7441 62.3398 67.1152 62.0195C67.4863 61.6992 68.0039 61.5391 68.668 61.5391ZM68.252 66.0977C68.709 66.0977 69.0625 65.9805 69.3125 65.7461C69.5625 65.5117 69.6875 65.2266 69.6875 64.8906V64.5977C69.207 64.5977 68.8184 64.6211 68.5215 64.668C68.2285 64.7109 67.998 64.7715 67.8301 64.8496C67.6621 64.9238 67.5488 65.0176 67.4902 65.1309C67.4355 65.2402 67.4082 65.3633 67.4082 65.5C67.4082 65.6523 67.4805 65.791 67.625 65.916C67.7695 66.0371 67.9785 66.0977 68.252 66.0977ZM74.7266 61.5391C75.0234 61.5391 75.3027 61.5977 75.5645 61.7148C75.8301 61.832 76.0605 61.9922 76.2559 62.1953C76.4512 62.3984 76.6055 62.6445 76.7188 62.9336C76.832 63.2188 76.8887 63.5352 76.8887 63.8828V67H75.8105V63.8828C75.8105 63.707 75.7754 63.5391 75.7051 63.3789C75.6387 63.2188 75.5469 63.0781 75.4297 62.957C75.3125 62.8359 75.1777 62.7402 75.0254 62.6699C74.873 62.5957 74.7129 62.5586 74.5449 62.5586C74.3613 62.5586 74.1895 62.5957 74.0293 62.6699C73.8691 62.7402 73.7285 62.8359 73.6074 62.957C73.4902 63.0781 73.3965 63.2188 73.3262 63.3789C73.2598 63.5352 73.2266 63.7031 73.2266 63.8828V67H72.1484V61.5977H72.9277L73.168 62.1426C73.2734 62.0293 73.3965 61.9277 73.5371 61.8379C73.666 61.7676 73.8281 61.7012 74.0234 61.6387C74.2188 61.5723 74.4531 61.5391 74.7266 61.5391ZM77.6621 61.5977H78.8047L80.3047 65.5L81.8047 61.5977H82.9473L80.6621 67.3574C80.541 67.6621 80.4219 67.916 80.3047 68.1191C80.1914 68.3262 80.0664 68.4922 79.9297 68.6172C79.7969 68.7461 79.6484 68.8379 79.4844 68.8926C79.3203 68.9512 79.1348 68.9805 78.9277 68.9805C78.8809 68.9805 78.8359 68.9785 78.793 68.9746C78.7539 68.9707 78.7148 68.9648 78.6758 68.957C78.6367 68.9492 78.5996 68.9375 78.5645 68.9219V68.0195C78.8691 68.0195 79.0996 67.9551 79.2559 67.8262C79.4121 67.7012 79.5215 67.5449 79.584 67.3574L79.7656 66.8184L77.6621 61.5977ZM41.4512 81H40.373V73.4414H41.4512V81ZM46.7305 78.2988C46.7305 78.041 46.6875 77.8066 46.6016 77.5957C46.5195 77.3848 46.4102 77.2012 46.2734 77.0449C46.1367 76.8887 45.9766 76.7695 45.793 76.6875C45.6094 76.6016 45.4219 76.5586 45.2305 76.5586C45.0391 76.5586 44.8516 76.6016 44.668 76.6875C44.4844 76.7695 44.3242 76.8887 44.1875 77.0449C44.0508 77.2012 43.9395 77.3867 43.8535 77.6016C43.7715 77.8125 43.7305 78.0449 43.7305 78.2988C43.7305 78.5566 43.7715 78.791 43.8535 79.002C43.9395 79.2129 44.0508 79.3965 44.1875 79.5527C44.3242 79.709 44.4844 79.8301 44.668 79.916C44.8516 79.998 45.0391 80.0391 45.2305 80.0391C45.4219 80.0391 45.6094 79.998 45.793 79.916C45.9766 79.8301 46.1367 79.709 46.2734 79.5527C46.4102 79.3965 46.5195 79.2129 46.6016 79.002C46.6875 78.791 46.7305 78.5566 46.7305 78.2988ZM47.8086 78.2988C47.8086 78.7051 47.7422 79.0781 47.6094 79.418C47.4805 79.7539 47.2969 80.0449 47.0586 80.291C46.8242 80.5332 46.5508 80.7227 46.2383 80.8594C45.9258 80.9922 45.5898 81.0586 45.2305 81.0586C44.8711 81.0586 44.5352 80.9922 44.2227 80.8594C43.9102 80.7227 43.6348 80.5332 43.3965 80.291C43.1621 80.0449 42.9785 79.7539 42.8457 79.418C42.7168 79.082 42.6523 78.709 42.6523 78.2988C42.6523 77.8926 42.7168 77.5215 42.8457 77.1855C42.9785 76.8496 43.1621 76.5605 43.3965 76.3184C43.6348 76.0723 43.9102 75.8809 44.2227 75.7441C44.5352 75.6074 44.8711 75.5391 45.2305 75.5391C45.5898 75.5391 45.9258 75.6074 46.2383 75.7441C46.5508 75.8809 46.8242 76.0723 47.0586 76.3184C47.2969 76.5605 47.4805 76.8496 47.6094 77.1855C47.7422 77.5215 47.8086 77.8926 47.8086 78.2988ZM53.6914 75.5977V80.7598C53.6914 81.0879 53.6328 81.3906 53.5156 81.668C53.3984 81.9492 53.2344 82.1914 53.0234 82.3945C52.8125 82.6016 52.5547 82.7598 52.25 82.8691C51.9453 82.9824 51.6055 83.0391 51.2305 83.0391C50.9023 83.0391 50.6055 82.9922 50.3398 82.8984C50.0781 82.8086 49.8496 82.6875 49.6543 82.5352C49.459 82.3828 49.2969 82.2051 49.168 82.002C49.0391 81.7988 48.9473 81.584 48.8926 81.3574H49.9707C50.0605 81.541 50.2031 81.707 50.3984 81.8555C50.5938 82.0039 50.8711 82.0781 51.2305 82.0781C51.6562 82.0781 51.9922 81.9551 52.2383 81.709C52.4883 81.4668 52.6133 81.1504 52.6133 80.7598V80.2207C52.5078 80.334 52.3828 80.4336 52.2383 80.5195C52.1094 80.5977 51.9531 80.668 51.7695 80.7305C51.5859 80.7891 51.3672 80.8184 51.1133 80.8184C50.7852 80.8184 50.4707 80.752 50.1699 80.6191C49.8691 80.4824 49.6055 80.2969 49.3789 80.0625C49.1562 79.8242 48.9785 79.5449 48.8457 79.2246C48.7168 78.9043 48.6523 78.5566 48.6523 78.1816C48.6523 77.8066 48.7168 77.459 48.8457 77.1387C48.9785 76.8184 49.1562 76.541 49.3789 76.3066C49.6055 76.0684 49.8691 75.8809 50.1699 75.7441C50.4707 75.6074 50.7852 75.5391 51.1133 75.5391C51.3867 75.5391 51.6211 75.5723 51.8164 75.6387C52.0117 75.7012 52.1719 75.7676 52.2969 75.8379C52.4414 75.9277 52.5664 76.0293 52.6719 76.1426L52.9121 75.5977H53.6914ZM51.2422 79.7988C51.4336 79.7988 51.6191 79.7578 51.7988 79.6758C51.9785 79.5898 52.1367 79.4727 52.2734 79.3242C52.4102 79.1758 52.5195 79.0039 52.6016 78.8086C52.6875 78.6133 52.7305 78.4043 52.7305 78.1816C52.7305 77.959 52.6875 77.75 52.6016 77.5547C52.5195 77.3555 52.4102 77.1816 52.2734 77.0332C52.1367 76.8848 51.9766 76.7695 51.793 76.6875C51.6094 76.6016 51.4219 76.5586 51.2305 76.5586C51.0391 76.5586 50.8516 76.6016 50.668 76.6875C50.4844 76.7695 50.3242 76.8848 50.1875 77.0332C50.0508 77.1816 49.9395 77.3535 49.8535 77.5488C49.7715 77.7441 49.7305 77.9551 49.7305 78.1816C49.7305 78.4043 49.7715 78.6133 49.8535 78.8086C49.9395 79.0039 50.0527 79.1758 50.1934 79.3242C50.334 79.4727 50.4941 79.5898 50.6738 79.6758C50.8535 79.7578 51.043 79.7988 51.2422 79.7988ZM58.9062 78.2988C58.9062 78.041 58.8633 77.8066 58.7773 77.5957C58.6953 77.3848 58.5859 77.2012 58.4492 77.0449C58.3125 76.8887 58.1523 76.7695 57.9688 76.6875C57.7852 76.6016 57.5977 76.5586 57.4062 76.5586C57.2148 76.5586 57.0273 76.6016 56.8438 76.6875C56.6602 76.7695 56.5 76.8887 56.3633 77.0449C56.2266 77.2012 56.1152 77.3867 56.0293 77.6016C55.9473 77.8125 55.9062 78.0449 55.9062 78.2988C55.9062 78.5566 55.9473 78.791 56.0293 79.002C56.1152 79.2129 56.2266 79.3965 56.3633 79.5527C56.5 79.709 56.6602 79.8301 56.8438 79.916C57.0273 79.998 57.2148 80.0391 57.4062 80.0391C57.5977 80.0391 57.7852 79.998 57.9688 79.916C58.1523 79.8301 58.3125 79.709 58.4492 79.5527C58.5859 79.3965 58.6953 79.2129 58.7773 79.002C58.8633 78.791 58.9062 78.5566 58.9062 78.2988ZM59.9844 78.2988C59.9844 78.7051 59.918 79.0781 59.7852 79.418C59.6562 79.7539 59.4727 80.0449 59.2344 80.291C59 80.5332 58.7266 80.7227 58.4141 80.8594C58.1016 80.9922 57.7656 81.0586 57.4062 81.0586C57.0469 81.0586 56.7109 80.9922 56.3984 80.8594C56.0859 80.7227 55.8105 80.5332 55.5723 80.291C55.3379 80.0449 55.1543 79.7539 55.0215 79.418C54.8926 79.082 54.8281 78.709 54.8281 78.2988C54.8281 77.8926 54.8926 77.5215 55.0215 77.1855C55.1543 76.8496 55.3379 76.5605 55.5723 76.3184C55.8105 76.0723 56.0859 75.8809 56.3984 75.7441C56.7109 75.6074 57.0469 75.5391 57.4062 75.5391C57.7656 75.5391 58.1016 75.6074 58.4141 75.7441C58.7266 75.8809 59 76.0723 59.2344 76.3184C59.4727 76.5605 59.6562 76.8496 59.7852 77.1855C59.918 77.5215 59.9844 77.8926 59.9844 78.2988Z" fill="#010101"/>
<path fill-rule="evenodd" clip-rule="evenodd" d="M57.2319 20H41.7681C36.3774 20 33 23.8155 33 29.215V43.785C33 49.1845 36.3631 53 41.7681 53H57.2302C62.6369 53 66 49.1845 66 43.785V29.215C66 23.8155 62.6369 20 57.2319 20Z" stroke="black" stroke-width="1.5" stroke-linecap="round" stroke-linejoin="round"/>
<path fill-rule="evenodd" clip-rule="evenodd" d="M47.2193 30.7908C47.2193 32.6127 45.7407 34.0913 43.9187 34.0913C42.0986 34.0913 40.62 32.6127 40.62 30.7908C40.62 28.9689 42.0986 27.4902 43.9187 27.4902C45.7407 27.4902 47.2193 28.9689 47.2193 30.7908Z" stroke="black" stroke-width="1.5" stroke-linecap="round" stroke-linejoin="round"/>
<path d="M65.9987 41.8123C64.2215 40.2657 62.675 38.4045 60.6367 37.1761C58.5949 35.9478 56.4011 36.7059 54.985 38.5385C53.6173 40.3104 52.7626 42.6937 50.6976 43.8112C48.1533 45.1897 46.6586 42.9673 44.5363 42.0769C42.1673 41.0846 40.3686 42.8689 38.9848 44.5836C37.5991 46.3 36.1956 47.9985 34.7867 49.6971" stroke="black" stroke-width="1.5" stroke-linecap="round" stroke-linejoin="round"/>
</svg>
