<svg width="113" height="51" viewBox="0 0 113 51" fill="none" xmlns="http://www.w3.org/2000/svg">
<path d="M94.5842 47.5301L105.286 36.7395C105.642 36.472 106.177 36.3828 106.356 36.8287C106.623 37.0963 106.623 37.6313 106.445 37.8989L97.0812 50.1163C96.4569 50.8297 95.476 51.0081 94.6734 50.2947C94.0491 49.5812 93.9599 48.5111 94.5842 47.5301C94.5842 47.5301 94.4058 47.7085 94.5842 47.5301Z" fill="#FFD079"/>
<path d="M106.892 25.146L112.332 19.2602C112.51 19.0819 112.777 19.0819 112.867 19.2602C113.045 19.3494 113.045 19.7061 112.867 19.8845L108.051 26.4837C107.694 26.9296 107.248 27.0187 106.803 26.5729C106.624 26.2161 106.535 25.5919 106.892 25.146C106.892 25.146 106.803 25.146 106.892 25.146Z" fill="#FFD079"/>
<path d="M80.5839 40.4848L84.5969 44.052C84.6861 44.1412 84.7753 44.3195 84.5969 44.4087C84.5078 44.4979 84.3294 44.4979 84.2402 44.4087L79.6921 41.2874C79.4246 41.1091 79.3354 40.7524 79.6029 40.4848C79.8705 40.3065 80.2272 40.3065 80.5839 40.4848C80.5839 40.4848 80.4947 40.4848 80.5839 40.4848Z" fill="#FFD079"/>
<path d="M104.841 22.8272L107.695 19.4385C107.784 19.3493 107.962 19.3493 107.962 19.4385C108.051 19.5276 108.051 19.706 107.962 19.7952L105.465 23.6298C105.287 23.8974 105.019 23.8974 104.841 23.719C104.662 23.4515 104.662 23.0948 104.841 22.8272C104.841 22.8272 104.752 22.8272 104.841 22.8272Z" fill="#FFD079"/>
<path d="M82.0988 39.0581L84.4175 40.9308C84.5067 41.02 84.5067 41.1092 84.4175 41.1092C84.3283 41.1984 84.2391 41.1984 84.1499 41.1092L81.5638 39.504C81.3854 39.4148 81.3854 39.2365 81.4746 39.0581C81.653 38.9689 81.9205 38.9689 82.0988 39.0581Z" fill="#FFD079"/>
<path d="M94.4052 49.8484L83.3471 35.7582C83.0795 35.3123 83.1687 34.7772 83.4363 34.5097C83.8822 34.2421 84.2389 34.3313 84.6848 34.5989L97.2589 47.173C98.0615 47.8864 98.0615 49.1349 97.1697 50.1159C96.2779 51.0077 95.2078 50.9185 94.2268 50.0267C94.5836 49.8484 94.5836 49.8484 94.4052 49.8484Z" fill="#FFD079"/>
<path d="M1.75 5.4377C1.75 5.4377 32.7841 -4.99617 48.747 10.2533C64.7099 25.5028 47.4093 42.5359 37.5105 29.07C26.274 13.8205 55.7029 -0.983144 74.9654 10.8776C94.6738 23.0058 95.744 36.6501 96.1007 46.0139" stroke="#FFD079" stroke-width="3" stroke-miterlimit="10" stroke-linecap="round"/>
</svg>
