<svg width="318" height="318" viewBox="0 0 318 318" fill="none" xmlns="http://www.w3.org/2000/svg">
<path d="M296.39 138.648H201.208L198.128 210.622L240.056 209.369L277.346 208.254L296.39 207.685V138.648Z" fill="#D1EAFF"/>
<path d="M48.4561 236.168H64.5763L65.0981 164.194L57.9968 165.447L51.6813 166.562L48.4561 167.131V236.168Z" fill="#D1EAFF"/>
<path d="M73.4712 236.168H89.5915L90.1132 192.602L83.0119 193.361L76.6965 194.035L73.4712 194.38V236.168Z" fill="#D1EAFF"/>
<path d="M123.504 236.168H139.623L140.146 214.438L133.044 214.816L126.728 215.152L123.504 215.325V236.168Z" fill="#D1EAFF"/>
<path d="M98.4883 236.168H114.608L115.131 175.642L108.029 176.696L101.714 177.634L98.4883 178.112V236.168Z" fill="#D1EAFF"/>
<path d="M275.592 250.372L279.927 261.346L295.074 254.06L285.333 268.12L297.874 274.787L283.404 276.569L284.262 288.336L275.592 280.328L263.616 291.288L267.78 276.569L256.11 274.787L265.851 268.12L261.805 258.723L271.257 261.346L275.592 250.372Z" fill="black"/>
<path d="M277.499 252.068L281.835 263.042L296.982 255.756L287.241 269.817L299.782 276.483L285.312 278.265L286.17 290.032L277.499 282.025L265.523 292.984L269.688 278.265L258.018 276.483L267.759 269.817L263.713 260.419L273.165 263.042L277.499 252.068Z" fill="#FFDC4D"/>
<path d="M83.9551 71.4438L87.255 79.8025L98.7847 74.2528L91.3699 84.9625L100.915 90.0396L89.9014 91.3968L90.5549 100.359L83.9551 94.2603L74.8391 102.608L78.0089 91.3968L69.1255 90.0396L76.5403 84.9625L73.4611 77.8038L80.6552 79.8025L83.9551 71.4438Z" fill="#FFDC4D"/>
<path d="M227.489 100.685C231.015 82.8008 247.191 49.7276 252.063 60.0046C258.153 72.851 255.803 109.627 247.575 111.768C239.349 113.909 251.315 60.2566 261.572 64.0348C269.778 67.0575 264.991 82.7586 261.572 90.2313C262.783 80.1558 264.339 66.0501 281.125 56.6042" stroke="#FFDC4D" stroke-width="2" stroke-linecap="round"/>
<path d="M96.0495 167.651C94.6001 160.271 87.9505 146.622 85.9478 150.863C83.4444 156.164 84.4106 171.34 87.7925 172.225C91.1743 173.108 86.2553 150.967 82.0389 152.527C78.6658 153.774 80.6335 160.253 82.0389 163.336C81.5411 159.179 80.9016 153.358 74.0015 149.46" stroke="black" stroke-width="2" stroke-linecap="round"/>
<path d="M60.2202 109.445V27.2949H169.825V46.1099H212.331V106.212" stroke="#FFDC4D" stroke-width="2"/>
<path d="M52.0959 273.127C52.0959 277.791 51.0449 286.892 46.3808 286.892C41.7166 286.892 35.2056 277.791 35.2056 273.127C35.2056 268.463 38.9866 264.682 43.6508 264.682C48.3149 264.682 52.0959 268.463 52.0959 273.127Z" fill="black"/>
<path d="M75.6327 273.127C75.6327 277.791 74.5816 286.892 69.9174 286.892C65.2532 286.892 58.7422 277.791 58.7422 273.127C58.7422 268.463 62.5232 264.682 67.1874 264.682C71.8515 264.682 75.6327 268.463 75.6327 273.127Z" fill="black"/>
<path d="M99.1327 273.127C99.1327 277.791 98.0817 286.892 93.4174 286.892C88.7533 286.892 82.2422 277.791 82.2422 273.127C82.2422 268.463 86.0233 264.682 90.6874 264.682C95.3516 264.682 99.1327 268.463 99.1327 273.127Z" fill="black"/>
<path d="M264.06 87.4778C264.06 89.6593 263.565 93.9158 261.37 93.9158C259.174 93.9158 256.11 89.6593 256.11 87.4778C256.11 85.2963 257.89 83.5278 260.085 83.5278C262.28 83.5278 264.06 85.2963 264.06 87.4778Z" fill="black"/>
<path d="M273.471 90.0353C273.471 91.6973 273.096 94.9403 271.435 94.9403C269.772 94.9403 267.452 91.6973 267.452 90.0353C267.452 88.3732 268.799 87.0259 270.462 87.0259C272.124 87.0259 273.471 88.3732 273.471 90.0353Z" fill="black"/>
<path d="M265.096 100.529C265.096 102.191 264.721 105.434 263.06 105.434C261.398 105.434 259.078 102.191 259.078 100.529C259.078 98.8674 260.425 97.52 262.087 97.52C263.749 97.52 265.096 98.8674 265.096 100.529Z" fill="black"/>
<path d="M273.483 100.529C273.483 102.191 273.108 105.434 271.446 105.434C269.784 105.434 267.464 102.191 267.464 100.529C267.464 98.8674 268.811 97.52 270.473 97.52C272.135 97.52 273.483 98.8674 273.483 100.529Z" fill="black"/>
<path d="M281.857 100.529C281.857 102.191 281.482 105.434 279.82 105.434C278.158 105.434 275.838 102.191 275.838 100.529C275.838 98.8674 277.185 97.52 278.847 97.52C280.509 97.52 281.857 98.8674 281.857 100.529Z" fill="black"/>
<path d="M265.202 111.023C265.202 112.685 264.827 115.928 263.166 115.928C261.504 115.928 259.184 112.685 259.184 111.023C259.184 109.361 260.531 108.014 262.193 108.014C263.855 108.014 265.202 109.361 265.202 111.023Z" fill="black"/>
<path d="M286.638 114.1C286.638 117.462 285.879 124.02 282.512 124.02C279.147 124.02 274.448 117.462 274.448 114.1C274.448 110.739 277.176 108.014 280.543 108.014C283.908 108.014 286.638 110.739 286.638 114.1Z" fill="black"/>
<path d="M131.878 238.688L178.306 237.619V202M178.306 108.062H28.4888L23.6396 243.131L74.5842 241.317" stroke="black" stroke-width="2"/>
<path d="M136.966 92.9343H185.847M136.966 84.1638H167.694H136.966Z" stroke="black" stroke-width="2" stroke-linecap="round"/>
<path d="M28.489 108.062H178.306V134.883H27.5205L28.489 108.062Z" fill="black"/>
<path d="M40.2783 128.323C43.7993 128.323 46.6537 125.256 46.6537 121.472C46.6537 117.688 43.7993 114.62 40.2783 114.62C36.7572 114.62 33.9028 117.688 33.9028 121.472C33.9028 125.256 36.7572 128.323 40.2783 128.323Z" fill="white"/>
<path d="M56.8544 128.323C60.3755 128.323 63.2299 125.256 63.2299 121.472C63.2299 117.688 60.3755 114.62 56.8544 114.62C53.3334 114.62 50.479 117.688 50.479 121.472C50.479 125.256 53.3334 128.323 56.8544 128.323Z" fill="white"/>
<path d="M73.4316 128.323C76.9527 128.323 79.807 125.256 79.807 121.472C79.807 117.688 76.9527 114.62 73.4316 114.62C69.9105 114.62 67.0562 117.688 67.0562 121.472C67.0562 125.256 69.9105 128.323 73.4316 128.323Z" fill="white"/>
<path d="M108.77 127.5L113 58.8301H243.708V139" stroke="black" stroke-width="2"/>
<path d="M243.708 58.8301H113.01V70.0661H243.708V58.8301Z" fill="black"/>
<path d="M155.93 131.122L151.7 203.096L286.638 200.159V131.122H155.93Z" stroke="black" stroke-width="2"/>
<path d="M161.815 197.269H204.462M161.815 192.596H188.624H161.815Z" stroke="black" stroke-width="2" stroke-linecap="round"/>
<path d="M286.638 131.122H155.94V144.478H286.638V131.122Z" fill="black"/>
<path d="M132.726 245.708C132.726 255.203 128.949 261.821 123.203 266.084C117.431 270.368 109.615 272.314 101.509 272.314C93.4043 272.314 86.7053 270.369 82.0361 266.124C77.3779 261.891 74.6377 255.274 74.6377 245.708C74.6377 226.578 87.7368 211.258 103.682 211.258C119.627 211.258 132.726 226.578 132.726 245.708Z" stroke="black" stroke-width="2"/>
<path d="M107.638 23.1436C111.015 26.9762 113.606 31.4367 115.259 36.2703C116.913 41.1038 117.599 46.2158 117.277 51.3143C116.955 56.4129 115.632 61.3981 113.384 65.9855C111.136 70.5728 108.006 74.6724 104.173 78.0501C100.34 81.4278 95.88 84.0175 91.0464 85.6714C86.2128 87.3253 81.1008 88.0109 76.0023 87.6892C70.9037 87.3675 65.9186 86.0447 61.3312 83.7963C56.7438 81.548 52.6443 78.418 49.2666 74.5853L67.3865 58.6166C68.6671 60.0697 70.2214 61.2565 71.9608 62.1089C73.7 62.9614 75.5902 63.463 77.5233 63.5849C79.4565 63.7069 81.3947 63.447 83.2273 62.8199C85.0599 62.1928 86.7512 61.2109 88.2043 59.9302C89.6576 58.6495 90.8443 57.0952 91.6967 55.3559C92.5492 53.6166 93.0508 51.7265 93.1728 49.7933C93.2948 47.8602 93.0347 45.922 92.4076 44.0894C91.7806 42.2566 90.7987 40.5655 89.518 39.1122L107.638 23.1436Z" stroke="black" stroke-width="2"/>
</svg>
