<svg width="181" height="165" viewBox="0 0 181 165" fill="none" xmlns="http://www.w3.org/2000/svg">
<path d="M100.981 17.0435H19.6211V140.043H141.099V17.0435H121.04" stroke="black" stroke-width="1.2" stroke-linecap="round"/>
<path d="M135.778 69.6304H62.1821V136.478H135.778V69.6304Z" fill="#D1EAFF"/>
<path d="M83 133C104.539 133 122 115.539 122 94C122 72.4609 104.539 55 83 55C61.4609 55 44 72.4609 44 94C44 115.539 61.4609 133 83 133Z" fill="#FFDC4D"/>
<path d="M77.5426 96.2553C82.8128 96.2553 87.0851 92.1687 87.0851 87.1277C87.0851 82.0866 82.8128 78 77.5426 78C72.2723 78 68 82.0866 68 87.1277C68 92.1687 72.2723 96.2553 77.5426 96.2553Z" fill="black"/>
<path d="M77.1279 92.7936C77.5149 92.9945 78.3892 93.1371 78.7875 92.1064" stroke="white" stroke-width="1.2" stroke-linecap="round"/>
<path d="M79.6172 82.2916C80.1977 82.0906 81.5091 81.948 82.1065 82.9787" stroke="white" stroke-width="1.2" stroke-linecap="round"/>
<path d="M73.8087 82.2916C73.2272 82.0906 71.9168 81.948 71.3193 82.9787" stroke="white" stroke-width="1.2" stroke-linecap="round"/>
<path d="M77.128 87.1277L74.6387 89.617H77.128" stroke="white" stroke-width="1.2" stroke-linecap="round" stroke-linejoin="round"/>
<path d="M47.3193 108.509C52.2022 121.319 64.6642 132.17 79.2663 132.17C93.8684 132.17 106.329 121.319 111.213 108.509C106.208 104.502 92.8126 96.4894 79.2663 96.4894C65.72 96.4894 52.3236 104.502 47.3193 108.509Z" fill="black"/>
<path d="M61.4253 126.298L64.7444 123.872L63.8593 127.191" stroke="white" stroke-width="1.2" stroke-linecap="round"/>
<path d="M72.9787 87.1277C73.437 87.1277 73.8085 86.7562 73.8085 86.2979C73.8085 85.8396 73.437 85.4681 72.9787 85.4681C72.5204 85.4681 72.1489 85.8396 72.1489 86.2979C72.1489 86.7562 72.5204 87.1277 72.9787 87.1277Z" fill="white"/>
<path d="M80.447 87.1277C80.9053 87.1277 81.2768 86.7562 81.2768 86.2979C81.2768 85.8396 80.9053 85.4681 80.447 85.4681C79.9887 85.4681 79.6172 85.8396 79.6172 86.2979C79.6172 86.7562 79.9887 87.1277 80.447 87.1277Z" fill="white"/>
<path d="M60.4092 51.8044L67.5028 46.4565M60.5939 46.4565L67.5028 51.8044L60.5939 46.4565Z" stroke="black" stroke-width="1.2" stroke-linecap="round"/>
<path d="M63.8701 45.5084V29.5217H33.8993C33.8993 29.5217 19.4202 85.425 42.2608 103.336C62.0601 118.862 106.71 109.765 106.71 109.765C106.71 109.765 97.4958 81.1921 106.71 79.2352C108.669 78.8192 111.837 79.2352 111.837 79.2352V53.1752" stroke="black" stroke-width="1.2" stroke-linecap="round"/>
<path d="M122.478 67.8478L124.279 20.6086H180.113V65.9136L122.478 67.8478Z" stroke="black" stroke-width="1.2"/>
<path d="M181 20.6086H123.365V30.413H181V20.6086Z" fill="black"/>
<path d="M128.685 26.8479C130.154 26.8479 131.345 25.8503 131.345 24.6196C131.345 23.389 130.154 22.3914 128.685 22.3914C127.215 22.3914 126.024 23.389 126.024 24.6196C126.024 25.8503 127.215 26.8479 128.685 26.8479Z" fill="white"/>
<path d="M134.448 26.8479C135.672 26.8479 136.665 25.8503 136.665 24.6196C136.665 23.389 135.672 22.3914 134.448 22.3914C133.224 22.3914 132.231 23.389 132.231 24.6196C132.231 25.8503 133.224 26.8479 134.448 26.8479Z" fill="white"/>
<path d="M141.099 26.8479C142.568 26.8479 143.759 25.8503 143.759 24.6196C143.759 23.389 142.568 22.3914 141.099 22.3914C139.629 22.3914 138.438 23.389 138.438 24.6196C138.438 25.8503 139.629 26.8479 141.099 26.8479Z" fill="white"/>
<path d="M162.379 60.7173H117.158V104.837" stroke="#FFDC4D" stroke-width="1.2"/>
<path d="M101.197 8.93083C88.5052 0.212229 79.9485 9.93804 77.2563 15.8907C80.3768 17.792 87.3149 21.2033 92.6031 19.0033C97.8912 16.8033 100.744 11.3186 101.197 8.93083Z" fill="#D1EAFF"/>
<path d="M89.6703 17.9349C93.0983 17.9349 95.8772 15.341 95.8772 12.1414C95.8772 8.94173 93.0983 6.3479 89.6703 6.3479C86.2423 6.3479 83.4634 8.94173 83.4634 12.1414C83.4634 15.341 86.2423 17.9349 89.6703 17.9349Z" fill="black"/>
<path d="M77.2563 13.4782L73.7095 11.6956" stroke="black" stroke-width="1.2" stroke-linecap="round"/>
<path d="M79.9159 9.91293L76.3691 7.23901" stroke="black" stroke-width="1.2" stroke-linecap="round"/>
<path d="M84.3496 6.34793L81.6895 2.78271" stroke="black" stroke-width="1.2" stroke-linecap="round"/>
<path d="M96.7637 5.45652L98.5371 1" stroke="black" stroke-width="1.2" stroke-linecap="round"/>
<path d="M101.197 8.13035L102.971 3.67383" stroke="black" stroke-width="1.2" stroke-linecap="round"/>
<path d="M36.4675 158.933C29.4162 154.028 24.6625 159.499 23.167 162.848C24.9007 163.917 28.7549 165.836 31.6929 164.598C34.631 163.361 36.216 160.276 36.4675 158.933Z" fill="#D1EAFF"/>
<path d="M30.2607 165C32.2195 165 33.8075 163.404 33.8075 161.435C33.8075 159.466 32.2195 157.87 30.2607 157.87C28.3018 157.87 26.7139 159.466 26.7139 161.435C26.7139 163.404 28.3018 165 30.2607 165Z" fill="black"/>
<path d="M23.1674 161.435L21.394 160.543" stroke="black" stroke-width="1.2" stroke-linecap="round"/>
<path d="M24.9404 159.652L23.167 157.87" stroke="black" stroke-width="1.2" stroke-linecap="round"/>
<path d="M27.6006 156.978L26.7139 156.087" stroke="black" stroke-width="1.2" stroke-linecap="round"/>
<path d="M31.1479 156.087L30.2612 154.304" stroke="black" stroke-width="1.2" stroke-linecap="round"/>
<path d="M34.6943 156.978L35.581 154.304" stroke="black" stroke-width="1.2" stroke-linecap="round"/>
<path d="M36.4683 157.87L38.2417 156.087" stroke="black" stroke-width="1.2" stroke-linecap="round"/>
<path d="M1 150.699C2.39892 143.483 8.81708 130.139 10.7502 134.285C13.1665 139.469 12.2339 154.306 8.96969 155.17C5.70549 156.035 10.4534 134.387 14.523 135.911C17.7788 137.131 15.8796 143.466 14.523 146.481C15.0035 142.416 15.6207 136.724 22.2808 132.913" stroke="black" stroke-width="1.2" stroke-linecap="round"/>
<path d="M111.837 50.913C113.306 50.913 114.497 49.7159 114.497 48.2391C114.497 46.7623 113.306 45.5652 111.837 45.5652C110.368 45.5652 109.177 46.7623 109.177 48.2391C109.177 49.7159 110.368 50.913 111.837 50.913Z" fill="#ED4546"/>
<path d="M173.02 84.8197C173.02 86.3171 173.351 89.2391 174.82 89.2391C176.289 89.2391 178.34 86.3171 178.34 84.8197C178.34 83.3223 177.149 82.1086 175.68 82.1086C174.211 82.1086 173.02 83.3223 173.02 84.8197Z" fill="black"/>
<path d="M166.812 85.9249C166.812 87.048 167.088 89.2392 168.312 89.2392C169.537 89.2392 171.246 87.048 171.246 85.9249C171.246 84.8018 170.254 83.8914 169.029 83.8914C167.805 83.8914 166.812 84.8018 166.812 85.9249Z" fill="black"/>
<path d="M173.02 93.0553C173.02 94.1784 173.24 96.3696 174.22 96.3696C175.199 96.3696 176.566 94.1784 176.566 93.0553C176.566 91.9321 175.772 91.0217 174.793 91.0217C173.813 91.0217 173.02 91.9321 173.02 93.0553Z" fill="black"/>
<path d="M166.812 93.0553C166.812 94.1784 167.088 96.3696 168.312 96.3696C169.537 96.3696 171.246 94.1784 171.246 93.0553C171.246 91.9321 170.254 91.0217 169.029 91.0217C167.805 91.0217 166.812 91.9321 166.812 93.0553Z" fill="black"/>
<path d="M161.493 93.0553C161.493 94.1784 161.713 96.3696 162.693 96.3696C163.672 96.3696 165.039 94.1784 165.039 93.0553C165.039 91.9321 164.246 91.0217 163.266 91.0217C162.287 91.0217 161.493 91.9321 161.493 93.0553Z" fill="black"/>
<path d="M36.4683 21.7508C36.4683 22.8738 36.6889 25.0651 37.6684 25.0651C38.6478 25.0651 40.0151 22.8738 40.0151 21.7508C40.0151 20.6277 39.2211 19.7173 38.2417 19.7173C37.2622 19.7173 36.4683 20.6277 36.4683 21.7508Z" fill="black"/>
<path d="M31.1479 21.7508C31.1479 22.8738 31.3686 25.0651 32.3481 25.0651C33.3275 25.0651 34.6947 22.8738 34.6947 21.7508C34.6947 20.6277 33.9008 19.7173 32.9214 19.7173C31.9419 19.7173 31.1479 20.6277 31.1479 21.7508Z" fill="black"/>
<path d="M24.9409 21.7508C24.9409 22.8738 25.2168 25.0651 26.4411 25.0651C27.6654 25.0651 29.3744 22.8738 29.3744 21.7508C29.3744 20.6277 28.3819 19.7173 27.1577 19.7173C25.9334 19.7173 24.9409 20.6277 24.9409 21.7508Z" fill="black"/>
<path d="M172.133 100.186C172.133 101.309 172.408 103.5 173.633 103.5C174.857 103.5 176.566 101.309 176.566 100.186C176.566 99.0625 175.574 98.1521 174.35 98.1521C173.125 98.1521 172.133 99.0625 172.133 100.186Z" fill="black"/>
<path d="M150.852 108.848C150.458 109.525 149.197 112.078 147.306 116.87" stroke="black" stroke-width="1.2" stroke-linecap="round"/>
</svg>
