<svg width="331" height="279" viewBox="0 0 331 279" fill="none" xmlns="http://www.w3.org/2000/svg">
<path d="M291.325 149.551H136.973V267.543H291.325V149.551Z" fill="white"/>
<path d="M96.2109 249.165L101.801 95.4268H274.891V242.876L96.2109 249.165Z" stroke="#242938" stroke-width="2"/>
<path d="M275.66 94.6121H101.064V125.47H275.66V94.6121Z" fill="#242938"/>
<path d="M114.795 117.943C118.911 117.943 122.228 114.424 122.228 110.058C122.228 105.691 118.911 102.172 114.795 102.172C110.679 102.172 107.361 105.691 107.361 110.058C107.361 114.392 110.709 117.943 114.795 117.943Z" fill="white"/>
<path d="M134.115 117.943C138.231 117.943 141.549 114.424 141.549 110.058C141.549 105.691 138.231 102.172 134.115 102.172C129.999 102.172 126.682 105.691 126.682 110.058C126.682 114.392 130.03 117.943 134.115 117.943Z" fill="white"/>
<path d="M153.435 117.943C157.552 117.943 160.869 114.424 160.869 110.058C160.869 105.691 157.552 102.172 153.435 102.172C149.319 102.172 146.002 105.691 146.002 110.058C146.002 114.392 149.319 117.943 153.435 117.943Z" fill="white"/>
<path d="M76.6445 145.478V273.767H215.516L215.731 245.743" stroke="#D58B8B" stroke-width="2"/>
<path d="M136.879 134.985L235.849 137.657C240.58 137.788 244.327 141.959 244.204 147.009C244.081 152.027 240.15 156.003 235.388 155.873L136.418 153.201C131.688 153.07 127.941 148.899 128.063 143.849C128.186 138.83 132.149 134.855 136.879 134.985Z" stroke="#242938" stroke-width="2"/>
<path d="M152.457 176.955L218.342 175.326C223.072 175.261 227.004 179.269 227.066 184.287C227.127 189.305 223.349 193.476 218.618 193.541L152.733 195.17C148.003 195.236 144.071 191.228 144.009 186.21C143.917 181.191 147.726 177.053 152.457 176.955Z" stroke="#242938" stroke-width="2"/>
<path d="M152.457 208.481L218.342 206.852C223.072 206.786 227.004 210.794 227.066 215.813C227.127 220.831 223.349 225.002 218.618 225.067L152.733 226.696C148.003 226.761 144.071 222.753 144.009 217.735C143.917 212.717 147.726 208.579 152.457 208.481Z" stroke="#242938" stroke-width="2"/>
<path d="M126.938 201.175C133.72 201.069 139.125 195.505 139.019 188.67C138.913 181.888 133.349 176.483 126.514 176.589C119.732 176.695 114.327 182.259 114.433 189.094C114.539 195.876 120.156 201.281 126.938 201.175Z" fill="#D58B8B"/>
<path d="M126.938 232.701C133.72 232.595 139.125 227.031 139.019 220.196C138.913 213.414 133.349 208.009 126.514 208.115C119.732 208.221 114.327 213.785 114.433 220.62C114.539 227.402 120.156 232.807 126.938 232.701Z" fill="#D58B8B"/>
<path d="M192.816 173.338C189.652 177.086 186.457 179.171 181.85 181.257C170.792 186.242 157.921 182.234 152.423 168.548C146.71 154.309 151.563 137.494 166.368 130.814C177.949 125.568 189.652 130.293 194.352 142.024C198.468 152.288 195.642 161.151 188.546 164.377C185.444 165.779 182.587 164.997 180.805 161.51L180.621 161.608C179.976 166.007 177.826 169.2 174.293 170.829C170.085 172.719 165.539 170.732 163.235 164.997C159.795 156.394 162.713 146.032 172.112 141.763C175.061 140.427 178.624 139.743 180.621 139.906L183.846 153.787C184.921 158.186 186.058 159.881 187.993 159.099C190.819 157.991 192.816 152.549 189.59 144.435C185.935 135.279 177.58 130.782 167.444 135.376C157.307 139.971 151.809 152.256 157.184 165.648C161.884 177.379 171.498 180.8 181.45 176.304C184.676 174.837 187.993 172.459 190.051 169.852L192.816 173.338ZM175.43 147.107C174.785 147.237 174.078 147.4 173.28 147.759C168.949 149.714 167.321 155.807 169.502 161.184C170.577 163.823 172.358 164.997 174.478 164.052C176.904 162.944 178.164 158.512 177.119 154.178L175.43 147.107Z" fill="#242938"/>
<path d="M195.611 169.265C192.447 173.013 189.252 175.098 184.645 177.184C173.587 182.169 160.716 178.161 155.218 164.475C149.505 150.236 154.358 133.421 169.163 126.741C180.744 121.495 192.447 126.22 197.146 137.951C201.263 148.215 198.437 157.078 191.341 160.304C188.239 161.706 185.382 160.924 183.6 157.437L183.416 157.535C182.771 161.934 180.621 165.127 177.088 166.756C172.88 168.646 168.334 166.659 166.03 160.924C162.59 152.321 165.508 141.959 174.907 137.69C177.856 136.354 181.419 135.67 183.416 135.833L186.641 149.714C187.716 154.113 188.853 155.808 190.788 155.026C193.614 153.918 195.611 148.476 192.385 140.362C188.73 131.206 180.375 126.709 170.238 131.303C160.102 135.865 154.604 148.183 159.979 161.575C164.679 173.306 174.293 176.727 184.245 172.231C187.471 170.764 190.788 168.386 192.846 165.779L195.611 169.265ZM178.225 143.034C177.58 143.164 176.873 143.327 176.075 143.686C171.744 145.641 170.116 151.734 172.296 157.111C173.372 159.75 175.153 160.924 177.273 159.979C179.699 158.871 180.959 154.439 179.914 150.105L178.225 143.034Z" fill="#587291"/>
<path d="M86.044 242.354L63.0063 249.784L66.7845 257.474L57.6309 266.826L66.0473 274.712L75.2624 262.134L80.2385 265.718L86.044 242.354Z" fill="#EC5B60" stroke="#242938" stroke-width="2"/>
<path d="M86.7506 238.933L59.689 247.666L64.1123 256.692L53.3613 267.673L63.2215 276.927L74.0338 262.133L79.9008 266.337L86.7506 238.933Z" stroke="#242938" stroke-width="2"/>
<path d="M107.268 166.561C103.306 164.671 88.8994 157.437 82.2031 154.081L99.8346 111.166C101.309 110.97 106.807 110.547 117.067 110.547C130.951 110.547 135.128 117.292 141.425 119.051C149.965 121.691 150.855 125.047 150.64 126.122C150.456 127.198 145.05 130.587 135.128 128.469C127.203 126.807 126.958 128.86 127.818 130.098C130.306 135.637 140.473 140.884 144.558 141.568C148.644 142.252 162.897 140.167 159.948 146.619C157.89 151.181 149.934 152.093 144.866 151.995C148.736 152.289 154.05 153.299 154.05 155.743C152.422 160.761 147.047 161.347 144.558 161.021C139.828 166.594 134.913 167.017 133.04 166.561C132.61 167.506 130.92 169.689 127.818 170.895C123.917 172.361 112.214 168.94 107.268 166.561Z" fill="#D58B8B"/>
<path d="M241.441 175.326C245.403 173.436 268.533 164.54 279.161 155.416L248.874 119.898C247.4 119.703 241.901 119.279 231.642 119.279C217.758 119.279 213.58 126.024 207.283 127.784C198.744 130.423 197.853 133.78 198.068 134.855C198.253 135.93 203.659 139.319 213.58 137.201C221.505 135.539 221.751 137.592 220.891 138.83C218.403 144.37 211.338 149.909 207.283 149.095C200.833 147.824 188.945 143.066 188.945 150.235C188.945 155.579 199.451 160.337 204.672 160.63C201.017 160.597 196.072 160.239 194.935 163.106C194.229 167.082 196.901 168.45 204.181 169.721C208.911 175.293 213.826 175.717 215.7 175.261C216.13 176.206 217.819 178.389 220.922 179.595C224.792 181.159 236.495 177.705 241.441 175.326Z" fill="#D58B8B"/>
<path d="M229.922 31.1684C212.475 27.1604 193.369 32.8303 186.027 36.154C168.427 34.4921 130.184 30.4841 118.02 27.7795C102.815 24.3906 88.6239 31.1684 82.0198 36.154C75.4157 41.1395 62.1152 51.9579 45.3745 61.6683C5.50392 80.796 -2.94324 112.925 0.804225 119.67C4.55169 126.416 20.5859 136.68 47.8318 141.796C67.9822 145.576 78.6102 153.429 81.9891 154.537C94.368 148.378 101.064 120.257 102.846 106.962L94.6445 97.8382L106.04 88.4536L114.365 94.6774H229.092L255.878 106.962C253.635 107.777 247.768 115.76 245.127 119.638C241.625 142.415 262.42 154.406 273.263 157.567C276.12 157.665 282.601 157.241 285.857 154.537C289.943 151.148 321.919 123.353 328.861 111.948C335.803 100.543 324.776 84.1523 311.168 76.788C297.561 69.4563 251.731 36.154 229.922 31.1684Z" fill="#EC5B60"/>
<path d="M260.793 62.287L262.943 71.3458L260.793 62.287ZM206.885 67.4029L214.441 73.529L206.885 67.4029ZM214.472 54.2059L221.537 48.6663L214.472 54.2059ZM186.151 58.0509L184.615 67.4355L186.151 58.0509ZM153.837 86.1721L166.615 90.3431L153.837 86.1721ZM127.604 54.2059L133.379 58.0509L127.604 54.2059ZM99.3142 77.146L110.004 75.5167L99.3142 77.146ZM88.2868 40.8784L93.1708 48.6337L88.2868 40.8784ZM54.191 64.177L49.0306 70.303L54.191 64.177ZM79.5018 104.941L88.2868 111.687L79.5018 104.941ZM64.5734 124.656C54.8054 128.826 55.2047 128.957 56.6177 128.501L64.5734 124.656ZM26.1465 107.516L29.1875 96.8602L26.1465 107.516ZM265.37 145.38L274.524 143.751L265.37 145.38ZM270.592 107.516L268.104 119.181L270.592 107.516ZM315.039 99.1411L321.152 107.516L315.039 99.1411Z" stroke="#242938" stroke-width="2" stroke-linecap="round"/>
<path d="M259.256 103.866C263.679 99.1742 273.631 89.1379 278.147 86.6614" stroke="#242938" stroke-width="2" stroke-linecap="round"/>
<path d="M92.4937 96.2416C77.0738 89.6267 58.0907 83.4355 41.5957 89.8874" stroke="#242938" stroke-width="2" stroke-linecap="round"/>
<path d="M48.2012 79.2969C50.1671 79.2969 55.9111 80.4048 63.0374 84.7712" stroke="#242938" stroke-width="2" stroke-linecap="round"/>
<path d="M140.105 31.6896C143.637 31.6896 146.463 28.6591 146.463 24.9444C146.463 21.1971 143.606 18.1992 140.105 18.1992C136.572 18.1992 133.746 21.2297 133.746 24.9444C133.716 28.6591 136.572 31.6896 140.105 31.6896Z" fill="#242938"/>
<path d="M140.106 44.1378C143.639 44.1378 146.465 41.1074 146.465 37.3926C146.465 33.6779 143.608 30.6475 140.106 30.6475C136.574 30.6475 133.748 33.6779 133.748 37.3926C133.748 41.1074 136.574 44.1378 140.106 44.1378Z" fill="#242938"/>
<path d="M133.716 37.3922C137.248 37.3922 140.074 34.3618 140.074 30.647C140.074 26.8997 137.218 23.9019 133.716 23.9019C130.183 23.9019 127.357 26.9323 127.357 30.647C127.357 34.3618 130.214 37.3922 133.716 37.3922Z" fill="#242938"/>
<path d="M190.082 29.6693C190.082 45.2451 178.194 57.8557 163.512 57.8557C138.815 60.3974 136.941 45.2451 136.941 29.6693C136.941 14.0935 148.829 1.48291 163.512 1.48291C178.194 1.48291 190.082 14.0935 190.082 29.6693Z" fill="#D58B8B"/>
<path d="M163.511 0.994141C153.006 0.994141 143.33 7.67415 139.521 17.9386L189.836 25.7591C188.024 12.0406 176.935 0.994141 163.511 0.994141Z" fill="#EC5B60"/>
<path d="M188.793 25.5633L119.803 15.4292" stroke="#242938" stroke-width="2" stroke-linecap="round"/>
<path d="M145.941 51.2736L149.658 58.6053C155.771 71.9654 178.778 67.6641 178.501 52.2838C178.317 40.9766 145.941 51.2736 145.941 51.2736Z" fill="#D58B8B"/>
<path d="M188.486 37.3922C192.234 37.3922 195.244 34.1337 195.244 30.0931C195.244 26.0525 192.203 22.7939 188.486 22.7939C184.739 22.7939 181.729 26.0525 181.729 30.0931C181.729 34.1337 184.739 37.3922 188.486 37.3922Z" fill="#242938"/>
<path d="M195.366 37.3921C197.301 37.3921 198.837 35.6976 198.837 33.5796C198.837 31.4615 197.27 29.7671 195.366 29.7671C193.43 29.7671 191.895 31.4615 191.895 33.5796C191.895 35.6976 193.43 37.3921 195.366 37.3921Z" fill="#242938"/>
<path d="M198.038 40.0312C198.038 44.7561 194.444 49.2529 189.959 49.9698C183.877 50.9148 178.717 44.4629 178.717 39.738C178.717 35.0131 185.505 31.4939 189.959 31.4939C194.444 31.4613 198.038 35.3064 198.038 40.0312Z" fill="#242938"/>
<path d="M139.186 29.0826C144.5 29.832 149.353 25.7914 150.06 20.089L130.862 17.417C130.155 23.1194 133.872 28.3331 139.186 29.0826Z" fill="#242938"/>
<path d="M150.059 26.8999C153.438 27.3561 156.509 24.7493 156.97 21.0671L144.776 19.4053C144.315 23.12 146.711 26.4437 150.059 26.8999Z" fill="#242938"/>
<path d="M180.774 41.4002C183.447 42.3452 186.487 40.2923 187.563 36.8383C188.638 33.3842 187.317 29.8324 184.644 28.92C181.972 27.9751 178.931 30.0279 177.887 33.482C176.812 36.936 178.102 40.4878 180.774 41.4002Z" fill="#AD5B5B"/>
<path d="M179.24 35.1766C180.131 33.5799 182.619 31.69 184.923 32.1136" stroke="#242938" stroke-width="2" stroke-linecap="round"/>
<path d="M183.447 32.3413C183.724 32.7975 184.277 34.2313 184.369 35.2088" stroke="#242938" stroke-width="2" stroke-linecap="round"/>
<path d="M151.133 45.4733L156.846 36.5449L158.474 46.8419L151.133 45.4733Z" fill="#AD5B5B"/>
<path d="M156.233 37.1968L151.072 44.9847L157.984 46.1252" stroke="#242938" stroke-width="2" stroke-linecap="round"/>
<path d="M156.938 51.2732C157.828 51.3058 160.071 51.1429 161.914 50.2305" stroke="#242938" stroke-width="2" stroke-linecap="round"/>
<path d="M164.709 29.702C165.6 29.6695 167.842 29.8324 169.685 30.7448" stroke="#242938" stroke-width="2" stroke-linecap="round"/>
<path d="M148.861 26.1825C147.97 26.1499 145.728 26.3129 143.885 27.2252" stroke="#242938" stroke-width="2" stroke-linecap="round"/>
<path d="M157.215 57.0411C159.396 57.4647 163.297 57.7905 166.276 55.1511" stroke="#242938" stroke-width="2" stroke-linecap="round"/>
<path d="M147.109 38.4018C148.031 38.4018 148.799 37.5871 148.799 36.6096C148.799 35.632 148.031 34.8174 147.109 34.8174C146.188 34.8174 145.42 35.632 145.42 36.6096C145.42 37.6197 146.188 38.4018 147.109 38.4018Z" fill="#242938"/>
<path d="M166.77 38.4018C167.691 38.4018 168.459 37.5871 168.459 36.6096C168.459 35.632 167.691 34.8174 166.77 34.8174C165.848 34.8174 165.08 35.632 165.08 36.6096C165.08 37.6197 165.848 38.4018 166.77 38.4018Z" fill="#242938"/>
<path d="M169.072 48.5365C170.946 48.5365 172.451 46.9398 172.451 44.9521C172.451 42.9644 170.946 41.3677 169.072 41.3677C167.198 41.3677 165.693 42.9644 165.693 44.9521C165.693 46.9072 167.198 48.5365 169.072 48.5365Z" fill="#AD5B5B"/>
<path d="M144.406 46.6131C146.28 46.6131 147.785 45.0164 147.785 43.0287C147.785 41.041 146.28 39.4443 144.406 39.4443C142.532 39.4443 141.027 41.041 141.027 43.0287C141.027 45.0164 142.563 46.6131 144.406 46.6131Z" fill="#AD5B5B"/>
<path d="M218.282 175.326C220.032 175.261 223.995 175.326 226.053 174.707M207.654 160.565C207.654 160.565 213.766 161.575 220.647 159.424L207.654 160.565ZM206.824 169.33C208.606 169.884 218.282 170.536 221.906 168.776L206.824 169.33Z" stroke="#242938" stroke-width="2" stroke-linecap="round"/>
<path d="M131.383 166.3C125.854 167.995 117.376 165.779 114.98 164.28M143.025 151.93C139.155 152.614 133.226 151.93 128.465 149.649L143.025 151.93ZM141.428 160.696C136.083 161.087 125.516 161.315 119.926 157.404L141.428 160.696Z" stroke="#242938" stroke-width="2" stroke-linecap="round"/>
</svg>
