<svg width="202" height="163" viewBox="0 0 202 163" fill="none" xmlns="http://www.w3.org/2000/svg">
<path d="M1.82812 119.574C4.29728 106.316 15.6255 81.7991 19.0375 89.417C23.3024 98.94 21.6563 126.201 15.8949 127.789C10.1335 129.376 18.5137 89.604 25.6967 92.4047C31.4432 94.6455 28.0912 106.284 25.6967 111.824C26.5448 104.356 27.6342 93.8985 39.3894 86.8967" stroke="black" stroke-width="2" stroke-linecap="round"/>
<path d="M177.415 32.3195C178.965 23.5754 186.078 7.40484 188.22 12.4297C190.898 18.7106 189.865 36.6916 186.247 37.7384C182.63 38.7852 187.892 12.5528 192.402 14.4002C196.011 15.878 193.905 23.5548 192.402 27.2085C192.934 22.2822 193.619 15.3855 201 10.7671" stroke="#FFDC4D" stroke-width="2" stroke-linecap="round"/>
<path d="M40.5607 34.0112L43.6436 41.9544L54.4154 36.6806L47.488 46.8579L56.4057 51.6827L46.116 52.9723L46.7266 61.4895L40.5607 55.6936L32.044 63.6261L35.0054 52.9723L26.7061 51.6827L33.6333 46.8579L30.7567 40.0551L37.4778 41.9544L40.5607 34.0112Z" fill="black"/>
<path d="M126.174 152.867H92.2681C91.9521 152.146 91.8842 150.485 94.1415 149.61C96.3988 148.734 98.2892 149.975 98.9521 150.704C99.168 148.382 100.562 143.651 104.41 143.309C108.259 142.968 109.468 146.353 109.591 148.088C113.125 142.428 116.213 146.744 117.316 149.61C120.998 148.136 124.755 151.167 126.174 152.867Z" fill="#D1EAFF"/>
<path d="M1 9.5813H41.8604C42.2414 8.8605 42.3233 7.20003 39.6033 6.32435C36.8824 5.44867 34.6046 6.68923 33.8052 7.4189C33.5456 5.09635 31.8659 0.365727 27.2274 0.0240512C22.5898 -0.317712 21.1332 3.0674 20.9841 4.80267C16.7256 -0.856991 13.0039 3.45891 11.6745 6.32435C7.23733 4.85067 2.70934 7.88162 1 9.5813Z" fill="#D1EAFF"/>
<path d="M184.756 37.7029H74.6416V117.666H184.756V37.7029Z" fill="#D1EAFF"/>
<path d="M53.667 102.936L57.3423 7.19067H171.123V99.0211L53.667 102.936Z" stroke="black" stroke-width="1.2"/>
<path d="M171.123 6.13843H56.8135V25.0772H171.123V6.13843Z" fill="black"/>
<path d="M40.0332 135.553V15.6077H131.271V135.553H40.0332Z" stroke="#FFDC4D" stroke-width="1.2"/>
<path d="M65.727 20.8685C68.3333 20.8685 70.4462 18.7487 70.4462 16.1339C70.4462 13.519 68.3333 11.3992 65.727 11.3992C63.1207 11.3992 61.0078 13.519 61.0078 16.1339C61.0078 18.7487 63.1207 20.8685 65.727 20.8685Z" fill="white"/>
<path d="M77.7875 20.8685C80.6834 20.8685 83.031 18.7487 83.031 16.1339C83.031 13.519 80.6834 11.3992 77.7875 11.3992C74.8916 11.3992 72.5439 13.519 72.5439 16.1339C72.5439 18.7487 74.8916 20.8685 77.7875 20.8685Z" fill="white"/>
<path d="M90.8969 20.8685C93.5033 20.8685 95.6161 18.7487 95.6161 16.1339C95.6161 13.519 93.5033 11.3992 90.8969 11.3992C88.2906 11.3992 86.1777 13.519 86.1777 16.1339C86.1777 18.7487 88.2906 20.8685 90.8969 20.8685Z" fill="white"/>
<path d="M149.695 6.13843L151.599 10.8109L158.252 7.70861L153.973 13.6953L159.482 16.5334L153.126 17.292L153.503 22.3022L149.695 18.8928L144.434 23.559L146.263 17.292L141.138 16.5334L145.416 13.6953L143.639 9.69364L147.79 10.8109L149.695 6.13843Z" fill="black"/>
<path d="M164.895 87.1438L165.711 88.7791L168.562 87.6934L166.729 89.7887L169.089 90.782L166.365 91.0475L166.527 92.8011L164.895 91.6078L162.641 93.241L163.424 91.0475L161.228 90.782L163.061 89.7887L162.3 88.3881L164.078 88.7791L164.895 87.1438Z" fill="black"/>
<path d="M107.069 89.757C123.471 89.757 136.768 76.6929 136.768 60.5776C136.768 44.4623 123.471 31.3982 107.069 31.3982C90.6661 31.3982 77.3691 44.4623 77.3691 60.5776C77.3691 76.6929 90.6661 89.757 107.069 89.757Z" fill="#3D98E7"/>
<path d="M91.4328 66.8501C90.751 62.6673 81.7729 60.6351 77.3691 60.1418C77.3691 74.8385 87.8631 86.9822 101.472 88.8857C101.709 88.7506 102.106 88.0699 102.561 86.9255C103.129 85.4951 102.04 83.1275 98.0148 83.4234C95.9365 83.5763 92.2852 72.0786 91.4328 66.8501Z" fill="black"/>
<path d="M123.499 44.5603C124.318 42.3086 120.458 36.5894 118.426 34.0112C124.761 36.6005 130.017 41.5215 133.276 47.7918C132.699 48.0177 131.293 48.532 130.279 48.7822C129.01 49.0949 122.474 47.3749 123.499 44.5603Z" fill="black"/>
<path d="M116.708 88.015C116.708 86.8774 105.638 79.5085 111.148 74.6619C119.444 67.3652 107.593 57.1543 107.95 54.4346C109.229 44.6918 128.86 56.5612 135.895 55.2258" stroke="black" stroke-width="2"/>
<path d="M79.6826 50.1347C82.5514 51.4498 92.6678 49.3351 94.4797 45.0845C96.7445 39.7713 93.5234 38.4036 97.0465 37.1936C99.865 36.2257 100.52 33.0904 100.368 32.3013" stroke="black" stroke-width="2"/>
<path d="M157.899 114.627C157.899 116.639 157.464 120.565 155.535 120.565C153.605 120.565 150.911 116.639 150.911 114.627C150.911 112.615 152.476 110.984 154.405 110.984C156.335 110.984 157.899 112.615 157.899 114.627Z" fill="black"/>
<path d="M166.636 116.247C166.636 117.71 166.309 120.565 164.862 120.565C163.415 120.565 161.395 117.71 161.395 116.247C161.395 114.783 162.568 113.597 164.015 113.597C165.462 113.597 166.636 114.783 166.636 116.247Z" fill="black"/>
<path d="M158.774 126.16C158.774 127.806 158.393 131.018 156.705 131.018C155.017 131.018 152.659 127.806 152.659 126.16C152.659 124.513 154.028 123.179 155.717 123.179C157.405 123.179 158.774 124.513 158.774 126.16Z" fill="black"/>
<path d="M166.636 126.16C166.636 127.806 166.31 131.018 164.862 131.018C163.415 131.018 161.395 127.806 161.395 126.16C161.395 124.513 162.568 123.179 164.015 123.179C165.462 123.179 166.636 124.513 166.636 126.16Z" fill="black"/>
<path d="M175.37 126.16C175.37 127.806 174.99 131.018 173.302 131.018C171.613 131.018 169.256 127.806 169.256 126.16C169.256 124.513 170.625 123.179 172.313 123.179C174.002 123.179 175.37 124.513 175.37 126.16Z" fill="black"/>
<path d="M158.774 136.28C158.774 137.744 158.393 140.599 156.705 140.599C155.017 140.599 152.659 137.744 152.659 136.28C152.659 134.817 154.028 133.631 155.717 133.631C157.405 133.631 158.774 134.817 158.774 136.28Z" fill="black"/>
<path d="M179.737 139.261C179.737 142.371 179.03 148.438 175.893 148.438C172.758 148.438 168.381 142.371 168.381 139.261C168.381 136.151 170.923 133.631 174.059 133.631C177.194 133.631 179.737 136.151 179.737 139.261Z" fill="black"/>
<path d="M61.7787 158.359C61.7787 159.822 61.3982 162.677 59.7097 162.677C58.0211 162.677 55.6641 159.822 55.6641 158.359C55.6641 156.895 57.0329 155.709 58.7213 155.709C60.4099 155.709 61.7787 156.895 61.7787 158.359Z" fill="black"/>
<path d="M69.64 158.359C69.64 159.822 69.2596 162.677 67.571 162.677C65.8825 162.677 63.5254 159.822 63.5254 158.359C63.5254 156.895 64.8942 155.709 66.5827 155.709C68.2712 155.709 69.64 156.895 69.64 158.359Z" fill="black"/>
<path d="M77.5023 158.359C77.5023 159.822 77.1219 162.677 75.4333 162.677C73.7448 162.677 71.3877 159.822 71.3877 158.359C71.3877 156.895 72.7565 155.709 74.445 155.709C76.1335 155.709 77.5023 156.895 77.5023 158.359Z" fill="black"/>
</svg>
