<svg width="171" height="133" viewBox="0 0 171 133" fill="none" xmlns="http://www.w3.org/2000/svg">
<path d="M157.859 55.446H144.217V105.533L100.858 106.91V114.026L156.067 113.429L157.859 55.446Z" fill="#D1EAFF"/>
<path d="M43.3896 108.71L46.5313 21.2529H143.749V105.138L124.623 105.818H113.829H113.82H113.811L43.3896 108.71Z" stroke="black" stroke-width="1.2"/>
<path d="M52.5391 99.6107H81.4756H52.5391ZM52.5391 95.0198H100.399H52.5391Z" stroke="black" stroke-width="1.2" stroke-linecap="round"/>
<path d="M116.291 125.963H91.7639H116.291ZM116.291 119.26H84.5986H116.291ZM116.291 122.382H97.1286H116.291Z" stroke="black" stroke-width="1.2" stroke-linecap="round"/>
<path d="M67.6546 28.3592H0.319812C-0.304849 27.1196 -0.442642 24.2641 4.04022 22.7582C8.52308 21.2524 12.2802 23.3826 13.5939 24.6405C14.0256 20.6464 16.7907 12.5113 24.4336 11.9237C32.0765 11.336 34.4741 17.1573 34.7221 20.1414C41.7404 10.4087 47.8767 17.8276 50.0631 22.7582C57.3753 20.2241 64.8344 25.4302 67.6546 28.3592Z" fill="#D1EAFF"/>
<path d="M122.124 13.9412H167.293C167.715 13.1424 167.807 11.2968 164.794 10.3235C161.79 9.35027 159.273 10.7275 158.382 11.5447C158.097 8.96463 156.242 3.70343 151.106 3.32698C145.981 2.95052 144.373 6.70589 144.208 8.64326C139.504 2.3537 135.389 7.14662 133.919 10.3327C129.023 8.67999 124.016 12.0497 122.124 13.9412Z" stroke="black" stroke-width="1.2"/>
<path d="M144.079 49.5237H162.911L165.161 111.777L100.353 110.262V106.956" stroke="black" stroke-width="1.2"/>
<path d="M44.1797 71.147H31.6865V131.747H116.245" stroke="black" stroke-width="1.2"/>
<path d="M44.4553 71.5145H31.7783V82.4409H44.4553V71.5145Z" fill="black"/>
<path d="M119.276 110.767V124.126" stroke="black" stroke-width="1.2"/>
<path d="M45.9991 20.702H144.301V38.2944H45.3652L45.9991 20.702Z" fill="black"/>
<path d="M53.7325 33.9974C56.0382 33.9974 57.9122 31.9866 57.9122 29.5075C57.9122 27.0284 56.0382 25.0176 53.7325 25.0176C51.4267 25.0176 49.5527 27.0284 49.5527 29.5075C49.5527 31.9866 51.4267 33.9974 53.7325 33.9974Z" fill="white"/>
<path d="M64.6094 33.9974C66.9151 33.9974 68.7891 31.9866 68.7891 29.5075C68.7891 27.0284 66.9151 25.0176 64.6094 25.0176C62.3037 25.0176 60.4297 27.0284 60.4297 29.5075C60.4297 31.9866 62.2945 33.9974 64.6094 33.9974Z" fill="white"/>
<path d="M75.4854 33.9974C77.8003 33.9974 79.6651 31.9866 79.6651 29.5075C79.6651 27.0284 77.7911 25.0176 75.4854 25.0176C73.1796 25.0176 71.3057 27.0284 71.3057 29.5075C71.3057 31.9866 73.1705 33.9974 75.4854 33.9974Z" fill="white"/>
<path d="M94.2266 87.0408C117.707 87.0408 136.74 81.3573 136.74 74.3515C136.74 67.3458 117.707 61.6622 94.2266 61.6622C70.7467 61.6622 51.7129 67.3458 51.7129 74.3515C51.7129 81.3573 70.7467 87.0408 94.2266 87.0408Z" fill="#FFDC4D"/>
<path d="M71.9541 78.4002C74.8732 73.9126 88.2008 65.6169 92.2108 68.1914C97.2234 71.4185 95.3068 80.644 88.5251 81.1803C81.7434 81.7167 91.6211 68.254 100.054 69.2016C106.806 69.9614 102.885 73.9037 100.054 75.772C101.057 73.2422 102.324 69.7022 116.183 67.3333" stroke="black" stroke-width="1.2" stroke-linecap="round"/>
<path d="M102.282 55.8318L130.098 55.942L102.282 55.8318ZM92.958 49.4229L131.54 50.1666L92.958 49.4229Z" stroke="black" stroke-width="1.2" stroke-linecap="round"/>
<path d="M54.8806 49.1564C54.063 50.3409 52.2074 52.4711 51.0224 51.6539C49.8374 50.8367 49.773 47.3843 50.5906 46.1999C51.4082 45.0154 53.0341 44.7124 54.2192 45.5296C55.395 46.3468 55.689 47.972 54.8806 49.1564Z" fill="black"/>
<path d="M60.8708 53.2701C60.0532 54.4545 58.1976 56.5847 57.0126 55.7675C55.8276 54.9504 55.7633 51.498 56.5809 50.3135C57.3984 49.1291 59.0244 48.8261 60.2094 49.6433C61.3852 50.4604 61.6792 52.0856 60.8708 53.2701Z" fill="black"/>
<path d="M66.8513 57.3836C66.0337 58.5681 64.1781 60.6983 62.9931 59.8811C61.8081 59.0639 61.7438 55.6115 62.5613 54.4271C63.3789 53.2426 65.0048 52.9396 66.1899 53.7568C67.3657 54.574 67.6597 56.1992 66.8513 57.3836Z" fill="black"/>
<path d="M114.272 68.6483L116.092 52.2922L131.939 63.1753L114.272 68.6483Z" fill="black"/>
<path d="M166.927 16.5341L151.48 4.31523L116.055 51.9444L115.008 60.7007L116.695 57.5786L116.593 62.5793L120.624 60.0696L118.629 63.6706L124.681 64.0662L122.732 66.8056L131.503 64.1541L166.927 16.5341Z" fill="#FEDC4E"/>
<path d="M121.174 52.4253L152.528 10.6999" stroke="black" stroke-width="1.2" stroke-linecap="round"/>
<path d="M125.467 55.0405L156.821 13.3152" stroke="black" stroke-width="1.2" stroke-linecap="round"/>
<path d="M129.574 58.7889L160.929 17.0637" stroke="black" stroke-width="1.2" stroke-linecap="round"/>
</svg>
