<svg width="335" height="300" viewBox="0 0 335 300" fill="none" xmlns="http://www.w3.org/2000/svg">
<path d="M294.133 147.901H118.26V274.5H294.133V147.901Z" fill="white"/>
<path d="M72.7754 254.79L79.1325 90.2878H275.939V248.063L72.7754 254.79Z" stroke="#242938" stroke-width="2"/>
<path d="M278.914 89.3303H102.041V118.46H278.914V89.3303Z" fill="#242938"/>
<path d="M93.999 114.547C98.6043 114.547 102.338 110.643 102.338 105.829C102.338 101.014 98.6043 97.1108 93.999 97.1108C89.3936 97.1108 85.6602 101.014 85.6602 105.829C85.6602 110.643 89.3936 114.547 93.999 114.547Z" fill="white"/>
<path d="M115.605 114.547C120.419 114.547 124.322 110.643 124.322 105.829C124.322 101.014 120.419 97.1108 115.605 97.1108C110.79 97.1108 106.887 101.014 106.887 105.829C106.887 110.643 110.79 114.547 115.605 114.547Z" fill="white"/>
<path d="M137.591 114.547C141.987 114.547 145.55 110.643 145.55 105.829C145.55 101.014 141.987 97.1108 137.591 97.1108C133.195 97.1108 129.631 101.014 129.631 105.829C129.631 110.643 133.195 114.547 137.591 114.547Z" fill="white"/>
<path d="M50.791 144.111V281.322H208.213L208.47 251.349" stroke="#D58B8B" stroke-width="2"/>
<path d="M118.465 132.743L231.507 135.565C236.924 135.7 241.202 140.099 241.064 145.387C240.926 150.677 236.423 154.856 231.006 154.721L117.964 151.899C112.548 151.765 108.269 147.366 108.408 142.077C108.546 136.787 113.048 132.609 118.465 132.743Z" stroke="#242938" stroke-width="2"/>
<path d="M99.7575 176.992L211.51 175.193C216.864 175.108 221.273 179.556 221.356 185.129C221.438 190.703 217.164 195.29 211.81 195.376L100.058 197.175C94.7036 197.26 90.2949 192.812 90.2121 187.24C90.1292 181.666 94.4033 177.079 99.7575 176.992Z" stroke="#242938" stroke-width="2"/>
<path d="M134.997 200.21L247.394 202.055C252.781 202.144 257.074 206.554 256.985 211.904C256.896 217.255 252.459 221.521 247.072 221.433L134.675 219.589C129.288 219.5 124.995 215.09 125.083 209.739C125.173 204.389 129.61 200.122 134.997 200.21Z" stroke="#242938" stroke-width="2"/>
<path d="M212.618 219.791C217.09 219.865 220.775 216.302 220.849 211.834C220.923 207.365 217.358 203.683 212.885 203.609C208.413 203.535 204.727 207.098 204.653 211.567C204.579 216.035 208.145 219.717 212.618 219.791Z" fill="#D58B8B"/>
<path d="M133.767 194.772C138.239 194.703 141.809 191.024 141.74 186.555C141.67 182.087 137.989 178.52 133.516 178.589C129.044 178.659 125.474 182.337 125.543 186.806C125.612 191.274 129.294 194.841 133.767 194.772Z" fill="#D58B8B"/>
<path d="M78.0794 229.773L28.9087 245.441L36.9535 261.665L17.4336 281.381L35.3749 298L55.0464 271.472L65.698 279.009L78.0794 229.773Z" fill="white" stroke="#242938" stroke-width="2"/>
<path d="M76.5646 237.354L34.7645 250.401L41.6069 263.926L25.0156 280.353L40.2717 294.209L56.9907 272.104L66.0474 278.388L76.5646 237.354Z" fill="#EC5B60" stroke="#242938" stroke-width="2"/>
<path d="M103.574 150.951C100.255 149.515 88.2198 144.027 82.6172 141.462L97.3505 108.841C98.5738 108.688 103.169 108.38 111.765 108.38C123.36 108.38 126.87 113.509 132.136 114.842C139.263 116.843 140.008 119.407 139.848 120.228C139.689 121.049 135.168 123.613 126.87 122.023C120.232 120.751 120.027 122.313 120.754 123.254C122.828 127.46 131.338 131.46 134.742 131.973C138.146 132.486 150.061 130.896 147.614 135.82C145.892 139.285 139.242 139.988 135 139.898C138.229 140.131 142.667 140.9 142.667 142.744C141.306 146.56 136.817 147.001 134.742 146.745C130.785 150.971 126.676 151.31 125.115 150.951C124.743 151.669 123.349 153.331 120.754 154.233C117.509 155.362 107.722 152.746 103.574 150.951Z" fill="#D58B8B"/>
<path d="M242.306 164.256C245.518 162.76 264.23 155.708 272.829 148.495L248.33 120.392C247.145 120.232 242.697 119.912 234.376 119.912C223.152 119.912 219.754 125.254 214.656 126.643C207.757 128.727 207.036 131.399 207.19 132.253C207.345 133.108 211.721 135.78 219.754 134.123C226.179 132.798 226.378 134.426 225.675 135.406C223.667 139.787 217.934 144.165 214.656 143.527C209.447 142.511 199.818 138.747 199.818 144.435C199.818 148.66 208.311 152.423 212.547 152.668C209.585 152.649 205.592 152.361 204.658 154.639C204.092 157.792 206.254 158.86 212.133 159.875C215.964 164.278 219.942 164.63 221.453 164.256C221.813 165.004 223.162 166.735 225.675 167.676C228.816 168.851 238.289 166.126 242.306 164.256Z" fill="#D58B8B"/>
<path d="M232.223 29.3179C214.589 25.5188 195.314 30.9009 187.881 34.0669C170.103 32.4839 131.472 28.6762 119.185 26.1092C103.826 22.9005 89.4956 29.3179 82.8121 34.0669C76.1288 38.8158 62.698 49.0837 45.7968 58.3248C5.56839 76.4862 -2.97747 107.033 0.813979 113.451C4.60548 119.868 20.7998 129.623 48.3031 134.5C68.6419 138.107 79.3848 145.56 82.8121 146.629C95.3048 140.776 102.07 114.028 103.89 101.386L95.6004 92.7224L107.103 83.8022L115.523 89.7075H231.389L258.442 101.386C256.18 102.156 250.259 109.75 247.581 113.451C244.034 135.116 265.039 146.523 275.986 149.517C278.855 149.623 285.419 149.196 288.71 146.629C292.822 143.42 325.146 116.98 332.151 106.135C339.156 95.2894 328.038 79.695 314.286 72.7C300.534 65.7049 254.265 34.0669 232.223 29.3179Z" fill="#EC5B60"/>
<path d="M263.532 58.3488L265.72 67.0062M209.035 63.259L216.692 69.1382L209.035 63.259ZM216.692 50.596L223.834 45.2982L216.692 50.596ZM188.06 54.2786L186.515 63.259L188.06 54.2786ZM155.374 81.2197L168.307 85.2254L155.374 81.2197ZM128.865 50.596L134.72 54.2786L128.865 50.596ZM100.233 72.5624L111.043 71.0118L100.233 72.5624ZM89.1021 37.8684L94.0564 45.2982L89.1021 37.8684ZM54.6149 60.1578L49.4032 66.0371L54.6149 60.1578ZM80.2229 99.1805L89.1021 105.641L80.2229 99.1805ZM65.1026 118.046C55.2197 122.026 55.6229 122.159 57.0599 121.728L65.1026 118.046ZM26.2402 101.636L29.3286 91.4276L26.2402 101.636ZM268.165 137.88L277.43 136.33L268.165 137.88ZM273.441 101.636L270.932 112.813L273.441 101.636ZM318.416 93.6243L324.593 101.636L318.416 93.6243Z" stroke="#242938" stroke-width="2" stroke-linecap="round"/>
<path d="M262.395 98.0697C266.932 93.8257 277.172 84.776 281.831 82.5339" stroke="#242938" stroke-width="2" stroke-linecap="round"/>
<path d="M93.2981 91.2728C77.6822 84.893 58.474 78.942 41.791 85.1646" stroke="#242938" stroke-width="2" stroke-linecap="round"/>
<path d="M48.5898 74.7664C50.5293 74.7664 56.1601 75.7373 63.1673 79.6213" stroke="#242938" stroke-width="2" stroke-linecap="round"/>
<path d="M141.889 29.1292C145.646 29.1292 148.692 26.3035 148.692 22.8178C148.692 19.3321 145.646 16.5063 141.889 16.5063C138.132 16.5063 135.086 19.3321 135.086 22.8178C135.086 26.3035 138.132 29.1292 141.889 29.1292Z" fill="#242938"/>
<path d="M141.889 41.752C145.646 41.752 148.692 38.709 148.692 34.9551C148.692 31.2013 145.646 28.1582 141.889 28.1582C138.132 28.1582 135.086 31.2013 135.086 34.9551C135.086 38.709 138.132 41.752 141.889 41.752Z" fill="#242938"/>
<path d="M135.571 34.9554C139.06 34.9554 141.888 32.1296 141.888 28.6439C141.888 25.1582 139.06 22.3325 135.571 22.3325C132.082 22.3325 129.254 25.1582 129.254 28.6439C129.254 32.1296 132.082 34.9554 135.571 34.9554Z" fill="#242938"/>
<path d="M192.423 28.0249C192.423 42.9663 180.24 55.0788 165.211 55.0788C139.937 57.5105 138 42.9663 138 28.0249C138 13.0835 150.183 0.971191 165.211 0.971191C180.24 0.971191 192.423 13.0835 192.423 28.0249Z" fill="#D58B8B"/>
<path d="M165.47 0C154.719 0 144.824 6.54964 140.916 16.6056L192.423 24.2747C190.588 10.8213 179.22 0 165.47 0Z" fill="#EC5B60"/>
<path d="M191.45 24.2741L121.479 13.5933" stroke="#242938" stroke-width="2" stroke-linecap="round"/>
<path d="M147.719 48.7023L151.491 55.5985C157.69 68.1801 181.039 64.1309 180.759 49.6548C180.553 39.015 147.719 48.7023 147.719 48.7023Z" fill="#D58B8B"/>
<path d="M190.479 34.9559C194.236 34.9559 197.281 31.9128 197.281 28.159C197.281 24.4051 194.236 21.3621 190.479 21.3621C186.722 21.3621 183.676 24.4051 183.676 28.159C183.676 31.9128 186.722 34.9559 190.479 34.9559Z" fill="#242938"/>
<path d="M197.282 34.9551C199.429 34.9551 201.169 33.4336 201.169 31.5567C201.169 29.6797 199.429 28.1582 197.282 28.1582C195.135 28.1582 193.395 29.6797 193.395 31.5567C193.395 33.4336 195.135 34.9551 197.282 34.9551Z" fill="#242938"/>
<path d="M200.196 37.6256C200.196 42.3179 196.591 46.7888 192.082 47.4852C185.97 48.4292 180.76 42.0032 180.76 37.311C180.76 32.6188 187.599 29.1296 192.082 29.1296C196.564 29.1296 200.196 32.9334 200.196 37.6256Z" fill="#242938"/>
<path d="M140.64 27.1077C145.983 27.7794 150.894 24.1222 151.607 18.9392L132.257 16.5063C131.544 21.6895 135.298 26.4358 140.64 27.1077Z" fill="#242938"/>
<path d="M151.289 25.1915C154.763 25.6641 157.951 22.9769 158.409 19.1892L145.831 17.4775C145.371 21.2652 147.816 24.7188 151.289 25.1915Z" fill="#242938"/>
<path d="M182.728 38.8236C185.431 39.7109 188.496 37.7723 189.574 34.4937C190.652 31.2151 189.336 27.8379 186.633 26.9506C183.931 26.0633 180.866 28.0019 179.788 31.2805C178.709 34.5591 180.026 37.9363 182.728 38.8236Z" fill="#AD5B5B"/>
<path d="M180.76 33.0138C181.835 31.5359 184.819 29.7626 187.563 30.1566" stroke="#242938" stroke-width="2" stroke-linecap="round"/>
<path d="M185.621 30.1008C185.904 30.5465 186.502 32.0138 186.593 33.0138" stroke="#242938" stroke-width="2" stroke-linecap="round"/>
<path d="M152.576 42.4166L158.614 33.9851L160.351 43.695L152.576 42.4166Z" fill="#AD5B5B"/>
<path d="M158.378 34.9553L152.576 42.5817L160.351 43.6942" stroke="#242938" stroke-width="2" stroke-linecap="round"/>
<path d="M158.41 48.5467C159.459 48.579 162.096 48.4305 164.241 47.5789" stroke="#242938" stroke-width="2" stroke-linecap="round"/>
<path d="M166.184 28.1622C167.233 28.1299 169.87 28.2782 172.015 29.13" stroke="#242938" stroke-width="2" stroke-linecap="round"/>
<path d="M150.635 24.2789C149.76 24.2467 147.564 24.395 145.775 25.2467" stroke="#242938" stroke-width="2" stroke-linecap="round"/>
<path d="M158.41 53.2794C160.759 53.4675 164.924 53.6085 168.128 52.4333" stroke="#242938" stroke-width="2" stroke-linecap="round"/>
<path d="M148.692 35.9269C149.765 35.9269 150.635 35.2748 150.635 34.4704C150.635 33.666 149.765 33.0139 148.692 33.0139C147.618 33.0139 146.748 33.666 146.748 34.4704C146.748 35.2748 147.618 35.9269 148.692 35.9269Z" fill="#242938"/>
<path d="M168.127 35.9269C169.201 35.9269 170.071 35.2748 170.071 34.4704C170.071 33.666 169.201 33.0139 168.127 33.0139C167.054 33.0139 166.184 33.666 166.184 34.4704C166.184 35.2748 167.054 35.9269 168.127 35.9269Z" fill="#242938"/>
<path d="M171.042 45.6365C172.653 45.6365 173.958 44.115 173.958 42.2381C173.958 40.3611 172.653 38.8396 171.042 38.8396C169.432 38.8396 168.127 40.3611 168.127 42.2381C168.127 44.115 169.432 45.6365 171.042 45.6365Z" fill="#AD5B5B"/>
<path d="M146.263 43.6941C148.141 43.6941 149.664 42.1726 149.664 40.2957C149.664 38.4188 148.141 36.8972 146.263 36.8972C144.384 36.8972 142.861 38.4188 142.861 40.2957C142.861 42.1726 144.384 43.6941 146.263 43.6941Z" fill="#AD5B5B"/>
<path d="M215.851 151.494C215.851 151.494 220.737 152.226 226.234 150.663M215.189 157.846C216.615 158.237 224.351 158.725 227.252 157.455M224.351 162.195C225.759 162.146 228.931 162.185 230.56 161.755" stroke="#242938" stroke-width="2" stroke-linecap="round"/>
<path d="M132.572 140.918C129.382 141.444 124.52 140.918 120.599 139.131M131.265 147.75C126.873 148.065 118.194 148.223 113.594 145.175M123.004 152.111C118.456 153.425 111.481 151.712 109.516 150.535" stroke="#242938" stroke-width="2" stroke-linecap="round"/>
</svg>
