<svg width="308" height="257" viewBox="0 0 308 257" fill="none" xmlns="http://www.w3.org/2000/svg">
<path d="M85.2837 27.4803C46.6384 1.02956 20.5848 30.536 12.3887 48.5957C21.8904 54.3637 43.0141 64.7131 59.1162 58.0387C75.2184 51.3642 83.9056 34.7248 85.2837 27.4803Z" fill="white"/>
<path d="M51.1168 56.4098C60.7621 56.4098 68.5812 48.4237 68.5812 38.5723C68.5812 28.721 60.7621 20.7349 51.1168 20.7349C41.4714 20.7349 33.6523 28.721 33.6523 38.5723C33.6523 48.4237 41.4714 56.4098 51.1168 56.4098Z" fill="#242938"/>
<path d="M13.1492 42.7471L1 36.6748" stroke="#242938" stroke-width="2" stroke-linecap="round"/>
<path d="M21.5016 30.6024L10.8711 22.2529" stroke="#242938" stroke-width="2" stroke-linecap="round"/>
<path d="M35.1675 19.9759L27.5742 8.59033" stroke="#242938" stroke-width="2" stroke-linecap="round"/>
<path d="M51.8741 14.6627L50.3555 1" stroke="#242938" stroke-width="2" stroke-linecap="round"/>
<path d="M119.003 129.482L117.305 78.6265L166.773 81.1585L169.698 129.482H119.003Z" stroke="#587291" stroke-width="2"/>
<path d="M72.377 16.9401L76.1736 4.79541" stroke="#242938" stroke-width="2" stroke-linecap="round"/>
<path d="M85.2852 23.7716L92.8784 13.145" stroke="#242938" stroke-width="2" stroke-linecap="round"/>
<path d="M178.809 96.084H102.117V172.747H178.809V96.084Z" fill="white"/>
<path d="M173.672 73.3123L171.973 22.4565L221.441 24.9886L224.366 73.3123H173.672Z" stroke="#242938" stroke-width="2"/>
<path d="M116.809 72.5539L115.027 23.2163H163.596L165.143 72.5539H116.809Z" stroke="#242938" stroke-width="2"/>
<path d="M115.785 61.1685H165.226L165.901 72.5541H116.172L115.785 61.1685Z" fill="#242938"/>
<path d="M62.1343 187.928L60.3516 139.247L107.652 137.072L110.467 187.928H62.1343Z" stroke="#587291" stroke-width="2"/>
<path d="M97.5218 153.322C91.7899 147.628 87.023 156.587 85.356 161.777C80.5474 158.72 70.5166 153.981 68.8624 159.484C67.2083 164.987 79.1689 173.655 85.356 177.302C91.7995 171.681 103.254 159.016 97.5218 153.322Z" fill="#242938"/>
<path d="M62.1328 127.964L60.3516 78.6265H108.92L110.467 127.964H62.1328Z" stroke="#242938" stroke-width="2"/>
<path d="M176.795 130.241L175.012 80.8335L222.313 78.6265L225.127 130.241H176.795Z" stroke="#242938" stroke-width="2"/>
<path d="M140.081 55.0957C146.791 55.0957 152.23 49.8283 152.23 43.3306C152.23 36.8329 146.791 31.5654 140.081 31.5654C133.371 31.5654 127.932 36.8329 127.932 43.3306C127.932 49.8283 133.371 55.0957 140.081 55.0957Z" fill="white"/>
<path d="M85.5606 88.4937L88.6346 96.2304L99.3751 91.0935L92.4679 101.005L101.36 105.705L91.0998 106.961L91.7086 115.256L85.5606 109.611L77.0686 117.337L80.0214 106.961L71.7461 105.705L78.6534 101.005L75.7849 94.3801L82.4866 96.2304L85.5606 88.4937Z" fill="#242938"/>
<path d="M89.3536 86.9756L92.4276 94.7123L103.168 89.5754L96.2608 99.4872L105.153 104.187L94.8928 105.443L95.5016 113.738L89.3536 108.093L80.8616 115.819L83.8144 105.443L75.5391 104.187L82.4463 99.4872L79.5779 92.862L86.2796 94.7123L89.3536 86.9756Z" fill="white"/>
<path d="M152.064 223.874H157.428H159.506C166.947 236.142 182.459 244.821 188.741 246.616C195.023 248.41 203.045 260.095 228.705 256.216C269.586 249.67 273.452 237.063 290.752 221.499C308.051 205.934 310.419 174.222 303.557 162.537C296.696 150.851 298.483 119.721 295.197 109.539C291.912 99.3563 281.474 81.4155 255.862 70.3601C235.373 61.5158 211.115 79.6376 201.547 89.8041C188.403 91.9763 170.427 103.866 163.082 109.539C162.582 110.444 157.051 118.121 138.92 141.59C116.256 170.925 135.054 210.395 138.92 211.607C142.786 212.819 146.99 223.874 152.064 223.874Z" fill="#EC5B60"/>
<path d="M184.122 225.121C184.122 222.505 183.122 219.994 181.342 218.144C179.561 216.294 177.147 215.254 174.63 215.254C172.112 215.254 169.698 216.294 167.919 218.144C166.138 219.994 165.139 222.505 165.139 225.121H168.819C168.819 223.519 169.431 221.983 170.52 220.85C171.61 219.717 173.088 219.079 174.63 219.079C176.171 219.079 177.649 219.717 178.739 220.85C179.829 221.983 180.441 223.519 180.441 225.121H184.122Z" fill="white"/>
<path d="M219.812 204.2C221.844 205.433 224.232 205.719 226.453 204.994C228.673 204.269 230.544 202.592 231.654 200.335C232.763 198.076 233.02 195.42 232.368 192.951C231.716 190.482 230.208 188.403 228.176 187.17L226.555 190.471C227.799 191.227 228.721 192.499 229.121 194.011C229.52 195.523 229.363 197.148 228.684 198.531C228.004 199.914 226.859 200.941 225.5 201.384C224.14 201.828 222.678 201.654 221.435 200.898L219.812 204.2Z" fill="white"/>
<path d="M213.424 229.675C211.17 230.873 209.506 232.88 208.797 235.256C208.088 237.63 208.392 240.177 209.641 242.338C210.892 244.498 212.986 246.093 215.462 246.773C217.94 247.453 220.596 247.162 222.849 245.964L221.022 242.805C219.643 243.539 218.015 243.718 216.5 243.301C214.983 242.885 213.701 241.908 212.935 240.586C212.17 239.263 211.984 237.703 212.419 236.249C212.853 234.795 213.871 233.566 215.251 232.832L213.424 229.675Z" fill="white"/>
<path d="M192.161 157.566C189.908 158.764 188.244 160.771 187.535 163.147C186.826 165.521 187.13 168.069 188.381 170.229C189.63 172.389 191.724 173.984 194.201 174.664C196.677 175.344 199.334 175.052 201.587 173.854L199.76 170.696C198.38 171.43 196.753 171.609 195.237 171.192C193.721 170.775 192.439 169.799 191.673 168.477C190.908 167.154 190.723 165.595 191.157 164.14C191.59 162.686 192.609 161.458 193.989 160.724L192.161 157.566Z" fill="white"/>
<path d="M250.182 139.883C249.844 137.418 248.526 135.187 246.515 133.679C244.504 132.171 241.967 131.511 239.461 131.842C236.955 132.174 234.686 133.471 233.152 135.448C231.619 137.425 230.947 139.921 231.284 142.385L234.948 141.899C234.742 140.391 235.153 138.863 236.092 137.653C237.031 136.442 238.42 135.648 239.954 135.445C241.488 135.242 243.042 135.646 244.273 136.569C245.504 137.493 246.312 138.859 246.519 140.368L250.182 139.883Z" fill="white"/>
<path d="M201.588 94.9283C203.035 96.9909 205.297 98.429 207.877 98.9279C210.455 99.4268 213.139 98.9449 215.34 97.5881C217.539 96.2322 219.074 94.1119 219.607 91.694C220.139 89.2771 219.625 86.7599 218.177 84.6982L214.961 86.6815C215.847 87.9439 216.162 89.4849 215.836 90.9646C215.51 92.4452 214.571 93.7434 213.224 94.574C211.877 95.4045 210.233 95.6993 208.654 95.3941C207.075 95.088 205.69 94.2074 204.804 92.945L201.588 94.9283Z" fill="white"/>
<path d="M283.594 215.608C283.257 212.968 281.938 210.577 279.927 208.962C277.916 207.346 275.38 206.639 272.874 206.993C270.368 207.349 268.098 208.739 266.565 210.857C265.031 212.975 264.36 215.649 264.696 218.289L268.36 217.769C268.154 216.153 268.565 214.516 269.504 213.219C270.443 211.922 271.832 211.072 273.366 210.854C274.9 210.636 276.454 211.069 277.685 212.059C278.916 213.048 279.724 214.511 279.931 216.129L283.594 215.608Z" fill="white"/>
<path d="M274.482 175.484C275.824 177.761 277.997 179.399 280.522 180.041C283.048 180.683 285.721 180.273 287.951 178.904C290.181 177.534 291.788 175.316 292.416 172.738C293.044 170.16 292.643 167.433 291.301 165.157L288.041 167.159C288.862 168.552 289.107 170.222 288.723 171.801C288.338 173.379 287.355 174.738 285.99 175.576C284.624 176.415 282.988 176.665 281.441 176.272C279.895 175.88 278.565 174.876 277.743 173.482L274.482 175.484Z" fill="white"/>
<path d="M268.408 105.137C269.694 107.299 271.777 108.856 274.197 109.466C276.618 110.075 279.179 109.686 281.316 108.385C283.453 107.084 284.993 104.977 285.594 102.528C286.197 100.079 285.813 97.4883 284.527 95.3252L281.402 97.2274C282.189 98.5519 282.424 100.138 282.056 101.638C281.687 103.137 280.745 104.427 279.436 105.224C278.127 106.02 276.56 106.257 275.078 105.885C273.596 105.512 272.321 104.558 271.533 103.235L268.408 105.137Z" fill="white"/>
<path d="M164.381 124.113C165.723 126.275 167.896 127.833 170.422 128.442C172.947 129.051 175.62 128.663 177.849 127.361C180.08 126.061 181.686 123.954 182.314 121.505C182.943 119.056 182.542 116.465 181.2 114.302L177.939 116.204C178.761 117.528 179.006 119.115 178.622 120.614C178.237 122.114 177.254 123.403 175.888 124.2C174.523 124.996 172.887 125.234 171.34 124.861C169.794 124.488 168.464 123.535 167.642 122.211L164.381 124.113Z" fill="white"/>
<path d="M153.751 155.07C152.635 152.633 150.613 150.747 148.131 149.828C145.649 148.909 142.91 149.031 140.517 150.167C138.123 151.304 136.271 153.361 135.368 155.888C134.464 158.414 134.585 161.202 135.701 163.639L139.2 161.977C138.516 160.486 138.444 158.779 138.997 157.232C139.55 155.685 140.683 154.425 142.149 153.73C143.614 153.034 145.291 152.959 146.81 153.522C148.33 154.085 149.567 155.239 150.251 156.731L153.751 155.07Z" fill="white"/>
<path d="M231.962 117.08L209.672 113.542C208.75 117.351 206.904 125.486 206.904 127.551C206.904 129.617 210.756 135.266 212.683 137.831C215.03 137.767 220.803 136.885 225.115 133.863C229.427 130.841 231.476 121.415 231.962 117.08Z" fill="white"/>
<path d="M162.863 177.212C171.9 181.624 193.423 189.124 207.225 183.83C224.476 177.212 221.432 178.758 225.056 173.59C228.68 168.421 230.468 161.176 235.011 158.471C239.553 155.766 238.635 145.477 235.011 133.112C231.386 120.746 243.806 84.8572 266.131 83.9395" stroke="#242938" stroke-width="2" stroke-linecap="round"/>
<path d="M159.105 184.133L170.452 188.851M154.506 211.016C155.971 212.753 159.265 216.638 160.704 218.29L154.506 211.016ZM155.156 205.462L164.253 211.016L155.156 205.462ZM156.005 199.221L166.203 199.909L156.005 199.221ZM157.905 192.979H166.803H157.905Z" stroke="#242938" stroke-width="2" stroke-linecap="round"/>
<path d="M196.272 95.3252C191.361 98.226 180.45 107.969 176.097 123.731C170.656 143.433 164.107 150.941 163.77 154.814C163.5 157.913 163.657 168.061 163.77 172.747" stroke="#242938" stroke-width="2" stroke-linecap="round"/>
<path d="M222.848 79.7387C228.038 83.3304 241.812 87.8484 249.424 77.8672" stroke="#242938" stroke-width="2" stroke-linecap="round"/>
<path d="M231.961 84.8392C233.74 85.4646 238.359 86.1589 242.591 83.9395" stroke="#242938" stroke-width="2" stroke-linecap="round"/>
<path d="M223.91 69.0965C224.33 73.613 222.837 76.4087 222.09 78.0762C231.052 85.7764 245.801 85.267 252.463 74.1035C250.77 71.6512 246.822 66.6671 247.753 61.1685L223.91 69.0965Z" fill="#AD5B5B"/>
<path d="M253.223 47.7944C253.223 60.5304 243.534 70.855 231.582 70.855C228.15 70.855 223.372 71.5943 220.49 70.0792C213.332 66.3176 209.941 56.8735 209.941 47.7944C209.941 35.0585 219.63 24.7339 231.582 24.7339C243.534 24.7339 253.223 35.0585 253.223 47.7944Z" fill="#AD5B5B"/>
<path d="M234.159 43.7111C226.629 44.1404 221.078 39.1746 219.244 36.638C217.618 36.2314 214.407 37.077 214.561 43.7111C214.716 50.3453 212.501 54.898 211.375 56.3452C213.032 60.82 216.131 65.9413 219.244 68.2964C221.118 69.7153 223.217 70.6125 224.215 70.9794C224.316 73.2162 223.588 75.028 223.395 75.272L182.605 81.6623L183.716 78.2964C185.598 72.4916 197.618 66.833 199.79 64.2965C201.962 61.7599 189.219 50.5404 197.618 45.1258C206.017 39.7111 203.99 37.516 206.789 27.6136C209.029 19.6917 218.568 18.0688 223.057 18.2478C234.758 11.9649 246.903 15.077 250.572 22.3453C252.792 25.4185 252.309 31.2721 258.633 30.3453C265.101 28.8819 272.439 32.638 274.128 36.638C276.497 42.2477 270.653 49.1258 280.597 50.5404C288.552 51.6721 295.528 56.6704 298.023 59.0282L282.383 65.8086L277.942 61.3209L276.252 67.6135L247.531 75.2233C246.677 74.4916 244.461 71.7891 242.414 66.833C240.367 61.8769 241.56 56.8005 242.414 54.8818C242.8 50.9794 241.69 43.2819 234.159 43.7111Z" fill="#242938"/>
<path d="M223.611 61.9268L224.745 54.3364L228.167 60.6519L223.611 61.9268Z" fill="#804141"/>
<path d="M230.441 71.7748C231.599 71.8854 234.285 71.5888 235.757 69.5176" stroke="#242938" stroke-width="2" stroke-linecap="round"/>
<path d="M224.865 55.0962L223.611 61.9276L228.167 60.58" stroke="#242938" stroke-width="2" stroke-linecap="round"/>
<path d="M230.442 64.9639L224.367 65.9544C224.966 66.4898 226.491 67.2727 227.653 67.24C229.572 67.1862 230.107 65.9071 230.442 64.9639Z" stroke="#242938" stroke-width="2"/>
<path d="M218.294 57.3726C219.133 57.3726 219.813 56.6929 219.813 55.8545C219.813 55.0161 219.133 54.3364 218.294 54.3364C217.455 54.3364 216.775 55.0161 216.775 55.8545C216.775 56.6929 217.455 57.3726 218.294 57.3726Z" fill="#242938"/>
<path d="M229.683 55.0957C230.521 55.0957 231.201 54.4161 231.201 53.5777C231.201 52.7392 230.521 52.0596 229.683 52.0596C228.844 52.0596 228.164 52.7392 228.164 53.5777C228.164 54.4161 228.844 55.0957 229.683 55.0957Z" fill="#242938"/>
<path d="M228.924 46.7856C230.173 46.5961 231.818 47.0977 232.72 48.2647" stroke="#242938" stroke-width="2" stroke-linecap="round"/>
<path d="M219.054 49.7822C217.458 49.8827 215.464 50.7358 214.498 52.0593" stroke="#242938" stroke-width="2" stroke-linecap="round"/>
<path d="M246.36 56.6546C248.775 57.7201 251.916 55.9014 253.376 52.5926C254.836 49.2838 254.063 45.7377 251.649 44.6723C249.234 43.6069 246.094 45.4255 244.633 48.7343C243.173 52.0431 243.946 55.5892 246.36 56.6546Z" fill="#804141"/>
<path d="M246.387 51.3008C247.013 49.7672 248.853 47.3507 250.183 46.7466" stroke="#242938" stroke-width="2" stroke-linecap="round"/>
<path d="M248.664 47.5054C249.609 48.1319 250.865 49.6368 250.942 50.5415" stroke="#242938" stroke-width="2" stroke-linecap="round"/>
<path d="M233.859 61.1682C234.908 61.1682 235.758 60.3187 235.758 59.2706C235.758 58.2226 234.908 57.373 233.859 57.373C232.811 57.373 231.961 58.2226 231.961 59.2706C231.961 60.3187 232.811 61.1682 233.859 61.1682Z" fill="#804141"/>
<path d="M217.534 61.9278C218.373 61.9278 219.053 61.2481 219.053 60.4097C219.053 59.5713 218.373 58.8916 217.534 58.8916C216.696 58.8916 216.016 59.5713 216.016 60.4097C216.016 61.2481 216.696 61.9278 217.534 61.9278Z" fill="#804141"/>
<path d="M116.075 134.447L159.826 176.509C152.457 187.93 152.534 203.049 153.494 209.181C129.469 198.335 114.316 185.276 109.743 180.102C107.44 177.189 110.703 174.226 112.621 173.107C109.858 167.934 114.988 165.522 117.898 164.963C117.169 159.904 121.336 158.896 123.511 159.023C121.033 156.611 115.097 149.767 111.182 141.681C107.268 133.594 112.813 133.489 116.075 134.447Z" fill="#AD5B5B"/>
</svg>
