<svg width="302" height="307" viewBox="0 0 302 307" fill="none" xmlns="http://www.w3.org/2000/svg">
<path d="M70.3716 249.118L1.38477 131.411L145.67 26.0889L229.4 133.033L70.3716 249.118Z" stroke="#242938" stroke-width="2"/>
<path d="M68.3641 161.802L54.1934 175.606L59.6839 179.476L56.3373 189.359L65.2789 191.607L67.5274 179.476L72.4427 180.051L68.3641 161.802Z" fill="#EC5B60" stroke="#242938" stroke-width="2"/>
<path d="M67.6514 159.188L51.0039 175.414L57.454 179.963L53.5225 191.579L64.0271 194.222L66.6686 179.963L72.443 180.638L67.6514 159.188Z" stroke="#242938" stroke-width="2"/>
<path d="M55.3977 70.1895L13.6699 99.5767L27.37 120.911" stroke="#EC5B60" stroke-width="2" stroke-linecap="round"/>
<path d="M76.9923 101.492L119.041 70.7985L76.4557 18.6465L46.7179 40.3539L44.9258 55.8459L76.9923 101.492Z" stroke="#242938" stroke-width="2"/>
<path d="M130.837 65.7588L84.1701 99.8234L47.7715 48.071L49.5394 30.4207L82.4979 6.3623L130.837 65.7588Z" fill="#EC5B60"/>
<path d="M49.5396 30.3447L47.7617 48.0189L59.3702 38.8158L49.5396 30.3447Z" fill="#242938"/>
<path d="M0.556641 131.238L145.761 25.2451L160.621 45.6024L13.6006 152.922L0.556641 131.238Z" fill="#242938"/>
<path d="M109.204 114.48L153.39 84.3602M87.4512 114.48L149.363 73.6406L87.4512 114.48Z" stroke="#242938" stroke-width="2" stroke-linecap="round"/>
<path d="M82.3434 260.715L58.362 276.786M86.7219 249.818L53.8027 272.612L86.7219 249.818Z" stroke="#242938" stroke-width="2" stroke-linecap="round"/>
<path d="M19.814 138.286C22.1932 136.549 22.7141 133.213 20.9774 130.833C19.2406 128.454 15.904 127.933 13.5248 129.67C11.1455 131.407 10.6247 134.743 12.3614 137.123C14.0982 139.502 17.4348 140.023 19.814 138.286Z" fill="white"/>
<path d="M32.1462 129.284C34.5254 127.547 35.0463 124.211 33.3095 121.831C31.5727 119.452 28.2361 118.931 25.8568 120.668C23.4776 122.405 22.9567 125.741 24.6935 128.121C26.4303 130.5 29.7669 131.021 32.1462 129.284Z" fill="white"/>
<path d="M44.4802 120.281C46.8594 118.544 47.3803 115.208 45.6435 112.829C43.9067 110.449 40.5701 109.928 38.1908 111.665C35.8116 113.402 35.2907 116.739 37.0275 119.118C38.7643 121.497 42.1009 122.018 44.4802 120.281Z" fill="white"/>
<path d="M66.4824 46.8855L85.6321 32.8545L98.8597 50.9076L78.7184 66.1113L66.4824 46.8855Z" fill="#242938"/>
<path d="M89.451 13.2899C91.8782 11.6724 92.989 9.0753 91.932 7.48918C90.8751 5.90307 88.0506 5.92853 85.6234 7.54606C83.1962 9.16359 82.0854 11.7607 83.1423 13.3468C84.1993 14.9329 87.0238 14.9074 89.451 13.2899Z" fill="#242938"/>
<path d="M93.2166 18.4149C95.6438 16.7974 96.7546 14.2003 95.6976 12.6142C94.6407 11.0281 91.8162 11.0535 89.389 12.6711C86.9618 14.2886 85.851 16.8857 86.9079 18.4718C87.9649 20.0579 90.7894 20.0324 93.2166 18.4149Z" fill="#242938"/>
<path d="M97.5037 22.912C99.9309 21.2944 101.042 18.6974 99.9848 17.1113C98.9278 15.5251 96.1033 15.5506 93.6761 17.1681C91.2489 18.7857 90.1381 21.3827 91.1951 22.9688C92.252 24.555 95.0765 24.5295 97.5037 22.912Z" fill="#242938"/>
<path d="M101.269 28.036C103.697 26.4185 104.807 23.8214 103.75 22.2353C102.693 20.6492 99.8689 20.6746 97.4417 22.2922C95.0145 23.9097 93.9037 26.5068 94.9607 28.0929C96.0176 29.679 98.8421 29.6535 101.269 28.036Z" fill="#242938"/>
<path d="M105.033 32.8465C107.46 31.229 108.571 28.6319 107.514 27.0458C106.457 25.4597 103.633 25.4852 101.205 27.1027C98.7782 28.7202 97.6674 31.3173 98.7244 32.9034C99.7813 34.4895 102.606 34.4641 105.033 32.8465Z" fill="#242938"/>
<path d="M108.799 37.9715C111.226 36.354 112.337 33.7569 111.28 32.1708C110.223 30.5847 107.398 30.6102 104.971 32.2277C102.544 33.8452 101.433 36.4423 102.49 38.0284C103.547 39.6145 106.371 39.5891 108.799 37.9715Z" fill="#242938"/>
<path d="M113.086 42.4686C115.513 40.8511 116.624 38.254 115.567 36.6679C114.51 35.0818 111.685 35.1072 109.258 36.7248C106.831 38.3423 105.72 40.9394 106.777 42.5255C107.834 44.1116 110.659 44.0861 113.086 42.4686Z" fill="#242938"/>
<path d="M116.851 47.5926C119.279 45.9751 120.389 43.378 119.332 41.7919C118.275 40.2058 115.451 40.2312 113.024 41.8488C110.597 43.4663 109.486 46.0634 110.543 47.6495C111.6 49.2356 114.424 49.2102 116.851 47.5926Z" fill="#242938"/>
<path d="M127.105 199.418L152.724 232.14L54.5088 293.574L13.4238 230.977L45.9332 207.246" stroke="#242938" stroke-width="2"/>
<path d="M12.7422 231.475L46.3009 206.979L57.646 226.381L25.0611 249.232L12.7422 231.475Z" fill="#242938"/>
<path d="M28.8671 239.071C30.847 237.625 31.2804 234.849 29.8352 232.869C28.39 230.889 25.6135 230.456 23.6336 231.901C21.6538 233.346 21.2204 236.123 22.6656 238.103C24.1108 240.082 26.8873 240.516 28.8671 239.071Z" fill="white"/>
<path d="M39.1289 231.58C41.1087 230.135 41.5421 227.359 40.0969 225.379C38.6517 223.399 35.8752 222.966 33.8953 224.411C31.9155 225.856 31.4821 228.633 32.9273 230.612C34.3725 232.592 37.149 233.026 39.1289 231.58Z" fill="white"/>
<path d="M49.3929 224.089C51.3728 222.644 51.8062 219.867 50.3609 217.887C48.9156 215.908 46.139 215.474 44.1591 216.919C42.1792 218.364 41.7458 221.141 43.1911 223.121C44.6364 225.1 47.413 225.534 49.3929 224.089Z" fill="white"/>
<path d="M184.972 19.207C193.59 21.7588 195.744 33.4126 195.744 38.9206L179.064 65.6933C175.315 66.0767 165.228 65.4632 154.853 59.9413C144.479 54.4195 153.424 47.4264 159.193 44.6202C160.883 43.3826 163.554 38.6591 160.71 29.6651C157.865 20.6712 149.554 20.061 145.755 20.8803C143.384 21.2114 139.522 20.7025 143.035 16.0173C150.147 7.02333 165.311 10.8056 172.004 13.8211C175.518 12.4825 180.44 16.854 182.463 19.207H184.972Z" fill="#D58B8B"/>
<path d="M116.198 260.966L71.2941 203.059C69.3552 199.677 69.8828 196.191 75.9583 199.011C79.199 200.515 81.4114 202.008 81.7594 202.468L75.5631 193.365C73.6104 189.462 76.2151 184.913 81.9627 189.467C83.3444 190.533 84.9074 192.197 85.516 192.895L82.4979 187.387C80.1511 182.717 82.201 177.05 88.4779 181.386C92.1273 183.981 94.2102 186.113 97.7061 190.339L94.2805 180.956C94.1622 177.969 95.175 173.114 100.173 177.594C105.17 182.073 118.563 202.656 120.624 205.848C121.173 206.014 121.091 206.795 121.393 205.158C121.771 203.112 121.952 192.07 123.094 187.633C123.75 185.083 125.876 181.991 129.334 189.238C132.792 196.485 136.154 225.073 138.044 228.073C139.463 230.326 143.228 236.479 143.786 236.822C143.809 236.818 143.831 236.815 143.853 236.812C143.845 236.842 143.822 236.844 143.786 236.822C139.425 237.49 126.343 245.391 126.343 245.391C126.343 245.391 115.305 252.087 116.198 260.966Z" fill="#D58B8B"/>
<path d="M81.9141 202.868L94.3034 218.787" stroke="#242938" stroke-width="2" stroke-linecap="round"/>
<path d="M85.9727 193.416L98.3621 209.335" stroke="#242938" stroke-width="2" stroke-linecap="round"/>
<path d="M97.4902 190.021L109.88 205.941" stroke="#242938" stroke-width="2" stroke-linecap="round"/>
<path d="M198.359 39.1812C176.773 38.4282 176.501 61.3524 179.064 72.9086C180.327 78.6082 232.557 105.642 233.08 109.041C233.498 111.76 226.805 125.583 223.406 132.154C217.148 135.692 198.17 148.458 172.318 171.215C146.466 193.972 144.534 222.146 146.8 233.388C146.155 230.965 143.516 225.639 138.12 223.714C131.375 221.309 127.034 220.368 115.008 229.519C105.386 236.839 104.236 247.036 104.863 251.219L110.668 257.965C121.578 272.571 145.137 302.464 152.082 305.183C160.762 308.582 174.253 306.124 179.064 301.784C182.912 298.312 187.43 279.142 189.208 269.991L194.489 290.699C224.347 299.849 261.003 282.018 263.879 278.201C266.755 274.384 286.05 266.593 291.854 262.305C296.497 258.875 300.551 247.35 301.998 242.016C298.773 229.971 291.07 203.279 286.05 192.863C279.775 179.843 281.71 97.4851 277.37 91.2102C273.898 86.1903 257.621 71.7582 249.917 65.1696C243.695 60.8295 230.35 58.1626 223.406 53.1428C214.726 46.8679 207.98 42.0572 198.359 39.1812Z" fill="#587291"/>
<path d="M213.732 46.3975C210.856 50.4238 209.047 62.4925 213.732 67.4705C219.589 73.6931 243.538 67.1568 249.761 76.4645C254.739 83.9107 269.788 89.2234 272.873 86.1382M217.916 98.6357C221.419 92.0994 254.226 94.7453 254.937 101.773C255.826 110.558 246.06 106.614 238.414 113.068C235.881 115.205 230.361 123.84 228.06 122.742M177.966 63.0258C181.94 63.0258 189.781 67.9622 190.306 74.5297C190.516 77.1646 189.417 80.5432 188.999 81.1706M280.403 123.474C274.494 123.474 272.656 139.56 264.925 154.9C256.081 172.444 231.773 186.745 237.838 207.609C243.681 227.707 287.985 216.237 294.103 215.034M293.998 260.109C291.331 257.756 291.352 248.73 282.86 245.467C272.245 241.389 262.779 249.179 249.761 249.546C232.865 250.023 213.732 243.428 206.673 245.467C201.026 247.099 201.879 256.466 203.013 260.945C207.405 269.887 225.968 286.306 227.171 292.058M143.559 298.019C147.742 294.098 150.803 278.112 161.494 277.208C172.189 276.303 177.913 292.895 182.672 294.725M116.943 228.055C118.93 230.617 110.218 237.645 113.439 245.467C117.466 255.246 129.943 257.61 131.323 269.103C131.944 274.284 131.323 281.286 129.858 282.384M193.653 168.234C200.747 170.779 216.577 174.007 223.145 166.561C229.712 159.115 226.544 150.037 224.138 146.429M164.318 196.001C173.789 190.359 189.721 189.098 193.653 194.955C198.568 202.275 216.718 216.475 217.863 219.008C223.249 230.931 214.674 238.983 189.104 232.029C168.648 226.465 162.547 251.16 153.337 240.186C147.957 233.777 147.501 227.835 150.095 219.008C152.688 210.182 155.516 201.242 164.318 196.001Z" stroke="white" stroke-width="2"/>
<path d="M147.01 235.219C145.998 243.708 144.583 261.458 147.01 264.554C149.436 267.649 150.6 274.175 150.879 277.051" stroke="#242938" stroke-width="2" stroke-linecap="round"/>
<path d="M237.055 106.253C238.676 101.25 245.86 94.8328 249.5 94.5399C254.049 94.1739 266.39 90.9319 269.056 92.4483" stroke="#242938" stroke-width="2" stroke-linecap="round"/>
<path d="M239.25 108.426C242.023 106.734 247.958 106.61 249.77 107.933C252.035 109.586 259.086 113.019 259.715 114.799" stroke="#242938" stroke-width="2" stroke-linecap="round"/>
<path d="M143.776 244.735C141.128 246.619 138.679 252.026 139.181 254.212C139.81 256.945 140.189 264.778 141.577 266.056" stroke="#242938" stroke-width="2" stroke-linecap="round"/>
<path d="M145.127 134.298C145.127 136.82 144.451 139.076 143.392 140.681C142.33 142.293 140.933 143.187 139.479 143.187C138.025 143.187 136.629 142.293 135.566 140.681C134.507 139.076 133.832 136.82 133.832 134.298C133.832 131.775 134.507 129.519 135.566 127.914C136.629 126.302 138.025 125.408 139.479 125.408C140.933 125.408 142.33 126.302 143.392 127.914C144.451 129.519 145.127 131.775 145.127 134.298Z" stroke="#242938" stroke-width="2"/>
<path d="M160.92 157.515C172.76 157.515 182.359 147.916 182.359 136.076C182.359 124.235 172.76 114.637 160.92 114.637C149.079 114.637 139.48 124.235 139.48 136.076C139.48 147.916 149.079 157.515 160.92 157.515Z" fill="#D58B8B"/>
<path d="M167.455 145.906C171.643 145.906 175.037 142.512 175.037 138.324C175.037 134.137 171.643 130.742 167.455 130.742C163.268 130.742 159.873 134.137 159.873 138.324C159.873 142.512 163.268 145.906 167.455 145.906Z" fill="#AD5B5B"/>
<path d="M143.925 142.245C145.109 142.245 146.069 141.168 146.069 139.84C146.069 138.511 145.109 137.435 143.925 137.435C142.741 137.435 141.781 138.511 141.781 139.84C141.781 141.168 142.741 142.245 143.925 142.245Z" fill="#AD5B5B"/>
<path d="M162.279 137.435C163.482 136.232 166.149 135.029 167.979 135.029" stroke="#242938" stroke-width="2" stroke-linecap="round"/>
<path d="M165.836 135.433C166.232 136.043 167.067 138.053 167.195 139.422" stroke="#242938" stroke-width="2" stroke-linecap="round"/>
<path d="M137.252 120.692L157.024 130.009L160.03 137.854C159.941 136.178 161.495 132.15 165.502 131.517C170.511 130.728 173.873 138.887 170.756 142.964C168.261 146.225 164.789 145.465 163.365 144.679L174.537 181.616L236.307 144.393C236.307 144.393 225.121 128.834 207.306 110.14C189.361 91.3106 174.849 96.5682 169.407 100.687C151.993 95.6903 140.714 111.942 137.252 120.692Z" fill="#242938"/>
<path d="M133.832 134.089L161.494 131.422" stroke="#242938" stroke-width="2"/>
<path d="M175.875 155.37C175.875 162.792 169.859 168.809 162.437 168.809C155.015 168.809 148.998 162.792 148.998 155.37C148.998 147.948 155.015 141.932 162.437 141.932" stroke="#242938" stroke-width="2"/>
<path d="M126.879 78.9221L124.631 60.8818L145.704 69.5098L126.879 78.9221Z" fill="#242938"/>
<path d="M174.256 10.3777L152.963 0.120117L124.434 59.3433L125.568 69.1326L126.702 65.3787L127.926 70.8692L131.952 67.3134L130.592 71.6535L137.756 70.8692L136.215 74.2615L145.727 69.6009L174.256 10.3777Z" fill="#EC5B60"/>
<path d="M130.748 58.9999L156.475 6.76172" stroke="#242938" stroke-width="2" stroke-linecap="round"/>
<path d="M136.133 60.9345L161.86 8.69629" stroke="#242938" stroke-width="2" stroke-linecap="round"/>
<path d="M141.572 64.1767L167.299 11.9385" stroke="#242938" stroke-width="2" stroke-linecap="round"/>
<path d="M145.441 43.4169C149.374 44.5463 155.481 45.0727 158.043 45.1947L152.03 57.9013C131.061 45.9268 140.526 42.005 145.441 43.4169Z" fill="#D58B8B"/>
</svg>
