<svg width="248" height="216" viewBox="0 0 248 216" fill="none" xmlns="http://www.w3.org/2000/svg">
<path d="M199.112 206.949C197.03 195.576 187.367 174.614 184.394 181.156C180.751 189.332 182.164 212.673 187.07 214.011C191.976 215.349 184.84 181.304 178.67 183.683C173.764 185.616 176.663 195.576 178.67 200.334C177.927 193.941 177.035 185.021 167 179" stroke="#FFDC4D" stroke-width="2" stroke-linecap="round"/>
<path d="M59.1772 25.1989C57.8392 17.6913 51.8182 3.86529 49.9599 8.17662C47.6556 13.5286 48.5476 28.9156 51.6696 29.8819C54.7916 30.7739 50.2573 8.32529 46.3919 9.88629C43.3443 11.15 45.1283 17.6913 46.3919 20.8876C45.9459 16.6506 45.3513 10.7783 39.0329 6.83862" stroke="#FFDC4D" stroke-width="2" stroke-linecap="round"/>
<path d="M154.856 112H50V188.145H154.856V112Z" fill="#D1EAFF"/>
<path d="M206.135 23.8611L203.533 30.6254L194.316 26.0911L200.262 34.7881L192.68 38.9507L201.452 40.0657L200.931 47.3504L206.135 42.4444L213.419 49.2087L210.892 40.0657L218.028 39.0251L212.081 34.8624L214.534 29.0644L208.811 30.6997L206.135 23.8611Z" fill="black"/>
<path d="M175.509 70.0963H204.425C204.722 69.5017 204.722 68.0893 202.79 67.2717C200.857 66.5283 199.222 67.569 198.701 68.238C198.553 66.231 197.363 62.217 194.018 61.9197C190.673 61.6223 189.707 64.5213 189.633 66.008C186.585 61.1763 183.983 64.893 183.017 67.346C179.895 66.0823 176.699 68.684 175.509 70.0963Z" fill="#D1EAFF"/>
<path d="M142.654 26.0912H107.791C107.494 25.4965 107.42 24.0842 109.724 23.2665C112.028 22.5232 113.961 23.5639 114.704 24.2329C114.927 22.2259 116.34 18.2119 120.354 17.9145C124.293 17.6172 125.557 20.5162 125.706 22.0029C129.348 17.1712 132.544 20.8879 133.659 23.3409C137.376 22.0772 141.241 24.6789 142.654 26.0912Z" fill="#D1EAFF"/>
<path d="M112.995 0L111.36 4.014L105.71 1.338L109.353 6.467L104.67 8.92L110.096 9.589L109.799 13.9003L113.069 11.0013L117.529 15.0153L115.968 9.66333L120.354 8.99433L116.712 6.54133L118.198 3.122L114.63 4.08833L112.995 0Z" fill="black"/>
<path d="M104.568 92L103.899 93.4123L101.446 92.446L103.007 94.23L101 95.0477L103.304 95.2707L103.156 96.7573L104.568 95.7167L106.501 97.129L105.832 95.2707L107.69 95.0477L106.129 94.23L106.798 93.0407L105.311 93.4123L104.568 92Z" fill="black"/>
<path d="M18.8893 21.0365C18.8893 22.7462 19.2609 26.0912 20.8963 26.0912C22.5316 26.0912 24.8359 22.7462 24.8359 21.0365C24.8359 19.3269 23.4979 17.9146 21.8626 17.9146C20.2273 17.9146 18.8893 19.3269 18.8893 21.0365Z" fill="black"/>
<path d="M11.4555 22.3744C11.4555 23.6381 11.7529 26.0911 12.9422 26.0911C14.2059 26.0911 15.9155 23.6381 15.9155 22.3744C15.9155 21.1107 14.9492 20.0701 13.6855 20.0701C12.4962 20.1444 11.4555 21.1851 11.4555 22.3744Z" fill="black"/>
<path d="M18.1458 30.9226C18.1458 32.3349 18.4431 35.0853 19.9298 35.0853C21.3421 35.0853 23.3491 32.3349 23.3491 30.9226C23.3491 29.5103 22.1598 28.3953 20.7475 28.3953C19.3351 28.3953 18.1458 29.5103 18.1458 30.9226Z" fill="black"/>
<path d="M11.4555 30.9225C11.4555 32.3348 11.7529 35.0851 12.9422 35.0851C14.2059 35.0851 15.9155 32.3348 15.9155 30.9225C15.9155 29.5101 14.9492 28.3952 13.6855 28.3952C12.4962 28.3208 11.4555 29.5101 11.4555 30.9225Z" fill="black"/>
<path d="M4.02225 30.9225C4.02225 32.3348 4.31958 35.0851 5.80625 35.0851C7.29292 35.0851 9.22559 32.3348 9.22559 30.9225C9.22559 29.5101 8.03625 28.3952 6.62392 28.3952C5.13725 28.3208 4.02225 29.5101 4.02225 30.9225Z" fill="black"/>
<path d="M18.1458 39.5453C18.1458 40.809 18.4431 43.262 19.9298 43.262C21.3421 43.262 23.3491 40.809 23.3491 39.5453C23.3491 38.2816 22.1598 37.241 20.7475 37.241C19.3351 37.241 18.1458 38.2816 18.1458 39.5453Z" fill="black"/>
<path d="M0.30542 42.1469C0.30542 44.8228 0.900082 50.0262 3.57608 50.0262C6.25208 50.0262 9.96875 44.8228 9.96875 42.1469C9.96875 39.4709 7.81308 37.3152 5.13708 37.3152C2.46109 37.3152 0.30542 39.4709 0.30542 42.1469Z" fill="black"/>
<path d="M209.777 161.898C209.777 163.162 210.074 165.615 211.561 165.615C212.973 165.615 214.98 163.162 214.98 161.898C214.98 160.634 213.791 159.594 212.378 159.594C210.966 159.594 209.777 160.634 209.777 161.898Z" fill="black"/>
<path d="M203.087 161.898C203.087 163.162 203.384 165.615 204.871 165.615C206.283 165.615 208.29 163.162 208.29 161.898C208.29 160.634 207.101 159.594 205.688 159.594C204.276 159.594 203.087 160.634 203.087 161.898Z" fill="black"/>
<path d="M44.048 109.191C42.5987 101.811 35.9491 88.1624 33.9463 92.4034C31.4429 97.7045 32.4091 112.881 35.791 113.765C39.1729 114.648 34.2538 92.5073 30.0375 94.0666C26.6643 95.3142 28.632 101.793 30.0375 104.876C29.5397 100.719 28.9002 94.8976 22 91" stroke="black" stroke-width="2" stroke-linecap="round"/>
<path d="M115.238 174.626L161.666 173.557V137.938M161.666 44H11.8492L7 179.069H38" stroke="black" stroke-width="2"/>
<path d="M11.8494 44H161.666V70.8212H10.8809L11.8494 44Z" fill="black"/>
<path d="M23.6391 64.2612C27.1602 64.2612 30.0146 61.1936 30.0146 57.4096C30.0146 53.6256 27.1602 50.5581 23.6391 50.5581C20.1181 50.5581 17.2637 53.6256 17.2637 57.4096C17.2637 61.1936 20.1181 64.2612 23.6391 64.2612Z" fill="white"/>
<path d="M40.2153 64.2612C43.7363 64.2612 46.5907 61.1936 46.5907 57.4096C46.5907 53.6256 43.7363 50.5581 40.2153 50.5581C36.6942 50.5581 33.8398 53.6256 33.8398 57.4096C33.8398 61.1936 36.6942 64.2612 40.2153 64.2612Z" fill="white"/>
<path d="M56.7924 64.2612C60.3135 64.2612 63.1679 61.1936 63.1679 57.4096C63.1679 53.6256 60.3135 50.5581 56.7924 50.5581C53.2714 50.5581 50.417 53.6256 50.417 57.4096C50.417 61.1936 53.2714 64.2612 56.7924 64.2612Z" fill="white"/>
<path d="M138.511 67L135 139L247 136.062V67H138.511Z" stroke="black" stroke-width="2"/>
<path d="M145.176 133.207H187.823M145.176 128.534H171.984H145.176Z" stroke="black" stroke-width="2" stroke-linecap="round"/>
<path d="M247 67H139V80H247V67Z" fill="black"/>
<path d="M196.397 161.898C196.397 163.162 196.694 165.615 198.181 165.615C199.593 165.615 201.6 163.162 201.6 161.898C201.6 160.634 200.411 159.594 198.998 159.594C197.586 159.594 196.397 160.634 196.397 161.898Z" fill="black"/>
<path d="M141.985 65.6362L142.431 65.1158H143.1H165.474C176.55 65.1158 185.47 56.1958 185.47 45.1202C185.47 34.0445 176.55 25.1245 165.474 25.1245H135.741C124.665 25.1245 115.745 34.0445 115.745 45.1202V51.3642C115.745 58.9462 121.915 65.1158 129.497 65.1158H131.132L130.909 66.7512L129.794 74.8535L141.985 65.6362Z" fill="#D1EAFF"/>
<path d="M144.438 64.2983L144.884 63.7779H145.553H167.927C179.003 63.7779 187.923 54.8579 187.923 43.7823C187.923 32.7066 179.003 23.7866 167.927 23.7866H138.194C127.118 23.7866 118.198 32.7066 118.198 43.7823V50.0263C118.198 57.6083 124.368 63.7779 131.95 63.7779H133.585L133.362 65.4133L132.247 73.5156L144.438 64.2983Z" stroke="black" stroke-width="2" stroke-linecap="round"/>
<path d="M89.1631 184.813L89.0926 184.727H88.9814H50.0402C41.7335 184.727 35.0002 177.982 35.0002 169.662V152.066C35.0002 143.745 41.7341 137 50.0402 137H100.8C109.107 137 115.84 143.745 115.84 152.066V169.662C115.84 177.982 109.107 184.727 100.8 184.727H99.0319H98.7622L98.7992 184.995L100.723 198.939L89.1631 184.813Z" stroke="black" stroke-width="2"/>
<path d="M57.9063 153.604C66.0972 153.604 83.7718 153.604 93.2559 153.604" stroke="black" stroke-width="2"/>
<path d="M57.9068 159.49C67.6903 159.49 88.8016 159.49 100.13 159.49" stroke="black" stroke-width="2"/>
<path d="M57.9068 165.377C67.6903 165.377 88.8016 165.377 100.13 165.377" stroke="black" stroke-width="2"/>
<path d="M57.9068 171.264C67.6903 171.264 88.8016 171.264 100.13 171.264" stroke="black" stroke-width="2"/>
<path d="M148.824 41.2553H157.223C157.595 41.2553 157.818 40.9579 157.818 40.6606V39.5456C157.818 39.1739 157.521 38.9509 157.223 38.9509H148.824C148.452 38.9509 148.229 39.2483 148.229 39.5456V40.6606C148.229 40.9579 148.526 41.2553 148.824 41.2553Z" fill="black"/>
<path d="M157.223 51.959H148.824C148.452 51.959 148.229 52.2563 148.229 52.5536V53.6686C148.229 54.0403 148.526 54.2633 148.824 54.2633H157.223C157.595 54.2633 157.818 53.966 157.818 53.6686V52.5536C157.892 52.2563 157.595 51.959 157.223 51.959Z" fill="black"/>
<path d="M150.562 53.5344V40.3774H155.469V53.5344H150.562Z" fill="black"/>
<path d="M153.061 37.2411C151.419 37.2411 150.088 35.9099 150.088 34.2678C150.088 32.6256 151.419 31.2944 153.061 31.2944C154.703 31.2944 156.034 32.6256 156.034 34.2678C156.034 35.9099 154.703 37.2411 153.061 37.2411Z" fill="black"/>
</svg>
