<svg width="654" height="198" viewBox="0 0 654 198" fill="none" xmlns="http://www.w3.org/2000/svg">
<rect width="654" height="198" rx="10" fill="#E4EEFF"/>
<path d="M314.772 29.0272C314.772 32.3561 315.513 38.851 318.799 38.851C322.084 38.851 326.671 32.3561 326.671 29.0272C326.671 25.6985 324.007 23 320.722 23C317.436 23 314.772 25.6985 314.772 29.0272Z" fill="black"/>
<path d="M300.89 33.4637C300.89 35.9604 301.445 40.8316 303.909 40.8316C306.373 40.8316 309.814 35.9604 309.814 33.4637C309.814 30.9672 307.816 28.9434 305.352 28.9434C302.887 28.9434 300.89 30.9672 300.89 33.4637Z" fill="black"/>
<path d="M313.781 49.3153C313.781 51.812 314.337 56.6832 316.801 56.6832C319.265 56.6832 322.705 51.812 322.705 49.3153C322.705 46.8188 320.708 44.7949 318.243 44.7949C315.779 44.7949 313.781 46.8188 313.781 49.3153Z" fill="black"/>
<path d="M300.89 49.3153C300.89 51.812 301.445 56.6832 303.909 56.6832C306.373 56.6832 309.814 51.812 309.814 49.3153C309.814 46.8188 307.816 44.7949 305.352 44.7949C302.887 44.7949 300.89 46.8188 300.89 49.3153Z" fill="black"/>
<path d="M288 49.3153C288 51.812 288.555 56.6832 291.02 56.6832C293.484 56.6832 296.924 51.812 296.924 49.3153C296.924 46.8188 294.926 44.7949 292.462 44.7949C289.998 44.7949 288 46.8188 288 49.3153Z" fill="black"/>
<path d="M313.781 65.1649C313.781 67.6616 314.337 72.5328 316.801 72.5328C319.265 72.5328 322.705 67.6616 322.705 65.1649C322.705 62.6684 320.708 60.6445 318.243 60.6445C315.779 60.6445 313.781 62.6684 313.781 65.1649Z" fill="black"/>
<path d="M345 122H487.322C488.647 118.539 488.933 110.567 479.457 106.363C469.982 102.159 462.048 108.115 459.264 111.618C458.359 100.468 452.509 77.756 436.354 76.1154C420.199 74.4749 415.125 90.7267 414.607 99.0576C399.772 71.8859 386.81 92.6065 382.182 106.363C366.727 99.2885 350.954 113.84 345 122Z" stroke="black" stroke-width="1.2"/>
<path d="M307 143H391.597C392.385 140.292 392.554 134.053 386.922 130.763C381.29 127.473 376.574 132.133 374.92 134.875C374.381 126.149 370.903 108.374 361.301 107.09C351.699 105.806 348.683 118.525 348.375 125.045C339.558 103.78 331.852 119.996 329.101 130.763C319.914 125.226 310.539 136.614 307 143Z" fill="white"/>
<path d="M569 145.726C566.371 132.449 554.307 107.894 550.673 115.525C546.131 125.062 547.884 152.364 554.02 153.954C560.155 155.543 551.231 115.711 543.582 118.517C537.462 120.76 541.032 132.417 543.582 137.966C542.679 130.485 541.518 120.013 529 113" stroke="black" stroke-width="2" stroke-linecap="round"/>
</svg>
