<svg width="134" height="141" viewBox="0 0 134 141" fill="none" xmlns="http://www.w3.org/2000/svg">
<path d="M69.5161 105.889L38.5488 106.883L40.6785 48.2422L106.477 48.2422L106.477 104.49L93.312 104.954" fill="#F6F6F7"/>
<path d="M46.8812 62.4688L44.0938 139L133 134.096V62.4687L46.8812 62.4688Z" stroke="#242638" stroke-width="2"/>
<path d="M0 90.4373L46.7016 89.2434H88.906L88.906 21.8574L2.78741 21.8574L0 90.4373Z" fill="#242638"/>
<path d="M1.96406 15.8965L2.46752 1L88.8357 1V15.8965L1.96406 15.8965Z" stroke="#242638" stroke-width="2"/>
<path d="M8.9196 12.921C11.1264 12.921 12.9154 11.1411 12.9154 8.94537C12.9154 6.74968 11.1264 4.96973 8.9196 4.96973C6.7128 4.96973 4.92383 6.74968 4.92383 8.94537C4.92383 11.1411 6.7128 12.921 8.9196 12.921Z" fill="#242638"/>
<path d="M19.9079 12.921C22.1147 12.921 23.9037 11.1411 23.9037 8.94537C23.9037 6.74968 22.1147 4.96973 19.9079 4.96973C17.7011 4.96973 15.9121 6.74968 15.9121 8.94537C15.9121 11.1411 17.7011 12.921 19.9079 12.921Z" fill="#242638"/>
<path d="M30.8962 12.921C33.103 12.921 34.8919 11.1411 34.8919 8.94537C34.8919 6.74968 33.103 4.96973 30.8962 4.96973C28.6894 4.96973 26.9004 6.74968 26.9004 8.94537C26.9004 11.1411 28.6894 12.921 30.8962 12.921Z" fill="#242638"/>
<path d="M56.9551 47.6904L40.972 63.096L30.9825 54.6478" stroke="#EC5B60" stroke-width="10" stroke-miterlimit="10" stroke-linecap="round" stroke-linejoin="round"/>
</svg>
