<svg width="307" height="210" viewBox="0 0 307 210" fill="none" xmlns="http://www.w3.org/2000/svg">
<path d="M95.8459 162.82C95.8459 164.316 95.521 167.21 94.0589 167.21C92.5968 167.21 90.5498 164.3 90.5498 162.82C90.5498 161.34 91.7358 160.125 93.1979 160.125C94.66 160.125 95.8459 161.323 95.8459 162.82Z" fill="black"/>
<path d="M102.116 164.566C102.116 165.697 101.873 167.909 100.752 167.909C99.6469 167.909 98.1035 165.697 98.1035 164.566C98.1035 163.435 98.997 162.504 100.118 162.504C101.223 162.504 102.116 163.435 102.116 164.566Z" fill="black"/>
<path d="M96.544 171.734C96.544 172.864 96.3003 175.076 95.1793 175.076C94.0746 175.076 92.5312 172.864 92.5312 171.734C92.5312 170.603 93.4248 169.671 94.5457 169.671C95.6342 169.671 96.544 170.586 96.544 171.734Z" fill="black"/>
<path d="M102.133 171.734C102.133 172.864 101.889 175.076 100.768 175.076C99.6635 175.076 98.1201 172.864 98.1201 171.734C98.1201 170.603 99.0136 169.671 100.135 169.671C101.223 169.671 102.133 170.586 102.133 171.734Z" fill="black"/>
<path d="M107.704 171.734C107.704 172.864 107.46 175.076 106.339 175.076C105.219 175.076 103.691 172.864 103.691 171.734C103.691 170.603 104.585 169.671 105.706 169.671C106.811 169.671 107.704 170.586 107.704 171.734Z" fill="black"/>
<path d="M96.6084 178.885C96.6084 180.016 96.3647 182.228 95.2438 182.228C94.1228 182.228 92.5957 180.016 92.5957 178.885C92.5957 177.754 93.4892 176.823 94.6102 176.823C95.7149 176.839 96.6084 177.754 96.6084 178.885Z" fill="black"/>
<path d="M47.999 83H103.999" stroke="black" stroke-width="1.2" stroke-linecap="round"/>
<path d="M47.999 76H68.999" stroke="black" stroke-width="1.2" stroke-linecap="round"/>
<path d="M39.999 124L41.0781 56H133.136L134.999 121.459L39.999 124Z" stroke="black" stroke-width="1.2"/>
<path d="M133.999 55H40.999V68H133.999V55Z" fill="black"/>
<path d="M47.999 64C49.6466 64 50.999 62.6486 50.999 61C50.999 59.3514 49.6466 58 47.999 58C46.3515 58 44.999 59.3514 44.999 61C44.999 62.6486 46.3269 64 47.999 64Z" fill="white"/>
<path d="M56.999 64C59.1926 64 60.999 62.6486 60.999 61C60.999 59.3514 59.1926 58 56.999 58C54.8055 58 52.999 59.3514 52.999 61C52.999 62.6486 54.7732 64 56.999 64Z" fill="white"/>
<path d="M65.999 64C67.6466 64 68.999 62.6486 68.999 61C68.999 59.3514 67.6466 58 65.999 58C64.3515 58 62.999 59.3514 62.999 61C62.999 62.6486 64.3515 64 65.999 64Z" fill="white"/>
<path d="M201.864 185.727L255.931 191.95L263.97 122.112L209.665 117.955L201.864 185.727Z" fill="white"/>
<path d="M250.406 154.662L220.565 151.227" stroke="black" stroke-width="1.2" stroke-linecap="round"/>
<path d="M239.689 133.272L214.439 130.365" stroke="black" stroke-width="1.2" stroke-linecap="round"/>
<path d="M250.846 150.837L239.369 149.516" stroke="black" stroke-width="1.2" stroke-linecap="round"/>
<path d="M199.463 182.58L253.529 188.804L261.568 118.965L207.264 114.809L199.463 182.58Z" stroke="black" stroke-width="1.2"/>
<path d="M157.363 185.191C155.3 194.754 145.812 212.433 142.953 206.928C139.379 200.059 140.76 180.402 145.585 179.254C150.41 178.107 143.392 206.795 137.381 204.766C132.572 203.153 135.382 194.754 137.381 190.763C136.666 196.151 135.756 203.685 125.911 208.741" stroke="black" stroke-width="1.2" stroke-linecap="round"/>
<path d="M305.999 67.4222L252.675 48L242.999 74.5778L296.323 94L305.999 67.4222Z" stroke="black" stroke-width="1.2"/>
<path d="M272.906 74L252.999 48L304.999 67.8525L272.906 74Z" fill="black"/>
<path d="M28.4155 60L1.20801 64.1351L3.21469 78.0078L30.4222 73.8727L28.4155 60Z" stroke="black" stroke-width="1.2"/>
<path d="M15.7504 70.8449L1 64.5489L28.4941 60.4404L15.7504 70.8449Z" fill="black"/>
<path d="M91.1605 26.4811L74.3395 21.5093L72 29.8765L88.8209 34.818L91.1605 26.4811Z" stroke="black" stroke-width="1.2"/>
<path d="M75 22L81.1199 29.0894L91 26.5" stroke="black" stroke-width="1.2"/>
<path d="M269.477 101.779C269.477 111.343 268.145 120.595 265.656 129.361M168.698 202.559C185.684 202.559 201.688 198.357 215.728 190.935M71.7393 129.361C74.1994 138.026 77.7898 146.216 82.3409 153.76M85.2866 45.2015C103.417 18.5239 134.011 1 168.698 1C199.823 1 227.653 15.11 246.139 37.2825M107.523 181.875C111.962 185.27 116.691 188.305 121.668 190.935" stroke="black" stroke-width="2" stroke-linecap="round" stroke-dasharray="8 8"/>
<path d="M221.963 87.3919C207.87 74.1394 195.261 84.6367 190.719 91.5417C194.231 94.4986 202.204 100.056 209.239 98.3139C216.271 96.5726 220.922 90.2805 221.963 87.3919Z" fill="#D1EAFF"/>
<path d="M206.097 97.1412C210.08 97.7611 213.811 95.0345 214.431 91.0512C215.051 87.0679 212.325 83.3364 208.341 82.7166C204.358 82.0967 200.626 84.8233 200.007 88.8066C199.387 92.7898 202.113 96.5214 206.097 97.1412Z" fill="black"/>
<path d="M191.173 89.2487L186.919 85.4658" stroke="black" stroke-width="2" stroke-linecap="round"/>
<path d="M195.14 83.55L192.067 79.2944" stroke="black" stroke-width="2" stroke-linecap="round"/>
<path d="M202.213 80.8066L200.229 75.9473" stroke="black" stroke-width="2" stroke-linecap="round"/>
<path d="M209.14 79.3234L208.905 75.3047" stroke="black" stroke-width="2" stroke-linecap="round"/>
<path d="M217.413 82.8703L219.541 77.9064" stroke="black" stroke-width="2" stroke-linecap="round"/>
<path d="M222.85 86.1806L227.105 83.1081" stroke="black" stroke-width="2" stroke-linecap="round"/>
</svg>
