<svg width="223" height="238" viewBox="0 0 223 238" fill="none" xmlns="http://www.w3.org/2000/svg">
<path d="M222.901 120.832H153.623L151.377 173.218L181.893 172.307L209.028 171.496L222.889 171.085V120.832H222.901Z" fill="#F6F6F7"/>
<path d="M42.4492 191.807H54.1765L54.5508 139.421L49.3858 140.332L44.7947 141.143L42.4492 141.554V191.807Z" fill="#F6F6F7"/>
<path d="M60.6523 191.807H72.3796L72.7539 160.093L67.5889 160.642L62.9978 161.129L60.6523 161.378V191.807Z" fill="#F6F6F7"/>
<path d="M97.0684 191.807H108.796L109.17 175.987L104.005 176.262L99.4138 176.511L97.0684 176.636V191.807Z" fill="#F6F6F7"/>
<path d="M78.8672 191.807H90.5945L90.9688 147.754L85.8038 148.515L81.2126 149.202L78.8672 149.551V191.807Z" fill="#F6F6F7"/>
<path d="M0 37.1766H97.1254C98.0307 35.2538 98.2251 30.8242 91.7595 28.4884C85.2929 26.1526 79.8776 29.4617 77.9791 31.4082C77.3601 25.2125 73.3675 12.5933 62.3431 11.6818C51.3188 10.7702 47.8561 19.8003 47.5027 24.4292C37.3794 9.33172 28.5325 20.8447 25.3745 28.4884C14.8272 24.5574 4.06342 32.6426 0 37.1766Z" fill="#F6F6F7"/>
<path d="M77.0967 141.941C76.0362 136.564 71.2081 126.633 69.7484 129.727C67.9269 133.582 68.6256 144.636 71.0958 145.272C73.5535 145.921 69.973 129.802 66.9039 130.937C64.4462 131.848 65.8809 136.564 66.9039 138.81C66.5421 135.778 66.0805 131.549 61.0527 128.704" stroke="#242938" stroke-linecap="round"/>
<path d="M103.169 193.64H115.146L136.966 192.867V98.562H27.9271L24.3965 196.872L61.4747 195.549" stroke="#242938"/>
<path d="M106.875 87.558H142.456H106.875ZM106.875 81.1704H129.244H106.875Z" stroke="#242938" stroke-linecap="round"/>
<path d="M27.9154 98.562H136.954V118.087H27.2168L27.9154 98.562Z" fill="#242938"/>
<path d="M36.4984 113.309C39.056 113.309 41.1395 111.076 41.1395 108.318C41.1395 105.561 39.056 103.328 36.4984 103.328C33.9409 103.328 31.8574 105.561 31.8574 108.318C31.8574 111.076 33.9409 113.309 36.4984 113.309Z" fill="white"/>
<path d="M48.5629 113.309C51.1204 113.309 53.2039 111.076 53.2039 108.318C53.2039 105.561 51.1204 103.328 48.5629 103.328C46.0053 103.328 43.9219 105.561 43.9219 108.318C43.9219 111.076 46.0053 113.309 48.5629 113.309Z" fill="white"/>
<path d="M60.6254 113.309C63.1829 113.309 65.2664 111.076 65.2664 108.318C65.2664 105.561 63.1829 103.328 60.6254 103.328C58.0678 103.328 55.9844 105.561 55.9844 108.318C55.9844 111.076 58.0678 113.309 60.6254 113.309Z" fill="white"/>
<path d="M128.258 131.735L86.3516 132.958L89.4331 62.7314H184.561V130.089L165.523 130.65" stroke="#242938"/>
<path d="M184.562 62.7314H89.4336V70.9031H184.562V62.7314Z" fill="#242938"/>
<path d="M159.498 166.818L117.592 167.729L120.673 115.355H215.802V165.595L196.776 166.007" stroke="#242938"/>
<path d="M124.951 163.499H155.991H124.951ZM124.951 160.093H144.463H124.951Z" stroke="#242938" stroke-linecap="round"/>
<path d="M215.802 115.355H120.674V125.074H215.802V115.355Z" fill="#242938"/>
<path d="M103.32 192.069C103.32 198.98 100.576 203.796 96.3839 206.902C92.1795 210.021 86.4906 211.431 80.5895 211.431C74.6884 211.431 69.8103 210.021 66.4169 206.927C63.0235 203.846 61.0273 199.03 61.0273 192.069C61.0273 178.146 70.5589 166.992 82.1614 166.992C93.7889 166.992 103.32 178.146 103.32 192.069Z" fill="#F6F6F7"/>
<path d="M97.0413 204.177L97.0411 204.178C92.9487 207.214 87.3756 208.608 81.5446 208.608C75.7147 208.608 70.9772 207.215 67.7089 204.235L67.7081 204.234C64.4481 201.274 62.4824 196.611 62.4824 189.745C62.4824 176.017 71.865 165.169 83.1165 165.169C94.3933 165.169 103.776 176.018 103.776 189.745C103.776 196.505 101.101 201.169 97.0413 204.177Z" stroke="#242938"/>
<path d="M133.997 21.9233C133.997 27.3253 131.851 31.093 128.582 33.5134C125.301 35.9461 120.847 37.0565 116.244 37.0565C111.628 37.0565 107.823 35.9461 105.165 33.5383C102.52 31.1305 100.961 27.3628 100.961 21.9233C100.948 11.0443 108.397 2.32373 117.467 2.32373C126.549 2.32373 133.997 11.0443 133.997 21.9233Z" fill="#F6F6F7"/>
<path d="M129.242 30.7878L129.242 30.788C126.072 33.1381 121.734 34.2328 117.201 34.2328C112.658 34.2328 108.992 33.1396 106.459 30.8447C103.947 28.558 102.418 24.9429 102.418 19.5996L102.418 19.599C102.406 8.9152 109.705 0.5 118.424 0.5C127.155 0.5 134.454 8.91553 134.454 19.5996C134.454 24.8501 132.378 28.4658 129.242 30.7878Z" stroke="#242938"/>
<path d="M103.581 192.331L113.936 194.813C118.09 202.598 115.632 207.351 115.27 214.325C107.71 213.851 88.7967 212.442 86.576 210.296C84.3304 208.113 86.8255 207.302 88.2104 207.264L84.7171 206.304C83.7565 206.079 81.8103 205.293 81.673 203.896C81.5483 202.498 84.1807 202.448 85.5281 202.598C78.6663 201.313 80.6874 198.032 82.4091 197.945C83.2575 197.895 86.6758 198.331 88.2852 198.581C87.6864 198.406 86.314 197.87 85.6403 197.071C84.792 196.073 85.2162 195.125 86.5012 194.614C87.5991 194.177 96.1076 194.826 98.6776 195.075C100.736 195.275 102.832 193.329 103.581 192.331Z" fill="#D58B8B"/>
<path d="M88.6855 198.582L97.8304 199.48" stroke="#242938" stroke-linecap="round"/>
<path d="M86.627 202.897L95.7718 203.796" stroke="#242938" stroke-linecap="round"/>
<path d="M89.1094 207.813L98.2542 208.711" stroke="#242938" stroke-linecap="round"/>
<path d="M91.3434 66.0747C91.3434 71.4767 89.1976 75.2444 85.9289 77.6647C82.6478 80.0975 78.1939 81.2079 73.5903 81.2079C68.9742 81.2079 65.1691 80.0975 62.5118 77.6897C59.8544 75.2818 58.2949 71.5141 58.2949 66.0747C58.2949 55.1957 65.743 46.4751 74.8254 46.4751C83.8954 46.4751 91.3434 55.1832 91.3434 66.0747Z" fill="#F6F6F7"/>
<path d="M86.5865 74.9396L86.5862 74.9398C83.4166 77.2899 79.0784 78.3846 74.5454 78.3846C70.0018 78.3846 66.3358 77.2912 63.8026 74.9959C61.2791 72.7094 59.75 69.0948 59.75 63.7514C59.75 53.0674 67.049 44.6519 75.7805 44.6519C84.4995 44.6519 91.7985 53.0549 91.7985 63.7514C91.7985 69.002 89.7223 72.6177 86.5865 74.9396Z" stroke="#242938"/>
<path d="M90.8572 63.3557L98.4924 85.8496L83.4091 90.3659L77.6328 80.4351C83.459 76.8421 86.3534 72.9746 87.6634 70.7164C86.8026 67.2981 85.6548 64.0419 86.4283 60.9603C87.2392 57.7041 89.5472 59.9124 90.8572 63.3557Z" fill="#D58B8B"/>
<path d="M83.6452 88.3069C81.2998 89.8788 82.6721 91.5631 83.6452 92.1993C83.0714 92.1993 81.7115 92.6984 80.9006 94.707C79.9025 97.2146 81.8986 98.6369 81.8986 105.274C81.8986 111.911 80.9006 123.988 81.8986 133.158C82.8967 142.34 87.9494 147.193 94.1624 152.632C100.375 158.072 105.116 168.452 109.395 173.504C112.826 177.547 122.133 181.439 126.363 182.874C126.363 185.681 121.809 191.582 119.538 194.177C117.392 193.603 112.814 193.254 111.703 196.535C110.319 200.627 113.088 202.211 113.088 205.33C113.088 208.449 111.504 212.541 113.088 214.088C114.348 215.323 117.243 215.523 118.528 215.473C119.139 216.584 121.796 217.869 123.044 218.368C123.044 223.545 132.962 231.218 137.466 232.64C143.716 234.611 179.585 244.717 194.019 230.669C208.441 216.633 204.162 176.823 201.043 159.457C198.548 145.571 190.638 135.079 187.008 131.573C186.359 130.538 184.525 128.105 182.342 126.708C170.465 118.91 145.463 127.668 143.542 128.442C141.608 129.215 143.542 131.561 141.77 131.561C140.348 131.561 138.327 133.519 137.491 134.492C135.595 134.492 130.729 134.218 126.387 133.145C120.948 131.798 113.113 125.123 109.42 118.91C105.715 112.697 104.131 97.2271 102.783 92.1744C101.436 87.1217 99.4646 88.2819 98.8907 85.3501C98.3044 82.4432 86.5771 86.3357 83.6452 88.3069Z" fill="#EC5B60"/>
<path d="M136.954 136.302C136.343 138.597 135.145 145.758 135.295 155.939C135.445 166.119 131.727 175.925 129.855 179.543" stroke="#242938" stroke-linecap="round"/>
<path d="M131.129 218.068C133.874 217.145 142.582 217.332 150.766 218.068C158.938 218.804 172.212 212.978 174.57 210.084C176.928 207.189 201.268 178.844 199.097 160.28C197.214 144.049 189.304 136.539 174.57 144.112C171.351 145.733 164.09 152.208 160.759 165.171C156.592 181.377 156.555 191.408 149.656 192.094C142.756 192.792 132.639 189.349 127.748 191.707C122.733 193.516 120.974 195.549 119.651 202.436C118.329 209.323 117.892 214.613 118.99 216.172" stroke="#242938" stroke-linecap="round"/>
<path d="M112.888 211.431C114.36 211.805 117.529 212.554 118.328 212.591L112.888 211.431ZM112.189 197.583C113.786 197.246 117.392 196.722 119.051 197.308L112.189 197.583ZM112.888 201.4L118.639 202.598L112.888 201.4ZM113.961 206.84L118.016 206.653L113.961 206.84Z" stroke="#242938" stroke-linecap="round"/>
<path d="M85.2167 88.4693C85.1668 89.3675 85.092 91.3013 85.1918 91.7504L85.2167 88.4693ZM95.2723 85.3628C95.7588 86.1987 96.682 88.12 96.5074 89.1679L95.2723 85.3628ZM92.5775 86.5106L92.565 89.9789L92.5775 86.5106ZM88.7474 88.1823L89.4959 90.4155L88.7474 88.1823Z" stroke="#242938" stroke-linecap="round"/>
<path d="M144.127 134.093C145.375 136.339 148.256 141.304 149.841 143.163M184.561 133.17C180.045 134.929 170.414 139.059 168.018 141.466C165.012 144.473 157.214 148.291 156.016 147.679L184.561 133.17Z" stroke="#242938" stroke-linecap="round"/>
<path d="M178.15 130.625C177.377 130.962 175.555 131.848 174.407 132.708C172.985 133.794 171.55 135.453 170.59 136.302" stroke="#242938" stroke-linecap="round"/>
<path d="M147.135 130.014C147.297 130.201 147.696 130.687 147.933 131.174C148.233 131.773 148.545 132.696 148.757 133.17" stroke="#242938" stroke-linecap="round"/>
<path d="M170.015 130.625C168.581 133.07 164.938 138.622 161.919 141.304C158.899 143.987 157.39 144.71 157.016 144.735" stroke="#242938" stroke-linecap="round"/>
<path d="M181.418 119.996C178.399 128.055 169.404 132.147 161.344 129.116C158.6 128.093 154.769 127.269 153.073 125.136C149.779 120.994 150.228 114.369 152.224 109.042C155.244 100.983 164.239 96.8907 172.298 99.9223C180.357 102.941 184.437 111.937 181.418 119.996Z" fill="#D58B8B"/>
<path d="M174.981 98.9992C166.921 95.9801 157.602 84.0282 154.582 92.0876C153.435 95.1442 152.973 100.783 153.273 106.759C154.096 105.586 155.955 103.154 156.766 102.842C157.776 102.443 159.573 109.292 164.875 107.483C170.165 105.674 176.178 109.204 174.993 110.702C174.207 111.7 167.957 120.133 172.198 129.153C176.303 127.644 180.981 124.2 182.628 119.784C185.997 110.814 187.531 103.703 174.981 98.9992Z" fill="#242938"/>
<path d="M169.153 130.363L168.866 125.747L154.444 125.098L153.621 129.415C153.621 134.967 153.197 143.637 155.704 143.874C159.697 144.274 168.23 132.085 169.153 130.363Z" fill="#D58B8B"/>
<path d="M170.153 122.478C171.438 123.514 173.497 123.077 174.757 121.518C176.017 119.958 175.979 117.85 174.694 116.814C173.409 115.779 171.351 116.216 170.091 117.775C168.843 119.335 168.868 121.443 170.153 122.478Z" fill="#AD5B5B"/>
<path d="M170.514 118.923C171.312 118.286 173.046 117.812 174.219 118.511" stroke="#242938" stroke-linecap="round"/>
<path d="M173.372 118.336C173.435 118.623 173.459 119.484 173.322 120.021" stroke="#242938" stroke-linecap="round"/>
<path d="M154.732 117.364L159.598 113.908L158.5 119.572L154.732 117.364Z" fill="#AD5B5B"/>
<path d="M159.15 114.132L154.809 117.089L158.377 119.097" stroke="#242938" stroke-linecap="round"/>
<path d="M155.693 121.093C156.18 121.293 157.44 121.68 158.638 121.567" stroke="#242938" stroke-linecap="round"/>
<path d="M163.877 110.688C164.376 110.851 165.586 111.4 166.41 112.26" stroke="#242938" stroke-linecap="round"/>
<path d="M157.452 108.692C156.966 108.493 155.705 108.106 154.508 108.218" stroke="#242938" stroke-linecap="round"/>
<path d="M157.727 127.968C158.849 128.641 160.92 129.602 163.066 128.854" stroke="#242938" stroke-linecap="round"/>
<path d="M155.393 112.66C155.904 112.847 156.478 112.597 156.665 112.073C156.853 111.562 156.603 110.988 156.079 110.801C155.568 110.613 154.994 110.863 154.807 111.387C154.619 111.898 154.881 112.472 155.393 112.66Z" fill="#242938"/>
<path d="M163.164 115.417C163.676 115.604 164.25 115.355 164.437 114.831C164.624 114.319 164.375 113.746 163.851 113.558C163.339 113.371 162.765 113.621 162.578 114.145C162.391 114.656 162.653 115.218 163.164 115.417Z" fill="#242938"/>
<path d="M161.856 120.17C162.879 120.557 164.014 120.033 164.401 119.01C164.788 117.987 164.264 116.852 163.241 116.465C162.218 116.078 161.083 116.602 160.696 117.625C160.309 118.648 160.833 119.796 161.856 120.17Z" fill="#AD5B5B"/>
<path d="M152.538 116.266C153.561 116.653 154.696 116.129 155.083 115.106C155.47 114.083 154.946 112.947 153.923 112.561C152.899 112.174 151.764 112.698 151.377 113.721C150.991 114.744 151.515 115.879 152.538 116.266Z" fill="#AD5B5B"/>
<path d="M80.8769 182.774L85.9297 185.681V191.495L80.8769 194.402L75.8242 191.495V185.681L80.8769 182.774Z" fill="#F6F6F7"/>
<path d="M74.8242 184.796L80.638 181.252L86.4517 184.796V191.857L80.638 195.4L74.8242 191.857V184.796Z" stroke="#242938"/>
<path d="M78.3555 186.941L80.6261 185.806L82.8967 186.941V189.212L80.6261 190.347L78.3555 189.212V186.941Z" stroke="#242938"/>
<path d="M80.875 184.795V182.774" stroke="#242938" stroke-linecap="round"/>
<path d="M80.875 193.379V191.358" stroke="#242938" stroke-linecap="round"/>
<path d="M76.334 190.858L77.3445 190.359" stroke="#242938" stroke-linecap="round"/>
<path d="M83.4062 186.317L84.9158 185.307" stroke="#242938" stroke-linecap="round"/>
<path d="M77.3445 186.317L76.334 185.307" stroke="#242938" stroke-linecap="round"/>
<path d="M85.4273 190.858L83.4062 190.359" stroke="#242938" stroke-linecap="round"/>
<path d="M132.851 119.285C132.851 124.687 130.705 128.454 127.436 130.875C124.155 133.307 119.701 134.418 115.097 134.418C110.481 134.418 106.676 133.307 104.019 130.9C101.374 128.492 99.8145 124.724 99.8145 119.285C99.8145 108.406 107.263 99.6851 116.345 99.6851C125.402 99.6851 132.851 108.406 132.851 119.285Z" fill="#F9F2E9"/>
<path d="M128.094 128.15L128.093 128.15C124.924 130.5 120.585 131.595 116.052 131.595C111.509 131.595 107.843 130.501 105.31 128.206C102.799 125.92 101.27 122.305 101.27 116.961C101.27 106.277 108.569 97.8618 117.3 97.8618C126.006 97.8618 133.306 106.277 133.306 116.961C133.306 122.212 131.229 125.828 128.094 128.15Z" stroke="#242938"/>
<path d="M114.935 108.269L122.745 112.86V122.042L114.935 126.633L107.125 122.042V112.86L114.935 108.269Z" fill="#F6F6F7"/>
<path d="M120.598 120.782C120.485 122.591 117.99 124.025 114.934 124.025C112.064 124.025 109.694 122.753 109.319 121.106C109.294 120.994 109.282 120.894 109.27 120.782C109.931 120.158 110.954 119.659 112.189 119.359C112.813 119.921 113.786 120.881 114.422 121.48C114.472 120.744 114.509 120.083 114.559 119.397H115.445C115.483 120.083 115.52 120.719 115.557 121.543C116.119 120.981 117.079 120.008 117.678 119.372C118.913 119.659 119.936 120.158 120.598 120.782Z" fill="#242938"/>
<path d="M114.122 118.037L113.76 119.447H116.18L115.831 118.037H114.122Z" fill="#242938"/>
<path d="M112.201 119.971C112.201 119.971 114.933 119.185 117.678 119.971" stroke="#242938" stroke-linecap="round"/>
<path d="M117.565 114.744C117.765 114.07 117.902 112.136 116.617 112.124C116.729 111.762 116.193 111.088 114.97 111.163C113.972 111.213 113.061 111.874 112.525 112.847C112.201 113.434 112.176 114.082 112.375 114.756C112.051 114.806 112.013 115.018 112.051 115.268C112.076 115.442 112.088 115.629 112.151 115.779C112.45 116.49 112.725 117.214 113.099 117.9C113.498 118.611 114.184 118.948 114.97 118.948C115.756 118.948 116.455 118.611 116.842 117.9C117.216 117.226 117.49 116.503 117.79 115.779C117.852 115.617 117.877 115.442 117.89 115.268C117.927 115.006 117.89 114.793 117.565 114.744Z" fill="#242938"/>
<path d="M106.338 111.874L114.934 106.697L123.53 111.874V122.229L114.934 127.407L106.338 122.229V111.874Z" stroke="#242938"/>
<path d="M77.4181 64.7031C77.4181 63.2559 76.2329 62.0707 74.7733 62.0956C73.351 62.1206 72.1783 63.3432 72.2157 64.7654C72.2282 65.2395 72.3654 65.6762 72.59 66.0504C72.9393 66.6243 73.613 67.2731 73.613 67.9343V68.87C73.613 69.4065 73.9249 69.8431 74.3117 69.8431H75.3097C75.6965 69.8431 76.0084 69.4065 76.0084 68.87V67.9842C76.0084 67.2856 76.6945 66.6243 77.0563 66.0255C77.2934 65.6387 77.4181 65.1896 77.4181 64.7031Z" fill="#F6F6F7"/>
<path d="M76.8947 64.5532C76.8947 63.106 75.7095 61.9207 74.2498 61.9457C72.8276 61.9707 71.6549 63.1933 71.6923 64.6155C71.7048 65.0896 71.842 65.5263 72.0666 65.9005C72.4159 66.4744 73.0896 67.1232 73.0896 67.7844V68.7201C73.0896 69.2565 73.4015 69.6932 73.7882 69.6932H74.7863C75.173 69.6932 75.4849 69.2565 75.4849 68.7201V67.8343C75.4849 67.1357 76.1711 66.4744 76.5329 65.8756C76.77 65.5013 76.8947 65.0397 76.8947 64.5532Z" stroke="#242938" stroke-miterlimit="10" stroke-linecap="round" stroke-linejoin="round"/>
<path d="M73.0898 67.9092H75.4852" stroke="#242938" stroke-miterlimit="10" stroke-linecap="round" stroke-linejoin="round"/>
<path d="M74.4883 67.909H74.089L73.6399 65.1268C73.6149 64.9647 73.7397 64.8149 73.9144 64.8149H74.6879C74.8501 64.8149 74.9873 64.9647 74.9623 65.1268L74.4883 67.909Z" stroke="#242938" stroke-miterlimit="10" stroke-linecap="round" stroke-linejoin="round"/>
<path d="M75.4871 68.7329H74.4766" stroke="#242938" stroke-miterlimit="10" stroke-linecap="round" stroke-linejoin="round"/>
<path d="M74.3008 59.7872V57.1548" stroke="#242938" stroke-miterlimit="10" stroke-linecap="round" stroke-linejoin="round"/>
<path d="M70.9312 67.9463L69.0723 69.8052" stroke="#242938" stroke-miterlimit="10" stroke-linecap="round" stroke-linejoin="round"/>
<path d="M79.553 59.3257L77.6816 61.1971" stroke="#242938" stroke-miterlimit="10" stroke-linecap="round" stroke-linejoin="round"/>
<path d="M69.5235 64.5903H66.916" stroke="#242938" stroke-miterlimit="10" stroke-linecap="round" stroke-linejoin="round"/>
<path d="M81.7362 64.5903H79.0664" stroke="#242938" stroke-miterlimit="10" stroke-linecap="round" stroke-linejoin="round"/>
<path d="M70.9062 61.1972L69.0723 59.3633" stroke="#242938" stroke-miterlimit="10" stroke-linecap="round" stroke-linejoin="round"/>
<path d="M79.5526 69.8426L77.6562 67.9463" stroke="#242938" stroke-miterlimit="10" stroke-linecap="round" stroke-linejoin="round"/>
<path d="M123.842 17.9811C116.806 14.6501 113.337 20.2143 112.477 23.4081C114.186 24.1068 117.929 25.2545 120.386 23.72C122.844 22.1855 123.817 19.2162 123.842 17.9811Z" fill="#F6F6F7"/>
<path d="M119.027 23.5573C120.637 23.2953 121.722 21.7858 121.46 20.1764C121.198 18.567 119.689 17.4816 118.079 17.7436C116.47 18.0056 115.384 19.5152 115.646 21.1245C115.908 22.7215 117.43 23.8193 119.027 23.5573Z" fill="#242938"/>
<path d="M112.401 22.4097L110.293 21.6611" stroke="#242938" stroke-linecap="round"/>
<path d="M113.449 20.176L111.516 19.0532" stroke="#242938" stroke-linecap="round"/>
<path d="M115.459 18.0559L113.887 16.459" stroke="#242938" stroke-linecap="round"/>
<path d="M118.055 16.7208L117.469 14.5625" stroke="#242938" stroke-linecap="round"/>
<path d="M121.42 16.5957L121.707 14.375" stroke="#242938" stroke-linecap="round"/>
<path d="M123.742 17.3571L124.653 15.311" stroke="#242938" stroke-linecap="round"/>
</svg>
