<svg width="182" height="168" viewBox="0 0 182 168" fill="none" xmlns="http://www.w3.org/2000/svg">
<path d="M71.5401 56.3268V29.0627H52.2682V20.5276H2.57452L0.673828 74.1271H28.8041" stroke="#EC5B60" stroke-width="1.27198"/>
<path d="M181.998 68.0095H138.844L137.447 100.659L156.457 100.091L173.364 99.585L181.998 99.3268V68.0095Z" fill="white"/>
<path d="M118.522 64.6233L116.615 98.8357L177.437 97.4395V64.6233H118.522Z" stroke="#242938" stroke-width="1.27198"/>
<path d="M120.982 90.4729H133.137M120.982 94.6019H140.318" stroke="#242938" stroke-width="1.27198" stroke-linecap="round"/>
<path d="M177.578 64.5952H118.32V70.6539H177.578V64.5952Z" fill="#242938"/>
<path d="M81.8723 128.73H122.47V98.0324M122.47 49.3501H29.8545L26.9043 130.007H42.1098" stroke="#242938" stroke-width="1.27198"/>
<path d="M77.5803 79.9369L108.399 79.4514C110.993 79.4121 113.095 77.7945 113.095 75.838C113.094 73.8821 110.991 72.3276 108.397 72.3669L60.3313 73.1241C58.5118 73.1516 56.9343 73.9557 56.1548 75.1085" stroke="#242938" stroke-width="1.27198"/>
<path d="M86.8047 90.3047L108.397 89.9645C110.992 89.9252 113.094 91.4798 113.095 93.4357C113.096 95.3921 110.994 97.0097 108.4 97.049L90.2194 97.3354" stroke="#242938" stroke-width="1.27198"/>
<path d="M91.9074 106.997L108.397 106.997C110.991 106.958 113.094 108.512 113.095 110.468C113.096 112.425 110.994 114.042 108.399 114.081L90.219 114.368" stroke="#242938" stroke-width="1.27198"/>
<path d="M38.9972 83.7013C37.5923 82.3221 36.7207 80.4001 36.7207 78.2742C36.7207 74.0772 40.1181 70.6748 44.3091 70.6748C47.7068 70.6748 50.5831 72.9112 51.55 75.9944C43.5502 78.6542 42.7914 80.934 38.9972 83.7013Z" fill="#EC5B60"/>
<path d="M75.5441 106.392C75.5441 116.954 66.9947 125.514 56.4504 125.514C45.9061 125.514 37.3567 116.954 37.3567 106.392C37.3567 95.8299 45.9061 87.2693 56.4504 87.2693C66.9947 87.2693 75.5441 95.8299 75.5441 106.392Z" stroke="#242938" stroke-width="1.27198"/>
<path d="M41.7657 81.5794C41.1154 81.2367 40.6683 80.7599 40.5463 80.2221C40.53 80.1487 40.5218 80.0834 40.5137 80.0099C40.9456 79.6019 41.6138 79.2754 42.4205 79.0796C42.828 79.4468 43.4636 80.0752 43.8792 80.4669C43.9118 79.9854 43.9362 79.5529 43.9688 79.1041H44.5474C44.5718 79.5529 44.5229 79.7363 44.5474 80.2749C44.9141 79.9076 45.6149 79.504 46.006 79.0878C44.6873 79.4139 43.1696 80.9338 41.7657 81.5794Z" fill="white"/>
<path d="M43.6836 78.2146L43.4473 79.1372H45.0282L44.8 78.2146H43.6836Z" fill="white"/>
<path d="M42.4277 79.4793C42.4277 79.4793 43.2787 79.2341 44.3957 79.2516" stroke="white" stroke-width="1.27198" stroke-linecap="round"/>
<path d="M45.9318 76.0603C46.0621 75.6196 46.1518 74.3547 45.3125 74.3465C45.3858 74.1098 45.0354 73.6692 44.2368 73.7181C43.5849 73.7508 42.99 74.1833 42.6396 74.8198C42.4277 75.2034 42.4114 75.6277 42.5418 76.0684C42.33 76.1011 42.3055 76.2398 42.33 76.403C42.3463 76.5173 42.3544 76.6397 42.3952 76.7376C42.5907 77.2028 42.77 77.6761 43.0145 78.1249C43.2752 78.5901 43.7234 78.8104 44.2368 78.8104C44.7502 78.8104 45.2065 78.5901 45.4591 78.1249C45.7036 77.6843 45.8829 77.2109 46.0784 76.7376C46.1192 76.6315 46.1355 76.5173 46.1436 76.403C46.1681 76.2316 46.1436 76.0929 45.9318 76.0603Z" fill="white"/>
<mask id="path-16-inside-1" fill="white">
<path fill-rule="evenodd" clip-rule="evenodd" d="M59.0641 96.1802C61.2464 96.2014 61.0133 99.4902 60.6743 100.636C61.2252 100.721 61.2887 101.082 61.2252 101.527C61.204 101.824 61.1616 102.121 61.0557 102.397C60.9683 102.609 60.8821 102.82 60.7961 103.031C60.3819 104.048 59.9718 105.055 59.4455 106.004C59.0984 106.643 58.6035 107.105 58.0169 107.398L58.1856 108.079C58.8086 108.151 59.4482 108.259 60.0933 108.413C60.3349 108.444 60.5918 108.475 60.866 108.507C62.9636 108.995 64.7009 109.844 65.8238 110.905C65.6331 113.982 61.3957 116.422 56.2049 116.422C51.3319 116.422 47.3063 114.258 46.6707 111.457C46.6283 111.266 46.6071 111.096 46.5859 110.905C47.5747 109.971 49.0397 109.201 50.8076 108.683C50.8717 108.64 50.9435 108.606 51.0218 108.583L51.0321 108.619L51.0327 108.619C51.0225 108.583 51.0227 108.583 51.0228 108.583L51.0242 108.583L51.0282 108.582L51.0414 108.578L51.0877 108.565C51.1272 108.555 51.1839 108.54 51.2566 108.521C51.4021 108.485 51.6119 108.436 51.877 108.381C52.4067 108.272 53.1596 108.142 54.0624 108.056C54.1624 108.046 54.2645 108.037 54.3683 108.029L54.5295 107.4C53.9442 107.107 53.4484 106.645 53.0893 106.004C52.5854 105.079 52.1879 104.113 51.7915 103.15C51.6879 102.899 51.5844 102.648 51.4791 102.397C51.3949 102.195 51.3642 101.952 51.3339 101.711C51.3261 101.65 51.3183 101.588 51.3096 101.527C51.2461 101.103 51.3096 100.742 51.8605 100.657C51.5215 99.5114 51.5639 98.4081 52.1147 97.4108C53.0258 95.7558 54.5724 94.6313 56.2674 94.5464C58.3437 94.4191 59.2548 95.5649 59.0641 96.1802Z"/>
</mask>
<path d="M60.6743 100.636L59.4546 100.275L59.0415 101.671L60.4806 101.893L60.6743 100.636ZM59.0641 96.1802L57.8491 95.8037L57.3434 97.4355L59.0517 97.4521L59.0641 96.1802ZM61.2252 101.527L59.966 101.347L59.9596 101.392L59.9564 101.437L61.2252 101.527ZM61.0557 102.397L62.2313 102.883L62.2374 102.868L62.2431 102.853L61.0557 102.397ZM60.7961 103.031L61.9741 103.511L61.9741 103.511L60.7961 103.031ZM59.4455 106.004L58.3331 105.387L58.3277 105.397L59.4455 106.004ZM58.0169 107.398L57.4485 106.26L56.5376 106.715L56.7822 107.703L58.0169 107.398ZM58.1856 108.079L56.9508 108.385L57.1629 109.242L58.0399 109.343L58.1856 108.079ZM60.0933 108.413L59.7982 109.65L59.8645 109.666L59.9321 109.674L60.0933 108.413ZM60.866 108.507L61.1543 107.269L61.0852 107.252L61.0147 107.244L60.866 108.507ZM65.8238 110.905L67.0934 110.984L67.1302 110.389L66.6974 109.981L65.8238 110.905ZM46.6707 111.457L45.4289 111.732L45.4303 111.738L46.6707 111.457ZM46.5859 110.905L45.7124 109.981L45.2518 110.416L45.3217 111.045L46.5859 110.905ZM50.8076 108.683L51.1654 109.904L51.3544 109.848L51.5178 109.738L50.8076 108.683ZM51.0218 108.583L52.244 108.231L51.8917 107.009L50.6695 107.361L51.0218 108.583ZM51.0321 108.619L49.8098 108.971L50.1583 110.18L51.3709 109.845L51.0321 108.619ZM51.0327 108.619L51.3715 109.845L52.6055 109.504L52.2565 108.272L51.0327 108.619ZM51.0228 108.583L50.6725 107.36L50.6696 107.361L51.0228 108.583ZM51.0242 108.583L50.676 107.359L50.6739 107.36L51.0242 108.583ZM51.0282 108.582L50.6839 107.357L50.68 107.358L51.0282 108.582ZM51.0414 108.578L50.7054 107.351L50.6971 107.353L51.0414 108.578ZM51.0877 108.565L50.7566 107.337L50.7517 107.338L51.0877 108.565ZM51.2566 108.521L50.9485 107.287L50.9484 107.287L51.2566 108.521ZM51.877 108.381L52.1333 109.627H52.1333L51.877 108.381ZM54.0624 108.056L53.9409 106.789L53.9409 106.789L54.0624 108.056ZM54.3683 108.029L54.4716 109.296L55.3754 109.223L55.6005 108.344L54.3683 108.029ZM54.5295 107.4L55.7617 107.715L56.0164 106.721L55.0988 106.262L54.5295 107.4ZM53.0893 106.004L51.9723 106.613L51.976 106.619L51.9798 106.626L53.0893 106.004ZM51.7915 103.15L52.9677 102.666L52.9677 102.666L51.7915 103.15ZM51.4791 102.397L50.3047 102.886L50.3066 102.89L51.4791 102.397ZM51.3339 101.711L52.5959 101.552V101.552L51.3339 101.711ZM51.3096 101.527L52.5689 101.347L52.5676 101.339L51.3096 101.527ZM51.8605 100.657L52.0542 101.914L53.4933 101.693L53.0802 100.296L51.8605 100.657ZM52.1147 97.4108L53.2281 98.0259L53.229 98.0242L52.1147 97.4108ZM56.2674 94.5464L56.331 95.8168L56.3381 95.8164L56.3452 95.816L56.2674 94.5464ZM61.894 100.997C62.1096 100.268 62.2794 98.9581 62.067 97.7637C61.9598 97.1606 61.7343 96.4666 61.2533 95.9006C60.733 95.2883 59.9883 94.9171 59.0765 94.9083L59.0517 97.4521C59.231 97.4538 59.2755 97.5018 59.3147 97.5479C59.3932 97.6403 59.4974 97.8441 59.5623 98.2091C59.6942 98.9508 59.5781 99.8578 59.4546 100.275L61.894 100.997ZM62.4844 101.707C62.5233 101.435 62.5767 100.905 62.322 100.386C62.0109 99.7519 61.4244 99.4645 60.868 99.3788L60.4806 101.893C60.4923 101.895 60.4199 101.886 60.3165 101.82C60.201 101.746 60.1015 101.636 60.0383 101.507C59.9816 101.391 59.9746 101.303 59.9735 101.285C59.9725 101.268 59.9752 101.283 59.966 101.347L62.4844 101.707ZM62.2431 102.853C62.415 102.405 62.4693 101.964 62.4939 101.618L59.9564 101.437C59.9387 101.685 59.9082 101.837 59.8683 101.941L62.2431 102.853ZM61.9741 103.511C62.0603 103.3 62.1453 103.091 62.2313 102.883L59.8801 101.911C59.7913 102.126 59.7039 102.341 59.6181 102.552L61.9741 103.511ZM60.5578 106.621C61.1273 105.595 61.5649 104.516 61.9741 103.511L59.6181 102.552C59.1989 103.581 58.8163 104.516 58.3332 105.387L60.5578 106.621ZM58.5853 108.535C59.4034 108.127 60.0909 107.481 60.5633 106.611L58.3277 105.397C58.1059 105.805 57.8036 106.082 57.4485 106.26L58.5853 108.535ZM56.7822 107.703L56.9508 108.385L59.4203 107.774L59.2517 107.092L56.7822 107.703ZM58.0399 109.343C58.6176 109.409 59.207 109.509 59.7982 109.65L60.3884 107.175C59.6895 107.009 58.9996 106.893 58.3312 106.816L58.0399 109.343ZM59.9321 109.674C60.1777 109.706 60.4387 109.738 60.7174 109.771L61.0147 107.244C60.7449 107.212 60.4922 107.181 60.2545 107.151L59.9321 109.674ZM60.5778 109.746C62.5319 110.201 64.0399 110.97 64.9503 111.83L66.6974 109.981C65.3619 108.719 63.3952 107.79 61.1543 107.269L60.5778 109.746ZM64.5543 110.826C64.4958 111.769 63.7928 112.832 62.256 113.714C60.7466 114.581 58.6152 115.15 56.2049 115.15V117.694C58.9854 117.694 61.5681 117.043 63.5228 115.92C65.4501 114.814 66.9611 113.117 67.0934 110.984L64.5543 110.826ZM56.2049 115.15C53.9458 115.15 51.9292 114.646 50.4407 113.864C48.9251 113.067 48.1154 112.075 47.9111 111.175L45.4303 111.738C45.8616 113.639 47.3825 115.13 49.2568 116.115C51.1583 117.115 53.591 117.694 56.2049 117.694V115.15ZM47.9125 111.181C47.8857 111.06 47.8704 110.947 47.8502 110.765L45.3217 111.045C45.3439 111.245 45.371 111.471 45.4289 111.732L47.9125 111.181ZM47.4595 111.83C48.259 111.074 49.5241 110.385 51.1654 109.904L50.4498 107.463C48.5553 108.018 46.8903 108.868 45.7124 109.981L47.4595 111.83ZM51.5178 109.738C51.4733 109.768 51.4246 109.791 51.374 109.806L50.6695 107.361C50.4624 107.421 50.27 107.512 50.0973 107.628L51.5178 109.738ZM49.7995 108.936L49.8098 108.971L52.2543 108.267L52.244 108.231L49.7995 108.936ZM51.3709 109.845L51.3715 109.845L50.6938 107.393L50.6932 107.393L51.3709 109.845ZM52.2565 108.272C52.2513 108.254 52.2505 108.251 52.2513 108.254C52.2516 108.255 52.2526 108.259 52.2538 108.263C52.2547 108.267 52.2577 108.278 52.2613 108.294C52.2631 108.301 52.2665 108.316 52.2703 108.335C52.273 108.349 52.2816 108.392 52.2876 108.449C52.2907 108.478 52.2955 108.531 52.2946 108.599C52.2939 108.657 52.2889 108.792 52.2393 108.954C52.1827 109.14 52.0591 109.388 51.8061 109.585C51.5852 109.758 51.3516 109.812 51.3759 109.805L50.6696 107.361C50.6939 107.354 50.4603 107.408 50.2394 107.581C49.9864 107.779 49.8628 108.026 49.8062 108.212C49.7566 108.374 49.7516 108.509 49.7509 108.567C49.75 108.635 49.7548 108.689 49.7578 108.717C49.7639 108.774 49.7725 108.818 49.7752 108.832C49.779 108.851 49.7825 108.866 49.7844 108.874C49.7903 108.899 49.7962 108.92 49.7964 108.921C49.7996 108.933 49.8038 108.948 49.8089 108.966L52.2565 108.272ZM51.373 109.806L51.3744 109.806L50.6739 107.36L50.6725 107.36L51.373 109.806ZM51.3723 109.806L51.3764 109.805L50.68 107.358L50.676 107.359L51.3723 109.806ZM51.3726 109.806L51.3858 109.802L50.6971 107.353L50.6839 107.357L51.3726 109.806ZM51.3774 109.805L51.4237 109.792L50.7517 107.338L50.7054 107.351L51.3774 109.805ZM51.4188 109.793C51.4509 109.785 51.5 109.772 51.5648 109.756L50.9484 107.287C50.8678 107.308 50.8034 107.324 50.7566 107.337L51.4188 109.793ZM51.5648 109.756C51.6944 109.723 51.8869 109.678 52.1333 109.627L51.6206 107.135C51.3368 107.194 51.1097 107.247 50.9485 107.287L51.5648 109.756ZM52.1333 109.627C52.6263 109.526 53.3337 109.403 54.1838 109.322L53.9409 106.789C52.9855 106.881 52.1871 107.019 51.6206 107.135L52.1333 109.627ZM54.1838 109.322C54.278 109.313 54.374 109.304 54.4716 109.296L54.265 106.761C54.155 106.77 54.0469 106.779 53.9409 106.789L54.1838 109.322ZM55.6005 108.344L55.7617 107.715L53.2973 107.084L53.1362 107.713L55.6005 108.344ZM51.9798 106.626C52.4609 107.484 53.143 108.128 53.9603 108.537L55.0988 106.262C54.7455 106.085 54.4359 105.805 54.1989 105.382L51.9798 106.626ZM50.6153 103.635C51.0075 104.587 51.43 105.617 51.9723 106.613L54.2064 105.396C53.7408 104.541 53.3684 103.639 52.9677 102.666L50.6153 103.635ZM50.3066 102.89C50.4097 103.135 50.5114 103.382 50.6153 103.635L52.9677 102.666C52.8644 102.415 52.7591 102.16 52.6517 101.904L50.3066 102.89ZM50.0719 101.871C50.0968 102.068 50.1417 102.494 50.3047 102.886L52.6535 101.908C52.6576 101.918 52.6491 101.9 52.636 101.832C52.6226 101.761 52.612 101.68 52.5959 101.552L50.0719 101.871ZM50.0504 101.707C50.0574 101.756 50.0639 101.807 50.0719 101.871L52.5959 101.552C52.5883 101.492 52.5792 101.42 52.5689 101.347L50.0504 101.707ZM51.6668 99.4C51.1121 99.4855 50.5291 99.7708 50.2166 100.397C49.9574 100.916 50.0109 101.443 50.0517 101.716L52.5676 101.339C52.5593 101.283 52.5626 101.276 52.5612 101.299C52.5597 101.325 52.5511 101.416 52.4927 101.533C52.4282 101.662 52.3285 101.771 52.2153 101.843C52.1135 101.907 52.0427 101.916 52.0542 101.914L51.6668 99.4ZM51.0013 96.7958C50.2517 98.1529 50.2273 99.6205 50.6408 101.018L53.0802 100.296C52.8157 99.4023 52.8761 98.6633 53.2281 98.0259L51.0013 96.7958ZM56.2038 93.276C53.9725 93.3877 52.0733 94.8484 51.0004 96.7974L53.229 98.0242C53.9782 96.6633 55.1723 95.8748 56.331 95.8168L56.2038 93.276ZM60.2791 96.5567C60.6055 95.5033 59.9387 94.5617 59.2789 94.0671C58.5294 93.5052 57.4684 93.1984 56.1896 93.2768L56.3452 95.816C57.1428 95.7671 57.5755 95.9695 57.7529 96.1026C57.8463 96.1725 57.8611 96.2152 57.8503 96.1925C57.8439 96.179 57.7784 96.0318 57.8491 95.8037L60.2791 96.5567Z" fill="#242938" mask="url(#path-16-inside-1)"/>
<path d="M29.7323 49.3501H122.47V65.294H29.1328L29.7323 49.3501Z" fill="#242938"/>
<path d="M37.0994 61.4981C39.4044 61.4981 41.273 59.6285 41.273 57.3223C41.273 55.016 39.4044 53.1465 37.0994 53.1465C34.7944 53.1465 32.9258 55.016 32.9258 57.3223C32.9258 59.6285 34.7944 61.4981 37.0994 61.4981Z" fill="white"/>
<path d="M47.343 61.4981C49.4385 61.4981 51.1372 59.6285 51.1372 57.3223C51.1372 55.016 49.4385 53.1465 47.343 53.1465C45.2475 53.1465 43.5488 55.016 43.5488 57.3223C43.5488 59.6285 45.2475 61.4981 47.343 61.4981Z" fill="white"/>
<path d="M57.5877 61.4981C59.8927 61.4981 61.7612 59.6285 61.7612 57.3223C61.7612 55.016 59.8927 53.1465 57.5877 53.1465C55.2826 53.1465 53.4141 55.016 53.4141 57.3223C53.4141 59.6285 55.2826 61.4981 57.5877 61.4981Z" fill="white"/>
<path d="M82.1371 128.351L102.549 155.804C103.9 157.62 103.484 160.194 101.63 161.493C99.8477 162.742 97.395 162.345 96.0988 160.596L75.738 133.132L82.1371 128.351Z" fill="#242938"/>
<path d="M32.7458 117.623C39.3517 133.415 57.3627 140.917 72.9746 134.379C88.5865 127.842 95.8872 109.74 89.2813 93.9485C82.6754 78.1567 64.6644 70.6547 49.0525 77.1923C33.4407 83.7298 26.1399 101.831 32.7458 117.623Z" stroke="#242938" stroke-width="1.27198"/>
</svg>
