<svg width="201" height="177" viewBox="0 0 201 177" fill="none" xmlns="http://www.w3.org/2000/svg">
<path d="M197.642 103.312H100.291L97.1406 176.651L140.025 175.375L178.164 174.238L197.642 173.658V103.312Z" fill="white"/>
<path d="M172.291 43.1018V15.4866H31.9512V135.907H172.291V111.008" stroke="#242938" stroke-width="1.2"/>
<path d="M43.8576 74.1928C24.4346 61.1439 11.3401 75.7003 7.2207 84.6101C11.9962 87.4547 22.613 92.5606 30.7059 89.2678C38.7988 85.975 43.165 77.7667 43.8576 74.1928Z" fill="white"/>
<path d="M26.922 88.2711C31.6942 88.2711 35.5628 84.2638 35.5628 79.3205C35.5628 74.3772 31.6942 70.3699 26.922 70.3699C22.1499 70.3699 18.2812 74.3772 18.2812 79.3205C18.2812 84.2638 22.1499 88.2711 26.922 88.2711Z" fill="#242938"/>
<path d="M7.22136 81.3861L1 77.9436" stroke="#242938" stroke-width="1.2" stroke-linecap="round"/>
<path d="M11.3681 75.1894L6.5293 71.0583" stroke="#242938" stroke-width="1.2" stroke-linecap="round"/>
<path d="M18.2822 70.3699L13.4434 64.1733" stroke="#242938" stroke-width="1.2" stroke-linecap="round"/>
<path d="M26.5781 66.9273V60.7307" stroke="#242938" stroke-width="1.2" stroke-linecap="round"/>
<path d="M36.9453 68.9927L39.0191 62.1077" stroke="#242938" stroke-width="1.2" stroke-linecap="round"/>
<path d="M43.8574 72.4353L47.3137 66.2388" stroke="#242938" stroke-width="1.2" stroke-linecap="round"/>
<path d="M185.95 11.0697C181.516 1.58449 173.042 4.32448 169.359 6.88013C170.534 9.07035 173.434 13.4622 177.332 13.9997C181.229 14.5373 184.842 12.3113 185.95 11.0697Z" fill="white"/>
<path d="M175.984 12.7795C177.867 13.8906 180.298 13.2706 181.414 11.3946C182.53 9.51869 181.907 7.09723 180.024 5.98615C178.14 4.87508 175.709 5.49512 174.593 7.37106C173.478 9.24701 174.1 11.6685 175.984 12.7795Z" fill="#242938"/>
<path d="M170.05 5.81971L168.668 3.06567" stroke="#242938" stroke-width="1.2" stroke-linecap="round"/>
<path d="M172.814 4.44251L172.123 1.68848" stroke="#242938" stroke-width="1.2" stroke-linecap="round"/>
<path d="M177.654 3.75403L176.963 1" stroke="#242938" stroke-width="1.2" stroke-linecap="round"/>
<path d="M181.111 4.44272L181.803 2.3772" stroke="#242938" stroke-width="1.2" stroke-linecap="round"/>
<path d="M184.566 7.88535L186.64 5.81982" stroke="#242938" stroke-width="1.2" stroke-linecap="round"/>
<path d="M186.641 10.6392L189.406 9.95068" stroke="#242938" stroke-width="1.2" stroke-linecap="round"/>
<path d="M17.5566 18.7432L27.5798 24.2512V35.2673L17.5566 40.7754L7.5332 35.2673V24.2512L17.5566 18.7432Z" fill="white"/>
<path d="M5.45898 22.8922L18.2473 15.9893L31.0357 22.8922V36.6266L18.2473 43.5296L5.45898 36.6266V22.8922Z" stroke="#242938" stroke-width="1.2"/>
<path d="M13.7539 27.3661L18.2471 24.9397L22.7403 27.3661V32.1524L18.2471 34.5788L13.7539 32.1524V27.3661Z" stroke="#242938" stroke-width="1.2"/>
<path d="M17.9023 23.5626V20.8086" stroke="#242938" stroke-width="1.2" stroke-linecap="round"/>
<path d="M17.9023 40.0866V35.9556" stroke="#242938" stroke-width="1.2" stroke-linecap="round"/>
<path d="M8.22461 34.579L12.3722 32.5134" stroke="#242938" stroke-width="1.2" stroke-linecap="round"/>
<path d="M23.4336 26.317L27.5812 24.2515" stroke="#242938" stroke-width="1.2" stroke-linecap="round"/>
<path d="M12.3722 26.317L8.22461 24.2515" stroke="#242938" stroke-width="1.2" stroke-linecap="round"/>
<path d="M27.5794 34.5789L24.123 33.2019" stroke="#242938" stroke-width="1.2" stroke-linecap="round"/>
<path d="M90.5578 34.3555L112.555 47.2279V72.9732L90.5578 85.8456L68.5586 72.9732V47.2279L90.5578 34.3555Z" fill="#EC5B60"/>
<path d="M66.3574 44.4791L90.5564 29.9731L114.754 44.4791L118.872 68.0007L112.986 74.59L90.5564 88.0365L66.3574 73.5305V44.4791Z" stroke="#242938" stroke-width="1.2"/>
<path d="M80.6582 54.3391L90.5583 48.5972L100.457 54.3391V65.8615L90.5583 71.6034L80.6582 65.8615V54.3391Z" stroke="#242938" stroke-width="1.2"/>
<path d="M89.4551 44.2151V36.5464" stroke="#242938" stroke-width="1.2" stroke-linecap="round"/>
<path d="M89.4551 82.559V75.9858" stroke="#242938" stroke-width="1.2" stroke-linecap="round"/>
<path d="M70.7578 71.6033L78.4572 67.2212" stroke="#242938" stroke-width="1.2" stroke-linecap="round"/>
<path d="M102.656 52.9793L110.356 48.5972" stroke="#242938" stroke-width="1.2" stroke-linecap="round"/>
<path d="M78.4572 52.9793L70.7578 48.5972" stroke="#242938" stroke-width="1.2" stroke-linecap="round"/>
<path d="M111.455 71.6033L103.756 67.2212" stroke="#242938" stroke-width="1.2" stroke-linecap="round"/>
<path d="M166.981 86.399L197.497 123.025C198.949 124.767 198.72 127.349 196.984 128.804C195.232 130.273 192.613 130.035 191.15 128.274L160.872 91.8422L166.981 86.399Z" fill="#242938"/>
<path d="M115.513 79.9385C123.697 95.4147 142.79 101.425 158.16 93.3619C173.529 85.2992 179.354 66.2171 171.17 50.7409C162.986 35.2647 143.892 29.2549 128.523 37.3176C113.154 45.3803 107.329 64.4623 115.513 79.9385Z" stroke="#242938" stroke-width="1.2"/>
<path d="M119.181 78.0128C126.297 91.4701 143.065 96.6101 156.632 89.4926C164.56 85.3337 169.641 77.9096 171.075 69.7716L119.181 78.0128Z" fill="white"/>
<path d="M162.7 45.0676C154.29 37.6636 141.691 35.8562 131.002 41.4636C127.322 43.3944 124.241 46.0081 121.84 49.0593L162.7 45.0676Z" fill="white"/>
<path d="M117.086 58.8812L168.176 52.4668C170.499 56.8587 171.501 61.5937 171.325 66.2232L117.627 73.5949C116.06 68.732 115.936 63.6464 117.086 58.8812Z" fill="white"/>
</svg>
