<svg width="192" height="196" viewBox="0 0 192 196" fill="none" xmlns="http://www.w3.org/2000/svg">
<path d="M168.647 56.1372H67.3137V129.157H168.647V56.1372Z" fill="#D1EAFF"/>
<path d="M97.8445 69.9154L144.559 69.6677C146.155 69.6557 147.462 71.0063 147.479 72.6835C147.496 74.3612 146.216 75.7308 144.62 75.7427L97.9051 75.9904C96.3092 76.0024 95.0016 74.6518 94.9848 72.9746C94.9679 71.2969 96.2482 69.9274 97.8445 69.9154Z" stroke="black" stroke-width="1.2"/>
<path d="M98.9126 80.5292L157.379 79.9806C158.928 79.9546 160.204 81.3114 160.228 83.0112C160.252 84.7114 159.015 86.1106 157.466 86.1371L98.9995 86.6857C97.4501 86.7117 96.1743 85.3549 96.1504 83.6552C96.1264 81.9549 97.3632 80.5557 98.9126 80.5292Z" stroke="black" stroke-width="1.2"/>
<path d="M99.8612 91.1574L158.104 91.6754C159.715 91.7004 161 92.9388 160.973 94.4413C160.946 95.9439 159.619 97.142 158.008 97.1174L99.7648 96.5994C98.1534 96.5744 96.8692 95.3359 96.8956 93.8334C96.9224 92.3309 98.2498 91.1328 99.8612 91.1574Z" stroke="black" stroke-width="1.2"/>
<path d="M14.2649 146.171C14.2649 147.619 13.9505 150.419 12.536 150.419C11.1215 150.419 9.14124 147.603 9.14124 146.171C9.14124 144.739 10.2886 143.565 11.7031 143.565C13.1176 143.565 14.2649 144.723 14.2649 146.171Z" fill="black"/>
<path d="M20.3314 147.861C20.3314 148.955 20.0957 151.094 19.0112 151.094C17.9425 151.094 16.4494 148.955 16.4494 147.861C16.4494 146.766 17.3138 145.865 18.3983 145.865C19.467 145.865 20.3314 146.766 20.3314 147.861Z" fill="black"/>
<path d="M14.9407 154.795C14.9407 155.889 14.7049 158.029 13.6205 158.029C12.5517 158.029 11.0587 155.889 11.0587 154.795C11.0587 153.701 11.9231 152.8 13.0075 152.8C14.0605 152.8 14.9407 153.685 14.9407 154.795Z" fill="black"/>
<path d="M20.3472 154.795C20.3472 155.889 20.1115 158.029 19.027 158.029C17.9583 158.029 16.4652 155.889 16.4652 154.795C16.4652 153.701 17.3296 152.8 18.4141 152.8C19.4671 152.8 20.3472 153.685 20.3472 154.795Z" fill="black"/>
<path d="M25.7382 154.795C25.7382 155.889 25.5025 158.029 24.418 158.029C23.3336 158.029 21.8562 155.889 21.8562 154.795C21.8562 153.701 22.7206 152.8 23.8051 152.8C24.8738 152.8 25.7382 153.685 25.7382 154.795Z" fill="black"/>
<path d="M161.797 72.7566C161.797 73.8507 161.562 75.9905 160.477 75.9905C159.409 75.9905 157.915 73.8507 157.915 72.7566C157.915 71.6626 158.78 70.7616 159.864 70.7616C160.933 70.7616 161.797 71.6626 161.797 72.7566Z" fill="black"/>
<path d="M167.204 72.7566C167.204 73.8507 166.968 75.9905 165.884 75.9905C164.815 75.9905 163.322 73.8507 163.322 72.7566C163.322 71.6626 164.186 70.7616 165.271 70.7616C166.34 70.7616 167.204 71.6626 167.204 72.7566Z" fill="black"/>
<path d="M172.61 72.7566C172.61 73.8507 172.375 75.9905 171.29 75.9905C170.206 75.9905 168.728 73.8507 168.728 72.7566C168.728 71.6626 169.593 70.7616 170.677 70.7616C171.746 70.7616 172.61 71.6626 172.61 72.7566Z" fill="black"/>
<path d="M15.0035 161.713C15.0035 162.807 14.7678 164.947 13.6833 164.947C12.5989 164.947 11.1215 162.807 11.1215 161.713C11.1215 160.619 11.9859 159.718 13.0704 159.718C14.1391 159.734 15.0035 160.619 15.0035 161.713Z" fill="black"/>
<path d="M88.0547 115.071L90.6166 46.9016H170.174V112.271L88.0547 115.071Z" stroke="black" stroke-width="1.2"/>
<path d="M123.039 188.86L175.345 194.881L183.122 127.318L130.586 123.296L123.039 188.86Z" fill="white"/>
<path d="M170 158.808L141.131 155.485" stroke="black" stroke-width="1.2" stroke-linecap="round"/>
<path d="M159.631 138.114L135.205 135.302" stroke="black" stroke-width="1.2" stroke-linecap="round"/>
<path d="M170.426 155.107L159.323 153.829" stroke="black" stroke-width="1.2" stroke-linecap="round"/>
<path d="M170.599 46.4836H90.2236V60.1915H170.583V46.4836H170.599Z" fill="black"/>
<path d="M96.5575 56.8285C98.4435 56.8285 99.9837 55.2679 99.9837 53.3211C99.9837 51.3904 98.4592 49.8137 96.5575 49.8137C94.6715 49.8137 93.1312 51.3744 93.1312 53.3211C93.1312 55.2679 94.6715 56.8285 96.5575 56.8285Z" fill="white"/>
<path d="M105.453 56.8285C107.339 56.8285 108.879 55.2679 108.879 53.3211C108.879 51.3904 107.355 49.8137 105.453 49.8137C103.567 49.8137 102.027 51.3744 102.027 53.3211C102.027 55.2679 103.551 56.8285 105.453 56.8285Z" fill="white"/>
<path d="M114.333 56.8285C116.219 56.8285 117.759 55.2679 117.759 53.3211C117.759 51.3904 116.235 49.8137 114.333 49.8137C112.447 49.8137 110.907 51.3744 110.907 53.3211C110.922 55.2679 112.447 56.8285 114.333 56.8285Z" fill="white"/>
<path d="M30.1179 115.088H61.5041" stroke="black" stroke-width="1.2" stroke-linecap="round"/>
<path d="M30.1179 111.098H42.2197" stroke="black" stroke-width="1.2" stroke-linecap="round"/>
<path d="M24.0981 134.346L26.1884 99.755H91.6013V132.915L24.0981 134.346Z" stroke="black" stroke-width="1.2"/>
<path d="M92.01 99.3529H25.7956V106.384H92.01V99.3529Z" fill="black"/>
<path d="M30.1176 104.662C31.1706 104.662 32.0351 103.858 32.0351 102.876C32.0351 101.895 31.1706 101.09 30.1176 101.09C29.0646 101.09 28.2002 101.895 28.2002 102.876C28.2002 103.858 29.0489 104.662 30.1176 104.662Z" fill="white"/>
<path d="M35.1471 104.662C36.2158 104.662 37.096 103.858 37.096 102.876C37.096 101.895 36.2158 101.09 35.1471 101.09C34.0784 101.09 33.1982 101.895 33.1982 102.876C33.1982 103.858 34.0627 104.662 35.1471 104.662Z" fill="white"/>
<path d="M40.1608 104.662C41.2138 104.662 42.0782 103.858 42.0782 102.876C42.0782 101.895 41.2138 101.09 40.1608 101.09C39.1078 101.09 38.2433 101.895 38.2433 102.876C38.2433 103.858 39.1078 104.662 40.1608 104.662Z" fill="white"/>
<path d="M120.716 185.817L173.022 191.838L180.799 124.274L128.264 120.253L120.716 185.817Z" stroke="black" stroke-width="1.2"/>
<path d="M191 8.08704C187.149 19.462 169.531 40.5065 164.219 33.9743C157.586 25.8011 160.148 2.4076 169.107 1.04003C178.081 -0.327536 165.036 33.8134 153.846 31.4162C144.903 29.4855 150.121 19.5103 153.846 14.7479C152.526 21.1513 150.828 30.129 132.534 36.1463" stroke="black" stroke-width="1.2" stroke-linecap="round"/>
<path d="M50.4289 172.074C48.4329 181.326 39.2543 198.428 36.4882 193.103C33.0305 186.458 34.3665 167.441 39.0343 166.331C43.7022 165.221 36.9126 192.974 31.0974 191.011C26.4452 189.451 29.1642 181.326 31.0974 177.464C30.4059 182.677 29.5257 189.965 20.0014 194.857" stroke="black" stroke-width="1.2" stroke-linecap="round"/>
<path d="M77.7918 31.0218L62.2008 25.2136L59.3718 33.1616L74.9628 38.9698L77.7918 31.0218Z" stroke="black" stroke-width="1.2"/>
<path d="M68.1101 32.9044L62.1534 25.4873L77.713 31.1507L68.1101 32.9044Z" fill="black"/>
<path d="M17.534 65.5006L1.12579 67.9944L2.33598 76.3607L18.7442 73.8669L17.534 65.5006Z" stroke="black" stroke-width="1.2"/>
<path d="M9.89565 72.0401L1 68.2431L17.5811 65.7654L9.89565 72.0401Z" fill="black"/>
<path d="M19.64 27.6755L10.7129 25.0369L9.47125 29.4774L18.3983 32.1L19.64 27.6755Z" stroke="black" stroke-width="1.2"/>
<path d="M14.312 29.0591L11.3258 25.5195L18.9484 27.6916L14.312 29.0591Z" stroke="black" stroke-width="1.2"/>
<path d="M109.634 59.773C110.907 59.95 112.07 59.0168 112.243 57.6814L107.638 57.054C107.465 58.3893 108.361 59.596 109.634 59.773Z" fill="black"/>
<path d="M112.62 59.4512C113.28 59.4995 113.861 58.9847 113.909 58.2928L111.52 58.1158C111.457 58.7916 111.96 59.403 112.62 59.4512Z" fill="black"/>
<path d="M41.0148 78.8547L27.4513 49.9909L43.4194 41.1902L58.2246 69.3621L41.0148 78.8547Z" fill="#FFDC4D"/>
<path d="M38.8928 78.4203L25.3293 49.5566L41.2975 40.7559L56.1026 68.9278L38.8928 78.4203Z" stroke="black" stroke-width="1.2"/>
<path d="M31.3176 49.7652L29.8088 46.7888L36.3312 43.1848L37.7614 45.9521L31.3176 49.7652Z" fill="black"/>
<path d="M46.2327 57.7779C39.946 54.7209 36.8341 59.8212 36.0797 62.7494C37.6042 63.3929 40.9519 64.4387 43.1365 63.039C45.3368 61.6231 46.2013 58.9041 46.2327 57.7779Z" fill="white"/>
<path d="M41.9262 62.8784C43.3564 62.637 44.3308 61.2534 44.0951 59.7893C43.8593 58.3252 42.5077 57.3276 41.0775 57.569C39.6473 57.8103 38.6728 59.194 38.9086 60.6581C39.1443 62.1222 40.496 63.1197 41.9262 62.8784Z" fill="black"/>
<path d="M36.0011 61.8323L34.1151 61.1405" stroke="black" stroke-width="1.2" stroke-linecap="round"/>
<path d="M36.9437 59.789L35.2149 58.7593" stroke="black" stroke-width="1.2" stroke-linecap="round"/>
<path d="M38.7358 57.8422L37.3213 56.3781" stroke="black" stroke-width="1.2" stroke-linecap="round"/>
<path d="M41.062 56.6356L40.5276 54.6566" stroke="black" stroke-width="1.2" stroke-linecap="round"/>
<path d="M44.0636 56.5229L44.3311 54.4957" stroke="black" stroke-width="1.2" stroke-linecap="round"/>
<path d="M46.1381 57.2146L46.9554 55.3483" stroke="black" stroke-width="1.2" stroke-linecap="round"/>
</svg>
