<svg width="203" height="190" viewBox="0 0 203 190" fill="none" xmlns="http://www.w3.org/2000/svg">
<path d="M186.944 35.495H74.5508V116.484H186.944V35.495Z" fill="white"/>
<path d="M108.414 50.777L160.228 50.5022C161.998 50.489 163.448 51.987 163.467 53.8472C163.485 55.708 162.065 57.2271 160.295 57.2404L108.482 57.5151C106.712 57.5283 105.261 56.0303 105.243 54.1701C105.224 52.3093 106.644 50.7902 108.414 50.777Z" stroke="#242938" stroke-width="1.15913"/>
<path d="M109.599 62.5494L174.447 61.9408C176.165 61.912 177.58 63.4169 177.607 65.3022C177.633 67.188 176.262 68.7399 174.543 68.7693L109.696 69.3778C107.977 69.4067 106.562 67.9018 106.536 66.0165C106.509 64.1307 107.881 62.5787 109.599 62.5494Z" stroke="#242938" stroke-width="1.15913"/>
<path d="M110.649 74.3373L175.249 74.9119C177.036 74.9396 178.461 76.3133 178.431 77.9798C178.402 79.6463 176.929 80.9752 175.142 80.9479L110.542 80.3733C108.755 80.3456 107.331 78.972 107.36 77.3055C107.39 75.639 108.862 74.3101 110.649 74.3373Z" stroke="#242938" stroke-width="1.15913"/>
<path d="M97.5566 100.861L100.398 25.2512H188.639V97.7559L97.5566 100.861Z" stroke="#242938" stroke-width="1.15913"/>
<path d="M136.36 182.704L194.374 189.383L203.001 114.444L144.731 109.984L136.36 182.704Z" fill="white"/>
<path d="M188.445 149.371L156.426 145.686" stroke="#242938" stroke-width="1.15913" stroke-linecap="round"/>
<path d="M176.947 126.419L149.854 123.3" stroke="#242938" stroke-width="1.15913" stroke-linecap="round"/>
<path d="M188.917 145.267L176.602 143.849" stroke="#242938" stroke-width="1.15913" stroke-linecap="round"/>
<path d="M189.113 24.7876H99.9648V39.9916H189.095V24.7876H189.113Z" fill="#242938"/>
<path d="M106.986 36.2617C109.078 36.2617 110.786 34.5307 110.786 32.3714C110.786 30.23 109.095 28.4812 106.986 28.4812C104.894 28.4812 103.186 30.2122 103.186 32.3714C103.186 34.5307 104.894 36.2617 106.986 36.2617Z" fill="white"/>
<path d="M116.855 36.2617C118.947 36.2617 120.655 34.5307 120.655 32.3714C120.655 30.23 118.964 28.4812 116.855 28.4812C114.763 28.4812 113.055 30.2122 113.055 32.3714C113.055 34.5307 114.746 36.2617 116.855 36.2617Z" fill="white"/>
<path d="M126.701 36.2617C128.792 36.2617 130.501 34.5307 130.501 32.3714C130.501 30.23 128.81 28.4812 126.701 28.4812C124.609 28.4812 122.9 30.2122 122.9 32.3714C122.918 34.5307 124.609 36.2617 126.701 36.2617Z" fill="white"/>
<path d="M33.2949 100.88H68.1068" stroke="#242938" stroke-width="1.15913" stroke-linecap="round"/>
<path d="M33.2949 96.4543H46.7176" stroke="#242938" stroke-width="1.15913" stroke-linecap="round"/>
<path d="M26.6191 122.24L28.9376 83.8734H101.49V120.652L26.6191 122.24Z" stroke="#242938" stroke-width="1.15913"/>
<path d="M101.943 83.4275H28.502V91.2258H101.943V83.4275Z" fill="#242938"/>
<path d="M33.2947 89.3162C34.4626 89.3162 35.4214 88.424 35.4214 87.3354C35.4214 86.2469 34.4626 85.3546 33.2947 85.3546C32.1267 85.3546 31.168 86.2469 31.168 87.3354C31.168 88.424 32.1093 89.3162 33.2947 89.3162Z" fill="white"/>
<path d="M38.8745 89.3162C40.0599 89.3162 41.0361 88.424 41.0361 87.3354C41.0361 86.2469 40.0599 85.3546 38.8745 85.3546C37.6891 85.3546 36.7129 86.2469 36.7129 87.3354C36.7129 88.424 37.6717 89.3162 38.8745 89.3162Z" fill="white"/>
<path d="M44.4334 89.3162C45.6013 89.3162 46.5601 88.424 46.5601 87.3354C46.5601 86.2469 45.6013 85.3546 44.4334 85.3546C43.2654 85.3546 42.3066 86.2469 42.3066 87.3354C42.3066 88.424 43.2654 89.3162 44.4334 89.3162Z" fill="white"/>
<path d="M133.782 179.329L191.796 186.007L200.423 111.069L142.153 106.608L133.782 179.329Z" stroke="#242938" stroke-width="1.15913"/>
<path d="M86.1707 7.63813L68.878 1.19604L65.7402 10.0115L83.0329 16.4536L86.1707 7.63813Z" stroke="#242938" stroke-width="1.15913"/>
<path d="M75.4368 9.72635L68.8301 1.49976L86.0879 7.78123L75.4368 9.72635Z" fill="#242938"/>
<path d="M19.3378 45.8801L1.13867 48.6461L2.48094 57.9256L20.6801 55.1596L19.3378 45.8801Z" stroke="#242938" stroke-width="1.15913"/>
<path d="M10.8666 53.1335L1 48.9221L19.3909 46.174L10.8666 53.1335Z" fill="#242938"/>
<path d="M21.6731 3.9266L11.7717 1L10.3945 5.92525L20.296 8.834L21.6731 3.9266Z" stroke="#242938" stroke-width="1.15913"/>
<path d="M18.8246 3.95398L15.9622 4.79826L14.1187 2.61307L18.8246 3.95398Z" stroke="#242938" stroke-width="1.15913"/>
<path d="M121.491 39.5275C122.903 39.7238 124.193 38.6888 124.385 37.2077L119.278 36.5117C119.086 37.9929 120.079 39.3312 121.491 39.5275Z" fill="#242938"/>
<path d="M124.802 39.1705C125.534 39.224 126.179 38.653 126.232 37.8856L123.582 37.6893C123.512 38.4388 124.07 39.1169 124.802 39.1705Z" fill="#242938"/>
<path d="M45.3818 60.6919L30.3379 28.6778L48.0489 18.9165L64.47 50.1633L45.3818 60.6919Z" fill="#EC5B60"/>
<path d="M43.0302 60.21L27.9863 28.1958L45.6973 18.4346L62.1184 49.6814L43.0302 60.21Z" stroke="#242938" stroke-width="1.15913"/>
<path d="M34.6266 28.4274L32.9531 25.1261L40.1874 21.1288L41.7738 24.1981L34.6266 28.4274Z" fill="#242938"/>
<path d="M51.1713 37.3147C44.1985 33.9241 40.7469 39.581 39.9102 42.8288C41.6011 43.5426 45.3141 44.7025 47.7372 43.15C50.1777 41.5796 51.1364 38.5638 51.1713 37.3147Z" fill="white"/>
<path d="M46.3938 42.9718C47.9801 42.7041 49.0609 41.1694 48.7994 39.5455C48.5379 37.9216 47.0388 36.8152 45.4525 37.0829C43.8661 37.3506 42.7853 38.8853 43.0468 40.5092C43.3083 42.1331 44.8075 43.2395 46.3938 42.9718Z" fill="#242938"/>
<path d="M39.8204 41.8117L37.7285 41.0443" stroke="#242938" stroke-width="1.15913" stroke-linecap="round"/>
<path d="M40.8668 39.5453L38.9492 38.4032" stroke="#242938" stroke-width="1.15913" stroke-linecap="round"/>
<path d="M42.854 37.386L41.2852 35.7621" stroke="#242938" stroke-width="1.15913" stroke-linecap="round"/>
<path d="M45.4364 36.0475L44.8438 33.8525" stroke="#242938" stroke-width="1.15913" stroke-linecap="round"/>
<path d="M48.7656 35.9227L49.0623 33.6742" stroke="#242938" stroke-width="1.15913" stroke-linecap="round"/>
<path d="M51.0645 36.6899L51.9709 34.6199" stroke="#242938" stroke-width="1.15913" stroke-linecap="round"/>
</svg>
