<svg width="194" height="181" viewBox="0 0 194 181" fill="none" xmlns="http://www.w3.org/2000/svg">
<path d="M143.342 82.6233H7.9668V180.173H143.342V82.6233Z" fill="white"/>
<path d="M69.1853 151.137L1 149.96V1H179.427L185.15 156.283L124.402 154.225" stroke="#242938" stroke-width="1.2"/>
<path d="M39.8203 48.7795H115.471H39.8203ZM39.8203 38.8254H100.312H39.8203Z" stroke="#242938" stroke-width="1.2" stroke-linecap="round"/>
<path d="M51.7647 24.8898C47.9437 24.8898 44.7969 21.559 44.7969 17.4243C44.7969 13.2895 47.9437 9.95874 51.7647 9.95874C55.5858 9.95874 58.7325 13.2895 58.7325 17.4243C58.7325 21.559 55.6982 24.8898 51.7647 24.8898Z" fill="#242938"/>
<path d="M33.3503 24.8898C29.1359 24.8898 25.8848 21.559 25.8848 17.4243C25.8848 13.2895 29.2563 9.95874 33.3503 9.95874C37.5647 9.95874 40.8158 13.2895 40.8158 17.4243C40.8158 21.559 37.4443 24.8898 33.3503 24.8898Z" fill="#242938"/>
<path d="M14.9346 24.8898C11.1136 24.8898 7.9668 21.559 7.9668 17.4243C7.9668 13.2895 11.1136 9.95874 14.9346 9.95874C18.7557 9.95874 21.9025 13.2895 21.9025 17.4243C21.9025 21.6739 18.8681 24.8898 14.9346 24.8898Z" fill="#242938"/>
<path d="M83.3623 75.5577L79.0112 81.4148" stroke="#242938" stroke-width="1.2"/>
<path d="M76.1113 70.2181L83.3654 75.5578" stroke="#242938" stroke-width="1.2"/>
<path d="M83.365 75.5678C83.365 75.5678 69.6984 78.1769 62.1967 66.8326C54.6949 55.4884 43.2754 55.7623 43.2754 55.7623" stroke="#242938" stroke-width="1.2" stroke-miterlimit="10" stroke-linecap="round"/>
<path d="M157.658 110.476L152.554 115.69" stroke="#EC5B60" stroke-width="1.2"/>
<path d="M151.193 104.203L157.658 110.476" stroke="#EC5B60" stroke-width="1.2"/>
<path d="M157.659 110.486C157.659 110.486 143.765 111.221 137.869 98.9649C131.973 86.7093 120.621 85.4343 120.621 85.4343" stroke="#EC5B60" stroke-width="1.2" stroke-miterlimit="10" stroke-linecap="round"/>
<path d="M26.697 100.904L19.4205 100.366" stroke="#242938" stroke-width="1.2"/>
<path d="M27.3223 91.9179L26.6976 100.904" stroke="#242938" stroke-width="1.2"/>
<path d="M26.6894 100.912C26.6894 100.912 17.1671 90.7674 22.7301 78.3568C24.771 73.8038 25.2089 69.6429 24.9453 66.1992" stroke="#242938" stroke-width="1.2" stroke-miterlimit="10" stroke-linecap="round"/>
<path d="M85.8877 105.134L87.8087 112.173" stroke="#242938" stroke-width="1.2"/>
<path d="M77.209 107.544L85.8882 105.134" stroke="#242938" stroke-width="1.2"/>
<path d="M85.8989 105.138C85.8989 105.138 79.5134 117.5 65.9578 116.397C60.9848 115.992 56.9162 116.968 53.7578 118.365" stroke="#242938" stroke-width="1.2" stroke-miterlimit="10" stroke-linecap="round"/>
<path d="M153.575 55.3637L155.496 62.4027" stroke="#242938" stroke-width="1.2"/>
<path d="M144.895 57.7734L153.574 55.3638" stroke="#242938" stroke-width="1.2"/>
<path d="M153.584 55.3677C153.584 55.3677 147.199 67.7292 133.643 66.6262C128.67 66.2216 124.602 67.1972 121.443 68.5948" stroke="#242938" stroke-width="1.2" stroke-miterlimit="10" stroke-linecap="round"/>
<ellipse cx="106.513" cy="79.1394" rx="11.9449" ry="12.4426" fill="#EC5B60"/>
<path d="M112.381 81.6948C112.262 83.614 109.615 85.1361 106.372 85.1361C103.328 85.1361 100.813 83.7861 100.416 82.0389C100.39 81.9198 100.377 81.8139 100.363 81.6948C101.065 81.033 102.15 80.5036 103.46 80.1859C104.122 80.7815 105.155 81.8007 105.83 82.436C105.883 81.6551 105.922 80.9536 105.975 80.2256H106.915C106.955 80.9536 106.994 81.6286 107.034 82.5022C107.63 81.9066 108.649 80.8742 109.284 80.1992C110.595 80.5036 111.68 81.033 112.381 81.6948Z" fill="white"/>
<path d="M105.513 78.783L105.129 80.2787H107.697L107.326 78.783H105.513Z" fill="white"/>
<path d="M103.473 80.8345C103.473 80.8345 106.371 80.0007 109.283 80.8345" stroke="white" stroke-width="1.2" stroke-linecap="round"/>
<path d="M109.164 75.289C109.375 74.5742 109.521 72.5227 108.158 72.5094C108.277 72.1256 107.708 71.4109 106.41 71.4903C105.352 71.5432 104.385 72.2447 103.816 73.2771C103.472 73.8992 103.446 74.5875 103.657 75.3022C103.313 75.3552 103.274 75.5802 103.313 75.8449C103.34 76.0302 103.353 76.2287 103.419 76.3876C103.737 77.142 104.028 77.9097 104.425 78.6376C104.849 79.3921 105.577 79.7495 106.41 79.7495C107.244 79.7495 107.986 79.3921 108.396 78.6376C108.793 77.9229 109.084 77.1552 109.402 76.3876C109.468 76.2155 109.494 76.0302 109.508 75.8449C109.547 75.5669 109.508 75.3419 109.164 75.289Z" fill="white"/>
<ellipse cx="21.9038" cy="49.2773" rx="11.9449" ry="12.4426" fill="#242938"/>
<path d="M27.774 52.0724C27.6549 53.9916 25.0077 55.5137 21.7649 55.5137C18.7207 55.5137 16.2059 54.1636 15.8088 52.4165C15.7823 52.2974 15.7691 52.1915 15.7559 52.0724C16.4574 51.4106 17.5427 50.8811 18.853 50.5635C19.5148 51.1591 20.5472 52.1782 21.2223 52.8136C21.2752 52.0327 21.3149 51.3312 21.3679 50.6032H22.3076C22.3473 51.3312 22.387 52.0062 22.4267 52.8797C23.0223 52.2841 24.0415 51.2517 24.6768 50.5767C25.9872 50.8811 27.0725 51.4106 27.774 52.0724Z" fill="white"/>
<path d="M20.9053 49.1606L20.5215 50.6562H23.0892L22.7186 49.1606H20.9053Z" fill="white"/>
<path d="M18.8652 51.2121C18.8652 51.2121 21.7639 50.3782 24.6758 51.2121" stroke="white" stroke-width="1.2" stroke-linecap="round"/>
<path d="M24.5561 45.6665C24.7679 44.9518 24.9135 42.9002 23.5502 42.887C23.6693 42.5032 23.1002 41.7884 21.803 41.8679C20.7442 41.9208 19.778 42.6223 19.2088 43.6547C18.8647 44.2768 18.8382 44.965 19.05 45.6798C18.7059 45.7327 18.6662 45.9577 18.7059 46.2224C18.7323 46.4077 18.7456 46.6063 18.8117 46.7651C19.1294 47.5196 19.4206 48.2872 19.8177 49.0152C20.2412 49.7697 20.9692 50.127 21.803 50.127C22.6369 50.127 23.3781 49.7697 23.7884 49.0152C24.1855 48.3005 24.4767 47.5328 24.7943 46.7651C24.8605 46.5931 24.887 46.4077 24.9002 46.2224C24.9399 45.9445 24.9002 45.7195 24.5561 45.6665Z" fill="white"/>
<ellipse cx="154.293" cy="34.3459" rx="11.9449" ry="12.4426" fill="#242938"/>
<path d="M160.161 37.1412C160.042 39.0603 157.394 40.5825 154.152 40.5825C151.107 40.5825 148.593 39.2324 148.196 37.4853C148.169 37.3662 148.156 37.2603 148.143 37.1412C148.844 36.4794 149.929 35.9499 151.24 35.6323C151.902 36.2279 152.934 37.247 153.609 37.8824C153.662 37.1014 153.702 36.3999 153.755 35.672H154.694C154.734 36.3999 154.774 37.075 154.813 37.9485C155.409 37.3529 156.428 36.3205 157.064 35.6455C158.374 35.9499 159.459 36.4794 160.161 37.1412Z" fill="white"/>
<path d="M153.292 34.2295L152.908 35.7251H155.476L155.105 34.2295H153.292Z" fill="white"/>
<path d="M151.252 36.2809C151.252 36.2809 154.151 35.447 157.062 36.2809" stroke="white" stroke-width="1.2" stroke-linecap="round"/>
<path d="M156.943 30.7353C157.155 30.0206 157.3 27.969 155.937 27.9558C156.056 27.572 155.487 26.8572 154.19 26.9366C153.131 26.9896 152.165 27.6911 151.596 28.7235C151.251 29.3456 151.225 30.0338 151.437 30.7486C151.093 30.8015 151.053 31.0265 151.093 31.2912C151.119 31.4765 151.132 31.6751 151.198 31.8339C151.516 32.5883 151.807 33.356 152.204 34.084C152.628 34.8384 153.356 35.1958 154.19 35.1958C155.024 35.1958 155.765 34.8384 156.175 34.084C156.572 33.3693 156.863 32.6016 157.181 31.8339C157.247 31.6618 157.274 31.4765 157.287 31.2912C157.327 31.0133 157.287 30.7883 156.943 30.7353Z" fill="white"/>
<ellipse cx="32.8511" cy="119.951" rx="11.9449" ry="12.4426" fill="#242938"/>
<path d="M38.7213 122.987C38.6021 124.906 35.955 126.428 32.7122 126.428C29.668 126.428 27.1531 125.078 26.7561 123.331C26.7296 123.212 26.7164 123.106 26.7031 122.987C27.4046 122.325 28.49 121.795 29.8003 121.478C30.4621 122.073 31.4945 123.092 32.1695 123.728C32.2225 122.947 32.2622 122.245 32.3151 121.517H33.2549C33.2946 122.245 33.3343 122.92 33.374 123.794C33.9696 123.198 34.9888 122.166 35.6241 121.491C36.9344 121.795 38.0198 122.325 38.7213 122.987Z" fill="white"/>
<path d="M31.8526 120.075L31.4688 121.57H34.0365L33.6659 120.075H31.8526Z" fill="white"/>
<path d="M29.8125 122.126C29.8125 122.126 32.7112 121.292 35.623 122.126" stroke="white" stroke-width="1.2" stroke-linecap="round"/>
<path d="M35.5034 116.581C35.7151 115.866 35.8607 113.814 34.4974 113.801C34.6166 113.417 34.0474 112.703 32.7503 112.782C31.6914 112.835 30.7252 113.536 30.1561 114.569C29.812 115.191 29.7855 115.879 29.9973 116.594C29.6531 116.647 29.6134 116.872 29.6531 117.137C29.6796 117.322 29.6928 117.52 29.759 117.679C30.0767 118.434 30.3679 119.201 30.7649 119.929C31.1885 120.684 31.9164 121.041 32.7503 121.041C33.5842 121.041 34.3254 120.684 34.7357 119.929C35.1328 119.215 35.4239 118.447 35.7416 117.679C35.8078 117.507 35.8343 117.322 35.8475 117.137C35.8872 116.859 35.8475 116.634 35.5034 116.581Z" fill="white"/>
<ellipse cx="181.168" cy="112.983" rx="11.9449" ry="12.4426" fill="#242938"/>
<path d="M187.038 116.019C186.919 117.938 184.271 119.46 181.029 119.46C177.984 119.46 175.47 118.11 175.072 116.363C175.046 116.244 175.033 116.138 175.02 116.019C175.721 115.357 176.806 114.827 178.117 114.51C178.779 115.105 179.811 116.124 180.486 116.76C180.539 115.979 180.579 115.277 180.632 114.549H181.571C181.611 115.277 181.651 115.952 181.69 116.826C182.286 116.23 183.305 115.198 183.94 114.523C185.251 114.827 186.336 115.357 187.038 116.019Z" fill="white"/>
<path d="M180.169 113.107L179.785 114.602H182.353L181.982 113.107H180.169Z" fill="white"/>
<path d="M178.129 115.158C178.129 115.158 181.028 114.324 183.939 115.158" stroke="white" stroke-width="1.2" stroke-linecap="round"/>
<path d="M183.82 109.613C184.032 108.898 184.177 106.846 182.814 106.833C182.933 106.449 182.364 105.734 181.067 105.814C180.008 105.867 179.042 106.568 178.472 107.601C178.128 108.223 178.102 108.911 178.314 109.626C177.97 109.679 177.93 109.904 177.97 110.168C177.996 110.354 178.009 110.552 178.075 110.711C178.393 111.466 178.684 112.233 179.081 112.961C179.505 113.716 180.233 114.073 181.067 114.073C181.901 114.073 182.642 113.716 183.052 112.961C183.449 112.247 183.74 111.479 184.058 110.711C184.124 110.539 184.151 110.354 184.164 110.168C184.204 109.891 184.164 109.666 183.82 109.613Z" fill="white"/>
<path d="M71.8992 145.367L95.3965 140.65L95.422 148.702L107.529 152.058L103.557 162.434L89.9833 156.471L87.1448 161.728L71.8992 145.367Z" fill="#EC5B60" stroke="#242938" stroke-width="1.2"/>
<path d="M69.6782 141.195L96.1068 136.562L96.4687 146.13L110.326 150.62L106.254 162.783L90.6277 155.136L87.6289 161.265L69.6782 141.195Z" stroke="#242938" stroke-width="1.2"/>
</svg>
