<svg width="205" height="184" viewBox="0 0 205 184" fill="none" xmlns="http://www.w3.org/2000/svg">
<path d="M179.639 90.3291H72.2266V167.647H179.639V90.3291Z" fill="white"/>
<path d="M44.4473 155.61L48.3298 55.1426H168.527V151.502L44.4473 155.61Z" stroke="#242938" stroke-width="2"/>
<path d="M170.344 54.5571H62.3203V72.3477H170.344V54.5571Z" fill="#242938"/>
<path d="M57.4092 69.9577C60.2219 69.9577 62.5021 67.5739 62.5021 64.6334C62.5021 61.6929 60.2219 59.3091 57.4092 59.3091C54.5965 59.3091 52.3164 61.6929 52.3164 64.6334C52.3164 67.5739 54.5965 69.9577 57.4092 69.9577Z" fill="white"/>
<path d="M70.6036 69.9577C73.5442 69.9577 75.9279 67.5739 75.9279 64.6334C75.9279 61.6929 73.5442 59.3091 70.6036 59.3091C67.6631 59.3091 65.2793 61.6929 65.2793 64.6334C65.2793 67.5739 67.6631 69.9577 70.6036 69.9577Z" fill="white"/>
<path d="M84.0313 69.9577C86.7161 69.9577 88.8926 67.5739 88.8926 64.6334C88.8926 61.6929 86.7161 59.3091 84.0313 59.3091C81.3464 59.3091 79.1699 61.6929 79.1699 64.6334C79.1699 67.5739 81.3464 69.9577 84.0313 69.9577Z" fill="white"/>
<path d="M31.0195 88.0142V171.814H127.163L127.32 153.509" stroke="#D58B8B" stroke-width="2"/>
<path d="M72.3517 81.0713L141.391 82.7946C144.699 82.877 147.312 85.5634 147.227 88.7934C147.143 92.0242 144.393 94.5763 141.085 94.4939L72.0455 92.7706C68.738 92.6882 66.1247 90.0018 66.209 86.7718C66.2933 83.541 69.0434 80.9889 72.3517 81.0713Z" stroke="#242938" stroke-width="2"/>
<path d="M60.9242 108.096L129.176 106.997C132.446 106.945 135.138 109.662 135.189 113.065C135.239 116.469 132.629 119.271 129.359 119.324L61.1075 120.422C57.8376 120.474 55.145 117.758 55.0945 114.355C55.0438 110.95 57.6542 108.149 60.9242 108.096Z" stroke="#242938" stroke-width="2"/>
<path d="M82.4479 122.276L151.093 123.402C154.383 123.457 157.005 126.15 156.951 129.418C156.896 132.685 154.186 135.291 150.896 135.238L82.2511 134.111C78.9613 134.057 76.3396 131.363 76.3934 128.096C76.4481 124.828 79.1581 122.222 82.4479 122.276Z" stroke="#242938" stroke-width="2"/>
<path d="M129.853 134.235C132.584 134.28 134.835 132.104 134.88 129.375C134.925 126.646 132.748 124.397 130.016 124.352C127.285 124.307 125.034 126.483 124.989 129.212C124.943 131.941 127.121 134.19 129.853 134.235Z" fill="#D58B8B"/>
<path d="M81.6965 118.955C84.428 118.912 86.6081 116.666 86.5658 113.937C86.5236 111.208 84.275 109.029 81.5435 109.072C78.812 109.114 76.6319 111.36 76.6741 114.089C76.7164 116.819 78.965 118.997 81.6965 118.955Z" fill="#D58B8B"/>
<path d="M47.6872 140.331L17.6567 149.9L22.57 159.809L10.6484 171.85L21.6059 182L33.62 165.798L40.1254 170.401L47.6872 140.331Z" fill="white" stroke="#242938" stroke-width="2"/>
<path d="M46.7603 144.961L21.2313 152.93L25.4103 161.19L15.2773 171.222L24.5948 179.685L34.8057 166.184L40.337 170.022L46.7603 144.961Z" fill="#EC5B60" stroke="#242938" stroke-width="2"/>
<path d="M63.2559 92.1916C61.2289 91.3145 53.8788 87.9627 50.457 86.3965L59.4552 66.4738C60.2024 66.3798 63.009 66.1919 68.2585 66.1919C75.3401 66.1919 77.4841 69.3244 80.7001 70.1388C85.053 71.3605 85.5078 72.9268 85.4103 73.4279C85.3129 73.9291 82.5517 75.4954 77.4841 74.5243C73.43 73.7475 73.3047 74.7016 73.7484 75.2761C75.0153 77.8448 80.2128 80.2881 82.2918 80.6014C84.3708 80.9146 91.6473 79.9435 90.1531 82.9507C89.1012 85.067 85.04 85.4962 82.449 85.4411C84.4215 85.5833 87.132 86.0531 87.132 87.1796C86.3004 89.5102 83.5587 89.7796 82.2918 89.6229C79.875 92.2041 77.3652 92.4108 76.4121 92.1916C76.1847 92.6301 75.3336 93.6451 73.7484 94.1964C71.7668 94.8855 65.7897 93.2879 63.2559 92.1916Z" fill="#D58B8B"/>
<path d="M147.986 100.318C149.948 99.4042 161.376 95.097 166.627 90.692L151.665 73.5285C150.942 73.4306 148.225 73.2349 143.143 73.2349C136.288 73.2349 134.212 76.4979 131.099 77.3463C126.885 78.6188 126.445 80.2503 126.54 80.7724C126.634 81.2945 129.307 82.926 134.212 81.9145C138.137 81.1052 138.258 82.0992 137.829 82.6976C136.602 85.3733 133.101 88.0476 131.099 87.6574C127.917 87.0374 122.037 84.7383 122.037 88.2121C122.037 90.7925 127.224 93.0909 129.811 93.2404C128.002 93.2286 125.563 93.0531 124.993 94.4444C124.647 96.3696 125.968 97.0222 129.558 97.6422C131.898 100.331 134.327 100.546 135.25 100.318C135.47 100.775 136.294 101.832 137.829 102.406C139.747 103.124 145.533 101.46 147.986 100.318Z" fill="#D58B8B"/>
<path d="M141.827 17.9059C131.058 15.5856 119.286 18.8726 114.746 20.8062C103.888 19.8395 80.2948 17.514 72.7906 15.9462C63.4106 13.9865 54.6584 17.9059 50.5765 20.8062C46.4948 23.7066 38.2921 29.9776 27.9699 35.6215C3.40083 46.7134 -1.81845 65.3697 0.497128 69.289C2.81274 73.2084 12.7032 79.1659 29.5005 82.1446C41.9223 84.3473 48.4834 88.8993 50.5765 89.5523C58.2063 85.9778 62.3378 69.6418 63.4498 61.9206L58.3868 56.6294L65.4121 51.1815L70.5543 54.7881H141.318L157.84 61.9206C156.459 62.3909 152.843 67.0291 151.207 69.289C149.041 82.5209 161.869 89.4872 168.555 91.316C170.308 91.3811 174.316 91.12 176.326 89.5523C178.838 87.5926 198.579 71.4447 202.857 64.8209C207.135 58.1972 200.346 48.6731 191.947 44.4009C183.548 40.1288 155.289 20.8062 141.827 17.9059Z" fill="#EC5B60"/>
<path d="M160.949 35.6361L162.285 40.9235M127.665 38.6349L132.341 42.2256L127.665 38.6349ZM132.341 30.9012L136.703 27.6656L132.341 30.9012ZM114.855 33.1503L113.912 38.6349L114.855 33.1503ZM94.8923 49.6042L102.791 52.0506L94.8923 49.6042ZM78.7024 30.9012L82.2783 33.1503L78.7024 30.9012ZM61.2157 44.3169L67.8174 43.3699L61.2157 44.3169ZM54.4175 23.1279L57.4433 27.6656L54.4175 23.1279ZM33.3549 36.7409L30.1719 40.3316L33.3549 36.7409ZM48.9947 60.5736L54.4175 64.5194L48.9947 60.5736ZM39.7601 72.0953C33.7243 74.5259 33.9705 74.6072 34.8481 74.3444L39.7601 72.0953ZM16.0254 62.073L17.9116 55.8386L16.0254 62.073ZM163.778 84.2089L169.437 83.2619L163.778 84.2089ZM167 62.073L165.468 68.8992L167 62.073ZM194.468 57.1802L198.241 62.073L194.468 57.1802Z" stroke="#242938" stroke-width="2" stroke-linecap="round"/>
<path d="M160.254 59.895C163.025 57.3031 169.279 51.776 172.125 50.4067" stroke="#242938" stroke-width="2" stroke-linecap="round"/>
<path d="M56.9808 55.7439C47.4435 51.8475 35.7124 48.213 25.5234 52.0134" stroke="#242938" stroke-width="2" stroke-linecap="round"/>
<path d="M29.6758 45.6626C30.8603 45.6626 34.2992 46.2556 38.5788 48.6277" stroke="#242938" stroke-width="2" stroke-linecap="round"/>
<path d="M86.6567 17.7908C88.9513 17.7908 90.8114 16.065 90.8114 13.9362C90.8114 11.8073 88.9513 10.0815 86.6567 10.0815C84.3621 10.0815 82.502 11.8073 82.502 13.9362C82.502 16.065 84.3621 17.7908 86.6567 17.7908Z" fill="#242938"/>
<path d="M86.6567 25.4995C88.9513 25.4995 90.8114 23.641 90.8114 21.3484C90.8114 19.0558 88.9513 17.1973 86.6567 17.1973C84.3621 17.1973 82.502 19.0558 82.502 21.3484C82.502 23.641 84.3621 25.4995 86.6567 25.4995Z" fill="#242938"/>
<path d="M82.7974 21.3484C84.9281 21.3484 86.6554 19.6226 86.6554 17.4938C86.6554 15.3649 84.9281 13.6392 82.7974 13.6392C80.6667 13.6392 78.9395 15.3649 78.9395 17.4938C78.9395 19.6226 80.6667 21.3484 82.7974 21.3484Z" fill="#242938"/>
<path d="M117.519 17.116C117.519 26.2413 110.079 33.6388 100.9 33.6388C85.4642 35.124 84.2812 26.2413 84.2812 17.116C84.2812 7.99073 91.7216 0.593262 100.9 0.593262C110.079 0.593262 117.519 7.99073 117.519 17.116Z" fill="#D58B8B"/>
<path d="M101.059 0C94.4923 0 88.4492 4.00011 86.0625 10.1417L117.52 14.8255C116.399 6.609 109.456 0 101.059 0Z" fill="#EC5B60"/>
<path d="M116.926 14.825L74.1914 8.30176" stroke="#242938" stroke-width="2" stroke-linecap="round"/>
<path d="M90.2168 29.7445L92.5208 33.9563C96.3067 41.6404 110.567 39.1674 110.395 30.3263C110.27 23.8282 90.2168 29.7445 90.2168 29.7445Z" fill="#D58B8B"/>
<path d="M116.332 21.3487C118.627 21.3487 120.487 19.4901 120.487 17.1975C120.487 14.9049 118.627 13.0464 116.332 13.0464C114.038 13.0464 112.178 14.9049 112.178 17.1975C112.178 19.4901 114.038 21.3487 116.332 21.3487Z" fill="#242938"/>
<path d="M120.487 21.3484C121.799 21.3484 122.862 20.4191 122.862 19.2728C122.862 18.1265 121.799 17.1973 120.487 17.1973C119.176 17.1973 118.113 18.1265 118.113 19.2728C118.113 20.4191 119.176 21.3484 120.487 21.3484Z" fill="#242938"/>
<path d="M122.267 22.9793C122.267 25.8451 120.065 28.5756 117.311 29.001C113.579 29.5775 110.396 25.6529 110.396 22.7872C110.396 19.9215 114.573 17.7905 117.311 17.7905C120.049 17.7905 122.267 20.1137 122.267 22.9793Z" fill="#242938"/>
<path d="M85.8939 16.5562C89.1569 16.9664 92.1559 14.7329 92.5914 11.5674L80.7738 10.0815C80.3383 13.2471 82.6308 16.1459 85.8939 16.5562Z" fill="#242938"/>
<path d="M92.3966 15.3856C94.5184 15.6742 96.4654 14.033 96.7453 11.7197L89.0632 10.6743C88.7825 12.9876 90.2756 15.0969 92.3966 15.3856Z" fill="#242938"/>
<path d="M111.6 23.711C113.25 24.2529 115.122 23.069 115.78 21.0666C116.439 19.0642 115.635 17.0016 113.985 16.4597C112.334 15.9178 110.462 17.1018 109.804 19.1042C109.145 21.1066 109.949 23.1691 111.6 23.711Z" fill="#AD5B5B"/>
<path d="M110.396 20.1628C111.053 19.2602 112.875 18.1772 114.551 18.4178" stroke="#242938" stroke-width="2" stroke-linecap="round"/>
<path d="M113.365 18.3838C113.538 18.656 113.903 19.5521 113.959 20.1628" stroke="#242938" stroke-width="2" stroke-linecap="round"/>
<path d="M93.1855 25.9053L96.8733 20.7559L97.9338 26.6861L93.1855 25.9053Z" fill="#AD5B5B"/>
<path d="M96.729 21.3486L93.1855 26.0064L97.9338 26.6858" stroke="#242938" stroke-width="2" stroke-linecap="round"/>
<path d="M96.7461 29.6492C97.387 29.6689 98.9973 29.5783 100.307 29.0581" stroke="#242938" stroke-width="2" stroke-linecap="round"/>
<path d="M101.496 17.1997C102.137 17.18 103.747 17.2706 105.057 17.7908" stroke="#242938" stroke-width="2" stroke-linecap="round"/>
<path d="M91.997 14.8281C91.4629 14.8085 90.1217 14.8991 89.0293 15.4192" stroke="#242938" stroke-width="2" stroke-linecap="round"/>
<path d="M96.7461 32.5397C98.1807 32.6545 100.724 32.7406 102.681 32.0229" stroke="#242938" stroke-width="2" stroke-linecap="round"/>
<path d="M90.8121 21.9421C91.4677 21.9421 91.9991 21.5439 91.9991 21.0526C91.9991 20.5613 91.4677 20.1631 90.8121 20.1631C90.1565 20.1631 89.625 20.5613 89.625 21.0526C89.625 21.5439 90.1565 21.9421 90.8121 21.9421Z" fill="#242938"/>
<path d="M102.683 21.9421C103.339 21.9421 103.87 21.5439 103.87 21.0526C103.87 20.5613 103.339 20.1631 102.683 20.1631C102.028 20.1631 101.496 20.5613 101.496 21.0526C101.496 21.5439 102.028 21.9421 102.683 21.9421Z" fill="#242938"/>
<path d="M104.462 27.8718C105.446 27.8718 106.243 26.9426 106.243 25.7963C106.243 24.65 105.446 23.7207 104.462 23.7207C103.479 23.7207 102.682 24.65 102.682 25.7963C102.682 26.9426 103.479 27.8718 104.462 27.8718Z" fill="#AD5B5B"/>
<path d="M89.3274 26.6858C90.4747 26.6858 91.4047 25.7565 91.4047 24.6102C91.4047 23.4639 90.4747 22.5347 89.3274 22.5347C88.1801 22.5347 87.25 23.4639 87.25 24.6102C87.25 25.7565 88.1801 26.6858 89.3274 26.6858Z" fill="#AD5B5B"/>
<path d="M131.828 92.5229C131.828 92.5229 134.812 92.9706 138.169 92.0156M131.424 96.4025C132.294 96.6412 137.019 96.9397 138.791 96.1637M137.019 99.0585C137.879 99.0286 139.817 99.0525 140.811 98.7899" stroke="#242938" stroke-width="2" stroke-linecap="round"/>
<path d="M80.9659 86.0639C79.0182 86.3848 76.0487 86.0639 73.6539 84.9727M80.1677 90.2362C77.4855 90.4288 72.1852 90.525 69.3753 88.6635M75.1227 92.9001C72.3448 93.7024 68.0853 92.6561 66.8848 91.9372" stroke="#242938" stroke-width="2" stroke-linecap="round"/>
</svg>
