<svg width="186" height="210" viewBox="0 0 186 210" fill="none" xmlns="http://www.w3.org/2000/svg">
<path d="M174.02 73.0261H123.841L122.217 110.935L144.321 110.275L163.98 109.688L174.02 109.388V73.0261Z" fill="white"/>
<path d="M18.6465 148.979H30.6122L30.9994 96.9685L25.7283 97.8739L21.0405 98.6797L18.6465 99.091V148.979Z" fill="#D58B8B"/>
<path d="M49.5117 57.6448V14.3762H107.294V24.2861H129.703V55.9419" stroke="#D58B8B" stroke-width="1.76471"/>
<path d="M109.088 149.465H112.177V107.106M112.177 57.2996H4.48568L1 153.387L37.6198 152.096" stroke="#242938" stroke-width="1.76471"/>
<path d="M89.9727 48.9485H115.742M89.9727 44.3291H106.172H89.9727Z" stroke="#242938" stroke-width="1.76471" stroke-linecap="round"/>
<path d="M4.34359 57.2996H112.176V75.8117H3.64648L4.34359 57.2996Z" fill="#242938"/>
<path d="M12.9115 71.4041C15.5917 71.4041 17.7645 69.2334 17.7645 66.5557C17.7645 63.878 15.5917 61.7073 12.9115 61.7073C10.2313 61.7073 8.05859 63.878 8.05859 66.5557C8.05859 69.2334 10.2313 71.4041 12.9115 71.4041Z" fill="white"/>
<path d="M24.8239 71.4041C27.2604 71.4041 29.2356 69.2334 29.2356 66.5557C29.2356 63.878 27.2604 61.7073 24.8239 61.7073C22.3873 61.7073 20.4121 63.878 20.4121 66.5557C20.4121 69.2334 22.3873 71.4041 24.8239 71.4041Z" fill="white"/>
<path d="M36.7358 71.4041C39.416 71.4041 41.5887 69.2334 41.5887 66.5557C41.5887 63.878 39.416 61.7073 36.7358 61.7073C34.0555 61.7073 31.8828 63.878 31.8828 66.5557C31.8828 69.2334 34.0555 71.4041 36.7358 71.4041Z" fill="white"/>
<path d="M75.1074 67.1546L77.3377 30.9861H146.246V73.2117" stroke="#242938" stroke-width="1.76471"/>
<path d="M146.245 30.9861H77.3418V36.9041H146.245V30.9861Z" fill="#242938"/>
<path d="M99.9705 69.0618L97.7402 106.971L168.878 105.424V69.0618H99.9705Z" stroke="#242938" stroke-width="1.76471"/>
<path d="M103.072 103.902H125.555M103.072 101.44H117.205H103.072Z" stroke="#242938" stroke-width="1.76471" stroke-linecap="round"/>
<path d="M168.878 69.0618H99.9746V76.0964H168.878V69.0618Z" fill="#242938"/>
<path d="M97.9268 164.823L121.658 196.692C123.23 198.804 122.747 201.795 120.591 203.304C118.519 204.754 115.668 204.292 114.16 202.26L90.4861 170.373L97.9268 164.823Z" fill="#242938"/>
<path d="M40.4961 152.367C48.1773 170.702 69.1201 179.413 87.2731 171.822C105.426 164.231 113.915 143.214 106.234 124.879C98.553 106.543 77.6102 97.8328 59.4572 105.423C41.3041 113.014 32.815 134.031 40.4961 152.367Z" stroke="#242938" stroke-width="1.76471"/>
<path d="M44.8312 150.554C51.5104 166.497 69.9158 173.991 85.9406 167.29C95.3045 163.375 101.783 155.479 104.219 146.411L44.8312 150.554Z" fill="white"/>
<path d="M97.2458 117.611C88.4988 108.39 74.4637 105.085 61.8387 110.364C57.4917 112.182 53.7527 114.833 50.7366 118.046L97.2458 117.611Z" fill="white"/>
<path d="M44.3837 128.688L102.681 126.533C104.861 131.736 105.517 137.196 104.853 142.418L43.5177 145.397C42.2373 139.736 42.6075 133.967 44.3837 128.688Z" fill="white"/>
</svg>
