<svg width="194" height="158" viewBox="0 0 194 158" fill="none" xmlns="http://www.w3.org/2000/svg">
<path d="M194 38.1501H60.6777V134.797H194V38.1501Z" fill="white"/>
<path d="M35.2832 116.994L39.7331 1.27173H177.494V112.262L35.2832 116.994Z" stroke="#242938" stroke-width="1.2"/>
<path d="M177.495 0H39.0938V22.8901H177.495V0Z" fill="#242938"/>
<path d="M18.7754 156.416V11.4451H129.242V156.416H18.7754Z" stroke="#D58B8B" stroke-width="1.2"/>
<path d="M66.4378 30.5224L145.42 32.6443C149.205 32.7457 152.193 36.0535 152.097 40.0304C152 44.0085 148.854 47.1508 145.069 47.0494L66.0875 44.9275C62.3037 44.8261 59.314 41.5183 59.4105 37.5414C59.5069 33.5633 62.653 30.421 66.4378 30.5224Z" stroke="#242938" stroke-width="1.2"/>
<path d="M53.3638 62.2899L131.265 61.0414C134.998 60.9822 138.071 64.0698 138.129 67.9378C138.186 71.8069 135.207 74.9911 131.475 75.0513L53.5731 76.2998C49.8408 76.3589 46.7675 73.2714 46.7098 69.4033C46.652 65.5342 49.6315 62.3501 53.3638 62.2899Z" stroke="#242938" stroke-width="1.2"/>
<path d="M77.8012 78.8446L156.784 80.0603C160.569 80.119 163.586 83.0253 163.524 86.5513C163.461 90.0773 160.343 92.889 156.558 92.8313L77.5748 91.6156C73.7896 91.557 70.773 88.6506 70.8349 85.1246C70.8979 81.5986 74.016 78.7869 77.8012 78.8446Z" stroke="#242938" stroke-width="1.2"/>
<path d="M132.646 92.0654C135.777 92.1172 138.357 89.6201 138.409 86.4881C138.46 83.3561 135.964 80.7752 132.833 80.7234C129.702 80.6717 127.122 83.1687 127.07 86.3008C127.019 89.4328 129.515 92.0137 132.646 92.0654Z" fill="#D58B8B"/>
<path d="M77.4481 74.5301C80.5791 74.4817 83.078 71.9034 83.0296 68.7713C82.9812 65.6392 80.4037 63.1395 77.2727 63.1879C74.1417 63.2364 71.6428 65.8147 71.6912 68.9467C71.7396 72.0788 74.3171 74.5785 77.4481 74.5301Z" fill="#D58B8B"/>
<path d="M26.3943 111.907L7.86141 117.452L10.8952 123.199L3.53906 130.18L10.3031 136.069L17.7158 126.675L21.7313 129.345L26.3943 111.907Z" fill="#EC5B60" stroke="#242938" stroke-width="1.2"/>
<path d="M26.3947 108.092L5.80507 114.809L9.17374 121.764L1 130.216L8.5127 137.341L16.7499 125.968L21.2102 129.2L26.3947 108.092Z" stroke="#242938" stroke-width="1.2"/>
<path d="M49.8837 17.8035C53.0394 17.8035 55.5976 15.2414 55.5976 12.0809C55.5976 8.92046 53.0394 6.3584 49.8837 6.3584C46.7281 6.3584 44.1699 8.92046 44.1699 12.0809C44.1699 15.2414 46.7281 17.8035 49.8837 17.8035Z" fill="white"/>
<path d="M64.4874 17.8035C67.9936 17.8035 70.836 15.2414 70.836 12.0809C70.836 8.92046 67.9936 6.3584 64.4874 6.3584C60.9811 6.3584 58.1387 8.92046 58.1387 12.0809C58.1387 15.2414 60.9811 17.8035 64.4874 17.8035Z" fill="white"/>
<path d="M80.3583 17.8035C83.514 17.8035 86.0722 15.2414 86.0722 12.0809C86.0722 8.92046 83.514 6.3584 80.3583 6.3584C77.2027 6.3584 74.6445 8.92046 74.6445 12.0809C74.6445 15.2414 77.2027 17.8035 80.3583 17.8035Z" fill="white"/>
</svg>
