<svg width="276" height="315" viewBox="0 0 276 315" fill="none" xmlns="http://www.w3.org/2000/svg">
<path d="M109.859 36.5508H1.46289V243.809H208.721V36.5508H144.09" stroke="#242938" stroke-width="2" stroke-linecap="round"/>
<path d="M198.389 125.95H73.5508V238.585H198.35V125.95H198.389Z" fill="white"/>
<path d="M176 122.73L179.08 43H274.444V119.455L176 122.73Z" stroke="#242938" stroke-width="2"/>
<path d="M275 42.7109H178.271V58.8128H275V42.7109Z" fill="#242938"/>
<path d="M185.875 54.8751C188.136 54.8751 190.008 53.0427 190.008 50.7424C190.008 48.4422 188.175 46.6097 185.875 46.6097C183.614 46.6097 181.742 48.4422 181.742 50.7424C181.742 53.0427 183.614 54.8751 185.875 54.8751Z" fill="white"/>
<path d="M196.598 54.8751C198.859 54.8751 200.73 53.0427 200.73 50.7424C200.73 48.4422 198.898 46.6097 196.598 46.6097C194.297 46.6097 192.465 48.4422 192.465 50.7424C192.465 53.0427 194.336 54.8751 196.598 54.8751Z" fill="white"/>
<path d="M207.279 54.8751C209.54 54.8751 211.412 53.0427 211.412 50.7424C211.412 48.4422 209.579 46.6097 207.279 46.6097C204.979 46.6097 203.146 48.4422 203.146 50.7424C203.146 53.0427 205.018 54.8751 207.279 54.8751Z" fill="white"/>
<path d="M30.9771 276.364C18.735 267.904 10.4696 277.339 7.85742 283.109C10.8595 284.941 17.5654 288.255 22.6727 286.111C27.7801 284.006 30.5093 278.703 30.9771 276.364Z" fill="white"/>
<path d="M20.1772 285.409C23.2962 285.409 25.7914 282.875 25.7914 279.795C25.7914 276.676 23.2572 274.181 20.1772 274.181C17.0971 274.181 14.5629 276.715 14.5629 279.795C14.524 282.875 17.0582 285.409 20.1772 285.409Z" fill="#242938"/>
<path d="M8.0143 281.198L4.27148 279.132" stroke="#242938" stroke-width="2" stroke-linecap="round"/>
<path d="M10.6636 277.3L7.34961 274.571" stroke="#242938" stroke-width="2" stroke-linecap="round"/>
<path d="M15.1085 273.947L12.6133 270.438" stroke="#242938" stroke-width="2" stroke-linecap="round"/>
<path d="M20.4112 272.231L19.9434 267.982" stroke="#242938" stroke-width="2" stroke-linecap="round"/>
<path d="M26.8047 273.011L28.0523 268.917" stroke="#242938" stroke-width="2" stroke-linecap="round"/>
<path d="M30.9766 275.155L33.3548 271.569" stroke="#242938" stroke-width="2" stroke-linecap="round"/>
<path d="M119.597 72.2637L121.429 86.4552C121.429 86.4552 126.303 110.16 133.086 131.447L105.093 141.857C98.7382 121.466 92.9681 100.881 93.163 97.9566C93.3969 94.0188 96.243 92.3814 97.6076 92.0695C99.0891 86.1433 103.534 86.6502 105.561 87.6639C107.043 83.3362 110.59 83.4922 112.228 84.116C112.072 82.0886 112.228 76.9422 114.021 72.3027C115.776 67.6632 119.246 69.5346 119.597 72.2637Z" fill="#D58B8B"/>
<path d="M105.599 88.6384C105.287 90.4319 105.677 94.8375 109.186 98.7362M109.186 98.7362C115.541 104.467 117.217 96.8258 115.424 90.7827M109.186 98.7362C109.537 101.114 110.316 105.832 105.755 105.013C101.193 104.233 98.3863 96.7479 98.1523 93.161" stroke="#242938" stroke-width="2" stroke-linecap="round"/>
<path d="M120.064 111.485C115.541 104.662 116.711 99.126 119.011 95.6951C120.181 93.9407 121.545 93.5898 122.715 94.7984" stroke="#242938" stroke-width="2" stroke-linecap="round"/>
<path d="M94.6055 102.44C95.1903 103.882 96.7108 107.196 98.8551 108.093C100.999 108.99 102.13 106.651 102.442 105.403" stroke="#242938" stroke-width="2" stroke-linecap="round"/>
<path fill-rule="evenodd" clip-rule="evenodd" d="M63.6101 251.1H37.4883C35.227 251.1 33.4336 249.268 33.4336 247.046V197.609C33.4336 195.348 35.266 193.554 37.4883 193.554H63.6101C65.8713 193.554 67.6648 195.387 67.6648 197.609V247.046C67.6648 249.268 65.8324 251.1 63.6101 251.1Z" fill="#587291"/>
<path fill-rule="evenodd" clip-rule="evenodd" d="M53.5501 245.798H47.4681C47.4681 241.119 43.6473 237.298 38.9688 237.298V207.356C43.6473 207.356 47.4681 203.535 47.4681 198.857H53.5501C53.5501 203.535 57.3709 207.356 62.0495 207.356V237.298C57.3709 237.298 53.5501 241.119 53.5501 245.798Z" stroke="white" stroke-width="2" stroke-linecap="round"/>
<path d="M50.5493 226.265C53.8006 226.265 56.4364 224.502 56.4364 222.327C56.4364 220.152 53.8006 218.389 50.5493 218.389C47.2979 218.389 44.6621 220.152 44.6621 222.327C44.6621 224.502 47.2979 226.265 50.5493 226.265Z" stroke="white" stroke-width="2" stroke-linecap="round"/>
<path d="M70.6268 230.203C73.3559 230.826 82.596 233.75 86.8457 235.115C89.5748 240.846 98.6979 258.43 100.062 266.578C92.6548 268.683 71.2116 273.089 67.2738 273.089C62.3614 273.089 56.1624 269.58 52.2246 267.748C49.0666 266.305 49.2615 263.42 49.7294 262.172C46.8833 259.677 47.3511 257.26 47.936 256.324C41.6979 254.726 40.1774 252.075 40.1774 250.944C39.7875 250.944 38.6179 250.749 37.1754 250.008C35.3819 249.073 35.5769 245.525 37.1754 244.589C38.7739 243.653 39.7096 244.238 47.936 243.419C54.5249 242.757 58.7355 241.002 60.0221 240.222C61.3087 238.546 63.8039 232.815 65.3245 229.969C66.0652 229.735 67.8977 229.579 70.6268 230.203Z" fill="#D58B8B"/>
<path d="M61.3477 239.872C62.8292 239.443 66.2601 238.468 68.2095 237.805" stroke="#242938" stroke-width="2" stroke-linecap="round"/>
<path d="M40.957 250.944C46.9611 251.763 51.6397 252.815 60.139 250.593" stroke="#242938" stroke-width="2" stroke-linecap="round"/>
<path d="M51.4444 263.03C53.2768 263.576 57.9944 264.512 62.1271 264.122L51.4444 263.03ZM48.9492 256.636C51.4834 257.299 57.0976 257.689 60.5286 256.636H48.9492Z" stroke="#242938" stroke-width="2" stroke-linecap="round"/>
<path d="M191.178 87.3908C191.178 89.2622 190.671 90.9387 189.891 92.1083C189.111 93.278 188.098 93.9018 187.084 93.9018C186.07 93.9018 185.057 93.278 184.277 92.1083C183.497 90.9387 182.99 89.2622 182.99 87.3908C182.99 85.5194 183.497 83.8819 184.277 82.6733C185.057 81.5037 186.07 80.8799 187.084 80.8799C188.098 80.8799 189.111 81.5037 189.891 82.6733C190.71 83.8429 191.178 85.5194 191.178 87.3908Z" stroke="#242938" stroke-width="2"/>
<path d="M201.509 105.871L205.057 114.916C215.077 119.517 220.808 124.624 227.631 114.409L221.12 97.6835C222.953 90.2369 222.836 75.1876 207.63 74.6028C188.643 73.862 184.628 92.2252 188.565 100.569C191.723 107.236 196.675 106.417 201.509 105.871Z" fill="#D58B8B"/>
<path d="M208.682 98.0733C211.879 98.0733 214.452 95.5001 214.452 92.3031C214.452 89.1061 211.879 86.533 208.682 86.533C205.485 86.533 202.912 89.1061 202.912 92.3031C202.912 95.5001 205.524 98.0733 208.682 98.0733Z" fill="#AD5B5B"/>
<path d="M204.59 91.7184C205.37 91.3675 207.046 90.6658 207.631 90.6658" stroke="#242938" stroke-width="2" stroke-linecap="round"/>
<path d="M206.967 91.4456C207.279 91.9914 207.903 93.2 207.941 93.6289" stroke="#242938" stroke-width="2" stroke-linecap="round"/>
<path d="M183.34 85.9482L204.705 86.611" stroke="#242938" stroke-width="2"/>
<path d="M189.539 93.161C190.202 93.3169 190.982 92.3422 191.255 90.9776C191.567 89.6131 191.255 88.4045 190.592 88.2875C189.929 88.1316 189.149 89.1062 188.876 90.4708C188.603 91.7964 188.876 93.005 189.539 93.161Z" fill="#AD5B5B"/>
<path d="M190.086 77.5268L201.899 85.9871L203.264 90.9775C203.459 89.9248 204.55 87.9365 207.357 88.0924C210.827 88.3263 211.841 93.7846 209.112 95.812C206.929 97.4495 204.706 96.4748 203.888 95.812L206.929 109.887L248.217 107.43C248.217 107.43 245.254 97.8393 237.417 83.063C229.619 68.2867 219.054 68.0917 214.765 69.8072C203.849 64.3879 193.751 72.6923 190.086 77.5268Z" fill="#242938"/>
<path d="M238.04 60.7622C240.458 64.778 239.171 70.0023 235.116 72.4585C231.062 74.9148 215.35 75.7335 215.35 75.7335C215.35 75.7335 222.289 60.4113 226.305 57.9551C230.36 55.4989 235.623 56.7465 238.04 60.7622Z" fill="#242938"/>
<path d="M131.136 124.819C118.192 131.915 109.849 132.617 101.934 133.162C101.544 133.435 100.609 135.775 100.492 137.451C100.375 139.283 102.012 151.253 104.546 158.699C107.119 166.146 113.435 182.794 124.235 185.874C132.89 188.33 156.517 189.694 166.732 185.874C162.989 192.619 158.505 200.962 154.178 207.863C149.655 215.114 118.582 221.43 101.934 225.524C88.6003 228.76 84.8965 232.698 83.8828 234.218C84.8185 236.441 89.3021 241.86 91.3684 247.63C94.6044 256.675 96.2419 266.305 95.891 267.709C95.5401 269.112 147.16 263.342 163.067 258.079C164.002 258.586 165.991 259.911 170.163 261.393C180.689 265.097 201.704 259.872 216.012 258.079C230.36 256.285 231.841 262.134 245.955 261.393C260.068 260.652 262.563 258.04 261.277 231.684C259.99 205.329 247.709 128.25 231.724 115.189C220.184 105.715 204.862 110.939 199.52 116.047C194.179 121.154 190.124 128.991 181.937 135.697C168.876 144.937 146.887 148.991 141.468 145.443C136.087 141.857 136.126 128.406 131.136 124.819Z" fill="#EC5B60"/>
<path d="M238.235 129.224L242.602 127.002M239.249 133.981L241.627 134.722M152.579 143.845L153.983 147.783M157.336 145.248V147.822M104.079 148.913L98.2695 147.822M137.491 186.224L136.633 190.63M155.347 257.026L157.336 263.069M257.105 221.118L263.304 223.575M104.079 152.422L100.492 154.177M107.51 227.317L104.079 219.325M111.642 223.536V221.079M111.642 265.408L109.069 270.282M177.531 254.297C177.22 249.423 178.038 242.523 181.469 237.064M181.469 237.064C185.407 230.787 192.815 226.382 205.798 229.111M181.469 237.064L177.531 235.037M109.108 167.861C115.073 166.536 128.095 168.368 132.267 186.224M174.685 243.731H180.612M196.051 225.017L195.778 230.398M114.488 169.694L116.048 164.313M129.187 181.234H132.267M124.001 174.021L132.228 169.655" stroke="#242938" stroke-width="2" stroke-linecap="round"/>
<path d="M173.749 255.233C181.508 253.283 198.585 245.993 204.745 232.23C212.464 215.036 224.706 186.03 226.617 181.858M184.861 137.88C180.611 149.108 171.605 172.813 169.344 177.686L184.861 137.88Z" stroke="#242938" stroke-width="2" stroke-linecap="round"/>
<path d="M140.61 146.34C138.777 148.484 134.879 153.358 133.748 155.97" stroke="#242938" stroke-width="2" stroke-linecap="round"/>
<path d="M229.152 184.353C228.684 185.484 227.203 189.694 224.98 197.648" stroke="#242938" stroke-width="2" stroke-linecap="round"/>
<path fill-rule="evenodd" clip-rule="evenodd" d="M122.52 300.302L118.153 282.68C117.763 281.159 119.401 279.561 121.779 279.093L174.217 268.839C176.596 268.371 179.208 268.995 180.066 270.243L189.929 284.551C190.787 285.799 189.306 287.28 186.654 287.943L128.017 301.901C125.327 302.525 122.871 301.823 122.52 300.302Z" fill="#587291"/>
<path fill-rule="evenodd" clip-rule="evenodd" d="M126.847 292.193L125.717 288.177C130.941 287.047 134.372 283.694 133.319 280.653L165.679 274.103C167.2 276.832 172.697 278.119 177.921 276.988L180.105 280.38C174.763 281.55 171.683 284.708 173.243 287.437L138.349 295.507C137.335 292.505 132.189 291.024 126.847 292.193Z" stroke="white" stroke-width="2" stroke-linecap="round"/>
<path fill-rule="evenodd" clip-rule="evenodd" d="M154.294 288.061C151.799 288.606 149.109 287.437 148.29 285.409C147.432 283.382 148.719 281.355 151.097 280.848C153.475 280.341 156.204 281.55 157.101 283.499C158.037 285.448 156.75 287.515 154.294 288.061Z" stroke="white" stroke-width="2" stroke-linecap="round"/>
<path fill-rule="evenodd" clip-rule="evenodd" d="M192.386 312.35L187.201 291.297C186.772 289.503 188.682 287.554 191.567 287.008L254.221 274.766C257.067 274.22 260.186 274.961 261.199 276.442L272.974 293.558C273.987 295.039 272.233 296.833 269.036 297.613L198.936 314.299C195.778 315.001 192.815 314.143 192.386 312.35Z" fill="#587291"/>
<path fill-rule="evenodd" clip-rule="evenodd" d="M197.572 302.681L196.207 297.885C202.445 296.56 206.539 292.544 205.33 288.918L244.006 281.082C245.838 284.318 252.388 285.877 258.626 284.552L261.238 288.606C254.883 290.01 251.18 293.792 253.012 297.028L211.295 306.697C210.087 303.032 203.966 301.277 197.572 302.681Z" stroke="white" stroke-width="2" stroke-linecap="round"/>
<path fill-rule="evenodd" clip-rule="evenodd" d="M230.359 297.729C227.396 298.392 224.16 296.989 223.147 294.571C222.133 292.154 223.653 289.698 226.5 289.113C229.346 288.528 232.582 289.932 233.712 292.271C234.804 294.61 233.322 297.067 230.359 297.729Z" stroke="white" stroke-width="2" stroke-linecap="round"/>
<path d="M110.506 17.4488C110.506 8.91047 117.719 2.00965 126.413 2.63345C133.743 3.14029 139.669 9.06642 140.175 16.3961C140.526 21.4645 138.304 26.065 134.717 28.9891C128.908 33.7066 125.36 40.6854 125.36 48.1711V48.6389" stroke="#242938" stroke-width="4" stroke-linecap="round"/>
<circle cx="125.5" cy="58.5" r="3.5" fill="#242938"/>
</svg>
