<svg width="306" height="325" viewBox="0 0 306 325" fill="none" xmlns="http://www.w3.org/2000/svg">
<path d="M292.718 204.867H185.159L181.678 286.119L229.059 284.705L271.199 283.446L292.718 282.803V204.867Z" fill="white"/>
<path d="M43.8047 115.058V14.5992H167.662V35.8397H215.696V103.69" stroke="#242938" stroke-width="2"/>
<path d="M124.314 262.159H142.907L176.78 260.953V114.693H7.47981L2 267.175L59.5698 265.127" stroke="#242938" stroke-width="2"/>
<path d="M22.5414 135.7C25.4853 135.7 27.8718 133.129 27.8718 129.957C27.8718 126.784 25.4853 124.213 22.5414 124.213C19.5975 124.213 17.2109 126.784 17.2109 129.957C17.2109 133.129 19.5975 135.7 22.5414 135.7Z" fill="#242938"/>
<path d="M36.4379 135.7C39.3818 135.7 41.7683 133.129 41.7683 129.957C41.7683 126.784 39.3818 124.213 36.4379 124.213C33.4939 124.213 31.1074 126.784 31.1074 129.957C31.1074 133.129 33.4939 135.7 36.4379 135.7Z" fill="#242938"/>
<path d="M50.3343 135.7C53.2783 135.7 55.6648 133.129 55.6648 129.957C55.6648 126.784 53.2783 124.213 50.3343 124.213C47.3904 124.213 45.0039 126.784 45.0039 129.957C45.0039 133.129 47.3904 135.7 50.3343 135.7Z" fill="#242938"/>
<path d="M213.988 255.801L148.922 257.215L153.703 175.963H301.408V253.9L271.856 254.542" stroke="#242938" stroke-width="2"/>
<path d="M160.648 250.702H208.842M160.648 245.426H190.943H160.648Z" stroke="#242938" stroke-width="2" stroke-linecap="round"/>
<path d="M301.703 176.027H154.008V191.105H301.703V176.027Z" fill="#242938"/>
<path d="M50.1081 0L36.0667 5.35238L38.5733 17.1389C37.5944 18.0897 36.5545 19.187 35.4633 20.3559L23.4277 17.7249L17.5127 31.1698L27.7412 37.791C27.6284 39.4455 27.6284 41.1054 27.7412 42.7599L17.2109 48.9945L22.7249 62.6327L34.5614 60.2947C35.6227 61.5326 36.798 62.6741 38.0726 63.705L35.3638 75.2016L49.3058 80.9468L56.126 71.0119C57.8302 71.121 59.4349 71.121 61.1391 71.0119L67.6608 81.2398L81.6992 75.8812L78.9936 63.412C80.2323 62.3775 81.373 61.2372 82.402 60.0048L94.64 63.0224L100.658 49.3841L90.0246 43.053C90.1272 41.432 90.1272 39.8983 90.0246 38.2804L100.559 31.9492L95.0377 18.3079L82.8032 20.9389C81.7429 19.7011 80.5687 18.5596 79.2952 17.5285L82.0009 6.03818L68.062 0.289949L61.5403 10.2279C59.8617 10.0689 58.1704 9.98474 56.5272 10.1281L50.1081 0ZM59.0338 27.8592C66.1267 27.8592 71.8717 33.4392 71.8717 40.3285C71.8717 47.2177 66.1267 52.7976 59.0338 52.7976C51.9407 52.7976 46.1958 47.2177 46.1958 40.3285C46.1958 33.4392 51.9407 27.8592 59.0338 27.8592Z" fill="#EC5B60"/>
<path d="M117.372 48.9432L110.257 51.6632L111.528 57.6528C111.032 58.136 110.505 58.6936 109.952 59.2876L103.853 57.9506L100.856 64.783L106.04 68.1478C105.982 68.9886 105.982 69.8322 106.04 70.6729L100.703 73.8412L103.498 80.7718L109.495 79.5838C110.033 80.2129 110.629 80.793 111.274 81.3168L109.901 87.1592L116.966 90.0788L120.422 85.0301C121.286 85.0855 122.099 85.0855 122.963 85.0301L126.268 90.2276L133.38 87.5045L132.01 81.1679C132.638 80.6422 133.215 80.0627 133.736 79.4365L139.938 80.9699L142.987 74.0392L137.599 70.8218C137.651 69.9981 137.651 69.2186 137.599 68.3965L142.937 65.1791L140.14 58.2469L133.94 59.5839C133.403 58.9548 132.808 58.3748 132.162 57.8508L133.534 52.0116L126.47 49.0905L123.165 54.1407C122.315 54.0599 121.458 54.0172 120.626 54.0901L117.372 48.9432ZM121.896 63.1008C125.49 63.1008 128.401 65.9363 128.401 69.4373C128.401 72.9383 125.49 75.7739 121.896 75.7739C118.302 75.7739 115.39 72.9383 115.39 69.4373C115.39 65.9363 118.302 63.1008 121.896 63.1008Z" fill="#EC5B60"/>
<path d="M127.835 301.915C130.135 299.426 130.311 279.697 130.111 270.144L159.638 274.093C158.021 279.678 154.272 292.425 152.212 298.744C150.151 305.062 149.836 311.987 149.936 314.659L94.8945 316.634C104.917 312.765 125.536 304.404 127.835 301.915Z" fill="#AD5B5B"/>
<path d="M151.073 324.532L149.816 312.745C147.839 312.745 141.239 313.02 130.65 314.121C120.061 315.222 108.63 313.663 104.238 312.745C87.9469 316.478 81.678 322.159 80.5801 324.532H151.073Z" fill="#242938"/>
<path d="M257.982 301.975C255.682 299.486 251.074 279.398 251.274 269.845L223.064 273.614C224.682 279.199 231.545 292.485 233.606 298.804C235.666 305.122 235.981 312.047 235.881 314.719L290.923 316.694C280.9 312.825 260.282 304.464 257.982 301.975Z" fill="#AD5B5B"/>
<path d="M234.744 324.592L236.002 312.805C237.978 312.805 244.578 313.08 255.167 314.181C265.756 315.282 277.188 313.723 281.58 312.805C297.871 316.538 304.139 322.219 305.238 324.592H234.744Z" fill="#242938"/>
<path d="M178.085 68.209C183.931 74.1923 192.499 72.138 196.053 70.363C198.129 69.645 204.725 68.6398 214.5 70.363C224.274 72.0862 249.797 89.3898 261.336 97.8262C271.877 105.25 287.03 114.34 282.897 128.341C278.764 142.342 246.092 155.81 235.223 163.103C232.054 165.23 228.993 167.565 226.167 169.865L217.31 141.444C231.246 133.758 247.341 126.37 246.902 124.212C246.327 121.388 243.348 119.405 241.931 118.768C241.931 118.768 233.845 114.855 227.616 112.844C221.387 110.834 217.315 117.631 216.057 121.281H144.366C133.166 130.455 116.096 146.65 105.915 149.103C95.7329 151.556 91.3009 147.966 79.2626 133.905C67.2242 119.845 37.5175 78.3207 36.3795 74.1325C35.4692 70.7818 37.3577 68.6279 38.4159 67.9697C37.9846 62.6087 41.8297 61.787 43.8062 62.0463C43.8062 58.0255 46.8407 57.14 48.358 57.1999C47.6592 55.5644 46.3097 51.2046 46.5014 46.8488C46.693 42.493 49.6956 43.9569 51.173 45.2333L56.7429 56.5417C56.7429 56.5417 89.5641 112.365 102.86 113.263C103.835 113.329 117.614 102.114 123.823 95.732C131.09 89.2901 146.438 75.9155 149.696 73.953C154.44 67.2517 170.599 67.3315 178.085 68.209Z" fill="#AD5B5B"/>
<path d="M44.1651 62.8837C44.4284 64.4619 45.9709 68.0155 50.0346 70.2628M50.0346 70.2628C56.9821 73.2347 56.2035 66.4138 52.9693 61.8665M50.0346 70.2628C50.9928 72.151 52.9813 75.8434 48.9565 76.4657C44.9317 77.0879 40.4518 71.6591 39.2539 68.7473" stroke="#242938" stroke-width="2" stroke-linecap="round"/>
<path d="M62.7322 77.8419C56.9826 73.4143 56.3836 68.4482 57.3419 64.9181C57.8292 63.1231 58.8752 62.453 60.2167 63.1231" stroke="#242938" stroke-width="2" stroke-linecap="round"/>
<path d="M38.8359 77.483C39.7143 78.5202 41.9264 80.8696 43.9867 81.0132C46.047 81.1568 46.3225 78.8792 46.2027 77.7224" stroke="#242938" stroke-width="2" stroke-linecap="round"/>
<path d="M247.441 123.913C248.26 123.395 251.167 122.286 256.246 121.998" stroke="#242938" stroke-width="2" stroke-linecap="round"/>
<path d="M103.039 114.611C103.736 115.283 105.498 117.845 106.972 122.709" stroke="#242938" stroke-width="2" stroke-linecap="round"/>
<path d="M178.085 68.209C183.93 74.1922 192.499 72.138 196.053 70.363C198.129 69.645 204.725 68.6398 214.5 70.363C224.274 72.0861 249.797 89.3897 261.336 97.8261L241.93 118.768C241.93 118.768 233.845 114.854 227.616 112.844C221.387 110.834 217.315 117.631 216.057 121.28H144.365L123.822 95.732C131.09 89.29 146.438 75.9154 149.696 73.9529C154.439 67.2517 170.598 67.3315 178.085 68.209Z" fill="#242938"/>
<path d="M177.846 69.1067C179.502 71.3803 184.949 75.5088 193.478 73.8335" stroke="#242938" stroke-width="2" stroke-linecap="round"/>
<path d="M179.82 72.8763C180.779 73.6542 183.653 75.6286 188.265 75.6286" stroke="#242938" stroke-width="2" stroke-linecap="round"/>
<path d="M144.365 121.341C156.344 104.971 160.716 79.1786 161.674 68.3888C163.411 67.8504 170.598 67.4317 171.796 67.8504L171.377 91.7234H195.873V70.3632C198.46 69.5016 204.198 69.1069 207.312 69.4058C206.498 89.1266 214.999 112.246 219.351 121.341C218.712 122.537 217.818 127.228 219.351 136.419C220.884 145.609 248.419 233.826 261.994 276.786L225.58 280.974L183.895 179.019L159.458 280.974L124.541 276.786L144.365 121.341Z" fill="#587291"/>
<path d="M129.445 266.867C132.192 268.365 135.421 268.712 138.424 267.831C141.427 266.95 143.956 264.914 145.456 262.17C146.955 259.426 147.303 256.2 146.421 253.201C145.54 250.201 143.501 247.673 140.754 246.176L138.562 250.188C140.244 251.104 141.492 252.651 142.031 254.488C142.571 256.324 142.358 258.3 141.441 259.98C140.522 261.66 138.974 262.906 137.136 263.445C135.297 263.985 133.319 263.772 131.639 262.855L129.445 266.867Z" fill="white"/>
<path d="M152.326 131.525C155.073 133.023 158.302 133.37 161.305 132.49C164.308 131.609 166.837 129.572 168.337 126.828C169.836 124.084 170.184 120.858 169.302 117.859C168.421 114.859 166.382 112.332 163.635 110.835L161.443 114.846C163.125 115.763 164.373 117.31 164.912 119.147C165.452 120.983 165.239 122.958 164.321 124.639C163.403 126.319 161.855 127.564 160.016 128.104C158.178 128.644 156.2 128.431 154.519 127.514L152.326 131.525Z" fill="white"/>
<path d="M169.534 78.1244C168.034 80.8682 165.506 82.9044 162.503 83.7852C161.446 84.0951 160.361 84.2531 159.279 84.2623L160.178 79.6229C160.526 79.5743 160.872 79.5001 161.214 79.3999C163.053 78.8606 164.6 77.6139 165.519 75.9341C166.436 74.2543 166.65 72.2789 166.109 70.4424C165.845 69.5398 165.364 68.632 164.789 67.9096C166.093 67.7914 168.367 67.72 169.891 67.6721L169.952 67.6702C170.167 68.1496 170.35 68.6454 170.5 69.1547C171.381 72.1542 171.034 75.3807 169.534 78.1244Z" fill="white"/>
<path d="M200.431 99.3231C197.306 99.4945 194.242 98.4189 191.911 96.333C190.505 95.0748 189.436 93.5111 188.771 91.7831H193.931C194.231 92.1977 194.576 92.5823 194.964 92.9289C196.391 94.206 198.267 94.8645 200.18 94.7596C202.093 94.6546 203.886 93.7948 205.165 92.3693L208.572 95.4189C206.484 97.7474 203.555 99.1516 200.431 99.3231Z" fill="white"/>
<path d="M148.317 162.931C147.014 165.775 146.895 169.018 147.987 171.947C149.078 174.878 151.289 177.254 154.134 178.555C156.98 179.857 160.226 179.975 163.159 178.885C166.092 177.795 168.471 175.586 169.773 172.743L165.613 170.841C164.816 172.581 163.36 173.935 161.564 174.601C159.769 175.269 157.78 175.196 156.039 174.399C154.297 173.603 152.942 172.148 152.275 170.354C151.607 168.559 151.68 166.574 152.476 164.834L148.317 162.931Z" fill="white"/>
<path d="M214.8 222.165C213.496 225.009 213.378 228.251 214.469 231.181C215.56 234.111 217.772 236.488 220.616 237.789C223.463 239.091 226.709 239.209 229.641 238.119C232.575 237.029 234.953 234.82 236.256 231.977L232.095 230.075C231.299 231.815 229.842 233.169 228.047 233.835C226.251 234.503 224.263 234.43 222.521 233.633C220.779 232.837 219.425 231.382 218.757 229.588C218.089 227.793 218.162 225.808 218.959 224.068L214.8 222.165Z" fill="white"/>
<path d="M237.943 274.518C240.872 275.616 244.118 275.508 246.968 274.216C249.818 272.922 252.036 270.553 253.136 267.626C254.237 264.699 254.128 261.456 252.834 258.609C251.54 255.764 249.167 253.547 246.237 252.448L244.63 256.727C246.423 257.399 247.876 258.756 248.668 260.499C249.459 262.242 249.527 264.228 248.853 266.02C248.179 267.812 246.821 269.263 245.077 270.054C243.332 270.845 241.344 270.912 239.551 270.24L237.943 274.518Z" fill="white"/>
<path d="M200.201 174.271C198.659 176.991 198.263 180.212 199.099 183.224C199.934 186.237 201.934 188.794 204.657 190.335C207.381 191.875 210.604 192.271 213.62 191.435C216.635 190.6 219.195 188.603 220.737 185.883L216.755 183.631C215.811 185.297 214.244 186.52 212.397 187.031C210.551 187.543 208.577 187.3 206.91 186.357C205.243 185.414 204.018 183.849 203.507 182.003C202.995 180.159 203.239 178.187 204.182 176.522L200.201 174.271Z" fill="white"/>
<path d="M183.536 135.528C182.233 138.371 182.114 141.614 183.205 144.543C184.297 147.474 186.508 149.85 189.353 151.151C192.199 152.453 195.445 152.572 198.377 151.482C201.311 150.391 203.69 148.182 204.992 145.339L200.832 143.438C200.035 145.178 198.579 146.531 196.783 147.198C194.987 147.865 192.999 147.792 191.257 146.995C189.516 146.2 188.161 144.744 187.494 142.951C186.825 141.156 186.898 139.17 187.695 137.43L183.536 135.528Z" fill="white"/>
<path d="M162.838 225.193C164.338 227.937 166.866 229.974 169.869 230.854C170.366 231 170.871 231.113 171.377 231.191L172.455 226.724C172.019 226.678 171.585 226.594 171.158 226.469C169.319 225.929 167.771 224.683 166.853 223.003C165.934 221.323 165.722 219.348 166.261 217.512C166.802 215.675 168.05 214.128 169.732 213.211L167.538 209.2C164.792 210.697 162.754 213.224 161.872 216.224C160.991 219.223 161.338 222.449 162.838 225.193Z" fill="white"/>
<path d="M205.638 107.758H188.269C187.646 118.815 193.2 123.294 196.774 124.093C205.698 122.716 206.097 111.707 205.638 107.758Z" fill="white"/>
<path d="M190.135 134.657L180.117 142.835L224.304 196.858L234.322 188.681L190.135 134.657Z" fill="#242938"/>
<path d="M172.643 113.523C176.488 112.266 180.652 112.381 184.421 113.847C188.192 115.313 191.338 118.04 193.321 121.563C195.305 125.086 196.004 129.187 195.3 133.167C194.597 137.147 192.533 140.761 189.462 143.392C186.389 146.023 182.5 147.509 178.455 147.595C174.41 147.682 170.459 146.366 167.278 143.869C164.095 141.372 161.878 137.852 161.003 133.905C160.129 129.959 160.651 125.831 162.481 122.226L170.67 126.375C169.8 128.087 169.552 130.047 169.968 131.922C170.384 133.796 171.436 135.469 172.948 136.655C174.46 137.841 176.336 138.466 178.257 138.425C180.178 138.383 182.025 137.678 183.484 136.428C184.943 135.179 185.924 133.463 186.259 131.572C186.593 129.681 186.26 127.733 185.318 126.06C184.376 124.387 182.882 123.091 181.091 122.395C179.3 121.698 177.323 121.644 175.496 122.242L172.643 113.523Z" fill="#242938"/>
<path d="M250.128 208.258C252.127 204.743 252.843 200.645 252.157 196.662C251.471 192.678 249.422 189.056 246.362 186.412C243.301 183.768 239.418 182.265 235.374 182.161C231.329 182.057 227.374 183.357 224.18 185.84C220.988 188.323 218.755 191.835 217.864 195.777C216.971 199.72 217.477 203.849 219.29 207.462C221.105 211.075 224.118 213.948 227.814 215.59C231.512 217.233 235.664 217.544 239.565 216.47L237.128 207.627C235.275 208.137 233.302 207.99 231.547 207.208C229.791 206.428 228.359 205.064 227.498 203.348C226.636 201.632 226.396 199.67 226.82 197.798C227.243 195.925 228.303 194.258 229.82 193.078C231.336 191.899 233.215 191.282 235.137 191.331C237.058 191.38 238.903 192.094 240.356 193.35C241.81 194.606 242.783 196.326 243.109 198.219C243.434 200.111 243.094 202.057 242.144 203.726L250.128 208.258Z" fill="#242938"/>
<path d="M196.173 154.488L221.148 139.41L229.712 167.292L215.219 176.686C214.799 178.84 213.386 183.411 211.086 184.464C208.786 185.517 207.053 182.549 206.474 180.934C202.593 182.465 200.865 179.339 200.485 177.583C196.412 176.53 195.913 172.039 196.173 169.925C187.356 165.282 192.499 157.698 196.173 154.488Z" fill="#AD5B5B"/>
<path d="M196.471 169.027C196.57 167.412 197.453 163.654 200.184 161.548" stroke="#242938" stroke-width="2" stroke-linecap="round"/>
<path d="M200.783 175.848C200.883 174.233 201.765 170.475 204.497 168.369" stroke="#242938" stroke-width="2" stroke-linecap="round"/>
<path d="M206.654 179.558C206.754 177.942 207.637 174.185 210.368 172.078" stroke="#242938" stroke-width="2" stroke-linecap="round"/>
<path d="M211.025 179.258L215.877 176.865" stroke="#242938" stroke-width="2" stroke-linecap="round"/>
<path d="M210.367 145.274L217.52 140.607L235.146 163.747L228.473 168.82L210.367 145.274Z" fill="#242938"/>
<path d="M223.662 162.386C227.433 162.386 230.489 159.332 230.489 155.565C230.489 151.798 227.433 148.744 223.662 148.744C219.891 148.744 216.834 151.798 216.834 155.565C216.834 159.332 219.891 162.386 223.662 162.386Z" fill="white"/>
<path d="M180.619 62.4459C180.196 65.5999 178.753 67.2828 177.988 68.3088C181.866 73.6285 190.653 74.9984 195.933 72.6753V60.8889L180.619 62.4459Z" fill="#AD5B5B"/>
<path d="M204.361 52.3405C202.346 61.1725 193.919 66.7852 185.54 64.8768C183.134 64.3289 179.667 64.0786 177.886 62.5676C173.464 58.8164 172.581 51.7257 174.018 45.4297C176.033 36.5977 184.46 30.985 192.839 32.8933C201.218 34.8016 206.377 43.5085 204.361 52.3405Z" fill="#AD5B5B"/>
<path d="M191.573 46.5558C186.267 45.6579 183.184 41.3628 182.306 39.3276C181.24 38.7904 178.871 38.863 177.938 43.4504C177.004 48.0378 174.75 50.8184 173.739 51.6353C174.189 54.9755 175.541 58.9888 177.337 61.1018C178.419 62.375 179.737 63.3245 180.375 63.735C180.094 65.2895 179.303 66.4202 179.13 66.5574L149.748 64.4893L151.049 62.3503C153.27 58.656 162.521 56.6687 164.43 55.2683C166.339 53.8678 159.234 44.1319 165.927 41.7387C172.621 39.3454 171.555 37.5144 175.057 31.1473C177.859 26.0536 184.75 26.4489 187.846 27.2832C196.972 24.8159 204.934 28.8809 206.345 34.4613C207.408 36.9267 206.154 40.8764 210.698 41.2409C215.429 41.2593 219.943 45.0053 220.491 48.0241C221.26 52.2579 216.113 56.0624 222.81 58.611C228.167 60.6499 232.236 65.1932 233.601 67.21L221.655 69.3954L219.27 65.6051L217.107 69.6653L195.93 70.3483C195.452 69.7098 194.333 67.4999 193.686 63.7668C193.041 60.0337 194.669 56.7314 195.562 55.5469C196.444 52.9241 196.88 47.4538 191.573 46.5558Z" fill="#242938"/>
<path d="M180.699 57.2872L182.691 52.4875L184.317 57.2286L180.699 57.2872Z" fill="#804141"/>
<path d="M183.691 65.5284C184.413 65.764 186.161 65.9709 187.387 64.9138" stroke="#242938" stroke-width="2" stroke-linecap="round"/>
<path d="M182.462 52.9013L180.48 57.2944L184.072 57.1567" stroke="#242938" stroke-width="2" stroke-linecap="round"/>
<path d="M185.246 60.3333L181.086 60.2545C181.376 60.7903 182.224 61.6702 182.991 61.8159C184.254 62.0567 184.848 61.0699 185.246 60.3333Z" stroke="#242938" stroke-width="2"/>
<path d="M177.828 53.0771C178.438 53.216 179.045 52.8346 179.184 52.225C179.323 51.6155 178.941 51.0087 178.331 50.8698C177.721 50.7308 177.114 51.1123 176.975 51.7218C176.836 52.3313 177.217 52.9381 177.828 53.0771Z" fill="#242938"/>
<path d="M186.255 53.4362C186.865 53.5752 187.473 53.1937 187.612 52.5842C187.751 51.9746 187.369 51.3679 186.759 51.2289C186.149 51.0899 185.542 51.4714 185.402 52.081C185.263 52.6905 185.645 53.2973 186.255 53.4362Z" fill="#242938"/>
<path d="M185.51 48.4808C186.486 48.1425 187.87 48.1145 188.743 48.5951" stroke="#242938" stroke-width="2" stroke-linecap="round"/>
<path d="M179.18 48.3348C178.191 48.0349 176.807 48.0611 175.953 48.5756" stroke="#242938" stroke-width="2" stroke-linecap="round"/>
<path d="M197.799 57.3403C199.306 58.4608 201.774 57.6962 203.311 55.6324C204.849 53.5687 204.873 50.9873 203.366 49.8668C201.859 48.7463 199.39 49.5109 197.853 51.5746C196.316 53.6384 196.291 56.2197 197.799 57.3403Z" fill="#804141"/>
<path d="M198.428 53.419C199.093 52.5903 200.756 51.4245 201.801 51.2764" stroke="#242938" stroke-width="2" stroke-linecap="round"/>
<path d="M200.902 51.7109C201.223 52.1896 201.556 53.2395 201.464 53.804" stroke="#242938" stroke-width="2" stroke-linecap="round"/>
<path d="M188.543 58.5453C189.171 58.6884 189.797 58.2956 189.94 57.6679C190.083 57.0402 189.69 56.4154 189.061 56.2723C188.433 56.1292 187.808 56.522 187.664 57.1497C187.521 57.7774 187.914 58.4022 188.543 58.5453Z" fill="#804141"/>
<path d="M176.689 56.5237C177.318 56.6668 177.943 56.2739 178.086 55.6463C178.23 55.0186 177.836 54.3937 177.208 54.2506C176.58 54.1075 175.954 54.5004 175.811 55.128C175.668 55.7557 176.061 56.3806 176.689 56.5237Z" fill="#804141"/>
</svg>
