<svg width="284" height="294" viewBox="0 0 284 294" fill="none" xmlns="http://www.w3.org/2000/svg">
<path d="M155.163 127.396H138.496V188.594L85.5176 190.277V198.972L152.975 198.243L155.163 127.396Z" fill="#DDDDE0"/>
<path d="M15.3008 192.476L19.1394 85.6169H137.925V188.112L114.556 188.942H101.368H101.356H101.345L15.3008 192.476Z" stroke="#242938" stroke-width="2"/>
<path d="M26.4785 181.358H61.8346H26.4785ZM26.4785 175.749H84.9563H26.4785Z" stroke="#242938" stroke-width="2" stroke-linecap="round"/>
<path d="M104.374 213.557H74.4052H104.374ZM104.374 205.367H65.6504H104.374ZM104.374 209.181H80.9601H104.374Z" stroke="#242938" stroke-width="2" stroke-linecap="round"/>
<path d="M113.578 47.5514H168.767C169.284 46.5754 169.396 44.3204 165.714 43.1312C162.044 41.942 158.969 43.6248 157.88 44.6233C157.532 41.4708 155.265 35.0424 148.99 34.5824C142.727 34.1225 140.763 38.711 140.561 41.0782C134.814 33.3933 129.786 39.2495 127.99 43.1424C122.007 41.123 115.89 45.2403 113.578 47.5514Z" stroke="#242938" stroke-width="2"/>
<path d="M138.327 120.16H161.337L164.087 196.223L84.9004 194.372V190.333" stroke="#242938" stroke-width="2"/>
<path d="M16.2648 146.58H1V220.624H104.318" stroke="#242938" stroke-width="2"/>
<path d="M16.6007 147.029H1.11133V160.379H16.6007V147.029Z" fill="#242938"/>
<path d="M108.023 194.99V211.313" stroke="#242938" stroke-width="2"/>
<path d="M18.4874 84.9438H138.597V106.439H17.7129L18.4874 84.9438Z" fill="#242938"/>
<path d="M27.9371 101.189C30.7543 101.189 33.0441 98.7321 33.0441 95.7031C33.0441 92.674 30.7543 90.217 27.9371 90.217C25.1198 90.217 22.8301 92.674 22.8301 95.7031C22.8301 98.7321 25.1198 101.189 27.9371 101.189Z" fill="white"/>
<path d="M41.2281 101.189C44.0453 101.189 46.3351 98.7321 46.3351 95.7031C46.3351 92.674 44.0453 90.217 41.2281 90.217C38.4108 90.217 36.1211 92.674 36.1211 95.7031C36.1211 98.7321 38.3996 101.189 41.2281 101.189Z" fill="white"/>
<path d="M54.5152 101.189C57.3437 101.189 59.6222 98.7321 59.6222 95.7031C59.6222 92.674 57.3325 90.217 54.5152 90.217C51.6979 90.217 49.4082 92.674 49.4082 95.7031C49.4082 98.7321 51.6867 101.189 54.5152 101.189Z" fill="white"/>
<path d="M159.653 275.574L177.836 242.927L159.148 230.306L149.326 246.013C149.124 247.83 149.45 255.952 149.944 262.729C150.438 269.505 156.431 274.037 159.653 275.574Z" fill="#AD5B5B"/>
<path d="M151.235 266.263C153.121 271.603 157.633 274.475 159.654 275.238L155.332 282.866C153.963 286.255 150.416 292.941 147.139 292.627L102.018 242.647C102.41 238.945 113.747 232.494 116.665 232.494C119.583 232.494 125.083 238.159 128.17 240.459C130.639 242.299 138.586 245.934 142.256 247.527C142.593 243.41 143.727 235.265 145.567 235.579C147.868 235.972 149.889 248.312 149.889 249.827C149.889 251.342 148.878 259.587 151.235 266.263Z" stroke="#242938" stroke-width="2"/>
<path d="M107.348 237.094C107.516 239.113 108.369 243.623 110.434 245.508C116.046 250.635 123.623 264.109 130.469 265.926C134.566 266.824 139.729 278.94 142.648 281.072C145.566 283.203 150.056 286.513 153.647 286.289" stroke="#242938" stroke-width="2"/>
<path d="M111.447 235.018C112.368 237.902 115.039 244.386 118.406 247.303C122.615 250.949 125.702 254.483 127.498 255.661C129.294 256.839 138.834 251.454 139.059 246.181" stroke="#242938" stroke-width="2"/>
<path d="M159.149 275.294C157.218 274.318 152.19 271.849 149.945 272.433C147.7 273.016 142.874 277.347 141.246 279.613" stroke="#242938" stroke-width="2"/>
<path d="M235.473 270.739L221.162 232.775L199.578 239.293L205.067 254.203C206.346 255.504 212.082 258.858 218.48 267.048C223.564 273.555 232.252 272.265 235.473 270.739Z" fill="#AD5B5B"/>
<path d="M223.036 270.279C227.986 273.039 233.272 272.198 235.292 271.435L237.1 280.017C238.312 283.461 240.085 290.821 237.425 292.751H169.99C167.835 289.71 172.572 269.763 174.761 267.834C176.949 265.904 184.817 266.51 188.656 266.196C191.72 265.938 200.094 263.413 203.899 262.179C201.429 258.87 196.883 252.015 198.466 251.028C200.453 249.805 210.139 257.714 211.138 258.847C212.137 259.98 216.851 266.835 223.036 270.279Z" stroke="#242938" stroke-width="2"/>
<path d="M170.822 277.448C172.281 278.85 175.907 281.666 178.713 281.711C182.204 281.767 192.137 285.211 194.27 285.94C196.413 286.67 200.028 287.376 207.245 283.764C210.904 281.722 222.801 287.399 226.404 287.062C230.007 286.726 235.563 286.243 238.1 283.697" stroke="#242938" stroke-width="2"/>
<path d="M172.516 273.173C175.108 274.722 181.405 277.818 185.872 277.784C191.44 277.728 196.098 278.334 198.219 278.031C200.34 277.728 203.932 267.373 200.61 263.278" stroke="#242938" stroke-width="2"/>
<path d="M234.945 271.816C232.858 272.366 227.447 273.836 226.145 275.765C224.843 277.684 224.103 284.123 224.383 286.905" stroke="#242938" stroke-width="2"/>
<path d="M173.345 188.797L172.055 123.783L236.032 121.932V130.066C236.616 154.119 232.946 172.17 231.038 178.195L216.154 200.464L228.232 247.92L196.355 253.249L190.687 238.384L176.881 259.251L147.811 241.918L173.345 188.797Z" fill="#242938"/>
<path d="M171.156 245.901L222.282 164.003" stroke="white" stroke-width="2" stroke-linecap="round"/>
<path fill-rule="evenodd" clip-rule="evenodd" d="M204.045 35.5474C193.135 34.6274 166.309 38.655 146.241 62.0799C136.476 72.6817 130.92 77.1693 107.742 71.8403C84.6762 66.5338 77.9529 68.4522 72.0714 70.135L71.9929 70.1575C66.1002 71.8403 60.5442 77.3936 62.2279 81.8812C60.9146 84.2932 58.6922 89.6222 60.2636 91.6415C61.835 93.6609 80.4447 99.3601 89.5587 101.963C97.3931 102.804 114.521 104.655 120.313 105.329C127.552 106.17 146.802 107.516 168.015 89.6782L171.944 87.2101V124.849C183.112 127.183 209.579 130.795 226.1 126.532L219.983 130.739C219.501 137.044 219.748 147.624 232.723 152.784C233.52 152.537 234.406 152.257 235.36 151.954C249.177 147.624 278.427 138.458 281.997 129.169C285.79 117.187 284.04 113.877 276.059 98.7767C275.891 98.4626 275.722 98.1372 275.543 97.8119C267.125 81.8812 250.345 51.422 244.789 46.1492C239.233 40.8763 217.177 32.1817 204.045 35.5474ZM236.034 120.698V92.8195C239.94 96.6564 247.898 105.317 248.437 109.311C248.975 113.305 240.389 118.567 236.034 120.698Z" fill="#AD5B5B"/>
<path d="M146.24 62.0799C166.309 38.655 193.135 34.6274 204.045 35.5474C217.177 32.1817 239.232 40.8763 244.788 46.1492C248.661 49.8177 257.977 65.7148 266.114 80.4003L242.992 100.448L239.176 96.2413L236.819 120.53L225.09 127.149C213.248 129.112 184.234 129.786 171.944 124.849V87.2101L168.015 89.6783C165.669 91.6528 163.346 93.3917 161.056 94.9287L146.24 62.0799Z" fill="#587291"/>
<path d="M172.394 82.7787C171.541 76.6308 170.879 71.4814 171.541 67.6333" stroke="#242938" stroke-width="2" stroke-linecap="round"/>
<path d="M237.943 93.7734C237.09 87.6254 236.428 82.476 237.09 78.6279" stroke="#242938" stroke-width="2" stroke-linecap="round"/>
<path d="M234.238 82.7784C233.89 80.3215 233.632 78.2572 233.89 76.7202" stroke="#242938" stroke-width="2" stroke-linecap="round"/>
<path d="M198.097 19.8073C200.454 19.8073 202.362 17.9001 202.362 15.5442C202.362 13.1882 200.454 11.281 198.097 11.281C195.74 11.281 193.832 13.1882 193.832 15.5442C193.832 17.9001 195.74 19.8073 198.097 19.8073Z" fill="#242938"/>
<path d="M198.097 27.6608C200.454 27.6608 202.362 25.7536 202.362 23.3977C202.362 21.0417 200.454 19.1345 198.097 19.1345C195.74 19.1345 193.832 21.0417 193.832 23.3977C193.832 25.7536 195.74 27.6608 198.097 27.6608Z" fill="#242938"/>
<path d="M193.841 23.3974C196.198 23.3974 198.107 21.4902 198.107 19.1343C198.107 16.7783 196.198 14.8711 193.841 14.8711C191.484 14.8711 189.576 16.7783 189.576 19.1343C189.576 21.4902 191.484 23.3974 193.841 23.3974Z" fill="#242938"/>
<path d="M231.521 18.5397C231.521 28.3561 223.563 36.3103 213.742 36.3103C197.231 37.9034 195.963 28.3561 195.963 18.5397C195.963 8.72319 203.921 0.769043 213.742 0.769043C223.563 0.769043 231.521 8.72319 231.521 18.5397Z" fill="#AD5B5B"/>
<path d="M213.741 0.769043C206.715 0.769043 200.642 4.84148 197.758 10.7538L231.352 16.0828C230.151 7.43303 222.72 0.769043 213.741 0.769043Z" fill="#587291"/>
<path d="M230.656 15.937L184.514 9.55347" stroke="#242938" stroke-width="2" stroke-linecap="round"/>
<path d="M222.206 37.8361L221.869 32.5744L205.426 31.8452L204.494 36.7703C208.748 45.5546 220.466 41.0334 222.206 37.8361Z" fill="#AD5B5B"/>
<path d="M230.453 23.3975C232.956 23.3975 234.976 21.3444 234.976 18.809C234.976 16.2735 232.945 14.2205 230.453 14.2205C227.961 14.2205 225.93 16.2735 225.93 18.809C225.93 21.3444 227.95 23.3975 230.453 23.3975Z" fill="#242938"/>
<path d="M235.046 23.3974C236.336 23.3974 237.38 22.3204 237.38 20.9965C237.38 19.6727 236.336 18.5957 235.046 18.5957C233.755 18.5957 232.711 19.6727 232.711 20.9965C232.711 22.3204 233.766 23.3974 235.046 23.3974Z" fill="#242938"/>
<path d="M236.841 25.0579C236.841 28.0309 234.439 30.8692 231.454 31.318C227.391 31.9126 223.934 27.8402 223.934 24.8672C223.934 21.8942 228.479 19.6729 231.454 19.6729C234.428 19.6729 236.841 22.0849 236.841 25.0579Z" fill="#242938"/>
<path d="M198.063 15.9256C200.543 16.2509 202.822 14.4783 203.147 11.9653L194.168 10.7874C193.843 13.2892 195.582 15.6002 198.063 15.9256Z" fill="#242938"/>
<path d="M203.887 15.3089C205.167 15.4098 206.289 14.4114 206.39 13.0875L201.744 12.7397C201.643 14.0636 202.597 15.2191 203.887 15.3089Z" fill="#242938"/>
<path d="M225.303 25.933C227.088 26.5163 229.12 25.2374 229.838 23.0722C230.556 20.9069 229.681 18.6632 227.896 18.0798C226.111 17.4964 224.08 18.7753 223.373 20.9406C222.643 23.1058 223.519 25.3384 225.303 25.933Z" fill="#804141"/>
<path d="M224.258 21.9951C224.853 20.9967 226.525 19.7962 228.052 20.0655" stroke="#242938" stroke-width="2" stroke-linecap="round"/>
<path d="M227.078 20.2224C227.258 20.5029 227.639 21.4116 227.695 22.0399" stroke="#242938" stroke-width="2" stroke-linecap="round"/>
<path d="M205.818 26.3257L209.635 20.6938L210.735 27.1783L205.818 26.3257Z" fill="#804141"/>
<path d="M209.231 21.0977L205.785 26.0003L210.398 26.7183" stroke="#242938" stroke-width="2" stroke-linecap="round"/>
<path d="M208.547 30.1175C209.142 30.14 210.657 30.039 211.88 29.4553" stroke="#242938" stroke-width="2" stroke-linecap="round"/>
<path d="M213.406 16.0827C214.001 16.0602 215.505 16.1612 216.74 16.7449" stroke="#242938" stroke-width="2" stroke-linecap="round"/>
<path d="M203.957 16.341C203.362 16.3185 201.858 16.4195 200.623 17.0032" stroke="#242938" stroke-width="2" stroke-linecap="round"/>
<path d="M209.545 35.7725C211.015 36.0419 213.608 36.2439 215.606 34.5715" stroke="#242938" stroke-width="2" stroke-linecap="round"/>
<path d="M203.36 21.4007C203.989 21.4007 204.494 20.8959 204.494 20.2676C204.494 19.6394 203.989 19.1345 203.36 19.1345C202.732 19.1345 202.227 19.6394 202.227 20.2676C202.227 20.8959 202.732 21.4007 203.36 21.4007Z" fill="#242938"/>
<path d="M214.54 21.4007C215.168 21.4007 215.674 20.8959 215.674 20.2676C215.674 19.6394 215.168 19.1345 214.54 19.1345C213.911 19.1345 213.406 19.6394 213.406 20.2676C213.406 20.8959 213.923 21.4007 214.54 21.4007Z" fill="#242938"/>
<path d="M216.065 27.7729C217.311 27.7729 218.321 26.7632 218.321 25.5179C218.321 24.2726 217.311 23.2629 216.065 23.2629C214.819 23.2629 213.809 24.2726 213.809 25.5179C213.809 26.7632 214.819 27.7729 216.065 27.7729Z" fill="#804141"/>
<path d="M201.553 26.5722C202.799 26.5722 203.809 25.5625 203.809 24.3172C203.809 23.0719 202.799 22.0623 201.553 22.0623C200.307 22.0623 199.297 23.0719 199.297 24.3172C199.297 25.5625 200.307 26.5722 201.553 26.5722Z" fill="#804141"/>
<path d="M92.8702 70.7855C79.5583 64.6824 72.0045 71.6718 72.0045 71.6718C69.1648 74.3306 67.6944 79.1211 84.5755 77.0568C84.7439 77.1017 88.4703 77.9992 91.0406 75.3964C92.8253 73.5902 92.8702 71.3015 92.8702 70.7855Z" fill="#AD5B5B"/>
<path d="M92.8702 70.7855C79.5583 64.6824 72.0045 71.6718 72.0045 71.6718C69.1648 74.3306 67.6944 79.1211 84.5755 77.0568" stroke="#242938" stroke-width="2" stroke-linecap="round"/>
<path d="M191.137 236.645L211.565 206.298" stroke="white" stroke-width="2" stroke-linecap="round"/>
<path d="M175.48 184.534L198.322 148.858" stroke="white" stroke-width="2" stroke-linecap="round"/>
<path d="M48.9336 137.644H102.829L104.484 129.873H52.2425L48.9336 137.644Z" fill="#242938"/>
<path d="M69.1856 114.579C79.4859 114.579 87.836 106.229 87.836 95.929C87.836 85.6286 79.4859 77.2786 69.1856 77.2786C58.8852 77.2786 50.5352 85.6286 50.5352 95.929C50.5352 106.229 58.8852 114.579 69.1856 114.579Z" fill="#EC5B60"/>
<path d="M83.928 122.754C75.7321 122.754 69.0879 129.398 69.0879 137.594H98.7681C98.7681 129.398 92.1242 122.754 83.928 122.754Z" fill="#EC5B60"/>
</svg>
