<svg width="314" height="317" viewBox="0 0 314 317" fill="none" xmlns="http://www.w3.org/2000/svg">
<path d="M159.287 206.584H15.9238V295.951H159.287V206.584Z" fill="#F6F6F7"/>
<path d="M83.3457 31.8744H201.545C202.647 29.4765 202.883 23.9524 195.015 21.0394C187.145 18.1265 180.555 22.2532 178.244 24.6807C177.491 16.9541 172.632 1.21674 159.216 0.0799985C145.8 -1.05686 141.585 10.2045 141.155 15.9772C128.836 -2.8508 118.069 11.507 114.226 21.0394C101.39 16.137 88.2908 26.2201 83.3457 31.8744Z" fill="#F6F6F7"/>
<path d="M314.001 95.5193H178.698C177.437 91.8514 177.166 83.4016 186.174 78.9458C195.182 74.49 202.724 80.8024 205.37 84.5156C206.232 72.6967 211.795 48.6245 227.152 46.8855C242.51 45.1467 247.334 62.3724 247.826 71.2024C261.928 42.4027 274.253 64.3648 278.652 78.9458C293.345 71.447 308.34 86.8704 314.001 95.5193Z" fill="#F6F6F7"/>
<path d="M94.9785 281.596L101.219 107.259H294.23V274.479L256.029 275.844H234.692H234.678H234.664L94.9785 281.596Z" stroke="#242938" stroke-width="2.5"/>
<path d="M241.611 89.4403H303.899M241.611 82.4155H281.482H241.611Z" stroke="#242938" stroke-width="2.5" stroke-linecap="round"/>
<path d="M13.7383 52.6663H51.1681M13.7383 39.9155H71.4132H13.7383Z" stroke="#242938" stroke-width="2.5" stroke-linecap="round"/>
<path d="M100.538 106.551H294.937V141.457H99.2812L100.538 106.551Z" fill="#242938"/>
<path d="M115.835 132.921C120.404 132.921 124.108 128.929 124.108 124.004C124.108 119.08 120.404 115.087 115.835 115.087C111.266 115.087 107.562 119.08 107.562 124.004C107.562 128.929 111.266 132.921 115.835 132.921Z" fill="white"/>
<path d="M137.345 132.921C141.914 132.921 145.618 128.929 145.618 124.004C145.618 119.08 141.914 115.087 137.345 115.087C132.776 115.087 129.072 119.08 129.072 124.004C129.072 128.929 132.776 132.921 137.345 132.921Z" fill="white"/>
<path d="M158.853 132.921C163.422 132.921 167.125 128.929 167.125 124.004C167.125 119.08 163.422 115.087 158.853 115.087C154.284 115.087 150.58 119.08 150.58 124.004C150.58 128.929 154.284 132.921 158.853 132.921Z" fill="white"/>
<path d="M59.1767 71.3396L58.9648 71.0806H58.6308H26.5656C12.8495 71.0806 1.73047 59.9284 1.73047 46.1716C1.73047 32.4147 12.8496 21.2627 26.5656 21.2627H61.8775C75.5935 21.2627 86.7127 32.4149 86.7127 46.1716V53.6259C86.7127 63.2658 78.9212 71.0806 69.3097 71.0806H68.4991L68.6102 71.8859L70.4328 85.0993L59.1767 71.3396Z" stroke="#242938" stroke-width="2.5"/>
<path d="M277.687 173.966C262.091 161.157 260.914 137.9 222.955 127.453C214.411 125.101 205.912 124.052 197.884 123.946C197.884 123.946 192.133 136.071 180.169 136.071C171.047 136.071 164.868 129.932 164.868 129.932C159.615 132.242 153.119 135.474 147.919 140.143C138.918 148.225 139.385 155.136 135.383 159.504C131.381 163.872 122.612 171.959 115.785 168.358C108.959 164.758 112.607 159.917 115.785 146.282C118.963 132.647 121.788 119.425 120.199 115.411C118.61 111.397 88.2426 107.029 84.6527 109.036C81.7807 110.642 72.7841 134.536 68.6449 146.282C63.976 165.8 62.5596 206.997 94.2455 215.639C125.931 224.28 147.939 209.913 154.981 201.649C158.794 211.282 179.443 259.318 188.114 277.085L264.328 274.252L295.284 259.732C296.088 252.392 297.214 234.586 295.284 222.073C292.871 206.43 293.283 186.775 277.687 173.966Z" fill="#EC5B60"/>
<path d="M183.12 195.452L165.238 186.184L161.456 193.526L179.337 202.794L183.12 195.452Z" fill="#242938"/>
<path d="M222.962 134.891L203.922 141.438L206.594 149.255L225.634 142.708L222.962 134.891Z" fill="#242938"/>
<path d="M174.113 151.735L181.264 132.865L173.562 129.929L166.412 148.799L174.113 151.735Z" fill="#242938"/>
<path d="M247.833 212.818L253.268 193.38L245.334 191.149L239.9 210.586L247.833 212.818Z" fill="#242938"/>
<path d="M258.324 243.176L278.098 246.946L279.636 238.827L259.863 235.057L258.324 243.176Z" fill="#242938"/>
<path d="M284.217 206.8L295.382 223.595L293.089 205.25L291.072 202.214L284.217 206.8Z" fill="#242938"/>
<path d="M255.027 150.021L261.756 169.047L269.521 166.284L268.752 164.108C266.641 161.369 261.756 153.188 258.031 148.938L255.027 150.021Z" fill="#242938"/>
<path d="M226.585 252.924L237.43 269.931L244.371 265.479L233.526 248.471L226.585 252.924Z" fill="#242938"/>
<path d="M218.729 212.864L199.473 218.738L201.87 226.645L221.127 220.771L218.729 212.864Z" fill="#242938"/>
<path d="M115.735 170.955L96.4785 176.829L98.8762 184.736L118.133 178.862L115.735 170.955Z" fill="#242938"/>
<path d="M124.884 212.906L118.193 208.084L110.963 218.177C113.453 218.237 119.011 218.265 121.318 217.884L124.884 212.906Z" fill="#242938"/>
<path d="M87.2142 132.635L91.3927 125.512L79.4163 118.443L76.2383 126.156L87.2142 132.635Z" fill="#242938"/>
<path d="M118.249 119.011L111.311 137.961L117.196 140.129C118.137 137.709 120.138 126.272 120.609 119.88L118.249 119.011Z" fill="#242938"/>
<path d="M78.7847 192.81L71.0509 189.961L70.0078 192.81C70.9015 194.961 73.2516 200.293 75.3528 202.712L78.7847 192.81Z" fill="#242938"/>
<path d="M184.61 251.815L184.269 243.558L173.164 244.021L176.695 252.144L184.61 251.815Z" fill="#242938"/>
<path d="M214.541 180.576C226.547 185.573 251.759 198.213 256.561 208.791C261.364 219.369 263.427 236.179 263.859 243.263M149.392 159.327C149.274 165.741 149.898 181.887 153.335 195.156L149.392 159.327Z" stroke="#242938" stroke-width="2.5" stroke-linecap="round"/>
<path d="M210.889 164.285C212.222 167.511 216.28 174.957 221.835 178.924" stroke="#242938" stroke-width="2.5" stroke-linecap="round"/>
<path d="M180.436 71.082C168.646 71.082 163.129 74.2282 154.476 89.7422C150.084 97.6169 147.582 109.704 151.555 113.718C154.046 116.233 159.964 118.968 166.051 120.987L164.868 133.946C163.748 136.784 169.585 142.056 177.874 142.918C187.682 143.936 197.617 139.26 200.356 131.289C200.986 129.455 195.76 121.925 197.744 117.35C203.118 112.5 206.504 105.429 206.504 97.5532C206.504 82.9337 194.834 71.082 180.436 71.082Z" fill="#D58B8B"/>
<path d="M157.344 100.115L164.169 93.6426L163.35 102.692L157.344 100.115Z" fill="#AD5B5B"/>
<path d="M163.483 94.1572L156.975 99.964L162.996 102.391" stroke="#242938" stroke-width="2.5" stroke-linecap="round"/>
<path d="M162.594 108.519L155.793 105.312C155.875 106.413 156.625 108.498 157.78 109.305C159.688 110.638 161.394 109.443 162.594 108.519Z" stroke="#242938" stroke-width="2.5"/>
<path d="M155.714 91.0229C156.617 91.704 157.9 91.5216 158.579 90.6155C159.258 89.7094 159.076 88.4227 158.173 87.7416C157.269 87.0605 155.987 87.2428 155.307 88.1489C154.628 89.055 154.81 90.3417 155.714 91.0229Z" fill="#242938"/>
<path d="M169.346 97.8476C170.25 98.5287 171.533 98.3463 172.212 97.4402C172.891 96.5341 172.709 95.2474 171.806 94.5663C170.902 93.8852 169.619 94.0676 168.94 94.9737C168.261 95.8798 168.443 97.1665 169.346 97.8476Z" fill="#242938"/>
<path d="M171.773 89.0947C173.632 89.2565 175.933 90.233 177.019 91.6748" stroke="#242938" stroke-width="2.5" stroke-linecap="round"/>
<path d="M161.438 84.1703C160.029 82.943 157.729 81.9636 155.941 82.1833" stroke="#242938" stroke-width="2.5" stroke-linecap="round"/>
<path d="M169.25 105.457C170.18 106.158 171.501 105.97 172.2 105.037C172.9 104.104 172.712 102.779 171.782 102.078C170.852 101.376 169.531 101.564 168.831 102.497C168.132 103.43 168.319 104.755 169.25 105.457Z" fill="#AD5B5B"/>
<path d="M152.81 97.2115C153.74 97.913 155.061 97.7251 155.761 96.7921C156.46 95.859 156.273 94.5339 155.343 93.8325C154.412 93.1311 153.091 93.3189 152.392 94.252C151.693 95.1851 151.88 96.5101 152.81 97.2115Z" fill="#AD5B5B"/>
<path d="M197.745 117.349C203.119 112.5 219.778 89.7419 219.778 89.7419L211.774 91.1508L212.657 80.408H201.098L193.634 65.7103L180.759 68.7207L178.581 57.2104L162.824 77.5911C164.429 81.3882 172 86.4871 183.466 86.4871C192.323 86.4871 197.42 90.1758 193.634 93.8644C190.606 96.8153 187.901 102.038 186.928 104.28C185.269 108.636 185.11 117.349 197.745 117.349Z" fill="#242938"/>
<path d="M187.034 110.823C189.302 112.515 193.016 111.36 195.329 108.243C197.642 105.125 197.679 101.226 195.411 99.5331C193.143 97.8404 189.43 98.9955 187.116 102.113C184.803 105.231 184.767 109.13 187.034 110.823Z" fill="#AD5B5B"/>
<path d="M187.975 104.9C188.975 103.648 191.478 101.887 193.05 101.664" stroke="#242938" stroke-width="2.5" stroke-linecap="round"/>
<path d="M191.699 102.319C192.183 103.043 192.684 104.628 192.544 105.482" stroke="#242938" stroke-width="2.5" stroke-linecap="round"/>
<path d="M88.2734 91.5676C83.7393 98.3988 85.8919 104.087 87.5349 106.076L87.2952 108.564C96.0489 109.352 114.663 111.587 119.085 114.231C119.523 112.63 119.965 111.031 120.364 109.629C121.858 104.382 134.307 93.8762 135.613 91.3461C136.919 88.8159 137.221 87.0043 135.644 85.8531C134.383 84.9322 127.185 87.8047 123.743 89.356L127.073 79.9822C128.505 74.7536 130.809 63.5112 128.574 60.3695C126.339 57.228 123.446 62.3179 122.278 65.2555C122.804 63.8658 123.482 60.4735 121.98 58.0226C120.479 55.5716 117.072 60.0668 115.555 62.6208C115.862 60.7805 115.942 57.0102 113.809 56.6526C111.676 56.2949 108.702 63.4227 107.481 67.0314L107.928 64.3571C108.358 62.301 108.997 57.9387 108.103 56.9375C106.985 55.6859 105.422 57.1086 103.097 62.0397C100.772 66.9707 93.9396 83.0291 88.2734 91.5676Z" fill="#D58B8B"/>
<path d="M122.18 89.7139C119.102 90.4985 111.81 93.2608 107.266 98.0327" stroke="#242938" stroke-width="2.5" stroke-linecap="round"/>
<path d="M116.997 78.9138L121.49 67.3396M104.268 76.7794L106.751 69.3027L104.268 76.7794ZM110.03 77.7456L114.696 65.1362L110.03 77.7456Z" stroke="#242938" stroke-width="2.5" stroke-linecap="round"/>
<path d="M268.192 266.075C269.258 264.929 268.802 260.538 268.357 257.96C280.396 263.993 285.399 261.16 294.737 259.011C294.833 261.716 294.8 266.648 294.571 268.939C294.285 271.803 292.095 286.123 288.286 288.987C284.476 291.851 277.715 300.156 275.429 303.88C273.601 306.858 268.953 312.504 266.858 314.954C265.367 316.131 262.02 318.047 260.573 316.291C259.126 314.534 261.558 308.367 262.954 305.503C261.113 308.048 256.878 313.254 254.669 313.712C250.25 314.476 252.256 307.857 253.812 304.452C252.414 306.235 248.898 309.684 246.002 309.226C243.108 308.767 244.415 303.561 245.431 301.016C244.32 302.097 241.832 303.956 240.764 302.735C239.432 301.207 240.003 297.865 240.764 294.906C241.374 292.538 245.145 285.836 246.955 282.781C245.622 283.355 242.917 284.157 242.765 282.781C242.574 281.064 247.24 275.431 252.478 272.663C257.716 269.893 266.858 267.507 268.192 266.075Z" fill="#D58B8B"/>
<path d="M262.933 305.902C264.202 303.757 266.989 299.217 267.979 298.218M246.557 299.467C247.731 297.513 250.783 292.974 253.602 290.437L246.557 299.467ZM255.316 303.213C256.68 301.004 259.981 295.97 262.267 293.511L255.316 303.213Z" stroke="#242938" stroke-width="2.5" stroke-linecap="round"/>
<path d="M248.086 281.583C249.617 279.879 253.808 275.911 258.326 273.673" stroke="#242938" stroke-width="2.5" stroke-linecap="round"/>
<path d="M53.5413 137.541L53.3293 137.282H52.9958H35.2312C27.8343 137.282 21.8379 131.267 21.8379 123.849C21.8379 116.429 27.8343 110.416 35.2312 110.416H54.8199C62.2174 110.416 68.2132 116.429 68.2132 123.849V127.944C68.2132 133.101 64.0442 137.282 58.9029 137.282H58.0919L58.2037 138.087L59.0582 144.27L53.5413 137.541Z" stroke="#242938" stroke-width="2.5"/>
</svg>
