<svg width="284" height="285" viewBox="0 0 284 285" fill="none" xmlns="http://www.w3.org/2000/svg">
<path d="M150.86 146.958H134.707V206.296L83.3643 207.928V216.358L148.739 215.651L150.86 146.958Z" fill="#D1EAFF"/>
<path d="M264.369 202.151C264.369 204.459 264.884 208.961 267.167 208.961C269.449 208.961 272.636 204.459 272.636 202.151C272.636 199.844 270.786 197.974 268.503 197.974C266.219 197.974 264.369 199.844 264.369 202.151Z" fill="black"/>
<path d="M252.73 202.151C252.73 204.459 253.252 208.961 255.564 208.961C257.878 208.961 261.106 204.459 261.106 202.151C261.106 199.844 259.231 197.974 256.918 197.974C254.606 197.974 252.73 199.844 252.73 202.151Z" fill="black"/>
<path d="M241.199 202.151C241.199 204.459 241.714 208.961 243.997 208.961C246.279 208.961 249.466 204.459 249.466 202.151C249.466 199.844 247.616 197.974 245.333 197.974C243.05 197.974 241.199 199.844 241.199 202.151Z" fill="black"/>
<path d="M15.3125 210.068L19.0321 106.46H134.148V205.837L111.501 206.644H98.7284H98.7153H98.7022L15.3125 210.068Z" stroke="black" stroke-width="2"/>
<path d="M26.1475 199.28H60.4123M26.1475 193.841H82.8204H26.1475Z" stroke="black" stroke-width="2" stroke-linecap="round"/>
<path d="M101.639 230.499H72.5959M101.639 222.558H64.1113H101.639ZM101.639 226.257H78.9497H101.639Z" stroke="black" stroke-width="2" stroke-linecap="round"/>
<path d="M102.673 22.0218H22.9389C22.1956 20.5533 22.036 17.1703 27.3443 15.3864C32.6527 13.6025 37.0981 16.1298 38.6572 17.6163C39.1648 12.8845 42.4426 3.24687 51.4929 2.55069C60.5431 1.85452 63.3858 8.75099 63.6759 12.2862C71.9865 0.755872 79.2492 9.54876 81.8417 15.3864C90.5008 12.3841 99.3367 18.5591 102.673 22.0218Z" fill="#D1EAFF"/>
<path d="M110.559 45.3601H164.04C164.538 44.4108 164.645 42.2241 161.084 41.0709C157.524 39.9176 154.543 41.5514 153.496 42.5123C153.156 39.4536 150.957 33.2236 144.886 32.7736C138.817 32.3236 136.91 36.7816 136.715 39.0669C131.141 31.6134 126.269 37.2972 124.531 41.0709C118.723 39.1301 112.796 43.1217 110.559 45.3601Z" stroke="black" stroke-width="2"/>
<path d="M134.544 139.942H156.843L159.508 213.693L82.7656 211.898V207.982" stroke="black" stroke-width="2"/>
<path d="M16.2488 165.559H1.45508V237.352H101.584" stroke="black" stroke-width="2"/>
<path d="M16.5747 165.994H1.56348V178.938H16.5747V165.994Z" fill="black"/>
<path d="M105.175 212.496V228.323" stroke="black" stroke-width="2"/>
<path d="M18.4018 105.808H134.801V126.646H17.6494L18.4018 105.808Z" fill="black"/>
<path d="M48.2295 158.325H106.697L108.492 149.895H51.8191L48.2295 158.325Z" fill="black"/>
<path d="M27.5617 121.55C30.2974 121.55 32.5151 119.167 32.5151 116.227C32.5151 113.287 30.2974 110.904 27.5617 110.904C24.8261 110.904 22.6084 113.287 22.6084 116.227C22.6084 119.167 24.8261 121.55 27.5617 121.55Z" fill="white"/>
<path d="M40.4397 121.55C43.1753 121.55 45.393 119.167 45.393 116.227C45.393 113.287 43.1753 110.904 40.4397 110.904C37.704 110.904 35.4863 113.287 35.4863 116.227C35.4863 119.167 37.704 121.55 40.4397 121.55Z" fill="white"/>
<path d="M53.3186 121.55C56.0542 121.55 58.2719 119.167 58.2719 116.227C58.2719 113.287 56.0542 110.904 53.3186 110.904C50.5829 110.904 48.3652 113.287 48.3652 116.227C48.3652 119.167 50.5829 121.55 53.3186 121.55Z" fill="white"/>
<path d="M221.511 69.3722C225.544 48.906 244.046 11.0578 249.62 22.8186C256.586 37.5196 253.897 79.6053 244.487 82.055C235.076 84.5057 248.764 23.1069 260.496 27.4307C269.882 30.8898 264.407 48.8578 260.496 57.4093C261.881 45.8792 263.661 29.737 282.861 18.9272" stroke="black" stroke-width="2" stroke-linecap="round"/>
<path d="M155.211 266.45L172.833 234.796L154.722 222.558L145.204 237.787C145.005 239.546 145.323 247.425 145.802 253.995C146.281 260.565 152.093 264.963 155.211 266.45Z" fill="#ED4546"/>
<path d="M147.053 257.421C148.881 262.599 153.254 265.38 155.212 266.123L151.024 273.52C149.7 276.802 146.259 283.288 143.083 282.984L99.3545 234.523C99.7352 230.934 110.722 224.679 113.55 224.679C116.378 224.679 121.708 230.172 124.7 232.402C127.093 234.186 134.797 237.714 138.351 239.255C138.677 235.266 139.776 227.366 141.56 227.67C143.79 228.051 145.748 240.017 145.748 241.485C145.748 242.954 144.769 250.949 147.053 257.421Z" stroke="black" stroke-width="2"/>
<path d="M104.521 229.139C104.685 231.097 105.511 235.47 107.513 237.297C112.956 242.266 120.294 255.328 126.93 257.095C130.9 257.965 135.904 269.713 138.732 271.78C141.56 273.846 145.911 277.055 149.392 276.838" stroke="black" stroke-width="2"/>
<path d="M108.491 227.126C109.38 229.919 111.972 236.209 115.235 239.038C119.315 242.573 122.306 245.999 124.046 247.141C125.787 248.284 135.033 243.062 135.25 237.95" stroke="black" stroke-width="2"/>
<path d="M154.722 266.178C152.854 265.234 147.978 262.838 145.802 263.404C143.627 263.969 138.949 268.171 137.372 270.365" stroke="black" stroke-width="2"/>
<path d="M228.691 261.763L214.821 224.952L193.897 231.275L199.22 245.727C200.458 246.993 206.019 250.242 212.219 258.182C217.145 264.492 225.569 263.244 228.691 261.763Z" fill="#ED4546"/>
<path d="M216.634 261.313C221.431 263.985 226.549 263.175 228.509 262.436L230.266 270.753C231.445 274.089 233.16 281.228 230.577 283.102H165.227C163.137 280.16 167.728 260.816 169.848 258.944C171.968 257.072 179.6 257.663 183.318 257.354C186.293 257.107 194.403 254.652 198.088 253.455C195.692 250.249 191.286 243.6 192.825 242.647C194.748 241.457 204.136 249.13 205.108 250.231C206.08 251.332 210.638 257.973 216.634 261.313Z" stroke="black" stroke-width="2"/>
<path d="M166.033 268.263C167.452 269.622 170.966 272.354 173.676 272.398C177.063 272.455 186.681 275.789 188.757 276.496C190.832 277.202 194.335 277.883 201.335 274.387C204.886 272.411 216.413 277.906 219.901 277.584C223.389 277.261 228.775 276.786 231.24 274.319" stroke="black" stroke-width="2"/>
<path d="M167.678 264.126C170.192 265.632 176.298 268.632 180.617 268.592C186.014 268.541 190.524 269.13 192.586 268.834C194.646 268.539 198.121 258.505 194.9 254.529" stroke="black" stroke-width="2"/>
<path d="M228.179 262.801C226.154 263.33 220.912 264.761 219.656 266.626C218.399 268.489 217.675 274.735 217.945 277.424" stroke="black" stroke-width="2"/>
<path d="M168.482 182.31L167.231 119.274L229.234 117.479V125.366C229.8 148.687 226.243 166.193 224.394 172.031L209.974 193.623L221.674 239.636L190.781 244.803L185.288 230.39L171.909 250.622L143.735 233.816L168.482 182.31Z" fill="black"/>
<path d="M166.361 237.678L215.909 158.271" stroke="white" stroke-width="2" stroke-linecap="round"/>
<path fill-rule="evenodd" clip-rule="evenodd" d="M198.232 33.7208C187.663 32.8324 161.662 36.7339 142.212 59.4466C132.749 69.726 127.364 74.0771 104.902 68.9102C82.5436 63.7673 76.0274 65.6293 70.3359 67.2558L70.2561 67.2785C64.5453 68.9102 59.1609 74.2946 60.7925 78.6457C59.5235 80.9844 57.3661 86.1513 58.889 88.1093C60.4118 90.0673 78.4506 95.5965 87.2798 98.1168C94.8757 98.9327 111.472 100.727 117.085 101.38C124.101 102.196 142.756 103.501 163.315 86.2057L167.122 83.8126V120.307C177.946 122.573 203.595 126.073 219.607 121.939L213.679 126.018C213.208 132.128 213.45 142.389 226.025 147.393C226.796 147.148 227.653 146.879 228.582 146.588C241.972 142.388 270.32 133.498 273.778 124.495C277.454 112.883 275.756 109.67 268.021 95.0319C267.857 94.7241 267.692 94.4108 267.523 94.0921C259.365 78.6457 243.103 49.1127 237.719 44.0002C232.334 38.8877 210.959 30.4574 198.232 33.7208ZM229.234 116.283V89.2515C233.023 92.9684 240.732 101.369 241.254 105.242C241.776 109.114 233.458 114.216 229.234 116.283Z" fill="#ED4546"/>
<path d="M142.213 59.4466C161.662 36.7339 187.663 32.8324 198.233 33.7208C210.96 30.4574 232.335 38.8877 237.719 44.0002C241.47 47.561 250.496 62.9681 258.387 77.2113L235.979 96.6483L232.28 92.5692L229.996 116.119L218.629 122.537C207.153 124.441 179.034 125.094 167.123 120.307V83.8126L163.316 86.2057C161.04 88.1202 158.787 89.8073 156.571 91.2911L142.213 59.4466Z" fill="#F07CF2"/>
<path d="M211.437 61.7854L212.994 65.7533L218.439 63.1189L214.937 68.2027L219.445 70.6129L214.244 71.2572L214.553 75.5118L211.437 72.6164L207.131 76.5791L208.628 71.2572L204.434 70.6129L207.935 68.2027L206.481 64.8045L209.878 65.7533L211.437 61.7854Z" fill="#DC34DF"/>
<path d="M167.558 79.516C166.729 73.5592 166.092 68.558 166.729 64.8311" stroke="black" stroke-width="2" stroke-linecap="round"/>
<path d="M231.083 90.1761C230.254 84.2195 229.618 79.2179 230.254 75.4912" stroke="black" stroke-width="2" stroke-linecap="round"/>
<path d="M227.494 79.5158C227.162 77.133 226.908 75.1326 227.162 73.6418" stroke="black" stroke-width="2" stroke-linecap="round"/>
<path d="M192.469 18.4544C194.749 18.4544 196.598 16.6055 196.598 14.3248C196.598 12.044 194.749 10.1951 192.469 10.1951C190.188 10.1951 188.339 12.044 188.339 14.3248C188.339 16.6055 190.188 18.4544 192.469 18.4544Z" fill="black"/>
<path d="M192.469 26.0687C194.749 26.0687 196.598 24.2198 196.598 21.939C196.598 19.6583 194.749 17.8093 192.469 17.8093C190.188 17.8093 188.339 19.6583 188.339 21.939C188.339 24.2198 190.188 26.0687 192.469 26.0687Z" fill="black"/>
<path d="M188.34 21.9388C190.62 21.9388 192.469 20.0899 192.469 17.8091C192.469 15.5284 190.62 13.6794 188.34 13.6794C186.059 13.6794 184.21 15.5284 184.21 17.8091C184.21 20.0899 186.059 21.9388 188.34 21.9388Z" fill="black"/>
<path d="M224.862 17.2286C224.862 26.7436 217.148 34.4571 207.632 34.4571C191.63 36.0058 190.404 26.7436 190.404 17.2286C190.404 7.7135 198.118 0 207.632 0C217.148 0 224.862 7.7135 224.862 17.2286Z" fill="#ED4546"/>
<path d="M207.632 0C200.825 0 194.94 3.94785 192.143 9.67899L224.697 14.8411C223.535 6.45592 216.338 0 207.632 0Z" fill="#F07CF2"/>
<path d="M224.023 14.7121L179.306 8.51758" stroke="black" stroke-width="2" stroke-linecap="round"/>
<path d="M215.827 35.9412L215.505 30.8436L199.566 30.1338L198.663 34.9088C202.792 43.4263 214.15 39.0384 215.827 35.9412Z" fill="#ED4546"/>
<path d="M223.829 21.9391C226.253 21.9391 228.217 19.9457 228.217 17.4867C228.217 15.0278 226.253 13.0344 223.829 13.0344C221.406 13.0344 219.441 15.0278 219.441 17.4867C219.441 19.9457 221.406 21.9391 223.829 21.9391Z" fill="black"/>
<path d="M228.281 21.9389C229.528 21.9389 230.539 20.8989 230.539 19.6159C230.539 18.333 229.528 17.293 228.281 17.293C227.034 17.293 226.022 18.333 226.022 19.6159C226.022 20.8989 227.034 21.9389 228.281 21.9389Z" fill="black"/>
<path d="M230.023 23.5521C230.023 26.4386 227.701 29.1891 224.797 29.6175C220.861 30.1982 217.505 26.2451 217.505 23.3584C217.505 20.4718 221.91 18.3254 224.797 18.3254C227.683 18.3254 230.023 20.6655 230.023 23.5521Z" fill="black"/>
<path d="M192.436 14.6929C194.839 15.0089 197.047 13.2887 197.367 10.8506L188.667 9.7063C188.346 12.1443 190.034 14.3769 192.436 14.6929Z" fill="black"/>
<path d="M198.077 14.0988C199.321 14.1912 200.407 13.2291 200.501 11.9497L195.997 11.6147C195.902 12.8941 196.833 14.0062 198.077 14.0988Z" fill="black"/>
<path d="M218.834 24.3933C220.566 24.9627 222.531 23.7187 223.223 21.6148C223.914 19.5109 223.07 17.3438 221.337 16.7744C219.605 16.205 217.64 17.449 216.948 19.5529C216.257 21.6568 217.101 23.8239 218.834 24.3933Z" fill="#D7090A"/>
<path d="M217.828 20.584C218.409 19.6161 220.022 18.4547 221.506 18.7128" stroke="black" stroke-width="2" stroke-linecap="round"/>
<path d="M220.56 18.8596C220.735 19.1292 221.103 20.0164 221.16 20.621" stroke="black" stroke-width="2" stroke-linecap="round"/>
<path d="M199.953 24.7791L203.647 19.3208L204.709 25.6067L199.953 24.7791Z" fill="#D7090A"/>
<path d="M203.258 19.7146L199.919 24.463L204.394 25.1556" stroke="black" stroke-width="2" stroke-linecap="round"/>
<path d="M202.599 28.4561C203.18 28.4776 204.638 28.3787 205.825 27.8108" stroke="black" stroke-width="2" stroke-linecap="round"/>
<path d="M207.311 14.8437C207.891 14.8222 209.349 14.9212 210.537 15.489" stroke="black" stroke-width="2" stroke-linecap="round"/>
<path d="M198.146 15.1018C197.565 15.0803 196.108 15.1792 194.92 15.7471" stroke="black" stroke-width="2" stroke-linecap="round"/>
<path d="M203.567 33.9408C204.987 34.1988 207.504 34.3925 209.439 32.7793" stroke="black" stroke-width="2" stroke-linecap="round"/>
<path d="M197.566 20.003C198.172 20.003 198.663 19.5119 198.663 18.906C198.663 18.3002 198.172 17.8091 197.566 17.8091C196.96 17.8091 196.469 18.3002 196.469 18.906C196.469 19.5119 196.96 20.003 197.566 20.003Z" fill="black"/>
<path d="M208.407 20.003C209.012 20.003 209.503 19.5119 209.503 18.906C209.503 18.3002 209.012 17.8091 208.407 17.8091C207.801 17.8091 207.31 18.3002 207.31 18.906C207.31 19.5119 207.801 20.003 208.407 20.003Z" fill="black"/>
<path d="M209.883 26.1817C211.09 26.1817 212.069 25.2031 212.069 23.9959C212.069 22.7887 211.09 21.8101 209.883 21.8101C208.676 21.8101 207.697 22.7887 207.697 23.9959C207.697 25.2031 208.676 26.1817 209.883 26.1817Z" fill="#D7090A"/>
<path d="M195.816 25.0201C197.023 25.0201 198.002 24.0415 198.002 22.8343C198.002 21.6271 197.023 20.6484 195.816 20.6484C194.609 20.6484 193.63 21.6271 193.63 22.8343C193.63 24.0415 194.609 25.0201 195.816 25.0201Z" fill="#D7090A"/>
<path d="M70.2023 115.304C81.3764 115.304 90.4348 106.245 90.4348 95.0712C90.4348 83.897 81.3764 74.8386 70.2023 74.8386C59.0281 74.8386 49.9697 83.897 49.9697 95.0712C49.9697 106.245 59.0281 115.304 70.2023 115.304Z" fill="#FFDC4D"/>
<path d="M86.1928 142.172C77.3015 142.172 70.0938 149.379 70.0938 158.271H102.292C102.292 149.379 95.0842 142.172 86.1928 142.172Z" fill="#FFDC4D"/>
<path d="M70.2722 68.7471C67.5166 71.3215 66.0952 75.9699 82.4553 73.9684" stroke="black" stroke-width="2" stroke-linecap="round"/>
<path d="M185.723 228.704L205.52 199.28" stroke="white" stroke-width="2" stroke-linecap="round"/>
<path d="M170.549 178.177L192.685 143.586" stroke="white" stroke-width="2" stroke-linecap="round"/>
<path d="M62.0439 100.153C63.1166 94.6926 68.0376 84.5959 69.5197 87.7331C71.3723 91.6556 70.6572 102.884 68.1545 103.536C65.6518 104.19 69.2921 87.8103 72.4125 88.9644C74.9087 89.8868 73.4525 94.6806 72.4125 96.9617C72.7808 93.8855 73.2541 89.579 78.3605 86.6953" stroke="black" stroke-width="2" stroke-linecap="round"/>
</svg>
