<svg width="222" height="220" viewBox="0 0 222 220" fill="none" xmlns="http://www.w3.org/2000/svg">
<path d="M219.282 94.7625H143.449L140.991 150.75L174.394 149.777L204.096 148.91L219.268 148.47V94.7625H219.282Z" fill="#D1EAFF"/>
<path d="M21.7598 170.617H34.5965L35.0062 114.629L29.3526 115.603L24.3271 116.469L21.7598 116.923V170.617Z" fill="#D1EAFF"/>
<path d="M41.6846 170.617H54.5213L54.931 136.723L49.2774 137.31L44.2519 137.83L41.6846 138.097V170.617Z" fill="#D1EAFF"/>
<path d="M81.5479 170.617H94.3846L94.7943 153.71L89.1407 154.004L84.1152 154.27L81.5479 154.404V170.617Z" fill="#D1EAFF"/>
<path d="M61.6221 170.617H74.4588L74.8685 123.536L69.2149 124.35L64.1894 125.083L61.6221 125.456V170.617Z" fill="#D1EAFF"/>
<path d="M202.717 181.671L206.172 190.204L218.244 184.538L210.488 195.471L220.484 200.658L208.958 202.045L209.641 211.192L202.731 204.965L193.185 213.485L196.504 202.031L187.204 200.645L194.961 195.458L191.738 188.151L199.262 190.191L202.717 181.671Z" fill="black"/>
<path d="M204.233 182.991L207.688 191.524L219.76 185.858L212.003 196.791L222 201.978L210.474 203.365L211.157 212.512L204.247 206.285L194.701 214.805L198.02 203.351L188.72 201.965L196.476 196.778L193.254 189.471L200.778 191.511L204.233 182.991Z" fill="#FFDC4D"/>
<path d="M50.043 42.4941L52.6786 49.001L61.8692 44.6809L55.9561 53.0144L63.5625 56.9611L54.7817 58.0145L55.3006 64.988L50.043 60.2412L42.7779 66.7347L45.3043 58.0145L38.2305 56.9611L44.1436 53.0144L41.6855 47.4409L47.421 49.001L50.043 42.4941Z" fill="#FFDC4D"/>
<path d="M164.398 65.2415C167.198 51.3212 180.089 25.6006 183.968 33.5875C188.816 43.5744 186.945 72.1884 180.39 73.8551C173.835 75.5218 183.367 33.7875 191.547 36.7209C198.088 39.0676 194.264 51.2812 191.547 57.0947C192.516 49.2545 193.745 38.2809 207.128 30.9341" stroke="#FFDC4D" stroke-width="2" stroke-linecap="round"/>
<path d="M59.6838 117.323C58.5231 111.576 53.2381 100.962 51.6404 104.269C49.6466 108.389 50.4113 120.203 53.1152 120.883C55.8055 121.576 51.8862 104.349 48.5268 105.562C45.8365 106.536 47.407 111.576 48.5268 113.976C48.1308 110.736 47.6255 106.216 42.1221 103.176" stroke="black" stroke-width="2" stroke-linecap="round"/>
<path d="M31.1289 72.0551V8.14697H118.446V22.7873H152.313V69.535" stroke="#FFDC4D" stroke-width="2"/>
<path d="M24.6554 199.378C24.6554 203.004 23.8223 210.085 20.1079 210.085C16.3934 210.085 11.2041 203.004 11.2041 199.378C11.2041 195.751 14.2221 192.804 17.9366 192.804C21.651 192.804 24.6554 195.738 24.6554 199.378Z" fill="black"/>
<path d="M43.4054 199.378C43.4054 203.004 42.5723 210.085 38.8579 210.085C35.1434 210.085 29.9541 203.004 29.9541 199.378C29.9541 195.751 32.9721 192.804 36.6866 192.804C40.401 192.804 43.4054 195.738 43.4054 199.378Z" fill="black"/>
<path d="M62.128 199.378C62.128 203.004 61.295 210.085 57.5805 210.085C53.8661 210.085 48.6768 203.004 48.6768 199.378C48.6768 195.751 51.6948 192.804 55.4092 192.804C59.1237 192.804 62.128 195.738 62.128 199.378Z" fill="black"/>
<path d="M193.527 54.9613C193.527 56.6546 193.131 59.9747 191.383 59.9747C189.635 59.9747 187.19 56.668 187.19 54.9613C187.19 53.2546 188.611 51.8945 190.359 51.8945C192.107 51.8945 193.527 53.2679 193.527 54.9613Z" fill="black"/>
<path d="M201.025 56.948C201.025 58.2414 200.724 60.7614 199.4 60.7614C198.075 60.7614 196.231 58.2414 196.231 56.948C196.231 55.6547 197.31 54.6013 198.635 54.6013C199.96 54.6013 201.025 55.6547 201.025 56.948Z" fill="black"/>
<path d="M194.346 65.1219C194.346 66.4152 194.046 68.9353 192.721 68.9353C191.396 68.9353 189.553 66.4152 189.553 65.1219C189.553 63.8285 190.632 62.7751 191.956 62.7751C193.281 62.7751 194.346 63.8285 194.346 65.1219Z" fill="black"/>
<path d="M201.037 65.1219C201.037 66.4152 200.737 68.9353 199.412 68.9353C198.088 68.9353 196.244 66.4152 196.244 65.1219C196.244 63.8285 197.323 62.7751 198.648 62.7751C199.959 62.7751 201.037 63.8285 201.037 65.1219Z" fill="black"/>
<path d="M207.702 65.1219C207.702 66.4152 207.402 68.9353 206.077 68.9353C204.753 68.9353 202.909 66.4152 202.909 65.1219C202.909 63.8285 203.988 62.7751 205.313 62.7751C206.637 62.7751 207.702 63.8285 207.702 65.1219Z" fill="black"/>
<path d="M194.442 73.2818C194.442 74.5751 194.141 77.0952 192.817 77.0952C191.492 77.0952 189.648 74.5751 189.648 73.2818C189.648 71.9884 190.727 70.9351 192.052 70.9351C193.363 70.9351 194.442 71.9884 194.442 73.2818Z" fill="black"/>
<path d="M211.512 75.6685C211.512 78.2819 210.911 83.3887 208.221 83.3887C205.545 83.3887 201.803 78.2819 201.803 75.6685C201.803 73.0551 203.974 70.9351 206.664 70.9351C209.341 70.9351 211.512 73.0551 211.512 75.6685Z" fill="black"/>
<path d="M88.2247 172.577H101.335L125.219 171.751V70.9751H5.86468L2 176.044L42.5859 174.631" stroke="black" stroke-width="2"/>
<path d="M92.2803 59.2017H131.227H92.2803ZM92.2803 52.3882H116.766H92.2803Z" stroke="black" stroke-width="2" stroke-linecap="round"/>
<path d="M5.85068 70.9751H125.205V91.8422H5.08594L5.85068 70.9751Z" fill="black"/>
<path d="M15.2471 86.7355C18.0466 86.7355 20.3271 84.3488 20.3271 81.4021C20.3271 78.4553 18.0466 76.0686 15.2471 76.0686C12.4476 76.0686 10.167 78.4553 10.167 81.4021C10.167 84.3488 12.4476 86.7355 15.2471 86.7355Z" fill="white"/>
<path d="M28.4521 86.7355C31.2516 86.7355 33.5322 84.3488 33.5322 81.4021C33.5322 78.4553 31.2516 76.0686 28.4521 76.0686C25.6526 76.0686 23.3721 78.4553 23.3721 81.4021C23.3721 84.3488 25.6526 86.7355 28.4521 86.7355Z" fill="white"/>
<path d="M41.6572 86.7355C44.4567 86.7355 46.7373 84.3488 46.7373 81.4021C46.7373 78.4553 44.4567 76.0686 41.6572 76.0686C38.8577 76.0686 36.5771 78.4553 36.5771 81.4021C36.5771 84.3488 38.8577 86.7355 41.6572 86.7355Z" fill="white"/>
<path d="M115.686 106.429L69.8154 107.736L73.1885 32.6809H177.316V104.669L156.477 105.269" stroke="black" stroke-width="2"/>
<path d="M177.318 32.6809H73.1904V41.4145H177.318V32.6809Z" fill="black"/>
<path d="M149.883 143.924L104.012 144.897L107.385 88.9089H211.513V142.603L190.687 143.057" stroke="black" stroke-width="2"/>
<path d="M112.068 140.363H146.045H112.068ZM112.068 136.737H133.427H112.068Z" stroke="black" stroke-width="2" stroke-linecap="round"/>
<path d="M211.512 88.9089H107.384V99.2958H211.512V88.9089Z" fill="black"/>
<path d="M88.388 170.911C88.388 178.298 85.3836 183.444 80.7952 186.764C76.1931 190.098 69.9659 191.605 63.5065 191.605C57.0472 191.605 51.7077 190.098 47.9932 186.791C44.2787 183.498 42.0938 178.351 42.0938 170.911C42.0938 156.03 52.527 144.11 65.2272 144.11C77.9547 144.11 88.388 156.03 88.388 170.911Z" fill="black"/>
<path d="M58.7418 179.177L59.6705 172.937H56.748V169.737H60.2167L60.7903 165.804H57.7859V162.604H61.2819L62.2105 156.537H65.3514L64.4637 162.604H67.7412L68.6289 156.537H71.8107L70.9231 162.604H73.7772V165.804H70.3768L69.8442 169.737H72.7667V172.937H69.2707L68.383 179.177H65.1739L66.1025 172.937H62.8523L61.9647 179.177H58.7418ZM66.6624 169.737L67.195 165.804H63.9448L63.3713 169.737H66.6624Z" fill="white"/>
<path d="M88.6754 171.191L100.01 173.844C104.557 182.164 101.867 187.244 101.471 194.698C93.1955 194.191 72.4929 192.684 70.0621 190.391C67.604 188.058 70.3352 187.191 71.851 187.151L68.0273 186.124C66.9758 185.884 64.8454 185.044 64.6952 183.551C64.5587 182.058 67.4401 182.004 68.915 182.164C61.4041 180.791 63.6164 177.284 65.5009 177.191C66.4296 177.137 70.1713 177.604 71.933 177.871C71.2775 177.684 69.7753 177.111 69.0379 176.257C68.1093 175.191 68.5736 174.177 69.9801 173.631C71.1819 173.164 80.4954 173.857 83.3085 174.124C85.5618 174.337 87.856 172.257 88.6754 171.191Z" fill="#ED4546"/>
<path d="M72.3701 177.857L82.38 178.817" stroke="black" stroke-width="2" stroke-linecap="round"/>
<path d="M70.1162 182.471L80.1261 183.431" stroke="black" stroke-width="2" stroke-linecap="round"/>
<path d="M72.834 187.738L82.8439 188.698" stroke="black" stroke-width="2" stroke-linecap="round"/>
<path d="M51.5178 52.4279C66.3455 52.4279 78.3657 40.6915 78.3657 26.2139C78.3657 11.7364 66.3455 0 51.5178 0C36.6901 0 24.6699 11.7364 24.6699 26.2139C24.6699 40.6915 36.6901 52.4279 51.5178 52.4279Z" fill="#D1EAFF"/>
<path d="M65.8147 22.307C65.6918 23.0404 65.5689 23.7604 65.405 24.6404C65.924 25.0804 66.4156 25.7471 66.3746 26.7071C66.3337 27.6138 65.883 28.2938 65.2002 28.8539C66.4293 30.5339 66.279 32.0273 64.7905 33.0273C64.5993 33.1473 64.3945 33.2406 64.1897 33.334C60.68 34.734 57.1704 36.1607 53.6335 37.5207C53.019 37.7607 52.2542 37.7607 51.5714 37.7074C50.8067 37.6407 50.2604 37.1474 49.96 36.4407C48.731 33.494 47.5019 30.5606 46.2865 27.6138C46.1773 27.3605 46.1636 27.0538 46.1909 26.7738C46.4777 23.7871 46.7918 20.8137 47.0649 17.8269C47.0922 17.4803 47.0103 17.0803 46.8464 16.7603C46.2182 15.5336 45.5627 14.3069 44.8799 13.1068C44.6751 12.7468 44.7843 12.5602 45.0711 12.3335C46.6962 11.0001 48.8129 11.1601 50.3833 12.7735C51.4349 13.8402 52.0357 15.1602 52.4454 16.5602C52.7185 17.4936 52.9507 18.4403 53.2238 19.4536C53.4969 19.3603 53.7291 19.2936 53.9612 19.2003C55.9823 18.4003 58.0171 17.6269 60.0245 16.7736C61.5131 16.1336 62.7558 16.2936 63.8346 17.4936C63.9712 17.8269 64.1077 18.1469 64.2443 18.4803C64.1487 19.0936 64.0394 19.707 63.9438 20.3337C64.176 20.4537 64.4628 20.5737 64.7222 20.747C64.9817 20.9203 65.2002 21.1337 65.4324 21.3204C65.5416 21.6404 65.6782 21.9737 65.8147 22.307Z" fill="black"/>
<path d="M36.0723 30.5605C36.1405 30.0005 36.441 29.6671 37.0009 29.4538C38.8991 28.7204 40.7973 27.9471 42.6818 27.2004C43.4739 26.8804 43.9109 27.0537 44.2386 27.8404C45.7544 31.4538 47.2703 35.0672 48.7724 38.694C49.1002 39.4807 48.9363 39.8673 48.1169 40.2007C46.2461 40.9474 44.3615 41.6807 42.5043 42.4541C41.9854 42.6674 41.521 42.7074 41.0294 42.4274C39.377 38.4673 37.7247 34.5072 36.0723 30.5605ZM45.8227 39.6407C46.4372 39.414 46.7513 38.7073 46.4919 38.094C46.2461 37.5073 45.495 37.1873 44.9078 37.4406C44.3479 37.6673 44.0338 38.4006 44.2523 38.9473C44.4708 39.5473 45.2082 39.8673 45.8227 39.6407Z" fill="black"/>
<path d="M74.746 33.3344L83.1035 57.3749L66.5933 62.2017L60.2705 51.6015C66.6479 47.7614 69.8161 43.6279 71.25 41.2146C70.3077 37.5611 69.0514 34.0811 69.8981 30.7877C70.7857 27.3076 73.3121 29.6676 74.746 33.3344Z" fill="#ED4546"/>
<path d="M66.8522 60.0147C64.2849 61.6947 65.7871 63.4947 66.8522 64.1748C66.2241 64.1748 64.7355 64.7081 63.8479 66.8548C62.7554 69.5349 64.9404 71.0549 64.9404 78.1484C64.9404 85.2419 63.8479 98.1489 64.9404 107.949C66.0329 117.763 71.5636 122.949 78.3643 128.763C85.1651 134.576 90.3544 145.67 95.0384 151.07C98.7939 155.39 108.981 159.55 113.611 161.084C113.611 164.084 108.626 170.391 106.141 173.164C103.792 172.551 98.7802 172.177 97.5648 175.684C96.049 180.057 99.0806 181.751 99.0806 185.084C99.0806 188.418 97.3463 192.791 99.0806 194.444C100.46 195.764 103.628 195.978 105.035 195.924C105.704 197.111 108.613 198.484 109.978 199.018C109.978 204.551 120.835 212.751 125.765 214.272C132.606 216.378 171.868 227.178 187.668 212.165C203.454 197.164 198.77 154.617 195.356 136.056C192.625 121.216 183.967 110.002 179.993 106.256C179.283 105.149 177.276 102.549 174.886 101.056C161.885 92.7221 134.518 102.082 132.415 102.909C130.299 103.736 132.415 106.242 130.476 106.242C128.919 106.242 126.707 108.336 125.792 109.376C123.716 109.376 118.39 109.082 113.638 107.936C107.684 106.496 99.108 99.3622 95.0657 92.7221C91.0099 86.0819 89.2756 69.5482 87.8007 64.1481C86.3258 58.748 84.1682 59.988 83.54 56.8546C82.8982 53.7479 70.0614 57.908 66.8522 60.0147Z" fill="#4D95D0"/>
<path d="M125.206 111.296C124.537 113.749 123.226 121.403 123.39 132.283C123.553 143.163 119.484 153.643 117.436 157.51" stroke="black" stroke-width="2" stroke-linecap="round"/>
<path d="M118.828 198.698C121.833 197.712 131.365 197.912 140.323 198.698C149.282 199.485 163.798 193.258 166.379 190.165C168.96 187.071 195.603 156.777 193.227 136.937C191.165 119.59 182.507 111.563 166.379 119.656C162.856 121.39 154.908 128.31 151.262 142.164C146.701 159.484 146.66 170.204 139.108 170.938C131.556 171.684 120.481 168.004 115.128 170.524C109.638 172.458 107.712 174.631 106.265 181.991C104.817 189.351 104.339 195.005 105.541 196.672" stroke="black" stroke-width="2" stroke-linecap="round"/>
<path d="M98.8634 191.604C100.475 192.004 103.943 192.804 104.817 192.844L98.8634 191.604ZM98.0986 176.804C99.8466 176.444 103.793 175.884 105.609 176.511L98.0986 176.804ZM98.8634 180.884L105.159 182.164L98.8634 180.884ZM100.038 186.698L104.476 186.498L100.038 186.698Z" stroke="black" stroke-width="2" stroke-linecap="round"/>
<path d="M68.5733 60.1882C68.5187 61.1483 68.4368 63.215 68.546 63.695L68.5733 60.1882ZM79.5802 56.8682C80.1128 57.7615 81.1233 59.8149 80.9321 60.9349L79.5802 56.8682ZM76.6305 58.0815L76.6168 61.7883L76.6305 58.0815ZM72.438 59.8816L73.2574 62.2683L72.438 59.8816Z" stroke="black" stroke-width="2" stroke-linecap="round"/>
<path d="M133.058 108.949C134.423 111.349 137.578 116.656 139.312 118.643M177.317 107.962C172.374 109.842 161.831 114.256 159.209 116.829C155.918 120.043 147.383 124.123 146.072 123.469L177.317 107.962Z" stroke="black" stroke-width="2" stroke-linecap="round"/>
<path d="M170.298 105.243C169.451 105.603 167.458 106.549 166.201 107.469C164.644 108.629 163.074 110.403 162.022 111.309" stroke="black" stroke-width="2" stroke-linecap="round"/>
<path d="M136.35 104.576C136.527 104.776 136.964 105.296 137.224 105.816C137.551 106.456 137.893 107.443 138.125 107.949" stroke="black" stroke-width="2" stroke-linecap="round"/>
<path d="M161.394 105.243C159.823 107.856 155.836 113.79 152.531 116.656C149.226 119.523 147.574 120.296 147.164 120.323" stroke="black" stroke-width="2" stroke-linecap="round"/>
<path d="M169.397 86.8553C169.397 96.0555 161.75 103.522 152.327 103.522C149.118 103.522 144.871 104.149 142.317 102.642C137.346 99.7356 135.271 92.9354 135.271 86.8553C135.271 77.6551 142.918 70.1882 152.341 70.1882C161.75 70.1882 169.397 77.6551 169.397 86.8553Z" fill="#ED4546"/>
<path d="M154.717 68.2551C145.294 68.2551 131.16 59.7882 131.16 69.0017C131.16 72.4952 132.854 78.3086 135.462 84.1754C135.858 82.6954 136.827 79.562 137.538 78.9353C138.425 78.1486 142.904 84.3354 147.629 80.5487C152.354 76.7619 159.879 78.0286 159.237 79.9753C158.814 81.2687 155.646 92.0556 163.457 99.4958C167.089 96.4424 170.544 91.2423 170.544 86.2021C170.558 75.9619 169.397 68.2551 154.717 68.2551Z" fill="black"/>
<path d="M160.451 104.962L160.137 100.029L144.351 99.3354L143.45 103.949C143.45 109.882 142.985 119.149 145.73 119.403C150.1 119.829 159.441 106.802 160.451 104.962Z" fill="#ED4546"/>
<path d="M158.8 93.5622C160.52 94.1088 162.46 92.9088 163.142 90.8688C163.825 88.8287 162.992 86.7353 161.271 86.1887C159.551 85.642 157.612 86.842 156.929 88.8821C156.246 90.9221 157.079 93.0155 158.8 93.5622Z" fill="#D7090A"/>
<path d="M157.803 89.8822C158.376 88.9488 159.974 87.8288 161.449 88.0688" stroke="black" stroke-width="2" stroke-linecap="round"/>
<path d="M160.507 88.2153C160.684 88.482 161.039 89.3354 161.108 89.922" stroke="black" stroke-width="2" stroke-linecap="round"/>
<path d="M141.033 94.2423L144.693 88.9622L145.745 95.0423L141.033 94.2423Z" fill="#D7090A"/>
<path d="M144.311 89.3486L141.006 93.9354L145.444 94.6021" stroke="black" stroke-width="2" stroke-linecap="round"/>
<path d="M143.45 97.6157C144.024 97.6424 145.471 97.5357 146.646 96.989" stroke="black" stroke-width="2" stroke-linecap="round"/>
<path d="M147.848 84.1353C148.421 84.1087 149.869 84.2153 151.043 84.762" stroke="black" stroke-width="2" stroke-linecap="round"/>
<path d="M140.487 84.5489C139.913 84.5222 138.465 84.6289 137.291 85.1756" stroke="black" stroke-width="2" stroke-linecap="round"/>
<path d="M148.175 103.723C149.581 103.976 152.08 104.163 153.992 102.603" stroke="black" stroke-width="2" stroke-linecap="round"/>
<path d="M139.899 89.2821C140.5 89.2821 140.992 88.802 140.992 88.2154C140.992 87.6287 140.5 87.1487 139.899 87.1487C139.298 87.1487 138.807 87.6287 138.807 88.2154C138.807 88.802 139.298 89.2821 139.899 89.2821Z" fill="black"/>
<path d="M148.925 89.1221C149.526 89.1221 150.018 88.6421 150.018 88.0555C150.018 87.4688 149.526 86.9888 148.925 86.9888C148.325 86.9888 147.833 87.4688 147.833 88.0555C147.847 88.6421 148.325 89.1221 148.925 89.1221Z" fill="black"/>
<path d="M149.418 94.3756C150.62 94.3756 151.59 93.4289 151.59 92.2556C151.59 91.0822 150.62 90.1355 149.418 90.1355C148.217 90.1355 147.247 91.0822 147.247 92.2556C147.247 93.4289 148.217 94.3756 149.418 94.3756Z" fill="#D7090A"/>
<path d="M138.357 93.962C139.559 93.962 140.528 93.0153 140.528 91.842C140.528 90.6686 139.559 89.7219 138.357 89.7219C137.155 89.7219 136.186 90.6686 136.186 91.842C136.186 93.0153 137.155 93.962 138.357 93.962Z" fill="#D7090A"/>
</svg>
