<svg width="324" height="316" viewBox="0 0 324 316" fill="none" xmlns="http://www.w3.org/2000/svg">
<path d="M51.8017 102.235C28.7791 86.7062 13.2578 104.029 8.375 114.633C14.0356 118.018 26.6199 124.094 36.2126 120.176C45.8054 116.257 50.9807 106.489 51.8017 102.235Z" fill="#F6F6F7"/>
<path d="M31.7265 118.989C37.3831 118.989 41.9687 114.22 41.9687 108.338C41.9687 102.455 37.3831 97.6858 31.7265 97.6858C26.0699 97.6858 21.4844 102.455 21.4844 108.338C21.4844 114.22 26.0699 118.989 31.7265 118.989Z" fill="#242938"/>
<path d="M8.37435 110.796L1 106.699" stroke="#242938" stroke-width="2" stroke-linecap="round"/>
<path d="M13.2903 103.422L7.55469 98.5054" stroke="#242938" stroke-width="2" stroke-linecap="round"/>
<path d="M21.4836 97.6859L15.748 90.3115" stroke="#242938" stroke-width="2" stroke-linecap="round"/>
<path d="M31.3164 93.5889V86.2146" stroke="#242938" stroke-width="2" stroke-linecap="round"/>
<path d="M43.6074 96.047L46.0655 87.8533" stroke="#242938" stroke-width="2" stroke-linecap="round"/>
<path d="M51.8008 100.144L55.8976 92.7695" stroke="#242938" stroke-width="2" stroke-linecap="round"/>
<path d="M300.89 221.206C293.444 205.081 279.216 209.738 273.031 214.083C275.005 217.806 279.874 225.273 286.419 226.187C292.964 227.101 299.031 223.317 300.89 221.206Z" fill="#F6F6F7"/>
<path d="M284.675 224.112C287.88 226.011 292.017 224.951 293.916 221.746C295.814 218.541 294.754 214.404 291.549 212.506C288.344 210.607 284.207 211.667 282.309 214.872C280.411 218.077 281.47 222.214 284.675 224.112Z" fill="#242938"/>
<path d="M275.49 211.579L272.213 207.482" stroke="#242938" stroke-width="2" stroke-linecap="round"/>
<path d="M279.587 209.12L278.768 205.023" stroke="#242938" stroke-width="2" stroke-linecap="round"/>
<path d="M286.961 209.121V204.204" stroke="#242938" stroke-width="2" stroke-linecap="round"/>
<path d="M292.697 210.759L295.155 205.843" stroke="#242938" stroke-width="2" stroke-linecap="round"/>
<path d="M299.25 215.675L302.527 211.579" stroke="#242938" stroke-width="2" stroke-linecap="round"/>
<path d="M301.711 219.772L307.447 218.134" stroke="#242938" stroke-width="2" stroke-linecap="round"/>
<path d="M222.229 12.9833C216.973 1.69526 206.929 4.95603 202.564 7.99743C203.957 10.6039 207.394 15.8305 212.015 16.4702C216.634 17.11 220.917 14.4609 222.229 12.9833Z" fill="#587291"/>
<path d="M210.418 15.0186C212.651 16.3408 215.532 15.6029 216.854 13.3704C218.177 11.1379 217.439 8.25622 215.206 6.93396C212.974 5.6117 210.092 6.34959 208.77 8.5821C207.448 10.8146 208.186 13.6963 210.418 15.0186Z" fill="#242938"/>
<path d="M203.385 6.73549L201.746 3.45801" stroke="#242938" stroke-width="2" stroke-linecap="round"/>
<path d="M206.663 5.09682L205.844 1.81934" stroke="#242938" stroke-width="2" stroke-linecap="round"/>
<path d="M212.397 4.27749L211.578 1" stroke="#242938" stroke-width="2" stroke-linecap="round"/>
<path d="M216.494 5.09703L217.314 2.63892" stroke="#242938" stroke-width="2" stroke-linecap="round"/>
<path d="M220.592 9.19371L223.05 6.7356" stroke="#242938" stroke-width="2" stroke-linecap="round"/>
<path d="M223.051 12.4712L226.328 11.6519" stroke="#242938" stroke-width="2" stroke-linecap="round"/>
<path d="M46.4747 9.1936L58.3555 15.7485V28.8584L46.4747 35.4135L34.5938 28.8584V15.7485L46.4747 9.1936Z" fill="#F6F6F7"/>
<path d="M32.1367 14.1312L47.2951 5.91626L62.4535 14.1312V30.4762L47.2951 38.6911L32.1367 30.4762V14.1312Z" stroke="#242938" stroke-width="2"/>
<path d="M41.9688 19.4557L47.2947 16.5681L52.6206 19.4557V25.1518L47.2947 28.0393L41.9688 25.1518V19.4557Z" stroke="#242938" stroke-width="2"/>
<path d="M46.8867 14.9293V11.6519" stroke="#242938" stroke-width="2" stroke-linecap="round"/>
<path d="M46.8867 34.5942V29.678" stroke="#242938" stroke-width="2" stroke-linecap="round"/>
<path d="M35.4141 28.0394L40.3303 25.5813" stroke="#242938" stroke-width="2" stroke-linecap="round"/>
<path d="M53.4414 18.2069L58.3576 15.7488" stroke="#242938" stroke-width="2" stroke-linecap="round"/>
<path d="M40.3303 18.2069L35.4141 15.7488" stroke="#242938" stroke-width="2" stroke-linecap="round"/>
<path d="M58.3566 28.0391L54.2598 26.4004" stroke="#242938" stroke-width="2" stroke-linecap="round"/>
<path d="M28.8578 162.416L37.0515 167.128V176.55L28.8578 181.262L20.6641 176.55V167.128L28.8578 162.416Z" fill="#F6F6F7"/>
<path d="M19.0254 165.697L28.4482 159.958L37.8709 165.697V177.162L28.4482 182.9L19.0254 177.162V165.697Z" stroke="#242938" stroke-width="2"/>
<path d="M24.7617 169.18L28.4489 167.333L32.1361 169.18V172.86L28.4489 174.707L24.7617 172.86V169.18Z" stroke="#242938" stroke-width="2"/>
<path d="M28.8594 165.694V162.416" stroke="#242938" stroke-width="2" stroke-linecap="round"/>
<path d="M28.8594 179.623V176.346" stroke="#242938" stroke-width="2" stroke-linecap="round"/>
<path d="M21.4844 175.526L23.1231 174.707" stroke="#242938" stroke-width="2" stroke-linecap="round"/>
<path d="M32.9551 168.152L35.4132 166.513" stroke="#242938" stroke-width="2" stroke-linecap="round"/>
<path d="M23.1231 168.152L21.4844 166.513" stroke="#242938" stroke-width="2" stroke-linecap="round"/>
<path d="M36.2326 175.526L32.9551 174.707" stroke="#242938" stroke-width="2" stroke-linecap="round"/>
<path d="M217.314 57.9431L277.502 45.2461L279.587 54.8069L219.671 67.3691L217.314 57.9431Z" fill="#242938"/>
<path d="M182.082 108.338C202.898 108.338 219.773 91.6463 219.773 71.0563C219.773 50.4664 202.898 33.7749 182.082 33.7749C161.266 33.7749 144.391 50.4664 144.391 71.0563C144.391 91.6463 161.266 108.338 182.082 108.338Z" stroke="#242938" stroke-width="2"/>
<path d="M182.082 103.422C200.183 103.422 214.857 88.6869 214.857 70.511C214.857 59.8901 209.846 50.4443 202.07 44.4268L182.082 103.422Z" fill="#F6F6F7"/>
<path d="M171.431 39.5105C158.989 44.2245 150.127 56.4346 150.127 70.7544C150.127 75.685 151.177 80.3655 153.064 84.5759L171.431 39.5105Z" fill="#F6F6F7"/>
<path d="M160.777 95.0104L182.245 37.8718C188.152 37.8718 193.691 39.4463 198.468 42.1991L176.569 102.602C170.583 101.549 165.16 98.8592 160.777 95.0104Z" fill="#F6F6F7"/>
<path d="M123.906 42.7881L140.292 52.4156V71.671L123.906 81.2986L107.518 71.671V52.4156L123.906 42.7881Z" fill="#F6F6F7"/>
<path d="M105.879 50.3598L123.906 39.5105L141.931 50.3598V72.0879L123.906 82.9372L105.879 72.0879V50.3598Z" stroke="#242938" stroke-width="2"/>
<path d="M116.531 57.7344L123.906 53.4399L131.28 57.7344V66.3523L123.906 70.6467L116.531 66.3523V57.7344Z" stroke="#242938" stroke-width="2"/>
<path d="M123.086 50.1624V44.4268" stroke="#242938" stroke-width="2" stroke-linecap="round"/>
<path d="M123.086 78.8403V73.9241" stroke="#242938" stroke-width="2" stroke-linecap="round"/>
<path d="M109.158 70.6466L114.894 67.3691" stroke="#242938" stroke-width="2" stroke-linecap="round"/>
<path d="M132.92 56.7174L138.656 53.4399" stroke="#242938" stroke-width="2" stroke-linecap="round"/>
<path d="M114.894 56.7174L109.158 53.4399" stroke="#242938" stroke-width="2" stroke-linecap="round"/>
<path d="M139.474 70.6466L133.738 67.3691" stroke="#242938" stroke-width="2" stroke-linecap="round"/>
<path d="M97.7748 92.9852L106.413 108.461L83.4195 118.99C77.5159 105.268 65.8827 76.5961 66.5787 71.6743C67.2747 66.7526 71.0944 63.1966 72.7309 63.2388C72.7309 62.1606 73.7252 58.9758 75.7759 57.5306C78.3859 55.6912 81.493 55.6278 82.798 56.3255C85.5323 48.0168 93.8595 51.4841 95.6616 53.0274C106.413 50.5538 112.565 55.1838 114.056 57.4671C115.548 59.7504 111.819 61.9703 111.073 61.5898C110.328 61.2092 105.046 59.8773 101.814 60.7652C96.532 62.2874 96.9048 68.3128 98.3963 71.6743C99.8877 75.0359 102.933 73.1965 107.842 71.6743C112.751 70.1521 117.35 67.8683 117.35 71.6743C117.35 73.8308 112.192 81.8574 103.678 84.4228C98.4584 85.9957 96.9459 91.5264 97.7748 92.9852Z" fill="#D58B8B"/>
<path d="M266.578 41.7409L289.421 85.9047L264.005 98.5053C261.181 92.5963 254.831 80.1356 252.019 77.5661C248.505 74.3542 245.618 73.3041 242.355 71.8835C239.092 70.4628 228.361 69.6598 228.8 67.6215C229.239 65.5831 231.499 64.7184 234.134 63.6683C236.243 62.8283 241.079 63.3184 243.234 63.6683L239.092 54.7738C238.547 53.0032 237.787 49.2271 239.092 48.2882C241.539 46.5279 243.065 47.8971 244.238 48.2882C243.944 47.8147 243.811 46.4846 245.618 44.9527C247.426 43.4209 249.635 44.3145 250.513 44.9527C250.262 44.4175 250.641 42.1437 252.647 41.185C254.843 40.135 256.704 41.2055 257.918 41.7409C257.624 41.3086 257.567 39.4432 260.177 38.1584C262.788 36.8736 265.574 40.2379 266.578 41.7409Z" fill="#D58B8B"/>
<path d="M97.6858 53.4399C95.0501 53.7249 91.1309 56.1189 91.1309 59.9949" stroke="#242938" stroke-width="2" stroke-linecap="round"/>
<path d="M258.283 42.7881L260.741 46.0656" stroke="#242938" stroke-width="2" stroke-linecap="round"/>
<path d="M251.727 46.0654L254.185 50.1623" stroke="#242938" stroke-width="2" stroke-linecap="round"/>
<path d="M245.992 49.3428L247.631 53.4396" stroke="#242938" stroke-width="2" stroke-linecap="round"/>
<path d="M84.5753 55.0784C84.2075 55.3048 82.4735 57.3848 82.1172 59.9946" stroke="#242938" stroke-width="2" stroke-linecap="round"/>
<path d="M74.7433 59.9946C74.3755 60.3343 72.6415 63.4543 72.2852 67.369" stroke="#242938" stroke-width="2" stroke-linecap="round"/>
<path d="M79.1131 277.233L162.529 202.565H251.48L222.182 279.329C231.102 276.331 242.896 278.157 251.729 281.487L244.637 312.361L200.535 311.452C184.611 311.156 182.994 299.368 184.175 293.51L194.999 238.512L131.8 279.329L139.762 281.44L131.8 311.635L83.654 309.726C61.0118 304.152 71.1925 285.741 79.1131 277.233Z" fill="#242938"/>
<path d="M163.441 227.014L86.2148 287.549L130.987 290.238M160.939 218.134C160.987 220.108 161.62 223.626 163.441 227.014L160.939 218.134ZM168.971 233.205C166.456 231.548 164.675 229.31 163.441 227.014L168.971 233.205Z" stroke="white" stroke-width="2" stroke-linecap="round"/>
<path d="M159.582 282.279L166.856 293.893M159.582 282.279C159.582 282.279 158.167 280.406 157.863 280.406C152.516 280.406 151.909 286.213 151.909 286.213L139.392 282.279L130.461 311.565L187.817 314C187.817 314 185.965 307.848 183.382 304.883C179.464 300.389 169.711 298.452 169.711 298.452L166.856 293.893L159.582 282.279ZM159.582 282.279H172.081L175.058 293.893H166.856L159.582 282.279Z" stroke="#242938" stroke-width="2"/>
<path d="M272.001 282.279L279.444 293.893M272.001 282.279C272.001 282.279 270.553 280.406 270.242 280.406C264.771 280.406 264.15 286.213 264.15 286.213L251.344 282.279L241.895 311.877L300.889 314C300.889 314 298.994 307.848 296.351 304.883C292.343 300.389 282.364 298.452 282.364 298.452L279.444 293.893L272.001 282.279ZM272.001 282.279H284.789L287.835 293.893H279.444L272.001 282.279Z" stroke="#242938" stroke-width="2"/>
<path d="M83.9462 116.952C76.1838 119.779 80.7119 132.222 83.9462 138.089V147.759L91.7211 160.9L99.4337 173.421C103.518 176.747 113.167 182.942 119.089 181.107C126.49 178.814 149.691 172.119 153.858 173.421C158.025 174.723 154.169 179.495 153.858 183.4C153.609 186.525 158.274 198.794 160.638 204.537C179.981 217.988 224.392 208.381 227.937 206.459C231.482 204.537 251.759 207.141 255.616 204.537C259.472 201.934 253.998 174.041 255.616 170.507C257.233 166.974 262.706 166.354 266.874 163.813C271.041 161.272 266.874 158.668 270.419 157.367C273.255 156.325 286.861 155.652 293.308 155.445C300.938 151.809 317.218 143.246 321.298 138.089C326.398 131.643 318.748 116.952 316.198 116.952C313.647 116.952 306.184 96.3732 303.633 95.1335C301.083 93.8938 297.476 85.1538 295.547 82.6124C293.619 80.071 282.983 88.0671 280.122 89.6788C277.261 91.2904 259.161 98.6666 262.706 100.216C265.543 101.456 266.666 107.18 266.874 109.886C266.127 110.63 265.082 112.502 266.874 114.039C268.665 115.576 272.555 118.977 274.275 120.485H262.706C254.434 118.337 236.284 114.622 229.865 116.952C223.446 119.283 212.801 115.981 208.282 114.039C197.186 125.097 187.632 120.588 183.776 116.952C182.905 118.44 179.459 121.229 176.374 120.485C172.518 119.556 161.571 121.105 149.691 126.25C137.811 131.395 137.126 129.101 131.964 129.101C126.801 129.101 127.423 134.928 126.49 132.015C125.557 129.101 122.634 126.56 121.328 123.647C120.022 120.733 117.782 116.952 115.543 116.952C113.304 116.952 112.309 109.576 109.386 106.663C106.462 103.749 93.6493 113.419 83.9462 116.952Z" fill="#587291"/>
<path d="M224.379 121.074C223.234 120.409 222.332 118.423 222.094 117.656C222.977 117.656 224.576 117.656 226.246 117.656C228.141 117.54 229.472 116.976 230.485 116.687C231.201 116.329 236.171 115.775 241.191 116.513C240.792 117.599 239.61 120.563 238.513 122.863C237.141 125.738 232.49 128.55 230.104 127.911C227.719 127.272 225.81 121.905 224.379 121.074Z" fill="#F6F6F7"/>
<path d="M180.009 120.093C183.426 129.366 187.818 149.142 178.47 152.559C173.208 154.481 169.47 147.01 162.393 142.035C156.897 138.17 150.284 138.736 148.79 134.682C147.436 131.01 146.226 128.509 147.235 127.017C151.148 125.325 154.513 124.004 160.16 121.94C169.508 118.524 178.264 117.638 180.009 120.093Z" fill="#F6F6F7"/>
<path d="M112.238 181.014C105.381 173.473 106.16 162.248 113.498 155.258C116.705 152.201 122.406 155.82 129.134 154.813C137.795 153.515 144.596 148.343 148.455 152.587C152.591 157.138 148.194 163.876 144.447 170.588C143.553 172.189 142.886 173.838 142.259 175.425C135.789 177.287 122.753 181.014 122.115 181.014C121.318 181.014 117.943 183.087 113.833 181.454L112.238 181.014Z" fill="#F6F6F7"/>
<path d="M246.8 184.567C247.023 179.902 244.218 175.382 242.958 169.753C241.042 161.188 239.592 152.065 233.318 151.781C222.661 151.297 223.952 161.534 218.41 169.753C214.104 176.137 209.394 177.719 209.149 182.86C208.586 194.62 216.558 204.534 226.956 205.006C237.352 205.477 246.237 196.327 246.8 184.567Z" fill="#F6F6F7"/>
<path d="M297.916 135.721C296.29 133.714 293.511 132.863 290.94 130.995C287.028 128.152 283.095 124.91 280.498 127.065C276.088 130.726 271.487 132.308 272.309 137.711C272.947 141.906 280.539 146.442 282.333 148.655C286.435 153.715 293.251 154.921 297.554 151.35C301.858 147.778 302.02 140.781 297.916 135.721Z" fill="#F6F6F7"/>
<path d="M294.436 105.247C297.081 110.381 306.111 108.773 310.18 107.169L309.257 104.861C308.069 101.844 304.876 95.7104 303.655 95.043C302.435 94.3756 300.326 90.847 299.563 89.6277C299.245 90.3763 298.823 93.0922 298.569 94.273C298.251 95.749 291.13 98.8293 294.436 105.247Z" fill="#F6F6F7"/>
<path d="M95.7053 141.796C89.9021 143.275 84.5652 139.014 82.6222 136.699C81.0679 134.252 79.8156 128.118 79.3838 125.357C79.319 123.19 79.864 118.19 82.6101 117.324C83.9829 116.412 91.8566 112.958 95.0734 111.323C99.3485 111.769 98.1669 122.171 97.0659 125.357C95.9644 128.543 102.96 139.949 95.7053 141.796Z" fill="#F6F6F7"/>
<path d="M254.666 202.554C255.699 199.96 257.458 194.419 256.217 193.008M164.556 204.56C164.017 202.007 159.728 196.437 161.018 191.914L164.556 204.56ZM173.678 207.175C173.14 203.04 172.388 194.419 173.678 193.008V207.175ZM184.166 209.12C184.166 203.608 184.166 192.972 184.166 194.528V209.12ZM197.509 209.12C198.025 207.215 198.75 202.189 197.509 197.325V209.12ZM211.1 207.175C211.74 205.938 213.074 202.724 213.272 199.757L211.1 207.175ZM226.615 194.528C226.759 198.744 226.652 207.175 225.063 207.175L226.615 194.528ZM236.855 204.56C238.778 202.736 242.676 198.48 242.874 196.048L236.855 204.56ZM246.225 202.554C248.066 200.386 251.749 195.744 251.749 194.528L246.225 202.554Z" stroke="#242938" stroke-width="2" stroke-linecap="round"/>
<path d="M104.584 157.5C103.962 156.357 102.916 153.734 103.705 152.389C104.69 150.708 120.976 134.853 126.364 134.558" stroke="#242938" stroke-width="2" stroke-linecap="round"/>
<path d="M275.571 121.297C274.442 120.51 285.193 116.91 291.725 120.679C301.175 126.132 306.922 127.819 308.263 130.461" stroke="#242938" stroke-width="2" stroke-linecap="round"/>
<path d="M104.773 109.311C105.997 108.824 108.917 109.214 110.796 114.672M84.8954 118.876C84.6545 120.46 84.3172 123.848 84.8954 124.725V118.876ZM89.3527 117.353L89.7743 122.349L89.3527 117.353ZM93.6895 115.404C94.3319 116.5 95.6772 118.876 95.9181 119.607L93.6895 115.404ZM99.0506 112.357C99.8939 113.271 101.833 115.55 102.845 117.353L99.0506 112.357Z" stroke="#242938" stroke-width="2" stroke-linecap="round"/>
<path d="M182.082 123.086C183.914 124.337 189.031 126.735 194.831 126.315C200.63 125.894 203.496 123.987 204.205 123.086" stroke="#242938" stroke-width="2" stroke-linecap="round"/>
<path d="M191.094 128.822C192.255 128.822 195.192 128.822 197.649 128.822" stroke="#242938" stroke-width="2" stroke-linecap="round"/>
<path d="M271.804 97.4309C270.726 98.1843 269.369 100.929 272.564 105.88M290.587 86.2146C291.961 86.9761 294.799 88.7575 295.155 89.7902L290.587 86.2146ZM286.86 89.1099L290.522 92.526L286.86 89.1099ZM282.87 91.641C283.36 92.863 284.451 95.4705 284.885 96.1244L282.87 91.641ZM277.439 94.3808C277.674 95.6635 278.349 98.7215 279.182 100.693L277.439 94.3808Z" stroke="#242938" stroke-width="2" stroke-linecap="round"/>
<path d="M164.874 92.7696C164.874 94.6552 164.317 96.3302 163.457 97.5132C162.593 98.7015 161.486 99.3245 160.368 99.3245C159.25 99.3245 158.143 98.7015 157.278 97.5132C156.418 96.3302 155.861 94.6552 155.861 92.7696C155.861 90.8841 156.418 89.209 157.278 88.026C158.143 86.8378 159.25 86.2146 160.368 86.2146C161.486 86.2146 162.593 86.8378 163.457 88.026C164.317 89.209 164.874 90.8841 164.874 92.7696Z" stroke="#242938" stroke-width="2"/>
<path d="M176.33 112.006L180.177 121.599C191.045 126.473 204.986 126.468 212.398 115.634C212.398 115.634 202.614 107.601 197.625 103.324C199.627 95.438 199.501 79.5058 182.988 78.8644C162.347 78.0624 157.989 97.5499 162.265 106.371C165.685 113.429 171.097 112.56 176.33 112.006Z" fill="#D58B8B"/>
<path d="M183.719 103.421C187.339 103.421 190.274 100.67 190.274 97.2761C190.274 93.8822 187.339 91.1309 183.719 91.1309C180.099 91.1309 177.164 93.8822 177.164 97.2761C177.164 100.67 180.099 103.421 183.719 103.421Z" fill="#AD5B5B"/>
<path d="M179.623 96.8665C180.46 96.5934 182.287 96.0471 182.901 96.0471" stroke="#242938" stroke-width="2" stroke-linecap="round"/>
<path d="M182.082 96.8665C182.6 97.4881 183.655 98.8501 183.721 99.3246" stroke="#242938" stroke-width="2" stroke-linecap="round"/>
<path d="M155.861 90.3115L179.623 91.1309" stroke="#242938" stroke-width="2"/>
<path d="M163.425 98.3277C164.123 98.4817 164.946 97.4392 165.264 95.9992C165.581 94.5593 165.273 93.2672 164.575 93.1132C163.877 92.9593 163.053 94.0018 162.736 95.4417C162.418 96.8817 162.727 98.1738 163.425 98.3277Z" fill="#AD5B5B"/>
<path d="M164.055 81.6226L176.711 90.7202L178.172 96.0812C178.388 94.9711 179.568 92.7996 182.553 92.9946C186.285 93.2382 187.34 99.0867 184.419 101.28C182.082 103.034 179.713 102.011 178.821 101.28L182.553 119.809L226.327 113.767C226.327 113.767 223.137 103.489 214.763 87.6336C206.391 71.7778 195.102 71.5503 190.504 73.4186C178.821 67.5051 168.003 76.424 164.055 81.6226Z" fill="#242938"/>
<path d="M215.196 63.5513C217.777 67.8624 216.389 73.4963 212.096 76.1348C207.804 78.7733 191.094 79.6596 191.094 79.6596C191.094 79.6596 198.459 63.161 202.752 60.5225C207.043 57.884 212.616 59.24 215.196 63.5513Z" fill="#242938"/>
</svg>
