<svg width="317" height="288" viewBox="0 0 317 288" fill="none" xmlns="http://www.w3.org/2000/svg">
<path d="M163.062 153.629H38.0508V231.4H163.062V153.629Z" fill="#D1EAFF"/>
<path d="M25.8281 212.537C25.8281 215.803 25.0951 222.146 21.8794 222.146C18.6637 222.146 14.1475 215.78 14.1475 212.537C14.1475 209.271 16.7721 206.644 19.9878 206.644C23.2035 206.644 25.8281 209.271 25.8281 212.537Z" fill="black"/>
<path d="M42.2608 212.537C42.2608 215.803 41.5278 222.146 38.2648 222.146C35.0018 222.146 30.4619 215.78 30.4619 212.537C30.4619 209.271 33.1102 206.644 36.3732 206.644C39.6362 206.644 42.2608 209.271 42.2608 212.537Z" fill="black"/>
<path d="M58.5752 212.537C58.5752 215.803 57.8422 222.146 54.6265 222.146C51.3871 222.146 46.8945 215.78 46.8945 212.537C46.8945 209.271 49.5191 206.644 52.7349 206.644C55.9506 206.644 58.5752 209.271 58.5752 212.537Z" fill="black"/>
<path d="M9.93848 54.3932H113.007C113.977 52.3105 114.166 47.506 107.309 44.9737C100.452 42.4413 94.7061 46.0387 92.6963 48.1451C92.0342 41.4236 87.8017 27.7203 76.0974 26.75C64.3931 25.7559 60.7281 35.5541 60.3498 40.5716C49.6149 24.1939 40.2278 36.6902 36.8702 44.9737C25.6625 40.6899 14.2419 49.4704 9.93848 54.3932Z" fill="#D1EAFF"/>
<path d="M274.716 82.0364H156.75C155.663 78.8413 155.426 71.4809 163.276 67.6231C171.127 63.7417 177.7 69.2325 180.017 72.4749C180.774 62.1797 185.621 41.2342 199.004 39.7195C212.387 38.2048 216.596 53.1861 217.022 60.878C229.317 35.8145 240.076 54.9375 243.906 67.6231C256.698 61.091 269.774 74.5102 274.716 82.0364Z" fill="#D1EAFF"/>
<path d="M83.7344 243.943L89.1727 92.2368H257.455V237.742L224.139 238.926H205.53H205.507H205.53L83.7344 243.943Z" stroke="black" stroke-width="2"/>
<path d="M211.607 76.735H265.92H211.607ZM211.607 70.6289H246.366H211.607Z" stroke="black" stroke-width="2" stroke-linecap="round"/>
<path d="M88.5818 91.6218H258.093V121.987H87.4941L88.5818 91.6218Z" fill="black"/>
<path d="M101.941 114.579C105.914 114.579 109.153 111.1 109.153 106.816C109.153 102.532 105.914 99.0532 101.941 99.0532C97.969 99.0532 94.7296 102.532 94.7296 106.816C94.706 111.1 97.9454 114.579 101.941 114.579Z" fill="white"/>
<path d="M120.691 114.579C124.664 114.579 127.903 111.1 127.903 106.816C127.903 102.532 124.664 99.0532 120.691 99.0532C116.719 99.0532 113.479 102.532 113.479 106.816C113.479 111.1 116.695 114.579 120.691 114.579Z" fill="white"/>
<path d="M139.443 114.579C143.416 114.579 146.655 111.1 146.655 106.816C146.655 102.532 143.416 99.0532 139.443 99.0532C135.471 99.0532 132.231 102.532 132.231 106.816C132.231 111.1 135.447 114.579 139.443 114.579Z" fill="white"/>
<path d="M11.4746 78.0843H44.1048H11.4746ZM11.4746 66.9844H61.7677H11.4746Z" stroke="black" stroke-width="2" stroke-linecap="round"/>
<path d="M51.0803 94.3198L50.8911 94.0831H50.6074H22.6589C10.6945 94.1068 1 84.4032 1 72.4276C1 60.4521 10.6945 50.7485 22.6589 50.7485H53.4448C65.4092 50.7485 75.1037 60.4521 75.1037 72.4276V78.9124C75.1037 87.2906 68.3176 94.1068 59.9235 94.1068H59.2142L59.3088 94.8168L60.893 106.319L51.0803 94.3198Z" stroke="black" stroke-width="2"/>
<path d="M121.046 21.8982L120.833 21.6378H120.478H108.916C103.217 21.6378 98.6064 17.0228 98.6064 11.319C98.6064 5.61519 103.217 1.00009 108.916 1.00009H124.261C129.96 0.976423 134.594 5.59152 134.594 11.2953V14.514C134.594 18.4428 131.402 21.6378 127.477 21.6378H126.626L126.744 22.4899L127.312 26.6553L121.046 21.8982Z" stroke="black" stroke-width="2"/>
<path d="M316 185.273C312.714 168.469 297.604 137.418 293.064 147.05C287.366 159.121 289.565 193.675 297.25 195.663C304.934 197.674 293.75 147.287 284.174 150.813C276.513 153.653 280.982 168.398 284.174 175.427C283.039 165.96 281.597 152.707 265.92 143.832" stroke="black" stroke-width="2" stroke-linecap="round"/>
<path d="M76.8535 268.818C75.1984 260.345 67.5847 244.654 65.2911 249.529C62.43 255.612 63.5413 273.054 67.3955 274.072C71.2733 275.09 65.6458 249.647 60.7985 251.446C56.9444 252.89 59.1907 260.321 60.7985 263.871C60.231 259.091 59.498 252.416 51.6006 247.943" stroke="black" stroke-width="2" stroke-linecap="round"/>
<path d="M243.504 168.28C232.556 154.505 235.819 134.507 205.388 118.65C198.531 115.076 191.485 112.614 184.651 111.052C184.651 111.052 177.534 120.306 167.32 118.105C159.54 116.425 155.402 110.058 155.402 110.058C150.508 111.052 144.384 112.614 139.087 115.62C129.937 120.827 129.062 126.791 124.853 129.773C120.644 132.755 111.683 138.009 106.528 133.702C101.373 129.394 105.369 125.939 110.571 114.934C115.773 103.929 120.62 93.1838 119.982 89.4917C119.367 85.7759 94.2798 76.4747 90.8513 77.5161C88.1085 78.3445 76.0495 97.0178 70.3747 106.248C62.8082 121.987 54.0595 156.777 79.478 169.96C104.896 183.143 126.295 174.977 133.814 169.226C135.304 178.125 144.1 222.785 148.238 239.494L220.143 238.003C221.254 239.494 224.02 242.736 228.773 244.535C235.394 247.068 241.258 245.032 242.771 244.464C245.537 237.127 248.871 226.122 249.675 212.443C250.503 198.692 254.452 182.054 243.504 168.28Z" fill="#FFDC4D"/>
<path d="M158.973 169.155L145.425 157.984L140.861 163.522L154.41 174.693L158.973 169.155Z" fill="#FFB84D"/>
<path d="M204.017 124.969L186.591 127.028L187.442 134.175L204.869 132.116L204.017 124.969Z" fill="#FFB84D"/>
<path d="M159.303 130.318L168.856 115.573L162.826 111.668L153.273 126.413L159.303 130.318Z" fill="#FFB84D"/>
<path d="M205.815 205.2L214.019 189.675L207.659 186.29L199.454 201.816L205.815 205.2Z" fill="#FFB84D"/>
<path d="M222.624 224.584L238.797 231.423L241.587 224.797L225.414 217.957L222.624 224.584Z" fill="#FFB84D"/>
<path d="M243.055 197.414L249.486 213.744L250.905 197.722L249.746 194.763L243.055 197.414Z" fill="#FFB84D"/>
<path d="M228.584 143.761L230.83 161.18L237.947 160.257L237.687 158.268C236.387 155.547 233.739 147.689 231.327 143.382L228.584 143.761Z" fill="#FFB84D"/>
<path d="M183.162 220.371L189.286 236.843L196.025 234.334L189.901 217.862L183.162 220.371Z" fill="#FFB84D"/>
<path d="M186.116 190.527L168.619 191.971L169.21 199.142L186.708 197.698L186.116 190.527Z" fill="#FFB84D"/>
<path d="M106.03 135.927L88.5322 137.37L89.1234 144.541L106.621 143.098L106.03 135.927Z" fill="#FFB84D"/>
<path d="M106.125 173.297L101.302 167.972L93.2861 175.214C95.3905 175.735 100.12 176.776 102.177 176.871L106.125 173.297Z" fill="#FFB84D"/>
<path d="M88.7474 98.0828L93.6183 92.805L84.7041 84.5925L80.5898 90.5567L88.7474 98.0828Z" fill="#FFB84D"/>
<path d="M117.689 92.2134L108.302 107.053L112.913 109.987C114.166 108.094 117.973 98.7455 119.533 93.3967L117.689 92.2134Z" fill="#FFB84D"/>
<path d="M70.517 147.713L64.4402 143.855L63.0215 146.08C63.3998 148.068 64.4165 153.038 65.7643 155.476L70.517 147.713Z" fill="#FFB84D"/>
<path d="M149.916 217.389L151.145 210.313L141.593 208.656L143.106 216.206L149.916 217.389Z" fill="#FFB84D"/>
<path d="M188.481 162.292C197.797 168.753 216.973 184.137 219.125 194.03C221.277 203.922 219.953 218.596 219.03 224.702M136.84 132.235C135.563 137.678 133.128 151.523 133.624 163.428" stroke="black" stroke-width="2" stroke-linecap="round"/>
<path d="M188.341 147.76C188.885 150.742 190.989 157.819 194.985 162.221" stroke="black" stroke-width="2" stroke-linecap="round"/>
<path d="M147.032 71.9544C137.811 76.4985 134.69 81.0662 133.886 96.5209C133.46 104.355 136.156 114.768 140.79 116.378C143.698 117.372 149.373 117.23 154.93 116.472L158.973 127.051C159.186 129.702 165.783 131.572 172.593 129.04C180.656 126.057 186.638 118.579 185.716 111.313C185.503 109.632 178.528 105.775 178.315 101.444C180.656 95.5979 180.608 88.758 177.582 82.6046C171.978 71.1734 158.311 66.4163 147.032 71.9544Z" fill="#ED4546"/>
<path d="M140.104 103.526L142.965 95.8345L145.802 103.219L140.104 103.526Z" fill="#D7090A"/>
<path d="M142.61 96.4971L139.749 103.526L145.4 103.1" stroke="black" stroke-width="2" stroke-linecap="round"/>
<path d="M140.885 108.189C141.381 109.017 142.753 110.366 143.982 110.532C145.992 110.839 146.867 109.254 147.458 108.07" stroke="black" stroke-width="2"/>
<path d="M135.327 97.0416C136.297 97.2309 137.219 96.5919 137.408 95.6216C137.597 94.6512 136.959 93.7282 135.989 93.5389C135.02 93.3495 134.098 93.9885 133.909 94.9589C133.743 95.9292 134.358 96.8759 135.327 97.0416Z" fill="black"/>
<path d="M148.616 97.1361C149.585 97.3254 150.508 96.6864 150.697 95.716C150.886 94.7457 150.247 93.8227 149.278 93.6333C148.309 93.444 147.386 94.083 147.197 95.0534C147.008 96.0237 147.647 96.9467 148.616 97.1361Z" fill="black"/>
<path d="M147.175 89.3724C148.688 88.7817 150.863 88.6635 152.259 89.3724" stroke="black" stroke-width="2" stroke-linecap="round"/>
<path d="M137.196 89.4917C135.612 89.0656 133.436 89.2076 132.136 90.0597" stroke="black" stroke-width="2" stroke-linecap="round"/>
<path d="M151.453 103.1C152.446 103.29 153.416 102.627 153.605 101.633C153.794 100.639 153.132 99.6687 152.139 99.4793C151.146 99.29 150.177 99.9527 149.987 100.947C149.798 101.941 150.46 102.911 151.453 103.1Z" fill="#D7090A"/>
<path d="M135.446 103.006C136.439 103.195 137.409 102.532 137.598 101.538C137.787 100.544 137.125 99.5739 136.132 99.3846C135.139 99.1953 134.17 99.8579 133.98 100.852C133.791 101.846 134.43 102.816 135.446 103.006Z" fill="#D7090A"/>
<path d="M171.481 68.9724C171.623 69.8718 171.67 70.8185 171.599 71.7888L170.654 85.6814L166.397 85.3974L167.343 71.5285C167.343 71.3628 167.367 71.1735 167.367 71.0078L171.481 68.9724Z" fill="black"/>
<path d="M167.437 100.45C169.849 100.899 172.332 98.5561 172.947 95.2428C173.562 91.9294 172.096 88.8526 169.66 88.403C167.248 87.9533 164.766 90.2963 164.151 93.6097C163.536 96.9468 165.002 99.9998 167.437 100.45Z" fill="#D7090A"/>
<path d="M165.9 95.4558C166.208 94.0831 167.485 91.7637 168.62 90.9827" stroke="black" stroke-width="2" stroke-linecap="round"/>
<path d="M167.816 92.0242C168.478 92.4028 169.472 93.4442 169.684 94.1779" stroke="black" stroke-width="2" stroke-linecap="round"/>
<path d="M97.1638 63.3395C92.0565 68.3096 92.8368 73.5401 93.8772 75.5518L93.2151 77.6345C100.521 79.9065 115.985 85.2317 119.272 88.3084C119.934 87.0304 120.62 85.7523 121.211 84.64C123.457 80.4509 135.989 73.8004 137.55 71.8834C139.134 69.9663 139.725 68.4753 138.59 67.2209C137.691 66.2033 131.024 67.3156 127.808 68.002L132.371 60.6415C134.547 56.4524 138.566 47.3169 137.242 44.2401C135.918 41.1634 132.513 44.9502 130.976 47.2459C131.686 46.1572 132.868 43.3881 132.04 41.0451C131.213 38.6784 127.477 41.8734 125.727 43.7668C126.318 42.2521 127.075 39.057 125.325 38.3707C123.575 37.6843 119.721 43.1988 118.019 46.0388L118.894 43.8378C119.627 42.1574 120.974 38.5837 120.407 37.566C119.674 36.288 118.09 37.211 115.205 40.9741C112.32 44.7135 103.572 57.1151 97.1638 63.3395Z" fill="#ED4546"/>
<path d="M126.414 68.0017C123.648 68.0964 116.932 69.1141 112.18 72.3328" stroke="black" stroke-width="2" stroke-linecap="round"/>
<path d="M123.978 57.8722L129.936 48.855L123.978 57.8722ZM113.503 53.7068L116.979 47.8137L113.503 53.7068ZM118.256 55.6002L124.545 45.731L118.256 55.6002Z" stroke="black" stroke-width="2" stroke-linecap="round"/>
<path d="M218.534 244.89C219.645 244.109 220.071 240.299 220.165 238.027C229.316 245.364 234.092 243.873 242.462 243.778C242.037 246.097 241.115 250.286 240.5 252.203C239.72 254.594 235.251 266.356 231.467 268.108C227.684 269.836 220.402 275.658 217.777 278.403C215.673 280.604 210.683 284.556 208.437 286.237C206.948 286.971 203.755 287.988 202.833 286.213C201.911 284.462 205.127 279.657 206.829 277.48C204.796 279.302 200.232 282.947 198.27 282.947C194.368 282.781 197.277 277.527 199.239 274.924C197.726 276.178 194.085 278.474 191.696 277.551C189.308 276.628 191.389 272.439 192.713 270.451C191.578 271.161 189.095 272.297 188.41 271.043C187.559 269.504 188.646 266.759 189.852 264.392C190.798 262.499 195.243 257.481 197.348 255.209C196.094 255.446 193.659 255.635 193.777 254.428C193.919 252.937 198.932 249.008 203.921 247.612C208.886 246.216 217.115 245.861 218.534 244.89Z" fill="#ED4546"/>
<path d="M208.438 267.137L200.729 274.119M206.735 277.788C208.201 276.202 211.417 272.841 212.434 272.178L206.735 277.788ZM193.967 269.315C195.315 267.871 198.767 264.581 201.628 262.925L193.967 269.315Z" stroke="black" stroke-width="2" stroke-linecap="round"/>
<path d="M198.555 254.381C200.163 253.221 204.466 250.618 208.722 249.529" stroke="black" stroke-width="2" stroke-linecap="round"/>
<path d="M184.981 71.386C184.981 71.386 180.677 95.5738 178.337 101.42C168.453 106.295 165.237 99.4079 164.859 95.3845C164.764 93.2544 164.882 88.1423 166.112 84.6633C167.649 80.3322 162.258 79.4092 155.33 82.8172C146.345 87.243 138.471 86.1543 135.775 83.8112L140.292 61.8245L142.254 64.4278L144.879 67.9069L146.416 69.9423L154.337 63.4575L155.354 62.6291L156.276 63.3155L166.845 71.244L167.46 70.9363C167.46 71.102 167.46 71.2677 167.436 71.457L166.49 85.3259L170.746 85.61L171.692 71.7173C171.763 70.747 171.716 69.8003 171.574 68.9009L175.901 66.7709L179.33 75.5041L184.981 71.386Z" fill="black"/>
<path d="M167.743 104.142L165.497 104C161.927 103.763 159.231 100.663 159.468 97.0891L159.964 89.5156C160.201 85.9419 163.298 83.2438 166.868 83.4805L169.115 83.6225C172.685 83.8592 175.381 86.9596 175.144 90.5333L174.648 98.1068C174.388 101.681 171.314 104.379 167.743 104.142Z" fill="#FFB84D"/>
<path d="M171.48 68.9722C171.622 69.8715 171.669 70.8182 171.598 71.7886L170.652 85.6812L166.396 85.3972L167.342 71.5282C167.342 71.3626 167.366 71.1732 167.366 71.0075C167.389 69.0432 166.775 67.5048 165.498 66.2978C164.055 64.9488 160.414 63.3394 156.182 63.3867L155.26 62.7004L154.243 63.5287C149.845 64.1204 146.771 65.4931 144.785 67.9545L142.16 64.4754C144.808 61.659 148.663 59.955 153.77 59.2923C155.78 59.032 158.357 59.1503 160.651 59.5763C163.843 60.1917 166.515 61.446 168.383 63.1737C170.085 64.7357 171.125 66.7001 171.48 68.9722Z" fill="#FFB84D"/>
<path d="M165.191 100.662C165.191 100.662 160.367 106.91 152.162 108.733" stroke="black" stroke-width="2" stroke-linecap="round"/>
<path d="M157.743 109.467L152.541 112.023C151.714 112.425 150.744 112.094 150.342 111.265L149.586 109.727C149.184 108.899 149.515 107.928 150.342 107.526L155.544 104.97C156.372 104.567 157.341 104.899 157.743 105.727L158.5 107.266C158.902 108.07 158.571 109.064 157.743 109.467Z" fill="black"/>
<path d="M114.046 181.297L113.857 181.06H113.573H98.0859C91.6308 181.06 86.4053 175.829 86.4053 169.368C86.4053 162.907 91.6308 157.677 98.0859 157.677H115.158C121.613 157.677 126.838 162.907 126.838 169.368V172.942C126.838 177.439 123.197 181.06 118.728 181.06H118.019L118.113 181.77L118.87 187.142L114.046 181.297Z" stroke="black" stroke-width="2"/>
</svg>
