<svg width="218" height="167" viewBox="0 0 218 167" fill="none" xmlns="http://www.w3.org/2000/svg">
<path d="M206.061 30.9675C192.972 2.85553 167.957 10.9763 157.087 18.5507C160.555 25.042 169.115 38.0583 180.622 39.6516C192.126 41.2448 202.793 34.6474 206.061 30.9675Z" fill="#D1EAFF"/>
<path d="M176.644 36.0381C182.204 39.3311 189.381 37.4934 192.674 31.9335C195.967 26.3736 194.129 19.1969 188.569 15.9039C183.009 12.6109 175.832 14.4486 172.539 20.0085C169.246 25.5684 171.084 32.7451 176.644 36.0381Z" fill="black"/>
<path d="M159.128 15.4094L155.047 7.24707" stroke="black" stroke-width="2" stroke-linecap="round"/>
<path d="M168.424 9.28735L166.384 1.125" stroke="black" stroke-width="2" stroke-linecap="round"/>
<path d="M180.585 9.41334L180.523 1" stroke="black" stroke-width="2" stroke-linecap="round"/>
<path d="M191.778 11.3278L193.819 5.20605" stroke="black" stroke-width="2" stroke-linecap="round"/>
<path d="M201.98 21.53L208.102 15.4082" stroke="black" stroke-width="2" stroke-linecap="round"/>
<path d="M208.102 29.6939L216.264 27.6533" stroke="black" stroke-width="2" stroke-linecap="round"/>
<path d="M130.644 35.9213L130.286 8.62598H1.00049V111.751L134.457 116.154L134.273 111.42" stroke="black" stroke-width="2"/>
<path d="M1.00015 7.10059H131.406V29.9788H1.00015V7.10059Z" fill="black"/>
<path d="M121.111 24.6413C117.952 24.6413 115.391 22.0805 115.391 18.9217C115.391 15.7629 117.952 13.2021 121.111 13.2021C124.269 13.2021 126.83 15.7629 126.83 18.9217C126.83 22.0805 124.269 24.6413 121.111 24.6413Z" fill="white"/>
<path d="M106.621 24.6413C103.462 24.6413 100.902 22.0805 100.902 18.9217C100.902 15.7629 103.462 13.2021 106.621 13.2021C109.78 13.2021 112.341 15.7629 112.341 18.9217C112.341 22.0805 109.78 24.6413 106.621 24.6413Z" fill="white"/>
<path d="M92.132 24.6413C88.9732 24.6413 86.4124 22.0805 86.4124 18.9217C86.4124 15.7629 88.9732 13.2021 92.132 13.2021C95.2908 13.2021 97.8516 15.7629 97.8516 18.9217C97.8516 22.0805 95.2908 24.6413 92.132 24.6413Z" fill="white"/>
<path d="M151.063 91.5555L194.319 129.06L188.4 135.981L145.396 98.6031L151.063 91.5555Z" fill="black"/>
<path d="M93.8758 93.755C105.579 109.195 127.447 112.327 142.719 100.751C157.991 89.1751 160.884 67.2743 149.181 51.8344C137.478 36.3945 115.61 33.2622 100.338 44.8383C85.0656 56.4143 82.1725 78.3151 93.8758 93.755Z" stroke="black" stroke-width="2"/>
<path d="M97.5224 90.9912C107.699 104.417 126.878 107.017 140.36 96.7982C148.237 90.827 152.427 81.7999 152.518 72.6486L97.5224 90.9912Z" fill="#D1EAFF"/>
<path d="M138.938 47.1579C128.447 40.58 114.408 40.8715 103.787 48.9224C100.129 51.6944 97.2483 55.105 95.1858 58.8713L138.938 47.1579Z" fill="#D1EAFF"/>
<path d="M91.7839 70.4613L146.234 54.2597C149.555 58.6413 151.502 63.6353 152.146 68.7262L95.0315 86.4429C92.447 81.4108 91.3929 75.8757 91.7839 70.4613Z" fill="#D1EAFF"/>
</svg>
