<svg width="360" height="360" viewBox="0 0 360 360" fill="none" xmlns="http://www.w3.org/2000/svg">
<path d="M332.414 135.9H224.661L221.174 217.38L268.64 215.962L310.855 214.699L332.414 214.055V135.9Z" fill="white"/>
<path d="M308.868 262.38L313.776 274.804L330.924 266.555L319.896 282.473L334.093 290.02L317.711 292.037L318.684 305.358L308.868 296.293L295.31 308.7L300.024 292.037L286.812 290.02L297.84 282.473L293.261 271.834L303.96 274.804L308.868 262.38Z" fill="#242938"/>
<path d="M65.0527 102.84V9.84009H189.133V31.1401H237.253V99.1801" stroke="white" stroke-width="1.276"/>
<path d="M134.533 220.718H153.16L187.093 219.51V72.84H17.4896L12 225.75L69.6731 223.694" stroke="#242938" stroke-width="1.276"/>
<path d="M17.491 72.84H187.095V103.204H16.3945L17.491 72.84Z" fill="#242938"/>
<path d="M30.8366 95.7784C34.8227 95.7784 38.0541 92.3057 38.0541 88.0219C38.0541 83.7382 34.8227 80.2655 30.8366 80.2655C26.8505 80.2655 23.6191 83.7382 23.6191 88.0219C23.6191 92.3057 26.8505 95.7784 30.8366 95.7784Z" fill="white"/>
<path d="M49.6003 95.7784C53.5864 95.7784 56.8178 92.3057 56.8178 88.0219C56.8178 83.7382 53.5864 80.2655 49.6003 80.2655C45.6142 80.2655 42.3828 83.7382 42.3828 88.0219C42.3828 92.3057 45.6142 95.7784 49.6003 95.7784Z" fill="white"/>
<path d="M68.3679 95.7784C72.354 95.7784 75.5854 92.3057 75.5854 88.0219C75.5854 83.7382 72.354 80.2655 68.3679 80.2655C64.3818 80.2655 61.1504 83.7382 61.1504 88.0219C61.1504 92.3057 64.3818 95.7784 68.3679 95.7784Z" fill="white"/>
<path d="M185.195 152.868L120.012 154.77L124.801 45.54H272.772V150.312L243.167 151.176" stroke="#242938" stroke-width="1.276"/>
<path d="M180.064 202.264H228.344M180.064 196.973H210.414H180.064Z" stroke="#242938" stroke-width="1.276" stroke-linecap="round"/>
<path d="M170.34 36.4473C173.804 40.7655 177.48 49.8273 183.54 45.4473L171.373 60.9873C151.513 32.1273 166.01 31.0495 170.34 36.4473Z" fill="#D58B8B"/>
<path d="M211.72 13.369C213.047 12.7639 214.033 12.0778 213.923 11.8366C213.813 11.5954 212.648 11.8905 211.322 12.4956C209.995 13.1007 209.009 13.7867 209.119 14.0279C209.229 14.2691 210.394 13.9741 211.72 13.369Z" fill="white"/>
<path d="M209.76 17.1775C219.648 20.1055 222.12 33.4776 222.12 39.7975L202.98 70.5175C198.68 70.9575 187.104 70.2535 175.2 63.9175C163.296 57.5815 173.561 49.5576 180.18 46.3375C182.12 44.9175 185.184 39.4975 181.92 29.1775C178.656 18.8575 169.121 18.1575 164.76 19.0975C162.041 19.4775 157.608 18.8935 161.64 13.5175C169.8 3.19751 187.2 7.5375 194.88 10.9975C198.912 9.46151 204.56 14.4775 206.88 17.1775H209.76Z" fill="#D58B8B"/>
<path d="M225.119 40.0976C200.351 39.2336 200.039 65.5376 202.979 78.7976C204.429 85.3376 264.359 116.358 264.959 120.258C265.439 123.378 257.759 139.237 253.859 146.778C246.68 150.838 224.903 165.486 195.239 191.598C165.575 217.71 162.939 253.648 165.539 266.548C164.799 263.767 157.126 258.018 154.499 252.988C151.874 247.957 143.279 247.998 129.479 258.498C118.44 266.898 120.839 270.088 121.559 274.888C133.076 295.558 150.37 336.84 172.019 345.318C181.979 349.218 197.459 346.398 202.979 341.418C207.395 337.434 216.779 301.638 218.819 291.138L234.719 327.688C266.579 337.452 327.244 316.784 336.299 283.398C332.6 269.578 317.699 222.76 311.939 210.808C304.739 195.868 336.299 129.464 315.779 99.7976C311.795 94.0376 293.12 77.4776 284.279 69.9176C277.139 64.9376 261.827 61.8776 253.859 56.1176C243.899 48.9176 236.159 43.3976 225.119 40.0976Z" fill="#587291"/>
<path d="M182.099 236.88C185.711 236.88 188.639 233.952 188.639 230.34C188.639 226.728 185.711 223.8 182.099 223.8C178.487 223.8 175.559 226.728 175.559 230.34C175.559 233.952 178.487 236.88 182.099 236.88Z" fill="white"/>
<path d="M193.499 269.16C197.111 269.16 200.039 266.232 200.039 262.62C200.039 259.008 197.111 256.08 193.499 256.08C189.887 256.08 186.959 259.008 186.959 262.62C186.959 266.232 189.887 269.16 193.499 269.16Z" fill="white"/>
<path d="M226.499 218.4C230.111 218.4 233.039 215.472 233.039 211.86C233.039 208.248 230.111 205.32 226.499 205.32C222.887 205.32 219.959 208.248 219.959 211.86C219.959 215.472 222.887 218.4 226.499 218.4Z" fill="white"/>
<path d="M235.14 289.08C238.752 289.08 241.68 286.152 241.68 282.54C241.68 278.928 238.752 276 235.14 276C231.528 276 228.6 278.928 228.6 282.54C228.6 286.152 231.528 289.08 235.14 289.08Z" fill="white"/>
<path d="M277.38 254.28C280.992 254.28 283.92 251.352 283.92 247.74C283.92 244.128 280.992 241.2 277.38 241.2C273.768 241.2 270.84 244.128 270.84 247.74C270.84 251.352 273.768 254.28 277.38 254.28Z" fill="white"/>
<path d="M325.739 288.24C329.351 288.24 332.279 285.312 332.279 281.7C332.279 278.088 329.351 275.16 325.739 275.16C322.127 275.16 319.199 278.088 319.199 281.7C319.199 285.312 322.127 288.24 325.739 288.24Z" fill="white"/>
<path d="M257.938 184.44C261.55 184.44 264.478 181.512 264.478 177.9C264.478 174.288 261.55 171.36 257.938 171.36C254.326 171.36 251.398 174.288 251.398 177.9C251.398 181.512 254.326 184.44 257.938 184.44Z" fill="white"/>
<path d="M241.739 249.96C245.351 249.96 248.279 247.032 248.279 243.42C248.279 239.808 245.351 236.88 241.739 236.88C238.127 236.88 235.199 239.808 235.199 243.42C235.199 247.032 238.127 249.96 241.739 249.96Z" fill="white"/>
<path d="M272.698 310.08C276.31 310.08 279.238 307.152 279.238 303.54C279.238 299.928 276.31 297 272.698 297C269.086 297 266.158 299.928 266.158 303.54C266.158 307.152 269.086 310.08 272.698 310.08Z" fill="white"/>
<path d="M299.698 213.72C303.31 213.72 306.238 210.792 306.238 207.18C306.238 203.568 303.31 200.64 299.698 200.64C296.086 200.64 293.158 203.568 293.158 207.18C293.158 210.792 296.086 213.72 299.698 213.72Z" fill="white"/>
<path d="M283.86 144.96C287.472 144.96 290.4 142.032 290.4 138.42C290.4 134.808 287.472 131.88 283.86 131.88C280.248 131.88 277.32 134.808 277.32 138.42C277.32 142.032 280.248 144.96 283.86 144.96Z" fill="white"/>
<path d="M310.14 118.56C313.752 118.56 316.68 115.632 316.68 112.02C316.68 108.408 313.752 105.48 310.14 105.48C306.528 105.48 303.6 108.408 303.6 112.02C303.6 115.632 306.528 118.56 310.14 118.56Z" fill="white"/>
<path d="M259.618 103.2C263.23 103.2 266.158 100.272 266.158 96.6599C266.158 93.0479 263.23 90.1199 259.618 90.1199C256.006 90.1199 253.078 93.0479 253.078 96.6599C253.078 100.272 256.006 103.2 259.618 103.2Z" fill="white"/>
<path d="M235.259 65.28C238.871 65.28 241.799 62.3519 241.799 58.74C241.799 55.128 238.871 52.2 235.259 52.2C231.647 52.2 228.719 55.128 228.719 58.74C228.719 62.3519 231.647 65.28 235.259 65.28Z" fill="white"/>
<path d="M199.979 331.92C203.591 331.92 206.519 328.992 206.519 325.38C206.519 321.768 203.591 318.84 199.979 318.84C196.368 318.84 193.439 321.768 193.439 325.38C193.439 328.992 196.368 331.92 199.979 331.92Z" fill="white"/>
<path d="M169.019 319.68C172.63 319.68 175.559 316.752 175.559 313.14C175.559 309.528 172.63 306.6 169.019 306.6C165.407 306.6 162.479 309.528 162.479 313.14C162.479 316.752 165.407 319.68 169.019 319.68Z" fill="white"/>
<path d="M141.659 294.84C145.271 294.84 148.199 291.912 148.199 288.3C148.199 284.688 145.271 281.76 141.659 281.76C138.047 281.76 135.119 284.688 135.119 288.3C135.119 291.912 138.047 294.84 141.659 294.84Z" fill="white"/>
<path d="M148.259 267.36C151.871 267.36 154.799 264.432 154.799 260.82C154.799 257.208 151.871 254.28 148.259 254.28C144.647 254.28 141.719 257.208 141.719 260.82C141.719 264.432 144.647 267.36 148.259 267.36Z" fill="white"/>
<path d="M166.201 265.038C165.041 274.777 163.417 295.146 166.201 298.698C168.985 302.25 170.321 309.738 170.641 313.038" stroke="#242938" stroke-width="1.276" stroke-linecap="round"/>
<path d="M269.52 117.058C271.38 111.318 279.624 103.954 283.8 103.618C289.02 103.198 303.18 99.4783 306.24 101.218" stroke="#242938" stroke-width="1.276" stroke-linecap="round"/>
<path d="M272.041 119.552C275.225 117.61 282.033 117.468 284.113 118.986C286.711 120.883 294.803 124.822 295.524 126.864" stroke="#242938" stroke-width="1.276" stroke-linecap="round"/>
<path d="M162.489 275.958C159.451 278.119 156.639 284.323 157.216 286.831C157.938 289.967 158.372 298.955 159.966 300.422" stroke="#242938" stroke-width="1.276" stroke-linecap="round"/>
<path d="M164.04 149.238C164.04 152.132 163.265 154.72 162.05 156.563C160.831 158.411 159.229 159.438 157.56 159.438C155.891 159.438 154.289 158.411 153.07 156.563C151.855 154.72 151.08 152.132 151.08 149.238C151.08 146.342 151.855 143.755 153.07 141.912C154.289 140.064 155.891 139.038 157.56 139.038C159.229 139.038 160.831 140.064 162.05 141.912C163.265 143.755 164.04 146.342 164.04 149.238Z" stroke="#242938" stroke-width="1.276"/>
<path d="M182.159 175.878C195.745 175.878 206.759 164.864 206.759 151.278C206.759 137.692 195.745 126.678 182.159 126.678C168.572 126.678 157.559 137.692 157.559 151.278C157.559 164.864 168.572 175.878 182.159 175.878Z" fill="#D58B8B"/>
<path d="M181.439 151.288C171.359 146.68 160.658 142.66 158.819 137.58C154.272 112.164 196.853 99.3389 209.039 117.447C210.498 119.616 212.735 125.512 222.479 126.808C234.659 128.428 232.799 131.608 238.439 141.628C242.951 149.644 261.359 152.107 266.099 151.288L205.919 192.453L200.279 189.928L198.119 197.788L181.439 209.488C180.439 204.547 179.039 193.72 181.439 189.928C184.439 185.188 181.439 183.028 181.439 173.968C181.439 166.72 186.119 163.067 188.459 162.148C195.479 158.188 197.699 151.288 192.899 147.388C189.059 144.268 183.659 148.687 181.439 151.288Z" fill="#242938" stroke="#242938" stroke-width="0.106333"/>
<path d="M189.659 162.558C194.464 162.558 198.359 158.663 198.359 153.858C198.359 149.053 194.464 145.158 189.659 145.158C184.854 145.158 180.959 149.053 180.959 153.858C180.959 158.663 184.854 162.558 189.659 162.558Z" fill="#AD5B5B"/>
<path d="M162.659 158.358C164.018 158.358 165.119 157.122 165.119 155.598C165.119 154.074 164.018 152.838 162.659 152.838C161.301 152.838 160.199 154.074 160.199 155.598C160.199 157.122 161.301 158.358 162.659 158.358Z" fill="#AD5B5B"/>
<path d="M183.721 152.838C185.101 151.458 188.161 150.078 190.261 150.078" stroke="#242938" stroke-width="1.276" stroke-linecap="round"/>
<path d="M187.801 150.54C188.256 151.241 189.213 153.546 189.361 155.118" stroke="#242938" stroke-width="1.276" stroke-linecap="round"/>
<path d="M151.08 148.998L182.82 145.938" stroke="#242938" stroke-width="1.276"/>
<path d="M90.9255 253.069L91.2048 255.936C95.4602 266.437 112.409 264.455 121.559 269.488C125.479 263.567 142.043 250.984 151.259 250.648C146.99 238.201 141.788 228.172 134.372 217.006C126.912 205.772 119.921 216.767 117.359 223.668C116.133 225.736 111.036 229.312 100.448 227.064C89.8603 224.816 88.2387 215.393 88.7515 210.962C88.866 208.218 87.8548 203.863 82.8952 208.398C73.4152 217.52 79.4223 234.418 83.6108 241.726C82.4731 245.887 88.0132 251.022 90.9255 253.069Z" fill="#D58B8B"/>
<path d="M106.562 214.833C111.196 217.862 120.572 220.641 116.8 227.097L130.74 213.147C100.09 196.179 100.77 211.047 106.562 214.833Z" fill="#D58B8B"/>
</svg>
