<svg width="350" height="350" viewBox="0 0 350 350" fill="none" xmlns="http://www.w3.org/2000/svg">
<path d="M326.215 152.6H221.456L218.065 231.817L264.213 230.438L305.255 229.21L326.215 228.584V152.6Z" fill="#CFD0D1"/>
<path d="M53.332 259.933H71.0745L71.6487 180.717L63.8328 182.096L56.8818 183.323L53.332 183.95V259.933Z" fill="#CFD0D1"/>
<path d="M80.8643 259.933H98.6067L99.1809 211.983L91.3651 212.819L84.4141 213.561L80.8643 213.94V259.933Z" fill="#CFD0D1"/>
<path d="M135.932 259.933H153.673L154.248 236.017L146.432 236.433L139.481 236.803L135.932 236.993V259.933Z" fill="#CFD0D1"/>
<path d="M108.398 259.934H126.14L126.715 193.317L118.899 194.477L111.948 195.509L108.398 196.035V259.934Z" fill="#CFD0D1"/>
<path d="M66.2803 120.458V30.0415H186.914V50.7498H233.697V116.9" stroke="#242938" stroke-width="2"/>
<path d="M145.148 262.707H163.257L196.248 261.531V118.936H31.3557L26.0186 267.597L82.0896 265.6" stroke="#242938" stroke-width="2"/>
<path d="M150.749 102.286H204.549M150.749 92.6333H184.568H150.749Z" stroke="#242938" stroke-width="2" stroke-linecap="round"/>
<path d="M31.356 118.936H196.249V148.456H30.29L31.356 118.936Z" fill="#242938"/>
<path d="M44.3315 141.236C48.2068 141.236 51.3484 137.86 51.3484 133.695C51.3484 129.531 48.2068 126.154 44.3315 126.154C40.4561 126.154 37.3145 129.531 37.3145 133.695C37.3145 137.86 40.4561 141.236 44.3315 141.236Z" fill="white"/>
<path d="M62.5756 141.236C66.451 141.236 69.5926 137.86 69.5926 133.695C69.5926 129.531 66.451 126.154 62.5756 126.154C58.7002 126.154 55.5586 129.531 55.5586 133.695C55.5586 137.86 58.7002 141.236 62.5756 141.236Z" fill="white"/>
<path d="M80.8207 141.236C84.6961 141.236 87.8377 137.86 87.8377 133.695C87.8377 129.531 84.6961 126.154 80.8207 126.154C76.9453 126.154 73.8037 129.531 73.8037 133.695C73.8037 137.86 76.9453 141.236 80.8207 141.236Z" fill="white"/>
<path d="M183.088 169.097L119.716 170.946L124.372 64.75H268.232V166.612L239.45 167.452" stroke="#242938" stroke-width="2"/>
<path d="M268.233 64.75H124.383V77.1167H268.233V64.75Z" fill="#242938"/>
<path d="M230.338 222.154L166.966 223.533L171.622 144.316H315.482V220.3L286.7 220.927" stroke="#242938" stroke-width="2"/>
<path d="M178.099 217.12H225.037M178.099 211.977H207.605H178.099Z" stroke="#242938" stroke-width="2" stroke-linecap="round"/>
<path d="M315.483 144.316H171.633V159.016H315.483V144.316Z" fill="#242938"/>
<path d="M146.082 270.433C146.082 280.884 141.925 288.168 135.601 292.86C129.248 297.575 120.645 299.717 111.723 299.717C102.803 299.717 95.4304 297.576 90.2913 292.904C85.1644 288.245 82.1484 280.962 82.1484 270.433C82.1484 249.378 96.5656 232.517 114.115 232.517C131.664 232.517 146.082 249.378 146.082 270.433Z" stroke="#242938" stroke-width="2"/>
<path d="M145.785 260.734L161.449 264.492C167.723 276.255 164.024 283.444 163.465 294C152.028 293.276 123.43 291.161 120.079 287.904C116.681 284.599 120.452 283.371 122.55 283.311L117.262 281.853C115.81 281.522 112.859 280.33 112.665 278.218C112.471 276.105 116.465 276.029 118.485 276.255C108.107 274.309 111.164 269.35 113.777 269.21C115.052 269.142 120.238 269.787 122.66 270.18C121.753 269.925 119.68 269.111 118.651 267.902C117.364 266.392 118.009 264.961 119.959 264.181C121.619 263.516 134.489 264.507 138.375 264.881C141.484 265.182 144.651 262.24 145.785 260.734Z" fill="#D58B8B"/>
<path d="M123.249 270.173L137.082 271.532" stroke="#242938" stroke-width="2" stroke-linecap="round"/>
<path d="M120.13 276.701L133.964 278.059" stroke="#242938" stroke-width="2" stroke-linecap="round"/>
<path d="M123.891 284.141L137.725 285.499" stroke="#242938" stroke-width="2" stroke-linecap="round"/>
<path d="M118.469 25.4727C122.186 29.691 125.037 34.6003 126.857 39.9203C128.677 45.2402 129.432 50.8667 129.077 56.4782C128.724 62.0899 127.268 67.5767 124.793 72.6257C122.319 77.6747 118.874 82.1868 114.655 85.9044C110.437 89.6219 105.528 92.4723 100.208 94.2926C94.8877 96.1129 89.2613 96.8675 83.6498 96.5134C78.0381 96.1594 72.5513 94.7035 67.5023 92.2289C62.4533 89.7542 57.9412 86.3093 54.2236 82.091L74.1669 64.5153C75.5764 66.1147 77.2871 67.4209 79.2015 68.3591C81.1158 69.2973 83.1962 69.8494 85.3238 69.9836C87.4515 70.1178 89.5847 69.8318 91.6018 69.1416C93.6188 68.4514 95.4802 67.3707 97.0796 65.9611C98.6791 64.5516 99.9852 62.8409 100.923 60.9265C101.862 59.0122 102.414 56.9318 102.548 54.8042C102.682 52.6765 102.396 50.5433 101.706 48.5262C101.016 46.5091 99.935 44.6478 98.5255 43.0483L118.469 25.4727Z" stroke="#242938" stroke-width="2"/>
<path d="M126.539 65.6836L138.089 99.6919L115.28 106.517L106.53 91.5253C115.339 86.1003 119.714 80.2476 121.697 76.8253C120.394 71.6531 118.664 66.7336 119.831 62.0669C121.061 57.142 124.556 60.4919 126.539 65.6836Z" fill="#D58B8B"/>
<path d="M115.632 103.425C112.085 105.805 114.154 108.344 115.632 109.317C114.757 109.317 112.703 110.075 111.49 113.108C109.974 116.9 113.007 119.058 113.007 129.092C113.007 139.125 111.49 157.383 113.007 171.267C114.523 185.15 122.165 192.5 131.557 200.725C140.949 208.95 148.124 224.642 154.599 232.283C159.779 238.397 173.867 244.28 180.265 246.458C180.265 250.705 173.382 259.622 169.94 263.55C166.692 262.675 159.779 262.162 158.099 267.108C155.999 273.292 160.199 275.683 160.199 280.408C160.199 285.133 157.807 291.317 160.199 293.65C162.112 295.517 166.479 295.828 168.424 295.75C169.357 297.43 173.362 299.367 175.249 300.125C175.249 307.95 190.252 319.564 197.065 321.708C206.515 324.683 260.765 339.967 282.582 318.733C304.399 297.5 297.924 237.3 293.199 211.05C289.419 190.05 277.467 174.183 271.965 168.875C270.992 167.3 268.22 163.625 264.907 161.525C246.94 149.742 209.14 162.983 206.224 164.15C203.307 165.317 206.224 168.875 203.54 168.875C201.394 168.875 198.329 171.83 197.065 173.308C194.207 173.308 186.845 172.9 180.265 171.267C172.04 169.225 160.199 159.133 154.599 149.742C148.999 140.35 146.607 116.958 144.565 109.317C142.524 101.675 139.549 103.425 138.674 98.9915C137.799 94.5582 120.065 100.45 115.632 103.425Z" fill="#587291"/>
<path d="M198.839 206.275L182.706 197.938L179.293 204.543L195.426 212.879L198.839 206.275Z" fill="white"/>
<path d="M234.787 151.796L217.608 157.686L220.019 164.718L237.197 158.828L234.787 151.796Z" fill="white"/>
<path d="M176.949 190.616L183.4 173.641L176.451 171L170 187.975L176.949 190.616Z" fill="white"/>
<path d="M257.226 221.897L262.129 204.412L254.971 202.405L250.068 219.89L257.226 221.897Z" fill="white"/>
<path d="M260.999 241.303L278.84 244.694L280.228 237.391L262.388 234L260.999 241.303Z" fill="white"/>
<path d="M288.09 232.245C288.09 232.245 295.5 245.5 297.5 248.5C297 238.5 296.095 231.164 296.095 231.164L294.421 228.245L288.09 232.245Z" fill="white"/>
<path d="M264 165.023L270.035 183L277 180.389L276.31 178.333C274.417 175.745 270.035 168.015 266.694 164L264 165.023Z" fill="white"/>
<path d="M238.055 257.976L247.839 273.275L254.101 269.27L244.318 253.971L238.055 257.976Z" fill="white"/>
<path d="M207.46 308.037L217.244 323.336L223.507 319.331L213.723 304.032L207.46 308.037Z" fill="white"/>
<path d="M253.875 315.732L267.886 309.855L265.01 303L251 308.877L253.875 315.732Z" fill="white"/>
<path d="M292.573 287.093L286.896 273L280 275.778L285.678 289.87L292.573 287.093Z" fill="white"/>
<path d="M228.113 222.808L213.595 227.223L215.758 234.335L230.276 229.92L228.113 222.808Z" fill="white"/>
<path d="M196.374 276L179 281.284L181.163 288.396L198.537 283.112L196.374 276Z" fill="white"/>
<path d="M151.374 176L134 181.284L136.163 188.396L153.537 183.112L151.374 176Z" fill="white"/>
<path d="M158 214.284L152.232 210L146 219.5C146.5 220.5 148.5 223.5 149.5 225L158 214.284Z" fill="white"/>
<path d="M123.14 136L127 129.476L115.936 123L113 130.065L123.14 136Z" fill="white"/>
<path d="M139.97 138L134 155.05L139.063 157C139.873 154.823 141.595 144.532 142 138.782L139.97 138Z" fill="white"/>
<path d="M125 184.681L117.951 182L117 184C117.815 186.024 121.085 190.223 123 192.5L125 184.681Z" fill="white"/>
<path d="M200 258.731L199.702 252L190 252.377L193.085 259L200 258.731Z" fill="white"/>
<path d="M196.248 175.992C195.315 179.472 193.506 190.283 193.74 205.683C193.973 221.083 188.353 235.9 185.515 241.383" stroke="#242938" stroke-width="2" stroke-linecap="round"/>
<path d="M187.44 299.658C191.582 298.258 204.765 298.55 217.132 299.658C229.499 300.767 249.565 291.958 253.124 287.583C256.682 283.208 293.49 240.333 290.224 212.275C287.366 187.732 275.416 176.373 253.124 187.833C248.262 190.283 237.28 200.083 232.24 219.683C225.94 244.183 225.882 259.35 215.44 260.4C204.999 261.45 189.715 256.258 182.307 259.817C174.724 262.558 172.064 265.627 170.057 276.033C168.05 286.44 167.392 294.447 169.065 296.8" stroke="#242938" stroke-width="2" stroke-linecap="round"/>
<path d="M159.849 289.617C162.084 290.181 166.86 291.32 168.074 291.367M158.799 268.675C161.209 268.17 166.662 267.38 169.182 268.267L158.799 268.675ZM159.849 274.45L168.54 276.258L159.849 274.45ZM161.482 282.675L167.607 282.383L161.482 282.675Z" stroke="#242938" stroke-width="2" stroke-linecap="round"/>
<path d="M118.005 103.677C117.928 105.045 117.812 107.953 117.96 108.644M133.208 98.9756C133.942 100.232 135.341 103.142 135.07 104.732L133.208 98.9756ZM129.131 100.7L129.112 105.94L129.131 100.7ZM123.343 103.232L124.478 106.618L123.343 103.232Z" stroke="#242938" stroke-width="2" stroke-linecap="round"/>
<path d="M268.232 171.267C261.407 173.93 246.847 180.168 243.207 183.808C238.657 188.358 226.874 194.133 225.065 193.2M207.099 172.667C208.984 176.07 213.352 183.575 215.732 186.375" stroke="#242938" stroke-width="2" stroke-linecap="round"/>
<path d="M258.548 167.417C257.381 167.922 254.616 169.26 252.889 170.567C250.731 172.2 248.573 174.708 247.114 175.992" stroke="#242938" stroke-width="2" stroke-linecap="round"/>
<path d="M211.648 166.483C211.898 166.766 212.491 167.511 212.861 168.24C213.323 169.152 213.786 170.55 214.098 171.267" stroke="#242938" stroke-width="2" stroke-linecap="round"/>
<path d="M246.24 167.417C244.062 171.111 238.564 179.515 233.99 183.575C229.417 187.635 227.146 188.728 226.582 188.767" stroke="#242938" stroke-width="2" stroke-linecap="round"/>
<path d="M257.289 141.412C257.289 154.434 246.732 164.99 233.711 164.99C229.28 164.99 223.415 165.867 219.874 163.742C213.009 159.62 210.133 150.003 210.133 141.412C210.133 128.389 220.689 117.833 233.711 117.833C246.732 117.833 257.289 128.389 257.289 141.412Z" fill="#D58B8B"/>
<path d="M237.025 115.092C224.002 115.092 204.475 103.12 204.475 116.142C204.475 121.082 206.808 129.305 210.416 137.608C210.964 135.508 212.303 131.087 213.283 130.2C214.508 129.092 220.691 137.842 227.225 132.475C233.758 127.108 244.141 128.917 243.266 131.658C242.679 133.496 238.308 148.744 249.1 159.277C254.114 154.953 258.9 147.608 258.9 140.467C258.9 125.988 257.29 115.092 237.025 115.092Z" fill="#242938"/>
<path d="M244.947 167.021L244.505 160.045L222.693 159.073L221.456 165.608C221.456 174.008 220.807 187.125 224.598 187.483C230.645 188.055 243.536 169.626 244.947 167.021Z" fill="#D58B8B"/>
<path d="M242.658 150.905C245.029 151.684 247.718 149.981 248.665 147.102C249.611 144.223 248.456 141.257 246.084 140.478C243.713 139.699 241.024 141.401 240.078 144.28C239.131 147.16 240.287 150.125 242.658 150.905Z" fill="#AD5B5B"/>
<path d="M241.28 145.691C242.075 144.367 244.283 142.777 246.313 143.13" stroke="#242938" stroke-width="2" stroke-linecap="round"/>
<path d="M245.018 143.331C245.257 143.701 245.762 144.914 245.839 145.743" stroke="#242938" stroke-width="2" stroke-linecap="round"/>
<path d="M218.113 151.859L223.17 144.389L224.622 152.992L218.113 151.859Z" fill="#AD5B5B"/>
<path d="M222.635 144.928L218.065 151.427L224.189 152.375" stroke="#242938" stroke-width="2" stroke-linecap="round"/>
<path d="M221.449 156.633C222.244 156.662 224.24 156.527 225.864 155.75" stroke="#242938" stroke-width="2" stroke-linecap="round"/>
<path d="M227.515 137.553C228.309 137.524 230.305 137.66 231.929 138.437" stroke="#242938" stroke-width="2" stroke-linecap="round"/>
<path d="M217.346 138.137C216.552 138.108 214.557 138.243 212.932 139.02" stroke="#242938" stroke-width="2" stroke-linecap="round"/>
<path d="M227.982 165.272C229.925 165.626 233.369 165.89 236.018 163.683" stroke="#242938" stroke-width="2" stroke-linecap="round"/>
<path d="M216.552 144.845C217.381 144.845 218.053 144.173 218.053 143.344C218.053 142.514 217.381 141.842 216.552 141.842C215.723 141.842 215.051 142.514 215.051 143.344C215.051 144.173 215.723 144.845 216.552 144.845Z" fill="#242938"/>
<path d="M229.017 144.615C229.846 144.615 230.518 143.943 230.518 143.114C230.518 142.285 229.846 141.613 229.017 141.613C228.188 141.613 227.516 142.285 227.516 143.114C227.516 143.943 228.188 144.615 229.017 144.615Z" fill="#242938"/>
<path d="M229.691 152.049C231.343 152.049 232.682 150.71 232.682 149.058C232.682 147.406 231.343 146.066 229.691 146.066C228.039 146.066 226.699 147.406 226.699 149.058C226.699 150.71 228.039 152.049 229.691 152.049Z" fill="#AD5B5B"/>
<path d="M214.405 151.466C216.058 151.466 217.397 150.127 217.397 148.475C217.397 146.823 216.058 145.483 214.405 145.483C212.753 145.483 211.414 146.823 211.414 148.475C211.414 150.127 212.753 151.466 214.405 151.466Z" fill="#AD5B5B"/>
</svg>
