<svg width="319" height="353" viewBox="0 0 319 353" fill="none" xmlns="http://www.w3.org/2000/svg">
<path d="M261 98V1H131.3V23.2161H81V94.1826" stroke="#242938" stroke-width="2"/>
<path d="M162.76 95H58.0006L58 172.838H100.758L141.8 171.61L162.76 170.984V95Z" fill="#CFD0D1"/>
<path d="M222.188 173.896H234.003L234.385 121.143L229.18 122.061L224.551 122.878L222.188 123.295V173.896Z" fill="#CFD0D1"/>
<path d="M240.523 173.896H252.339L252.721 141.964L247.516 142.521L242.887 143.015L240.523 143.267V173.896Z" fill="#CFD0D1"/>
<path d="M277.195 173.896H289.01L289.393 157.969L284.188 158.246L279.559 158.493L277.195 158.619V173.896Z" fill="#CFD0D1"/>
<path d="M258.859 173.896H270.674L271.057 129.533L265.852 130.306L261.223 130.993L258.859 131.344V173.896Z" fill="#CFD0D1"/>
<path d="M283.334 175.743H295.393L317.363 174.96V80H207.554L204 179L241.34 177.67" stroke="#242938" stroke-width="2"/>
<path d="M207.552 80H317.361V99.6588H206.842L207.552 80Z" fill="#242938"/>
<path d="M216.194 94.8507C218.775 94.8507 220.867 92.6024 220.867 89.8289C220.867 87.0554 218.775 84.807 216.194 84.807C213.614 84.807 211.521 87.0554 211.521 89.8289C211.521 92.6024 213.614 94.8507 216.194 94.8507Z" fill="white"/>
<path d="M228.345 94.8507C230.926 94.8507 233.018 92.6024 233.018 89.8289C233.018 87.0554 230.926 84.807 228.345 84.807C225.764 84.807 223.672 87.0554 223.672 89.8289C223.672 92.6024 225.764 94.8507 228.345 94.8507Z" fill="white"/>
<path d="M240.493 94.8507C243.074 94.8507 245.166 92.6024 245.166 89.8289C245.166 87.0554 243.074 84.807 240.493 84.807C237.912 84.807 235.82 87.0554 235.82 89.8289C235.82 92.6024 237.912 94.8507 240.493 94.8507Z" fill="white"/>
<path d="M181.683 120.443L181.123 111.616L153.535 110.388L151.973 118.653C159.117 133.408 178.772 125.81 181.683 120.443Z" fill="#D58B8B"/>
<path d="M181.602 119.427C166.487 129.042 155.63 122.592 152.092 118.159C150.556 120.028 149.688 120.563 147.886 121.43C146.47 122.111 108.227 130.911 98.4121 135.852C88.5975 140.793 79.5841 157.35 75.3779 161.49C71.1716 165.629 45.9342 175.845 18.0261 214.769C-9.88206 253.694 2.53638 269.116 4.07199 298.226C5.60761 327.336 48.6048 340.489 73.1078 347.7C92.7103 353.468 127.615 329.179 142.611 316.32C155.096 333.679 204.57 349.169 217.789 351.839C231.009 354.51 250.238 335.215 272.537 323.531C294.837 311.847 291.766 245.748 284.221 231.728C276.677 217.707 267.33 188.664 258.717 167.632C251.827 150.807 187.878 126.705 185.675 124.702C183.472 122.699 181.602 119.427 181.602 119.427Z" fill="#587291"/>
<path d="M231.878 348.768C229.074 342.025 218.766 324.986 231.745 301.431C247.969 271.988 248.169 276.728 250.573 265.845C252.976 254.962 276.745 253.226 283.221 258.501C288.402 262.72 285.558 267.915 289.764 267.915M194.156 128.641C190.417 137.388 200.245 157.911 205.372 162.024C211.782 167.165 231.01 165.095 235.551 166.898C240.091 168.701 245.031 168.033 246.233 165.029C247.194 162.625 248.036 158.619 249.104 157.217M13.2871 221.713C23.302 227.922 42.851 244.694 43.5988 252.225C44.5335 261.639 29.845 279.131 34.4519 290.281C39.0587 301.431 41.3955 311.393 34.4519 321.327C31.9415 324.919 27.8421 326.468 26.2397 329.006M147.887 321.862C151.426 317.789 146.191 288.599 136.203 289.347C123.718 290.281 78.317 314.317 75.5796 326.535C73.3897 336.31 71.0395 344.295 70.2383 346.832M164.245 249.421C166.782 261.198 178.559 283.832 205.372 280.2C238.889 275.66 211.181 243.345 216.055 231.461C219.954 221.953 207.936 216.545 201.433 215.036C194.93 213.527 161.708 237.643 164.245 249.421ZM94.8082 151.676C90.4951 134.65 126.936 127.346 135.001 131.512C145.083 136.72 146.218 151.676 145.35 151.676C144.482 151.676 135.001 181.453 135.001 193.671C135.001 205.889 105.825 197.01 101.819 188.196C97.8126 179.383 106.345 166.297 100.577 162.024C95.9565 158.606 95.9432 156.162 94.8082 151.676Z" stroke="white" stroke-width="2"/>
<path d="M154.428 121.23C157.058 123.006 164.362 126.078 172.588 124.101" stroke="#242938" stroke-width="2" stroke-linecap="round"/>
<path d="M157.234 125.837C159.037 126.478 163.711 127.707 167.984 127.44" stroke="#242938" stroke-width="2" stroke-linecap="round"/>
<path d="M203.838 192.87C203.677 198.986 203.958 212.993 206.308 220.044" stroke="#242938" stroke-width="2" stroke-linecap="round"/>
<path d="M108.227 183.523C100.416 204.287 84.5254 234.866 84.5254 240.674C84.5254 260.771 108.895 256.404 113.769 255.296" stroke="#242938" stroke-width="2" stroke-linecap="round"/>
<path d="M119.314 281.591C124.176 288.276 140.967 310.864 142.409 313.802" stroke="#242938" stroke-width="2" stroke-linecap="round"/>
<path d="M106.795 135.225L130.658 161.063L111.175 224.197L83.4141 199.36L106.795 135.225Z" fill="white"/>
<path d="M162.148 145.386L128.178 160.582L108.615 224.196L141.21 211.498L162.148 145.386Z" fill="white"/>
<path d="M127.31 137.762L130.661 160.849L110.431 224.197L108.615 203.352L127.31 137.762Z" fill="white"/>
<path d="M130.926 160.328L86.5132 140.312L67.6719 207.839L107.438 226.734L146.749 225.385L171.6 155.548L130.926 160.328Z" fill="#242938"/>
<path d="M121.684 168.353L108.131 216.478" stroke="white" stroke-width="2" stroke-linecap="round"/>
<path d="M131.753 168.42L120.096 216.398" stroke="white" stroke-width="2" stroke-linecap="round"/>
<path d="M80.5874 262.48L117.923 279.839C112.608 262.774 123.424 247.818 129.487 242.477C129.487 242.477 118.297 226.573 108.589 223.569C103.341 221.94 97.6661 223.048 97.6661 223.048C98.8011 221.245 100.751 216.986 99.4955 214.382C98.2403 211.778 93.7536 210.777 91.6705 210.59C79.0251 207.972 78.5844 218.308 79.9464 223.796C72.5488 226.653 75.0592 234.158 77.2358 237.55C69.5977 240.514 74.4583 247.631 77.85 250.823C73.5903 253.413 77.9034 259.662 80.5874 262.48Z" fill="#D58B8B"/>
<path d="M93.0996 216.719C95.5566 221.058 98.6278 224.504 102.701 227.374" stroke="#242938" stroke-width="2" stroke-linecap="round"/>
<path d="M80.1836 224.717C81.1984 226.974 84.3765 232.462 88.9967 236.401" stroke="#242938" stroke-width="2" stroke-linecap="round"/>
<path d="M78.8118 251.544C79.7732 253.533 81.6426 256.03 83.8192 256.698L78.8118 251.544ZM77.7168 238.364C78.064 238.831 79.7732 242.637 83.2584 245.695L77.7168 238.364Z" stroke="#242938" stroke-width="2" stroke-linecap="round"/>
<path d="M190.776 83.7344C194.181 99.8517 183.859 115.675 167.741 119.067C162.04 120.269 153.507 122.405 148.406 120.522C139.112 117.091 134.599 106.462 132.396 96.046C128.991 79.9288 139.313 64.1053 155.43 60.7136C171.547 57.3085 187.371 67.6172 190.776 83.7344Z" fill="#D58B8B"/>
<path d="M127.615 65.2004L131.995 85.9645C134.172 84.1752 136.255 80.1559 146.951 81.104C160.33 82.2791 168.983 71.8903 174.058 75.3888C179.132 78.8874 179.599 84.9096 178.731 88.328C178.731 88.328 178.918 98.8503 180.12 104.125C180.934 107.677 182.71 111.002 182.71 111.002C189.507 105.1 192.205 94.8444 191.59 88.6886L186.823 60.1262L181.829 66.2018L177.463 54.6781L171.427 59.6054L169.624 51.0861L161.626 59.7389L146.256 47L134.505 69.233L127.615 65.2004Z" fill="#242938"/>
<path d="M183.126 98.0225C186.264 98.3697 189.148 95.5522 189.562 91.7465C189.976 87.9409 187.773 84.5625 184.635 84.2153C181.497 83.8682 178.612 86.6857 178.198 90.4913C177.784 94.3103 179.988 97.6753 183.126 98.0225Z" fill="#AD5B5B"/>
<path d="M180.053 91.9333C180.694 90.0906 183.004 87.5401 185.621 87.4467" stroke="#242938" stroke-width="2" stroke-linecap="round"/>
<path d="M184.061 88.0343C184.448 88.4349 185.396 89.7969 185.703 90.7984" stroke="#242938" stroke-width="2" stroke-linecap="round"/>
<path d="M151.279 105.42L155.592 94.8578L159.638 105.126L151.279 105.42Z" fill="#AD5B5B"/>
<path d="M155.069 95.6589L151.104 104.899L158.928 104.472" stroke="#242938" stroke-width="2" stroke-linecap="round"/>
<path d="M157.072 110.708C158.06 110.534 160.504 109.853 162.307 108.465" stroke="#242938" stroke-width="2" stroke-linecap="round"/>
<path d="M160.186 85.9646C161.16 85.7242 163.671 85.3637 165.874 85.9111" stroke="#242938" stroke-width="2" stroke-linecap="round"/>
<path d="M144.762 89.6768C143.774 89.8503 141.33 90.5314 139.527 91.9201" stroke="#242938" stroke-width="2" stroke-linecap="round"/>
<path d="M160.678 119.655C163.175 119.588 167.501 119.014 170.212 115.595" stroke="#242938" stroke-width="2" stroke-linecap="round"/>
<path d="M145.522 98.1826C146.55 97.9689 147.205 96.9541 146.991 95.9392C146.777 94.9244 145.762 94.2567 144.748 94.4704C143.719 94.684 143.065 95.6989 143.279 96.7137C143.492 97.7419 144.507 98.3962 145.522 98.1826Z" fill="#242938"/>
<path d="M163.883 94.3102C164.912 94.0966 165.566 93.0817 165.352 92.0669C165.139 91.0387 164.124 90.3844 163.109 90.598C162.081 90.8117 161.426 91.8265 161.64 92.8414C161.854 93.8696 162.869 94.5239 163.883 94.3102Z" fill="#242938"/>
<path d="M168.597 104.245C170.64 103.818 171.948 101.801 171.521 99.7583C171.094 97.7152 169.078 96.4066 167.035 96.8339C164.991 97.2612 163.683 99.2775 164.11 101.321C164.537 103.377 166.554 104.686 168.597 104.245Z" fill="#AD5B5B"/>
<path d="M144.36 107.303C146.404 106.875 147.712 104.859 147.285 102.816C146.858 100.773 144.841 99.4645 142.798 99.8918C140.755 100.319 139.447 102.335 139.874 104.378C140.301 106.435 142.304 107.743 144.36 107.303Z" fill="#AD5B5B"/>
<path d="M53.7718 42.1999C51.9386 37.5802 46.829 30.6132 40.9784 39.7398C40.7834 36.9417 38.7746 31.4771 32.3974 32.0404C26.0202 32.585 23.7189 40.2281 23.3484 43.9651C22.2563 42.782 19.1164 40.7915 15.372 42.1999C11.6276 43.6083 11.7446 46.2937 12.2711 47.458H68.4375C66.0972 44.7163 59.876 39.8337 53.7718 42.1999Z" stroke="#242938" stroke-width="2"/>
</svg>
