<svg width="317" height="269" viewBox="0 0 317 269" fill="none" xmlns="http://www.w3.org/2000/svg">
<path d="M200.228 37.4576C200.228 50.8027 189.413 61.6173 176.068 61.6173C171.342 61.6173 164.226 61.8769 160.506 59.5409C153.714 55.2692 151.908 46.0876 151.908 37.4684C151.908 24.1232 162.723 13.3087 176.068 13.3087C189.413 13.3087 200.228 24.1124 200.228 37.4576Z" fill="#D58B8B"/>
<path d="M153.271 12.2163V29.4007C155.294 28.3408 157.608 25.5074 165.935 28.0489C176.339 31.2175 184.937 24.426 188.376 28.0489C191.815 31.6717 191.177 36.5275 189.911 39.0905C189.911 39.0905 188.3 47.461 188.376 51.8517C188.419 54.8041 189.284 57.7348 189.284 57.7348C195.654 54.1877 199.504 46.5201 200.055 41.5454L201.05 18.1103L196.076 22.09L194.54 12.2271L188.927 15.1254V8.05272L181.151 13.5682L171.094 0.904297L158.062 16.553L153.271 12.2163Z" fill="#242938"/>
<path d="M187.564 63.6937L187.11 56.5452L164.767 55.5503L163.502 62.2445C169.288 74.1838 185.207 68.0303 187.564 63.6937Z" fill="#D58B8B"/>
<path d="M191.77 47.5043C194.203 48.3046 196.95 46.5635 197.923 43.6111C198.896 40.6587 197.707 37.6198 195.284 36.8195C192.851 36.0193 190.104 37.7604 189.131 40.7128C188.158 43.6652 189.347 46.7041 191.77 47.5043Z" fill="#AD5B5B"/>
<path d="M190.365 42.1619C191.176 40.81 193.437 39.177 195.524 39.5339" stroke="#242938" stroke-width="2" stroke-linecap="round"/>
<path d="M194.193 39.7394C194.442 40.118 194.961 41.3616 195.037 42.2052" stroke="#242938" stroke-width="2" stroke-linecap="round"/>
<path d="M165.309 48.045L170.489 40.3883L171.981 49.2022L165.309 48.045Z" fill="#AD5B5B"/>
<path d="M169.937 40.9398L165.254 47.6016L171.526 48.5749" stroke="#242938" stroke-width="2" stroke-linecap="round"/>
<path d="M169.018 53.1927C169.829 53.2252 171.873 53.0846 173.538 52.2843" stroke="#242938" stroke-width="2" stroke-linecap="round"/>
<path d="M175.613 34.105C176.424 34.0725 178.468 34.2131 180.134 35.0134" stroke="#242938" stroke-width="2" stroke-linecap="round"/>
<path d="M162.767 34.4727C161.955 34.4402 159.912 34.5808 158.246 35.3811" stroke="#242938" stroke-width="2" stroke-linecap="round"/>
<path d="M170.367 60.8819C172.357 61.2387 175.883 61.5199 178.597 59.2489" stroke="#242938" stroke-width="2" stroke-linecap="round"/>
<path d="M161.956 41.34C162.799 41.34 163.491 40.6479 163.491 39.8043C163.491 38.9608 162.799 38.2686 161.956 38.2686C161.112 38.2686 160.42 38.9608 160.42 39.8043C160.42 40.6479 161.112 41.34 161.956 41.34Z" fill="#242938"/>
<path d="M177.161 41.34C178.004 41.34 178.696 40.6479 178.696 39.8043C178.696 38.9608 178.004 38.2686 177.161 38.2686C176.317 38.2686 175.625 38.9608 175.625 39.8043C175.625 40.6479 176.306 41.34 177.161 41.34Z" fill="#242938"/>
<path d="M179.227 50.0024C180.924 50.0024 182.287 48.6289 182.287 46.9419C182.287 45.2548 180.914 43.8813 179.227 43.8813C177.539 43.8813 176.166 45.2548 176.166 46.9419C176.166 48.6289 177.529 50.0024 179.227 50.0024Z" fill="#AD5B5B"/>
<path d="M159.5 48.3802C161.187 48.3802 162.56 47.0068 162.56 45.3197C162.56 43.6326 161.187 42.2592 159.5 42.2592C157.802 42.2592 156.439 43.6326 156.439 45.3197C156.439 47.0068 157.813 48.3802 159.5 48.3802Z" fill="#AD5B5B"/>
<path d="M187.499 62.8717C175.257 70.6582 166.465 65.4348 163.599 61.8443C162.355 63.3584 161.653 63.791 160.193 64.4939C159.046 65.0454 128.073 72.1722 120.125 76.1736C112.176 80.175 104.876 93.5851 101.47 96.9376C98.0629 100.29 77.6234 108.563 55.021 140.088C32.4185 171.612 42.4761 184.103 43.7197 207.679C44.9634 231.254 79.7863 241.907 99.631 247.747C115.507 252.419 143.776 232.747 155.921 222.332C166.032 236.391 206.1 248.936 216.807 251.099C227.513 253.262 243.086 237.635 261.147 228.172C279.207 218.71 276.719 165.177 270.609 153.822C264.499 142.467 256.929 118.945 249.953 101.912C244.373 88.2859 192.582 68.7657 190.798 67.1435C189.013 65.5213 187.499 62.8717 187.499 62.8717Z" fill="#587291"/>
<path d="M228.216 248.612C225.945 243.151 217.596 229.351 228.108 210.274C241.248 186.428 241.41 190.267 243.356 181.453C245.303 172.64 264.553 171.234 269.798 175.505C273.994 178.923 271.691 183.13 275.097 183.13M197.665 70.3338C194.637 77.4173 202.596 94.0393 206.749 97.3702C211.94 101.534 227.513 99.8576 231.19 101.318C234.867 102.777 238.868 102.237 239.842 99.8035C240.62 97.8569 241.302 94.6125 242.167 93.477M51.1816 145.711C59.2926 150.74 75.1251 164.323 75.7307 170.423C76.4877 178.047 64.5917 192.214 68.3227 201.244C72.0537 210.274 73.9463 218.342 68.3227 226.388C66.2896 229.297 62.9695 230.552 61.6718 232.606M160.192 226.821C163.058 223.522 158.819 199.881 150.73 200.487C140.618 201.244 103.849 220.71 101.632 230.606C99.858 238.522 97.9546 244.989 97.3058 247.044M173.44 168.152C175.495 177.69 185.034 196.021 206.749 193.079C233.894 189.402 211.453 163.231 215.401 153.606C218.559 145.906 208.826 141.526 203.559 140.304C198.292 139.082 171.386 158.613 173.44 168.152ZM117.205 88.9889C113.711 75.2004 143.224 69.2848 149.756 72.6589C157.921 76.8766 158.841 88.9889 158.138 88.9889C157.435 88.9889 149.756 113.105 149.756 123.001C149.756 132.896 126.127 125.704 122.882 118.567C119.638 111.429 126.548 100.831 121.876 97.3702C118.135 94.6017 118.124 92.6226 117.205 88.9889Z" stroke="white" stroke-width="2"/>
<path d="M165.49 64.3317C167.621 65.77 173.536 68.2574 180.198 66.6568" stroke="#242938" stroke-width="2" stroke-linecap="round"/>
<path d="M167.764 68.0628C169.224 68.5819 173.009 69.5768 176.469 69.3605" stroke="#242938" stroke-width="2" stroke-linecap="round"/>
<path d="M205.506 122.352C205.377 127.305 205.604 138.649 207.507 144.36" stroke="#242938" stroke-width="2" stroke-linecap="round"/>
<path d="M128.073 114.782C121.746 131.598 108.877 156.353 108.877 161.068C108.877 177.344 128.614 173.808 132.561 172.91" stroke="#242938" stroke-width="2" stroke-linecap="round"/>
<path d="M131.857 188.97C138.379 196.399 151.724 211.842 152.892 214.222" stroke="#242938" stroke-width="2" stroke-linecap="round"/>
<path d="M161.029 123.23L151.73 108.305C147.711 101.854 144.969 94.5721 143.637 86.8155L137.286 49.7717L83.0163 94.7377L114.884 110.638C121.553 113.97 127.446 118.644 132.262 124.428L143.405 137.824C147.012 142.153 153.436 142.521 158.095 138.652C162.747 134.805 164.029 128.051 161.029 123.23Z" fill="white"/>
<path d="M116.274 81.7647C131.417 69.9015 140.134 55.6321 135.744 49.8932C131.354 44.1542 115.52 49.119 100.376 60.9823C85.2331 72.8456 76.5158 87.115 80.9057 92.8539C85.2956 98.5928 101.13 93.628 116.274 81.7647Z" fill="white"/>
<path d="M130.441 146.991L127.068 139.939C126.974 139.743 127.062 139.475 127.257 139.36L146.01 128.319C146.215 128.206 146.454 128.274 146.548 128.47L149.921 135.522C150.015 135.718 149.927 135.986 149.732 136.102L130.979 147.142C130.784 147.258 130.535 147.187 130.441 146.991Z" fill="white"/>
<path d="M135.586 58.3248C133.01 65.2973 126.057 74.2925 116.491 82.2408C106.549 90.49 96.3132 95.5362 89.3395 96.16" stroke="#242938" stroke-width="2" stroke-linecap="round"/>
<path d="M108.347 71.5824C105.896 73.6196 103.329 74.4683 102.617 73.4832C101.906 72.4982 103.321 70.0423 105.772 68.0051C108.222 65.9679 110.793 65.1085 111.501 66.1043C112.209 67.1001 110.797 69.5452 108.347 71.5824Z" stroke="#242938" stroke-width="2" stroke-linecap="round"/>
<path d="M105.685 88.8192L103.114 73.5319C103.828 74.5201 106.406 73.6687 108.867 71.6248C111.328 69.581 112.759 67.1195 112.045 66.1312L124.538 73.1928C117.912 84.1501 105.685 88.8192 105.685 88.8192Z" fill="#242938"/>
<path d="M120.465 106.292C127.222 109.683 133.191 114.441 138.071 120.329L149.36 133.965" stroke="#242938" stroke-width="2" stroke-linecap="round"/>
<path d="M109.688 159.662L130.83 185.455C132.95 171.136 146.1 164.02 152.405 162.258C152.405 162.258 149.831 146.717 143.808 141.115C140.552 138.087 136.021 136.897 136.021 136.897C137.481 135.978 140.401 133.556 140.401 131.22C140.401 128.884 137.481 126.57 136.021 125.704C127.716 119.345 123.768 126.732 122.827 131.22C116.425 130.701 115.614 137.06 116.014 140.304C109.396 139.785 110.445 146.685 111.797 150.199C107.774 150.589 108.714 156.666 109.688 159.662Z" fill="#D58B8B"/>
<path d="M134.896 130.679C135.167 134.713 136.194 138.303 138.152 141.829" stroke="#242938" stroke-width="2" stroke-linecap="round"/>
<path d="M122.667 131.977C122.613 133.978 123.002 139.104 124.992 143.602" stroke="#242938" stroke-width="2" stroke-linecap="round"/>
<path d="M112.23 151.065C112.23 152.849 112.717 155.336 114.069 156.58L112.23 151.065ZM116.07 141.061C116.156 141.526 116.07 144.9 117.53 148.361L116.07 141.061Z" stroke="#242938" stroke-width="2" stroke-linecap="round"/>
<path d="M292.974 27.1188C256.031 -17.0154 200.661 3.45657 166.076 26.816M31.3264 132.842C20.2739 115.539 13.0931 100.193 12.0224 89.2485C11.6062 85.0205 11.4709 80.9542 11.595 77.0511M151.866 37.4792C150.654 38.4958 149.497 39.4907 148.394 40.4748C136.444 28.9898 105.212 6.79827 75.8824 9.86961C55.531 12.0008 36.6292 21.3304 24.653 37.4792M140.348 251.813C141.635 252.819 144.187 254.776 144.187 254.776C147.518 257.307 161.739 263.482 164.951 265.699C204.305 224.376 277.055 138.574 297.419 77.9581M301.918 55.1394C301.766 59.9951 300.977 65.0996 299.647 70.3879" stroke="#242938" stroke-width="2" stroke-linecap="round"/>
<path d="M304.675 65.835H225.404C224.668 64.375 224.506 61.0117 229.784 59.2381C235.061 57.4645 239.484 59.9735 241.031 61.4551C241.539 56.7507 244.794 47.169 253.792 46.4769C262.79 45.7848 265.612 52.6412 265.904 56.1559C274.167 44.6925 281.391 53.4307 283.965 59.2381C292.573 56.2533 301.355 62.3959 304.675 65.835Z" fill="white"/>
<path d="M18.9004 148.09H76.5961C77.1368 147.02 77.245 144.565 73.4058 143.278C69.5666 141.98 66.3439 143.819 65.2192 144.9C64.8515 141.461 62.4831 134.475 55.9295 133.967C49.3758 133.458 47.3211 138.466 47.1156 141.029C41.1027 132.658 35.8468 139.039 33.9759 143.278C27.7034 141.093 21.312 145.582 18.9004 148.09Z" fill="white"/>
<path d="M207.182 73.2645C208.198 72.2912 209.528 71.5774 211.226 71.4477C216.169 71.0692 217.726 74.8434 217.888 76.7901C222.43 70.4636 226.399 75.2868 227.816 78.488C232.553 76.8441 237.376 80.2291 239.204 82.1325H225.145" stroke="#242938" stroke-width="2" stroke-linecap="round"/>
<path d="M151.542 263.06L137.169 268.565C134.13 269.722 130.734 268.208 129.577 265.169L127.209 258.972C126.052 255.933 127.566 252.538 130.605 251.38L144.977 245.876C148.016 244.719 151.412 246.233 152.569 249.272L154.937 255.468C156.095 258.496 154.58 261.892 151.542 263.06Z" fill="#EC5B60"/>
<path d="M137.664 253.024L141.222 262.314L145.386 255.393L137.664 253.024Z" fill="white"/>
<path d="M313.835 51.2028L292.682 46.8662C292.444 46.8121 292.292 46.585 292.335 46.3471L294.974 33.467C295.028 33.229 295.255 33.0776 295.493 33.1209L316.647 37.4575C316.885 37.5116 317.036 37.7387 316.993 37.9766L314.354 50.8568C314.311 51.0947 314.073 51.2461 313.835 51.2028Z" fill="#242938"/>
<path d="M21.0737 70.085H2.01842C0.753116 70.085 -0.20938 68.9279 0.0393546 67.6842L3.17558 51.7219C3.35943 50.781 4.19215 50.0889 5.15464 50.0889H17.9375C18.9 50.0889 19.7327 50.7702 19.9165 51.7219L23.0527 67.6842C23.2907 68.9171 22.339 70.085 21.0737 70.085Z" fill="#242938"/>
<path d="M12.0317 53.8524C10.7881 53.8524 9.77148 52.8466 9.77148 51.5921V48.0774C9.77148 46.8337 10.7772 45.8172 12.0317 45.8172C13.2754 45.8172 14.292 46.8229 14.292 48.0774V51.5921C14.292 52.8466 13.2754 53.8524 12.0317 53.8524Z" stroke="#242938" stroke-width="2" stroke-linecap="round"/>
</svg>
