<svg xmlns="http://www.w3.org/2000/svg" viewBox="0 0 1440 405"><defs><style>.cls-1{fill:#f6eafb;}.cls-2,.cls-3,.cls-5{fill:none;stroke:#000;}.cls-2,.cls-3{stroke-miterlimit:10;}.cls-2,.cls-5{stroke-width:1.5px;}.cls-3,.cls-5{stroke-linecap:round;}.cls-3{stroke-width:2px;}.cls-4{fill:#ecd2f7;}.cls-5{stroke-linejoin:round;}</style></defs><g id="Layer_2" data-name="Layer 2"><g id="Layer_1-2" data-name="Layer 1"><rect class="cls-1" width="1440" height="405"/><path d="M404.73,156.68l.47-11.43c.06-.33.31-.65.64-.5a.73.73,0,0,1,.59.55l1,11.55a1.22,1.22,0,0,1-1.25,1.32,1.7,1.7,0,0,1-1.45-1.49Z"/><path d="M400.2,138l0-6c0-.19.16-.33.3-.27s.32.15.32.34l.67,6.12a.57.57,0,0,1-.65.68,1.05,1.05,0,0,1-.68-.84Z"/><path d="M393.37,159.87l4-.06c.1,0,.24.06.18.2a.19.19,0,0,1-.2.18l-4.11.58a.37.37,0,0,1-.45-.4.69.69,0,0,1,.54-.5Z"/><path d="M397.89,137.74l-.13-3.33c0-.09.1-.18.14-.14a.2.2,0,0,1,.18.2l.56,3.4a.29.29,0,0,1-.3.37.63.63,0,0,1-.45-.5Z"/><path d="M393.49,158.3l2.24-.13c.09,0,.14.05.09.1s-.06.14-.15.13l-2.25.42c-.15.05-.24,0-.28-.2A.61.61,0,0,1,393.49,158.3Z"/><path d="M405.8,158.06l-13.29-2.22a.8.8,0,0,1-.59-.74.83.83,0,0,1,.74-.59l13.37.61a1.53,1.53,0,0,1,1.45,1.68,1.47,1.47,0,0,1-1.68,1.44C405.9,158,405.9,158,405.8,158.06Z"/><path class="cls-2" d="M331.77,180.4s12-21.55,28.56-21.17,15.64,18.62,3.31,16.16c-14-2.77-5.15-25.94,11.58-29.13,17.11-3.26,24.63,3.78,29.58,8.81"/><path d="M939.07,310l.81,14.5c0,.43-.32.87-.75.71a.91.91,0,0,1-.81-.62l-2.68-14.47a1.54,1.54,0,0,1,1.41-1.82,2.15,2.15,0,0,1,2,1.7Z"/><path d="M947.08,333l.7,7.63c0,.24-.16.43-.34.38s-.43-.16-.45-.4l-1.6-7.64a.72.72,0,0,1,.74-.94,1.32,1.32,0,0,1,1,1Z"/><path d="M953,304.52l-5.1.57c-.12,0-.31,0-.26-.23a.26.26,0,0,1,.23-.25l5.13-1.23a.48.48,0,0,1,.63.45.93.93,0,0,1-.63.69Z"/><path d="M950,333l.58,4.19c0,.12-.11.25-.17.19a.24.24,0,0,1-.25-.23L949.07,333a.36.36,0,0,1,.34-.5.77.77,0,0,1,.63.57Z"/><path d="M953.07,306.51l-2.81.45c-.12,0-.19,0-.13-.11a.16.16,0,0,1,.17-.19l2.8-.81c.17-.07.3,0,.37.22A.72.72,0,0,1,953.07,306.51Z"/><path d="M937.54,308.34l17.07,1.17a1,1,0,0,1,.83.86c-.09.49-.38.69-.86.83l-17,.88a1.93,1.93,0,0,1-2-1.95c-.06-1.2.69-1.9,1.95-2C937.42,308.47,937.42,308.47,937.54,308.34Z"/><path class="cls-3" d="M1028.35,271s-12.45,28.71-33.49,30.28-22.06-21.61-6.17-20c18,1.79,9.69,32.15-11.05,38.23-21.22,6.23-31.59-1.74-38.47-7.48"/><path class="cls-2" d="M1147,147.94h-68.89"/><path class="cls-2" d="M1124,163.21h-46.45"/><path class="cls-4" d="M1067,200.49s-1-15.1,16.9-12.5c8.8,2.2,12,4.9,12,4.9s3.4-26.8,20.5-27.8,23.5,6.6,25.4,17.7c0,0,7.6-12.6,16.1-10.1s15.6,12,16.6,16.4c0,0,20.5-9,38.4,11.5H1067Z"/><path class="cls-2" d="M1089.33,125h42.9a30.35,30.35,0,0,1,30.4,30.4v.35a30.41,30.41,0,0,1-30.4,30.48h-39.85l-14.77,17,3-18.32A30.51,30.51,0,0,1,1059,155.75v-.35A30.29,30.29,0,0,1,1089.33,125Z"/><path class="cls-4" d="M367,353.8s-.87-13.14,14.7-10.88c7.65,1.92,10.43,4.26,10.43,4.26s3-23.3,17.84-24.17,20.44,5.74,22.09,15.39c0,0,6.61-11,14-8.78s13.57,10.43,14.44,14.26c0,0,17.83-7.83,33.4,10H367Z"/><path class="cls-5" d="M399.89,301l-8.7,28.44L447,345.36l9-27.83Z"/><path class="cls-5" d="M399.89,301l21.57,24.53,34.53-8"/></g></g></svg>