<svg width="1440" height="1280" viewBox="0 0 1440 1280" fill="none" xmlns="http://www.w3.org/2000/svg">
<rect width="1443" height="1280" fill="#FFFBF7"/>
<path d="M1176.67 646.821C1176.67 648.99 1176.2 653.183 1174.08 653.183C1171.97 653.183 1169 648.966 1169 646.821C1169 644.677 1170.72 642.918 1172.84 642.918C1174.96 642.918 1176.67 644.653 1176.67 646.821Z" fill="black"/>
<path d="M1185.76 649.352C1185.76 650.99 1185.41 654.195 1183.78 654.195C1182.18 654.195 1179.95 650.99 1179.95 649.352C1179.95 647.713 1181.24 646.364 1182.86 646.364C1184.46 646.364 1185.76 647.713 1185.76 649.352Z" fill="black"/>
<path d="M1177.69 659.737C1177.69 661.376 1177.33 664.581 1175.71 664.581C1174.11 664.581 1171.87 661.376 1171.87 659.737C1171.87 658.099 1173.17 656.749 1174.79 656.749C1176.37 656.749 1177.69 658.075 1177.69 659.737Z" fill="black"/>
<path d="M1185.78 659.737C1185.78 661.376 1185.43 664.581 1183.81 664.581C1182.21 664.581 1179.97 661.376 1179.97 659.737C1179.97 658.099 1181.26 656.749 1182.89 656.749C1184.47 656.749 1185.78 658.075 1185.78 659.737Z" fill="black"/>
<path d="M1193.86 659.737C1193.86 661.376 1193.5 664.581 1191.88 664.581C1190.26 664.581 1188.04 661.376 1188.04 659.737C1188.04 658.099 1189.34 656.749 1190.96 656.749C1192.56 656.749 1193.86 658.075 1193.86 659.737Z" fill="black"/>
<path d="M1177.78 670.099C1177.78 671.737 1177.43 674.942 1175.8 674.942C1174.18 674.942 1171.97 671.737 1171.97 670.099C1171.97 668.46 1173.26 667.111 1174.88 667.111C1176.49 667.135 1177.78 668.46 1177.78 670.099Z" fill="black"/>
<path d="M320 576.6C291.9 557.6 273 578.8 267 591.7C273.9 595.8 289.3 603.2 301 598.5C312.7 593.7 319 581.8 320 576.6Z" fill="#D1EAFF"/>
<path d="M295.5 597C302.4 597 308 591.2 308 584C308 576.8 302.4 571 295.5 571C288.6 571 283 576.8 283 584C283 591.2 288.6 597 295.5 597Z" fill="black"/>
<path d="M267 587L258 582" stroke="black" stroke-width="2" stroke-linecap="round"/>
<path d="M273 578L266 572" stroke="black" stroke-width="2" stroke-linecap="round"/>
<path d="M283 571L276 562" stroke="black" stroke-width="2" stroke-linecap="round"/>
<path d="M295 566V557" stroke="black" stroke-width="2" stroke-linecap="round"/>
<path d="M310 569L313 559" stroke="black" stroke-width="2" stroke-linecap="round"/>
<path d="M320 574L325 565" stroke="black" stroke-width="2" stroke-linecap="round"/>
<path d="M397.706 823.464C397.706 827.054 396.926 833.997 393.419 833.997C389.911 833.997 385 827.014 385 823.464C385 819.913 387.845 817 391.353 817C394.861 817 397.706 819.873 397.706 823.464Z" fill="black"/>
<path d="M412.749 827.653C412.749 830.366 412.165 835.672 409.475 835.672C406.825 835.672 403.123 830.366 403.123 827.653C403.123 824.94 405.266 822.705 407.955 822.705C410.606 822.705 412.749 824.94 412.749 827.653Z" fill="black"/>
<path d="M399.381 844.849C399.381 847.562 398.797 852.869 396.108 852.869C393.457 852.869 389.755 847.562 389.755 844.849C389.755 842.136 391.898 839.902 394.588 839.902C397.199 839.902 399.381 842.096 399.381 844.849Z" fill="black"/>
<path d="M412.789 844.849C412.789 847.562 412.204 852.869 409.515 852.869C406.865 852.869 403.162 847.562 403.162 844.849C403.162 842.136 405.306 839.902 407.995 839.902C410.607 839.902 412.789 842.096 412.789 844.849Z" fill="black"/>
<path d="M426.158 844.849C426.158 847.562 425.573 852.869 422.884 852.869C420.194 852.869 416.531 847.562 416.531 844.849C416.531 842.136 418.674 839.902 421.364 839.902C424.014 839.902 426.158 842.096 426.158 844.849Z" fill="black"/>
<path d="M399.537 862.005C399.537 864.718 398.953 870.025 396.264 870.025C393.574 870.025 389.911 864.718 389.911 862.005C389.911 859.292 392.054 857.058 394.744 857.058C397.394 857.098 399.537 859.292 399.537 862.005Z" fill="black"/>
<path d="M1127.54 526L1091.28 531.511L1093.95 550L1130.21 544.489L1127.54 526Z" stroke="black" stroke-width="2"/>
<path d="M1110.66 540.452L1091 532.061L1127.64 526.585L1110.66 540.452Z" fill="black"/>
<path d="M1213.61 857.152C1206.27 878.227 1172.6 917.215 1162.47 905.096C1149.77 889.956 1154.67 846.597 1171.81 844.074C1188.92 841.55 1164.05 904.776 1142.69 900.333C1125.62 896.779 1135.57 878.263 1142.69 869.449C1140.18 881.319 1136.92 897.952 1102 909.076" stroke="black" stroke-width="2" stroke-linecap="round"/>
<path d="M156 260.2C166.1 217.1 212.2 137.5 226.1 162.2C243.5 193.1 236.8 281.7 213.3 286.9C189.8 292.1 224 162.8 253.2 171.9C276.6 179.2 263 217 253.2 235C256.7 210.7 261.1 176.8 309 154" stroke="black" stroke-width="2" stroke-linecap="round"/>
</svg>
