<svg width="184" height="166" viewBox="0 0 184 166" fill="none" xmlns="http://www.w3.org/2000/svg">
<path d="M152.792 68.1277H47.9355V144.273H152.792V68.1277Z" fill="#D1EAFF"/>
<path d="M27.9629 130.246L31.4626 39.0725H139.809V126.518L27.9629 130.246Z" stroke="black" stroke-width="1.2"/>
<path d="M139.81 38.0706H30.959V56.1049H139.81V38.0706Z" fill="black"/>
<path d="M14.9805 161.305V47.0876H101.861V161.305H14.9805Z" stroke="#FFDC4D" stroke-width="1.2"/>
<path d="M52.4652 62.1181L114.583 63.7899C117.56 63.8698 119.911 66.4758 119.835 69.6091C119.759 72.7433 117.284 75.219 114.308 75.1391L52.1897 73.4673C49.2138 73.3875 46.8624 70.7814 46.9383 67.6481C47.0142 64.5139 49.4885 62.0382 52.4652 62.1181Z" stroke="black" stroke-width="1.2"/>
<path d="M42.1841 87.1464L103.453 86.1628C106.388 86.1162 108.805 88.5488 108.851 91.5963C108.896 94.6446 106.553 97.1532 103.617 97.2007L42.3487 98.1843C39.4133 98.2309 36.9962 95.7983 36.9508 92.7508C36.9054 89.7025 39.2487 87.1939 42.1841 87.1464Z" stroke="black" stroke-width="1.2"/>
<path d="M61.4044 100.189L123.523 101.147C126.5 101.193 128.873 103.483 128.824 106.261C128.775 109.039 126.322 111.254 123.345 111.209L61.2263 110.251C58.2493 110.205 55.8768 107.915 55.9255 105.137C55.9751 102.359 58.4274 100.144 61.4044 100.189Z" stroke="black" stroke-width="1.2"/>
<path d="M104.539 110.606C107.001 110.646 109.031 108.679 109.071 106.212C109.112 103.744 107.149 101.711 104.686 101.67C102.224 101.629 100.195 103.596 100.154 106.064C100.113 108.532 102.076 110.565 104.539 110.606Z" fill="#FFDC4D"/>
<path d="M61.125 96.7901C63.5875 96.7519 65.5528 94.7206 65.5148 92.2529C65.4767 89.7853 63.4496 87.8158 60.9871 87.854C58.5246 87.8922 56.5592 89.9235 56.5973 92.3911C56.6354 94.8588 58.6625 96.8282 61.125 96.7901Z" fill="#FFDC4D"/>
<path d="M162.708 159.484C160.948 150.632 152.874 134.263 150.442 139.35C147.402 145.708 148.575 163.909 152.682 164.969C156.788 166.029 150.815 139.474 145.696 141.344C141.6 142.84 143.989 150.611 145.696 154.31C145.092 149.323 144.315 142.342 135.937 137.667" stroke="black" stroke-width="1.2" stroke-linecap="round"/>
<path d="M117.84 54.7346C122.123 32.9337 141.775 -7.38269 147.694 5.14514C155.093 20.8049 152.237 65.6347 142.242 68.2448C132.248 70.8549 146.786 5.45219 159.247 10.058C169.215 13.7427 163.4 32.8823 159.247 41.9916C160.718 29.7095 162.607 12.5146 183 1" stroke="black" stroke-width="1.2" stroke-linecap="round"/>
<path d="M95.355 71.864L97.4523 77.1591L104.78 73.6434L100.068 80.4271L106.134 83.6433L99.1345 84.5035L99.5495 90.1806L95.355 86.3171L89.561 91.6047L91.5761 84.5035L85.9297 83.6433L90.6423 80.4271L88.6852 75.8927L93.2577 77.1591L95.355 71.864Z" fill="black"/>
<path d="M97.6447 70.8516L99.6902 76.1466L106.835 72.6309L102.24 79.4146L108.155 82.6309L101.33 83.491L101.735 89.1681L97.6447 85.3046L91.9956 90.5923L93.9603 83.491L88.4551 82.6309L93.0499 79.4146L91.1417 74.8803L95.5999 76.1466L97.6447 70.8516Z" fill="#FFDC4D"/>
<path d="M12.3079 11.5954C13.7924 12.9686 16.9934 15.3164 18.3447 13.8459C19.6961 12.3754 18.6862 7.64331 17.2017 6.27013C15.7173 4.89702 13.4184 4.97597 12.067 6.4465C10.7156 7.91702 10.8235 10.2223 12.3079 11.5954Z" fill="black"/>
<path d="M8.57639 19.6393C9.68977 20.6692 12.0905 22.4301 13.104 21.3273C14.1175 20.2243 13.3601 16.6753 12.2467 15.6454C11.1334 14.6156 9.40926 14.6748 8.39572 15.7777C7.38217 16.8806 7.46307 18.6095 8.57639 19.6393Z" fill="black"/>
<path d="M20.9475 20.4081C22.0609 21.438 24.4616 23.1989 25.4751 22.096C26.4886 20.9931 25.7312 17.4441 24.6178 16.4142C23.5045 15.3844 21.7803 15.4436 20.7668 16.5465C19.7533 17.6494 19.8342 19.3783 20.9475 20.4081Z" fill="black"/>
<path d="M15.6438 26.1779C16.7572 27.2078 19.1579 28.9687 20.1714 27.8658C21.1849 26.7629 20.4275 23.2139 19.3141 22.184C18.2008 21.1541 16.4766 21.2133 15.4631 22.3163C14.4496 23.4192 14.5305 25.1481 15.6438 26.1779Z" fill="black"/>
<path d="M10.343 31.9465C11.4564 32.9764 13.8571 34.7372 14.8706 33.6344C15.8841 32.5315 15.1267 28.9824 14.0133 27.9525C12.9 26.9227 11.1759 26.9819 10.1623 28.0848C9.14877 29.1877 9.22968 30.9166 10.343 31.9465Z" fill="black"/>
<path d="M28.0158 26.9472C29.1292 27.9771 31.5299 29.738 32.5435 28.6351C33.557 27.5322 32.7996 23.9832 31.6862 22.9533C30.5729 21.9234 28.8487 21.9826 27.8352 23.0855C26.8216 24.1884 26.9025 25.9174 28.0158 26.9472Z" fill="black"/>
<path d="M20.9724 126.238L6.39653 130.607L8.78253 135.135L2.99707 140.635L8.31691 145.275L14.1469 137.873L17.305 139.977L20.9724 126.238Z" fill="#FFDC4D" stroke="black" stroke-width="1.2"/>
<path d="M20.9726 123.233L4.77911 128.524L7.42852 134.004L1 140.663L6.90863 146.277L13.3871 137.317L16.895 139.862L20.9726 123.233Z" stroke="black" stroke-width="1.2"/>
<path d="M39.447 52.0972C41.9288 52.0972 43.9408 50.0787 43.9408 47.5887C43.9408 45.0986 41.9288 43.0801 39.447 43.0801C36.9651 43.0801 34.9531 45.0986 34.9531 47.5887C34.9531 50.0787 36.9651 52.0972 39.447 52.0972Z" fill="white"/>
<path d="M50.9316 52.0972C53.6893 52.0972 55.9248 50.0787 55.9248 47.5887C55.9248 45.0986 53.6893 43.0801 50.9316 43.0801C48.174 43.0801 45.9385 45.0986 45.9385 47.5887C45.9385 50.0787 48.174 52.0972 50.9316 52.0972Z" fill="white"/>
<path d="M63.4147 52.0972C65.8966 52.0972 67.9086 50.0787 67.9086 47.5887C67.9086 45.0986 65.8966 43.0801 63.4147 43.0801C60.9329 43.0801 58.9209 45.0986 58.9209 47.5887C58.9209 50.0787 60.9329 52.0972 63.4147 52.0972Z" fill="white"/>
</svg>
