<svg width="165" height="165" viewBox="0 0 165 165" fill="none" xmlns="http://www.w3.org/2000/svg">
<path d="M159.458 156.498C159.458 157.85 159.105 160.486 157.536 160.486C155.969 160.486 153.78 157.85 153.78 156.498C153.78 155.147 155.051 154.051 156.619 154.051C158.187 154.051 159.458 155.147 159.458 156.498Z" fill="black"/>
<path d="M150.373 157.937C150.373 160.083 149.879 164.271 147.684 164.271C145.488 164.271 142.425 160.083 142.425 157.937C142.425 155.791 144.204 154.051 146.399 154.051C148.594 154.051 150.373 155.791 150.373 157.937Z" fill="black"/>
<path d="M127.663 14.0362C127.663 15.308 127.945 17.7895 129.2 17.7895C130.454 17.7895 132.205 15.308 132.205 14.0362C132.205 12.7644 131.188 11.7334 129.934 11.7334C128.68 11.7334 127.663 12.7644 127.663 14.0362Z" fill="black"/>
<path d="M122.364 15.4973C122.364 16.5306 122.576 18.5468 123.517 18.5468C124.458 18.5468 125.771 16.5306 125.771 15.4973C125.771 14.4639 125.008 13.6262 124.068 13.6262C123.127 13.6262 122.364 14.4639 122.364 15.4973Z" fill="black"/>
<path d="M126.906 21.7877C126.906 22.7415 127.142 24.6026 128.187 24.6026C129.232 24.6026 130.691 22.7415 130.691 21.7877C130.691 20.8338 129.844 20.0605 128.799 20.0605C127.754 20.0605 126.906 20.8338 126.906 21.7877Z" fill="black"/>
<path d="M122.364 21.7877C122.364 22.7415 122.576 24.6026 123.517 24.6026C124.457 24.6026 125.771 22.7415 125.771 21.7877C125.771 20.8338 125.008 20.0605 124.068 20.0605C123.127 20.0605 122.364 20.8338 122.364 21.7877Z" fill="black"/>
<path d="M117.444 21.7877C117.444 22.7415 117.656 24.6026 118.597 24.6026C119.538 24.6026 120.851 22.7415 120.851 21.7877C120.851 20.8338 120.088 20.0605 119.148 20.0605C118.207 20.0605 117.444 20.8338 117.444 21.7877Z" fill="black"/>
<path d="M126.906 27.8438C126.906 28.7976 127.142 30.6588 128.187 30.6588C129.232 30.6588 130.691 28.7976 130.691 27.8438C130.691 26.8899 129.844 26.1167 128.799 26.1167C127.754 26.1167 126.906 26.8899 126.906 27.8438Z" fill="black"/>
<path d="M17.1405 46.7691C17.1405 47.7229 16.905 49.584 15.8598 49.584C14.8145 49.584 13.3555 47.7229 13.3555 46.7691C13.3555 45.8152 14.2028 45.042 15.248 45.042C16.2932 45.042 17.1405 45.8152 17.1405 46.7691Z" fill="black"/>
<path d="M21.6819 46.7691C21.6819 47.7229 21.47 49.584 20.5293 49.584C19.5885 49.584 18.2754 47.7229 18.2754 46.7691C18.2754 45.8152 19.038 45.042 19.9786 45.042C20.9193 45.042 21.6819 45.8152 21.6819 46.7691Z" fill="black"/>
<path d="M26.6028 46.7691C26.6028 47.7229 26.3909 49.584 25.4502 49.584C24.5094 49.584 23.1963 47.7229 23.1963 46.7691C23.1963 45.8152 23.9589 45.042 24.8995 45.042C25.8402 45.042 26.6028 45.8152 26.6028 46.7691Z" fill="black"/>
<path d="M164 46.4522C162.805 41.4267 157.326 32.1331 155.676 35.021C153.613 38.6308 154.409 48.9649 157.196 49.5666C159.983 50.1682 155.929 35.0918 152.455 36.1535C149.676 37.0029 151.297 41.4149 152.455 43.5147C152.045 40.6835 151.518 36.7197 145.832 34.0654" stroke="#FFDC4D" stroke-width="1.2" stroke-linecap="round"/>
<path d="M32.6593 114.649C31.0917 107.908 23.9 95.4404 21.7339 99.3144C19.0263 104.157 20.0713 118.019 23.729 118.827C27.3866 119.634 22.0664 99.4093 17.5063 100.834C13.8581 101.973 15.9862 107.892 17.5063 110.709C16.9679 106.91 16.2763 101.593 8.81348 98.0327" stroke="#FFDC4D" stroke-width="1.2" stroke-linecap="round"/>
<path d="M42.2012 24.2595H96.6986C97.2059 23.0081 97.3153 20.1251 93.687 18.6049C90.0587 17.0845 87.0208 19.2383 85.9545 20.5052C85.6081 16.4727 83.368 8.25953 77.182 7.66626C70.9961 7.07298 69.0533 12.9501 68.8548 15.9629C63.1744 6.13672 58.2108 13.6299 56.4388 18.6049C50.5207 16.0463 44.4812 21.3086 42.2012 24.2595Z" stroke="black" stroke-width="1.2"/>
<path d="M154.917 10.9766H109.712C109.29 10.1509 109.2 8.24853 112.21 7.24538C115.219 6.24222 117.739 7.6634 118.623 8.49932C118.911 5.83851 120.769 0.419022 125.9 0.027546C131.031 -0.36393 132.643 3.51412 132.808 5.50209C137.519 -0.981727 141.636 3.96273 143.107 7.24538C148.016 5.55714 153.025 9.02946 154.917 10.9766Z" fill="#D1EAFF"/>
<path d="M8.93164 88.7201H139.311C140.526 86.8429 140.787 82.5186 132.107 80.2381C123.427 77.9577 116.158 81.1881 113.608 83.0885C112.778 77.0402 107.419 64.7204 92.6194 63.8302C77.8206 62.9404 73.1724 71.7562 72.6981 76.2754C59.109 61.536 47.2331 72.776 42.9938 80.2381C28.8353 76.4004 14.3863 84.2935 8.93164 88.7201Z" fill="#D1EAFF"/>
<path d="M2 85.9204H137.992C139.259 83.4146 139.531 77.6422 130.478 74.5981C121.424 71.554 113.842 75.8662 111.183 78.4029C110.317 70.3292 104.727 53.884 89.2902 52.6956C73.8545 51.5078 69.0062 63.2758 68.5115 69.3083C54.3374 49.6332 41.9502 64.6372 37.5284 74.5981C22.7605 69.4752 7.68947 80.0115 2 85.9204Z" stroke="black" stroke-width="1.2"/>
<path d="M27.3604 29.9019H51.8463C52.0746 29.0762 52.1236 27.1738 50.4934 26.1707C48.8632 25.1675 47.4981 26.5886 47.0193 27.4246C46.8634 24.7638 45.8568 19.3443 43.0775 18.9528C40.2982 18.5613 39.4252 22.4394 39.3361 24.4274C36.7839 17.9435 34.5536 22.888 33.7574 26.1707C31.0984 24.4824 28.3848 27.9547 27.3604 29.9019Z" fill="#D1EAFF"/>
<path d="M101.81 149.022C78.59 149.022 82.0021 152.42 76.1641 154.243C91.6828 154.243 107.201 154.243 122.72 154.243C121.389 149.708 114.633 149.022 101.81 149.022Z" fill="black"/>
<path d="M112.207 151.101C115.106 148.461 120.034 143.24 116.556 143.485C113.077 143.731 112.207 148.665 112.207 151.101Z" stroke="black" stroke-width="1.2"/>
<path d="M112.207 151.101C109.308 148.46 104.38 143.24 107.859 143.485C111.337 143.731 112.207 148.665 112.207 151.101Z" stroke="black" stroke-width="1.2"/>
<path d="M89.9088 150.924C86.3466 147.384 80.2915 140.387 84.5659 140.716C88.8402 141.044 89.9088 147.658 89.9088 150.924Z" stroke="black" stroke-width="1.2"/>
<path d="M90.666 150.546C94.0299 147.137 99.749 140.399 95.7122 140.715C91.6754 141.032 90.666 147.401 90.666 150.546Z" stroke="black" stroke-width="1.2"/>
<path d="M28.8745 155.944C30.1288 155.944 31.1456 155.012 31.1456 153.862C31.1456 152.712 30.1288 151.78 28.8745 151.78C27.6203 151.78 26.6035 152.712 26.6035 153.862C26.6035 155.012 27.6203 155.944 28.8745 155.944Z" fill="black"/>
<path d="M19.9791 163.514C20.7107 163.514 21.3038 162.836 21.3038 162C21.3038 161.164 20.7107 160.486 19.9791 160.486C19.2474 160.486 18.6543 161.164 18.6543 162C18.6543 162.836 19.2474 163.514 19.9791 163.514Z" fill="black"/>
<path d="M50.6382 158.593C51.3699 158.593 51.963 158 51.963 157.269C51.963 156.537 51.3699 155.944 50.6382 155.944C49.9066 155.944 49.3135 156.537 49.3135 157.269C49.3135 158 49.9066 158.593 50.6382 158.593Z" fill="black"/>
<path d="M38.7148 157.836V126.042" stroke="black" stroke-width="1.2" stroke-linecap="round"/>
<path d="M38.7148 126.799C45.9116 126.028 60.4536 120.029 61.0466 102.196C53.6026 103.029 38.7148 109.115 38.7148 126.799Z" stroke="black" stroke-width="1.2"/>
<path d="M39.4717 125.664L59.1539 104.467" stroke="black" stroke-width="1.2" stroke-linecap="round"/>
<path d="M38.7147 127.177C38.5376 121.945 34.9588 111.138 22.0605 109.766C22.2693 115.179 25.8924 126.241 38.7147 127.177Z" fill="black"/>
<path d="M37.9571 126.799L26.9805 114.687" stroke="black" stroke-width="1.2" stroke-linecap="round"/>
<path d="M39.0938 144.19C45.6519 144.521 59.6026 140.98 62.9395 124.167C56.1503 123.858 41.8766 127.429 39.0938 144.19Z" fill="black" stroke="black" stroke-width="1.2"/>
<path d="M39.8506 143.453L52.3412 133.99" stroke="black" stroke-width="1.2" stroke-linecap="round"/>
<path d="M38.7147 149.888C38.5376 144.542 34.9588 133.5 22.0605 132.098C22.2693 137.629 25.8924 148.931 38.7147 149.888Z" stroke="black" stroke-width="1.2"/>
<path d="M37.9582 149.131L30.7666 141.939" stroke="black" stroke-width="1.2" stroke-linecap="round"/>
</svg>
