<svg width="288" height="241" viewBox="0 0 288 241" fill="none" xmlns="http://www.w3.org/2000/svg">
<path d="M80.0167 25.8254C43.7868 1.0279 19.3616 28.6902 11.6777 45.621C20.5856 51.0286 40.389 60.7311 55.4847 54.4738C70.5804 48.2165 78.7247 32.6171 80.0167 25.8254Z" fill="white"/>
<path d="M47.9832 52.9466C57.0257 52.9466 64.3561 45.4597 64.3561 36.224C64.3561 26.9884 57.0257 19.5015 47.9832 19.5015C38.9407 19.5015 31.6104 26.9884 31.6104 36.224C31.6104 45.4597 38.9407 52.9466 47.9832 52.9466Z" fill="#242938"/>
<path d="M12.3898 40.1381L1 34.4453" stroke="#242938" stroke-width="2" stroke-linecap="round"/>
<path d="M20.221 28.7524L10.2549 20.9248" stroke="#242938" stroke-width="2" stroke-linecap="round"/>
<path d="M33.0337 18.7897L25.915 8.11572" stroke="#242938" stroke-width="2" stroke-linecap="round"/>
<path d="M48.6952 13.8088L47.2715 1" stroke="#242938" stroke-width="2" stroke-linecap="round"/>
<path d="M111.627 121.452L110.034 73.7744L156.411 76.1482L159.153 121.452H111.627Z" stroke="#587291" stroke-width="2"/>
<path d="M67.915 15.9437L71.4744 4.55811" stroke="#242938" stroke-width="2" stroke-linecap="round"/>
<path d="M80.0176 22.3481L87.1362 12.3857" stroke="#242938" stroke-width="2" stroke-linecap="round"/>
<path d="M167.695 90.1406H95.7969V162.012H167.695V90.1406Z" fill="white"/>
<path d="M162.881 68.7928L161.288 21.1157L207.665 23.4895L210.407 68.7928H162.881Z" stroke="#242938" stroke-width="2"/>
<path d="M109.568 68.0815L107.898 21.8276H153.432L154.881 68.0815H109.568Z" stroke="#242938" stroke-width="2"/>
<path d="M108.609 57.4077H154.96L155.592 68.0817H108.972L108.609 57.4077Z" fill="#242938"/>
<path d="M58.3159 176.244L56.6445 130.606L100.989 128.567L103.628 176.244H58.3159Z" stroke="#587291" stroke-width="2"/>
<path d="M91.4884 143.802C86.1148 138.464 81.6458 146.862 80.083 151.728C75.5749 148.862 66.1711 144.42 64.6203 149.579C63.0695 154.737 74.2826 162.864 80.083 166.282C86.1238 161.013 96.862 149.14 91.4884 143.802Z" fill="#242938"/>
<path d="M58.3144 120.028L56.6445 73.7744H102.177L103.628 120.028H58.3144Z" stroke="#242938" stroke-width="2"/>
<path d="M165.807 122.163L164.136 75.8435L208.48 73.7744L211.119 122.163H165.807Z" stroke="#242938" stroke-width="2"/>
<path d="M131.39 51.7148C137.68 51.7148 142.78 46.7766 142.78 40.6851C142.78 34.5935 137.68 29.6553 131.39 29.6553C125.099 29.6553 120 34.5935 120 40.6851C120 46.7766 125.099 51.7148 131.39 51.7148Z" fill="white"/>
<path d="M80.2733 83.0254L83.1552 90.2786L93.2244 85.4627L86.7489 94.755L95.0849 99.1606L85.4663 100.339L86.0371 108.115L80.2733 102.823L72.3121 110.066L75.0803 100.339L67.3223 99.1606L73.7978 94.755L71.1087 88.5439L77.3915 90.2786L80.2733 83.0254Z" fill="#242938"/>
<path d="M83.8319 81.6016L86.7138 88.8547L96.783 84.0389L90.3075 93.3312L98.6435 97.7368L89.025 98.915L89.5957 106.692L83.8319 101.399L75.8707 108.642L78.639 98.915L70.8809 97.7368L77.3564 93.3312L74.6673 87.1201L80.9501 88.8547L83.8319 81.6016Z" fill="white"/>
<path d="M142.624 209.944H147.653H149.601C156.577 221.445 171.119 229.582 177.009 231.264C182.898 232.946 190.419 243.901 214.474 240.265C252.801 234.128 256.425 222.309 272.643 207.717C288.862 193.125 291.082 163.396 284.649 152.44C278.216 141.485 279.892 112.301 276.811 102.755C273.731 93.2089 263.945 76.3894 239.935 66.025C220.726 57.7335 197.984 74.7226 189.014 84.2537C176.692 86.2902 159.839 97.4364 152.953 102.755C152.485 103.603 147.299 110.801 130.301 132.803C109.054 160.305 126.677 197.307 130.301 198.444C133.926 199.58 137.867 209.944 142.624 209.944Z" fill="#EC5B60"/>
<path d="M172.678 211.113C172.678 208.66 171.741 206.306 170.072 204.572C168.403 202.837 166.14 201.862 163.78 201.862C161.42 201.862 159.157 202.837 157.488 204.572C155.819 206.306 154.882 208.66 154.882 211.113H158.332C158.332 209.611 158.905 208.17 159.927 207.108C160.949 206.046 162.335 205.449 163.78 205.449C165.225 205.449 166.61 206.046 167.632 207.108C168.654 208.17 169.228 209.611 169.228 211.113H172.678Z" fill="white"/>
<path d="M206.135 191.499C208.039 192.655 210.278 192.923 212.36 192.243C214.442 191.563 216.196 189.992 217.236 187.875C218.276 185.758 218.516 183.267 217.905 180.953C217.294 178.638 215.88 176.689 213.976 175.533L212.456 178.628C213.622 179.336 214.487 180.53 214.861 181.947C215.236 183.364 215.088 184.888 214.452 186.184C213.815 187.481 212.741 188.443 211.467 188.859C210.192 189.275 208.821 189.112 207.655 188.403L206.135 191.499Z" fill="white"/>
<path d="M200.146 215.382C198.033 216.506 196.474 218.388 195.809 220.614C195.144 222.84 195.429 225.229 196.6 227.254C197.773 229.279 199.736 230.774 202.057 231.412C204.38 232.049 206.871 231.776 208.982 230.653L207.269 227.692C205.977 228.38 204.451 228.548 203.03 228.157C201.608 227.767 200.406 226.851 199.688 225.611C198.971 224.371 198.796 222.909 199.204 221.546C199.611 220.183 200.566 219.03 201.859 218.342L200.146 215.382Z" fill="white"/>
<path d="M180.214 147.78C178.102 148.903 176.542 150.785 175.877 153.012C175.212 155.238 175.497 157.627 176.669 159.652C177.841 161.677 179.804 163.172 182.126 163.809C184.448 164.448 186.938 164.174 189.051 163.051L187.338 160.09C186.044 160.778 184.519 160.945 183.098 160.555C181.676 160.164 180.474 159.248 179.756 158.009C179.039 156.769 178.865 155.307 179.272 153.944C179.679 152.58 180.634 151.429 181.927 150.741L180.214 147.78Z" fill="white"/>
<path d="M234.61 131.202C234.293 128.892 233.057 126.8 231.172 125.386C229.287 123.973 226.909 123.354 224.559 123.664C222.21 123.976 220.082 125.192 218.645 127.045C217.207 128.899 216.577 131.238 216.893 133.548L220.328 133.093C220.135 131.679 220.52 130.247 221.4 129.112C222.281 127.977 223.583 127.233 225.021 127.043C226.459 126.852 227.916 127.231 229.07 128.096C230.224 128.962 230.981 130.242 231.175 131.658L234.61 131.202Z" fill="white"/>
<path d="M189.051 89.0575C190.408 90.9912 192.528 92.3394 194.947 92.8071C197.364 93.2748 199.88 92.823 201.943 91.551C204.005 90.2799 205.444 88.2921 205.943 86.0253C206.442 83.7594 205.96 81.3996 204.603 79.4668L201.588 81.3261C202.419 82.5096 202.714 83.9543 202.408 85.3415C202.103 86.7295 201.222 87.9466 199.96 88.7253C198.697 89.5039 197.156 89.7803 195.675 89.4941C194.195 89.2071 192.897 88.3816 192.066 87.1981L189.051 89.0575Z" fill="white"/>
<path d="M265.931 202.195C265.615 199.72 264.379 197.478 262.493 195.964C260.608 194.449 258.23 193.786 255.881 194.118C253.531 194.452 251.403 195.755 249.966 197.741C248.528 199.727 247.899 202.233 248.215 204.708L251.649 204.221C251.456 202.706 251.842 201.171 252.722 199.955C253.602 198.739 254.904 197.942 256.342 197.738C257.781 197.533 259.237 197.94 260.391 198.867C261.546 199.794 262.302 201.166 262.497 202.683L265.931 202.195Z" fill="white"/>
<path d="M257.39 164.578C258.647 166.713 260.684 168.249 263.052 168.851C265.42 169.452 267.925 169.068 270.017 167.785C272.107 166.5 273.613 164.421 274.203 162.004C274.791 159.587 274.416 157.03 273.157 154.896L270.101 156.774C270.871 158.08 271.1 159.645 270.74 161.125C270.379 162.605 269.457 163.879 268.178 164.664C266.897 165.451 265.363 165.685 263.913 165.317C262.464 164.949 261.217 164.008 260.446 162.701L257.39 164.578Z" fill="white"/>
<path d="M251.694 98.628C252.9 100.655 254.852 102.115 257.122 102.687C259.391 103.257 261.792 102.893 263.795 101.673C265.799 100.454 267.242 98.4786 267.806 96.1826C268.371 93.8867 268.011 91.4576 266.805 89.4297L263.876 91.213C264.614 92.4547 264.834 93.9419 264.489 95.3476C264.143 96.7532 263.26 97.9624 262.032 98.7096C260.806 99.4559 259.336 99.6787 257.947 99.3291C256.558 98.9795 255.363 98.0855 254.624 96.8447L251.694 98.628Z" fill="white"/>
<path d="M154.17 116.418C155.428 118.445 157.465 119.905 159.833 120.477C162.201 121.047 164.706 120.683 166.797 119.463C168.888 118.244 170.394 116.269 170.982 113.973C171.572 111.677 171.196 109.248 169.938 107.22L166.881 109.003C167.651 110.245 167.881 111.732 167.521 113.138C167.16 114.543 166.238 115.752 164.957 116.5C163.678 117.246 162.144 117.469 160.694 117.119C159.245 116.77 157.998 115.876 157.227 114.635L154.17 116.418Z" fill="white"/>
<path d="M144.203 145.44C143.156 143.155 141.261 141.388 138.934 140.526C136.607 139.664 134.04 139.778 131.796 140.843C129.552 141.909 127.816 143.838 126.969 146.207C126.122 148.575 126.235 151.189 127.281 153.473L130.561 151.915C129.921 150.517 129.853 148.917 130.371 147.467C130.889 146.017 131.952 144.836 133.326 144.184C134.699 143.531 136.272 143.461 137.696 143.989C139.121 144.516 140.281 145.599 140.922 146.997L144.203 145.44Z" fill="white"/>
<path d="M217.525 109.825L196.628 106.508C195.763 110.079 194.033 117.705 194.033 119.642C194.033 121.578 197.644 126.874 199.451 129.279C201.651 129.219 207.063 128.391 211.106 125.558C215.148 122.726 217.069 113.889 217.525 109.825Z" fill="white"/>
<path d="M152.746 166.199C161.218 170.335 181.396 177.366 194.335 172.403C210.508 166.199 207.654 167.648 211.052 162.802C214.449 157.957 216.126 151.164 220.384 148.628C224.643 146.093 223.782 136.447 220.384 124.854C216.986 113.262 228.629 79.6158 249.56 78.7554" stroke="#242938" stroke-width="2" stroke-linecap="round"/>
<path d="M149.226 172.687L159.864 177.11M144.915 197.889C146.289 199.518 149.376 203.16 150.726 204.708L144.915 197.889ZM145.524 192.683L154.053 197.889L145.524 192.683ZM146.321 186.831L155.881 187.477L146.321 186.831ZM148.102 180.98H156.443H148.102Z" stroke="#242938" stroke-width="2" stroke-linecap="round"/>
<path d="M184.067 89.4297C179.463 92.1492 169.234 101.283 165.153 116.06C160.052 134.531 153.913 141.569 153.597 145.201C153.344 148.106 153.491 157.619 153.597 162.013" stroke="#242938" stroke-width="2" stroke-linecap="round"/>
<path d="M208.983 74.817C213.849 78.1843 226.762 82.4199 233.899 73.0625" stroke="#242938" stroke-width="2" stroke-linecap="round"/>
<path d="M217.525 79.5989C219.193 80.1852 223.523 80.8361 227.491 78.7554" stroke="#242938" stroke-width="2" stroke-linecap="round"/>
<path d="M209.977 64.8403C210.371 69.0745 208.971 71.6954 208.271 73.2587C216.673 80.4776 230.5 80 236.745 69.5343C235.158 67.2353 231.457 62.5627 232.329 57.4077L209.977 64.8403Z" fill="#AD5B5B"/>
<path d="M237.458 44.8697C237.458 56.8096 228.375 66.4889 217.17 66.4889C213.953 66.4889 209.473 67.182 206.771 65.7617C200.06 62.2351 196.882 53.3813 196.882 44.8697C196.882 32.9297 205.965 23.2505 217.17 23.2505C228.375 23.2505 237.458 32.9297 237.458 44.8697Z" fill="#AD5B5B"/>
<path d="M219.586 41.0416C212.526 41.444 207.322 36.7885 205.602 34.4105C204.078 34.0294 201.068 34.8221 201.212 41.0416C201.357 47.2611 199.281 51.5293 198.226 52.886C199.779 57.0811 202.684 61.8823 205.602 64.0902C207.36 65.4204 209.327 66.2616 210.263 66.6055C210.357 68.7025 209.675 70.4011 209.494 70.6299L171.254 76.6207L172.295 73.4652C174.06 68.0232 185.328 62.7183 187.364 60.3403C189.401 57.9622 177.454 47.444 185.328 42.3678C193.202 37.2916 191.302 35.2337 193.926 25.9502C196.026 18.5234 204.968 17.002 209.177 17.1697C220.147 11.2795 231.533 14.1972 234.972 21.0112C237.054 23.8923 236.601 29.38 242.53 28.5112C248.594 27.1392 255.472 30.6605 257.056 34.4105C259.277 39.6696 253.798 46.1178 263.12 47.444C270.578 48.505 277.118 53.1909 279.457 55.4013L264.795 61.7579L260.631 57.5506L259.047 63.45L232.121 70.5841C231.321 69.8981 229.243 67.3646 227.324 62.7183C225.405 58.072 226.524 53.3128 227.324 51.5141C227.686 47.8556 226.645 40.6391 219.586 41.0416Z" fill="#242938"/>
<path d="M209.695 58.1189L210.758 51.0029L213.966 56.9237L209.695 58.1189Z" fill="#804141"/>
<path d="M216.101 67.3515C217.186 67.4552 219.704 67.1772 221.084 65.2354" stroke="#242938" stroke-width="2" stroke-linecap="round"/>
<path d="M210.871 51.7148L209.695 58.1192L213.966 56.8559" stroke="#242938" stroke-width="2" stroke-linecap="round"/>
<path d="M216.101 60.9658L210.406 61.8944C210.968 62.3964 212.398 63.1303 213.487 63.0997C215.286 63.0492 215.787 61.8501 216.101 60.9658Z" stroke="#242938" stroke-width="2"/>
<path d="M204.712 53.8493C205.498 53.8493 206.136 53.2121 206.136 52.4261C206.136 51.6401 205.498 51.0029 204.712 51.0029C203.926 51.0029 203.288 51.6401 203.288 52.4261C203.288 53.2121 203.926 53.8493 204.712 53.8493Z" fill="#242938"/>
<path d="M215.39 51.7146C216.176 51.7146 216.813 51.0774 216.813 50.2914C216.813 49.5054 216.176 48.8682 215.39 48.8682C214.603 48.8682 213.966 49.5054 213.966 50.2914C213.966 51.0774 214.603 51.7146 215.39 51.7146Z" fill="#242938"/>
<path d="M214.679 43.9238C215.85 43.7461 217.392 44.2164 218.238 45.3104" stroke="#242938" stroke-width="2" stroke-linecap="round"/>
<path d="M205.425 46.7334C203.928 46.8276 202.059 47.6274 201.153 48.8682" stroke="#242938" stroke-width="2" stroke-linecap="round"/>
<path d="M231.023 53.1762C233.287 54.1751 236.231 52.4701 237.6 49.3681C238.969 46.2661 238.244 42.9417 235.981 41.9428C233.718 40.944 230.773 42.649 229.404 45.751C228.035 48.853 228.76 52.1774 231.023 53.1762Z" fill="#804141"/>
<path d="M231.051 48.1568C231.638 46.7191 233.363 44.4536 234.61 43.8872" stroke="#242938" stroke-width="2" stroke-linecap="round"/>
<path d="M233.187 44.5986C234.072 45.186 235.25 46.5968 235.322 47.445" stroke="#242938" stroke-width="2" stroke-linecap="round"/>
<path d="M219.305 57.4076C220.288 57.4076 221.085 56.6111 221.085 55.6286C221.085 54.6461 220.288 53.8496 219.305 53.8496C218.322 53.8496 217.525 54.6461 217.525 55.6286C217.525 56.6111 218.322 57.4076 219.305 57.4076Z" fill="#804141"/>
<path d="M203.999 58.1193C204.785 58.1193 205.423 57.4822 205.423 56.6961C205.423 55.9101 204.785 55.2729 203.999 55.2729C203.213 55.2729 202.575 55.9101 202.575 56.6961C202.575 57.4822 203.213 58.1193 203.999 58.1193Z" fill="#804141"/>
<path d="M108.882 126.106L149.898 165.539C142.99 176.246 143.062 190.42 143.961 196.169C121.439 186.001 107.233 173.758 102.946 168.907C100.787 166.177 103.845 163.398 105.644 162.35C103.054 157.5 107.863 155.239 110.591 154.715C109.908 149.972 113.814 149.027 115.853 149.146C113.529 146.885 107.965 140.469 104.295 132.888C100.625 125.307 105.824 125.208 108.882 126.106Z" fill="#AD5B5B"/>
</svg>
