<svg width="243" height="218" viewBox="0 0 243 218" fill="none" xmlns="http://www.w3.org/2000/svg">
<path d="M213.157 107.184H85.7021V198.929H213.157V107.184Z" fill="white"/>
<path d="M52.7402 184.646L57.3472 65.4314H199.972V179.77L52.7402 184.646Z" stroke="#242938" stroke-width="2"/>
<path d="M202.129 64.7375H73.9492V85.8477H202.129V64.7375Z" fill="#242938"/>
<path d="M68.1222 83.0115C71.4597 83.0115 74.1653 80.1829 74.1653 76.6937C74.1653 73.2044 71.4597 70.3759 68.1222 70.3759C64.7847 70.3759 62.0791 73.2044 62.0791 76.6937C62.0791 80.1829 64.7847 83.0115 68.1222 83.0115Z" fill="white"/>
<path d="M83.7797 83.0115C87.2689 83.0115 90.0975 80.1829 90.0975 76.6937C90.0975 73.2044 87.2689 70.3759 83.7797 70.3759C80.2905 70.3759 77.4619 73.2044 77.4619 76.6937C77.4619 80.1829 80.2905 83.0115 83.7797 83.0115Z" fill="white"/>
<path d="M99.7118 83.0115C102.898 83.0115 105.48 80.1829 105.48 76.6937C105.48 73.2044 102.898 70.3759 99.7118 70.3759C96.526 70.3759 93.9434 73.2044 93.9434 76.6937C93.9434 80.1829 96.526 83.0115 99.7118 83.0115Z" fill="white"/>
<path d="M36.8076 104.437V203.874H150.891L151.077 182.152" stroke="#D58B8B" stroke-width="2"/>
<path d="M85.8518 96.1987L167.773 98.2436C171.699 98.3413 174.799 101.529 174.699 105.362C174.599 109.195 171.335 112.224 167.41 112.126L85.4884 110.081C81.5638 109.983 78.4628 106.796 78.5629 102.963C78.663 99.1293 81.9261 96.101 85.8518 96.1987Z" stroke="#242938" stroke-width="2"/>
<path d="M72.2943 128.266L153.281 126.962C157.161 126.901 160.356 130.124 160.417 134.162C160.476 138.202 157.379 141.526 153.499 141.589L72.5119 142.892C68.6318 142.954 65.4368 139.731 65.3768 135.692C65.3168 131.653 68.4142 128.329 72.2943 128.266Z" stroke="#242938" stroke-width="2"/>
<path d="M97.8327 145.092L179.287 146.429C183.19 146.493 186.301 149.689 186.238 153.566C186.173 157.444 182.957 160.536 179.053 160.472L97.5992 159.135C93.6955 159.071 90.5846 155.875 90.6484 151.998C90.7133 148.12 93.929 145.028 97.8327 145.092Z" stroke="#242938" stroke-width="2"/>
<path d="M154.083 159.282C157.324 159.336 159.995 156.754 160.048 153.515C160.102 150.277 157.518 147.609 154.277 147.555C151.036 147.502 148.365 150.083 148.311 153.322C148.258 156.56 150.842 159.229 154.083 159.282Z" fill="#D58B8B"/>
<path d="M96.9409 141.151C100.182 141.101 102.769 138.435 102.719 135.196C102.669 131.958 100.001 129.373 96.7593 129.423C93.5181 129.474 90.9313 132.139 90.9814 135.378C91.0315 138.616 93.6997 141.201 96.9409 141.151Z" fill="#D58B8B"/>
<path d="M56.5847 166.516L20.9508 177.87L26.7808 189.628L12.6348 203.916L25.6368 215.96L39.8927 196.735L47.6119 202.197L56.5847 166.516Z" fill="white" stroke="#242938" stroke-width="2"/>
<path d="M55.4863 172.01L25.1939 181.465L30.1526 191.267L18.1289 203.171L29.1849 213.213L41.3012 197.193L47.8646 201.747L55.4863 172.01Z" fill="#EC5B60" stroke="#242938" stroke-width="2"/>
<path d="M75.0601 109.394C72.6549 108.353 63.9332 104.376 59.873 102.517L70.5502 78.8774C71.4368 78.7659 74.7672 78.5428 80.9962 78.5428C89.3992 78.5428 91.9432 82.2598 95.7592 83.2263C100.924 84.6759 101.464 86.5344 101.348 87.1291C101.233 87.7238 97.9564 89.5823 91.9432 88.43C87.1327 87.5082 86.9839 88.6404 87.5104 89.3221C89.0137 92.3701 95.1811 95.2693 97.648 95.641C100.115 96.0127 108.749 94.8604 106.976 98.4288C105.728 100.94 100.909 101.449 97.8346 101.384C100.175 101.553 103.391 102.11 103.391 103.447C102.405 106.212 99.1513 106.532 97.648 106.346C94.7802 109.409 91.8021 109.654 90.6712 109.394C90.4014 109.914 89.3915 111.119 87.5104 111.773C85.1591 112.591 78.0667 110.695 75.0601 109.394Z" fill="#D58B8B"/>
<path d="M175.598 119.036C177.926 117.952 191.487 112.841 197.718 107.614L179.964 87.2481C179.105 87.132 175.882 86.8997 169.852 86.8997C161.717 86.8997 159.255 90.7715 155.561 91.7782C150.561 93.2882 150.038 95.2242 150.15 95.8437C150.262 96.4632 153.434 98.3991 159.255 97.1988C163.911 96.2386 164.055 97.418 163.546 98.1281C162.09 101.303 157.936 104.476 155.561 104.013C151.785 103.278 144.808 100.55 144.808 104.672C144.808 107.733 150.962 110.461 154.032 110.638C151.885 110.624 148.992 110.416 148.315 112.067C147.905 114.351 149.472 115.126 153.732 115.861C156.508 119.052 159.391 119.307 160.486 119.036C160.747 119.578 161.725 120.833 163.546 121.514C165.822 122.366 172.688 120.391 175.598 119.036Z" fill="#D58B8B"/>
<path d="M168.291 21.2467C155.512 18.4935 141.544 22.3939 136.157 24.6883C123.273 23.5411 95.2772 20.7817 86.3729 18.9214C75.2426 16.596 64.8572 21.2467 60.0138 24.6883C55.1704 28.1298 45.4371 35.5709 33.1889 42.268C4.0354 55.4295 -2.15776 77.5669 0.589889 82.2176C3.33758 86.8684 15.0736 93.9374 35.0051 97.472C49.7447 100.086 57.53 105.487 60.0138 106.262C69.0672 102.02 73.9696 82.6362 75.2891 73.4743L69.2814 67.1958L77.6176 60.7313L83.7192 65.0109H167.687L187.292 73.4743C185.653 74.0324 181.362 79.536 179.422 82.2176C176.851 97.9185 192.073 106.185 200.006 108.355C202.086 108.432 206.843 108.122 209.227 106.262C212.208 103.936 235.633 84.7755 240.709 76.9158C245.785 69.0561 237.729 57.7549 227.762 52.6856C217.796 47.6163 184.265 24.6883 168.291 21.2467Z" fill="#EC5B60"/>
<path d="M190.982 42.2852L192.567 48.5592M151.488 45.8436L157.036 50.1043L151.488 45.8436ZM157.036 36.6668L162.212 32.8275L157.036 36.6668ZM136.287 39.3355L135.168 45.8436L136.287 39.3355ZM112.6 58.8597L121.972 61.7626L112.6 58.8597ZM93.3887 36.6668L97.6319 39.3355L93.3887 36.6668ZM72.6391 52.5858L80.4727 51.4621L72.6391 52.5858ZM64.5724 27.4431L68.1628 32.8275L64.5724 27.4431ZM39.5797 43.5962L35.8028 47.8569L39.5797 43.5962ZM58.1377 71.8759L64.5724 76.5579L58.1377 71.8759ZM47.1801 85.5475C40.018 88.4316 40.3102 88.5281 41.3516 88.2162L47.1801 85.5475ZM19.0166 73.655L21.2548 66.2574L19.0166 73.655ZM194.339 99.9214L201.053 98.7977L194.339 99.9214ZM198.162 73.655L196.344 81.755L198.162 73.655ZM230.756 67.8493L235.232 73.655L230.756 67.8493Z" stroke="#242938" stroke-width="2" stroke-linecap="round"/>
<path d="M190.157 71.071C193.446 67.9954 200.866 61.437 204.243 59.8123" stroke="#242938" stroke-width="2" stroke-linecap="round"/>
<path d="M67.6113 66.1453C56.2944 61.5218 42.3743 57.2092 30.2842 61.7187" stroke="#242938" stroke-width="2" stroke-linecap="round"/>
<path d="M35.2139 54.1832C36.6194 54.1832 40.7 54.8869 45.7781 57.7016" stroke="#242938" stroke-width="2" stroke-linecap="round"/>
<path d="M102.826 21.11C105.549 21.11 107.756 19.0622 107.756 16.5362C107.756 14.0101 105.549 11.9623 102.826 11.9623C100.104 11.9623 97.8965 14.0101 97.8965 16.5362C97.8965 19.0622 100.104 21.11 102.826 21.11Z" fill="#242938"/>
<path d="M102.826 30.2577C105.549 30.2577 107.756 28.0524 107.756 25.332C107.756 22.6116 105.549 20.4062 102.826 20.4062C100.104 20.4062 97.8965 22.6116 97.8965 25.332C97.8965 28.0524 100.104 30.2577 102.826 30.2577Z" fill="#242938"/>
<path d="M98.2488 25.3319C100.777 25.3319 102.827 23.2842 102.827 20.7581C102.827 18.232 100.777 16.1842 98.2488 16.1842C95.7205 16.1842 93.6709 18.232 93.6709 20.7581C93.6709 23.2842 95.7205 25.3319 98.2488 25.3319Z" fill="#242938"/>
<path d="M139.449 20.3096C139.449 31.1376 130.62 39.9155 119.729 39.9155C101.412 41.6778 100.009 31.1376 100.009 20.3096C100.009 9.48165 108.838 0.703857 119.729 0.703857C130.62 0.703857 139.449 9.48165 139.449 20.3096Z" fill="#D58B8B"/>
<path d="M119.916 0C112.124 0 104.953 4.74651 102.121 12.0341L139.448 17.5918C138.118 7.84219 129.88 0 119.916 0Z" fill="#EC5B60"/>
<path d="M138.744 17.5916L88.0352 9.8512" stroke="#242938" stroke-width="2" stroke-linecap="round"/>
<path d="M107.051 35.2942L109.785 40.2919C114.277 49.4098 131.198 46.4754 130.995 35.9846C130.846 28.2739 107.051 35.2942 107.051 35.2942Z" fill="#D58B8B"/>
<path d="M138.039 25.3324C140.762 25.3324 142.969 23.1271 142.969 20.4067C142.969 17.6863 140.762 15.481 138.039 15.481C135.317 15.481 133.109 17.6863 133.109 20.4067C133.109 23.1271 135.317 25.3324 138.039 25.3324Z" fill="#242938"/>
<path d="M142.969 25.332C144.525 25.332 145.787 24.2293 145.787 22.8691C145.787 21.5089 144.525 20.4062 142.969 20.4062C141.414 20.4062 140.152 21.5089 140.152 22.8691C140.152 24.2293 141.414 25.332 142.969 25.332Z" fill="#242938"/>
<path d="M145.083 27.2671C145.083 30.6676 142.47 33.9076 139.202 34.4123C134.773 35.0964 130.997 30.4395 130.997 27.0391C130.997 23.6387 135.953 21.1101 139.202 21.1101C142.45 21.1101 145.083 23.8667 145.083 27.2671Z" fill="#242938"/>
<path d="M101.922 19.645C105.793 20.1318 109.352 17.4815 109.869 13.7254L95.8462 11.9623C95.3294 15.7185 98.0498 19.1582 101.922 19.645Z" fill="#242938"/>
<path d="M109.637 18.2563C112.155 18.5988 114.465 16.6514 114.797 13.9064L105.682 12.666C105.349 15.4109 107.121 17.9138 109.637 18.2563Z" fill="#242938"/>
<path d="M132.423 28.1353C134.381 28.7784 136.603 27.3735 137.384 24.9975C138.166 22.6214 137.212 20.174 135.253 19.531C133.295 18.888 131.074 20.2928 130.292 22.6689C129.511 25.0449 130.465 27.4923 132.423 28.1353Z" fill="#AD5B5B"/>
<path d="M130.997 23.9251C131.776 22.8541 133.938 21.5689 135.927 21.8545" stroke="#242938" stroke-width="2" stroke-linecap="round"/>
<path d="M134.519 21.8141C134.724 22.1371 135.157 23.2004 135.223 23.9251" stroke="#242938" stroke-width="2" stroke-linecap="round"/>
<path d="M110.573 30.7393L114.949 24.629L116.208 31.6658L110.573 30.7393Z" fill="#AD5B5B"/>
<path d="M114.778 25.3322L110.573 30.859L116.208 31.6652" stroke="#242938" stroke-width="2" stroke-linecap="round"/>
<path d="M114.799 35.1815C115.559 35.2049 117.47 35.0973 119.025 34.4801" stroke="#242938" stroke-width="2" stroke-linecap="round"/>
<path d="M120.433 20.4092C121.193 20.3858 123.104 20.4932 124.658 21.1105" stroke="#242938" stroke-width="2" stroke-linecap="round"/>
<path d="M109.163 17.5949C108.529 17.5716 106.938 17.6791 105.642 18.2963" stroke="#242938" stroke-width="2" stroke-linecap="round"/>
<path d="M114.799 38.6113C116.501 38.7476 119.519 38.8498 121.842 37.9982" stroke="#242938" stroke-width="2" stroke-linecap="round"/>
<path d="M107.756 26.0361C108.534 26.0361 109.165 25.5635 109.165 24.9806C109.165 24.3976 108.534 23.925 107.756 23.925C106.978 23.925 106.348 24.3976 106.348 24.9806C106.348 25.5635 106.978 26.0361 107.756 26.0361Z" fill="#242938"/>
<path d="M121.841 26.0361C122.619 26.0361 123.25 25.5635 123.25 24.9806C123.25 24.3976 122.619 23.925 121.841 23.925C121.063 23.925 120.433 24.3976 120.433 24.9806C120.433 25.5635 121.063 26.0361 121.841 26.0361Z" fill="#242938"/>
<path d="M123.955 33.0728C125.122 33.0728 126.068 31.9701 126.068 30.6099C126.068 29.2498 125.122 28.1471 123.955 28.1471C122.788 28.1471 121.842 29.2498 121.842 30.6099C121.842 31.9701 122.788 33.0728 123.955 33.0728Z" fill="#AD5B5B"/>
<path d="M105.995 31.665C107.357 31.665 108.46 30.5623 108.46 29.2021C108.46 27.8419 107.357 26.7393 105.995 26.7393C104.634 26.7393 103.53 27.8419 103.53 29.2021C103.53 30.5623 104.634 31.665 105.995 31.665Z" fill="#AD5B5B"/>
<path d="M156.427 109.787C156.427 109.787 159.968 110.318 163.951 109.185M155.947 114.39C156.98 114.674 162.586 115.028 164.689 114.107M162.586 117.542C163.607 117.507 165.906 117.535 167.086 117.223" stroke="#242938" stroke-width="2" stroke-linecap="round"/>
<path d="M96.0748 102.123C93.7637 102.504 90.2401 102.123 87.3985 100.828M95.1276 107.074C91.945 107.302 85.6556 107.416 82.3215 105.208M89.1413 110.235C85.8451 111.187 80.7908 109.945 79.3662 109.092" stroke="#242938" stroke-width="2" stroke-linecap="round"/>
</svg>
