<svg width="157" height="153" viewBox="0 0 157 153" fill="none" xmlns="http://www.w3.org/2000/svg">
<path d="M145.309 31.6646C143.421 22.0716 134.756 4.33141 132.147 9.84397C128.885 16.7347 130.144 36.461 134.55 37.6094C138.957 38.7578 132.548 9.97912 127.054 12.0058C122.659 13.6271 125.223 22.0491 127.054 26.0574C126.405 20.6529 125.572 13.0868 116.581 8.02002" stroke="black" stroke-width="1.2" stroke-linecap="round"/>
<path d="M110.967 28.8904L112.839 33.7659L119.381 30.5288L115.174 36.7757L120.59 39.7371L114.341 40.5287L114.712 45.7566L110.967 42.199L105.794 47.0681L107.593 40.5287L102.552 39.7371L106.759 36.7757L105.012 32.6001L109.094 33.7659L110.967 28.8904Z" fill="#FFDC4D"/>
<path d="M77.9649 53.1272L78.5894 54.5717L80.7703 53.6125L79.3673 55.4638L81.1731 56.341L79.0898 56.5754L79.2132 58.1247L77.9649 57.0704L76.2406 58.5132L76.8406 56.5754L75.1602 56.341L76.5625 55.4638L75.98 54.2262L77.3411 54.5717L77.9649 53.1272Z" fill="#FFDC4D"/>
<path d="M87.5399 13.4058L88.5111 15.9338L91.9031 14.2553L89.7218 17.4944L92.5302 19.03L89.2894 19.4405L89.4816 22.1512L87.5399 20.3066L84.8581 22.8312L85.7905 19.4405L83.1768 19.03L85.3586 17.4944L84.4522 15.3293L86.5694 15.9338L87.5399 13.4058Z" fill="#FFDC4D"/>
<path d="M29.7295 135.641C30.6518 130.844 34.8832 121.974 36.1576 124.73C37.7507 128.176 37.1358 138.038 34.9838 138.613C32.8318 139.187 35.962 124.798 38.645 125.811C40.7915 126.622 39.5394 130.833 38.645 132.837C38.9618 130.135 39.3687 126.352 43.7596 123.818" stroke="black" stroke-width="1.2" stroke-linecap="round"/>
<path d="M41.7549 83.4233V109.624H55.8905V117.759H69.8151" stroke="black" stroke-width="1.2" stroke-linecap="round"/>
<path d="M130.615 54.074H50.0967V104.11H130.615V54.074Z" fill="#D1EAFF"/>
<path d="M50.105 92.3371C51.7319 92.3371 53.0508 91.0193 53.0508 89.3937C53.0508 87.7682 51.7319 86.4504 50.105 86.4504C48.4781 86.4504 47.1592 87.7682 47.1592 89.3937C47.1592 91.0193 48.4781 92.3371 50.105 92.3371Z" fill="black"/>
<path d="M57.9614 92.3371C59.5883 92.3371 60.9072 91.0193 60.9072 89.3937C60.9072 87.7682 59.5883 86.4504 57.9614 86.4504C56.3345 86.4504 55.0156 87.7682 55.0156 89.3937C55.0156 91.0193 56.3345 92.3371 57.9614 92.3371Z" fill="black"/>
<path d="M65.8169 92.3371C67.4438 92.3371 68.7627 91.0193 68.7627 89.3937C68.7627 87.7682 67.4438 86.4504 65.8169 86.4504C64.19 86.4504 62.8711 87.7682 62.8711 89.3937C62.8711 91.0193 64.19 92.3371 65.8169 92.3371Z" fill="black"/>
<path d="M39 2.66167C39 4.13178 38.6889 7 37.3081 7C35.9274 7 34 4.13178 34 2.66167C34 1.19167 35.1193 0 36.5 0C37.8807 0 39 1.19167 39 2.66167Z" fill="black"/>
<path d="M47 2.66175C47 4.13175 46.6889 7 45.3081 7C43.9274 7 42 4.13175 42 2.66175C42 1.19175 43.1193 0 44.5 0C45.8807 0 47 1.19175 47 2.66175Z" fill="black"/>
<path d="M40 12.2815C40 13.5415 39.6889 16 38.3081 16C36.9274 16 35 13.5415 35 12.2815C35 11.0215 36.1193 10 37.5 10C38.8807 10 40 11.0215 40 12.2815Z" fill="black"/>
<path d="M48 12.2815C48 13.5415 47.6889 16 46.3081 16C44.9274 16 43 13.5415 43 12.2815C43 11.0215 44.1193 10 45.5 10C46.8807 10 48 11.0215 48 12.2815Z" fill="black"/>
<path d="M56 11.2815C56 12.5415 55.6892 15 54.3081 15C52.9274 15 51 12.5415 51 11.2815C51 10.0215 52.1193 9 53.5 9C54.8811 9 56 10.0215 56 11.2815Z" fill="black"/>
<path d="M41 21.6618C41 23.1318 40.6889 26 39.3082 26C37.9275 26 36 23.1318 36 21.6618C36 20.1918 37.1193 19 38.5 19C39.8807 19 41 20.1918 41 21.6618Z" fill="black"/>
<path d="M48 20.6617C48 22.1317 47.6892 25 46.3081 25C44.9277 25 43 22.1317 43 20.6617C43 19.1917 44.1193 18 45.5 18C46.8804 18 48 19.1917 48 20.6617Z" fill="black"/>
<path d="M128.431 131.281L128.361 131.194H128.25H87.4587C79.1905 131.194 72.4873 124.417 72.4873 116.056V96.542C72.4873 88.1817 79.1905 81.4038 87.4587 81.4038H141.028C149.297 81.4038 156 88.1817 156 96.542V116.056C156 124.417 149.297 131.194 141.028 131.194H138.631H138.362L138.399 131.463L140.39 146.036L128.431 131.281Z" stroke="black" stroke-width="1.2"/>
<path d="M121.421 142.184L101.867 135.01L98.3205 144.826L117.874 152L121.421 142.184Z" stroke="black" stroke-width="1.2"/>
<path d="M109.65 144.335L102.14 134.524L121.778 142.022L109.65 144.335Z" fill="black"/>
<path d="M27.6772 79.3965L27.7478 79.3106H27.859H66.8001C75.1068 79.3106 81.8402 72.5659 81.8402 64.2451V46.649C81.8402 38.3286 75.1062 31.5835 66.8001 31.5835H16.04C7.73365 31.5835 1 38.3286 1 46.649V64.2451C1 72.5659 7.73365 79.3106 16.04 79.3106H17.8084H18.0781L18.0412 79.5784L16.117 93.5222L27.6772 79.3965Z" stroke="black" stroke-width="1.2"/>
<path d="M58.9346 48.1875C50.7436 48.1875 33.0691 48.1875 23.585 48.1875" stroke="black" stroke-width="1.2" stroke-linecap="round"/>
<path d="M58.9341 54.074C49.1505 54.074 28.0392 54.074 16.7109 54.074" stroke="black" stroke-width="1.2" stroke-linecap="round"/>
<path d="M58.9341 59.9607C49.1505 59.9607 28.0392 59.9607 16.7109 59.9607" stroke="black" stroke-width="1.2" stroke-linecap="round"/>
<path d="M58.9341 65.8472C49.1505 65.8472 28.0392 65.8472 16.7109 65.8472" stroke="black" stroke-width="1.2" stroke-linecap="round"/>
</svg>
