<svg width="181" height="165" viewBox="0 0 181 165" fill="none" xmlns="http://www.w3.org/2000/svg">
<path d="M100.981 17.0435H19.6211V140.043H141.099V17.0435H121.04" stroke="black" stroke-width="1.2" stroke-linecap="round"/>
<path d="M135.779 69.6304H62.1826V136.478H135.779V69.6304Z" fill="#D1EAFF"/>
<path d="M60.4092 51.8044L67.5028 46.4565M60.5939 46.4565L67.5028 51.8044L60.5939 46.4565Z" stroke="black" stroke-width="1.2" stroke-linecap="round"/>
<path d="M63.8701 45.5084V29.5217H33.8993C33.8993 29.5217 19.4202 85.425 42.2608 103.336C62.0601 118.862 106.71 109.765 106.71 109.765C106.71 109.765 97.4958 81.1921 106.71 79.2352C108.669 78.8192 111.837 79.2352 111.837 79.2352V53.1752" stroke="black" stroke-width="1.2" stroke-linecap="round"/>
<path d="M122.478 67.8478L124.279 20.6086H180.113V65.9136L122.478 67.8478Z" stroke="black" stroke-width="1.2"/>
<path d="M181 20.6086H123.364V30.413H181V20.6086Z" fill="black"/>
<path d="M128.685 26.8479C130.154 26.8479 131.345 25.8503 131.345 24.6196C131.345 23.389 130.154 22.3914 128.685 22.3914C127.215 22.3914 126.024 23.389 126.024 24.6196C126.024 25.8503 127.215 26.8479 128.685 26.8479Z" fill="white"/>
<path d="M134.448 26.8479C135.672 26.8479 136.665 25.8503 136.665 24.6196C136.665 23.389 135.672 22.3914 134.448 22.3914C133.224 22.3914 132.231 23.389 132.231 24.6196C132.231 25.8503 133.224 26.8479 134.448 26.8479Z" fill="white"/>
<path d="M141.099 26.8479C142.568 26.8479 143.759 25.8503 143.759 24.6196C143.759 23.389 142.568 22.3914 141.099 22.3914C139.629 22.3914 138.438 23.389 138.438 24.6196C138.438 25.8503 139.629 26.8479 141.099 26.8479Z" fill="white"/>
<path d="M162.379 60.7173H117.157V104.837" stroke="#FFDC4D" stroke-width="1.2"/>
<path d="M101.197 8.93083C88.5047 0.212229 79.948 9.93804 77.2559 15.8907C80.3764 17.792 87.3144 21.2033 92.6026 19.0033C97.8907 16.8033 100.744 11.3186 101.197 8.93083Z" fill="#D1EAFF"/>
<path d="M89.6698 17.9349C93.0978 17.9349 95.8767 15.341 95.8767 12.1414C95.8767 8.94173 93.0978 6.3479 89.6698 6.3479C86.2418 6.3479 83.4629 8.94173 83.4629 12.1414C83.4629 15.341 86.2418 17.9349 89.6698 17.9349Z" fill="black"/>
<path d="M77.2558 13.4782L73.709 11.6956" stroke="black" stroke-width="1.2" stroke-linecap="round"/>
<path d="M79.9159 9.91293L76.3691 7.23901" stroke="black" stroke-width="1.2" stroke-linecap="round"/>
<path d="M84.3496 6.34793L81.6895 2.78271" stroke="black" stroke-width="1.2" stroke-linecap="round"/>
<path d="M96.7637 5.45652L98.5371 1" stroke="black" stroke-width="1.2" stroke-linecap="round"/>
<path d="M101.197 8.13035L102.971 3.67383" stroke="black" stroke-width="1.2" stroke-linecap="round"/>
<path d="M36.4675 158.933C29.4162 154.028 24.6625 159.499 23.167 162.848C24.9007 163.917 28.7549 165.836 31.6929 164.598C34.631 163.361 36.216 160.276 36.4675 158.933Z" fill="#D1EAFF"/>
<path d="M30.2607 165C32.2195 165 33.8075 163.404 33.8075 161.435C33.8075 159.466 32.2195 157.87 30.2607 157.87C28.3018 157.87 26.7139 159.466 26.7139 161.435C26.7139 163.404 28.3018 165 30.2607 165Z" fill="black"/>
<path d="M23.1679 161.435L21.3945 160.543" stroke="black" stroke-width="1.2" stroke-linecap="round"/>
<path d="M24.9404 159.652L23.167 157.87" stroke="black" stroke-width="1.2" stroke-linecap="round"/>
<path d="M27.6006 156.978L26.7139 156.087" stroke="black" stroke-width="1.2" stroke-linecap="round"/>
<path d="M31.1474 156.087L30.2607 154.304" stroke="black" stroke-width="1.2" stroke-linecap="round"/>
<path d="M34.6943 156.978L35.581 154.304" stroke="black" stroke-width="1.2" stroke-linecap="round"/>
<path d="M36.4678 157.87L38.2412 156.087" stroke="black" stroke-width="1.2" stroke-linecap="round"/>
<path d="M1 150.699C2.39892 143.483 8.81708 130.139 10.7502 134.285C13.1665 139.469 12.2339 154.306 8.96969 155.17C5.70549 156.035 10.4534 134.387 14.523 135.911C17.7788 137.131 15.8796 143.466 14.523 146.481C15.0035 142.416 15.6207 136.724 22.2808 132.913" stroke="black" stroke-width="1.2" stroke-linecap="round"/>
<path d="M111.838 50.913C113.307 50.913 114.498 49.7159 114.498 48.2391C114.498 46.7623 113.307 45.5652 111.838 45.5652C110.369 45.5652 109.178 46.7623 109.178 48.2391C109.178 49.7159 110.369 50.913 111.838 50.913Z" fill="#ED4546"/>
<path d="M173.02 84.8197C173.02 86.3171 173.351 89.2391 174.82 89.2391C176.289 89.2391 178.34 86.3171 178.34 84.8197C178.34 83.3223 177.149 82.1086 175.68 82.1086C174.211 82.1086 173.02 83.3223 173.02 84.8197Z" fill="black"/>
<path d="M166.812 85.9249C166.812 87.048 167.088 89.2392 168.312 89.2392C169.537 89.2392 171.246 87.048 171.246 85.9249C171.246 84.8018 170.254 83.8914 169.029 83.8914C167.805 83.8914 166.812 84.8018 166.812 85.9249Z" fill="black"/>
<path d="M173.02 93.0553C173.02 94.1784 173.24 96.3696 174.22 96.3696C175.199 96.3696 176.566 94.1784 176.566 93.0553C176.566 91.9321 175.772 91.0217 174.793 91.0217C173.813 91.0217 173.02 91.9321 173.02 93.0553Z" fill="black"/>
<path d="M166.812 93.0553C166.812 94.1784 167.088 96.3696 168.312 96.3696C169.537 96.3696 171.246 94.1784 171.246 93.0553C171.246 91.9321 170.254 91.0217 169.029 91.0217C167.805 91.0217 166.812 91.9321 166.812 93.0553Z" fill="black"/>
<path d="M161.493 93.0553C161.493 94.1784 161.714 96.3696 162.693 96.3696C163.673 96.3696 165.04 94.1784 165.04 93.0553C165.04 91.9321 164.246 91.0217 163.267 91.0217C162.287 91.0217 161.493 91.9321 161.493 93.0553Z" fill="black"/>
<path d="M36.4678 21.7508C36.4678 22.8738 36.6885 25.0651 37.6679 25.0651C38.6473 25.0651 40.0146 22.8738 40.0146 21.7508C40.0146 20.6277 39.2206 19.7173 38.2412 19.7173C37.2618 19.7173 36.4678 20.6277 36.4678 21.7508Z" fill="black"/>
<path d="M31.1484 21.7508C31.1484 22.8738 31.3691 25.0651 32.3486 25.0651C33.328 25.0651 34.6952 22.8738 34.6952 21.7508C34.6952 20.6277 33.9012 19.7173 32.9219 19.7173C31.9424 19.7173 31.1484 20.6277 31.1484 21.7508Z" fill="black"/>
<path d="M24.9414 21.7508C24.9414 22.8738 25.2173 25.0651 26.4416 25.0651C27.6659 25.0651 29.3749 22.8738 29.3749 21.7508C29.3749 20.6277 28.3824 19.7173 27.1582 19.7173C25.9339 19.7173 24.9414 20.6277 24.9414 21.7508Z" fill="black"/>
<path d="M172.133 100.186C172.133 101.309 172.408 103.5 173.633 103.5C174.857 103.5 176.566 101.309 176.566 100.186C176.566 99.0625 175.574 98.1521 174.35 98.1521C173.125 98.1521 172.133 99.0625 172.133 100.186Z" fill="black"/>
<path d="M150.852 108.848C150.458 109.525 149.197 112.078 147.306 116.87" stroke="black" stroke-width="1.2" stroke-linecap="round"/>
</svg>
