<svg width="279" height="226" viewBox="0 0 279 226" fill="none" xmlns="http://www.w3.org/2000/svg">
<path d="M271.988 45.0471H120.072V139.234H271.988V45.0471Z" fill="#D1EAFF"/>
<path d="M51.5673 168.948C51.5673 172.893 50.6825 180.591 46.7562 180.591C42.8298 180.591 37.3486 172.893 37.3486 168.948C37.3486 165.002 40.5316 161.803 44.458 161.803C48.3843 161.803 51.5673 165.002 51.5673 168.948Z" fill="black"/>
<path d="M71.526 168.948C71.526 172.893 70.6335 180.591 66.6727 180.591C62.7118 180.591 57.1826 172.893 57.1826 168.948C57.1826 165.002 60.3935 161.803 64.3543 161.803C68.3151 161.803 71.526 165.002 71.526 168.948Z" fill="black"/>
<path d="M91.3554 168.948C91.3554 172.893 90.4706 180.591 86.5443 180.591C82.6179 180.591 77.1367 172.893 77.1367 168.948C77.1367 165.002 80.3197 161.803 84.2461 161.803C88.1724 161.803 91.3554 165.002 91.3554 168.948Z" fill="black"/>
<path d="M136.497 177.967C160.104 177.967 179.242 159.136 179.242 135.908C179.242 112.679 160.104 93.8484 136.497 93.8484C112.889 93.8484 93.751 112.679 93.751 135.908C93.751 159.136 112.889 177.967 136.497 177.967Z" fill="#3D98E7"/>
<path d="M113.992 144.949C113.011 138.92 100.089 135.991 93.751 135.28C93.751 156.464 108.855 173.967 128.441 176.711C128.782 176.516 129.354 175.535 130.009 173.886C130.827 171.824 129.259 168.411 123.466 168.838C120.474 169.058 115.219 152.485 113.992 144.949Z" fill="black"/>
<path d="M160.14 112.82C161.319 109.575 155.764 101.331 152.839 97.6147C161.957 101.347 169.522 108.44 174.212 117.478C173.382 117.804 171.359 118.545 169.898 118.906C168.073 119.356 158.666 116.877 160.14 112.82Z" fill="black"/>
<path d="M150.153 175.809C149.31 173.034 134.437 163.195 142.368 156.209C154.308 145.691 137.251 130.973 137.765 127.053C139.606 113.01 167.859 130.119 177.985 128.194" stroke="black" stroke-width="2"/>
<path d="M96.2578 121.377C107.538 125.757 116.125 119.751 118.545 113.601C121.571 105.913 117.268 103.934 121.974 102.183C125.739 100.782 126.613 96.2458 126.411 95.104" stroke="black" stroke-width="2"/>
<path d="M178.604 42.365C180.836 29.7612 191.073 6.45298 194.156 13.6958C198.01 22.7491 196.524 48.6668 191.316 50.1757C186.11 51.6846 193.684 13.8733 200.174 16.5361C205.368 18.6662 202.338 29.7316 200.174 34.9979C200.941 27.8972 201.926 17.9563 212.55 11.2993" stroke="#FFDC4D" stroke-width="2" stroke-linecap="round"/>
<path d="M219.24 206.512H170.441C169.986 205.473 169.888 203.08 173.137 201.818C176.386 200.556 179.107 202.344 180.061 203.395C180.372 200.048 182.378 193.229 187.917 192.737C193.455 192.244 195.195 197.123 195.373 199.624C200.459 191.467 204.904 197.688 206.491 201.818C211.79 199.694 217.198 204.062 219.24 206.512Z" fill="#D1EAFF"/>
<path d="M37.7969 43.9425H96.6059C97.1542 42.9036 97.2721 40.5102 93.3574 39.248C89.4412 37.9858 86.1629 39.7739 85.0123 40.8257C84.6387 37.478 82.2211 30.6592 75.5451 30.1667C68.8704 29.6741 66.7739 34.5534 66.5594 37.0546C60.4302 28.8968 55.0737 35.1178 53.1604 39.248C46.7741 37.1238 40.2571 41.4926 37.7969 43.9425Z" fill="#D1EAFF"/>
<path d="M87.8299 0L90.5703 6.73486L100.146 2.26325L93.9873 10.8924L101.915 14.9833L92.7674 16.0768L93.3106 23.2984L87.8299 18.3841L80.2584 25.1099L82.891 16.0768L75.5137 14.9833L81.671 10.8924L79.1143 5.12447L85.0881 6.73486L87.8299 0Z" fill="black"/>
<path d="M13.799 170.178L14.9729 172.535L19.0774 170.97L16.4382 173.991L19.8355 175.422L15.9149 175.805L16.1483 178.333L13.799 176.613L10.5544 178.967L11.6816 175.805L8.52051 175.422L11.1597 173.991L10.0636 171.972L12.6236 172.535L13.799 170.178Z" fill="black"/>
<path d="M246.497 35.3834C246.497 38.2836 245.871 43.9425 243.094 43.9425C240.316 43.9425 236.439 38.2836 236.439 35.3834C236.439 32.4832 238.691 30.1321 241.468 30.1321C244.246 30.1321 246.497 32.4832 246.497 35.3834Z" fill="black"/>
<path d="M259.068 37.7177C259.068 39.8268 258.597 43.9424 256.516 43.9424C254.433 43.9424 251.524 39.8268 251.524 37.7177C251.524 35.6083 253.213 33.8984 255.296 33.8984C257.379 33.8984 259.068 35.6083 259.068 37.7177Z" fill="black"/>
<path d="M247.755 52.0056C247.755 54.3784 247.206 59.0084 244.777 59.0084C242.347 59.0084 238.954 54.3784 238.954 52.0056C238.954 49.6326 240.924 47.709 243.354 47.709C245.785 47.709 247.755 49.6326 247.755 52.0056Z" fill="black"/>
<path d="M259.068 52.0056C259.068 54.3784 258.599 59.0084 256.516 59.0084C254.433 59.0084 251.524 54.3784 251.524 52.0056C251.524 49.6326 253.213 47.709 255.296 47.709C257.379 47.709 259.068 49.6326 259.068 52.0056Z" fill="black"/>
<path d="M271.642 52.0056C271.642 54.3784 271.095 59.0084 268.665 59.0084C266.235 59.0084 262.842 54.3784 262.842 52.0056C262.842 49.6326 264.812 47.709 267.242 47.709C269.672 47.709 271.642 49.6326 271.642 52.0056Z" fill="black"/>
<path d="M247.755 66.5941C247.755 68.7033 247.206 72.8189 244.777 72.8189C242.347 72.8189 238.954 68.7033 238.954 66.5941C238.954 64.4848 240.924 62.7749 243.354 62.7749C245.785 62.7749 247.755 64.4848 247.755 66.5941Z" fill="black"/>
<path d="M277.927 70.8906C277.927 75.3728 276.909 84.1183 272.396 84.1183C267.883 84.1183 261.583 75.3728 261.583 70.8906C261.583 66.4084 265.241 62.7749 269.755 62.7749C274.267 62.7749 277.927 66.4084 277.927 70.8906Z" fill="black"/>
<path d="M74.9502 221.26C76.1062 215.257 81.4098 204.158 83.0072 207.607C85.0039 211.918 84.2332 224.26 81.5359 224.979C78.8386 225.697 82.762 207.692 86.1249 208.96C88.8152 209.974 87.2459 215.243 86.1249 217.752C86.5219 214.37 87.0319 209.636 92.5355 206.466" stroke="black" stroke-width="1.2" stroke-linecap="round"/>
<path d="M251.519 188.43L251.452 188.346H251.346H212.164C204.222 188.346 197.783 181.785 197.783 173.691V154.801C197.783 146.708 204.222 140.147 212.164 140.147H263.62C271.562 140.147 278 146.708 278 154.801V173.691C278 181.785 271.562 188.346 263.62 188.346H261.317H261.059L261.094 188.606L263.007 202.713L251.519 188.43Z" stroke="black" stroke-width="1.2"/>
<path d="M162.809 212.311L138.306 203.321L133.867 215.607L158.37 224.597L162.809 212.311Z" stroke="black" stroke-width="1.2"/>
<path d="M148.062 214.989L138.648 202.712L163.263 212.094L148.062 214.989Z" fill="black"/>
<path d="M103.983 61.5091L148.852 45.0474L156.98 67.544L112.111 84.0057L103.983 61.5091Z" stroke="black" stroke-width="1.2"/>
<path d="M148.9 45.187L130.988 67.667L103.778 61.4541" stroke="black" stroke-width="1.2"/>
<path d="M34.437 113.635L34.5255 113.528H34.6649H65.926C76.3375 113.528 84.777 105.088 84.777 94.6762V72.6581C84.777 62.2466 76.3368 53.8064 65.926 53.8064H19.8511C9.43991 53.8064 1 62.2466 1 72.6581V94.6762C1 105.088 9.43991 113.528 19.8511 113.528H22.0676H22.4056L22.3593 113.863L19.9475 131.311L34.437 113.635Z" stroke="black" stroke-width="1.2"/>
<path d="M19.8005 71.3249C28.5133 71.3249 47.314 71.325 57.4023 71.325" stroke="black" stroke-width="1.2" stroke-linecap="round"/>
<path d="M19.8007 78.8328C30.256 78.8328 52.8168 78.8328 64.9229 78.8328" stroke="black" stroke-width="1.2" stroke-linecap="round"/>
<path d="M19.8007 86.3406C30.256 86.3406 52.8168 86.3406 64.9229 86.3406" stroke="black" stroke-width="1.2" stroke-linecap="round"/>
<path d="M19.8007 93.8484C30.256 93.8484 52.8168 93.8484 64.9229 93.8484" stroke="black" stroke-width="1.2" stroke-linecap="round"/>
<path d="M205.303 134.516C205.303 106.487 189.25 82.2018 165.821 70.3239M62.2492 122.003C61.5353 126.067 61.1631 130.248 61.1631 134.516C61.1631 141.692 62.2154 148.623 64.1743 155.163M87.4844 78.9178C92.0345 75.1819 97.0513 71.9917 102.434 69.4478M82.4708 185.59C93.5431 196.559 108.163 203.964 124.459 205.939M156.27 202.712C170.709 197.853 183.101 188.551 191.815 176.435" stroke="black" stroke-width="1.2" stroke-linecap="round" stroke-dasharray="6 6"/>
</svg>
