<svg width="375" height="340" viewBox="0 0 375 340" fill="none" xmlns="http://www.w3.org/2000/svg">
<path d="M95.8535 191.991V250.087H127.12V268.126H157.92" stroke="#242938" stroke-width="1.2" stroke-linecap="round"/>
<path d="M113.231 210.198C116.431 210.198 119.024 207.419 119.024 203.991C119.024 200.563 116.431 197.785 113.231 197.785C110.032 197.785 107.438 200.563 107.438 203.991C107.438 207.419 110.032 210.198 113.231 210.198Z" fill="#242938"/>
<path d="M129.37 210.198C132.798 210.198 135.576 207.419 135.576 203.991C135.576 200.563 132.798 197.785 129.37 197.785C125.942 197.785 123.163 200.563 123.163 203.991C123.163 207.419 125.942 210.198 129.37 210.198Z" fill="#242938"/>
<path d="M144.679 210.198C147.878 210.198 150.471 207.419 150.471 203.991C150.471 200.563 147.878 197.785 144.679 197.785C141.479 197.785 138.886 200.563 138.886 203.991C138.886 207.419 141.479 210.198 144.679 210.198Z" fill="#242938"/>
<path d="M269.639 168.82H152.127V236.68H269.639V168.82Z" fill="white"/>
<path d="M291.488 298.598L291.328 298.403H291.078H198.513C179.75 298.403 164.539 283.13 164.539 264.288V220.313C164.539 201.473 179.75 186.199 198.513 186.199H320.075C338.839 186.199 354.048 201.473 354.048 220.313V264.288C354.048 283.13 338.837 298.403 320.075 298.403H314.634H314.024L314.108 299.009L318.627 331.848L291.488 298.598Z" stroke="#242938" stroke-width="1.2"/>
<path d="M267.207 323.418L236.998 312.419L231.519 327.469L261.728 338.468L267.207 323.418Z" stroke="#242938" stroke-width="1.2"/>
<path d="M141.261 11.1081L99.2842 27.5327L107.467 48.445L149.443 32.0204L141.261 11.1081Z" stroke="#242938" stroke-width="1.2"/>
<path d="M248.246 326.882L236.536 312.814L267.156 323.564L248.246 326.882Z" fill="#242938"/>
<path d="M124.521 32.3263L99.1631 28.3765L141.341 11.3104L124.521 32.3263Z" fill="#242938"/>
<path d="M252.066 257.056C256.051 253.817 255.763 250.397 255.121 249.092L309.983 262.233C310.138 264.512 310.355 270.289 309.983 275.174C309.611 280.058 299.777 296.234 294.906 303.711L290.921 298.866H235.461L219.985 289.774C219.985 288.756 221.075 284.943 225.432 277.828C230.878 268.935 247.084 261.104 252.066 257.056Z" fill="#242938"/>
<path d="M198.741 132.458L199.274 139.856L218.097 138.982C218.239 137.493 218.599 133.876 218.897 131.328C219.271 128.142 225.723 120.847 226.256 119.254C226.789 117.662 226.789 116.583 225.723 116.069C224.87 115.658 220.817 118.021 218.897 119.254L219.964 113.5C220.302 110.332 220.561 103.595 218.897 101.992C217.234 100.389 216 103.619 215.591 105.434C215.769 104.578 215.836 102.547 214.685 101.273C213.533 99.9988 211.93 102.934 211.272 104.561C211.272 103.465 210.941 101.273 209.619 101.273C208.296 101.273 207.219 105.691 206.846 107.9V106.308C206.899 105.075 206.846 102.485 206.206 101.992C205.406 101.376 204.606 102.352 203.7 105.434C202.793 108.517 200.287 118.484 197.727 123.981C195.68 128.379 197.549 131.464 198.741 132.458Z" fill="#AD5B5B"/>
<path d="M216.675 119.994C215.232 120.691 211.889 122.824 210.055 125.787" stroke="#242938" stroke-width="1.2" stroke-linecap="round"/>
<path d="M348.375 280.426C349.036 279.716 348.65 276.344 348.375 274.747L364.728 275.397C364.787 277.074 364.87 280.781 364.728 282.201C364.551 283.976 363.193 292.851 360.832 294.626C358.47 296.401 354.279 301.548 352.862 303.855C351.729 305.701 348.848 309.2 347.549 310.718C346.624 311.449 344.55 312.635 343.652 311.547C342.755 310.458 344.263 306.636 345.128 304.861C343.986 306.439 341.362 309.665 339.992 309.949C337.253 310.423 338.496 306.32 339.461 304.21C338.595 305.314 336.414 307.453 334.62 307.169C332.825 306.885 333.636 303.658 334.266 302.08C333.577 302.751 332.034 303.903 331.373 303.145C330.546 302.199 330.9 300.128 331.373 298.294C331.751 296.827 334.088 292.673 335.21 290.78C334.384 291.135 332.707 291.632 332.613 290.78C332.494 289.715 335.387 286.224 338.634 284.509C341.881 282.793 347.549 281.314 348.375 280.426Z" fill="#AD5B5B"/>
<path d="M335.016 301.233C335.787 299.978 337.792 297.063 339.643 295.435M340.768 303.639C341.665 302.22 343.832 298.988 345.332 297.409M345.77 305.366C346.604 303.988 348.434 301.073 349.084 300.431" stroke="#242938" stroke-width="1.2" stroke-linecap="round"/>
<path d="M336.67 289.643C337.784 288.752 340.832 286.676 344.118 285.505" stroke="#242938" stroke-width="1.2" stroke-linecap="round"/>
<path d="M223.924 145.063C223.527 141.757 221.872 139.112 221.872 139.112C219.621 136.136 201.454 137.657 197.905 138.715C193.47 140.037 195.522 147.046 196.449 150.815C197.376 154.584 202.474 180.37 205.651 187.643C208.194 193.462 217.525 201.264 221.872 204.438C232.686 211.535 254.497 226.482 255.239 229.497C255.98 232.512 252.591 242.39 250.803 246.953C255.239 254.49 264.366 256.209 276.027 256.209C295.756 256.209 304.717 263.592 314.36 266.656C316.942 263.482 314.36 241.266 316.545 237.167C318.729 233.068 341.239 239.613 344.748 243.382C348.257 247.151 344.549 269.83 345.807 273.334C347.065 276.839 345.476 279.021 350.243 279.021C363.484 281.031 372.091 278.183 374.739 276.508C374.298 275.758 372.912 268.798 370.899 246.953C368.383 219.645 366.066 222.092 362.292 219.315C358.444 216.483 332.037 207.612 327.601 206.686C323.165 205.76 306.68 203.512 300.987 201.264C295.293 199.016 269.539 193.66 267.023 190.817C264.508 187.974 237.946 179.237 230.478 167.94C225.976 161.13 224.146 146.914 223.924 145.063Z" fill="#EC5B60"/>
<path d="M205.918 115.029L206.703 109.663M209.677 115.029L211.304 105.926M214.222 115.029L215.849 106.649" stroke="#242938" stroke-width="1.2" stroke-linecap="round"/>
<path d="M287.825 167.993C281.828 167.993 279.021 169.504 274.619 176.954C272.386 180.736 271.113 186.541 273.134 188.467C274.401 189.675 277.412 190.989 280.507 191.959L279.681 194.355L274.619 211.026L298.336 199.773C296.932 199.248 293.999 198.866 293.824 197.949C293.647 197.033 295.621 192.409 296.63 190.211C299.364 187.883 301.086 184.486 301.086 180.706C301.086 173.685 295.15 167.993 287.825 167.993Z" fill="#AD5B5B"/>
<path d="M276.259 182.302L279.569 178.75L279.171 183.716L276.259 182.302Z" fill="#804141"/>
<path d="M278.741 179.579L276.259 181.913L278.556 182.889" stroke="#242938" stroke-width="1.2" stroke-linecap="round"/>
<path d="M278.743 186.278L275.433 184.543C275.473 185.139 275.838 186.266 276.399 186.704C277.328 187.426 278.159 186.779 278.743 186.278Z" stroke="#242938" stroke-width="1.2"/>
<path d="M275.705 177.715C276.143 178.045 276.766 177.956 277.095 177.518C277.424 177.08 277.336 176.458 276.898 176.128C276.46 175.799 275.837 175.887 275.508 176.325C275.179 176.763 275.267 177.386 275.705 177.715Z" fill="#242938"/>
<path d="M282.316 181.016C282.755 181.346 283.377 181.258 283.706 180.819C284.036 180.381 283.948 179.759 283.509 179.429C283.071 179.1 282.449 179.188 282.119 179.626C281.79 180.065 281.878 180.687 282.316 181.016Z" fill="#242938"/>
<path d="M282.879 177.096C283.759 177.148 284.848 177.46 285.362 177.923" stroke="#242938" stroke-width="1.2" stroke-linecap="round"/>
<path d="M277.915 174.613C277.279 174.111 276.24 173.708 275.433 173.798" stroke="#242938" stroke-width="1.2" stroke-linecap="round"/>
<path d="M282.268 184.696C282.72 185.035 283.36 184.944 283.7 184.493C284.039 184.042 283.948 183.401 283.497 183.061C283.045 182.722 282.405 182.813 282.065 183.264C281.726 183.716 281.817 184.356 282.268 184.696Z" fill="#804141"/>
<path d="M274.293 180.709C274.744 181.049 275.385 180.958 275.724 180.507C276.063 180.055 275.972 179.414 275.521 179.075C275.07 178.736 274.429 178.827 274.09 179.278C273.751 179.729 273.841 180.37 274.293 180.709Z" fill="#804141"/>
<path d="M297.068 190.337C299.889 187.996 301.665 184.58 301.665 180.778C301.665 179.879 301.566 179.003 301.379 178.157C309.443 179.939 323.52 179.939 318.07 171.136C313.799 164.236 305.923 171.381 300.416 175.434C298.251 171.041 293.5 167.993 287.985 167.993C283.967 167.993 281.336 168.634 278.742 171.136C279.584 172.971 283.559 175.434 289.575 175.434C294.224 175.434 296.898 177.215 294.91 178.996C293.322 180.42 291.902 182.943 291.392 184.026C290.521 186.13 290.438 190.337 297.068 190.337Z" fill="#242938"/>
<path d="M290.895 187.291C291.996 188.11 293.797 187.551 294.919 186.043C296.041 184.535 296.059 182.65 294.959 181.831C293.859 181.012 292.057 181.571 290.935 183.079C289.813 184.586 289.795 186.472 290.895 187.291Z" fill="#804141"/>
<path d="M291.155 184.543C291.644 183.903 292.868 183.003 293.638 182.888" stroke="#242938" stroke-width="1.2" stroke-linecap="round"/>
<path d="M292.81 182.888C292.81 183.267 292.81 184.097 292.81 184.543" stroke="#242938" stroke-width="1.2" stroke-linecap="round"/>
<path d="M219.158 150.609C219.158 153.354 221.41 155.579 224.19 155.579C224.745 155.579 225.279 155.49 225.779 155.327L223.859 145.648C221.234 145.817 219.158 147.973 219.158 150.609Z" fill="#FEFEFE"/>
<path d="M213.366 190.337C216.565 190.337 219.159 187.928 219.159 184.958C219.159 181.987 216.565 179.579 213.366 179.579C210.167 179.579 207.573 181.987 207.573 184.958C207.573 187.928 210.167 190.337 213.366 190.337Z" fill="#FEFEFE"/>
<path d="M265.087 203.577C268.058 203.577 270.466 201.169 270.466 198.198C270.466 195.227 268.058 192.819 265.087 192.819C262.116 192.819 259.708 195.227 259.708 198.198C259.708 201.169 262.116 203.577 265.087 203.577Z" fill="#FEFEFE"/>
<path d="M267.57 239.989C270.54 239.989 272.949 237.395 272.949 234.196C272.949 230.997 270.54 228.403 267.57 228.403C264.599 228.403 262.19 230.997 262.19 234.196C262.19 237.395 264.599 239.989 267.57 239.989Z" fill="#FEFEFE"/>
<path d="M294.88 251.575C291.452 251.575 288.674 254.159 288.674 257.432C291.777 258.067 297.762 259.62 300.127 260.678C300.709 259.775 301.087 258.642 301.087 257.503C301.087 254.23 298.309 251.575 294.88 251.575Z" fill="#FEFEFE"/>
<path d="M310.603 226.749C313.574 226.749 315.982 224.341 315.982 221.37C315.982 218.399 313.574 215.991 310.603 215.991C307.632 215.991 305.224 218.399 305.224 221.37C305.224 224.341 307.632 226.749 310.603 226.749Z" fill="#FEFEFE"/>
<path d="M344.395 220.126C347.363 220.209 349.834 217.692 349.91 214.507C349.917 214.203 349.901 213.972 349.866 213.681L340.725 210.198C339.788 211.206 339.192 212.672 339.155 214.209C339.078 217.395 341.425 220.044 344.395 220.126Z" fill="#FEFEFE"/>
<path d="M364.808 271.436C368.007 271.436 370.6 268.843 370.6 265.643C370.6 262.444 368.007 259.851 364.808 259.851C361.608 259.851 359.015 262.444 359.015 265.643C359.015 268.843 361.608 271.436 364.808 271.436Z" fill="#FEFEFE"/>
<path d="M63.5212 182.44L63.6808 182.246H63.9324H152.031C170.824 182.246 186.057 167.017 186.057 148.229V108.497C186.057 89.7097 170.822 74.4795 152.031 74.4795H37.1938C18.4018 74.4795 3.16797 89.7097 3.16797 108.497V148.229C3.16797 167.017 18.4018 182.246 37.1938 182.246H41.1945H41.8047L41.7211 182.851L37.3679 214.336L63.5212 182.44Z" stroke="#242938" stroke-width="1.2"/>
<path d="M116.542 182.759L108.469 163.855L41.4548 178.978L36.2695 215.991L63.3771 182.892L116.542 182.759Z" fill="#242938"/>
<path d="M167.494 94.5837L163.842 101.789L146.333 93.0581C146.831 91.503 148.028 87.722 148.829 85.039C149.828 81.6853 146.802 71.6689 146.973 69.8474C147.144 68.0261 147.602 66.9428 148.834 66.872C149.819 66.8154 152.664 70.8789 153.962 72.9178L155.396 66.6959C156.424 63.3742 159.042 56.5021 161.303 55.587C163.566 54.6718 163.364 58.4291 162.98 60.4222C163.176 59.4884 163.976 57.4211 165.612 56.6225C167.247 55.8239 167.521 59.4397 167.455 61.3475C167.921 60.2472 169.168 58.1843 170.423 58.7361C171.68 59.2878 170.824 64.1731 170.239 66.5468L170.916 64.9479C171.39 63.6877 172.541 61.1103 173.359 60.8821C174.382 60.5969 174.726 61.9107 174.276 65.3837C173.826 68.8566 171.968 79.9088 172.061 86.4958C172.136 91.7653 169.048 94.0834 167.494 94.5837Z" fill="#AD5B5B"/>
<path d="M154.609 73.6514C156.168 75.0578 159.509 78.8474 160.402 82.7544" stroke="#242938" stroke-width="1.2" stroke-linecap="round"/>
<path d="M161.229 69.6349L162.716 62.0659M168.334 72.8241L169.505 68.0762L168.334 72.8241ZM165.118 71.3803L166.852 63.2119L165.118 71.3803Z" stroke="#242938" stroke-width="1.2" stroke-linecap="round"/>
<path d="M39.7023 95.4975C48.0861 89.3418 73.4408 83.0747 85.0703 80.7105C90.4428 79.5523 100.989 80.7105 104.637 83.9222C108.285 87.1338 115.515 103.192 118.964 105.132C122.413 107.073 123.739 107.541 131.566 103.192C139.392 98.843 142.178 86.3309 149.342 85.2603C155.072 84.4039 165.171 93.7802 169.505 98.5753C168.643 99.6013 166.534 102.349 164.995 105.132C163.071 108.612 150.204 125.272 142.178 133.368C135.758 139.845 117.394 139.145 109.014 137.985C109.435 139.367 111.057 143.311 114.188 148.022C117.319 152.732 117.836 156.14 117.703 157.255C103.178 175.856 60.7281 177.462 57.8097 177.462C54.8913 177.462 27.1664 184.086 9.85492 177.462C-7.45657 170.838 4.61505 148.624 7.00283 144.141C9.39062 139.658 29.2225 103.192 39.7023 95.4975Z" fill="#242938"/>
<path d="M75.9922 132.499C79.1175 134.124 82.7929 134.5 86.2097 133.545C89.6263 132.59 92.5045 130.382 94.2111 127.406C95.9176 124.431 96.3128 120.933 95.3095 117.681C94.3063 114.428 91.9868 111.689 88.8613 110.064L86.3663 114.414C88.2798 115.408 89.6999 117.086 90.3143 119.077C90.9285 121.068 90.6865 123.21 89.6417 125.032C88.5969 126.854 86.8347 128.205 84.7428 128.79C82.651 129.375 80.4008 129.144 78.4872 128.15L75.9922 132.499Z" fill="#587291"/>
<path d="M38.5571 168.82C39.1497 165.502 38.3767 162.089 36.4084 159.331C34.4401 156.573 31.4376 154.697 28.0614 154.115C24.6853 153.533 21.212 154.292 18.4058 156.226C15.5996 158.16 13.6901 161.112 13.0977 164.429L18.0336 165.28C18.3964 163.25 19.5653 161.443 21.2835 160.258C23.0016 159.074 25.1282 158.609 27.1951 158.966C29.2622 159.322 31.1005 160.471 32.3056 162.159C33.5107 163.848 33.9839 165.937 33.6212 167.969L38.5571 168.82Z" fill="#587291"/>
<path d="M129.481 106.753C128.491 110.058 128.909 113.605 130.642 116.614C132.377 119.624 135.285 121.848 138.726 122.798C142.168 123.75 145.862 123.349 148.996 121.684C152.13 120.019 154.447 117.228 155.437 113.923L150.405 112.533C149.799 114.556 148.38 116.265 146.461 117.285C144.543 118.304 142.281 118.549 140.173 117.967C138.066 117.385 136.285 116.023 135.224 114.181C134.163 112.338 133.907 110.167 134.514 108.143L129.481 106.753Z" fill="#587291"/>
<path d="M87.9843 177.096C89.8564 174.223 90.497 170.733 89.765 167.393C89.0332 164.052 86.9889 161.136 84.0817 159.286C81.1745 157.436 77.6429 156.803 74.2634 157.526C70.884 158.249 67.9336 160.27 66.0615 163.142L70.3118 165.848C71.458 164.09 73.2644 162.852 75.3334 162.409C77.4025 161.966 79.5648 162.354 81.3446 163.487C83.1246 164.619 84.3762 166.405 84.8243 168.45C85.2724 170.494 84.8801 172.632 83.734 174.392L87.9843 177.096Z" fill="#587291"/>
<path d="M94.6663 92.2735C97.9567 93.1344 101.449 92.6336 104.376 90.8812C105.532 90.1887 106.563 89.3233 107.439 88.3236C107.439 88.3236 106.41 86.7222 105.793 85.8817C105.207 85.0828 104.376 84.1233 104.376 84.1233C103.729 85.1006 102.87 85.9296 101.851 86.5394C100.059 87.6123 97.921 87.9189 95.9065 87.3918C93.892 86.8648 92.1664 85.5472 91.1091 83.729C90.4905 82.6653 90.1305 81.481 90.0422 80.272C88.364 80.272 86.2628 80.492 85.0947 80.734C85.25 82.6776 85.8356 84.5797 86.8306 86.291C88.5574 89.2608 91.3761 91.4128 94.6663 92.2735Z" fill="#587291"/>
<path d="M31.0787 128.937C27.6658 129.475 24.1771 128.649 21.3802 126.644C20.4414 125.97 19.6064 125.184 18.8906 124.307L21.8244 119.601C22.3924 120.784 23.2551 121.821 24.3473 122.604C26.0598 123.831 28.1956 124.337 30.2851 124.009C32.3747 123.679 34.2466 122.545 35.4891 120.852C36.7316 119.161 37.2431 117.05 36.9108 114.986L41.9003 114.202C42.4431 117.574 41.6078 121.021 39.5784 123.784C37.5489 126.548 34.4915 128.402 31.0787 128.937Z" fill="#587291"/>
<path d="M107.439 134.89C102.283 125.452 102.039 114.934 99.1631 105.926" stroke="#242938" stroke-width="1.2" stroke-linecap="round"/>
<path d="M53.648 111.719C53.1745 117.537 46.8175 142.358 44.5449 149.787" stroke="#242938" stroke-width="1.2" stroke-linecap="round"/>
<path d="M35.4414 148.958C41.2355 149.787 54.6436 152.108 61.9231 154.751" stroke="#242938" stroke-width="1.2" stroke-linecap="round"/>
<path d="M61.6283 159.45C54.9798 162.724 51.7412 172.61 54.8196 175.074L63.9462 176.64C70.4772 177.124 84.5389 178.056 88.5372 177.907C92.5355 177.758 92.6418 175.956 92.1951 175.074C92.9435 175.074 94.6723 174.947 95.5994 174.44C97.5116 173.485 96.9032 171.954 96.36 171.307C96.7704 171.307 98.3533 171.307 99.0038 169.852C99.8434 167.973 97.1809 166.808 95.5994 166.72C96.0581 166.137 96.4635 165.091 94.9838 164.26C92.1951 162.692 85.8571 161.985 83.5394 161.985C83.2206 160.285 80.8714 159.587 79.7366 159.45C75.2578 158.506 68.3284 158.928 61.6283 159.45Z" fill="#AD5B5B"/>
<path d="M81.7856 162.2C80.1509 161.818 78.3651 161.274 76.8203 161.387" stroke="#242938" stroke-width="1.2" stroke-linecap="round"/>
<path d="M94.1984 167.165C91.3222 166.374 85.1155 165.206 81.7852 165.583" stroke="#242938" stroke-width="1.2" stroke-linecap="round"/>
<path d="M94.1986 169.648C91.7058 169.252 86.3268 168.668 83.4404 168.857" stroke="#242938" stroke-width="1.2" stroke-linecap="round"/>
<path d="M90.8882 173.785C88.779 172.995 84.2274 171.826 81.7852 172.203" stroke="#242938" stroke-width="1.2" stroke-linecap="round"/>
<path d="M68.6339 55.4458C74.2888 55.4458 76.9346 56.9768 81.0851 64.5257C83.1918 68.3573 84.3921 74.2391 82.4858 76.1923C81.2915 77.4161 78.4532 78.7466 75.534 79.7294L76.3122 82.1575C76.3122 82.1575 80.1217 84.7155 77.4352 88.7826C72.0916 96.8723 62.1154 90.6333 62.979 85.8C63.1451 84.871 61.2843 80.1857 60.3332 77.9592C57.7552 75.5998 56.1309 72.1586 56.1309 68.3266C56.1309 61.2128 61.7287 55.4458 68.6339 55.4458Z" fill="#AD5B5B"/>
<path d="M80.1305 69.991L76.8203 67.0317L77.2174 71.1695L80.1305 69.991Z" fill="#804141"/>
<path d="M76.8203 67.0312L80.1305 69.9495L77.0682 71.169" stroke="#242938" stroke-width="1.2" stroke-linecap="round"/>
<path d="M77.6475 73.7318L80.9577 71.9966C80.9176 72.5923 80.5526 73.7202 79.9907 74.1571C79.0623 74.8788 78.2316 74.2323 77.6475 73.7318Z" stroke="#242938" stroke-width="1.2"/>
<path d="M80.7852 65.5901C80.347 65.9196 79.7247 65.8314 79.3953 65.3931C79.0659 64.9549 79.1541 64.3326 79.5923 64.0032C80.0305 63.6738 80.6528 63.762 80.9822 64.2002C81.3116 64.6384 81.2234 65.2607 80.7852 65.5901Z" fill="#242938"/>
<path d="M74.1739 68.8909C73.7357 69.2203 73.1134 69.1321 72.784 68.6939C72.4545 68.2557 72.5427 67.6334 72.9809 67.304C73.4192 66.9746 74.0415 67.0628 74.3709 67.501C74.7003 67.9392 74.6121 68.5615 74.1739 68.8909Z" fill="#242938"/>
<path d="M72.6819 64.5488C71.8022 64.6007 70.7133 64.9139 70.1992 65.3764" stroke="#242938" stroke-width="1.2" stroke-linecap="round"/>
<path d="M77.6475 62.0658C78.2837 61.5625 79.3225 61.1609 80.1301 61.251" stroke="#242938" stroke-width="1.2" stroke-linecap="round"/>
<path d="M74.22 72.5712C73.7687 72.9104 73.1279 72.8196 72.7886 72.3683C72.4494 71.9171 72.5402 71.2762 72.9915 70.937C73.4428 70.5978 74.0836 70.6886 74.4228 71.1399C74.7621 71.5911 74.6712 72.232 74.22 72.5712Z" fill="#804141"/>
<path d="M82.1965 68.5834C81.7453 68.9226 81.1044 68.8318 80.7652 68.3805C80.426 67.9293 80.5168 67.2884 80.9681 66.9492C81.4193 66.61 82.0602 66.7008 82.3994 67.1521C82.7386 67.6033 82.6478 68.2442 82.1965 68.5834Z" fill="#804141"/>
<path d="M60.2809 77.7897C57.7352 75.448 56.1312 72.0328 56.1312 68.2296C56.1312 67.3318 56.1132 66.5364 56.3342 65.4377C56.5551 64.3391 57.2585 62.8856 57.2585 62.8856C59.2129 58.4941 63.5015 55.4458 68.4778 55.4458C72.1048 55.4458 74.4783 56.0869 76.8197 58.5893C76.0599 60.4231 72.4736 62.8856 67.0431 62.8856C62.8484 62.8856 60.4344 64.6669 62.2275 66.4483C63.662 67.8734 64.9427 70.3952 65.4038 71.478C66.1894 73.5818 66.2647 77.7897 60.2809 77.7897Z" fill="#242938"/>
<path d="M65.5967 75.1664C64.4967 75.985 62.6953 75.4264 61.5733 73.9187C60.4513 72.4109 60.4335 70.525 61.5335 69.7064C62.6336 68.8878 64.435 69.4464 65.557 70.9541C66.679 72.4619 66.6968 74.3478 65.5967 75.1664Z" fill="#804141"/>
<path d="M65.2336 71.9964C64.7442 71.3563 63.5199 70.4558 62.751 70.3413" stroke="#242938" stroke-width="1.2" stroke-linecap="round"/>
<path d="M63.5785 71.1689C63.1182 71.3582 62.6402 71.7733 62.7737 71.9965" stroke="#242938" stroke-width="1.2" stroke-linecap="round"/>
</svg>
