<svg width="393" height="384" viewBox="0 0 393 384" fill="none" xmlns="http://www.w3.org/2000/svg">
<path d="M62.8378 124.229C34.8135 105.326 15.9202 126.413 9.97656 139.32C16.8669 143.44 32.1852 150.837 43.862 146.067C55.5387 141.297 61.8384 129.406 62.8378 124.229Z" fill="white"/>
<path d="M38.4009 144.623C45.2864 144.623 50.8682 138.818 50.8682 131.657C50.8682 124.496 45.2864 118.691 38.4009 118.691C31.5154 118.691 25.9336 124.496 25.9336 131.657C25.9336 138.818 31.5154 144.623 38.4009 144.623Z" fill="#242938"/>
<path d="M9.97644 134.649L1 129.662" stroke="#242938" stroke-width="2" stroke-linecap="round"/>
<path d="M15.9602 125.673L8.97852 119.688" stroke="#242938" stroke-width="2" stroke-linecap="round"/>
<path d="M25.9328 118.691L18.9512 109.714" stroke="#242938" stroke-width="2" stroke-linecap="round"/>
<path d="M37.9023 113.704V104.728" stroke="#242938" stroke-width="2" stroke-linecap="round"/>
<path d="M52.8652 116.696L55.8574 106.722" stroke="#242938" stroke-width="2" stroke-linecap="round"/>
<path d="M62.8379 121.683L67.8248 112.707" stroke="#242938" stroke-width="2" stroke-linecap="round"/>
<path d="M366.042 269.047C356.978 249.418 339.659 255.087 332.131 260.376C334.534 264.908 340.46 273.997 348.428 275.11C356.394 276.223 363.779 271.617 366.042 269.047Z" fill="white"/>
<path d="M346.304 272.584C350.205 274.895 355.241 273.605 357.552 269.704C359.862 265.802 358.573 260.767 354.672 258.456C350.77 256.145 345.734 257.435 343.424 261.336C341.113 265.237 342.402 270.273 346.304 272.584Z" fill="#242938"/>
<path d="M335.124 257.327L331.135 252.34" stroke="#242938" stroke-width="2" stroke-linecap="round"/>
<path d="M340.111 254.335L339.113 249.348" stroke="#242938" stroke-width="2" stroke-linecap="round"/>
<path d="M349.086 254.335V248.351" stroke="#242938" stroke-width="2" stroke-linecap="round"/>
<path d="M356.068 256.33L359.061 250.346" stroke="#242938" stroke-width="2" stroke-linecap="round"/>
<path d="M364.047 262.314L368.036 257.327" stroke="#242938" stroke-width="2" stroke-linecap="round"/>
<path d="M367.041 267.301L374.023 265.307" stroke="#242938" stroke-width="2" stroke-linecap="round"/>
<path d="M270.293 15.5865C263.895 1.84613 251.668 5.81531 246.355 9.51746C248.051 12.6902 252.234 19.0523 257.859 19.831C263.481 20.6097 268.695 17.3851 270.293 15.5865Z" fill="#587291"/>
<path d="M255.914 18.0639C258.632 19.6734 262.139 18.7752 263.749 16.0577C265.358 13.3402 264.46 9.83242 261.743 8.2229C259.025 6.61337 255.517 7.51158 253.908 10.2291C252.298 12.9466 253.197 16.4544 255.914 18.0639Z" fill="#242938"/>
<path d="M247.354 7.98172L245.359 3.99219" stroke="#242938" stroke-width="2" stroke-linecap="round"/>
<path d="M251.343 5.98709L250.346 1.99756" stroke="#242938" stroke-width="2" stroke-linecap="round"/>
<path d="M258.326 4.98953L257.328 1" stroke="#242938" stroke-width="2" stroke-linecap="round"/>
<path d="M263.311 5.98678L264.308 2.99463" stroke="#242938" stroke-width="2" stroke-linecap="round"/>
<path d="M268.297 10.9741L271.289 7.98193" stroke="#242938" stroke-width="2" stroke-linecap="round"/>
<path d="M271.291 14.9637L275.281 13.9663" stroke="#242938" stroke-width="2" stroke-linecap="round"/>
<path d="M56.3547 10.9741L70.8167 18.9531V34.9112L56.3547 42.8904L41.8926 34.9112V18.9531L56.3547 10.9741Z" fill="white"/>
<path d="M38.9004 16.9841L57.352 6.98438L75.8035 16.9841V36.88L57.352 46.8797L38.9004 36.88V16.9841Z" stroke="#242938" stroke-width="2"/>
<path d="M50.8691 23.4656L57.3521 19.9507L63.8351 23.4656V30.3992L57.3521 33.914L50.8691 30.3992V23.4656Z" stroke="#242938" stroke-width="2"/>
<path d="M56.8555 17.9558V13.9663" stroke="#242938" stroke-width="2" stroke-linecap="round"/>
<path d="M56.8555 41.8925V35.9082" stroke="#242938" stroke-width="2" stroke-linecap="round"/>
<path d="M42.8906 33.9135L48.8749 30.9214" stroke="#242938" stroke-width="2" stroke-linecap="round"/>
<path d="M64.834 21.9453L70.8183 18.9531" stroke="#242938" stroke-width="2" stroke-linecap="round"/>
<path d="M48.8749 21.9453L42.8906 18.9531" stroke="#242938" stroke-width="2" stroke-linecap="round"/>
<path d="M70.817 33.9137L65.8301 31.9189" stroke="#242938" stroke-width="2" stroke-linecap="round"/>
<path d="M34.9113 197.484L44.8851 203.219V214.689L34.9113 220.424L24.9375 214.689V203.219L34.9113 197.484Z" fill="white"/>
<path d="M22.9414 201.478L34.4114 194.492L45.8812 201.478V215.433L34.4114 222.419L22.9414 215.433V201.478Z" stroke="#242938" stroke-width="2"/>
<path d="M29.9238 205.717L34.412 203.469L38.9003 205.717V210.197L34.412 212.445L29.9238 210.197V205.717Z" stroke="#242938" stroke-width="2"/>
<path d="M34.9102 201.474V197.484" stroke="#242938" stroke-width="2" stroke-linecap="round"/>
<path d="M34.9102 218.429V214.44" stroke="#242938" stroke-width="2" stroke-linecap="round"/>
<path d="M25.9336 213.442L27.9284 212.445" stroke="#242938" stroke-width="2" stroke-linecap="round"/>
<path d="M39.8965 204.466L42.8886 202.471" stroke="#242938" stroke-width="2" stroke-linecap="round"/>
<path d="M27.9284 204.466L25.9336 202.471" stroke="#242938" stroke-width="2" stroke-linecap="round"/>
<path d="M43.886 213.442L39.8965 212.445" stroke="#242938" stroke-width="2" stroke-linecap="round"/>
<path d="M264.309 70.3144L337.572 54.8589L340.11 66.4968L267.177 81.7882L264.309 70.3144Z" fill="#242938"/>
<path d="M221.423 131.657C246.761 131.657 267.302 111.339 267.302 86.2759C267.302 61.2127 246.761 40.895 221.423 40.895C196.084 40.895 175.543 61.2127 175.543 86.2759C175.543 111.339 196.084 131.657 221.423 131.657Z" stroke="#242938" stroke-width="2"/>
<path d="M221.422 125.673C243.455 125.673 261.317 107.737 261.317 85.6124C261.317 72.6841 255.218 61.1862 245.752 53.8613L221.422 125.673Z" fill="white"/>
<path d="M208.455 47.877C193.311 53.615 182.523 68.4779 182.523 85.9087C182.523 91.9104 183.802 97.6078 186.098 102.733L208.455 47.877Z" fill="white"/>
<path d="M195.49 115.434L221.621 45.8823C228.812 45.8823 235.555 47.7989 241.37 51.1497L214.713 124.676C207.426 123.394 200.825 120.119 195.49 115.434Z" fill="white"/>
<path d="M150.609 51.8667L170.555 63.5859V87.0245L150.609 98.7437L130.66 87.0245V63.5859L150.609 51.8667Z" fill="white"/>
<path d="M128.664 61.0833L150.607 47.877L172.549 61.0833V87.5319L150.607 100.738L128.664 87.5319V61.0833Z" stroke="#242938" stroke-width="2"/>
<path d="M141.631 70.0595L150.608 64.832L159.584 70.0595V80.5496L150.608 85.7771L141.631 80.5496V70.0595Z" stroke="#242938" stroke-width="2"/>
<path d="M149.609 60.843V53.8613" stroke="#242938" stroke-width="2" stroke-linecap="round"/>
<path d="M149.609 95.7514V89.7671" stroke="#242938" stroke-width="2" stroke-linecap="round"/>
<path d="M132.654 85.7776L139.636 81.7881" stroke="#242938" stroke-width="2" stroke-linecap="round"/>
<path d="M161.578 68.8216L168.56 64.832" stroke="#242938" stroke-width="2" stroke-linecap="round"/>
<path d="M139.636 68.8216L132.654 64.832" stroke="#242938" stroke-width="2" stroke-linecap="round"/>
<path d="M169.556 85.7776L162.574 81.7881" stroke="#242938" stroke-width="2" stroke-linecap="round"/>
<path d="M118.799 112.969L129.313 131.807L101.325 144.623C94.1387 127.921 79.9782 93.0191 80.8254 87.028C81.6727 81.037 86.3222 76.7084 88.3142 76.7599C88.3142 75.4474 89.5245 71.5707 92.0207 69.8115C95.1977 67.5726 98.9799 67.4953 100.568 68.3446C103.897 58.2308 114.033 62.4514 116.227 64.33C129.313 61.319 136.802 66.9549 138.618 69.7343C140.433 72.5136 135.894 75.2158 134.987 74.7526C134.079 74.2893 127.649 72.668 123.716 73.7489C117.286 75.6018 117.74 82.9362 119.555 87.028C121.371 91.1199 125.077 88.8809 131.053 87.028C137.029 85.1751 142.627 82.3952 142.627 87.028C142.627 89.653 136.348 99.4233 125.985 102.546C119.631 104.461 117.79 111.193 118.799 112.969Z" fill="#D58B8B"/>
<path d="M324.275 50.592L352.08 104.35L321.143 119.689C317.705 112.496 309.975 97.328 306.553 94.2003C302.275 90.2905 298.761 89.0124 294.789 87.2831C290.817 85.5538 277.755 84.5763 278.289 82.0952C278.824 79.614 281.574 78.5614 284.782 77.2832C287.349 76.2607 293.235 76.8572 295.859 77.2832L290.817 66.4563C290.154 64.301 289.228 59.7045 290.817 58.5617C293.796 56.419 295.654 58.0856 297.081 58.5617C296.723 57.9853 296.561 56.3662 298.761 54.5016C300.961 52.6369 303.65 53.7247 304.719 54.5016C304.414 53.85 304.875 51.0822 307.317 49.9153C309.99 48.6371 312.256 49.9403 313.733 50.592C313.376 50.0657 313.305 47.7951 316.483 46.2312C319.661 44.6673 323.052 48.7624 324.275 50.592Z" fill="#D58B8B"/>
<path d="M118.692 64.832C115.484 65.1789 110.713 68.093 110.713 72.8111" stroke="#242938" stroke-width="2" stroke-linecap="round"/>
<path d="M314.18 51.8667L317.172 55.8562" stroke="#242938" stroke-width="2" stroke-linecap="round"/>
<path d="M306.199 55.856L309.191 60.8429" stroke="#242938" stroke-width="2" stroke-linecap="round"/>
<path d="M299.217 59.8457L301.212 64.8326" stroke="#242938" stroke-width="2" stroke-linecap="round"/>
<path d="M102.732 66.8271C102.285 67.1028 100.174 69.6347 99.7402 72.8114" stroke="#242938" stroke-width="2" stroke-linecap="round"/>
<path d="M90.7636 72.8115C90.3159 73.225 88.2052 77.0228 87.7715 81.788" stroke="#242938" stroke-width="2" stroke-linecap="round"/>
<path d="M96.0834 337.245L197.621 246.356H305.897L270.234 339.796C281.092 336.147 295.448 338.37 306.2 342.423L297.568 380.005L243.885 378.899C224.501 378.539 222.532 364.189 223.971 357.059L237.146 290.112L160.217 339.796L169.908 342.366L160.217 379.121L101.611 376.797C74.0496 370.013 86.442 347.602 96.0834 337.245Z" fill="#242938"/>
<path d="M198.73 276.116L104.727 349.803L159.226 353.076M195.684 265.307C195.743 267.711 196.513 271.992 198.73 276.116L195.684 265.307ZM205.462 283.652C202.4 281.635 200.232 278.911 198.73 276.116L205.462 283.652Z" stroke="white" stroke-width="2" stroke-linecap="round"/>
<path d="M194.036 343.388L202.89 357.525M194.036 343.388C194.036 343.388 192.313 341.107 191.943 341.107C185.435 341.107 184.695 348.176 184.695 348.176L169.46 343.388L158.588 379.036L228.405 382C228.405 382 226.15 374.512 223.006 370.903C218.237 365.432 206.365 363.074 206.365 363.074L202.89 357.525L194.036 343.388ZM194.036 343.388H209.249L212.873 357.525H202.89L194.036 343.388Z" stroke="#242938" stroke-width="2"/>
<path d="M330.878 343.388L339.937 357.525M330.878 343.388C330.878 343.388 329.115 341.107 328.736 341.107C322.077 341.107 321.321 348.176 321.321 348.176L305.732 343.388L294.23 379.416L366.042 382C366.042 382 363.736 374.512 360.518 370.903C355.639 365.432 343.492 363.074 343.492 363.074L339.937 357.525L330.878 343.388ZM330.878 343.388H346.443L350.151 357.525H339.937L330.878 343.388Z" stroke="#242938" stroke-width="2"/>
<path d="M101.965 142.144C92.5164 145.584 98.0282 160.73 101.965 167.873V179.643L111.429 195.639L120.817 210.88C125.789 214.929 137.535 222.47 144.742 220.236C153.752 217.444 181.993 209.296 187.065 210.88C192.138 212.465 187.444 218.274 187.065 223.028C186.763 226.831 192.441 241.766 195.318 248.757C218.864 265.13 272.923 253.435 277.238 251.096C281.554 248.757 306.236 251.926 310.93 248.757C315.624 245.588 308.962 211.635 310.93 207.334C312.899 203.033 319.561 202.279 324.634 199.185C329.707 196.092 324.634 192.923 328.95 191.338C332.402 190.071 348.963 189.251 356.812 188.999C366.099 184.573 385.915 174.15 390.882 167.873C397.091 160.026 387.778 142.144 384.674 142.144C381.57 142.144 372.484 117.094 369.38 115.585C366.276 114.076 361.884 103.437 359.537 100.343C357.19 97.2499 344.244 106.983 340.761 108.945C337.278 110.907 315.246 119.885 319.561 121.772C323.014 123.281 324.381 130.248 324.634 133.542C323.726 134.448 322.454 136.726 324.634 138.597C326.815 140.469 331.55 144.608 333.644 146.444H319.561C309.492 143.829 287.399 139.307 279.586 142.144C271.772 144.981 258.815 140.962 253.313 138.597C239.806 152.058 228.177 146.57 223.483 142.144C222.423 143.954 218.228 147.35 214.473 146.444C209.779 145.313 196.454 147.199 181.993 153.461C167.532 159.724 166.699 156.932 160.415 156.932C154.131 156.932 154.888 164.025 153.752 160.478C152.616 156.932 149.058 153.839 147.468 150.292C145.878 146.746 143.152 142.144 140.427 142.144C137.701 142.144 136.49 133.165 132.931 129.619C129.373 126.073 113.776 137.843 101.965 142.144Z" fill="#EC5B60"/>
<path d="M272.907 147.161C271.513 146.352 270.415 143.933 270.125 143C271.2 143 273.147 143 275.18 143C277.486 142.859 279.107 142.172 280.339 141.82C281.21 141.385 287.26 140.711 293.371 141.609C292.886 142.931 291.447 146.538 290.112 149.338C288.442 152.838 282.78 156.261 279.876 155.483C276.972 154.705 274.649 148.172 272.907 147.161Z" fill="white"/>
<path d="M218.898 145.967C223.057 157.253 228.404 181.326 217.025 185.485C210.62 187.825 206.069 178.732 197.455 172.675C190.765 167.97 182.716 168.659 180.896 163.724C179.248 159.255 177.775 156.211 179.003 154.395C183.767 152.334 187.863 150.726 194.737 148.214C206.116 144.056 216.774 142.977 218.898 145.967Z" fill="white"/>
<path d="M136.406 220.123C128.06 210.943 129.008 197.28 137.94 188.771C141.844 185.051 148.783 189.456 156.972 188.229C167.515 186.65 175.794 180.353 180.492 185.52C185.526 191.06 180.174 199.261 175.612 207.432C174.525 209.38 173.712 211.388 172.949 213.319C165.073 215.587 149.206 220.123 148.429 220.123C147.458 220.123 143.351 222.646 138.347 220.658L136.406 220.123Z" fill="white"/>
<path d="M300.2 224.447C300.472 218.769 297.058 213.267 295.524 206.415C293.191 195.989 291.427 184.884 283.79 184.539C270.818 183.949 272.389 196.41 265.643 206.415C260.401 214.186 254.668 216.111 254.37 222.37C253.684 236.684 263.389 248.753 276.045 249.327C288.701 249.9 299.516 238.762 300.2 224.447Z" fill="white"/>
<path d="M362.422 164.989C360.442 162.546 357.06 161.509 353.93 159.236C349.169 155.776 344.381 151.829 341.22 154.452C335.852 158.909 330.251 160.835 331.252 167.411C332.029 172.518 341.27 178.039 343.453 180.733C348.447 186.892 356.743 188.361 361.981 184.014C367.22 179.665 367.417 171.149 362.422 164.989Z" fill="white"/>
<path d="M358.184 127.895C361.404 134.144 372.396 132.187 377.349 130.234L376.225 127.425C374.779 123.753 370.893 116.287 369.407 115.474C367.921 114.662 365.354 110.367 364.426 108.882C364.039 109.794 363.525 113.099 363.215 114.537C362.828 116.333 354.16 120.083 358.184 127.895Z" fill="white"/>
<path d="M116.28 172.385C109.216 174.185 102.719 168.999 100.354 166.18C98.4621 163.202 96.9379 155.735 96.4122 152.374C96.3333 149.737 96.9967 143.65 100.339 142.596C102.01 141.485 111.595 137.281 115.51 135.291C120.714 135.834 119.276 148.496 117.936 152.374C116.595 156.252 125.11 170.136 116.28 172.385Z" fill="white"/>
<path d="M309.776 246.342C311.034 243.184 313.175 236.439 311.664 234.722M200.089 248.784C199.434 245.675 194.212 238.896 195.784 233.39L200.089 248.784ZM211.194 251.966C210.538 246.934 209.623 236.439 211.194 234.722V251.966ZM223.961 254.335C223.961 247.625 223.961 234.677 223.961 236.572V254.335ZM240.202 254.335C240.831 252.015 241.713 245.897 240.202 239.977V254.335ZM256.746 251.966C257.525 250.461 259.148 246.549 259.39 242.937L256.746 251.966ZM275.631 236.572C275.806 241.704 275.676 251.966 273.743 251.966L275.631 236.572ZM288.095 248.784C290.437 246.564 295.181 241.383 295.423 238.422L288.095 248.784ZM299.502 246.342C301.743 243.702 306.225 238.052 306.225 236.572L299.502 246.342Z" stroke="#242938" stroke-width="2" stroke-linecap="round"/>
<path d="M127.088 191.5C126.332 190.109 125.058 186.916 126.018 185.279C127.218 183.233 147.041 163.933 153.601 163.573" stroke="#242938" stroke-width="2" stroke-linecap="round"/>
<path d="M335.223 147.432C333.849 146.474 346.936 142.092 354.888 146.68C366.391 153.317 373.386 155.37 375.018 158.586" stroke="#242938" stroke-width="2" stroke-linecap="round"/>
<path d="M127.317 132.842C128.807 132.249 132.361 132.723 134.649 139.368M103.121 144.485C102.828 146.413 102.417 150.537 103.121 151.605V144.485ZM108.547 142.631L109.06 148.712L108.547 142.631ZM113.826 140.258C114.608 141.593 116.245 144.485 116.538 145.375L113.826 140.258ZM120.351 136.55C121.378 137.662 123.739 140.436 124.971 142.631L120.351 136.55Z" stroke="#242938" stroke-width="2" stroke-linecap="round"/>
<path d="M221.422 149.61C223.652 151.133 229.881 154.052 236.94 153.54C244 153.028 247.489 150.707 248.351 149.61" stroke="#242938" stroke-width="2" stroke-linecap="round"/>
<path d="M232.393 156.591C233.806 156.591 237.381 156.591 240.372 156.591" stroke="#242938" stroke-width="2" stroke-linecap="round"/>
<path d="M330.636 118.381C329.324 119.298 327.672 122.639 331.561 128.665M353.499 104.728C355.172 105.655 358.626 107.823 359.06 109.08L353.499 104.728ZM348.963 108.252L353.42 112.411L348.963 108.252ZM344.106 111.333C344.702 112.821 346.03 115.995 346.558 116.791L344.106 111.333ZM337.495 114.668C337.78 116.23 338.603 119.952 339.617 122.352L337.495 114.668Z" stroke="#242938" stroke-width="2" stroke-linecap="round"/>
<path d="M200.477 112.707C200.477 115.002 199.798 117.041 198.752 118.481C197.7 119.928 196.352 120.686 194.991 120.686C193.631 120.686 192.283 119.928 191.231 118.481C190.183 117.041 189.506 115.002 189.506 112.707C189.506 110.412 190.183 108.373 191.231 106.933C192.283 105.487 193.631 104.728 194.991 104.728C196.352 104.728 197.7 105.487 198.752 106.933C199.798 108.373 200.477 110.412 200.477 112.707Z" stroke="#242938" stroke-width="2"/>
<path d="M214.422 136.123L219.104 147.8C232.333 153.732 249.304 153.726 258.325 140.539C258.325 140.539 246.416 130.761 240.343 125.554C242.78 115.955 242.626 96.5616 222.526 95.7807C197.401 94.8045 192.096 118.526 197.302 129.264C201.465 137.855 208.052 136.797 214.422 136.123Z" fill="#D58B8B"/>
<path d="M223.415 125.673C227.821 125.673 231.394 122.324 231.394 118.192C231.394 114.061 227.821 110.712 223.415 110.712C219.008 110.712 215.436 114.061 215.436 118.192C215.436 122.324 219.008 125.673 223.415 125.673Z" fill="#AD5B5B"/>
<path d="M218.43 117.694C219.448 117.361 221.673 116.696 222.419 116.696" stroke="#242938" stroke-width="2" stroke-linecap="round"/>
<path d="M221.422 117.694C222.053 118.451 223.337 120.108 223.417 120.686" stroke="#242938" stroke-width="2" stroke-linecap="round"/>
<path d="M189.506 109.714L218.43 110.712" stroke="#242938" stroke-width="2"/>
<path d="M198.711 119.472C199.561 119.66 200.563 118.391 200.95 116.638C201.336 114.885 200.961 113.312 200.111 113.125C199.261 112.938 198.259 114.207 197.872 115.959C197.486 117.712 197.861 119.285 198.711 119.472Z" fill="#AD5B5B"/>
<path d="M199.48 99.1379L214.886 110.212L216.664 116.738C216.928 115.386 218.364 112.743 221.997 112.981C226.541 113.277 227.825 120.396 224.269 123.066C221.425 125.202 218.541 123.956 217.455 123.066L221.997 145.62L275.282 138.266C275.282 138.266 271.398 125.755 261.205 106.455C251.014 87.1543 237.273 86.8774 231.676 89.1516C217.455 81.9534 204.286 92.81 199.48 99.1379Z" fill="#242938"/>
<path d="M261.732 77.1406C264.873 82.3884 263.184 89.2462 257.958 92.4579C252.734 95.6696 232.393 96.7485 232.393 96.7485C232.393 96.7485 241.357 76.6655 246.583 73.4538C251.807 70.2421 258.59 71.8927 261.732 77.1406Z" fill="#242938"/>
</svg>
