<svg width="377" height="396" viewBox="0 0 377 396" fill="none" xmlns="http://www.w3.org/2000/svg">
<path d="M52.0701 335.091C23.8606 353.714 40.316 373.331 52.0701 380.812H198.893H345.716C345.716 380.812 338.811 366.658 339.029 357.001C339.229 348.056 345.716 335.091 345.716 335.091H198.893H52.0701Z" stroke="#242938" stroke-width="2"/>
<path d="M182.683 380.812C160.329 359.074 173.368 341.529 182.683 335.473L52.8662 334.489C49.8207 335.398 42.7398 339.47 38.7806 348.492C32.6286 363.328 44.7955 376.221 51.648 380.812H182.683Z" fill="#242938"/>
<path d="M16.4534 259.29C-3.90782 272.522 7.96961 286.462 16.4534 291.776H122.429H228.404C228.404 291.776 223.42 281.719 223.577 274.857C223.721 268.501 228.404 259.29 228.404 259.29H122.429H16.4534Z" stroke="#242938" stroke-width="2"/>
<path d="M110.491 292.378C94.418 276.568 103.794 263.808 110.491 259.403L17.1516 258.688C14.9618 259.348 9.87071 262.31 7.02398 268.872C2.6006 279.663 11.3487 289.038 16.2758 292.378H110.491Z" fill="#242938"/>
<path d="M241.34 246.656C256.048 236.854 247.468 226.529 241.34 222.592H164.786H88.2324C88.2324 222.592 91.8324 230.042 91.7194 235.124C91.6146 239.832 88.2324 246.656 88.2324 246.656H164.786H241.34Z" stroke="#242938" stroke-width="2"/>
<path d="M173.057 222.592C184.695 233.885 177.906 242.999 173.057 246.145L240.648 246.656C242.233 246.184 245.92 244.07 247.981 239.382C251.184 231.675 244.849 224.977 241.282 222.592H173.057Z" fill="white"/>
<path d="M37.3663 217.779C22.7128 208.222 31.2607 198.155 37.3663 194.316H113.635H189.902C189.902 194.316 186.315 201.58 186.427 206.535C186.532 211.126 189.902 217.779 189.902 217.779H113.635H37.3663Z" stroke="#242938" stroke-width="2"/>
<path d="M158.017 205.747H138.766V228.608L149.167 219.95L158.017 228.608V205.747Z" fill="#242938"/>
<path d="M327.668 363.366H300.596V395.853L315.222 383.549L327.668 395.853V363.366Z" fill="#EC5B60"/>
<path d="M105.077 193.715C93.5297 205.008 100.265 214.122 105.077 217.268L38.0228 217.779C36.4498 217.307 32.7923 215.193 30.7472 210.505C27.5696 202.798 33.8542 196.1 37.3936 193.715H105.077Z" fill="#242938"/>
<path d="M96.0527 58.9567H1.45117C0.569278 56.9201 0.380085 52.2283 6.67816 49.7542C12.9764 47.2802 18.2506 50.7851 20.1005 52.8468C20.7028 46.2845 24.5918 32.9182 35.3297 31.9527C46.0675 30.9871 49.4403 40.5517 49.7845 45.4547C59.6447 29.4635 68.2617 41.658 71.3377 49.7542C81.6108 45.5905 92.0948 54.1544 96.0527 58.9567Z" stroke="#242938" stroke-width="2"/>
<path d="M324.17 0L342.707 27.2558L327.577 93.8495L306.01 67.6556L324.17 0Z" fill="white"/>
<path d="M371.585 11.4302L342.955 27.0927L326.465 92.6461L353.931 79.5565L371.585 11.4302Z" fill="white"/>
<path d="M340.149 3.00781L342.708 27.2775L327.248 93.8493L325.863 71.9388L340.149 3.00781Z" fill="white"/>
<path d="M343.091 26.9629L306.072 6.61768L290.369 75.2447L323.519 94.4512L356.29 93.0847L376.999 22.1043L343.091 26.9629Z" fill="#EC5B60"/>
<path d="M334.887 30.6812L322.254 80.0123" stroke="white" stroke-width="2" stroke-linecap="round"/>
<path d="M347.52 34.8931L337.895 84.8258" stroke="white" stroke-width="2" stroke-linecap="round"/>
<path d="M316.138 91.4477L312.629 106.938C314.546 106.772 318.838 106.768 320.665 108.077C322.49 109.386 334.446 114.779 340.195 117.312C344.518 106.892 352.358 85.1244 350.969 80.7296C349.56 76.2698 346.854 79.0593 345.894 80.8857L346.913 75.5723C347.253 74.1442 347.491 71.0122 345.734 69.9092C343.975 68.8064 342.179 72.2994 341.5 74.184C344.301 64.1597 338.649 64.6726 337.396 66.918C336.784 68.0146 335.101 72.8783 334.394 75.1913C334.565 74.2772 334.752 72.0883 334.145 70.6458C333.384 68.8428 331.858 68.7819 330.333 70.1593C329.034 71.3329 324.322 83.1353 322.966 86.7327C321.88 89.6105 317.942 91.1101 316.138 91.4477Z" fill="#AD5B5B"/>
<path d="M333.686 75.8013L328.873 88.4349" stroke="#242938" stroke-width="2" stroke-linecap="round"/>
<path d="M340.903 75.8013L336.09 88.4349" stroke="#242938" stroke-width="2" stroke-linecap="round"/>
<path d="M346.319 82.4189L340.904 95.6541" stroke="#242938" stroke-width="2" stroke-linecap="round"/>
<path d="M104.423 57.6888C105.591 61.6609 117.353 78.2368 123.089 86.0283L147.132 73.0425C146.645 70.5982 145.611 64.6706 145.365 60.5151C145.058 55.3208 147.593 38.5158 147.132 35.4603C146.671 32.4048 145.058 31.0299 143.291 32.1757C141.525 33.3215 139.835 41.4949 138.452 43.5573C137.346 45.2072 136.864 46.0272 136.301 46.2308C133.433 39.789 127.607 26.7976 126.162 25.0717C125.778 24.6134 125.24 23.9548 124.318 23.6968C120.069 22.5077 119.439 26.0913 119.556 28.6619L122.244 38.5158C117.635 36.1325 115.663 40.8838 115.254 43.5573C111.813 41.9073 109.877 45.3651 109.416 47.3766C101.504 47.0711 102.964 52.7237 104.423 57.6888Z" fill="#AD5B5B"/>
<path d="M110.74 49.3315C112.747 52.0978 116.206 58.1434 113.983 60.1954C111.759 62.2475 108.321 58.2339 106.881 55.9706" stroke="#242938" stroke-width="2" stroke-linecap="round"/>
<path d="M123.295 40.3071C125.343 43.209 128.871 49.551 126.603 51.7037C124.335 53.8564 120.985 50.0417 119.516 47.6674" stroke="#242938" stroke-width="2" stroke-linecap="round"/>
<path d="M111.092 48.7576C112.913 51.6098 117.234 57.0047 119.949 55.7676C122.664 54.5303 120.767 49.3048 119.203 47.1529L117.395 44.5186" stroke="#242938" stroke-width="2" stroke-linecap="round"/>
<path d="M282.529 89.0542C278.755 86.9295 259.553 74.9401 223.112 77.5201C217.696 77.5201 206.121 84.9819 203.408 89.0542C200.187 92.6712 195.8 99.9053 190.627 99.9053H172.825C171.379 95.58 164.304 94.8971 159.892 89.0542C156.362 84.3798 150.458 74.6619 147.948 70.3872L121.32 85.2601C122.968 91.5836 126.904 106.507 129.461 115.613C132.656 126.995 138.59 131.396 142.926 135.19C147.263 138.985 144.448 150.367 156.392 151.809C165.947 152.962 175.031 144.701 178.379 140.426L277.888 164.405L282.529 154.464C283.796 156.311 287.748 161.4 293.408 166.985C300.483 173.966 309.46 179.278 316.764 177.836C324.067 176.394 322.013 165.847 322.318 162.053C322.622 158.259 334.946 151.277 338.142 145.131C341.337 138.985 338.902 122.063 341.793 117.131C344.106 113.185 343.087 111.819 343.087 111.819L314.405 98.16C312.756 99.3236 310.18 103.39 310.373 105.445C310.83 110.301 311.21 109.542 309.46 114.171C308.061 117.874 306.544 121.936 305.961 123.505C304.515 119.103 293.408 113.033 291.05 109.542C288.691 106.052 287.246 91.71 282.529 89.0542Z" fill="#587291"/>
<path d="M237.034 154.305C236.602 144.092 238.327 124.581 248.67 128.23C261.6 132.791 260.915 148.528 276.278 138.493C280.63 135.65 278.256 152.937 282.362 155.065M286.926 96.3771C282.819 97.8975 283.808 107.081 280.461 109.757C276.278 113.102 265.25 110.213 266.847 118.119C268.444 126.025 284.036 125.797 292.782 125.341C299.779 124.976 302.897 121.844 304.114 120.704M305.027 175.667C306.396 173.006 298.729 163.945 301.528 157.802C305.027 150.124 314.762 142.446 319.325 148.376C322.976 153.119 326.17 155.369 327.083 156.358M331.189 106.108C329.668 109.301 335.038 118.104 330.961 125.341C326.885 132.578 335.144 141.458 339.099 142.522M220.987 78.208C225.448 80.3366 234.463 85.6885 234.828 90.0673C235.285 95.5408 240.989 104.435 244.259 104.055C247.53 103.675 256.96 97.0613 257.188 93.5643C257.371 90.7667 257.265 86.8238 257.188 85.202M194.063 132.411C195.66 124.201 217.944 111.125 223.42 118.119C228.896 125.113 228.136 138.493 226.462 143.206M174.517 99.874C174.517 103.599 185.944 111.323 187.903 113.33C190.945 116.447 198.094 115.762 198.398 108.008C198.487 105.752 196.953 99.9501 195.432 97.9735M179.08 138.493C179.004 135.072 177.985 127.88 174.517 126.481C171.049 125.083 161.36 128.788 156.949 130.815C154.615 131.347 148.415 131.575 142.27 128.23C136.125 124.885 132.839 115.838 129.949 116.827M124.93 83.2254C129.645 91.5117 142.392 106.488 146.225 106.488C151.016 106.488 148.431 90.9796 151.929 88.0908C154.728 85.7797 156.949 86.3423 157.709 85.8101" stroke="white" stroke-width="2"/>
<path d="M170.651 101.069C169.471 101.377 166.714 103.423 165.114 109.148C163.515 114.873 161.32 119.383 160.424 120.922" stroke="#242938" stroke-width="2" stroke-linecap="round"/>
<path d="M171.252 104.077C170.903 104.363 170.225 105.864 170.316 109.573C170.407 113.282 170.177 116.278 170.049 117.312" stroke="#242938" stroke-width="2" stroke-linecap="round"/>
<path d="M238.66 78.208H233.217M239.503 81.216L234.213 84.6752L239.503 81.216ZM241.803 83.848L239.503 87.4576L241.803 83.848ZM247.783 86.7808L246.786 90.8416L247.783 86.7808ZM252.076 87.4576V90.8416V87.4576ZM257.365 85.8032L260.432 89.6384L257.365 85.8032ZM262.118 82.4944L268.711 85.8032L262.118 82.4944Z" stroke="#242938" stroke-width="2" stroke-linecap="round"/>
<path d="M149.016 73.3955L153.205 81.1466M123.727 85.7821L126.545 95.0531L123.727 85.7821ZM128.068 83.6544L129.973 88.8978L128.068 83.6544ZM134.314 81.1466L138.047 87.4539L134.314 81.1466ZM139.113 78.335L142.389 81.1466L139.113 78.335ZM145.283 74.9913L149.016 82.3625L145.283 74.9913Z" stroke="#242938" stroke-width="2" stroke-linecap="round"/>
<path d="M314.861 100.467L312.025 104.152M340.301 112.725L339.151 118.515L340.301 112.725ZM335.933 110.619L334.017 115.808L335.933 110.619ZM329.649 108.138L325.895 114.379L329.649 108.138ZM324.822 105.355L321.527 108.138L324.822 105.355ZM318.615 102.046L314.861 109.341L318.615 102.046Z" stroke="#242938" stroke-width="2" stroke-linecap="round"/>
<path d="M304.663 125.734C303.777 128.432 302.286 135.575 303.398 142.568C304.789 151.31 307.573 154.962 307.174 156.416" stroke="#242938" stroke-width="2" stroke-linecap="round"/>
<path d="M209.755 86.0283C208.802 88.6931 201.462 98.9394 202.658 105.849C204.151 114.487 199.954 118.883 199.527 120.319" stroke="#242938" stroke-width="2" stroke-linecap="round"/>
<path d="M277.423 90.2397C280.216 96.2405 278.961 108.432 277.423 115.307C274.483 128.447 272.277 137.638 280.143 150.4" stroke="#242938" stroke-width="2" stroke-linecap="round"/>
<path d="M271.719 59.254C271.719 70.3825 262.562 79.404 251.265 79.404C247.268 79.404 241.238 79.6213 238.088 77.6682C232.335 74.1022 230.811 66.4443 230.811 59.254C230.811 48.1255 239.968 39.104 251.265 39.104C262.562 39.104 271.719 48.1255 271.719 59.254Z" fill="#AD5B5B"/>
<path d="M232.014 37.855V52.416C233.718 51.522 235.678 49.1206 242.701 51.2665C251.48 53.9487 258.732 48.201 261.633 51.2665C264.534 54.3319 264 58.4447 262.931 60.6162C262.931 60.6162 261.572 67.7063 261.633 71.422C261.675 73.9237 262.397 76.4034 262.397 76.4034C267.771 73.3992 271.023 66.9004 271.481 62.6853L272.321 42.8364L268.122 46.2084L266.824 37.855L262.091 40.3074V34.3297L255.526 39.0046L247.053 28.2754L236.06 41.5336L232.014 37.855Z" fill="#242938"/>
<path d="M260.89 81.4189L260.517 75.4322L242.082 74.5986L241.037 80.2064C245.814 90.2095 258.949 85.0564 260.89 81.4189Z" fill="#AD5B5B"/>
<path d="M264.512 67.6717C266.554 68.3426 268.869 66.8768 269.684 64.3976C270.499 61.9185 269.504 59.3648 267.462 58.6938C265.421 58.0229 263.105 59.4888 262.29 61.9679C261.476 64.4471 262.47 67.0008 264.512 67.6717Z" fill="#804141"/>
<path d="M263.297 63.1681C263.962 61.9473 265.809 60.4822 267.508 60.8078" stroke="#242938" stroke-width="2" stroke-linecap="round"/>
<path d="M266.307 61.3633C266.659 61.6394 267.396 62.5485 267.51 63.1681" stroke="#242938" stroke-width="2" stroke-linecap="round"/>
<path d="M242.24 68.2331L246.445 61.9644L247.655 69.1836L242.24 68.2331Z" fill="#804141"/>
<path d="M246.281 61.9644L242.24 67.7394L247.655 68.5819" stroke="#242938" stroke-width="2" stroke-linecap="round"/>
<path d="M245.25 72.1894C246.008 72.2095 247.911 72.1176 249.461 71.5903" stroke="#242938" stroke-width="2" stroke-linecap="round"/>
<path d="M250.664 56.5523C251.422 56.5323 253.326 56.6242 254.875 57.1514" stroke="#242938" stroke-width="2" stroke-linecap="round"/>
<path d="M239.834 56.5548C239.184 56.5148 237.553 56.6986 236.225 57.753" stroke="#242938" stroke-width="2" stroke-linecap="round"/>
<path d="M246.453 79.1777C248.198 79.5269 251.292 79.7888 253.672 77.6064" stroke="#242938" stroke-width="2" stroke-linecap="round"/>
<path d="M239.533 62.5661C240.364 62.5661 241.037 62.0274 241.037 61.3629C241.037 60.6984 240.364 60.1597 239.533 60.1597C238.703 60.1597 238.029 60.6984 238.029 61.3629C238.029 62.0274 238.703 62.5661 239.533 62.5661Z" fill="#242938"/>
<path d="M252.168 62.5661C252.999 62.5661 253.672 62.0274 253.672 61.3629C253.672 60.6984 252.999 60.1597 252.168 60.1597C251.337 60.1597 250.664 60.6984 250.664 61.3629C250.664 62.0274 251.337 62.5661 252.168 62.5661Z" fill="#242938"/>
<path d="M253.973 69.7855C255.468 69.7855 256.68 68.5734 256.68 67.0783C256.68 65.5831 255.468 64.3711 253.973 64.3711C252.478 64.3711 251.266 65.5831 251.266 67.0783C251.266 68.5734 252.478 69.7855 253.973 69.7855Z" fill="#804141"/>
<path d="M237.428 68.5824C238.757 68.5824 239.834 67.3703 239.834 65.8752C239.834 64.38 238.757 63.168 237.428 63.168C236.099 63.168 235.021 64.38 235.021 65.8752C235.021 67.3703 236.099 68.5824 237.428 68.5824Z" fill="#804141"/>
<path d="M145.385 325.466C147.109 322.005 150.085 316.991 162.275 315.579C174.463 314.167 176.817 310.941 177.871 309.223" stroke="#242938" stroke-width="2" stroke-linecap="round"/>
<path d="M176.065 291.776C170.588 288.427 160.381 281.16 163.366 278.877C166.351 276.593 173.076 286.525 176.065 291.776Z" stroke="#242938" stroke-width="2"/>
<path d="M174.862 291.775C168.583 290.937 156.458 288.391 158.184 284.929C159.912 281.469 170.023 288.052 174.862 291.775Z" stroke="#242938" stroke-width="2"/>
<path d="M185.09 310.425C182.421 315.409 180.723 318.225 168.494 319.629C159.562 320.654 155.387 322.617 153.205 325.465" stroke="#242938" stroke-width="2" stroke-linecap="round"/>
<path d="M203.74 306.937V258.688H178.473V292.325C180.53 293.299 188.61 304.502 191.106 306.937C193.603 309.372 203.74 306.937 203.74 306.937Z" fill="#AD5B5B"/>
<path d="M191.621 307.843C195.204 308.563 202.425 307.542 205.589 306.942C206.865 306.718 207.537 308.15 207.715 308.893C207.891 315.524 208.14 329.279 207.715 331.261C207.29 333.242 206.121 333.838 205.589 333.888H112.597C112.217 331.561 112.172 333.152 112.597 330.21C113.128 326.532 114.115 317.75 128.69 307.843C139.394 300.566 174.769 291.555 177.274 291.78C179.779 292.005 187.143 306.942 191.621 307.843Z" stroke="#242938" stroke-width="2"/>
<path d="M114.1 325.926C139.499 326.215 193.769 326.23 207.949 324.262" stroke="#242938" stroke-width="2"/>
<path d="M226.6 371.788C228.292 368.327 231.212 363.313 243.177 361.901C255.139 360.489 257.45 357.263 258.484 355.545" stroke="#242938" stroke-width="2" stroke-linecap="round"/>
<path d="M256.077 338.7C250.848 335.351 241.106 328.084 243.955 325.8C246.804 323.517 253.223 333.449 256.077 338.7Z" stroke="#242938" stroke-width="2"/>
<path d="M254.876 338.701C248.821 337.926 237.129 335.576 238.793 332.381C240.459 329.187 250.21 335.264 254.876 338.701Z" stroke="#242938" stroke-width="2"/>
<path d="M265.703 356.748C263.034 361.731 261.336 364.548 249.108 365.952C240.175 366.977 236 368.94 233.818 371.788" stroke="#242938" stroke-width="2" stroke-linecap="round"/>
<path d="M284.353 354.457V312.832H259.086V339.766C261.144 340.745 269.223 352.008 271.72 354.457C274.216 356.905 284.353 354.457 284.353 354.457Z" fill="#AD5B5B"/>
<path d="M286.201 354.107C283.032 354.717 275.799 355.753 272.21 355.021C267.724 354.107 260.349 338.934 257.84 338.705C255.33 338.476 219.898 347.63 209.177 355.021C194.578 365.086 193.59 372.558 193.058 376.294C192.632 379.283 193.287 381.021 193.058 380.793H286.201C287.267 380.259 287.904 379.756 288.33 377.743C288.755 375.73 288.506 362.824 288.33 356.089C288.152 355.334 287.478 353.879 286.201 354.107Z" stroke="#242938" stroke-width="2"/>
<path d="M194.113 371.523C219.635 371.86 274.317 373.474 288.564 371.187" stroke="#242938" stroke-width="2"/>
<path d="M285.895 222.892C286.564 232.198 291.845 272.489 294.404 291.47C294.936 291.47 296.197 291.972 296.987 293.979C297.975 296.488 299.114 312.454 296.987 312.302C294.86 312.15 287.415 317.016 277.843 315.572C268.271 314.127 254.292 315.572 251.177 315.572C248.063 315.572 248.291 314.431 248.139 309.033C247.987 303.635 245.86 301.734 245.708 299.301C245.556 296.868 249.582 295.88 251.177 295.044C252.454 294.375 252.417 292.383 252.241 291.47L243.049 205.785C233.679 199.753 214.743 187.599 213.953 187.234C206.167 183.638 213 238.928 213.041 245.701C213.749 245.979 215.32 246.963 215.928 248.666C216.687 250.795 214.788 262.123 213.041 262.807C211.294 263.492 197.999 261.135 194.352 260.831C190.706 260.526 169.966 260.755 168.903 259.842C167.839 258.93 166.624 247.906 167.611 246.537C168.401 245.442 169.511 243.446 169.966 242.584C165.876 220.503 161.774 160.449 169.966 139.564C173.993 129.3 184.097 129.528 192.757 131.885C199.332 133.675 253.051 154.162 278.147 164.045C278.147 164.045 280.418 173.117 282.021 185.942C283.996 201.756 285.06 211.26 285.895 222.892Z" fill="#242938"/>
<path d="M283.752 286.93L280.927 212.365M256.354 288.372L250.062 240.966L256.354 288.372ZM270.529 290.573L270.642 259.52L270.529 290.573Z" stroke="white" stroke-width="2" stroke-linecap="round"/>
<path d="M260.289 169.05C260.289 172.825 262.249 184.135 266.23 189.469C273.073 198.638 276.256 199.666 277.134 200.333" stroke="white" stroke-width="2" stroke-linecap="round"/>
<path d="M254.273 295.5C258.795 296.535 269.456 298.402 275.939 297.594C282.422 296.788 288.661 295.385 290.971 294.784" stroke="white" stroke-width="2" stroke-linecap="round"/>
<path d="M203.612 236.391L204.941 210.783M176.666 237.834V187.699V237.834ZM190.607 240.038L190.718 208.944L190.607 240.038Z" stroke="white" stroke-width="2" stroke-linecap="round"/>
<path d="M174.262 244.966C178.783 246.001 189.444 247.868 195.928 247.06C202.41 246.252 208.65 244.85 210.959 244.25" stroke="white" stroke-width="2" stroke-linecap="round"/>
</svg>
