<svg width="377" height="375" viewBox="0 0 377 375" fill="none" xmlns="http://www.w3.org/2000/svg">
<path d="M229.902 187.356H67.7656V288.125H229.902V187.356Z" fill="#FFDC4D"/>
<path d="M184.392 246.902H205.054L242.697 245.561V82.8594H54.5545L48.4648 252.483L112.442 250.203" stroke="black" stroke-width="2"/>
<path d="M236.959 144.293H157.422M236.959 133.178H173.462H236.959Z" stroke="black" stroke-width="2" stroke-linecap="round"/>
<path d="M323.587 86.6387C323.587 88.7258 323.117 92.7984 321.03 92.7984C318.942 92.7984 316.028 88.7258 316.028 86.6387C316.028 84.5514 317.72 82.8594 319.807 82.8594C321.895 82.8594 323.587 84.5514 323.587 86.6387Z" fill="black"/>
<path d="M334.12 86.6387C334.12 88.7258 333.649 92.7984 331.563 92.7984C329.475 92.7984 326.562 88.7258 326.562 86.6387C326.562 84.5514 328.253 82.8594 330.341 82.8594C332.428 82.8594 334.12 84.5514 334.12 86.6387Z" fill="black"/>
<path d="M344.636 86.6387C344.636 88.7258 344.165 92.7984 342.079 92.7984C339.992 92.7984 337.078 88.7258 337.078 86.6387C337.078 84.5514 338.77 82.8594 340.857 82.8594C342.945 82.8594 344.636 84.5514 344.636 86.6387Z" fill="black"/>
<path d="M72.8227 114.408C78.116 114.408 82.4071 109.76 82.4071 104.025C82.4071 98.2908 78.116 93.6421 72.8227 93.6421C67.5294 93.6421 63.2383 98.2908 63.2383 104.025C63.2383 109.76 67.5294 114.408 72.8227 114.408Z" fill="black"/>
<path d="M97.6529 114.408C102.983 114.408 107.304 109.76 107.304 104.025C107.304 98.2908 102.983 93.6421 97.6529 93.6421C92.3228 93.6421 88.002 98.2908 88.002 104.025C88.002 109.76 92.3228 114.408 97.6529 114.408Z" fill="black"/>
<path d="M122.477 114.408C127.77 114.408 132.061 109.76 132.061 104.025C132.061 98.2908 127.77 93.6421 122.477 93.6421C117.184 93.6421 112.893 98.2908 112.893 104.025C112.893 109.76 117.184 114.408 122.477 114.408Z" fill="black"/>
<path d="M277.543 12.8398L281.687 23.3368L296.166 16.3674L286.854 29.8168L298.842 36.1928L285.011 37.8971L285.831 49.1526L277.543 41.4932L266.095 51.9762L270.076 37.8971L258.92 36.1928L268.231 29.8168L264.364 20.8268L273.399 23.3368L277.543 12.8398Z" fill="#FFDC4D"/>
<path d="M318.743 49.5806L319.819 52.294L323.585 50.4924L321.164 53.9692L324.282 55.6174L320.685 56.0579L320.898 58.9676L318.743 56.9876L315.765 59.6974L316.8 56.0579L313.898 55.6174L316.32 53.9692L315.315 51.6452L317.664 52.294L318.743 49.5806Z" fill="#FFDC4D"/>
<path d="M67.5658 156.577C42.7951 139.485 26.0954 158.551 20.8418 170.221C26.9322 173.947 40.472 180.635 50.7931 176.322C61.1141 172.009 66.6824 161.257 67.5658 156.577Z" fill="#D1EAFF"/>
<path d="M45.737 174.844C52.0228 174.844 57.1184 169.748 57.1184 163.462C57.1184 157.176 52.0228 152.081 45.737 152.081C39.4511 152.081 34.3555 157.176 34.3555 163.462C34.3555 169.748 39.4511 174.844 45.737 174.844Z" fill="black"/>
<path d="M21.1755 166.339L13.5879 162.146" stroke="black" stroke-width="2" stroke-linecap="round"/>
<path d="M26.5718 158.472L19.8809 152.96" stroke="black" stroke-width="2" stroke-linecap="round"/>
<path d="M35.5282 151.651L30.5195 144.574" stroke="black" stroke-width="2" stroke-linecap="round"/>
<path d="M46.2854 148.188L45.373 139.567" stroke="black" stroke-width="2" stroke-linecap="round"/>
<path d="M59.1855 149.814L61.6828 141.512" stroke="black" stroke-width="2" stroke-linecap="round"/>
<path d="M67.5645 154.135L72.3339 146.896" stroke="black" stroke-width="2" stroke-linecap="round"/>
<path d="M357.738 298.851C351.166 279.083 333.993 282.664 326.227 286.926C328.041 291.524 332.739 300.861 340.24 302.776C347.742 304.693 355.299 301.07 357.738 298.851Z" fill="#D1EAFF"/>
<path d="M338.06 299.852C341.534 302.47 346.474 301.777 349.092 298.302C351.711 294.828 351.018 289.888 347.543 287.27C344.069 284.651 339.129 285.344 336.51 288.819C333.892 292.293 334.585 297.233 338.06 299.852Z" fill="black"/>
<path d="M328.027 284.919L325.58 279.439" stroke="black" stroke-width="2" stroke-linecap="round"/>
<path d="M334.287 282.82L332.886 276.985" stroke="black" stroke-width="2" stroke-linecap="round"/>
<path d="M342.082 282.78L342.26 276.782" stroke="black" stroke-width="2" stroke-linecap="round"/>
<path d="M349.468 285.347L352.556 280.202" stroke="black" stroke-width="2" stroke-linecap="round"/>
<path d="M355.922 291.62L360.761 288.072" stroke="black" stroke-width="2" stroke-linecap="round"/>
<path d="M358.754 297.501L364.406 295.487" stroke="black" stroke-width="2" stroke-linecap="round"/>
<path d="M92.0559 36.418C82.546 22.3709 69.8725 28.9654 64.7246 34.0185C67.1601 37.2226 72.9018 43.5065 79.2051 43.3544C85.5084 43.2023 90.6338 38.6957 92.0559 36.418Z" fill="#D1EAFF"/>
<path d="M76.8525 41.5413C80.1536 42.8281 83.8729 41.1952 85.1597 37.894C86.4465 34.5929 84.8136 30.8736 81.5124 29.5868C78.2113 28.3 74.492 29.9329 73.2052 33.2341C71.9184 36.5352 73.5513 40.2545 76.8525 41.5413Z" fill="black"/>
<path d="M65.6968 32.0475L62.5703 28.292" stroke="black" stroke-width="2" stroke-linecap="round"/>
<path d="M70.1394 29.021L67.7539 24.7563" stroke="black" stroke-width="2" stroke-linecap="round"/>
<path d="M76.2404 27.2713L75.0586 22.5298" stroke="black" stroke-width="2" stroke-linecap="round"/>
<path d="M82.5996 27.6557L83.8854 22.9414" stroke="black" stroke-width="2" stroke-linecap="round"/>
<path d="M89.041 31.1504L92.052 27.3018" stroke="black" stroke-width="2" stroke-linecap="round"/>
<path d="M92.5586 35.1361L96.5454 32.3105" stroke="black" stroke-width="2" stroke-linecap="round"/>
<path d="M118.684 345.033L137.327 311.222L115.164 296.246L105.306 313.884C105.062 316.037 104.256 322.244 106.704 329.925C108.634 335.981 114.868 343.214 118.684 345.033Z" fill="#F07CF2"/>
<path d="M126.409 100.365C130.083 105.743 129.714 117.071 129.071 122.063C117.956 123.594 94.7801 126.19 90.9995 124.326C87.219 122.463 89.4242 119.068 90.9995 117.604C89.6151 117.178 88.1598 116.095 87.6051 115.607C85.6349 112.625 88.426 110.593 90.0677 109.95C84.3703 106.169 87.6937 102.961 90.0677 101.83C85.5418 98.262 88.8031 95.5065 90.9995 94.5747H99.5856C92.9963 87.3198 94.8599 83.3929 97.1895 82.8604C99.519 82.328 121.816 93.6429 126.409 100.365Z" fill="#F07CF2"/>
<path d="M100.248 117.103C101.779 117.98 104.455 120.239 102.911 122.262M91.5957 102.095C93.5275 102.491 97.2878 102.821 100.248 101.889L91.5957 102.095ZM100.98 95.7056C102.8 96.1936 105.733 97.8221 102.911 100.431C102.189 101.099 101.266 101.568 100.248 101.889L100.98 95.7056ZM91.5957 110.016C94.3912 110.437 100.568 110.881 102.911 109.283C105.839 107.287 106.505 103.346 100.248 101.889L91.5957 110.016ZM92.5941 117.337C94.266 117.467 97.5315 117.535 100.248 117.103L92.5941 117.337ZM102.911 110.947C104.064 112.279 105.679 115.234 102.911 116.405C102.168 116.72 101.245 116.945 100.248 117.103L102.911 110.947Z" stroke="black" stroke-width="2" stroke-linecap="round"/>
<path d="M104.043 99.4326C105.663 101.074 109.913 104.797 113.96 106.554" stroke="black" stroke-width="2" stroke-linecap="round"/>
<path d="M265.581 142.962C255.252 140.619 224.27 141.986 210.072 142.962C191.635 142.962 175.594 152.346 171.534 155.807C168.286 158.576 151.567 163.462 142.049 165.658C137.31 159.907 133.996 134.419 132.931 122.395C123.133 116.858 106.529 121.996 99.4512 125.257C100.694 134.132 103.751 156.074 106.04 172.846C108.902 193.812 113.828 210.785 127.605 212.648C138.628 214.139 171.069 205.104 185.911 200.401V212.648L296.728 280.538L293.07 226.759L324.752 251.518C330.276 254.647 343.575 256.949 352.573 241.135C363.822 221.367 331.341 193.413 314.369 171.049C298.962 150.749 278.494 145.89 265.581 142.962Z" fill="#3D98E7"/>
<path d="M192.498 184.162C198.159 184.162 202.748 179.573 202.748 173.912C202.748 168.251 198.159 163.662 192.498 163.662C186.837 163.662 182.248 168.251 182.248 173.912C182.248 179.573 186.837 184.162 192.498 184.162Z" fill="#0E76D0"/>
<path d="M132.326 209.321C137.987 209.321 142.576 204.732 142.576 199.071C142.576 193.41 137.987 188.821 132.326 188.821C126.665 188.821 122.076 193.41 122.076 199.071C122.076 204.732 126.665 209.321 132.326 209.321Z" fill="#0E76D0"/>
<path d="M122.076 135.174C122.076 140.836 126.665 145.424 132.326 145.424C133.54 145.424 134.706 145.213 135.787 144.825L133.191 124.96C132.907 124.936 132.618 124.924 132.326 124.924C126.665 124.924 122.076 129.513 122.076 135.174Z" fill="#0E76D0"/>
<path d="M239.617 248.99C245.278 248.99 249.867 244.401 249.867 238.74C249.867 233.079 245.278 228.49 239.617 228.49C233.956 228.49 229.367 233.079 229.367 238.74C229.367 244.401 233.956 248.99 239.617 248.99Z" fill="#0E76D0"/>
<path d="M314.965 237.674C320.626 237.674 325.215 233.085 325.215 227.424C325.215 221.763 320.626 217.174 314.965 217.174C309.304 217.174 304.715 221.763 304.715 227.424C304.715 233.085 309.304 237.674 314.965 237.674Z" fill="#0E76D0"/>
<path d="M334.4 206.925C334.4 212.586 338.989 217.175 344.65 217.175C346.435 217.175 347.914 216.247 349.376 215.444C348.045 211.384 341.366 203.995 337.995 199.129C335.794 201.009 334.4 203.804 334.4 206.925Z" fill="#0E76D0"/>
<path d="M277.826 186.291C283.487 186.291 288.076 181.702 288.076 176.041C288.076 170.38 283.487 165.791 277.826 165.791C272.165 165.791 267.576 170.38 267.576 176.041C267.576 181.702 272.165 186.291 277.826 186.291Z" fill="#0E76D0"/>
<path d="M142.514 167.322C143.113 169.142 144.683 175.708 145.908 182.098M189.704 165.791C188.173 173.468 185.231 190.298 185.71 196.208L189.704 165.791ZM182.049 178.57C182.049 182.763 182.049 191.656 182.049 193.679V178.57ZM300.523 186.823C312.726 194.9 337.823 211.557 340.591 213.58L300.523 186.823ZM332.405 200.468C334.69 202.841 339.819 208.388 342.056 211.583L332.405 200.468Z" stroke="black" stroke-width="2" stroke-linecap="round"/>
<path d="M182.182 201.667L296.527 279.207C296.527 279.207 300.888 346.298 300.454 348.095C301.452 355.882 298.014 359.92 296.527 361.074C264.223 361.85 216.976 362.938 215.059 361.074C208.514 354.711 158.485 295.181 158.485 295.181L136.124 325.199L105.371 302.171C104.839 299.02 103.627 292.386 103.042 291.054C102.309 289.391 101.045 284.598 98.7819 283.533C96.9715 282.681 95.3652 290.321 94.7884 294.247L80.4805 283.533L128.579 212.649C128.579 212.649 130.223 212.611 132.21 212.465C133.6 212.352 135.139 212.18 136.656 211.934C139.147 211.455 142.913 210.186 142.913 210.186C154.627 190.272 173.973 196.209 182.182 201.667Z" fill="black"/>
<path d="M142.577 211.65L92.9238 286.395" stroke="white" stroke-width="2" stroke-linecap="round"/>
<path d="M158.154 293.65L173.463 272.551C173.463 272.551 188.453 301.074 201.218 316.413C213.601 331.294 237.558 349.892 237.558 349.892" stroke="white" stroke-width="2" stroke-linecap="round"/>
<path d="M269.439 264.63C266.044 274.658 264.766 298.708 286.81 314.682" stroke="white" stroke-width="2" stroke-linecap="round"/>
<path d="M107.945 332.198C110.902 340.578 117.978 345.08 121.146 346.282L114.369 358.253C112.228 363.564 106.66 374.063 101.52 373.57L30.7598 295.14C31.3758 289.331 49.1538 279.207 53.7304 279.207C58.3068 279.207 66.9318 288.098 71.7724 291.707C75.6449 294.594 88.1129 300.303 93.863 302.798C94.3909 296.343 96.1688 283.556 99.0555 284.049C102.664 284.665 105.832 304.031 105.832 306.407C105.832 308.783 104.248 321.723 107.945 332.198Z" stroke="black" stroke-width="2"/>
<path d="M86.1359 357.419C83.9934 362.731 77.8068 374.197 72.6648 373.704L1.87305 295.273C2.48939 289.463 20.2753 279.34 24.8539 279.34C27.8658 279.34 32.6303 283.187 36.9169 286.848" stroke="black" stroke-width="2"/>
<path d="M39.0117 286.396C39.276 289.564 40.6151 296.64 43.8572 299.598C52.6732 307.64 64.5612 328.779 75.3085 331.637C81.7398 333.045 89.8449 352.057 94.4261 355.401C99.0072 358.746 106.055 363.939 111.693 363.586" stroke="black" stroke-width="2"/>
<path d="M10.793 286.528C11.0572 289.696 12.3964 296.773 15.6384 299.731C24.4545 307.772 36.3425 328.911 47.0898 331.769C53.5211 333.178 61.6261 352.189 66.2073 355.533C70.7884 358.879 77.8364 364.072 83.4747 363.719" stroke="black" stroke-width="2"/>
<path d="M45.5352 283.2C46.9714 287.714 51.1628 297.884 56.4388 302.456C63.0338 308.172 67.87 313.711 70.684 315.557C73.4978 317.403 88.4464 308.962 88.7981 300.697" stroke="black" stroke-width="2"/>
<path d="M120.349 346.362C117.326 344.849 109.431 341.001 105.909 341.908C102.387 342.816 94.8152 349.564 92.2617 353.086" stroke="black" stroke-width="2"/>
<path d="M272.721 165.858L295.938 185.001C286.56 193.215 282.677 198.622 278.049 209.602L254.349 193.42C251.803 193.643 246.232 193.527 244.316 191.292C242.401 189.057 245.17 186.167 246.792 185.001C243.836 181.151 247.184 177.452 249.029 176.464C248.904 171.572 253.371 170.336 255.822 169.949C258.198 158.6 268.235 161.954 272.721 165.858Z" fill="#F07CF2"/>
<path d="M256.924 169.997C258.765 169.591 263.255 169.374 266.487 171.754" stroke="black" stroke-width="2" stroke-linecap="round"/>
<path d="M250.082 176.539C251.923 176.133 256.413 175.916 259.645 178.296" stroke="black" stroke-width="2" stroke-linecap="round"/>
<path d="M248.391 184.761C250.232 184.355 254.722 184.138 257.954 186.518" stroke="black" stroke-width="2" stroke-linecap="round"/>
<path d="M250.125 189.556L253.882 192.928" stroke="black" stroke-width="2" stroke-linecap="round"/>
<path d="M241.881 91.872C232.682 92.6796 228.592 95.5051 222.899 108.167C220.01 114.594 218.883 124.17 222.258 127.02C224.372 128.806 229.178 130.527 234.065 131.682C234.065 131.682 234.065 139.102 232.503 140.832C231.586 141.849 229.308 142.429 229.308 142.429C229.308 142.429 227.913 148.952 234.065 152.679C243.618 158.47 260.79 143.028 260.79 143.028C258.563 142.367 255.741 141.057 255.342 139.594C254.941 138.132 257.311 130.376 258.545 126.68C262.408 122.54 264.567 116.806 264.029 110.68C263.031 99.3063 253.115 90.8857 241.881 91.872Z" fill="#F07CF2"/>
<path d="M225.844 116.041L230.728 110.538L230.708 117.634L225.844 116.041Z" fill="#DC34DF"/>
<path d="M230.225 110.985L225.543 115.949L230.407 117.424" stroke="black" stroke-width="2" stroke-linecap="round"/>
<path d="M230.512 122.22L224.986 120.191C225.125 121.042 225.853 122.611 226.809 123.161C228.389 124.068 229.639 123.021 230.512 122.22Z" stroke="black" stroke-width="2"/>
<path d="M223.953 109.079C224.704 109.547 225.693 109.317 226.161 108.566C226.629 107.814 226.399 106.826 225.648 106.358C224.896 105.89 223.908 106.119 223.44 106.871C222.972 107.622 223.201 108.611 223.953 109.079Z" fill="black"/>
<path d="M235.054 113.455C235.806 113.923 236.794 113.694 237.262 112.942C237.73 112.191 237.501 111.202 236.749 110.734C235.998 110.266 235.009 110.496 234.541 111.247C234.073 111.999 234.303 112.987 235.054 113.455Z" fill="black"/>
<path d="M236.348 106.479C237.809 106.478 239.672 107.079 240.618 108.127" stroke="black" stroke-width="2" stroke-linecap="round"/>
<path d="M227.95 103.357C226.767 102.498 224.906 101.894 223.525 102.187" stroke="black" stroke-width="2" stroke-linecap="round"/>
<path d="M235.498 119.381C236.271 119.863 237.289 119.626 237.771 118.853C238.253 118.079 238.017 117.061 237.243 116.579C236.469 116.097 235.451 116.333 234.969 117.107C234.487 117.881 234.724 118.899 235.498 119.381Z" fill="#DC34DF"/>
<path d="M222.105 114.092C222.879 114.574 223.897 114.338 224.379 113.564C224.861 112.79 224.624 111.772 223.85 111.29C223.077 110.808 222.059 111.045 221.577 111.819C221.095 112.592 221.331 113.61 222.105 114.092Z" fill="#DC34DF"/>
<path d="M245.296 103.649C236.35 104.435 230.093 100.987 228.582 98.1427C227.56 96.0436 226.672 91.1664 231.304 88.4508C235.937 85.7353 239.713 88.4729 241.022 90.1814H243.884C244.04 84.0135 247.318 72.0242 259.192 73.4086C271.066 74.7931 272.837 83.0817 272.238 87.053C274.989 86.5427 280.491 87.1062 280.491 93.4426C280.491 99.7789 276.808 101.363 274.967 101.363C276.454 103.315 278.428 108.112 274.434 111.68C270.441 115.247 265.876 113.166 264.092 111.68C264.325 117.428 262.197 122.767 258.544 126.681C248.687 127.546 248.216 120.757 249.213 117.254C249.818 115.443 251.571 111.195 253.733 108.692C256.436 105.563 252.206 103.043 245.296 103.649Z" fill="black"/>
<path d="M249.738 122.337C251.623 123.499 254.442 122.346 256.034 119.762C257.626 117.178 257.388 114.142 255.503 112.98C253.618 111.819 250.799 112.972 249.207 115.556C247.615 118.14 247.853 121.176 249.738 122.337Z" fill="#DC34DF"/>
<path d="M250.072 117.664C250.767 116.622 252.6 115.081 253.812 114.799" stroke="black" stroke-width="2" stroke-linecap="round"/>
<path d="M252.801 115.401C253.227 115.931 253.727 117.13 253.675 117.804" stroke="black" stroke-width="2" stroke-linecap="round"/>
<path d="M250.469 120.665C245.58 120.665 241.617 124.628 241.617 129.517C241.617 134.407 245.58 138.37 250.469 138.37C255.359 138.37 259.322 134.407 259.322 129.517C259.322 126.509 257.821 123.852 255.528 122.252" stroke="black" stroke-width="2" stroke-linecap="round"/>
<path d="M181.264 1.99506L200.718 5.8641L188.877 65.3992L169.425 61.5303C152.984 58.2607 142.308 42.2826 145.577 25.8424C148.846 9.40221 164.824 -1.27455 181.264 1.99506Z" stroke="black" stroke-width="2"/>
<path d="M144.909 28.0825C129.89 29.2362 94.1642 27.4169 91.4627 57.3682C90.1148 72.3136 94.9086 85.2612 97.1096 94.0419M346.115 208.722C366.016 173.646 349.576 153.745 333.07 153.745C316.563 153.745 326.214 191.616 340.657 185.493C355.1 179.37 368.079 141.431 326.214 118.136C292.722 99.4997 274.14 125.058 270.638 148.354C269.994 152.637 269.14 157.364 268.069 162.397M375.001 348.162C361.024 353.42 329.369 357.2 314.566 330.258C302.659 308.586 310.9 279.004 323.592 251.319M258.358 196.808C245.154 233.93 221.901 271.581 186.175 271.22C120.283 270.555 101.18 189.487 135.99 153.745C170.8 118.003 186.175 165.792 177.39 185.493C172.285 196.94 155.558 219.638 118.153 216.642C80.7468 213.647 75.2891 185.693 75.2891 176.508C75.2892 160.667 81.7452 151.948 91.4627 137.904C94.5268 133.475 96.7041 129.213 98.2243 125.324" stroke="black" stroke-width="2" stroke-linecap="round"/>
<path d="M202.041 2.03125L216.823 4.9714L203.368 72.6279L188.584 69.6876L202.041 2.03125Z" stroke="black" stroke-width="2"/>
<path d="M208.624 46.3472L236.863 51.7545L235.336 59.7298L207.096 54.3223L208.624 46.3472Z" fill="black"/>
<path d="M241.832 30.6272L213.592 25.2197L212.065 33.195L240.305 38.6024L241.832 30.6272Z" fill="black"/>
</svg>
