<svg width="468" height="468" viewBox="0 0 468 468" fill="none" xmlns="http://www.w3.org/2000/svg">
<path d="M265.119 64.7402H78.6211V343.2H357.081V64.7402H311.1" stroke="black" stroke-width="2.02" stroke-linecap="round"/>
<path d="M343.2 184.86H175.5V336.18H343.2V184.86Z" fill="white"/>
<path fill-rule="evenodd" clip-rule="evenodd" d="M142.742 362.856C142.742 362.856 169.886 322.156 169.886 307.164C169.886 292.172 157.733 280.02 142.742 280.02C127.75 280.02 115.598 292.172 115.598 307.164C115.598 322.156 142.742 362.856 142.742 362.856ZM142.742 316.836C147.825 316.836 151.946 312.715 151.946 307.632C151.946 302.55 147.825 298.428 142.742 298.428C137.658 298.428 133.538 302.55 133.538 307.632C133.538 312.715 137.658 316.836 142.742 316.836Z" fill="#EC5B60"/>
<path fill-rule="evenodd" clip-rule="evenodd" d="M307.812 393.309C307.812 393.309 348.16 407.352 363.147 407.742C378.133 408.132 390.433 402.638 390.62 395.468C390.808 388.3 378.81 382.171 363.824 381.781C348.837 381.389 307.812 393.309 307.812 393.309ZM353.817 394.509C353.753 396.939 357.821 399.019 362.902 399.152C367.985 399.283 372.155 397.42 372.219 394.989C372.283 392.557 368.214 390.479 363.133 390.347C358.051 390.214 353.881 392.078 353.817 394.509Z" fill="#EC5B60"/>
<path fill-rule="evenodd" clip-rule="evenodd" d="M245.607 407.67C245.607 407.67 271.923 416.829 281.698 417.083C291.471 417.337 299.493 413.754 299.615 409.079C299.738 404.402 291.913 400.405 282.139 400.151C272.365 399.896 245.607 407.67 245.607 407.67ZM275.612 408.453C275.57 410.038 278.224 411.394 281.537 411.479C284.852 411.567 287.573 410.351 287.614 408.765C287.656 407.18 285.002 405.824 281.687 405.739C278.374 405.651 275.653 406.866 275.612 408.453Z" fill="#EC5B60"/>
<path d="M312.969 181.084L317.103 73.9443H445.246V176.697L312.969 181.084Z" stroke="black" stroke-width="2.02"/>
<path d="M446.181 73.0078H316.201V94.6609H446.181V73.0078Z" fill="black"/>
<path d="M326.43 89.3663C329.485 89.3663 331.961 86.8899 331.961 83.835C331.961 80.7802 329.485 78.3037 326.43 78.3037C323.375 78.3037 320.898 80.7802 320.898 83.835C320.898 86.8899 323.375 89.3663 326.43 89.3663Z" fill="white"/>
<path d="M340.811 89.3663C343.865 89.3663 346.342 86.8899 346.342 83.835C346.342 80.7802 343.865 78.3037 340.811 78.3037C337.756 78.3037 335.279 80.7802 335.279 83.835C335.279 86.8899 337.756 89.3663 340.811 89.3663Z" fill="white"/>
<path d="M355.191 89.3663C358.246 89.3663 360.723 86.8899 360.723 83.835C360.723 80.7802 358.246 78.3037 355.191 78.3037C352.137 78.3037 349.66 80.7802 349.66 83.835C349.66 86.8899 352.137 89.3663 355.191 89.3663Z" fill="white"/>
<path d="M319.672 41.8226C290.644 21.7926 271.073 44.1365 264.916 57.8121C272.053 62.1799 287.921 70.0171 300.016 64.9628C312.111 59.9086 318.636 47.3083 319.672 41.8226Z" fill="white"/>
<path d="M294.086 63.2287C301.452 63.2287 307.424 57.2571 307.424 49.8907C307.424 42.5244 301.452 36.5527 294.086 36.5527C286.72 36.5527 280.748 42.5244 280.748 49.8907C280.748 57.2571 286.72 63.2287 294.086 63.2287Z" fill="black"/>
<path d="M265.302 53.2621L256.41 48.3481" stroke="black" stroke-width="2.02" stroke-linecap="round"/>
<path d="M271.626 44.0444L263.785 37.5845" stroke="black" stroke-width="2.02" stroke-linecap="round"/>
<path d="M282.126 36.0487L276.256 27.7563" stroke="black" stroke-width="2.02" stroke-linecap="round"/>
<path d="M294.728 31.9917L293.658 21.8887" stroke="black" stroke-width="2.02" stroke-linecap="round"/>
<path d="M309.848 33.8972L312.774 24.1685" stroke="black" stroke-width="2.02" stroke-linecap="round"/>
<path d="M319.67 38.9623L325.259 30.4785" stroke="black" stroke-width="2.02" stroke-linecap="round"/>
<path d="M118.259 386.958C101.789 375.593 90.6847 388.271 87.1914 396.031C91.2412 398.508 100.244 402.956 107.107 400.087C113.969 397.219 117.672 390.07 118.259 386.958Z" fill="white"/>
<path d="M103.744 399.104C107.923 399.104 111.311 395.716 111.311 391.536C111.311 387.357 107.923 383.968 103.744 383.968C99.564 383.968 96.1758 387.357 96.1758 391.536C96.1758 395.716 99.564 399.104 103.744 399.104Z" fill="black"/>
<path d="M87.4143 393.449L82.3691 390.661" stroke="black" stroke-width="2.02" stroke-linecap="round"/>
<path d="M91.0017 388.219L86.5527 384.554" stroke="black" stroke-width="2.02" stroke-linecap="round"/>
<path d="M96.9574 383.682L93.627 378.977" stroke="black" stroke-width="2.02" stroke-linecap="round"/>
<path d="M104.108 381.381L103.502 375.648" stroke="black" stroke-width="2.02" stroke-linecap="round"/>
<path d="M112.686 382.462L114.346 376.941" stroke="black" stroke-width="2.02" stroke-linecap="round"/>
<path d="M118.26 385.336L121.431 380.521" stroke="black" stroke-width="2.02" stroke-linecap="round"/>
<path d="M237.346 112.68L239.823 131.744C239.823 131.744 246.377 163.57 255.5 192.184L217.877 206.155C209.338 178.768 201.583 151.083 201.828 147.174C202.16 141.888 205.942 139.702 207.79 139.27C209.8 131.315 215.748 132.012 218.47 133.355C220.443 127.548 225.253 127.756 227.412 128.586C227.208 125.881 227.403 118.922 229.817 112.724C232.232 106.526 236.886 109.044 237.346 112.68Z" fill="#AD5B5B"/>
<path d="M218.532 134.7C218.135 137.112 218.612 143.008 223.364 148.25M223.364 148.25C231.916 155.953 234.148 145.705 231.722 137.542M223.364 148.25C223.816 151.451 224.868 157.766 218.76 156.695C212.653 155.623 208.865 145.575 208.57 140.776" stroke="black" stroke-width="1.34667" stroke-linecap="round"/>
<path d="M237.982 165.431C231.92 156.255 233.494 148.81 236.593 144.191C238.171 141.842 239.996 141.385 241.587 143.004" stroke="black" stroke-width="1.34667" stroke-linecap="round"/>
<path d="M203.77 153.235C204.531 155.154 206.574 159.61 209.476 160.827C212.378 162.042 213.886 158.909 214.278 157.19" stroke="black" stroke-width="1.34667" stroke-linecap="round"/>
<path d="M171.54 324.941C175.207 325.774 187.606 329.686 193.349 331.538C197.015 339.262 209.253 362.861 211.128 373.834C201.174 376.658 172.374 382.584 167.095 382.584C160.498 382.584 152.164 377.862 146.886 375.432C142.663 373.487 142.904 369.621 143.552 367.931C139.718 364.598 140.334 361.309 141.121 360.083C132.731 357.916 130.681 354.364 130.704 352.86C130.171 352.86 128.62 352.611 126.676 351.609C124.245 350.36 124.523 345.567 126.676 344.318C128.829 343.068 130.079 343.831 141.121 342.72C149.955 341.831 155.636 339.479 157.373 338.415C159.096 336.137 162.473 328.459 164.501 324.637C165.45 324.289 167.874 324.108 171.54 324.941Z" fill="#AD5B5B"/>
<path d="M159.111 337.928C161.102 337.372 165.737 336.039 168.348 335.149" stroke="black" stroke-width="2.02" stroke-linecap="round"/>
<path d="M131.676 352.789C139.758 353.875 146.052 355.29 157.442 352.304" stroke="black" stroke-width="2.02" stroke-linecap="round"/>
<path d="M145.775 369.04C148.252 369.758 154.595 371.054 160.151 370.499M142.441 360.428C145.868 361.308 153.415 361.818 157.998 360.428H142.441Z" stroke="black" stroke-width="2.02" stroke-linecap="round"/>
<path d="M333.552 133.024C333.552 135.535 332.877 137.765 331.832 139.34C330.782 140.923 329.437 141.752 328.08 141.752C326.723 141.752 325.378 140.923 324.328 139.34C323.284 137.765 322.607 135.535 322.607 133.024C322.607 130.514 323.284 128.283 324.328 126.708C325.378 125.126 326.723 124.296 328.08 124.296C329.437 124.296 330.782 125.126 331.832 126.708C332.877 128.283 333.552 130.514 333.552 133.024Z" stroke="black" stroke-width="2.02"/>
<path d="M347.411 157.872L352.169 170.04C365.613 176.223 373.343 183.08 382.511 169.338L373.755 146.859C376.229 136.856 376.073 116.647 355.648 115.833C330.114 114.816 324.723 139.535 330.013 150.725C334.245 159.677 340.937 158.574 347.411 157.872Z" fill="#AD5B5B"/>
<path d="M357.071 147.368C361.341 147.368 364.802 143.907 364.802 139.637C364.802 135.367 361.341 131.906 357.071 131.906C352.801 131.906 349.34 135.367 349.34 139.637C349.34 143.907 352.801 147.368 357.071 147.368Z" fill="#804141"/>
<path d="M351.578 138.823C352.617 138.348 354.885 137.398 355.648 137.398" stroke="black" stroke-width="1.34667" stroke-linecap="round"/>
<path d="M354.742 138.463C355.149 139.209 355.978 140.842 356.029 141.411" stroke="black" stroke-width="1.34667" stroke-linecap="round"/>
<path d="M322.994 131.091L351.679 132.006" stroke="black" stroke-width="2.02"/>
<path d="M331.325 140.778C332.203 140.972 333.238 139.661 333.638 137.851C334.037 136.04 333.649 134.416 332.771 134.222C331.893 134.029 330.858 135.339 330.459 137.15C330.059 138.96 330.447 140.585 331.325 140.778Z" fill="#804141"/>
<path d="M332.047 119.799L347.917 131.193L349.747 137.906C350.018 136.516 351.497 133.797 355.241 134.041C359.919 134.346 361.242 141.67 357.579 144.417C354.65 146.614 351.679 145.332 350.561 144.417L354.665 163.332L410.123 160.056C410.123 160.056 406.123 147.184 395.625 127.327C385.127 107.47 370.974 107.186 365.209 109.525C350.561 102.12 336.998 113.289 332.047 119.799Z" fill="black"/>
<path d="M396.505 97.2579C399.769 102.638 398.014 109.668 392.586 112.961C387.158 116.253 366.027 117.359 366.027 117.359C366.027 117.359 375.341 96.771 380.768 93.4785C386.197 90.186 393.242 91.8781 396.505 97.2579Z" fill="black"/>
<path d="M252.873 183.3C235.479 192.816 224.247 193.752 213.639 194.532C213.093 194.922 211.845 198.042 211.689 200.304C211.519 202.761 213.717 218.868 217.149 228.852C220.581 238.836 229.083 261.222 243.591 265.356C255.197 268.663 286.959 270.504 300.687 265.356C295.643 274.404 289.611 285.636 283.839 294.918C277.788 304.648 236.025 313.17 213.639 318.63C195.73 322.998 190.733 328.25 189.381 330.33C190.629 333.32 196.658 340.591 199.443 348.348C203.797 360.478 205.995 373.464 205.527 375.336C205.059 377.208 274.427 369.486 295.773 362.388C297.021 363.09 299.71 364.862 305.289 366.834C319.407 371.826 347.643 364.806 366.909 362.388C386.175 359.97 388.203 367.848 407.157 366.834C426.111 365.82 429.465 362.31 427.749 326.898C426.033 291.486 409.497 187.914 388.047 170.352C372.528 157.646 351.933 164.645 344.757 171.509C337.581 178.373 332.121 188.916 321.123 197.886C303.573 210.288 274.011 215.748 266.757 210.99C259.503 206.232 259.581 188.136 252.873 183.3Z" fill="#587291"/>
<path d="M396.788 189.228L402.638 186.264M398.114 195.624L401.312 196.638M281.66 208.884L283.532 214.188M288.056 210.756V214.188M216.53 215.67L208.73 214.188M261.38 265.824L260.21 271.752M285.404 360.984L288.056 369.096M422.138 312.702L430.484 315.978M216.53 220.428L211.694 222.768M221.132 321.048L216.53 310.284M226.67 315.978V312.702M226.67 372.216L223.238 378.768M315.2 357.318C314.765 350.745 315.89 341.49 320.494 334.152M320.494 334.152C325.796 325.698 335.716 319.792 353.186 323.466M320.494 334.152L315.2 331.422M223.238 241.176C231.272 239.408 248.744 241.862 254.36 265.824M311.378 343.122H319.334M340.082 317.928L339.692 325.182M230.492 243.594L232.598 236.34M250.226 259.116H254.36M243.284 249.444L254.36 243.594" stroke="black" stroke-width="2.02" stroke-linecap="round"/>
<path d="M310.127 358.566C320.553 355.965 343.48 346.148 351.779 327.678C362.153 304.59 378.611 265.59 381.185 259.974M325.025 200.85C319.331 215.955 307.194 247.806 304.199 254.358L325.025 200.85Z" stroke="black" stroke-width="2.02" stroke-linecap="round"/>
<path d="M265.593 212.238C263.148 215.097 257.886 221.691 256.389 225.186" stroke="black" stroke-width="2.02" stroke-linecap="round"/>
<path d="M384.542 263.328C383.918 264.837 381.921 270.52 378.926 281.19" stroke="black" stroke-width="2.02" stroke-linecap="round"/>
</svg>
