<svg width="421" height="352" viewBox="0 0 421 352" fill="none" xmlns="http://www.w3.org/2000/svg">
<path d="M116.561 37.3068C63.5749 1.04035 27.8529 41.4965 16.6152 66.258C29.643 74.1665 58.6055 88.3565 80.6831 79.2052C102.761 70.0538 114.672 47.2397 116.561 37.3068Z" fill="white"/>
<path d="M69.713 76.9717C82.9376 76.9717 93.6583 66.022 93.6583 52.5149C93.6583 39.0078 82.9376 28.0581 69.713 28.0581C56.4883 28.0581 45.7676 39.0078 45.7676 52.5149C45.7676 66.022 56.4883 76.9717 69.713 76.9717Z" fill="#242938"/>
<path d="M17.6577 58.2398L1 49.9141" stroke="#242938" stroke-width="2" stroke-linecap="round"/>
<path d="M29.1106 41.5875L14.5352 30.1396" stroke="#242938" stroke-width="2" stroke-linecap="round"/>
<path d="M47.8466 27.018L37.4355 11.4072" stroke="#242938" stroke-width="2" stroke-linecap="round"/>
<path d="M70.7521 19.7329L68.6699 1" stroke="#242938" stroke-width="2" stroke-linecap="round"/>
<path d="M162.794 177.161L160.465 107.433L228.291 110.904L232.301 177.161H162.794Z" stroke="#587291" stroke-width="2"/>
<path d="M98.8633 22.8551L104.069 6.20361" stroke="#242938" stroke-width="2" stroke-linecap="round"/>
<path d="M116.562 32.2219L126.974 17.6519" stroke="#242938" stroke-width="2" stroke-linecap="round"/>
<path d="M244.792 131.369H139.641V236.481H244.792V131.369Z" fill="white"/>
<path d="M237.75 100.147L235.42 30.4189L303.246 33.8906L307.256 100.147H237.75Z" stroke="#242938" stroke-width="2"/>
<path d="M159.782 99.107L157.34 31.4604H223.932L226.053 99.107H159.782Z" stroke="#242938" stroke-width="2"/>
<path d="M158.381 83.4971H226.169L227.094 99.1078H158.912L158.381 83.4971Z" fill="#242938"/>
<path d="M84.8232 257.296L82.3789 190.55L147.232 187.568L151.092 257.296H84.8232Z" stroke="#587291" stroke-width="2"/>
<path d="M133.34 209.848C125.481 202.041 118.945 214.323 116.659 221.44C110.066 217.248 96.3131 210.751 94.0451 218.296C91.7771 225.841 108.176 237.726 116.659 242.726C125.494 235.02 141.199 217.655 133.34 209.848Z" fill="#242938"/>
<path d="M84.8211 175.079L82.3789 107.433H148.971L151.092 175.079H84.8211Z" stroke="#242938" stroke-width="2"/>
<path d="M242.033 178.201L239.588 110.459L304.442 107.433L308.301 178.201H242.033Z" stroke="#242938" stroke-width="2"/>
<path d="M191.695 75.1704C200.895 75.1704 208.352 67.9482 208.352 59.0393C208.352 50.1303 200.895 42.9082 191.695 42.9082C182.495 42.9082 175.037 50.1303 175.037 59.0393C175.037 67.9482 182.495 75.1704 191.695 75.1704Z" fill="white"/>
<path d="M116.939 120.962L121.154 131.57L135.88 124.527L126.41 138.117L138.601 144.56L124.534 146.283L125.369 157.657L116.939 149.917L105.296 160.51L109.344 146.283L97.998 144.56L107.469 138.117L103.536 129.033L112.724 131.57L116.939 120.962Z" fill="#242938"/>
<path d="M122.142 118.88L126.357 129.488L141.083 122.445L131.613 136.035L143.804 142.478L129.737 144.201L130.572 155.575L122.142 147.835L110.499 158.428L114.547 144.201L103.201 142.478L112.672 136.035L108.739 126.951L117.927 129.488L122.142 118.88Z" fill="white"/>
<path d="M208.125 306.582H215.479H218.328C228.531 323.402 249.8 335.302 258.413 337.762C267.026 340.222 278.024 356.244 313.206 350.925C369.259 341.95 374.559 324.665 398.279 303.324C421.998 281.983 425.245 238.504 415.837 222.482C406.428 206.46 408.88 163.778 404.374 149.817C399.869 135.856 385.558 111.257 350.442 96.0991C322.35 83.9727 289.089 108.819 275.971 122.759C257.949 125.737 233.302 142.038 223.231 149.817C222.546 151.057 214.962 161.584 190.103 193.761C159.029 233.983 184.803 288.1 190.103 289.762C195.404 291.424 201.168 306.582 208.125 306.582Z" fill="#EC5B60"/>
<path d="M252.078 308.291C252.078 304.703 250.707 301.261 248.267 298.724C245.825 296.187 242.516 294.762 239.065 294.762C235.612 294.762 232.303 296.187 229.862 298.724C227.421 301.261 226.051 304.703 226.051 308.291H231.096C231.096 306.095 231.935 303.988 233.43 302.434C234.924 300.881 236.951 300.007 239.065 300.007C241.177 300.007 243.204 300.881 244.698 302.434C246.192 303.988 247.031 306.095 247.031 308.291H252.078Z" fill="white"/>
<path d="M301.01 279.606C303.795 281.297 307.07 281.688 310.115 280.694C313.159 279.7 315.724 277.402 317.245 274.306C318.766 271.21 319.118 267.568 318.224 264.183C317.33 260.798 315.263 257.947 312.477 256.256L310.255 260.783C311.96 261.819 313.224 263.563 313.772 265.636C314.32 267.709 314.104 269.938 313.173 271.834C312.242 273.73 310.671 275.137 308.808 275.745C306.943 276.354 304.938 276.115 303.234 275.079L301.01 279.606Z" fill="white"/>
<path d="M292.254 314.535C289.164 316.177 286.883 318.93 285.911 322.187C284.939 325.442 285.355 328.935 287.069 331.897C288.783 334.858 291.654 337.046 295.049 337.978C298.446 338.91 302.089 338.511 305.177 336.868L302.672 332.538C300.781 333.544 298.55 333.789 296.472 333.217C294.392 332.647 292.634 331.307 291.585 329.495C290.536 327.681 290.28 325.542 290.876 323.549C291.471 321.555 292.868 319.87 294.76 318.864L292.254 314.535Z" fill="white"/>
<path d="M263.099 215.667C260.01 217.309 257.729 220.062 256.757 223.318C255.784 226.574 256.201 230.068 257.915 233.029C259.629 235.99 262.499 238.177 265.896 239.109C269.291 240.043 272.934 239.642 276.023 237.999L273.518 233.669C271.626 234.675 269.395 234.92 267.317 234.35C265.237 233.778 263.479 232.439 262.43 230.626C261.381 228.813 261.127 226.675 261.722 224.681C262.317 222.687 263.713 221.003 265.605 219.997L263.099 215.667Z" fill="white"/>
<path d="M342.653 191.421C342.189 188.043 340.382 184.983 337.624 182.916C334.868 180.848 331.389 179.943 327.953 180.397C324.517 180.852 321.405 182.631 319.303 185.342C317.201 188.052 316.28 191.474 316.742 194.852L321.765 194.187C321.482 192.118 322.046 190.024 323.333 188.364C324.621 186.704 326.525 185.616 328.629 185.338C330.732 185.058 332.862 185.613 334.55 186.879C336.239 188.145 337.345 190.017 337.629 192.087L342.653 191.421Z" fill="white"/>
<path d="M276.025 129.784C278.01 132.612 281.111 134.584 284.648 135.268C288.183 135.952 291.864 135.291 294.881 133.431C297.896 131.572 300.001 128.665 300.731 125.35C301.461 122.036 300.756 118.585 298.771 115.758L294.361 118.477C295.576 120.208 296.008 122.321 295.561 124.35C295.114 126.38 293.826 128.16 291.98 129.298C290.133 130.437 287.879 130.841 285.714 130.423C283.549 130.003 281.65 128.796 280.436 127.065L276.025 129.784Z" fill="white"/>
<path d="M388.463 295.248C388 291.628 386.192 288.349 383.435 286.134C380.678 283.92 377.2 282.949 373.764 283.436C370.328 283.924 367.216 285.83 365.114 288.734C363.011 291.638 362.09 295.304 362.552 298.924L367.575 298.211C367.293 295.995 367.857 293.75 369.144 291.972C370.431 290.193 372.336 289.027 374.439 288.729C376.543 288.43 378.673 289.024 380.361 290.381C382.049 291.737 383.156 293.743 383.44 295.961L388.463 295.248Z" fill="white"/>
<path d="M375.969 240.234C377.808 243.356 380.787 245.602 384.25 246.482C387.713 247.362 391.377 246.8 394.436 244.923C397.493 243.045 399.696 240.004 400.558 236.469C401.418 232.935 400.869 229.195 399.029 226.074L394.559 228.82C395.685 230.73 396.021 233.02 395.493 235.184C394.966 237.348 393.618 239.211 391.746 240.359C389.873 241.51 387.63 241.853 385.51 241.315C383.39 240.776 381.566 239.4 380.439 237.488L375.969 240.234Z" fill="white"/>
<path d="M367.643 143.781C369.406 146.746 372.261 148.881 375.58 149.717C378.899 150.551 382.41 150.019 385.34 148.235C388.271 146.452 390.381 143.563 391.206 140.205C392.032 136.847 391.506 133.294 389.743 130.329L385.458 132.937C386.538 134.753 386.86 136.928 386.354 138.984C385.849 141.039 384.557 142.808 382.762 143.9C380.969 144.992 378.819 145.318 376.787 144.806C374.755 144.295 373.008 142.988 371.927 141.173L367.643 143.781Z" fill="white"/>
<path d="M225.012 169.8C226.852 172.764 229.831 174.9 233.294 175.735C236.757 176.57 240.421 176.037 243.478 174.253C246.537 172.47 248.739 169.581 249.6 166.223C250.462 162.866 249.913 159.313 248.073 156.347L243.601 158.955C244.728 160.771 245.064 162.946 244.537 165.002C244.01 167.058 242.661 168.826 240.789 169.919C238.917 171.01 236.674 171.336 234.554 170.825C232.434 170.314 230.61 169.006 229.483 167.192L225.012 169.8Z" fill="white"/>
<path d="M210.436 212.244C208.905 208.903 206.133 206.318 202.73 205.058C199.327 203.797 195.572 203.964 192.291 205.522C189.009 207.081 186.47 209.902 185.232 213.366C183.993 216.83 184.158 220.652 185.688 223.993L190.485 221.715C189.548 219.67 189.448 217.329 190.207 215.208C190.965 213.088 192.519 211.361 194.529 210.407C196.537 209.453 198.837 209.35 200.92 210.122C203.003 210.893 204.7 212.477 205.637 214.521L210.436 212.244Z" fill="white"/>
<path d="M317.669 160.156L287.108 155.305C285.843 160.527 283.312 171.681 283.312 174.513C283.312 177.345 288.594 185.09 291.236 188.608C294.453 188.52 302.368 187.31 308.281 183.167C314.193 179.024 317.003 166.1 317.669 160.156Z" fill="white"/>
<path d="M222.93 242.603C235.32 248.653 264.83 258.935 283.753 251.677C307.407 242.603 303.233 244.723 308.202 237.636C313.171 230.55 315.622 220.616 321.851 216.907C328.079 213.198 326.82 199.092 321.851 182.137C316.881 165.183 333.909 115.976 364.52 114.717" stroke="#242938" stroke-width="2" stroke-linecap="round"/>
<path d="M217.778 252.092L233.336 258.561M211.473 288.951C213.482 291.332 217.997 296.66 219.971 298.924L211.473 288.951ZM212.364 281.337L224.837 288.951L212.364 281.337ZM213.529 272.779L227.51 273.722L213.529 272.779ZM216.133 264.221H228.333H216.133Z" stroke="#242938" stroke-width="2" stroke-linecap="round"/>
<path d="M268.736 130.329C262.002 134.306 247.042 147.665 241.074 169.275C233.614 196.289 224.635 206.583 224.173 211.894C223.803 216.143 224.019 230.056 224.173 236.482" stroke="#242938" stroke-width="2" stroke-linecap="round"/>
<path d="M305.174 108.958C312.29 113.882 331.175 120.077 341.612 106.392" stroke="#242938" stroke-width="2" stroke-linecap="round"/>
<path d="M317.67 115.951C320.109 116.808 326.442 117.76 332.245 114.717" stroke="#242938" stroke-width="2" stroke-linecap="round"/>
<path d="M306.631 94.3672C307.207 100.56 305.159 104.393 304.135 106.679C316.423 117.237 336.645 116.538 345.779 101.232C343.458 97.8699 338.045 91.0362 339.321 83.4971L306.631 94.3672Z" fill="#AD5B5B"/>
<path d="M346.819 65.1597C346.819 82.6219 333.535 96.7779 317.148 96.7779C312.443 96.7779 305.892 97.7916 301.939 95.7142C292.125 90.5567 287.477 77.6079 287.477 65.1597C287.477 47.6975 300.761 33.5415 317.148 33.5415C333.535 33.5415 346.819 47.6975 346.819 65.1597Z" fill="#AD5B5B"/>
<path d="M320.683 59.5611C310.359 60.1497 302.747 53.341 300.232 49.8631C298.003 49.3057 293.601 50.4651 293.812 59.5611C294.024 68.6571 290.988 74.8994 289.444 76.8837C291.716 83.0189 295.965 90.0408 300.232 93.2699C302.803 95.2152 305.681 96.4455 307.049 96.9484C307.187 100.015 306.189 102.5 305.924 102.834L249.998 111.596L251.52 106.981C254.102 99.0218 270.581 91.2634 273.56 87.7855C276.538 84.3076 259.065 68.9247 270.581 61.5007C282.098 54.0767 279.318 51.067 283.157 37.4899C286.228 26.6282 299.306 24.4031 305.461 24.6485C321.504 16.034 338.156 20.3011 343.186 30.2666C346.231 34.4802 345.569 42.5061 354.239 41.2353C363.108 39.2288 373.168 44.3788 375.484 49.8631C378.733 57.5546 370.719 66.9851 384.353 68.9247C395.26 70.4763 404.825 77.3295 408.246 80.5622L386.802 89.8589L380.713 83.7057L378.396 92.3335L339.017 102.767C337.846 101.764 334.807 98.0587 332.001 91.2634C329.195 84.4681 330.831 77.5078 332.001 74.8772C332.53 69.5266 331.008 58.9725 320.683 59.5611Z" fill="#242938"/>
<path d="M306.219 84.5365L307.773 74.1294L312.465 82.7885L306.219 84.5365Z" fill="#804141"/>
<path d="M315.586 98.0391C317.174 98.1908 320.856 97.7842 322.874 94.9443" stroke="#242938" stroke-width="2" stroke-linecap="round"/>
<path d="M307.938 75.1709L306.219 84.5373L312.465 82.6897" stroke="#242938" stroke-width="2" stroke-linecap="round"/>
<path d="M315.587 88.7002L307.258 90.0583C308.079 90.7925 310.17 91.8658 311.763 91.821C314.394 91.7472 315.128 89.9934 315.587 88.7002Z" stroke="#242938" stroke-width="2"/>
<path d="M298.93 78.2923C300.08 78.2923 301.012 77.3604 301.012 76.2108C301.012 75.0613 300.08 74.1294 298.93 74.1294C297.78 74.1294 296.848 75.0613 296.848 76.2108C296.848 77.3604 297.78 78.2923 298.93 78.2923Z" fill="#242938"/>
<path d="M314.545 75.1702C315.695 75.1702 316.627 74.2383 316.627 73.0888C316.627 71.9392 315.695 71.0073 314.545 71.0073C313.395 71.0073 312.463 71.9392 312.463 73.0888C312.463 74.2383 313.395 75.1702 314.545 75.1702Z" fill="#242938"/>
<path d="M313.506 63.7762C315.219 63.5164 317.474 64.2041 318.711 65.8041" stroke="#242938" stroke-width="2" stroke-linecap="round"/>
<path d="M299.971 67.8848C297.783 68.0225 295.05 69.1922 293.725 71.0069" stroke="#242938" stroke-width="2" stroke-linecap="round"/>
<path d="M337.411 77.3078C340.721 78.7686 345.028 76.2751 347.03 71.7384C349.032 67.2017 347.972 62.3397 344.662 60.8789C341.351 59.4181 337.045 61.9116 335.043 66.4483C333.04 70.985 334.101 75.847 337.411 77.3078Z" fill="#804141"/>
<path d="M337.449 69.967C338.308 67.8643 340.831 64.5509 342.655 63.7227" stroke="#242938" stroke-width="2" stroke-linecap="round"/>
<path d="M340.57 64.7632C341.866 65.6223 343.587 67.6855 343.694 68.926" stroke="#242938" stroke-width="2" stroke-linecap="round"/>
<path d="M320.273 83.4965C321.71 83.4965 322.875 82.3317 322.875 80.8948C322.875 79.4578 321.71 78.293 320.273 78.293C318.835 78.293 317.67 79.4578 317.67 80.8948C317.67 82.3317 318.835 83.4965 320.273 83.4965Z" fill="#804141"/>
<path d="M297.889 84.5374C299.039 84.5374 299.971 83.6055 299.971 82.4559C299.971 81.3064 299.039 80.3745 297.889 80.3745C296.739 80.3745 295.807 81.3064 295.807 82.4559C295.807 83.6055 296.739 84.5374 297.889 84.5374Z" fill="#804141"/>
<path d="M158.778 183.968L218.764 241.639C208.661 257.298 208.766 278.028 210.081 286.435C177.142 271.564 156.366 253.659 150.096 246.565C146.938 242.571 151.411 238.508 154.042 236.975C150.254 229.881 157.287 226.575 161.277 225.809C160.278 218.872 165.991 217.489 168.973 217.664C165.574 214.357 157.436 204.974 152.069 193.886C146.702 182.799 154.305 182.654 158.778 183.968Z" fill="#AD5B5B"/>
</svg>
