<svg width="357" height="380" viewBox="0 0 357 380" fill="none" xmlns="http://www.w3.org/2000/svg">
<path d="M342.345 239.838H216.425L212.35 334.96L267.819 333.305L317.152 331.831L342.345 331.079V239.838Z" fill="white"/>
<path d="M50.9414 134.699V17.0913H195.942V41.9577H252.175V121.39" stroke="#242938" stroke-width="2"/>
<path d="M145.193 306.91H166.96L206.615 305.498V134.271H8.41522L2 312.783L69.397 310.384" stroke="#242938" stroke-width="2"/>
<path d="M26.0489 158.865C29.4954 158.865 32.2893 155.854 32.2893 152.14C32.2893 148.427 29.4954 145.416 26.0489 145.416C22.6025 145.416 19.8086 148.427 19.8086 152.14C19.8086 155.854 22.6025 158.865 26.0489 158.865Z" fill="#242938"/>
<path d="M42.3165 158.865C45.763 158.865 48.5569 155.854 48.5569 152.14C48.5569 148.427 45.763 145.416 42.3165 145.416C38.8701 145.416 36.0762 148.427 36.0762 152.14C36.0762 155.854 38.8701 158.865 42.3165 158.865Z" fill="#242938"/>
<path d="M58.5841 158.865C62.0306 158.865 64.8245 155.854 64.8245 152.14C64.8245 148.427 62.0306 145.416 58.5841 145.416C55.1377 145.416 52.3438 148.427 52.3438 152.14C52.3438 155.854 55.1377 158.865 58.5841 158.865Z" fill="#242938"/>
<path d="M250.173 299.467L174 301.123L179.597 206H352.516V297.241L317.919 297.993" stroke="#242938" stroke-width="2"/>
<path d="M187.729 293.497H244.148M187.729 287.32H223.195H187.729Z" stroke="#242938" stroke-width="2" stroke-linecap="round"/>
<path d="M352.862 206.075H179.955V223.727H352.862V206.075Z" fill="#242938"/>
<path d="M58.3214 0L41.883 6.26604L44.8175 20.0646C43.6716 21.1776 42.4542 22.4622 41.1767 23.8307L27.0865 20.7506L20.1618 36.4905L32.1364 44.242C32.0043 46.1789 32.0043 48.1222 32.1364 50.0591L19.8086 57.3579L26.2638 73.3242L40.1209 70.5871C41.3633 72.0364 42.7391 73.3727 44.2314 74.5796L41.0601 88.0387L57.3821 94.7645L65.3665 83.1338C67.3616 83.2615 69.2403 83.2615 71.2354 83.1338L78.8704 95.1076L95.3051 88.8343L92.1376 74.2365C93.5878 73.0254 94.9232 71.6905 96.1279 70.2477L110.455 73.7804L117.5 57.8141L105.052 50.4022C105.172 48.5045 105.172 46.709 105.052 44.8149L117.384 37.4029L110.921 21.4331L96.5976 24.5132C95.3562 23.0641 93.9817 21.7277 92.4907 20.5207L95.6583 7.06891L79.34 0.339444L71.705 11.9738C69.74 11.7876 67.7599 11.6892 65.8362 11.857L58.3214 0ZM68.7707 32.6149C77.0744 32.6149 83.8001 39.1474 83.8001 47.2126C83.8001 55.2779 77.0744 61.8102 68.7707 61.8102C60.4668 61.8102 53.7412 55.2779 53.7412 47.2126C53.7412 39.1474 60.4668 32.6149 68.7707 32.6149Z" fill="#EC5B60"/>
<path d="M137.066 57.2979L128.736 60.4821L130.224 67.4942C129.643 68.0599 129.026 68.7127 128.378 69.4081L121.239 67.8429L117.73 75.8416L123.798 79.7807C123.731 80.7651 123.731 81.7526 123.798 82.7369L117.551 86.446L120.822 94.5597L127.844 93.1689C128.474 93.9053 129.17 94.5845 129.926 95.1977L128.319 102.037L136.59 105.455L140.636 99.5449C141.647 99.6097 142.599 99.6097 143.61 99.5449L147.479 105.63L155.806 102.442L154.202 95.0234C154.937 94.408 155.613 93.7295 156.223 92.9964L163.483 94.7916L167.053 86.6778L160.745 82.9112C160.806 81.9469 160.806 81.0344 160.745 80.0719L166.994 76.3053L163.72 68.1897L156.461 69.755C155.833 69.0185 155.136 68.3395 154.38 67.726L155.986 60.8901L147.716 57.4703L143.847 63.3826C142.852 63.2881 141.849 63.238 140.874 63.3234L137.066 57.2979ZM142.361 73.8722C146.569 73.8722 149.977 77.1918 149.977 81.2903C149.977 85.389 146.569 88.7086 142.361 88.7086C138.154 88.7086 134.745 85.389 134.745 81.2903C134.745 77.1918 138.154 73.8722 142.361 73.8722Z" fill="#EC5B60"/>
<path d="M149.316 353.452C152.008 350.538 152.215 327.441 151.98 316.258L186.548 320.881C184.655 327.419 180.265 342.343 177.853 349.74C175.441 357.137 175.072 365.244 175.189 368.372L110.752 370.684C122.485 366.154 146.623 356.366 149.316 353.452Z" fill="#AD5B5B"/>
<path d="M176.521 379.93L175.048 366.131C172.735 366.131 165.008 366.453 152.611 367.742C140.215 369.031 126.832 367.205 121.69 366.131C102.618 370.502 95.2795 377.152 93.9941 379.93H176.521Z" fill="#242938"/>
<path d="M301.679 353.522C298.986 350.609 293.591 327.091 293.826 315.908L260.801 320.321C262.694 326.859 270.729 342.413 273.141 349.81C275.553 357.207 275.922 365.314 275.806 368.442L340.243 370.754C328.509 366.225 304.371 356.436 301.679 353.522Z" fill="#AD5B5B"/>
<path d="M274.473 380L275.945 366.201C278.259 366.201 285.986 366.523 298.382 367.812C310.779 369.101 324.161 367.276 329.304 366.201C348.375 370.572 355.714 377.222 357 380H274.473Z" fill="#242938"/>
<path d="M208.144 79.8524C214.987 86.857 225.018 84.4521 229.179 82.3741C231.609 81.5335 239.332 80.3567 250.774 82.3741C262.217 84.3914 292.097 104.649 305.605 114.525C317.946 123.217 335.685 133.858 330.847 150.249C326.009 166.64 287.759 182.407 275.035 190.946C271.326 193.435 267.741 196.168 264.433 198.861L254.064 165.589C270.379 156.591 289.222 147.941 288.707 145.416C288.034 142.109 284.547 139.788 282.888 139.041C282.888 139.041 273.422 134.46 266.13 132.107C258.838 129.753 254.07 137.71 252.598 141.983H168.668C155.557 152.724 135.573 171.683 123.654 174.555C111.734 177.427 106.545 173.224 92.452 156.763C78.3587 140.302 43.581 91.6902 42.2488 86.787C41.183 82.8644 43.3939 80.3427 44.6327 79.5722C44.1279 73.2961 48.6294 72.3341 50.9432 72.6377C50.9432 67.9306 54.4957 66.8939 56.272 66.9639C55.4539 65.0493 53.874 59.9453 54.0984 54.846C54.3228 49.7466 57.8379 51.4604 59.5675 52.9547L66.0882 66.1934C66.0882 66.1934 104.512 131.546 120.078 132.597C121.219 132.674 137.35 119.545 144.618 112.074C153.126 104.532 171.094 88.8744 174.909 86.5768C180.462 78.7317 199.379 78.8251 208.144 79.8524Z" fill="#AD5B5B"/>
<path d="M51.3628 73.618C51.671 75.4657 53.4768 79.6259 58.2342 82.2568M58.2342 82.2568C66.3677 85.736 65.4562 77.7507 61.6699 72.4272M58.2342 82.2568C59.3561 84.4673 61.6839 88.79 56.9721 89.5185C52.2603 90.247 47.0156 83.8914 45.6133 80.4825" stroke="#242938" stroke-width="2" stroke-linecap="round"/>
<path d="M73.0986 91.1297C66.3674 85.9463 65.6662 80.1325 66.7881 75.9997C67.3586 73.8984 68.5831 73.1138 70.1537 73.8984" stroke="#242938" stroke-width="2" stroke-linecap="round"/>
<path d="M45.123 90.7095C46.1514 91.9237 48.741 94.6741 51.153 94.8422C53.565 95.0103 53.8876 92.3439 53.7474 90.9897" stroke="#242938" stroke-width="2" stroke-linecap="round"/>
<path d="M289.338 145.065C290.296 144.459 293.699 143.16 299.645 142.824" stroke="#242938" stroke-width="2" stroke-linecap="round"/>
<path d="M120.287 134.175C121.103 134.962 123.166 137.961 124.891 143.656" stroke="#242938" stroke-width="2" stroke-linecap="round"/>
<path d="M208.143 79.8523C214.986 86.857 225.017 84.452 229.177 82.374C231.608 81.5335 239.33 80.3567 250.773 82.374C262.216 84.3913 292.096 104.649 305.604 114.525L282.887 139.041C282.887 139.041 273.421 134.46 266.129 132.107C258.837 129.753 254.069 137.71 252.596 141.983H168.667L144.617 112.074C153.125 104.532 171.093 88.8743 174.907 86.5768C180.461 78.7316 199.378 78.8251 208.143 79.8523Z" fill="#242938"/>
<path d="M207.863 80.9033C209.803 83.5651 216.179 88.3983 226.164 86.437" stroke="#242938" stroke-width="2" stroke-linecap="round"/>
<path d="M210.176 85.3164C211.298 86.227 214.663 88.5385 220.062 88.5385" stroke="#242938" stroke-width="2" stroke-linecap="round"/>
<path d="M168.667 142.054C182.691 122.889 187.809 92.6945 188.931 80.0629C190.964 79.4326 199.378 78.9424 200.781 79.4326L200.29 107.381H228.967V82.3742C231.997 81.3656 238.714 80.9035 242.36 81.2535C241.406 104.341 251.358 131.407 256.453 142.054C255.706 143.455 254.658 148.946 256.453 159.705C258.248 170.464 290.483 273.74 306.376 324.034L263.745 328.937L214.944 209.578L186.337 328.937L145.459 324.034L168.667 142.054Z" fill="#587291"/>
<path d="M151.201 312.421C154.417 314.175 158.197 314.581 161.713 313.55C165.229 312.519 168.189 310.135 169.945 306.923C171.7 303.71 172.107 299.933 171.075 296.423C170.043 292.911 167.656 289.952 164.441 288.199L161.874 292.895C163.843 293.968 165.304 295.78 165.935 297.93C166.568 300.079 166.318 302.392 165.244 304.359C164.168 306.326 162.357 307.784 160.204 308.416C158.052 309.048 155.736 308.798 153.769 307.725L151.201 312.421Z" fill="white"/>
<path d="M177.986 153.977C181.202 155.731 184.983 156.137 188.498 155.106C192.014 154.075 194.974 151.691 196.73 148.478C198.486 145.266 198.892 141.489 197.86 137.978C196.828 134.466 194.441 131.507 191.226 129.755L188.659 134.451C190.628 135.524 192.09 137.335 192.721 139.486C193.353 141.635 193.103 143.948 192.029 145.915C190.954 147.881 189.142 149.34 186.989 149.972C184.837 150.603 182.521 150.354 180.554 149.281L177.986 153.977Z" fill="white"/>
<path d="M198.132 91.4604C196.377 94.6726 193.416 97.0564 189.901 98.0875C188.664 98.4503 187.393 98.6352 186.127 98.646L187.179 93.2146C187.587 93.1578 187.992 93.0709 188.392 92.9537C190.544 92.3223 192.356 90.8628 193.432 88.8962C194.506 86.9297 194.755 84.6171 194.123 82.4671C193.813 81.4103 193.251 80.3476 192.578 79.5019C194.103 79.3636 196.766 79.28 198.55 79.2239L198.622 79.2217C198.873 79.7829 199.087 80.3633 199.263 80.9595C200.295 84.4711 199.888 88.2484 198.132 91.4604Z" fill="white"/>
<path d="M234.305 116.278C230.646 116.478 227.059 115.219 224.33 112.777C222.683 111.304 221.433 109.474 220.654 107.451H226.694C227.046 107.936 227.45 108.386 227.904 108.792C229.575 110.287 231.771 111.058 234.01 110.935C236.25 110.812 238.349 109.806 239.847 108.137L243.835 111.707C241.39 114.433 237.962 116.077 234.305 116.278Z" fill="white"/>
<path d="M173.295 190.744C171.769 194.073 171.63 197.869 172.908 201.299C174.185 204.73 176.774 207.512 180.105 209.035C183.437 210.559 187.237 210.697 190.67 209.421C194.104 208.145 196.889 205.559 198.413 202.23L193.543 200.004C192.611 202.041 190.905 203.626 188.803 204.406C186.701 205.188 184.373 205.102 182.334 204.169C180.295 203.238 178.709 201.534 177.928 199.434C177.146 197.333 177.231 195.009 178.164 192.972L173.295 190.744Z" fill="white"/>
<path d="M251.125 260.089C249.599 263.418 249.461 267.214 250.738 270.644C252.016 274.075 254.604 276.857 257.935 278.38C261.267 279.904 265.067 280.043 268.5 278.766C271.934 277.49 274.719 274.904 276.244 271.576L271.373 269.349C270.441 271.386 268.736 272.971 266.633 273.751C264.531 274.533 262.203 274.447 260.164 273.514C258.125 272.583 256.539 270.879 255.758 268.779C254.976 266.678 255.061 264.354 255.994 262.317L251.125 260.089Z" fill="white"/>
<path d="M278.221 321.378C281.649 322.664 285.45 322.538 288.786 321.025C292.122 319.511 294.719 316.737 296.006 313.31C297.295 309.884 297.168 306.087 295.653 302.754C294.139 299.423 291.36 296.828 287.93 295.541L286.048 300.551C288.148 301.338 289.849 302.927 290.776 304.966C291.703 307.008 291.781 309.332 290.993 311.43C290.204 313.527 288.613 315.227 286.572 316.153C284.53 317.079 282.202 317.157 280.103 316.37L278.221 321.378Z" fill="white"/>
<path d="M234.032 204.019C232.228 207.203 231.763 210.975 232.742 214.501C233.72 218.028 236.062 221.022 239.249 222.825C242.438 224.628 246.212 225.092 249.743 224.114C253.272 223.136 256.269 220.798 258.074 217.614L253.413 214.977C252.308 216.927 250.473 218.359 248.311 218.957C246.15 219.557 243.839 219.272 241.887 218.168C239.935 217.064 238.502 215.232 237.903 213.072C237.304 210.913 237.589 208.604 238.694 206.654L234.032 204.019Z" fill="white"/>
<path d="M214.524 158.663C212.998 161.991 212.859 165.788 214.136 169.217C215.414 172.648 218.003 175.43 221.333 176.953C224.665 178.477 228.465 178.616 231.898 177.34C235.333 176.063 238.118 173.477 239.642 170.149L234.772 167.923C233.839 169.96 232.134 171.544 230.032 172.324C227.93 173.106 225.602 173.021 223.563 172.088C221.524 171.156 219.938 169.452 219.157 167.353C218.374 165.251 218.46 162.927 219.392 160.89L214.524 158.663Z" fill="white"/>
<path d="M190.293 263.634C192.049 266.846 195.009 269.231 198.525 270.262C199.107 270.433 199.697 270.564 200.29 270.655L201.553 265.426C201.042 265.373 200.533 265.274 200.034 265.127C197.881 264.496 196.068 263.037 194.994 261.07C193.918 259.103 193.67 256.79 194.301 254.641C194.934 252.491 196.395 250.68 198.364 249.607L195.796 244.911C192.58 246.663 190.195 249.622 189.163 253.134C188.131 256.645 188.538 260.422 190.293 263.634Z" fill="white"/>
<path d="M240.398 126.153H220.064C219.335 139.097 225.838 144.341 230.021 145.275C240.468 143.664 240.935 130.776 240.398 126.153Z" fill="white"/>
<path d="M222.251 157.644L210.523 167.217L262.253 230.462L273.981 220.889L222.251 157.644Z" fill="#242938"/>
<path d="M201.77 132.901C206.272 131.43 211.146 131.565 215.56 133.281C219.974 134.997 223.657 138.19 225.979 142.314C228.301 146.438 229.12 151.239 228.295 155.899C227.472 160.558 225.056 164.789 221.461 167.87C217.864 170.949 213.31 172.689 208.575 172.79C203.839 172.892 199.214 171.351 195.489 168.427C191.763 165.505 189.168 161.383 188.144 156.763C187.12 152.143 187.732 147.311 189.875 143.09L199.461 147.947C198.443 149.952 198.152 152.247 198.639 154.442C199.126 156.636 200.358 158.594 202.128 159.983C203.898 161.371 206.094 162.102 208.343 162.054C210.592 162.005 212.755 161.18 214.463 159.716C216.171 158.254 217.319 156.245 217.711 154.031C218.102 151.818 217.712 149.537 216.61 147.579C215.506 145.62 213.758 144.103 211.661 143.288C209.565 142.472 207.249 142.409 205.111 143.108L201.77 132.901Z" fill="#242938"/>
<path d="M292.484 243.808C294.825 239.693 295.663 234.895 294.86 230.233C294.056 225.569 291.658 221.328 288.075 218.232C284.492 215.138 279.946 213.378 275.212 213.256C270.476 213.134 265.846 214.656 262.107 217.563C258.37 220.47 255.756 224.581 254.713 229.196C253.668 233.812 254.26 238.647 256.383 242.876C258.507 247.105 262.034 250.469 266.362 252.391C270.691 254.315 275.551 254.679 280.119 253.422L277.265 243.069C275.095 243.666 272.786 243.494 270.731 242.579C268.676 241.666 267 240.069 265.992 238.06C264.982 236.051 264.701 233.755 265.198 231.562C265.693 229.37 266.934 227.418 268.709 226.037C270.485 224.657 272.685 223.934 274.934 223.992C277.184 224.049 279.343 224.885 281.044 226.355C282.747 227.826 283.885 229.839 284.267 232.055C284.648 234.27 284.25 236.548 283.138 238.502L292.484 243.808Z" fill="#242938"/>
<path d="M229.318 180.859L258.557 163.208L268.583 195.849L251.615 206.846C251.124 209.368 249.47 214.719 246.777 215.952C244.085 217.185 242.055 213.711 241.378 211.82C236.835 213.613 234.811 209.952 234.366 207.897C229.599 206.664 229.014 201.406 229.318 198.931C218.997 193.495 225.017 184.618 229.318 180.859Z" fill="#AD5B5B"/>
<path d="M229.668 197.88C229.784 195.989 230.818 191.59 234.015 189.125" stroke="#242938" stroke-width="2" stroke-linecap="round"/>
<path d="M234.717 205.866C234.833 203.974 235.867 199.575 239.064 197.11" stroke="#242938" stroke-width="2" stroke-linecap="round"/>
<path d="M241.59 210.208C241.706 208.317 242.74 203.918 245.937 201.453" stroke="#242938" stroke-width="2" stroke-linecap="round"/>
<path d="M246.707 209.858L252.386 207.056" stroke="#242938" stroke-width="2" stroke-linecap="round"/>
<path d="M245.936 170.072L254.309 164.608L274.944 191.699L267.132 197.638L245.936 170.072Z" fill="#242938"/>
<path d="M261.501 190.105C265.916 190.105 269.494 186.53 269.494 182.12C269.494 177.71 265.916 174.135 261.501 174.135C257.087 174.135 253.508 177.71 253.508 182.12C253.508 186.53 257.087 190.105 261.501 190.105Z" fill="white"/>
<path d="M211.109 73.1056C210.614 76.798 208.924 78.7681 208.029 79.9693C212.569 86.1971 222.856 87.8008 229.038 85.0811V71.2827L211.109 73.1056Z" fill="#AD5B5B"/>
<path d="M238.903 61.2751C236.544 71.6147 226.679 78.1856 216.87 75.9514C214.052 75.3099 209.994 75.017 207.909 73.2481C202.731 68.8565 201.698 60.5554 203.381 53.1846C205.739 42.845 215.605 36.2742 225.414 38.5083C235.223 40.7423 241.263 50.9354 238.903 61.2751Z" fill="#AD5B5B"/>
<path d="M223.934 54.503C217.721 53.4518 214.112 48.4236 213.084 46.0409C211.836 45.412 209.064 45.4971 207.971 50.8675C206.877 56.2379 204.238 59.4932 203.055 60.4495C203.582 64.3599 205.165 69.0583 207.267 71.5321C208.533 73.0225 210.077 74.1341 210.823 74.6147C210.495 76.4346 209.568 77.7583 209.366 77.9189L174.969 75.4978L176.492 72.9936C179.092 68.6687 189.922 66.3422 192.157 64.7027C194.392 63.0632 186.074 51.6653 193.91 48.8636C201.746 46.0618 200.498 43.9182 204.598 36.4642C207.879 30.501 215.946 30.9638 219.57 31.9405C230.254 29.0521 239.575 33.811 241.227 40.3439C242.471 43.2302 241.003 47.8541 246.323 48.2808C251.861 48.3024 257.146 52.6878 257.787 56.2219C258.688 61.1784 252.662 65.6324 260.502 68.616C266.773 71.0029 271.537 76.3218 273.136 78.6829L259.15 81.2413L256.358 76.804L253.826 81.5573L229.034 82.3568C228.475 81.6095 227.165 79.0222 226.407 74.6519C225.652 70.2816 227.557 66.4156 228.604 65.0288C229.636 61.9583 230.146 55.5543 223.934 54.503Z" fill="#242938"/>
<path d="M211.205 67.0662L213.537 61.4473L215.44 66.9976L211.205 67.0662Z" fill="#804141"/>
<path d="M214.707 76.7141C215.551 76.99 217.599 77.2322 219.033 75.9946" stroke="#242938" stroke-width="2" stroke-linecap="round"/>
<path d="M213.267 61.9316L210.947 67.0747L215.151 66.9135" stroke="#242938" stroke-width="2" stroke-linecap="round"/>
<path d="M216.527 70.6322L211.656 70.54C211.996 71.1672 212.988 72.1973 213.886 72.368C215.365 72.6498 216.061 71.4946 216.527 70.6322Z" stroke="#242938" stroke-width="2"/>
<path d="M207.842 62.1374C208.557 62.3001 209.268 61.8535 209.431 61.14C209.593 60.4264 209.146 59.716 208.432 59.5533C207.718 59.3907 207.007 59.8373 206.844 60.5508C206.681 61.2644 207.128 61.9748 207.842 62.1374Z" fill="#242938"/>
<path d="M217.709 62.5579C218.424 62.7205 219.135 62.274 219.298 61.5604C219.461 60.8468 219.013 60.1364 218.299 59.9738C217.585 59.8111 216.874 60.2577 216.711 60.9713C216.548 61.6848 216.995 62.3952 217.709 62.5579Z" fill="#242938"/>
<path d="M216.836 56.7565C217.979 56.3605 219.599 56.3277 220.621 56.8903" stroke="#242938" stroke-width="2" stroke-linecap="round"/>
<path d="M209.424 56.5857C208.266 56.2346 206.646 56.2653 205.646 56.8675" stroke="#242938" stroke-width="2" stroke-linecap="round"/>
<path d="M231.222 67.1284C232.987 68.4402 235.876 67.545 237.676 65.129C239.476 62.713 239.504 59.691 237.74 58.3791C235.975 57.0673 233.086 57.9625 231.286 60.3785C229.486 62.7945 229.458 65.8166 231.222 67.1284Z" fill="#804141"/>
<path d="M231.959 62.5377C232.737 61.5675 234.685 60.2027 235.908 60.0293" stroke="#242938" stroke-width="2" stroke-linecap="round"/>
<path d="M234.855 60.5381C235.231 61.0985 235.62 62.3276 235.512 62.9884" stroke="#242938" stroke-width="2" stroke-linecap="round"/>
<path d="M220.385 68.5391C221.12 68.7066 221.853 68.2467 222.02 67.5119C222.188 66.7771 221.728 66.0456 220.992 65.878C220.256 65.7105 219.524 66.1704 219.357 66.9052C219.189 67.6401 219.649 68.3716 220.385 68.5391Z" fill="#804141"/>
<path d="M206.51 66.1724C207.245 66.3399 207.978 65.88 208.145 65.1452C208.313 64.4104 207.853 63.6789 207.117 63.5113C206.381 63.3438 205.649 63.8037 205.482 64.5385C205.314 65.2734 205.774 66.0049 206.51 66.1724Z" fill="#804141"/>
</svg>
