<svg width="370" height="370" viewBox="0 0 370 370" fill="none" xmlns="http://www.w3.org/2000/svg">
<path d="M178.314 179.886L183.543 45.2109H345.591V174.39L178.314 179.886Z" stroke="#242938" stroke-width="2"/>
<path d="M336.619 127.691H272.693" stroke="#242938" stroke-width="2" stroke-linecap="round"/>
<path d="M305.707 88.7632H241.781" stroke="#242938" stroke-width="2" stroke-linecap="round"/>
<path d="M336.621 119.808H311.967" stroke="#242938" stroke-width="2" stroke-linecap="round"/>
<path d="M69.6582 170.523H133.584" stroke="#242938" stroke-width="2" stroke-linecap="round"/>
<path d="M69.6582 162.64H94.3126" stroke="#242938" stroke-width="2" stroke-linecap="round"/>
<path d="M346.429 44.377H182.74V71.4409H346.429V44.377Z" fill="#242938"/>
<path d="M195.603 64.8458C199.458 64.8458 202.587 61.7376 202.587 57.9092C202.587 54.0808 199.458 50.9727 195.603 50.9727C191.749 50.9727 188.619 54.0808 188.619 57.9092C188.657 61.7376 191.787 64.8458 195.603 64.8458Z" fill="white"/>
<path d="M213.73 64.8458C217.585 64.8458 220.714 61.7376 220.714 57.9092C220.714 54.0808 217.585 50.9727 213.73 50.9727C209.876 50.9727 206.746 54.0808 206.746 57.9092C206.746 61.7376 209.876 64.8458 213.73 64.8458Z" fill="white"/>
<path d="M231.82 64.8458C235.675 64.8458 238.804 61.7376 238.804 57.9092C238.804 54.0808 235.675 50.9727 231.82 50.9727C227.965 50.9727 224.836 54.0808 224.836 57.9092C224.874 61.7376 228.004 64.8458 231.82 64.8458Z" fill="white"/>
<path d="M57.4082 208.542L61.6827 140.2H194.878V205.699L57.4082 208.542Z" stroke="#242938" stroke-width="2"/>
<path d="M195.717 139.404H60.8809V153.277H195.717V139.404Z" fill="#242938"/>
<path d="M69.6584 149.903C71.7957 149.903 73.5512 148.311 73.5512 146.378C73.5512 144.445 71.7957 142.853 69.6584 142.853C67.5212 142.853 65.7656 144.445 65.7656 146.378C65.7656 148.311 67.5212 149.903 69.6584 149.903Z" fill="white"/>
<path d="M79.8871 149.903C82.0625 149.903 83.8562 148.311 83.8562 146.378C83.8562 144.445 82.0625 142.853 79.8871 142.853C77.7117 142.853 75.918 144.445 75.918 146.378C75.918 148.311 77.7117 149.903 79.8871 149.903Z" fill="white"/>
<path d="M90.1526 149.903C92.2898 149.903 94.0454 148.311 94.0454 146.378C94.0454 144.445 92.2898 142.853 90.1526 142.853C88.0153 142.853 86.2598 144.445 86.2598 146.378C86.2598 148.311 87.9772 149.903 90.1526 149.903Z" fill="white"/>
<path d="M157.4 13.8256L125.685 2.37842L119.922 18.0709L151.675 29.556L157.4 13.8256Z" stroke="#242938" stroke-width="2"/>
<path d="M137.707 17.5407L125.57 2.87158L157.247 14.0914L137.707 17.5407Z" fill="#242938"/>
<path d="M34.6988 81.9785L1.30469 86.9061L3.7854 103.433L37.1796 98.5049L34.6988 81.9785Z" stroke="#242938" stroke-width="2"/>
<path d="M19.1283 94.5631L1 87.058L34.7758 82.1304L19.1283 94.5631Z" fill="#242938"/>
<path d="M38.9735 7.19293L20.807 2L18.25 10.7939L36.4546 15.9868L38.9735 7.19293Z" stroke="#242938" stroke-width="2"/>
<path d="M28.1357 9.95962L22.0293 2.94727L37.5623 7.23049L28.1357 9.95962Z" stroke="#242938" stroke-width="2" stroke-linejoin="round"/>
<path d="M367.001 245.499L322.539 232.839L316.127 255.013L360.589 267.711L367.001 245.499Z" stroke="#242938" stroke-width="2"/>
<path d="M340.4 252.512L323.799 233.56L365.437 245.803L340.4 252.512Z" stroke="#242938" stroke-width="2"/>
<path d="M158.697 337.645L181.253 297.391L158.087 281.85L145.912 301.219C145.645 303.455 146.065 313.462 146.675 321.839C147.286 330.178 154.728 335.75 158.697 337.645Z" fill="#D58B8B"/>
<path d="M334.523 341.778L316.776 294.965L289.984 303.001L296.816 321.385C298.419 322.977 305.517 327.108 313.456 337.229C319.715 345.265 330.515 343.673 334.523 341.778Z" fill="#D58B8B"/>
<path d="M155.798 263.807L198.39 169.273L268.307 160.213L315.708 279.84H318.647C320.822 279.84 324.486 279.84 324.486 282.266C324.486 284.692 327.196 289.658 327.883 294.358C328.57 299.058 327.386 300.726 324.486 301.408C321.547 302.09 289.871 312.059 287.39 312.249C284.871 312.438 282.428 311.491 282.085 309.558C281.741 307.624 279.146 302.659 278.268 300.688C277.543 299.134 278.574 297.352 279.184 296.67L280.94 294.32L235.524 212.408L195.604 279.84C198.313 279.84 198.39 287.308 195.604 289.658C192.818 292.008 193.237 298.641 190.108 301.408C187.589 303.607 184.841 302.318 183.773 301.408C170.606 294.851 144.005 281.394 142.745 279.84C141.219 277.907 147.058 266.915 150.607 263.807C153.47 261.305 155.263 262.745 155.798 263.807Z" fill="#242938"/>
<path d="M160.873 268.432C164.27 270.895 172.551 276.202 178.276 277.68C184.001 279.159 189.764 280.068 191.939 280.296" stroke="white" stroke-width="2" stroke-linecap="round"/>
<path d="M307.31 279.159L283.991 215.668L307.31 279.159ZM189.267 274.648L215.524 226.509L189.267 274.648ZM178.275 271.312L189.267 251.413L178.275 271.312ZM167.055 264.907L184.954 219.194L167.055 264.907ZM283.953 287.157L263.421 248.797L283.953 287.157ZM296.853 284.541L287.045 258.046L296.853 284.541Z" stroke="white" stroke-width="2" stroke-linecap="round"/>
<path d="M284.525 293.752C288.724 293.259 298.417 291.592 303.646 288.825C308.875 286.058 313.721 282.836 315.477 281.547" stroke="white" stroke-width="2" stroke-linecap="round"/>
<path d="M115.419 73.7917C113.014 68.7504 111.526 70.9109 111.068 72.6925C110.457 75.0425 110.228 80.1597 110.037 83.0025L113.243 88.8398L89.123 101.614L106.221 123.523C114.159 123.523 123.7 113.857 125.532 106.769C125.456 107.11 122.517 102.372 121.487 100.704C120.189 98.6571 117.823 78.833 115.419 73.7917Z" fill="#D58B8B"/>
<path d="M270.176 151.836L254.109 94.0316C243.423 92.6671 235.065 93.1219 232.126 93.1219C223.73 90.696 205.831 85.6926 201.136 86.6782C195.297 87.929 185.871 95.2446 178.352 108.739C172.322 119.541 161.102 121.778 156.216 121.513C146.294 116.737 125.914 106.313 123.929 102.712C121.41 98.2012 104.58 120.224 106.03 124.507C107.48 128.79 121.143 144.786 125.647 152.784C130.188 160.82 143.126 163.17 148.126 166.619C153.125 170.068 156.407 174.655 163.735 172.343C171.063 170.03 173.887 161.502 182.97 156.006C190.221 151.647 193.694 144.179 194.534 140.995C193.923 149.903 193.084 168.211 194.534 170.03C195.984 171.85 210.83 173.063 215.715 172.305C233.538 170.22 265.406 163.776 269.26 164.004C272.199 164.079 271.131 155.93 270.176 151.836Z" fill="#587291"/>
<path d="M229.264 94.7144C230.638 96.7991 235.027 100.4 241.744 98.05" stroke="#242938" stroke-width="2" stroke-linecap="round"/>
<path d="M231.209 98.8848C231.934 99.3775 233.881 100.401 235.941 100.401" stroke="#242938" stroke-width="2" stroke-linecap="round"/>
<path d="M154.689 123.901C153.62 124.167 151.14 126.024 149.689 131.179C148.239 136.334 146.255 140.39 145.453 141.754" stroke="#242938" stroke-width="2" stroke-linecap="round"/>
<path d="M155.377 126.82C154.995 127.085 154.27 128.412 154.384 131.672C154.499 134.931 154.232 137.585 154.117 138.494" stroke="#242938" stroke-width="2" stroke-linecap="round"/>
<path d="M205.219 157.789L213.729 161.314" stroke="#242938" stroke-width="2" stroke-linecap="round"/>
<path d="M253.957 109.308L258.689 117.154" stroke="#242938" stroke-width="2" stroke-linecap="round"/>
<path d="M169.154 155.172L165.719 163.663" stroke="#242938" stroke-width="2" stroke-linecap="round"/>
<path d="M178.504 138.001L183.961 145.354" stroke="#242938" stroke-width="2" stroke-linecap="round"/>
<path d="M175.145 122.574L168.848 129.245" stroke="#242938" stroke-width="2" stroke-linecap="round"/>
<path d="M136.143 140.617L129.846 147.288" stroke="#242938" stroke-width="2" stroke-linecap="round"/>
<path d="M140.873 121.362L131.752 120.111" stroke="#242938" stroke-width="2" stroke-linecap="round"/>
<path d="M189.113 103.584L188.885 112.719" stroke="#242938" stroke-width="2" stroke-linecap="round"/>
<path d="M115.57 118.936L115.342 128.071" stroke="#242938" stroke-width="2" stroke-linecap="round"/>
<path d="M216.02 145.923L222.584 139.518" stroke="#242938" stroke-width="2" stroke-linecap="round"/>
<path d="M239.566 161.275L246.131 154.869" stroke="#242938" stroke-width="2" stroke-linecap="round"/>
<path d="M202.127 118.215L210.294 122.423" stroke="#242938" stroke-width="2" stroke-linecap="round"/>
<path d="M205.105 178.749L227.584 137.622C229.34 134.401 233.805 133.377 237.584 135.348L302.654 169.349C306.433 171.32 308.112 175.527 306.471 178.787L285.709 219.913C284.03 223.249 279.527 224.348 275.71 222.377L208.96 188.377C204.991 186.444 203.312 182.085 205.105 178.749Z" fill="#EC5B60"/>
<path d="M252.733 187.051C257.122 188.036 261.397 185.686 262.313 181.782C263.229 177.878 260.366 173.898 256.015 172.912C251.665 171.927 247.352 174.277 246.436 178.181C245.52 182.085 248.344 186.027 252.733 187.051Z" fill="white"/>
<path d="M256.284 214.683C258.917 213.508 274.259 207.974 281.282 202.326L261.207 180.303C260.253 180.19 256.589 179.924 249.758 179.924C240.56 179.924 237.774 184.132 233.614 185.193C227.966 186.823 227.355 188.908 227.508 189.59C227.622 190.272 231.21 192.357 237.812 191.068C243.079 190.045 243.232 191.296 242.659 192.092C241.018 195.541 236.324 198.952 233.614 198.46C229.34 197.664 221.439 194.707 221.439 199.18C221.439 202.478 228.385 205.434 231.858 205.624C229.416 205.624 226.172 205.396 225.409 207.178C224.951 209.642 226.706 210.475 231.515 211.271C234.644 214.721 237.927 214.986 239.148 214.721C239.453 215.289 240.56 216.654 242.621 217.412C245.216 218.284 253.002 216.123 256.284 214.683Z" fill="#D58B8B"/>
<path d="M233.883 205.51C233.883 205.51 237.928 206.154 242.47 204.79" stroke="#242938" stroke-width="2" stroke-linecap="round"/>
<path d="M233.348 210.93C234.531 211.271 240.942 211.688 243.347 210.588" stroke="#242938" stroke-width="2" stroke-linecap="round"/>
<path d="M240.941 214.682C242.125 214.644 244.72 214.682 246.094 214.303" stroke="#242938" stroke-width="2" stroke-linecap="round"/>
<path d="M253.613 136.486L261.781 140.693" stroke="#242938" stroke-width="2" stroke-linecap="round"/>
<path d="M332.005 156.044C324.219 148.766 313.075 133.491 300.939 128.26C293.611 124.508 284.299 111.051 281.513 108.777C278.727 106.503 267.43 95.7758 254.072 94.0322L270.14 151.837C271.972 156.764 276.246 166.62 278.689 166.62C276.093 168.249 269.682 171.244 264.835 170.069C258.767 168.629 258.003 182.843 259.53 185.61C261.056 188.377 273.231 203.652 279.986 204.903C286.741 206.154 289.718 199.445 298.84 196.413C307.961 193.38 328.379 185.837 331.928 182.085C335.554 178.408 339.828 163.322 332.005 156.044Z" fill="#587291"/>
<path d="M233.309 117.116L241.476 121.324" stroke="#242938" stroke-width="2" stroke-linecap="round"/>
<path d="M218.883 94.4873L219.416 103.622" stroke="#242938" stroke-width="2" stroke-linecap="round"/>
<path d="M210.106 89.5215C205.946 92.2506 197.664 101.044 198.008 114.425C196.863 115.979 194.764 119.807 195.641 122.574M194.496 139.177C193.046 137.016 195.451 131.103 195.603 128.942" stroke="#242938" stroke-width="2" stroke-linecap="round"/>
<path d="M279.793 166.089C281.549 164.193 286.548 159.796 292.616 157.598C300.211 154.831 304.371 155.437 305.363 154.49" stroke="#242938" stroke-width="2" stroke-linecap="round"/>
<path d="M222.278 74.6631C224.72 74.6631 226.743 72.6921 226.743 70.2283C226.743 67.7645 224.758 65.7935 222.278 65.7935C219.835 65.7935 217.812 67.7645 217.812 70.2283C217.812 72.6921 219.835 74.6631 222.278 74.6631Z" fill="#242938"/>
<path d="M222.278 82.8131C224.72 82.8131 226.743 80.842 226.743 78.3782C226.743 75.9144 224.758 73.9434 222.278 73.9434C219.835 73.9434 217.812 75.9144 217.812 78.3782C217.812 80.842 219.835 82.8131 222.278 82.8131Z" fill="#242938"/>
<path d="M310.973 152.671C310.783 152.254 309.638 151.269 306.394 150.7C303.15 150.131 300.593 149.373 299.715 149.032" stroke="#242938" stroke-width="2" stroke-linecap="round"/>
<path d="M217.815 78.4151C220.257 78.4151 222.28 76.444 222.28 73.9802C222.28 71.5164 220.296 69.5454 217.815 69.5454C215.334 69.5454 213.35 71.5164 213.35 73.9802C213.35 76.444 215.372 78.4151 217.815 78.4151Z" fill="#242938"/>
<path d="M257.237 73.3365C257.237 83.5329 248.917 91.7961 238.651 91.7961C221.4 93.4639 220.064 83.5329 220.064 73.3365C220.064 63.1402 228.384 54.877 238.651 54.877C248.917 54.877 257.237 63.1402 257.237 73.3365Z" fill="#587291"/>
<path d="M308.646 178.673L313.379 186.52" stroke="#242938" stroke-width="2" stroke-linecap="round"/>
<path d="M299.906 160.024L308.493 163.36" stroke="#242938" stroke-width="2" stroke-linecap="round"/>
<path d="M278.762 152.973L287.158 149.221" stroke="#242938" stroke-width="2" stroke-linecap="round"/>
<path d="M275.824 121.815L284.907 123.18" stroke="#242938" stroke-width="2" stroke-linecap="round"/>
<path d="M296.433 130.118L292.998 138.608" stroke="#242938" stroke-width="2" stroke-linecap="round"/>
<path d="M238.652 54.877C231.324 54.877 224.951 59.1223 221.936 65.2628L257.047 70.7969C255.788 61.8135 248.04 54.877 238.652 54.877Z" fill="#587291"/>
<path d="M256.322 70.645L208.082 64.0117" stroke="#242938" stroke-width="2" stroke-linecap="round"/>
<path d="M247.468 93.3873L247.125 87.929L229.912 87.1709L228.92 92.288C233.423 101.423 245.674 96.7229 247.468 93.3873Z" fill="#587291"/>
<path d="M256.131 78.4157C258.764 78.4157 260.863 76.2931 260.863 73.6398C260.863 70.9864 258.726 68.8638 256.131 68.8638C253.536 68.8638 251.398 70.9864 251.398 73.6398C251.398 76.2552 253.497 78.4157 256.131 78.4157Z" fill="#242938"/>
<path d="M260.941 78.4155C262.276 78.4155 263.383 77.3163 263.383 75.9138C263.383 74.5492 262.276 73.4121 260.941 73.4121C259.605 73.4121 258.498 74.5113 258.498 75.9138C258.498 77.2784 259.567 78.4155 260.941 78.4155Z" fill="#242938"/>
<path d="M262.809 80.1206C262.809 83.2288 260.29 86.1475 257.161 86.6023C252.924 87.2088 249.299 83.0014 249.299 79.8932C249.299 76.785 254.069 74.5107 257.161 74.5107C260.29 74.5107 262.809 77.0504 262.809 80.1206Z" fill="#242938"/>
<path d="M222.241 70.6453C224.836 70.9865 227.202 69.1292 227.545 66.5137L218.157 65.3008C217.852 67.9162 219.645 70.3042 222.241 70.6453Z" fill="#242938"/>
<path d="M282.922 185.799L289.486 179.394" stroke="#242938" stroke-width="2" stroke-linecap="round"/>
<path d="M228.348 70.001C229.684 70.1147 230.867 69.0534 230.982 67.6888L226.135 67.3477C225.982 68.7122 226.974 69.8873 228.348 70.001Z" fill="#242938"/>
<path d="M250.75 81.0309C252.62 81.6374 254.758 80.3107 255.483 78.0365C256.246 75.8001 255.33 73.45 253.46 72.8435C251.59 72.2371 249.453 73.5637 248.728 75.838C247.964 78.1123 248.842 80.4245 250.75 81.0309Z" fill="#587291"/>
<path d="M249.643 76.9366C250.253 75.9132 252.009 74.6624 253.612 74.9277" stroke="#242938" stroke-width="2" stroke-linecap="round"/>
<path d="M252.582 75.0796C252.773 75.3828 253.154 76.3304 253.23 76.9748" stroke="#242938" stroke-width="2" stroke-linecap="round"/>
<path d="M230.369 81.4477L234.338 75.6104L235.483 82.3574L230.369 81.4477Z" fill="#587291"/>
<path d="M233.92 76.0273L230.332 81.1066L235.179 81.8647" stroke="#242938" stroke-width="2" stroke-linecap="round"/>
<path d="M233.232 85.3893C233.843 85.4272 235.446 85.3135 236.705 84.707" stroke="#242938" stroke-width="2" stroke-linecap="round"/>
<path d="M238.309 70.7966C238.919 70.7587 240.522 70.8724 241.782 71.4789" stroke="#242938" stroke-width="2" stroke-linecap="round"/>
<path d="M228.422 71.0622C227.812 71.0243 226.209 71.138 224.949 71.7445" stroke="#242938" stroke-width="2" stroke-linecap="round"/>
<path d="M234.264 91.265C235.79 91.5303 238.5 91.7578 240.599 90.0142" stroke="#242938" stroke-width="2" stroke-linecap="round"/>
<path d="M227.775 76.3306C228.424 76.3306 228.958 75.7999 228.958 75.1555C228.958 74.5111 228.424 73.9805 227.775 73.9805C227.126 73.9805 226.592 74.5111 226.592 75.1555C226.592 75.7999 227.126 76.3306 227.775 76.3306Z" fill="#242938"/>
<path d="M239.492 76.3306C240.141 76.3306 240.675 75.7999 240.675 75.1555C240.675 74.5111 240.141 73.9805 239.492 73.9805C238.843 73.9805 238.309 74.5111 238.309 75.1555C238.309 75.7999 238.843 76.3306 239.492 76.3306Z" fill="#242938"/>
<path d="M241.056 82.9262C242.353 82.9262 243.422 81.8649 243.422 80.5762C243.422 79.2874 242.353 78.2261 241.056 78.2261C239.758 78.2261 238.689 79.2874 238.689 80.5762C238.728 81.9028 239.758 82.9262 241.056 82.9262Z" fill="#587291"/>
<path d="M225.905 81.7134C227.203 81.7134 228.271 80.652 228.271 79.3633C228.271 78.0745 227.203 77.0132 225.905 77.0132C224.608 77.0132 223.539 78.0745 223.539 79.3633C223.539 80.652 224.608 81.7134 225.905 81.7134Z" fill="#587291"/>
<path d="M148.278 326.16C150.607 332.755 156.217 336.28 158.736 337.228L153.393 346.628C151.713 350.798 147.286 359.061 143.241 358.644L87.2148 297.049C87.711 292.501 101.756 284.541 105.381 284.541C109.007 284.541 115.838 291.515 119.655 294.358C122.708 296.632 132.593 301.105 137.134 303.076C137.554 297.997 138.966 287.952 141.256 288.331C144.118 288.824 146.599 304.024 146.599 305.881C146.599 307.738 145.34 317.935 148.278 326.16Z" stroke="#242938" stroke-width="2"/>
<path d="M93.8164 290.189C94.0072 292.691 95.0758 298.225 97.6329 300.575C104.617 306.905 114.006 323.507 122.478 325.744C127.554 326.843 133.966 341.777 137.591 344.43C141.217 347.046 146.789 351.14 151.254 350.874" stroke="#242938" stroke-width="2"/>
<path d="M98.8926 287.648C100.038 291.211 103.358 299.209 107.518 302.81C112.746 307.321 116.563 311.68 118.815 313.12C121.066 314.561 132.897 307.927 133.165 301.446" stroke="#242938" stroke-width="2"/>
<path d="M158.087 337.304C155.682 336.091 149.462 333.058 146.676 333.779C143.89 334.499 137.898 339.843 135.875 342.648" stroke="#242938" stroke-width="2"/>
<path d="M319.064 341.208C325.209 344.62 331.773 343.558 334.254 342.649L336.505 353.224C338.032 357.469 340.207 366.529 336.887 368.917H253.268C250.596 365.164 256.474 340.564 259.184 338.214C261.893 335.826 271.663 336.584 276.434 336.205C280.25 335.902 290.631 332.756 295.326 331.239C292.272 327.146 286.624 318.693 288.609 317.48C291.089 315.964 303.073 325.705 304.332 327.108C305.554 328.51 311.393 336.963 319.064 341.208Z" stroke="#242938" stroke-width="2"/>
<path d="M254.299 350.04C256.131 351.784 260.596 355.233 264.069 355.309C268.42 355.385 280.709 359.63 283.38 360.502C286.052 361.411 290.517 362.283 299.486 357.811C304.027 355.309 318.797 362.283 323.263 361.866C327.728 361.449 334.636 360.843 337.765 357.735" stroke="#242938" stroke-width="2"/>
<path d="M256.398 344.772C259.604 346.667 267.428 350.495 272.962 350.457C279.87 350.382 285.633 351.14 288.266 350.761C290.899 350.382 295.365 337.646 291.243 332.566" stroke="#242938" stroke-width="2"/>
<path d="M333.834 343.103C331.239 343.785 324.522 345.605 322.919 347.955C321.316 350.343 320.4 358.265 320.744 361.676" stroke="#242938" stroke-width="2"/>
<path d="M82.5199 108.473L54.8887 51.4648L87.405 34.1045L117.555 89.7864L82.5199 108.473Z" fill="white"/>
<path d="M78.1684 107.488L50.5371 50.4795L83.0535 33.1191L113.204 88.801L78.1684 107.488Z" stroke="#242938" stroke-width="2"/>
<path d="M62.7876 50.8587L59.7344 44.9835L73.0157 37.8574L75.9544 43.3157L62.7876 50.8587Z" fill="#242938"/>
<path d="M222.278 74.6631C224.72 74.6631 226.743 72.6921 226.743 70.2283C226.743 67.7645 224.758 65.7935 222.278 65.7935C219.835 65.7935 217.812 67.7645 217.812 70.2283C217.812 72.6921 219.835 74.6631 222.278 74.6631Z" fill="#242938"/>
<path d="M222.278 82.8131C224.72 82.8131 226.743 80.842 226.743 78.3782C226.743 75.9144 224.758 73.9434 222.278 73.9434C219.835 73.9434 217.812 75.9144 217.812 78.3782C217.812 80.842 219.835 82.8131 222.278 82.8131Z" fill="#242938"/>
<path d="M217.815 78.4151C220.257 78.4151 222.28 76.444 222.28 73.9802C222.28 71.5164 220.296 69.5454 217.815 69.5454C215.334 69.5454 213.35 71.5164 213.35 73.9802C213.35 76.444 215.372 78.4151 217.815 78.4151Z" fill="#242938"/>
<path d="M257.237 73.3365C257.237 83.5329 248.917 91.7961 238.651 91.7961C221.4 93.4639 220.064 83.5329 220.064 73.3365C220.064 63.1402 228.384 54.877 238.651 54.877C248.917 54.877 257.237 63.1402 257.237 73.3365Z" fill="#D58B8B"/>
<path d="M238.652 54.877C231.324 54.877 224.951 59.1223 221.936 65.2628L257.047 70.7969C255.788 61.8135 248.04 54.877 238.652 54.877Z" fill="#587291"/>
<path d="M256.322 70.645L208.082 64.0117" stroke="#242938" stroke-width="2" stroke-linecap="round"/>
<path d="M247.468 93.3873L247.125 87.929L229.912 87.1709L228.92 92.288C233.423 101.423 245.674 96.7229 247.468 93.3873Z" fill="#D58B8B"/>
<path d="M256.131 78.4157C258.764 78.4157 260.863 76.2931 260.863 73.6398C260.863 70.9864 258.726 68.8638 256.131 68.8638C253.536 68.8638 251.398 70.9864 251.398 73.6398C251.398 76.2552 253.497 78.4157 256.131 78.4157Z" fill="#242938"/>
<path d="M260.941 78.4155C262.276 78.4155 263.383 77.3163 263.383 75.9138C263.383 74.5492 262.276 73.4121 260.941 73.4121C259.605 73.4121 258.498 74.5113 258.498 75.9138C258.498 77.2784 259.567 78.4155 260.941 78.4155Z" fill="#242938"/>
<path d="M262.809 80.1206C262.809 83.2288 260.29 86.1475 257.161 86.6023C252.924 87.2088 249.299 83.0014 249.299 79.8932C249.299 76.785 254.069 74.5107 257.161 74.5107C260.29 74.5107 262.809 77.0504 262.809 80.1206Z" fill="#242938"/>
<path d="M222.241 70.6453C224.836 70.9865 227.202 69.1292 227.545 66.5137L218.157 65.3008C217.852 67.9162 219.645 70.3042 222.241 70.6453Z" fill="#242938"/>
<path d="M228.348 70.001C229.684 70.1147 230.867 69.0534 230.982 67.6888L226.135 67.3477C225.982 68.7122 226.974 69.8873 228.348 70.001Z" fill="#242938"/>
<path d="M250.75 81.0309C252.62 81.6374 254.758 80.3107 255.483 78.0365C256.246 75.8001 255.33 73.45 253.46 72.8435C251.59 72.2371 249.453 73.5637 248.728 75.838C247.964 78.1123 248.842 80.4245 250.75 81.0309Z" fill="#AD5B5B"/>
<path d="M249.643 76.9366C250.253 75.9132 252.009 74.6624 253.612 74.9277" stroke="#242938" stroke-width="2" stroke-linecap="round"/>
<path d="M252.582 75.0796C252.773 75.3828 253.154 76.3304 253.23 76.9748" stroke="#242938" stroke-width="2" stroke-linecap="round"/>
<path d="M230.369 81.4477L234.338 75.6104L235.483 82.3574L230.369 81.4477Z" fill="#AD5B5B"/>
<path d="M233.92 76.0273L230.332 81.1066L235.179 81.8647" stroke="#242938" stroke-width="2" stroke-linecap="round"/>
<path d="M233.232 85.3893C233.843 85.4272 235.446 85.3135 236.705 84.707" stroke="#242938" stroke-width="2" stroke-linecap="round"/>
<path d="M238.309 70.7966C238.919 70.7587 240.522 70.8724 241.782 71.4789" stroke="#242938" stroke-width="2" stroke-linecap="round"/>
<path d="M228.422 71.0622C227.812 71.0243 226.209 71.138 224.949 71.7445" stroke="#242938" stroke-width="2" stroke-linecap="round"/>
<path d="M234.264 91.265C235.79 91.5303 238.5 91.7578 240.599 90.0142" stroke="#242938" stroke-width="2" stroke-linecap="round"/>
<path d="M227.775 76.3306C228.424 76.3306 228.958 75.7999 228.958 75.1555C228.958 74.5111 228.424 73.9805 227.775 73.9805C227.126 73.9805 226.592 74.5111 226.592 75.1555C226.592 75.7999 227.126 76.3306 227.775 76.3306Z" fill="#242938"/>
<path d="M239.492 76.3306C240.141 76.3306 240.675 75.7999 240.675 75.1555C240.675 74.5111 240.141 73.9805 239.492 73.9805C238.843 73.9805 238.309 74.5111 238.309 75.1555C238.309 75.7999 238.843 76.3306 239.492 76.3306Z" fill="#242938"/>
<path d="M241.056 82.9262C242.353 82.9262 243.422 81.8649 243.422 80.5762C243.422 79.2874 242.353 78.2261 241.056 78.2261C239.758 78.2261 238.689 79.2874 238.689 80.5762C238.728 81.9028 239.758 82.9262 241.056 82.9262Z" fill="#AD5B5B"/>
<path d="M225.905 81.7134C227.203 81.7134 228.271 80.652 228.271 79.3633C228.271 78.0745 227.203 77.0132 225.905 77.0132C224.608 77.0132 223.539 78.0745 223.539 79.3633C223.539 80.652 224.608 81.7134 225.905 81.7134Z" fill="#AD5B5B"/>
<path d="M79.9254 70.0385C84.7342 67.0441 87.3676 60.4866 85.8028 55.4074C84.238 50.2902 78.208 47.6748 72.3306 49.4942C66.4533 51.3516 63.8199 57.9091 66.4533 64.1254C69.0866 70.3418 75.0785 73.033 79.9254 70.0385Z" fill="white"/>
<path d="M79.6945 69.508C84.2742 66.7031 86.755 60.5246 85.2665 55.6728C83.7781 50.821 78.0534 48.3193 72.5195 50.1008C66.9856 51.8824 64.5049 58.0608 66.9474 63.936C69.4282 69.7733 75.1147 72.275 79.6945 69.508Z" fill="#F6F6F7"/>
<path d="M76.4535 59.1227C77.9419 58.4783 78.7052 56.6968 78.1709 55.1806C77.6366 53.6644 75.9573 52.9063 74.3926 53.4749C72.8278 54.0435 72.0645 55.825 72.6752 57.417C73.2858 59.009 74.965 59.7671 76.4535 59.1227Z" fill="#242938"/>
<path d="M68.7051 66.9307C71.6438 70.3043 76.1472 71.8584 79.7729 69.622C83.3985 67.4235 85.5357 62.6096 85.7266 58.478C84.0473 58.0611 79.6584 57.5304 75.9182 59.1982C72.1781 60.8281 69.5065 64.9976 68.7051 66.9307Z" fill="#242938"/>
<path d="M264.758 104.039C266.361 108.777 270.254 112.226 269.338 122.574C268.46 132.922 269.338 137.168 269.338 144.066" stroke="#242938" stroke-width="2" stroke-linecap="round"/>
<path d="M71.6426 79.9326L94.1216 68.5991" stroke="#242938" stroke-width="2"/>
<path d="M75.918 88.3469L93.1303 79.0981" stroke="#242938" stroke-width="2"/>
</svg>
