<svg width="357" height="357" viewBox="0 0 357 357" fill="none" xmlns="http://www.w3.org/2000/svg">
<path d="M211.413 199.94H48.4316V300.774H211.413V199.94Z" fill="white"/>
<path d="M11.7695 71.2655H146.144C147.396 68.5599 147.665 62.3269 138.72 59.0401C129.773 55.7534 122.281 60.4096 119.654 63.1487C118.798 54.4305 113.274 36.6737 98.0219 35.391C82.7697 34.1083 77.979 46.8148 77.49 53.3283C63.4843 32.0841 51.2446 48.2844 46.8755 59.0401C32.2831 53.5086 17.3913 64.8856 11.7695 71.2655Z" fill="white"/>
<path d="M357 107.097H203.182C201.749 102.959 201.441 93.4246 211.682 88.3969C221.923 83.3693 230.497 90.4918 233.505 94.6815C234.485 81.346 240.809 54.1846 258.267 52.2225C275.726 50.2606 281.211 69.6967 281.771 79.6599C297.803 47.1644 311.814 71.9448 316.814 88.3969C333.518 79.9359 350.566 97.3385 357 107.097Z" fill="white"/>
<path d="M108.01 317.053L115.104 120.344H334.527V309.022L291.099 310.563H266.842H266.826H266.81L108.01 317.053Z" stroke="#242938" stroke-width="2.5"/>
<path d="M15.6484 58.7443H58.2003M15.6484 44.3584H81.2157H15.6484Z" stroke="#242938" stroke-width="2.5" stroke-linecap="round"/>
<path d="M114.329 119.544H335.33V158.93H112.9L114.329 119.544Z" fill="#242938"/>
<path d="M131.721 149.298C136.915 149.298 141.126 144.794 141.126 139.237C141.126 133.681 136.915 129.176 131.721 129.176C126.527 129.176 122.316 133.681 122.316 139.237C122.316 144.794 126.527 149.298 131.721 149.298Z" fill="white"/>
<path d="M156.17 149.298C161.364 149.298 165.575 144.794 165.575 139.237C165.575 133.681 161.364 129.176 156.17 129.176C150.976 129.176 146.766 133.681 146.766 139.237C146.766 144.794 150.976 149.298 156.17 149.298Z" fill="white"/>
<path d="M180.623 149.298C185.818 149.298 190.028 144.794 190.028 139.237C190.028 133.681 185.818 129.176 180.623 129.176C175.429 129.176 171.219 133.681 171.219 139.237C171.219 144.794 175.429 149.298 180.623 149.298Z" fill="white"/>
<path d="M67.3073 79.8156L67.0664 79.5233H66.6867H30.2337C14.6406 79.5233 2 66.94 2 51.4179C2 35.8956 14.6407 23.3125 30.2337 23.3125H70.3777C85.9707 23.3125 98.6114 35.8958 98.6114 51.4179V59.8287C98.6114 70.7057 89.7536 79.5233 78.8269 79.5233H77.9054L78.0317 80.432L80.1037 95.341L67.3073 79.8156Z" stroke="#242938" stroke-width="2.5"/>
<path d="M154.141 24.4492L153.9 24.1574H153.522H138.508C132.362 24.1574 127.379 19.1973 127.379 13.0787C127.379 6.96007 132.362 2 138.508 2H155.055C161.201 2 166.184 6.96007 166.184 13.0787V16.5246C166.184 20.74 162.75 24.1574 158.517 24.1574H157.595L157.72 25.0662L158.344 29.5413L154.141 24.4492Z" stroke="#242938" stroke-width="2.5"/>
<path d="M315.719 195.61C297.99 181.158 296.651 154.917 253.497 143.128C243.784 140.475 234.123 139.291 224.996 139.172C224.996 139.172 218.458 152.852 204.857 152.852C194.487 152.852 187.462 145.925 187.462 145.925C181.49 148.532 174.105 152.179 168.193 157.447C157.961 166.567 158.492 174.364 153.942 179.293C149.393 184.221 139.424 193.346 131.663 189.283C123.902 185.22 128.05 179.759 131.663 164.374C135.276 148.989 138.487 134.07 136.681 129.541C134.874 125.013 100.351 120.084 96.2698 122.349C93.0048 124.16 82.7771 151.12 78.0715 164.374C72.7637 186.396 71.1535 232.88 107.175 242.631C143.197 252.381 168.216 236.17 176.222 226.846C180.557 237.715 204.032 291.916 213.889 311.963L300.532 308.766L335.724 292.382C336.638 284.101 337.919 264.01 335.724 249.89C332.981 232.241 333.449 210.063 315.719 195.61Z" fill="#587291"/>
<path d="M208.211 219.853L187.883 209.396L183.583 217.68L203.911 228.137L208.211 219.853Z" fill="#242938"/>
<path d="M253.504 151.522L231.859 158.909L234.897 167.729L256.542 160.342L253.504 151.522Z" fill="#242938"/>
<path d="M197.975 170.528L206.104 149.236L197.348 145.923L189.219 167.215L197.975 170.528Z" fill="#242938"/>
<path d="M281.779 239.449L287.957 217.517L278.938 214.999L272.76 236.931L281.779 239.449Z" fill="#242938"/>
<path d="M293.708 273.703L316.188 277.957L317.937 268.796L295.457 264.543L293.708 273.703Z" fill="#242938"/>
<path d="M323.143 232.658L335.836 251.609L333.229 230.909L330.936 227.484L323.143 232.658Z" fill="#242938"/>
<path d="M289.957 168.593L297.607 190.061L306.435 186.943L305.559 184.488C303.16 181.397 297.607 172.166 293.372 167.371L289.957 168.593Z" fill="#242938"/>
<path d="M257.623 284.702L269.951 303.891L277.842 298.868L265.514 279.678L257.623 284.702Z" fill="#242938"/>
<path d="M248.694 239.501L226.803 246.129L229.528 255.05L251.42 248.422L248.694 239.501Z" fill="#242938"/>
<path d="M131.608 192.214L109.717 198.842L112.442 207.763L134.334 201.135L131.608 192.214Z" fill="#242938"/>
<path d="M142.006 239.548L134.399 234.108L126.18 245.495C129.011 245.563 135.329 245.593 137.952 245.165L142.006 239.548Z" fill="#242938"/>
<path d="M99.181 148.975L103.931 140.939L90.316 132.962L86.7031 141.665L99.181 148.975Z" fill="#242938"/>
<path d="M134.466 133.604L126.578 154.986L133.269 157.432C134.339 154.701 136.614 141.796 137.149 134.585L134.466 133.604Z" fill="#242938"/>
<path d="M89.599 216.874L80.8069 213.66L79.6211 216.874C80.6371 219.301 83.3087 225.316 85.6976 228.045L89.599 216.874Z" fill="#242938"/>
<path d="M209.907 283.449L209.519 274.133L196.895 274.655L200.909 283.821L209.907 283.449Z" fill="#242938"/>
<path d="M243.931 203.07C257.579 208.708 286.242 222.97 291.701 234.905C297.161 246.84 299.506 265.808 299.997 273.8M169.866 179.093C169.733 186.33 170.442 204.548 174.349 219.52L169.866 179.093Z" stroke="#242938" stroke-width="2.5" stroke-linecap="round"/>
<path d="M239.781 184.688C241.297 188.328 245.91 196.729 252.226 201.205" stroke="#242938" stroke-width="2.5" stroke-linecap="round"/>
<path d="M205.161 79.5239C191.757 79.5239 185.485 83.0738 175.648 100.579C170.655 109.464 167.81 123.103 172.328 127.631C175.159 130.469 181.887 133.555 188.806 135.833L187.462 150.454C186.189 153.657 192.825 159.605 202.248 160.578C213.398 161.727 224.692 156.451 227.806 147.457C228.523 145.387 222.582 136.892 224.836 131.729C230.946 126.257 234.796 118.278 234.796 109.392C234.796 92.8964 221.529 79.5239 205.161 79.5239Z" fill="#D58B8B"/>
<path d="M178.906 112.282L186.666 104.98L185.734 115.19L178.906 112.282Z" fill="#AD5B5B"/>
<path d="M185.888 105.561L178.488 112.112L185.334 114.85" stroke="#242938" stroke-width="2.5" stroke-linecap="round"/>
<path d="M184.874 121.765L177.143 118.147C177.236 119.389 178.089 121.741 179.401 122.652C181.57 124.156 183.51 122.808 184.874 121.765Z" stroke="#242938" stroke-width="2.5"/>
<path d="M177.058 102.024C178.085 102.792 179.543 102.587 180.315 101.564C181.087 100.542 180.881 99.0902 179.854 98.3217C178.827 97.5532 177.368 97.7589 176.596 98.7813C175.824 99.8036 176.031 101.255 177.058 102.024Z" fill="#242938"/>
<path d="M192.552 109.725C193.579 110.494 195.037 110.288 195.809 109.265C196.582 108.243 196.375 106.791 195.348 106.023C194.321 105.254 192.862 105.46 192.09 106.482C191.318 107.505 191.525 108.957 192.552 109.725Z" fill="#242938"/>
<path d="M195.311 99.8481C197.423 100.031 200.039 101.132 201.274 102.759" stroke="#242938" stroke-width="2.5" stroke-linecap="round"/>
<path d="M183.563 94.2929C181.961 92.9082 179.347 91.8032 177.314 92.051" stroke="#242938" stroke-width="2.5" stroke-linecap="round"/>
<path d="M192.442 118.31C193.5 119.101 195.002 118.889 195.797 117.837C196.592 116.784 196.379 115.289 195.321 114.497C194.264 113.706 192.762 113.918 191.967 114.971C191.172 116.023 191.385 117.518 192.442 118.31Z" fill="#AD5B5B"/>
<path d="M173.751 109.007C174.808 109.799 176.31 109.587 177.105 108.534C177.9 107.481 177.687 105.986 176.63 105.195C175.572 104.403 174.07 104.615 173.275 105.668C172.48 106.721 172.693 108.216 173.751 109.007Z" fill="#AD5B5B"/>
<path d="M224.838 131.729C230.947 126.257 249.886 100.579 249.886 100.579L240.787 102.169L241.79 90.0474H228.65L220.165 73.4637L205.527 76.8603L203.052 63.873L185.139 86.8691C186.963 91.1534 195.571 96.9067 208.605 96.9067C218.674 96.9067 224.468 101.069 220.165 105.231C216.722 108.56 213.647 114.453 212.54 116.982C210.655 121.898 210.474 131.729 224.838 131.729Z" fill="#242938"/>
<path d="M212.657 124.364C215.236 126.274 219.457 124.971 222.087 121.453C224.716 117.936 224.758 113.536 222.18 111.626C219.602 109.717 215.38 111.02 212.751 114.537C210.121 118.055 210.079 122.454 212.657 124.364Z" fill="#AD5B5B"/>
<path d="M213.734 117.681C214.872 116.269 217.718 114.282 219.504 114.03" stroke="#242938" stroke-width="2.5" stroke-linecap="round"/>
<path d="M217.965 114.77C218.515 115.586 219.085 117.375 218.926 118.338" stroke="#242938" stroke-width="2.5" stroke-linecap="round"/>
<path d="M100.385 102.638C95.2306 110.346 97.6777 116.764 99.5456 119.008L99.2731 121.816C109.225 122.705 130.385 125.226 135.413 128.21C135.911 126.404 136.414 124.599 136.867 123.018C138.565 117.097 152.718 105.243 154.202 102.388C155.688 99.5336 156.03 97.4895 154.239 96.1906C152.804 95.1515 144.622 98.3926 140.709 100.143L144.494 89.5663C146.122 83.6668 148.742 70.9816 146.201 67.4368C143.659 63.8921 140.37 69.6352 139.043 72.9498C139.641 71.3817 140.412 67.5541 138.704 64.7887C136.998 62.0232 133.125 67.0953 131.4 69.977C131.749 67.9005 131.84 63.6464 129.415 63.2429C126.991 62.8393 123.609 70.8818 122.222 74.9536L122.729 71.9361C123.219 69.6161 123.945 64.694 122.928 63.5643C121.657 62.1521 119.88 63.7575 117.237 69.3213C114.594 74.8851 106.827 93.0042 100.385 102.638Z" fill="#D58B8B"/>
<path d="M138.932 100.547C135.433 101.433 127.143 104.549 121.977 109.933" stroke="#242938" stroke-width="2.5" stroke-linecap="round"/>
<path d="M133.038 88.3598L138.146 75.3014M118.566 85.9516L121.39 77.5162L118.566 85.9516ZM125.118 87.0418L130.422 72.8154L125.118 87.0418Z" stroke="#242938" stroke-width="2.5" stroke-linecap="round"/>
<path d="M304.921 299.54C306.134 298.247 305.616 293.292 305.11 290.384C318.796 297.19 324.483 293.994 335.1 291.569C335.208 294.621 335.171 300.186 334.911 302.772C334.586 306.003 332.096 322.161 327.765 325.392C323.434 328.624 315.748 337.994 313.149 342.196C311.071 345.556 305.787 351.926 303.405 354.691C301.71 356.02 297.906 358.181 296.26 356.199C294.615 354.217 297.38 347.259 298.967 344.027C296.874 346.899 292.059 352.773 289.548 353.29C284.525 354.152 286.805 346.683 288.574 342.842C286.985 344.853 282.987 348.745 279.695 348.228C276.405 347.71 277.892 341.836 279.046 338.964C277.783 340.184 274.954 342.282 273.741 340.904C272.226 339.18 272.875 335.409 273.741 332.071C274.434 329.399 278.721 321.837 280.779 318.39C279.263 319.037 276.188 319.942 276.016 318.39C275.799 316.452 281.103 310.096 287.058 306.973C293.012 303.848 303.405 301.156 304.921 299.54Z" fill="#D58B8B"/>
<path d="M298.945 344.478C300.388 342.058 303.556 336.935 304.682 335.808M280.328 337.217C281.664 335.012 285.133 329.891 288.338 327.028L280.328 337.217ZM290.286 341.444C291.837 338.951 295.589 333.272 298.188 330.497L290.286 341.444Z" stroke="#242938" stroke-width="2.5" stroke-linecap="round"/>
<path d="M282.066 317.038C283.807 315.116 288.572 310.639 293.707 308.114" stroke="#242938" stroke-width="2.5" stroke-linecap="round"/>
</svg>
