<svg width="352" height="278" viewBox="0 0 352 278" fill="none" xmlns="http://www.w3.org/2000/svg">
<path d="M18.2891 143.503L23.0207 20.5562H169.872V138.473L18.2891 143.503Z" stroke="#242938" stroke-width="2"/>
<path d="M170.635 19.7959H22.3047V44.5205H170.635V19.7959Z" fill="#242938"/>
<path d="M33.9644 38.4764C37.4498 38.4764 40.2803 35.6447 40.2803 32.1579C40.2803 28.6711 37.4498 25.8394 33.9644 25.8394C30.479 25.8394 27.6484 28.6711 27.6484 32.1579C27.6484 35.6447 30.479 38.4764 33.9644 38.4764Z" fill="white"/>
<path d="M50.3785 38.4764C53.8638 38.4764 56.6944 35.6447 56.6944 32.1579C56.6944 28.6711 53.8638 25.8394 50.3785 25.8394C46.8931 25.8394 44.0625 28.6711 44.0625 32.1579C44.0625 35.6447 46.8931 38.4764 50.3785 38.4764Z" fill="white"/>
<path d="M66.7886 38.4764C70.274 38.4764 73.1046 35.6447 73.1046 32.1579C73.1046 28.6711 70.274 25.8394 66.7886 25.8394C63.3032 25.8394 60.4727 28.6711 60.4727 32.1579C60.4727 35.6447 63.3032 38.4764 66.7886 38.4764Z" fill="white"/>
<path d="M134 107H4V217" stroke="white" stroke-width="2"/>
<path d="M128.281 22.6904H266.556V121.61H140.448L128.281 22.6904Z" fill="white"/>
<path d="M141.588 160.113L129.273 61.1089H291.291L297.819 158.528L141.588 160.113Z" stroke="#242938" stroke-width="2"/>
<path d="M151.051 29.1785L277.095 24.3604L273.927 128.098" stroke="#242938" stroke-width="2"/>
<path d="M128.682 60.3481H291.355L292.833 80.8252L131.238 80.3391L128.682 60.3481Z" fill="#242938"/>
<path d="M144.864 75.817C147.758 75.817 150.102 73.4713 150.102 70.5762C150.102 67.6811 147.758 65.3354 144.864 65.3354C141.97 65.3354 139.625 67.7022 139.625 70.5762C139.625 73.4713 141.97 75.817 144.864 75.817Z" fill="white"/>
<path d="M158.465 75.817C161.359 75.817 163.704 73.4713 163.704 70.5762C163.704 67.6811 161.359 65.3354 158.465 65.3354C155.571 65.3354 153.227 67.6811 153.227 70.5762C153.227 73.4713 155.571 75.817 158.465 75.817Z" fill="white"/>
<path d="M172.047 75.817C174.941 75.817 177.286 73.4713 177.286 70.5762C177.286 67.6811 174.941 65.3354 172.047 65.3354C169.153 65.3354 166.809 67.6811 166.809 70.5762C166.83 73.4713 169.153 75.817 172.047 75.817Z" fill="white"/>
<path d="M304.831 150.688C323.23 160.155 337.7 165.734 343.847 192.488C349.994 219.241 355 227.609 347.184 233.737C339.39 239.866 333.264 245.445 324.899 244.895C316.534 244.346 320.991 241.556 301.494 244.895C281.997 248.234 265.267 230.399 254.135 229.279L239.644 224.82L242.982 249.904C238.715 252.503 229.716 258.483 227.942 261.611C225.702 265.52 151.052 288.935 93.6589 269.408C85.6319 266.725 84.3434 264.844 84.6814 264.252C75.049 268.056 53.6508 274.417 45.0746 269.408C34.365 263.153 34.1326 265.562 29.1052 260.744C25.0706 256.898 14.1497 244.261 9.20677 238.429C4.39059 233.315 -3.78424 220.361 1.9825 209.33C9.20677 195.531 27.5843 165.1 36.3295 162.036C45.0746 158.972 65.2054 139.932 66.0926 136.868C66.9587 133.804 81.534 119.772 95.9825 111.235C107.706 104.324 119.113 100.288 131.111 94.9417C146.679 87.9892 174.457 99.95 174.457 99.95C203.903 108.678 264.507 125.921 272.534 129.493C282.546 133.952 286.454 141.2 304.831 150.688Z" fill="#587291"/>
<path d="M131.999 276.677C132.506 270.021 141.42 260.406 140.955 254.975C139.92 236.738 147.672 201.024 186.983 204.067C226.294 207.11 216.451 250.241 220.908 265.012M158.086 276.656C156.587 254.214 166.008 228.602 163.769 224.122C161.529 219.663 145.18 215.944 137.237 212.457C129.295 208.991 140.934 187.394 126.57 177.23C112.206 167.065 94.5254 175.729 89.3079 178.202M87.8926 204.067C132.273 214.274 126.57 197.326 126.57 189.402C126.57 181.477 108.467 157.408 121.373 127.632C131.682 103.817 128.027 99.9494 126.591 97.1177M182.357 186.168C183.899 187.246 188.568 194.494 195.01 214.95C201.432 235.385 228.153 229.574 240.025 228.39M241.63 167.065C240.384 168.967 239.835 177.335 247.587 195.593C255.318 213.852 249.192 223.234 248.136 227.376M295.918 177.251C316.999 191.388 284.511 217.676 262.69 214.95C245.242 212.774 242.095 221.692 241.039 225.157M328.342 244.726C328.195 243.458 325.343 241.26 325.343 237.329C325.343 232.406 335.165 231.539 339.094 220.91C343.023 210.28 316.957 208.907 310.578 186.19C305.466 168.016 314.316 161.021 316.534 156.71M229.991 116.158C229.336 118.503 236.708 124.061 239.307 132.577C242.538 143.228 262.69 149.546 271.9 156.245C279.251 161.592 274.963 167.762 271.9 170.15M187.321 103.732C186.73 105.549 188.462 107.451 190.976 107.958C194.123 108.592 195.222 117.721 204.009 122.328C211.043 126.005 219.091 115.904 219.957 113.263" stroke="white" stroke-width="2"/>
<path d="M80.7109 210.935C82.084 205.441 85.506 203.793 87.048 203.666" stroke="#242938" stroke-width="2" stroke-linecap="round"/>
<path d="M91.0005 196C83.6917 187.294 88.949 169.601 93.6596 164.043C85.1046 140.333 96.638 121.462 103.482 114.996" stroke="#242938" stroke-width="2" stroke-linecap="round"/>
<path d="M42.7721 158.401C44.9056 161.423 52.7214 167.065 56.2279 167.488C60.6005 167.995 67.3178 165.691 74.542 156.14C80.3088 148.511 74.542 135.177 70.0216 131.711M16.769 247.135C17.8885 246.163 23.4229 242.338 30.436 235.322C39.2023 226.552 30.436 205.906 29.1474 199.989C27.8589 194.051 30.436 190.184 33.013 179.343C35.0832 170.679 30.6472 166.283 30.6472 166.283M90.4058 268.246C98.982 244.387 84.8503 235.322 80.351 235.322C75.8728 235.322 66.9164 237.118 56.2279 235.322C45.5393 233.526 46.8912 226.066 40.0261 215.014C33.1609 203.962 18.5222 210.83 11.636 215.014C6.14382 218.353 8.63641 229.849 4.1582 231.75" stroke="white" stroke-width="2"/>
<path d="M240.087 163.832C240.954 157.323 236.771 150.793 232.905 147.898C229.948 131.711 218.985 121.314 213.873 118.123" stroke="#242938" stroke-width="2" stroke-linecap="round"/>
<path d="M91.3139 195.932C89.3071 196.967 88.8847 199.101 89.3283 200.496C85.9485 204.194 86.6245 208.526 87.3849 210.238" stroke="#242938" stroke-width="2" stroke-linecap="round"/>
<path d="M98.8756 264.23C101.833 264.378 108.339 264.188 110.874 262.329C114.021 260.004 121.816 261.061 123.717 257.701C125.618 254.341 123.717 248.233 126.463 239.379C129.209 230.525 126.041 222.325 123.717 217.697C121.393 213.07 99.9318 209.9 90.4473 210.956C82.8639 211.802 67.9295 211.316 61.4023 210.956" stroke="#242938" stroke-width="2" stroke-linecap="round"/>
<path d="M234.258 220.657C231.026 219.684 224.16 215.775 222.513 208.041C218.985 183.971 228.977 178.392 234.258 171.038C239.538 163.705 261.845 165.163 276.8 171.038C288.778 175.73 302.339 177.885 307.62 178.371" stroke="#242938" stroke-width="2" stroke-linecap="round"/>
<path d="M138.377 103.288C144.397 107.831 149.72 109.121 157.959 109.29C165.288 109.438 175.808 105.782 179.061 104.408" stroke="#242938" stroke-width="2" stroke-linecap="round"/>
<path d="M152.086 111.636C152.086 111.636 154.79 112.227 159.057 112.206C162.838 112.185 166.344 111.107 166.344 111.107" stroke="#242938" stroke-width="2" stroke-linecap="round"/>
<path d="M190.997 228.602C194.271 228.729 195.179 231.074 195.243 232.215C197.081 232.469 200.798 233.758 201.052 236.78C204.03 237.456 209.544 239.76 207.642 243.542C205.762 247.325 202.467 247.938 201.052 247.79C203.206 250.304 204.727 255.397 193.659 255.651C183.54 255.883 167.339 255.292 158.15 251.255C151.855 248.487 142.539 249.48 138.674 250.304C140.659 244.113 143.448 229.489 138.674 220.445C144.06 220.445 157.115 221.818 166.177 227.355C177.478 234.265 186.899 228.454 190.997 228.602Z" fill="#AD5B5B"/>
<path d="M143.215 217.465L183.054 235.808L203.987 158.359L224.794 165.966L239.876 140.037L261.296 151.364L268.372 106.162L275.068 107.874L269.682 88.4326L251.241 100.668L260.366 103.035L250.692 127.569L235.969 122.751L218.795 145.891L197.904 136.424L143.215 217.465Z" fill="white"/>
<path d="M149.5 207L197.904 136.424L218.795 145.891L235.969 122.751L250.692 127.569L260.366 103.035L251.241 100.668L269.682 88.4326L275.068 107.874L268.372 106.162L261.296 151.364L239.876 140.037L224.794 165.966L203.987 158.359L183.054 235.808" stroke="#242938" stroke-width="2"/>
<path d="M198.853 157.873C194.291 155.823 179.061 149.927 176.821 149.483C173.716 148.892 171.16 151.808 172.977 154.069C174.244 155.654 176.631 157.175 177.645 157.852C174.878 156.394 168.858 153.477 167.274 153.034C164.042 152.146 158.317 156.901 170.104 163.494C167.738 162.395 162.88 160.852 162.246 163.494C161.612 166.135 164.718 168.777 166.323 169.791L172.132 173.722C169.576 172.94 164.485 172.877 167.252 178.286C169.977 183.612 197.206 196.312 210.767 201.87C213.809 194.22 219.998 178.202 220.505 175.307C221.012 172.412 225.004 168.439 226.948 166.812L209.5 155.844C207.535 157.239 202.487 159.5 198.853 157.873Z" fill="#AD5B5B"/>
<path d="M194.565 165.396L178.363 158.084" stroke="#242938" stroke-width="2" stroke-linecap="round"/>
<path d="M188.124 172.052L171.922 164.741" stroke="#242938" stroke-width="2" stroke-linecap="round"/>
<path d="M189.624 182.597L173.422 175.307" stroke="#242938" stroke-width="2" stroke-linecap="round"/>
<path d="M200.397 236.971C199.932 232.871 195.433 232.004 191.419 232.195M206.65 241.345C204.009 236.928 197.587 236.696 192.56 237.499M166.346 252.313C172.218 253.221 181.597 252.651 185.632 251.404C188.842 250.411 196.362 248.361 199.721 247.452" stroke="#242938" stroke-width="2" stroke-linecap="round"/>
<path d="M217.485 207.723C206.374 205.293 211.464 199.228 213.281 194.812C215.098 190.395 216.788 187.817 220.611 175.941C223.674 166.452 232.102 165.036 235.588 167.129" stroke="#242938" stroke-width="2" stroke-linecap="round"/>
<path d="M229.442 173.616C227.245 171.143 223.887 171.608 222.492 172.137M224.436 180.568C223.527 179.469 221.246 179.047 220.211 178.962M217.465 186.506C217.549 187.331 219.789 188.303 220.887 188.683M214.043 193.691C215.184 197.685 218.711 199.63 220.211 200.876" stroke="#242938" stroke-width="2" stroke-linecap="round"/>
<path d="M130.858 257.426C132.4 256.687 136.075 254.214 138.547 250.241C143.152 237.773 141.103 226.996 139.582 221.544C138.357 217.17 131.893 216.874 128.83 217.275" stroke="#242938" stroke-width="2" stroke-linecap="round"/>
<path d="M131.131 224.439C135.546 223.932 139.074 225.707 140.278 226.658M132.082 232.786L140.278 234.202M128.766 246.057C132.293 248.086 136.962 248.382 138.863 248.276M128.766 253.622C130.033 254.13 133.835 253.622 135.631 253.622H128.766ZM134.448 240.69C136.349 240.69 139.137 240.69 140.278 240.69H134.448Z" stroke="#242938" stroke-width="2" stroke-linecap="round"/>
<path d="M141.23 79.5571C141.674 82.262 141.61 88.3058 137.766 90.9262C133.921 93.5466 131.661 94.7089 131.027 94.9625C136.604 103.563 154.39 116.982 180.879 101.894C176.38 100.415 168.205 95.9345 171.458 89.7639L141.23 79.5571Z" fill="#AD5B5B"/>
<path d="M161.677 31.9253C177.414 31.9253 190.173 45.3865 190.173 62.0175C190.173 78.6273 190.173 98.724 161.677 92.1096C145.94 92.1096 133.182 78.6273 133.182 62.0175C133.161 45.3865 145.919 31.9253 161.677 31.9253Z" fill="#AD5B5B"/>
<path d="M172.492 79.4725L177.287 72.1396L178.935 81.0363L172.492 79.4725Z" fill="#804141"/>
<path d="M172.746 79.4305L179.104 81.1422L177.351 72.478" stroke="#242938" stroke-width="2" stroke-linecap="round"/>
<path d="M185.716 72.7526C185.716 71.6115 184.787 70.6816 183.646 70.6816C182.506 70.6816 181.576 71.6115 181.576 72.7526C181.576 73.8937 182.506 74.8235 183.646 74.8235C184.787 74.8235 185.716 73.8937 185.716 72.7526Z" fill="#242938"/>
<path d="M169.386 72.3722C169.386 71.2311 168.457 70.3013 167.316 70.3013C166.176 70.3013 165.246 71.2311 165.246 72.3722C165.246 73.5134 166.176 74.4432 167.316 74.4432C168.457 74.4432 169.386 73.5134 169.386 72.3722Z" fill="#242938"/>
<path d="M168.268 84.5654C168.078 85.2625 169.261 86.1919 170.909 86.6144C172.556 87.0369 174.035 86.8257 174.225 86.1286" stroke="#242938" stroke-width="2" stroke-linecap="round"/>
<path d="M162.459 65.1235C163.811 63.8984 166.303 63.3703 168.183 63.5815" stroke="#242938" stroke-width="2" stroke-linecap="round"/>
<path d="M188.693 67.8913C187.552 66.476 185.187 65.5465 183.307 65.4409" stroke="#242938" stroke-width="2" stroke-linecap="round"/>
<path d="M146.915 64.2457C144.776 59.524 140.164 56.9086 136.623 58.4362C133.081 59.9638 131.94 65.0326 134.079 69.7543C136.219 74.476 140.83 77.0914 144.372 75.5638C147.938 74.0594 149.055 68.9905 146.915 64.2457Z" fill="#804141"/>
<path d="M138.422 63C140.217 63.6974 142.731 66.4445 143.576 68.1985" stroke="#242938" stroke-width="2" stroke-linecap="round"/>
<path d="M138 67.649C138.063 66.5924 139.077 64.8596 139.859 64.1411" stroke="#242938" stroke-width="2" stroke-linecap="round"/>
<path d="M167.402 77.9298C167.402 76.7464 166.451 75.7954 165.268 75.7954C164.085 75.7954 163.135 76.7464 163.135 77.9298C163.135 79.1132 164.085 80.0641 165.268 80.0641C166.451 80.0641 167.402 79.092 167.402 77.9298Z" fill="#804141"/>
<path d="M185.165 79.5147C185.165 78.3313 184.215 77.3804 183.032 77.3804C181.849 77.3804 180.898 78.3313 180.898 79.5147C180.898 80.6981 181.849 81.649 183.032 81.649C184.215 81.649 185.165 80.6981 185.165 79.5147Z" fill="#804141"/>
<path d="M145.264 53.459C144.44 54.9383 147.038 59.5874 147.883 63.4545C148.348 65.61 147.587 69.2236 145.961 69.4983C145.961 64.173 143.13 57.4741 137.152 59.2281C133.308 60.3481 132.97 68.6108 140.152 72.9006C142.475 74.2953 142.898 72.7949 143.489 73.7247C143.996 79.8108 141.313 83.3187 141.313 83.3187C134.279 76.9368 124.077 59.376 137.617 41.3081C145.855 31.2703 165.711 26.3254 179.42 37.9058C184.659 40.653 189.539 51.2402 188.989 52.7617C186.37 59.8409 172.809 64.6379 157.05 58.2772C149.404 55.1919 146.721 52.2545 145.264 53.459Z" fill="#242938"/>
<path d="M137.744 11.3638C138.526 18.6332 144.102 34.6302 160.199 40.5472C160.051 39.871 179.358 5.2143 153.756 0.269386C141.483 -1.59024 137.977 6.88374 137.744 11.3638Z" fill="#242938"/>
<path d="M50.3782 83.2129H37.6406V120.342H50.3782V83.2129Z" fill="white"/>
<path d="M68.4172 70.7241H55.6797V120.342H68.4172V70.7241Z" fill="white"/>
<path d="M86.6047 59.6929H73.8672V120.342H86.6047V59.6929Z" fill="white"/>
<path d="M55.0461 79.0078H42.3086V116.137H55.0461V79.0078Z" stroke="#242938" stroke-width="2"/>
<path d="M73.0852 66.54H60.3477V116.158H73.0852V66.54Z" stroke="#242938" stroke-width="2"/>
<path d="M91.2727 55.4878H78.5352V116.137H91.2727V55.4878Z" stroke="#242938" stroke-width="2"/>
<path d="M160.473 231.476C164.55 227.292 183.814 232.744 183.814 232.744C188.039 234.625 187.574 239.781 181.617 241.366C176.865 242.613 165.965 240.838 161.106 239.802C161.106 239.781 161.106 234.223 160.473 231.476Z" fill="#AD5B5B"/>
<path d="M166.346 229.891C173.485 229.806 183.794 232.744 183.794 232.744C188.019 234.625 187.554 239.781 181.597 241.366C176.844 242.613 165.944 240.837 161.086 239.802" stroke="#242938" stroke-width="2" stroke-linecap="round"/>
</svg>
