<svg width="315" height="388" viewBox="0 0 315 388" fill="none" xmlns="http://www.w3.org/2000/svg">
<path d="M119.552 269.519L43.4277 272.238L49.021 116.038H221.829V265.863L187.254 267.099" stroke="#587291" stroke-width="2"/>
<path opacity="0.2" d="M242.445 200.085L164.741 199.707L166.651 114.035L182.653 96.2158L237.532 96.4835L242.445 200.085Z" fill="#787B84"/>
<path d="M182.287 96.2158L166.326 113.66L186.149 112.974L182.287 96.2158Z" fill="#242938"/>
<path d="M92.5933 195.78L16.4688 198.499L22.0621 42.2988H194.87V192.124L160.296 193.36" stroke="#242938" stroke-width="2"/>
<path d="M45.0137 156.475L65.7621 123.497L89.4566 149.161L115.909 105.715L135.467 138.693L164.741 81.9434" stroke="#242938" stroke-width="2" stroke-linecap="round"/>
<path d="M29.9482 185.813H86.2438M29.9482 175.505H65.336H29.9482Z" stroke="#242938" stroke-width="2" stroke-linecap="round"/>
<path d="M194.87 42.2988H22.0186V73.2217H194.87V42.2988Z" fill="#242938"/>
<path d="M35.4974 66.0859C39.4385 66.0859 42.6334 62.536 42.6334 58.157C42.6334 53.7779 39.4385 50.228 35.4974 50.228C31.5562 50.228 28.3613 53.7779 28.3613 58.157C28.3613 62.536 31.5562 66.0859 35.4974 66.0859Z" fill="white"/>
<path d="M54.5277 66.0859C58.4688 66.0859 61.6637 62.536 61.6637 58.157C61.6637 53.7779 58.4688 50.228 54.5277 50.228C50.5865 50.228 47.3916 53.7779 47.3916 58.157C47.3916 62.536 50.5865 66.0859 54.5277 66.0859Z" fill="white"/>
<path d="M73.557 66.0859C77.4981 66.0859 80.693 62.536 80.693 58.157C80.693 53.7779 77.4981 50.228 73.557 50.228C69.6158 50.228 66.4209 53.7779 66.4209 58.157C66.4209 62.536 69.6158 66.0859 73.557 66.0859Z" fill="white"/>
<path d="M49.7715 85.3627L54.8702 78.772L97.3452 115.879L94.7683 119.21L49.7715 85.3627Z" fill="#242938"/>
<path d="M41.8418 104.92L44.6112 97.0088L97.3444 118.383L95.9449 122.381L41.8418 104.92Z" fill="#242938"/>
<path d="M44.2207 94.6579L48.2596 87.4941L95.7589 117.175L93.7177 120.796L44.2207 94.6579Z" fill="#242938"/>
<path d="M85.2574 144.476C92.4056 160.49 110.376 168.754 125.131 162.081C152.294 151.978 145.837 136.323 138.687 120.31C131.539 104.296 113.784 96.7244 99.0295 103.398C84.275 110.071 78.109 128.463 85.2574 144.476Z" fill="#D58B8B"/>
<path d="M134.611 150.132L125.889 151.822C126.742 152.763 128.922 154.145 130.588 154.096C133.341 154.015 134.121 151.782 134.611 150.132Z" stroke="#242938" stroke-width="2"/>
<path d="M136.99 143.424L131.282 135.86L129.854 144.582L136.99 143.424Z" fill="#AD5B5B"/>
<path d="M131.268 135.86L136.99 143.527L129.854 144.582" stroke="#242938" stroke-width="2" stroke-linecap="round"/>
<path d="M138.376 135.639C137.293 136.126 136.011 135.623 135.514 134.516C135.016 133.409 135.491 132.117 136.575 131.63C137.658 131.144 138.939 131.646 139.437 132.753C139.934 133.86 139.459 135.153 138.376 135.639Z" fill="#242938"/>
<path d="M122.781 142.209C121.698 142.695 120.417 142.193 119.919 141.086C119.422 139.978 119.897 138.686 120.98 138.2C122.063 137.713 123.345 138.216 123.842 139.323C124.339 140.43 123.865 141.722 122.781 142.209Z" fill="#242938"/>
<path d="M118.752 131.103C116.878 131.716 114.752 133.293 113.994 135.067" stroke="#242938" stroke-width="2" stroke-linecap="round"/>
<path d="M134.609 126.345C136.26 126.345 138.63 126.345 140.16 126.345" stroke="#242938" stroke-width="2" stroke-linecap="round"/>
<path d="M99.3135 151.806C96.941 154.484 92.0408 153.933 88.3685 150.575C84.6961 147.216 83.6424 142.321 86.0148 139.642C88.3873 136.964 93.2875 137.515 96.9599 140.874C100.632 144.232 101.686 149.127 99.3135 151.806Z" fill="#AD5B5B"/>
<path d="M96.5521 144.582C94.9865 143.098 91.4246 141.304 89.416 141.416" stroke="#242938" stroke-width="2" stroke-linecap="round"/>
<path d="M91.7948 142.203C91.0504 143.371 90.668 145.778 91.3797 146.96" stroke="#242938" stroke-width="2" stroke-linecap="round"/>
<path d="M123.294 148.492C122.179 148.994 120.859 148.476 120.347 147.336C119.834 146.196 120.324 144.865 121.439 144.364C122.555 143.863 123.874 144.381 124.386 145.521C124.899 146.661 124.41 147.991 123.294 148.492Z" fill="#AD5B5B"/>
<path d="M140.762 142.489C139.646 142.99 138.327 142.472 137.814 141.332C137.302 140.192 137.791 138.861 138.907 138.36C140.022 137.859 141.342 138.377 141.854 139.517C142.366 140.657 141.877 141.987 140.762 142.489Z" fill="#AD5B5B"/>
<path d="M105.847 130.469C123.593 129.901 134.391 119.55 133.794 111.636C133.665 109.948 124.406 101.822 118.223 101.396C100.157 96.0632 83.4305 109.222 79.9846 122.369C75.0159 145.492 92.3583 158.083 101.828 161.233C101.828 161.233 102.837 156.731 99.7062 151.095C98.7553 150.444 98.9853 152.058 96.182 151.703C87.4713 150.598 84.2036 142.517 87.367 139.807C92.2911 135.587 97.9077 140.848 100.227 145.964C101.647 145.021 100.807 141.216 99.4155 139.333C96.9283 135.965 92.4225 132.6 92.5707 130.825C93.4306 129.063 97.253 130.744 105.847 130.469Z" fill="#242938"/>
<path d="M166.327 199.689C166.327 203.831 165.336 207.735 163.581 211.173C159.487 219.19 151.246 224.665 141.748 224.665C128.172 224.665 117.168 213.482 117.168 199.689C117.168 191.194 121.34 183.688 127.721 179.175C131.699 176.361 136.532 174.712 141.748 174.712C143.913 174.712 146.013 174.997 148.012 175.531C158.553 178.345 166.327 188.095 166.327 199.689Z" stroke="#242938" stroke-width="2"/>
<path d="M95.7557 211.186C87.1279 211.186 80.1093 204.439 79.9004 196.04L99.3386 180.263C105.997 182.176 111.616 188.626 111.616 195.655C111.616 198.231 110.976 200.658 109.844 202.795C107.202 207.781 101.884 211.186 95.7557 211.186Z" stroke="#242938" stroke-width="2" stroke-linecap="round"/>
<path d="M163.947 354.456C163.947 346.179 168.15 338.865 174.578 334.468C178.585 331.726 183.454 330.12 188.708 330.12C190.889 330.12 193.005 330.397 195.019 330.917C201.862 332.684 207.551 337.26 210.728 343.316C205.027 348.293 196.157 351.647 187.204 353.803C178.442 355.914 169.722 356.849 164.089 357.078C163.996 356.218 163.947 355.342 163.947 354.456Z" stroke="#242938" stroke-width="2"/>
<path d="M236.101 260.344C236.101 266.919 234.501 273.118 231.671 278.574C225.069 291.298 211.777 299.989 196.456 299.989C174.561 299.989 156.812 282.24 156.812 260.344C156.812 246.86 163.543 234.947 173.834 227.784C180.249 223.318 188.046 220.7 196.456 220.7C199.949 220.7 203.335 221.152 206.56 221.999C223.562 226.466 236.101 241.942 236.101 260.344Z" stroke="#242938" stroke-width="2"/>
<path d="M183.77 313.468C183.77 320.043 182.154 326.242 179.295 331.698C172.628 344.422 159.202 353.113 143.729 353.113C121.615 353.113 103.688 335.364 103.688 313.468C103.688 299.984 110.487 288.071 120.88 280.908C127.359 276.442 135.234 273.824 143.729 273.824C147.257 273.824 150.677 274.276 153.934 275.123C171.106 279.59 183.77 295.066 183.77 313.468Z" stroke="#242938" stroke-width="2"/>
<path d="M178.64 255.548C180.905 251.439 182.185 246.772 182.185 241.824C182.185 227.97 172.152 216.319 158.552 212.957C155.97 212.318 153.261 211.979 150.469 211.979C143.741 211.979 137.503 213.949 132.37 217.312C124.14 222.703 118.753 231.672 118.753 241.824C118.753 250.369 122.569 258.075 128.686 263.517" stroke="#242938" stroke-width="2"/>
<path d="M102.101 161.205C105.568 163.066 113.942 165.348 121.462 163.996C126.596 163.074 132.684 159.638 133.816 158.854" stroke="#242938" stroke-width="2" stroke-linecap="round"/>
<path d="M175.646 157.103C169.423 157.103 148.867 165.69 139.369 169.983C140.288 171.516 143.046 175.588 146.723 179.607C151.32 184.632 172.393 233.319 175.646 248.038C178.898 262.758 181.586 286.111 183.424 298.07C184.895 307.638 196.246 336.638 201.739 349.942C222.614 344.79 244.992 324.867 253.573 315.55L236.601 255.398C244.097 261.508 262.666 273.359 276.979 271.887C294.87 270.047 298.122 260.422 299.961 255.398C301.8 250.374 305.901 238.839 310.002 227.374C314.104 215.91 314.599 186.047 314.599 174.583C314.599 163.118 313.467 121.437 312.972 117.757C312.825 116.663 270.287 122.662 262.341 123.135L266.443 160.783C266.443 190.364 264.744 192.471 259.088 208.975C250.532 204.705 230.576 193.322 219.205 181.942C204.992 167.718 183.424 157.103 175.646 157.103Z" fill="#587291"/>
<path d="M305.07 93.6791C309.254 102.333 304.395 114.303 300.006 118.258C286.171 120.938 278.299 121.361 263.755 122.381C260.747 119.69 253.955 111.263 250.87 99.0853C247.786 86.9077 259.813 88.9674 266.213 91.5196C268.419 91.9695 274.112 90.6915 279.227 81.9815C284.343 73.2714 278.832 66.2544 275.438 63.8347C273.463 62.1959 271.082 58.7729 277.351 58.1903C289.651 57.3617 297.579 72.0821 300.006 79.5458C303.607 81.3662 303.675 88.4019 303.258 91.6921L305.07 93.6791Z" fill="#D58B8B"/>
<path d="M257.882 79.7145C259.79 83.8689 263.714 89.3912 265.438 91.6332L251.252 96.2159C245.717 69.553 255.496 74.5213 257.882 79.7145Z" fill="#D58B8B"/>
<path fill-rule="evenodd" clip-rule="evenodd" d="M92.815 184.227C84.4068 190.65 65.9604 204.518 59.4416 208.599C51.2931 213.7 26.0681 251.675 22.2419 270.521C18.4156 289.366 6.86599 326.562 4.31515 332.513C1.76432 338.464 -2.55794 361.561 4.31515 374.81C9.34597 384.507 16.6544 384.373 22.2117 384.272C24.2468 384.235 26.047 384.201 27.4145 384.658C32.5162 386.358 37.6888 387.208 41.9401 387.208C45.8283 387.208 65.8965 383.711 77.1023 381.76C78.149 381.577 79.1185 381.408 79.9901 381.257C88.1528 379.84 97.3263 380.666 100.893 381.257C102.333 378.139 106.15 371.296 109.891 368.858C112.222 367.341 121.555 366.578 131.395 365.776C141.299 364.967 151.718 364.117 156.019 362.411C152.878 350.178 146.34 324.337 145.319 318.839C141.625 298.931 129.712 258.689 112.867 226.524C112.552 225.923 111.935 224.788 111.103 223.263C105.988 213.879 92.815 189.712 92.815 184.227ZM88.3318 290.004C91.4023 298.388 97.6565 315.878 98.11 318.768C98.5635 321.659 100.944 331.97 102.078 336.764C95.2521 335.938 80.7502 334.327 77.349 334.497C73.9479 334.667 66.3426 333.529 62.9651 332.938C67.4291 323.232 77.1506 302.813 80.325 298.789C83.4994 294.765 86.9855 291.255 88.3318 290.004Z" fill="#587291"/>
<path d="M203.592 322.191C208.409 322.191 212.314 318.286 212.314 313.469C212.314 308.652 208.409 304.747 203.592 304.747C198.775 304.747 194.87 308.652 194.87 313.469C194.87 318.286 198.775 322.191 203.592 322.191Z" fill="white"/>
<path d="M302.705 159.647C302.705 164.464 306.62 168.369 311.45 168.369C312.56 168.369 313.622 168.162 314.599 167.787C314.599 165.758 314.319 155.99 314.179 151.358C313.32 151.077 312.403 150.925 311.45 150.925C306.62 150.925 302.705 154.83 302.705 159.647Z" fill="white"/>
<path d="M274.952 226.25C279.769 226.25 283.674 222.345 283.674 217.528C283.674 212.712 279.769 208.807 274.952 208.807C270.135 208.807 266.23 212.712 266.23 217.528C266.23 222.345 270.135 226.25 274.952 226.25Z" fill="white"/>
<path d="M274.952 145.375C279.769 145.375 283.674 141.47 283.674 136.653C283.674 131.837 279.769 127.932 274.952 127.932C270.135 127.932 266.23 131.837 266.23 136.653C266.23 141.47 270.135 145.375 274.952 145.375Z" fill="white"/>
<path d="M274.953 269.298C274.953 264.353 270.832 260.345 265.75 260.345C261.271 260.345 257.54 263.456 256.717 267.579C260.715 269.537 269.873 273.166 274.52 272.02C274.802 271.162 274.953 270.246 274.953 269.298Z" fill="white"/>
<path d="M196.457 264.31C201.274 264.31 205.179 260.227 205.179 255.192C205.179 250.156 201.274 246.073 196.457 246.073C191.64 246.073 187.735 250.156 187.735 255.192C187.735 260.227 191.64 264.31 196.457 264.31Z" fill="white"/>
<path d="M203.592 208.807C208.409 208.807 212.314 204.724 212.314 199.689C212.314 194.653 208.409 190.57 203.592 190.57C198.775 190.57 194.87 194.653 194.87 199.689C194.87 204.724 198.775 208.807 203.592 208.807Z" fill="white"/>
<path d="M81.09 285.718C86.1259 285.718 90.2083 281.813 90.2083 276.996C90.2083 272.179 86.1259 268.274 81.09 268.274C76.0541 268.274 71.9717 272.179 71.9717 276.996C71.9717 281.813 76.0541 285.718 81.09 285.718Z" fill="white"/>
<path d="M90.208 207.159C90.208 212.01 93.9578 215.943 98.5834 215.943C100.841 215.943 102.974 215.288 104.48 213.764C102.939 210.672 99.1865 202.873 97.1764 198.499C93.2206 199.2 90.208 202.811 90.208 207.159Z" fill="white"/>
<path d="M125.931 285.636C126.42 290.522 130.797 294.088 135.707 293.602C136.728 293.501 137.693 293.232 138.575 292.826L133.104 276.203C128.75 277.163 125.477 281.107 125.931 285.636Z" fill="white"/>
<path d="M56.1406 376.107C51.3086 376.107 47.3916 379.953 47.3916 384.697C47.3916 385.285 47.4518 385.86 47.5666 386.415L64.8353 383.735C64.3483 379.444 60.6412 376.107 56.1406 376.107Z" fill="white"/>
<path d="M27.5705 338.841C32.3874 338.841 36.2923 334.936 36.2923 330.119C36.2923 325.302 32.3874 321.397 27.5705 321.397C22.7535 321.397 18.8486 325.302 18.8486 330.119C18.8486 334.936 22.7535 338.841 27.5705 338.841Z" fill="white"/>
<path d="M109.238 348.356C114.055 348.356 117.96 344.451 117.96 339.634C117.96 334.817 114.055 330.912 109.238 330.912C104.422 330.912 100.517 334.817 100.517 339.634C100.517 344.451 104.422 348.356 109.238 348.356Z" fill="white"/>
<path d="M142.539 365.007C147.356 365.007 151.261 361.102 151.261 356.285C151.261 351.468 147.356 347.563 142.539 347.563C137.722 347.563 133.817 351.468 133.817 356.285C133.817 361.102 137.722 365.007 142.539 365.007Z" fill="#587291"/>
<path d="M34.2203 250.83C39.3053 250.83 43.4275 246.988 43.4275 242.248C43.4275 239.181 41.7001 236.489 39.1023 234.972C39.1023 234.972 36.0307 239.437 34.2203 242.386C32.4594 245.254 29.9482 249.852 29.9482 249.852C31.225 250.477 32.6784 250.83 34.2203 250.83Z" fill="white"/>
<path d="M201.896 168.248C202.545 172.226 205.844 175 209.688 175C210.135 175 210.774 174.932 211.201 174.854C206.564 171.016 203.911 169.463 201.896 168.248Z" fill="white"/>
<path d="M153.854 192.156C158.553 192.156 162.362 188.251 162.362 183.434C162.362 178.617 158.553 174.712 153.854 174.712C150.72 174.712 147.981 176.451 146.504 179.038C148.546 181.574 151.813 187.481 153.854 192.156Z" fill="white"/>
<path d="M244.932 316.64C240.054 316.64 236.101 320.617 236.101 325.524C236.101 327.205 236.564 328.779 237.372 330.119C241.046 327.143 248.79 320.658 250.373 318.525C248.873 317.344 246.984 316.64 244.932 316.64Z" fill="white"/>
<path d="M228.172 272.635C228.172 277.671 232.111 281.753 236.972 281.753C239.423 281.753 241.64 280.714 243.237 279.038L239.154 263.8C238.455 263.614 237.725 263.517 236.972 263.517C232.111 263.517 228.172 267.599 228.172 272.635Z" fill="white"/>
<path d="M57.7013 334.267C55.8633 333.684 50.4685 334.168 43.593 340.76C36.7175 347.35 30.047 351.742 27.5713 353.114" stroke="#242938" stroke-width="2" stroke-linecap="round"/>
<path d="M56.114 339.634C55.3248 339.671 53.0275 340.955 50.1529 345.806C47.2784 350.656 44.4718 354.285 43.4277 355.492" stroke="#242938" stroke-width="2" stroke-linecap="round"/>
<path d="M113.202 343.599C112.853 342.868 110.679 341.22 104.772 340.472C98.8666 339.724 94.188 338.544 92.5869 338.048" stroke="#242938" stroke-width="2" stroke-linecap="round"/>
<path d="M66.4902 224.665C65.4982 231.345 75.4124 243.868 79.42 256.839C82.2227 265.912 80.9063 273.222 86.2433 284.925" stroke="#242938" stroke-width="2" stroke-linecap="round"/>
<path d="M178.219 165.198C188.367 168.006 200.776 194.793 206.008 207.755C211.239 220.718 236.153 236.696 233.528 249.245" stroke="#242938" stroke-width="2" stroke-linecap="round"/>
<path d="M262.267 211.185C264.875 211.5 271.438 213.058 276.822 216.769C283.553 221.41 285.472 225.22 286.846 225.457" stroke="#242938" stroke-width="2" stroke-linecap="round"/>
<path d="M115.33 349.432L102.101 379.369L119.833 382.37C132.521 383.299 159.843 385.085 167.611 384.799C175.379 384.513 175.585 381.059 174.718 379.369C176.172 379.369 179.531 379.126 181.332 378.154C185.048 376.325 183.865 373.391 182.81 372.152C183.607 372.152 186.61 372.224 188.228 368.651C189.859 365.05 184.404 363.531 181.332 363.364C182.223 362.245 183.232 359.735 180.136 358.649C176.266 357.291 157.901 355.505 157.901 354.29C157.281 351.032 152.716 349.693 150.512 349.432C141.81 347.621 128.347 348.431 115.33 349.432Z" fill="#D58B8B"/>
<path d="M155.224 353.907C151.308 353.541 147.031 353.019 143.331 353.129" stroke="#242938" stroke-width="2" stroke-linecap="round"/>
<path d="M100.582 163.952C100.63 167.579 100.525 175.577 99.7236 178.555M107.022 165.67C107.308 169.726 107.709 178.183 107.022 179.557M114.177 166.816C114.415 171.015 115.093 179.901 115.894 181.848M121.046 166.816C121.283 169.583 121.962 175.463 122.763 176.837M128.201 165.67C128.845 168.82 130.447 175.463 131.707 176.837M134.426 161.232C134.806 163.189 136.171 167.761 138.575 170.395" stroke="#242938" stroke-width="2" stroke-linecap="round"/>
<path d="M179.013 362.629C173.686 361.113 162.189 358.875 156.02 359.597" stroke="#242938" stroke-width="2" stroke-linecap="round"/>
<path d="M179.013 369.764C174.052 368.627 163.348 366.949 157.604 367.49" stroke="#242938" stroke-width="2" stroke-linecap="round"/>
<path d="M171.876 376.9C167.467 375.764 157.952 374.085 152.847 374.626" stroke="#242938" stroke-width="2" stroke-linecap="round"/>
<path fill-rule="evenodd" clip-rule="evenodd" d="M242.601 72.9016C229.644 71.8679 219.45 60.9926 219.45 47.729C219.45 33.7822 230.72 22.4761 244.623 22.4761C258.246 22.4761 269.343 33.3309 269.785 46.8888C270.665 51.4291 272.554 59.7756 275.27 64.3717C278.937 70.5737 284.934 77.6586 290.018 83.1972L279.419 93.8366C273.891 88.7424 266.789 82.7347 260.35 78.934C255.154 75.8675 245.279 73.5057 242.601 72.9016Z" fill="#FEFEFE"/>
<path d="M283.674 84.8964C271.727 74.5373 248.369 52.2226 250.514 45.8376C253.195 37.8563 264.837 45.0606 266.53 50.923C268.223 56.7854 251.855 73.5249 246.211 71.4766C240.566 69.4283 233.581 56.2203 240.707 54.5252C246.408 53.1691 267.07 76.8916 279.582 88.2867" stroke="#242938" stroke-width="2" stroke-linecap="round"/>
<path d="M223.951 74.5368L213.978 85.1151M198.701 7.94292L213.978 21.5031L198.701 7.94292ZM243.896 0.275391V13.2676V0.275391ZM208.674 53.8771L191.699 57.4268L208.674 53.8771ZM273.885 25.6208L282.089 17.3853L273.885 25.6208Z" stroke="#242938" stroke-width="2" stroke-linecap="round"/>
<path d="M291.156 82.0857L277.984 95.1587L287.633 104.88L300.805 91.8074L291.156 82.0857Z" fill="#242938"/>
</svg>
