<svg width="318" height="317" viewBox="0 0 318 317" fill="none" xmlns="http://www.w3.org/2000/svg">
<path d="M258.423 269.065C253.551 266.173 247.548 266.438 241.922 266.775C228.905 267.595 215.888 268.414 202.871 269.233L132.066 267.571C123.45 264.149 114.058 263.474 104.901 263.932C99.2285 264.221 85.0109 263.233 83.7398 271.137C83.4102 273.161 83.9987 275.233 84.799 277.113C90.778 291.354 104.454 294.27 118.036 295.74C126.628 296.655 135.22 296.896 143.882 296.607C161.678 295.981 179.356 293.402 197.08 291.884C200.611 291.595 204.119 291.33 207.65 291.113C224.551 290.125 241.993 288.969 257.129 281.209C259.483 280.005 262.025 278.27 262.401 275.595C262.778 272.896 260.707 270.438 258.423 269.065Z" fill="white"/>
<path d="M125.993 269.474C117.378 266.052 107.986 265.378 98.8292 265.836C93.1562 266.125 78.9386 265.137 77.6675 273.041C77.338 275.065 77.9264 277.137 78.7268 279.017C84.7057 293.258 98.3819 296.173 111.964 297.643C120.556 298.559 129.148 298.8 137.81 298.511C155.605 297.884 173.283 295.306 191.008 293.788C194.539 293.499 198.046 293.234 201.577 293.017C218.478 292.029 235.921 290.872 251.056 283.113C253.41 281.908 255.953 280.173 256.329 277.498C256.706 274.8 254.634 272.342 252.351 270.968C247.478 268.077 241.476 268.342 235.85 268.679C222.833 269.498 209.816 270.318 196.799 271.137" stroke="#242938" stroke-width="2" stroke-linecap="round"/>
<path d="M108.15 309.836C108.479 311.885 109.374 313.909 110.998 315.138C111.681 315.644 112.434 316.005 113.234 316.27C114.199 316.583 115.211 316.752 116.224 316.921C116.647 316.993 117.095 317.065 117.495 316.897C117.871 316.728 118.13 316.391 118.366 316.053C121.779 311.113 122.038 304.607 116.012 302.077C109.868 299.499 107.208 303.836 108.15 309.836Z" fill="#242938"/>
<path d="M129.477 314.583C132.796 316.68 137.104 316.029 139.834 313.21C140.211 312.824 140.564 312.367 140.705 311.836C140.87 311.186 140.729 310.511 140.54 309.86C138.94 304.607 134.185 300.656 128.865 303.427C122.933 306.487 124.416 311.379 129.477 314.583Z" fill="#242938"/>
<path d="M196.751 304.945C197.505 309.716 203.13 314.078 207.462 310.656C211.793 307.21 209.109 299.089 204.59 297.186C198.47 294.607 195.81 298.945 196.751 304.945Z" fill="#242938"/>
<path d="M212.594 303.354C212.98 305.836 214.876 308.429 217.638 308.429C223.931 308.429 224.625 299.44 218.949 297.065C213.982 294.945 211.817 298.463 212.594 303.354Z" fill="#242938"/>
<path d="M131.383 136.846L135.22 34.7476H254.375V132.653L131.383 136.846Z" stroke="#242938" stroke-width="2"/>
<path d="M247.783 97.2787H200.799" stroke="#242938" stroke-width="2" stroke-linecap="round"/>
<path d="M225.068 67.7603H178.061" stroke="#242938" stroke-width="2" stroke-linecap="round"/>
<path d="M247.783 91.3027H229.658" stroke="#242938" stroke-width="2" stroke-linecap="round"/>
<path d="M51.4922 129.713H98.4997" stroke="#242938" stroke-width="2" stroke-linecap="round"/>
<path d="M51.4922 123.737H69.6173" stroke="#242938" stroke-width="2" stroke-linecap="round"/>
<path d="M255.01 34.1211H134.631V54.6515H254.986V34.1211H255.01Z" fill="#242938"/>
<path d="M144.118 49.6153C146.943 49.6153 149.249 47.2779 149.249 44.3622C149.249 41.4706 146.966 39.1091 144.118 39.1091C141.293 39.1091 138.986 41.4465 138.986 44.3622C138.986 47.2779 141.293 49.6153 144.118 49.6153Z" fill="white"/>
<path d="M157.44 49.6153C160.265 49.6153 162.572 47.2779 162.572 44.3622C162.572 41.4706 160.288 39.1091 157.44 39.1091C154.615 39.1091 152.309 41.4465 152.309 44.3622C152.309 47.2779 154.592 49.6153 157.44 49.6153Z" fill="white"/>
<path d="M170.741 49.6153C173.566 49.6153 175.872 47.2779 175.872 44.3622C175.872 41.4706 173.589 39.1091 170.741 39.1091C167.916 39.1091 165.609 41.4465 165.609 44.3622C165.633 47.2779 167.916 49.6153 170.741 49.6153Z" fill="white"/>
<path d="M42.4766 158.557L45.6073 106.749H143.577V156.412L42.4766 158.557Z" stroke="#242938" stroke-width="2"/>
<path d="M144.188 106.146H45.0176V116.677H144.188V106.146Z" fill="#242938"/>
<path d="M51.4909 114.098C53.068 114.098 54.3627 112.893 54.3627 111.424C54.3627 109.954 53.068 108.749 51.4909 108.749C49.9138 108.749 48.6191 109.954 48.6191 111.424C48.6191 112.893 49.8903 114.098 51.4909 114.098Z" fill="white"/>
<path d="M59.0243 114.098C60.625 114.098 61.9432 112.893 61.9432 111.424C61.9432 109.954 60.625 108.749 59.0243 108.749C57.4237 108.749 56.1055 109.954 56.1055 111.424C56.1055 112.893 57.4001 114.098 59.0243 114.098Z" fill="white"/>
<path d="M66.5339 114.098C68.111 114.098 69.4056 112.893 69.4056 111.424C69.4056 109.954 68.111 108.749 66.5339 108.749C64.9568 108.749 63.6621 109.954 63.6621 111.424C63.6621 112.893 64.9568 114.098 66.5339 114.098Z" fill="white"/>
<path d="M116.012 10.964L92.6609 2.26501L88.4238 14.1688L111.775 22.8678L116.012 10.964Z" stroke="#242938" stroke-width="2"/>
<path d="M101.511 13.7834L92.5898 2.6748L115.894 11.1569L101.511 13.7834Z" fill="#242938"/>
<path d="M25.7623 62.6033L1.1875 66.3383L3.00001 78.8686L27.5748 75.1336L25.7623 62.6033Z" stroke="#242938" stroke-width="2"/>
<path d="M14.3231 72.3977L1 66.7109L25.8337 63L14.3231 72.3977Z" fill="#242938"/>
<path d="M28.9173 5.95187L15.5471 2L13.6875 8.65071L27.0577 12.5785L28.9173 5.95187Z" stroke="#242938" stroke-width="2"/>
<path d="M20.9373 8.02431L16.4648 2.72302L27.8813 5.97609L20.9373 8.02431Z" stroke="#242938" stroke-width="2" stroke-linejoin="round"/>
<path d="M245.925 196.702L213.229 187.087L208.521 203.907L241.217 213.522L245.925 196.702Z" stroke="#242938" stroke-width="2"/>
<path d="M250.586 191.883L238.369 177.521L268.993 186.798L250.586 191.883Z" stroke="#242938" stroke-width="2"/>
<path d="M85.1283 56.4347C83.3629 52.6274 82.2566 54.2419 81.927 55.5913C81.4798 57.3745 81.315 61.23 81.1738 63.3987L83.5277 67.8325L65.8027 77.5194L78.3726 94.1221C84.2103 94.1221 91.2249 86.7967 92.5667 81.4231C92.4961 81.6881 90.354 78.0977 89.5772 76.8206C88.6356 75.2543 86.8938 60.242 85.1283 56.4347Z" fill="#D58B8B"/>
<path d="M189.971 257.161L179.52 223.931L159.465 228.63L163.82 245.353C164.902 246.654 170.528 251.618 175.354 255.594C180.179 259.594 186.935 258.39 189.971 257.161Z" fill="#D58B8B"/>
<path d="M297.027 192.196L268.403 177.593L255.928 194.34L278.007 207.497C279.655 207.786 284.787 204.34 289.306 203.714C294.673 203.352 295.45 195.111 297.027 192.196Z" fill="#D58B8B"/>
<path d="M154.403 214.582L142.492 183.28L148.895 129.713L191.218 105.399L227.727 151.376L263.718 168.533L265.625 167.497C267.014 166.726 269.415 165.424 270.262 167.039C271.11 168.653 274.617 171.015 276.689 173.907C278.783 176.798 278.595 178.34 276.947 179.834C275.3 181.328 258.234 199.232 256.68 200.268C255.127 201.305 253.22 201.521 252.302 200.341C251.408 199.16 247.994 196.75 246.723 195.786C245.711 195.015 245.758 193.449 245.899 192.774L246.205 190.582L203.694 174.75L188.158 151.906L177.377 183.473L185.828 211.184C187.593 210.22 190.229 215.184 189.264 217.739C188.299 220.293 190.865 224.582 189.806 227.546C188.958 229.907 186.722 230.028 185.686 229.787C174.858 230.076 152.896 230.51 151.555 229.907C149.883 229.16 149.836 219.739 151.06 216.389C152.026 213.739 153.697 214.076 154.403 214.582Z" fill="#242938"/>
<path d="M159.322 215.883C162.406 216.317 169.609 216.943 173.846 215.907C178.083 214.871 182.132 213.425 183.615 212.823" stroke="white" stroke-width="2" stroke-linecap="round"/>
<path d="M258.023 171.087L225.892 157.352M179.92 209.955L171.823 186.533L177.826 168.485M171.611 211.642L166.386 194.437M162.101 211.329L154.898 190.196L157.747 174.436M245.689 184.726L215.394 171.28M253.127 178.388L230.553 169.81" stroke="white" stroke-width="2" stroke-linecap="round"/>
<path d="M248.348 188.943C250.89 187.136 256.61 182.581 259.034 178.87C261.459 175.16 263.46 171.304 264.166 169.81" stroke="white" stroke-width="2" stroke-linecap="round"/>
<path d="M178.507 256.992C183.239 259.113 187.97 257.86 189.735 256.968L192.136 264.775C193.549 267.86 195.785 274.559 193.549 276.583L132.112 275.523C129.876 272.896 132.63 261.04 134.466 259.04C136.278 257.04 143.481 256.896 146.941 256.269C149.696 255.763 157.087 252.655 160.429 251.161C157.887 248.317 153.156 242.341 154.521 241.281C156.216 239.956 165.702 246.462 166.714 247.426C167.726 248.39 172.599 254.342 178.507 256.992Z" stroke="#242938" stroke-width="2"/>
<path d="M131.736 268.342C133.196 269.522 136.727 271.811 139.269 271.595C146.189 271.04 159.889 274.462 165.374 270.944C168.528 268.727 179.827 272.92 183.052 272.293C186.3 271.667 191.29 270.703 193.385 268.101" stroke="#242938" stroke-width="2"/>
<path d="M132.889 264.221C135.384 265.426 141.386 267.739 145.411 267.306C150.472 266.751 154.733 266.896 156.64 266.438C158.546 265.956 160.9 256.028 157.511 252.51" stroke="#242938" stroke-width="2"/>
<path d="M189.477 257.329C187.617 258.028 182.839 259.884 181.827 261.787C180.815 263.691 180.697 269.739 181.191 272.293" stroke="#242938" stroke-width="2"/>
<path d="M292.036 200.967C296.061 197.642 297.167 192.774 297.214 190.774L305.1 192.22C308.419 192.365 315.269 193.425 315.998 196.413L292.907 254.799C289.611 255.595 274.334 244.51 273.463 241.932C272.592 239.353 275.794 232.751 276.829 229.329C277.653 226.582 278.383 218.437 278.642 214.726C274.993 215.714 267.649 217.232 267.343 215.522C266.99 213.377 276.994 207.762 278.289 207.28C279.583 206.774 286.998 205.112 292.036 200.967Z" stroke="#242938" stroke-width="2"/>
<path d="M280.221 248.678C281.916 247.907 285.541 245.763 286.529 243.353C287.777 240.341 294.085 232.967 295.427 231.353C296.769 229.763 298.605 226.871 298.04 219.353C297.569 215.473 306.443 207.16 307.385 203.931C308.326 200.702 309.833 195.714 308.538 192.629" stroke="#242938" stroke-width="2"/>
<path d="M277.184 245.715C279.373 244.004 284.151 239.642 285.658 235.763C287.517 230.919 289.636 227.112 290.107 225.16C290.577 223.208 283.045 216.485 278.431 217.907" stroke="#242938" stroke-width="2"/>
<path d="M297.403 191.184C297.144 193.184 296.556 198.389 297.733 200.172C298.91 201.979 304.112 204.871 306.56 205.593" stroke="#242938" stroke-width="2"/>
<path d="M183.498 134.918C185.263 135.014 191.266 135.882 194.067 136.315C196.35 139.665 203.836 149.858 205.554 154.87C201.176 156.991 188.347 162.075 185.923 162.485C182.886 163.015 178.672 161.448 176.036 160.701C173.941 160.123 173.753 158.268 173.918 157.424C171.893 156.147 171.917 154.557 172.199 153.906C168.151 153.545 166.95 152.027 166.832 151.328C166.597 151.376 165.844 151.376 164.879 151.063C163.655 150.677 163.419 148.388 164.314 147.617C165.208 146.846 165.844 147.111 170.858 145.713C174.859 144.605 177.307 143.039 178.013 142.388C178.625 141.183 179.59 137.279 180.226 135.328C180.626 135.087 181.733 134.822 183.498 134.918Z" fill="#D58B8B"/>
<path d="M178.768 142.05C179.639 141.641 181.686 140.629 182.816 140.002" stroke="#242938" stroke-width="2" stroke-linecap="round"/>
<path d="M167.256 151.231C171.069 151.111 174.082 151.28 179.096 148.966" stroke="#242938" stroke-width="2" stroke-linecap="round"/>
<path d="M175.025 157.786C176.226 157.93 179.239 158.027 181.781 157.328L175.025 157.786ZM172.812 153.978C174.46 154.123 177.991 153.761 179.992 152.749L172.812 153.978Z" stroke="#242938" stroke-width="2" stroke-linecap="round"/>
<path d="M148.166 66.1937C151.602 65.4467 164.784 69.2299 170.951 71.0612C173.117 71.0612 179.261 70.6998 187.123 71.7359C196.962 73.0372 205.248 81.1819 207.296 82.8927C209.344 84.6036 216.193 94.8447 221.584 97.6641C230.482 101.64 238.697 113.231 244.417 118.725C250.16 124.219 247.03 135.665 244.417 138.484C241.804 141.303 226.81 147.038 220.101 149.328C213.392 151.641 211.203 156.725 206.236 155.785C201.27 154.846 192.301 143.255 191.171 141.159C190.042 139.062 190.606 128.267 195.055 129.375C198.61 130.267 203.341 128.002 205.248 126.749C203.435 126.749 200.305 119.279 198.939 115.544C199.622 118.628 200.446 124.821 198.233 124.821C195.408 124.652 171.964 129.52 158.852 131.11C155.274 131.689 144.352 130.773 143.293 129.375C142.234 128.002 142.846 114.122 143.293 107.351C142.681 109.761 140.115 115.423 134.795 118.725C128.134 122.869 126.039 129.375 120.672 131.086C115.305 132.821 112.88 129.351 109.208 126.725C105.513 124.098 96.0029 122.315 92.6604 116.243C89.3414 110.17 79.2902 98.0496 78.2309 94.7966C77.1481 91.5435 89.5532 74.8685 91.3893 78.2903C92.8722 81.0132 107.843 88.941 115.14 92.5556C118.718 92.7242 127.004 91.0375 131.429 82.8686C136.937 72.6998 143.858 67.1334 148.166 66.1937Z" fill="#587291"/>
<path d="M168.834 72.2662C169.846 73.8566 173.095 76.5796 177.991 74.7723" stroke="#242938" stroke-width="2" stroke-linecap="round"/>
<path d="M170.27 75.423C170.787 75.8085 172.247 76.5796 173.753 76.5796" stroke="#242938" stroke-width="2" stroke-linecap="round"/>
<path d="M194.962 79.3507C196.139 82.9411 198.987 85.5677 198.352 93.3992C197.693 101.231 198.352 104.46 198.352 109.689M154.757 68.3385C151.674 70.4108 145.601 77.0615 145.86 87.2063C145.012 88.387 143.459 91.3027 144.118 93.3992M143.294 105.978C142.211 104.363 144 99.8571 144.118 98.2185" stroke="#242938" stroke-width="2" stroke-linecap="round" stroke-linejoin="round"/>
<path d="M206.002 126.363C207.273 124.918 210.969 121.592 215.418 119.905C220.996 117.809 224.08 118.291 224.786 117.544" stroke="#242938" stroke-width="2" stroke-linecap="round"/>
<path d="M114.012 94.3871C113.235 94.604 111.399 96.0016 110.316 99.8812C109.257 103.785 107.798 106.845 107.186 107.905" stroke="#242938" stroke-width="2" stroke-linecap="round"/>
<path d="M114.529 96.6279C114.247 96.8207 113.729 97.8328 113.8 100.315C113.87 102.797 113.682 104.797 113.588 105.496" stroke="#242938" stroke-width="2" stroke-linecap="round"/>
<path d="M228.952 116.219C228.834 115.906 227.963 115.159 225.586 114.749C223.185 114.315 221.302 113.737 220.666 113.496" stroke="#242938" stroke-width="2" stroke-linecap="round"/>
<path d="M151.18 120.074L157.418 122.749" stroke="#242938" stroke-width="2" stroke-linecap="round"/>
<path d="M187.006 83.3267L190.49 89.2545" stroke="#242938" stroke-width="2" stroke-linecap="round"/>
<path d="M227.211 135.906L230.695 141.834" stroke="#242938" stroke-width="2" stroke-linecap="round"/>
<path d="M220.785 121.785L227.094 124.291" stroke="#242938" stroke-width="2" stroke-linecap="round"/>
<path d="M205.271 116.411L211.439 113.568" stroke="#242938" stroke-width="2" stroke-linecap="round"/>
<path d="M203.082 92.8208L209.767 93.857" stroke="#242938" stroke-width="2" stroke-linecap="round"/>
<path d="M218.241 99.11L215.723 105.544" stroke="#242938" stroke-width="2" stroke-linecap="round"/>
<path d="M124.651 118.098L122.133 124.532" stroke="#242938" stroke-width="2" stroke-linecap="round"/>
<path d="M131.523 105.086L135.549 110.652" stroke="#242938" stroke-width="2" stroke-linecap="round"/>
<path d="M129.053 93.3992L124.416 98.4595" stroke="#242938" stroke-width="2" stroke-linecap="round"/>
<path d="M100.358 107.086L95.7207 112.122" stroke="#242938" stroke-width="2" stroke-linecap="round"/>
<path d="M103.865 92.4592L97.1562 91.5194" stroke="#242938" stroke-width="2" stroke-linecap="round"/>
<path d="M139.315 78.9891L139.15 85.929" stroke="#242938" stroke-width="2" stroke-linecap="round"/>
<path d="M85.247 90.6281L85.082 97.5679" stroke="#242938" stroke-width="2" stroke-linecap="round"/>
<path d="M208.332 141.303L213.158 136.436" stroke="#242938" stroke-width="2" stroke-linecap="round"/>
<path d="M159.111 111.086L163.937 106.219" stroke="#242938" stroke-width="2" stroke-linecap="round"/>
<path d="M176.414 122.725L181.24 117.857" stroke="#242938" stroke-width="2" stroke-linecap="round"/>
<path d="M148.896 90.0737L154.899 93.2786" stroke="#242938" stroke-width="2" stroke-linecap="round"/>
<path d="M186.77 103.929L192.772 107.134" stroke="#242938" stroke-width="2" stroke-linecap="round"/>
<path d="M171.822 89.2544L177.825 92.4593" stroke="#242938" stroke-width="2" stroke-linecap="round"/>
<path d="M161.207 72.0977L161.608 79.0134" stroke="#242938" stroke-width="2" stroke-linecap="round"/>
<path d="M163.725 57.0853C165.538 57.0853 166.997 55.5913 166.997 53.7358C166.997 51.8804 165.538 50.3864 163.725 50.3864C161.913 50.3864 160.453 51.8804 160.453 53.7358C160.453 55.5913 161.913 57.0853 163.725 57.0853Z" fill="#242938"/>
<path d="M163.725 63.254C165.538 63.254 166.997 61.76 166.997 59.9045C166.997 58.0491 165.538 56.5551 163.725 56.5551C161.913 56.5551 160.453 58.0491 160.453 59.9045C160.453 61.76 161.913 63.254 163.725 63.254Z" fill="#242938"/>
<path d="M160.454 59.9046C162.266 59.9046 163.726 58.4106 163.726 56.5551C163.726 54.6997 162.266 53.2057 160.454 53.2057C158.641 53.2057 157.182 54.6997 157.182 56.5551C157.182 58.4106 158.641 59.9046 160.454 59.9046Z" fill="#242938"/>
<path d="M189.431 56.0732C189.431 63.8083 183.31 70.0735 175.754 70.0735C163.067 71.3265 162.078 63.8083 162.078 56.0732C162.078 48.3382 168.198 42.073 175.754 42.073C183.31 42.0971 189.431 48.3623 189.431 56.0732Z" fill="#3D98E7"/>
<path d="M175.754 42.0972C170.364 42.0972 165.679 45.302 163.467 49.9527L189.289 54.1456C188.371 47.3262 182.651 42.0972 175.754 42.0972Z" fill="#587291"/>
<path d="M188.749 54.0249L153.275 49.0128" stroke="#242938" stroke-width="2" stroke-linecap="round"/>
<path d="M182.25 71.2783L181.991 67.1336L169.351 66.5553L168.645 70.4349C171.916 77.3507 180.932 73.8084 182.25 71.2783Z" fill="#3D98E7"/>
<path d="M188.607 59.9046C190.537 59.9046 192.091 58.2901 192.091 56.2901C192.091 54.29 190.537 52.6755 188.607 52.6755C186.677 52.6755 185.123 54.29 185.123 56.2901C185.123 58.2901 186.677 59.9046 188.607 59.9046Z" fill="#242938"/>
<path d="M192.137 59.9046C193.125 59.9046 193.926 59.0612 193.926 58.0251C193.926 56.9889 193.125 56.1455 192.137 56.1455C191.148 56.1455 190.348 56.9889 190.348 58.0251C190.348 59.0612 191.148 59.9046 192.137 59.9046Z" fill="#242938"/>
<path d="M193.525 61.2058C193.525 63.5432 191.689 65.7842 189.382 66.1215C186.252 66.6035 183.592 63.3745 183.592 61.0371C183.592 58.6997 187.076 56.9407 189.382 56.9407C191.666 56.9648 193.525 58.8684 193.525 61.2058Z" fill="#242938"/>
<path d="M163.703 54.0249C165.61 54.2899 167.352 52.8923 167.611 50.8923L160.714 49.9525C160.455 51.9525 161.796 53.7598 163.703 54.0249Z" fill="#242938"/>
<path d="M168.175 53.543C169.164 53.6153 170.035 52.8442 170.105 51.808L166.527 51.543C166.433 52.555 167.187 53.4707 168.175 53.543Z" fill="#242938"/>
<path d="M184.652 61.9046C186.018 62.3625 187.595 61.3504 188.136 59.6395C188.678 57.9287 188.019 56.1696 186.63 55.7117C185.264 55.2539 183.687 56.266 183.146 57.9768C182.605 59.6877 183.264 61.4468 184.652 61.9046Z" fill="#0E76D0"/>
<path d="M183.852 58.7961C184.322 58.0009 185.593 57.0611 186.77 57.278" stroke="#242938" stroke-width="2" stroke-linecap="round"/>
<path d="M186.018 57.3986C186.159 57.6154 186.442 58.3383 186.489 58.8203" stroke="#242938" stroke-width="2" stroke-linecap="round"/>
<path d="M169.658 62.218L172.601 57.7842L173.448 62.8927L169.658 62.218Z" fill="#0E76D0"/>
<path d="M172.269 58.0973L169.609 61.9528L173.164 62.507" stroke="#242938" stroke-width="2" stroke-linecap="round"/>
<path d="M171.752 65.2058C172.223 65.2299 173.376 65.1335 174.318 64.6757" stroke="#242938" stroke-width="2" stroke-linecap="round"/>
<path d="M175.496 54.1455C175.967 54.1214 177.12 54.2178 178.062 54.6756" stroke="#242938" stroke-width="2" stroke-linecap="round"/>
<path d="M168.222 54.3624C167.751 54.3383 166.598 54.4347 165.656 54.8925" stroke="#242938" stroke-width="2" stroke-linecap="round"/>
<path d="M172.529 69.6637C173.659 69.8805 175.66 70.0251 177.19 68.7239" stroke="#242938" stroke-width="2" stroke-linecap="round"/>
<path d="M167.775 58.3382C168.246 58.3382 168.646 57.9286 168.646 57.4466C168.646 56.9647 168.246 56.5551 167.775 56.5551C167.304 56.5551 166.904 56.9647 166.904 57.4466C166.904 57.9286 167.281 58.3382 167.775 58.3382Z" fill="#242938"/>
<path d="M176.367 58.3382C176.838 58.3382 177.238 57.9286 177.238 57.4466C177.238 56.9647 176.838 56.5551 176.367 56.5551C175.896 56.5551 175.496 56.9647 175.496 57.4466C175.496 57.9286 175.896 58.3382 176.367 58.3382Z" fill="#242938"/>
<path d="M177.543 63.3505C178.508 63.3505 179.285 62.5553 179.285 61.5673C179.285 60.5794 178.508 59.7842 177.543 59.7842C176.578 59.7842 175.801 60.5794 175.801 61.5673C175.801 62.5553 176.578 63.3505 177.543 63.3505Z" fill="#0E76D0"/>
<path d="M166.386 62.4107C167.352 62.4107 168.128 61.6155 168.128 60.6275C168.128 59.6396 167.352 58.8444 166.386 58.8444C165.421 58.8444 164.645 59.6396 164.645 60.6275C164.645 61.6155 165.421 62.4107 166.386 62.4107Z" fill="#0E76D0"/>
<path d="M60.9314 82.6038L40.6172 39.3742L64.5329 26.1932L86.7067 68.3867L60.9314 82.6038Z" fill="white"/>
<path d="M57.7517 81.9532L37.4375 38.7235L61.3532 25.5426L83.527 67.7361L57.7517 81.9532Z" stroke="#242938" stroke-width="2"/>
<path d="M46.4062 39.0367L44.1465 34.5788L53.9152 29.1812L56.0573 33.3258L46.4062 39.0367Z" fill="#242938"/>
<path d="M68.7453 51.037C59.3297 46.4586 54.6689 54.0973 53.5391 58.4829C55.8224 59.4468 60.8362 61.0131 64.1081 58.9167C67.4036 56.7961 68.6982 52.7238 68.7453 51.037Z" fill="#F6F6F7"/>
<path d="M62.2948 58.6758C64.4369 58.3143 65.8963 56.242 65.5432 54.0492C65.1901 51.8564 63.1658 50.3624 61.0237 50.7239C58.8817 51.0853 57.4223 53.1576 57.7753 55.3504C58.1284 57.5432 60.1528 59.0372 62.2948 58.6758Z" fill="#242938"/>
<path d="M53.4223 57.1093L50.5977 56.0731" stroke="#242938" stroke-width="2" stroke-linecap="round"/>
<path d="M54.8334 54.049L52.2441 52.5068" stroke="#242938" stroke-width="2" stroke-linecap="round"/>
<path d="M57.517 51.1334L55.3984 48.9406" stroke="#242938" stroke-width="2" stroke-linecap="round"/>
<path d="M61.0015 49.3262L60.2012 46.3623" stroke="#242938" stroke-width="2" stroke-linecap="round"/>
<path d="M65.4961 49.1574L65.8967 46.1212" stroke="#242938" stroke-width="2" stroke-linecap="round"/>
<path d="M68.6035 50.1935L69.8276 47.3983" stroke="#242938" stroke-width="2" stroke-linecap="round"/>
<path d="M163.725 57.0853C165.538 57.0853 166.997 55.5913 166.997 53.7358C166.997 51.8804 165.538 50.3864 163.725 50.3864C161.913 50.3864 160.453 51.8804 160.453 53.7358C160.453 55.5913 161.913 57.0853 163.725 57.0853Z" fill="#242938"/>
<path d="M163.725 63.254C165.538 63.254 166.997 61.76 166.997 59.9045C166.997 58.0491 165.538 56.5551 163.725 56.5551C161.913 56.5551 160.453 58.0491 160.453 59.9045C160.453 61.76 161.913 63.254 163.725 63.254Z" fill="#242938"/>
<path d="M160.454 59.9046C162.266 59.9046 163.726 58.4106 163.726 56.5551C163.726 54.6997 162.266 53.2057 160.454 53.2057C158.641 53.2057 157.182 54.6997 157.182 56.5551C157.182 58.4106 158.641 59.9046 160.454 59.9046Z" fill="#242938"/>
<path d="M189.431 56.0732C189.431 63.8083 183.31 70.0735 175.754 70.0735C163.067 71.3265 162.078 63.8083 162.078 56.0732C162.078 48.3382 168.198 42.073 175.754 42.073C183.31 42.0971 189.431 48.3623 189.431 56.0732Z" fill="#D58B8B"/>
<path d="M175.754 42.0972C170.364 42.0972 165.679 45.302 163.467 49.9527L189.289 54.1456C188.371 47.3262 182.651 42.0972 175.754 42.0972Z" fill="#587291"/>
<path d="M188.749 54.0249L153.275 49.0128" stroke="#242938" stroke-width="2" stroke-linecap="round"/>
<path d="M182.25 71.2783L181.991 67.1336L169.351 66.5553L168.645 70.4349C171.916 77.3507 180.932 73.8084 182.25 71.2783Z" fill="#D58B8B"/>
<path d="M188.607 59.9046C190.537 59.9046 192.091 58.2901 192.091 56.2901C192.091 54.29 190.537 52.6755 188.607 52.6755C186.677 52.6755 185.123 54.29 185.123 56.2901C185.123 58.2901 186.677 59.9046 188.607 59.9046Z" fill="#242938"/>
<path d="M192.137 59.9046C193.125 59.9046 193.926 59.0612 193.926 58.0251C193.926 56.9889 193.125 56.1455 192.137 56.1455C191.148 56.1455 190.348 56.9889 190.348 58.0251C190.348 59.0612 191.148 59.9046 192.137 59.9046Z" fill="#242938"/>
<path d="M193.525 61.2058C193.525 63.5432 191.689 65.7842 189.382 66.1215C186.252 66.6035 183.592 63.3745 183.592 61.0371C183.592 58.6997 187.076 56.9407 189.382 56.9407C191.666 56.9648 193.525 58.8684 193.525 61.2058Z" fill="#242938"/>
<path d="M163.703 54.0249C165.61 54.2899 167.352 52.8923 167.611 50.8923L160.714 49.9525C160.455 51.9525 161.796 53.7598 163.703 54.0249Z" fill="#242938"/>
<path d="M168.175 53.543C169.164 53.6153 170.035 52.8442 170.105 51.808L166.527 51.543C166.433 52.555 167.187 53.4707 168.175 53.543Z" fill="#242938"/>
<path d="M184.652 61.9046C186.018 62.3625 187.595 61.3504 188.136 59.6395C188.678 57.9287 188.019 56.1696 186.63 55.7117C185.264 55.2539 183.687 56.266 183.146 57.9768C182.605 59.6877 183.264 61.4468 184.652 61.9046Z" fill="#AD5B5B"/>
<path d="M183.852 58.7961C184.322 58.0009 185.593 57.0611 186.77 57.278" stroke="#242938" stroke-width="2" stroke-linecap="round"/>
<path d="M186.018 57.3986C186.159 57.6154 186.442 58.3383 186.489 58.8203" stroke="#242938" stroke-width="2" stroke-linecap="round"/>
<path d="M169.658 62.218L172.601 57.7842L173.448 62.8927L169.658 62.218Z" fill="#AD5B5B"/>
<path d="M172.269 58.0973L169.609 61.9528L173.164 62.507" stroke="#242938" stroke-width="2" stroke-linecap="round"/>
<path d="M171.752 65.2058C172.223 65.2299 173.376 65.1335 174.318 64.6757" stroke="#242938" stroke-width="2" stroke-linecap="round"/>
<path d="M175.496 54.1455C175.967 54.1214 177.12 54.2178 178.062 54.6756" stroke="#242938" stroke-width="2" stroke-linecap="round"/>
<path d="M168.222 54.3624C167.751 54.3383 166.598 54.4347 165.656 54.8925" stroke="#242938" stroke-width="2" stroke-linecap="round"/>
<path d="M172.529 69.6637C173.659 69.8805 175.66 70.0251 177.19 68.7239" stroke="#242938" stroke-width="2" stroke-linecap="round"/>
<path d="M167.775 58.3382C168.246 58.3382 168.646 57.9286 168.646 57.4466C168.646 56.9647 168.246 56.5551 167.775 56.5551C167.304 56.5551 166.904 56.9647 166.904 57.4466C166.904 57.9286 167.281 58.3382 167.775 58.3382Z" fill="#242938"/>
<path d="M176.367 58.3382C176.838 58.3382 177.238 57.9286 177.238 57.4466C177.238 56.9647 176.838 56.5551 176.367 56.5551C175.896 56.5551 175.496 56.9647 175.496 57.4466C175.496 57.9286 175.896 58.3382 176.367 58.3382Z" fill="#242938"/>
<path d="M177.543 63.3505C178.508 63.3505 179.285 62.5553 179.285 61.5673C179.285 60.5794 178.508 59.7842 177.543 59.7842C176.578 59.7842 175.801 60.5794 175.801 61.5673C175.801 62.5553 176.578 63.3505 177.543 63.3505Z" fill="#AD5B5B"/>
<path d="M166.386 62.4107C167.352 62.4107 168.128 61.6155 168.128 60.6275C168.128 59.6396 167.352 58.8444 166.386 58.8444C165.421 58.8444 164.645 59.6396 164.645 60.6275C164.645 61.6155 165.421 62.4107 166.386 62.4107Z" fill="#AD5B5B"/>
</svg>
