<svg width="304" height="326" viewBox="0 0 304 326" fill="none" xmlns="http://www.w3.org/2000/svg">
<path d="M151.006 109.533H255.83V172.274H150.986V109.533H151.006Z" fill="white"/>
<path d="M180.436 146.622H167.077L142.738 145.796V44.4827H264.373L268.312 150.096L226.948 148.669" stroke="#242938" stroke-width="2"/>
<path d="M146.442 82.7356H197.869H146.442ZM146.442 75.8062H187.494H146.442Z" stroke="#242938" stroke-width="2" stroke-linecap="round"/>
<path d="M252.574 64.1255C249.141 64.1255 246.372 61.2336 246.372 57.6656C246.372 54.0975 249.141 51.2056 252.574 51.2056C256.006 51.2056 258.775 54.0975 258.775 57.6656C258.775 61.2336 255.987 64.1255 252.574 64.1255Z" fill="#242938"/>
<path d="M236.523 64.1255C233.071 64.1255 230.282 61.2336 230.282 57.6656C230.282 54.0975 233.071 51.2056 236.523 51.2056C239.975 51.2056 242.764 54.0975 242.764 57.6656C242.764 61.2336 239.955 64.1255 236.523 64.1255Z" fill="#242938"/>
<path d="M220.453 64.1255C217.02 64.1255 214.251 61.2336 214.251 57.6656C214.251 54.0975 217.02 51.2056 220.453 51.2056C223.885 51.2056 226.654 54.0788 226.654 57.6656C226.654 61.2523 223.885 64.1255 220.453 64.1255Z" fill="#242938"/>
<path d="M237.751 51.2808C237.361 50.0789 235.938 48.0696 233.87 49.2526C233.461 47.6376 231.959 44.8396 229.19 46.5297L230.36 40.3702C230.302 38.7927 229.697 36.6331 227.084 37.5721C226.518 37.7786 226.206 38.2106 225.992 38.511C225.172 39.6378 222.189 47.8818 220.726 51.9568C220.355 51.8629 220.004 51.3934 219.224 50.4357C218.249 49.2526 216.728 44.3325 215.558 43.7316C214.388 43.1307 213.432 44.0508 213.315 45.9287C213.198 47.8254 215.694 57.9661 215.772 61.1585C215.85 63.7125 215.499 67.3932 215.324 68.9143L231.199 75.6184C234.397 70.5668 240.93 59.8252 241.457 57.3464C242.12 54.2103 242.744 50.6798 237.751 51.2808Z" fill="#D58B8B"/>
<path d="M239.857 56.3699C239.077 57.8534 237.127 60.5013 235.625 59.3558C234.124 58.1915 235.957 54.2854 237.069 52.4639" stroke="#242938" stroke-width="2" stroke-linecap="round"/>
<path d="M231.434 51.9755C230.654 53.459 228.781 55.8627 227.28 54.7172C225.778 53.5529 227.611 49.6469 228.723 47.8253" stroke="#242938" stroke-width="2" stroke-linecap="round"/>
<path d="M232.565 50.0414L231.551 51.7691C230.654 53.1775 229.718 56.5202 231.551 57.1586C233.365 57.7783 235.861 54.2103 236.875 52.3512" stroke="#242938" stroke-width="2" stroke-linecap="round"/>
<path d="M127.935 81.9094C134.605 80.4446 154.653 81.3085 163.819 81.9094C175.735 81.9094 186.11 87.7497 188.743 89.9093C190.849 91.6369 201.654 94.6791 207.816 96.05C210.878 92.4632 213.023 76.5949 213.706 69.1209C220.044 65.6655 230.77 68.8767 235.354 70.9049C234.554 76.4259 232.565 90.097 231.102 100.538C229.249 113.59 226.07 124.162 217.158 125.326C210.04 126.247 189.055 120.632 179.46 117.702V125.326L107.809 167.598L110.169 134.115L89.6915 149.533C86.1226 151.486 77.5221 152.913 71.7105 143.073C64.4361 130.772 85.44 113.364 96.4198 99.4302C106.346 86.7544 119.588 83.731 127.935 81.9094Z" fill="#EC5B60"/>
<path d="M175.19 107.561C171.523 107.561 168.559 104.707 168.559 101.177C168.559 97.6462 171.523 94.7917 175.19 94.7917C178.856 94.7917 181.82 97.6462 181.82 101.177C181.82 104.688 178.856 107.561 175.19 107.561Z" fill="white"/>
<path d="M214.096 123.223C210.429 123.223 207.465 120.369 207.465 116.838C207.465 113.308 210.429 110.453 214.096 110.453C217.762 110.453 220.727 113.308 220.727 116.838C220.727 120.369 217.762 123.223 214.096 123.223Z" fill="white"/>
<path d="M220.727 77.0455C220.727 80.576 217.762 83.4304 214.096 83.4304C213.316 83.4304 212.555 83.2989 211.853 83.0548L213.53 70.6794C213.706 70.6606 213.901 70.6606 214.096 70.6606C217.762 70.6794 220.727 73.5338 220.727 77.0455Z" fill="white"/>
<path d="M144.727 147.918C141.06 147.918 138.096 145.063 138.096 141.533C138.096 138.002 141.06 135.148 144.727 135.148C148.393 135.148 151.357 138.002 151.357 141.533C151.357 145.063 148.374 147.918 144.727 147.918Z" fill="white"/>
<path d="M96.0099 140.875C92.3435 140.875 89.3791 138.021 89.3791 134.491C89.3791 130.96 92.3435 128.106 96.0099 128.106C99.6763 128.106 102.641 130.96 102.641 134.491C102.641 138.021 99.6568 140.875 96.0099 140.875Z" fill="white"/>
<path d="M83.4316 121.721C83.4316 125.251 80.4673 128.106 76.8009 128.106C75.6503 128.106 74.6947 127.524 73.739 127.035C74.5971 124.5 78.9266 119.899 81.0914 116.876C82.5345 118.04 83.4316 119.787 83.4316 121.721Z" fill="white"/>
<path d="M120.018 108.876C116.351 108.876 113.387 106.022 113.387 102.491C113.387 98.9606 116.351 96.1062 120.018 96.1062C123.684 96.1062 126.648 98.9606 126.648 102.491C126.648 106.022 123.684 108.876 120.018 108.876Z" fill="white"/>
<path d="M207.504 97.0639C207.114 98.1907 206.1 102.285 205.3 106.266L207.504 97.0639ZM177.002 96.1062C177.997 100.895 179.889 111.374 179.577 115.035L177.002 96.1062ZM181.937 104.069C181.937 106.679 181.937 112.219 181.937 113.477V104.069ZM105.332 109.214C97.4334 114.247 81.2076 124.613 79.4329 125.871L105.332 109.214ZM84.718 117.702C83.2358 119.186 79.9204 122.641 78.4773 124.632L84.718 117.702Z" stroke="#242938" stroke-width="2" stroke-linecap="round"/>
<path d="M181.858 118.453L107.925 166.734C107.925 166.734 105.097 208.499 105.389 209.626C104.746 214.47 106.969 216.987 107.925 217.7C128.812 218.189 159.352 218.865 160.6 217.7C164.832 213.738 197.186 176.668 197.186 176.668L211.638 195.353L231.53 181.025C231.881 179.072 232.661 174.941 233.031 174.096C233.5 173.063 234.319 170.077 235.781 169.42C236.951 168.894 237.985 173.645 238.356 176.086L247.6 169.42L216.494 125.289C216.494 125.289 215.421 125.27 214.153 125.176C213.256 125.101 212.262 125.007 211.286 124.838C209.668 124.538 207.25 123.749 207.25 123.749C199.683 111.355 187.162 115.054 181.858 118.453Z" fill="#242938"/>
<path d="M207.464 124.669L239.564 171.204" stroke="white" stroke-width="2" stroke-linecap="round"/>
<path d="M197.402 175.729L187.495 162.584C187.495 162.584 177.803 180.349 169.553 189.889C161.538 199.147 146.053 210.733 146.053 210.733" stroke="white" stroke-width="2" stroke-linecap="round"/>
<path d="M125.439 157.645C127.643 163.88 128.462 178.865 114.206 188.8" stroke="white" stroke-width="2" stroke-linecap="round"/>
<path d="M243.954 215.428C245.339 218.733 249.337 225.869 252.672 225.569L298.443 176.743C298.053 173.119 286.547 166.828 283.583 166.828C281.632 166.828 278.551 169.232 275.782 171.504" fill="#EC5B60"/>
<path d="M243.954 215.428C245.339 218.733 249.337 225.869 252.672 225.569L298.443 176.743C298.053 173.119 286.547 166.828 283.583 166.828C281.632 166.828 278.551 169.232 275.782 171.504" stroke="#242938" stroke-width="2"/>
<path d="M292.67 171.279C292.494 173.25 291.636 177.664 289.53 179.504C283.835 184.518 276.152 197.663 269.189 199.447C265.035 200.33 259.789 212.161 256.825 214.245C253.861 216.33 249.297 219.56 245.67 219.334" stroke="#242938" stroke-width="2"/>
<path d="M123.313 96.1626L108.296 108.087C114.362 113.195 116.877 116.575 119.861 123.411L135.19 113.308C136.828 113.439 140.436 113.383 141.684 111.975C142.932 110.585 141.138 108.782 140.085 108.05C141.996 105.646 139.831 103.355 138.642 102.735C138.72 99.6931 135.833 98.9231 134.254 98.679C132.713 91.6369 126.219 93.7213 123.313 96.1626Z" fill="#D58B8B"/>
<path d="M133.531 98.7354C132.342 98.4913 129.436 98.341 127.349 99.8246" stroke="#242938" stroke-width="2" stroke-linecap="round"/>
<path d="M137.959 102.81C136.769 102.566 133.864 102.416 131.777 103.9" stroke="#242938" stroke-width="2" stroke-linecap="round"/>
<path d="M139.051 107.918C137.861 107.674 134.955 107.524 132.869 109.007" stroke="#242938" stroke-width="2" stroke-linecap="round"/>
<path d="M137.92 110.904L135.482 113.007" stroke="#242938" stroke-width="2" stroke-linecap="round"/>
<path d="M143.263 50.0976C149.211 50.6047 151.864 52.3511 155.53 60.2383C157.402 64.2382 158.124 70.21 155.94 71.9752C154.575 73.0831 151.474 74.1536 148.314 74.8859C148.314 74.8859 148.314 79.5056 149.329 80.576C149.914 81.2145 151.396 81.5713 151.396 81.5713C151.396 81.5713 152.293 85.6275 148.314 87.9561C142.132 91.5617 131.035 81.9468 131.035 81.9468C132.479 81.5337 134.292 80.7262 134.565 79.806C134.819 78.9046 133.298 74.0597 132.498 71.7686C130.002 69.1959 128.598 65.6279 128.949 61.8157C129.573 54.7173 135.989 49.4779 143.263 50.0976Z" fill="#D58B8B"/>
<path d="M153.619 65.1396L150.46 61.7218L150.479 66.1349L153.619 65.1396Z" fill="#AD5B5B"/>
<path d="M150.792 61.9847L153.814 65.0833L150.675 66.0035" stroke="#242938" stroke-width="2" stroke-linecap="round"/>
<path d="M150.617 68.9894C151.182 69.4777 151.982 70.1349 153.015 69.5715C153.62 69.2335 154.088 68.257 154.186 67.7312" stroke="#242938" stroke-width="2"/>
<path d="M154.847 60.8017C154.359 61.1021 153.716 60.9519 153.423 60.4824C153.111 60.0129 153.267 59.3932 153.755 59.1116C154.242 58.8111 154.886 58.9613 155.178 59.4308C155.49 59.9003 155.334 60.52 154.847 60.8017Z" fill="#242938"/>
<path d="M147.671 63.5247C147.183 63.8252 146.54 63.6749 146.247 63.2054C145.935 62.736 146.091 62.1163 146.579 61.8346C147.066 61.5341 147.71 61.6843 148.003 62.1538C148.315 62.6233 148.159 63.243 147.671 63.5247Z" fill="#242938"/>
<path d="M146.832 59.1866C145.896 59.1866 144.687 59.5622 144.063 60.2195" stroke="#242938" stroke-width="2" stroke-linecap="round"/>
<path d="M152.274 57.2337C153.034 56.7078 154.244 56.3323 155.141 56.5013" stroke="#242938" stroke-width="2" stroke-linecap="round"/>
<path d="M147.379 67.2241C146.872 67.5246 146.228 67.3744 145.916 66.8861C145.604 66.3979 145.76 65.7782 146.267 65.4777C146.774 65.1772 147.418 65.3275 147.73 65.8157C148.042 66.2852 147.886 66.9237 147.379 67.2241Z" fill="#AD5B5B"/>
<path d="M156.037 63.919C155.53 64.2194 154.887 64.0692 154.574 63.5809C154.262 63.0927 154.418 62.473 154.926 62.1725C155.433 61.872 156.076 62.0223 156.388 62.5105C156.7 62.9988 156.544 63.6185 156.037 63.919Z" fill="#AD5B5B"/>
<path d="M141.04 57.4213C146.832 57.9096 150.869 55.7688 151.845 53.9848C152.508 52.6702 153.073 49.6468 150.089 47.9567C147.086 46.2666 144.648 47.9755 143.81 49.0271H141.957C141.859 45.1962 139.734 37.7221 132.05 38.586C124.366 39.4498 123.235 44.614 123.605 47.0741C121.831 46.7549 118.262 47.1117 118.262 51.0553C118.262 54.9989 120.641 55.9941 121.831 55.9941C120.875 57.2148 119.588 60.2006 122.182 62.4166C124.756 64.6325 127.72 63.3367 128.871 62.4166C128.715 66.0034 130.1 69.3272 132.459 71.7497C138.837 72.2943 139.129 68.0691 138.486 65.8719C138.095 64.7452 136.964 62.0973 135.56 60.5387C133.844 58.6232 136.574 57.0458 141.04 57.4213Z" fill="#242938"/>
<path d="M138.173 69.0645C136.964 69.7969 135.13 69.0645 134.097 67.4683C133.063 65.8533 133.219 63.9754 134.448 63.243C135.657 62.5106 137.49 63.243 138.524 64.8392C139.538 66.4542 139.401 68.3321 138.173 69.0645Z" fill="#AD5B5B"/>
<path d="M137.959 66.1538C137.51 65.4965 136.321 64.5388 135.541 64.3698" stroke="#242938" stroke-width="2" stroke-linecap="round"/>
<path d="M136.203 64.7452C135.93 65.0833 135.599 65.8156 135.638 66.2476" stroke="#242938" stroke-width="2" stroke-linecap="round"/>
<path d="M137.706 68.0128C140.865 68.0128 143.42 70.4729 143.42 73.5151C143.42 76.5573 140.865 79.0173 137.706 79.0173C134.546 79.0173 131.992 76.5573 131.992 73.5151C131.992 71.6372 132.967 69.9846 134.449 68.9893" stroke="#242938" stroke-width="2" stroke-linecap="round"/>
<path d="M202.901 11.9762C201.068 7.3566 195.958 0.389585 190.107 9.51619C189.912 6.71812 187.904 1.25342 181.526 1.81679C175.149 2.36138 172.848 10.0044 172.477 13.7415C171.385 12.5584 168.245 10.5678 164.501 11.9762C160.756 13.3847 160.873 16.0701 161.4 17.2344H217.566C215.226 14.4926 209.005 9.61009 202.901 11.9762Z" stroke="#242938" stroke-width="2"/>
<path d="M103.342 224.948C103.342 224.948 217.255 185.139 262.422 207.502C307.569 229.865 302.538 232.636 302.538 232.636C302.538 232.636 292.182 251.715 266.868 262.764C237.186 284.158 174.72 290.67 113.874 276.793" fill="white"/>
<path d="M118.221 268.746L137.31 269.08" stroke="#242938" stroke-width="2" stroke-linecap="round"/>
<path d="M117.551 263.389L157.291 262.046" stroke="#242938" stroke-width="2" stroke-linecap="round"/>
<path d="M262.423 207.429C262.423 207.429 239.235 234.602 266.889 262.094C266.889 262.094 288.107 253.869 302.539 232.292C302.539 232.292 294.563 222.471 262.423 207.429Z" fill="#242938"/>
<path d="M260.166 262.465C245.757 248.141 245.151 233.902 247.876 223.55" stroke="#242938" stroke-width="2" stroke-linecap="round"/>
<path d="M103.342 224.686C103.342 224.686 217.255 185.306 262.422 207.428C307.569 229.55 302.538 232.291 302.538 232.291C302.538 232.291 292.182 251.164 266.868 262.094C237.186 283.258 174.72 289.699 113.874 275.971" stroke="#242938" stroke-width="2" stroke-miterlimit="10"/>
<path d="M91.7783 236.727C91.7783 236.727 78.2828 226.736 64.1047 234.905L71.8471 238.304C71.8471 238.304 60.9453 236.652 50.7457 244.332C40.546 252.013 35.534 260.614 29.4493 260.632C29.4493 260.632 54.7631 276.275 71.0085 272.613C71.0085 272.613 72.7832 274.81 68.5512 278.773C68.5512 278.773 85.1671 281.139 96.7124 266.66L97.6875 273.552C97.6875 273.552 86.5908 292.989 59.7752 288.388L62.369 280.97C62.369 280.97 42.8083 287.674 16.8313 269.496C3.60883 261.872 0.000938416 267.487 0.000938416 267.487C0.000938416 267.487 5.83208 228.614 55.8358 232.614C55.8358 232.614 55.3092 228.783 47.0793 227.412C47.0793 227.412 64.6508 213.065 91.2128 231.976L91.7783 236.727Z" fill="#242938"/>
<path d="M112.176 280.742L102.035 282.319C101.703 282.375 101.391 282.15 101.333 281.831L91.6596 224.442C91.6011 224.123 91.8351 223.822 92.1666 223.766L102.308 222.189C102.639 222.132 102.951 222.358 103.01 222.677L112.683 280.066C112.722 280.404 112.507 280.704 112.176 280.742Z" fill="#242938"/>
<path d="M162.144 277.591L161.498 274.836C160.575 270.807 156.422 268.29 152.239 269.178L127.843 274.422C125.352 285.056 72.9005 319.863 72.9005 319.863C73.8234 323.892 77.9764 326.41 82.1601 325.522L138.487 313.435C155.315 309.821 165.897 293.765 162.144 277.591Z" fill="#242938"/>
<path d="M155.699 223.453V226.074C155.699 229.909 152.432 233 148.447 233L125.145 232.917C120.645 223.729 65.6993 202.125 65.6993 202.125C65.6993 198.29 68.9668 195.2 72.9509 195.2L126.721 195.365C142.772 195.42 155.756 208.002 155.699 223.453Z" fill="#242938"/>
<path d="M207.584 265.624C193.84 265.624 182.699 254.895 182.699 241.662C182.699 228.428 193.84 217.7 207.584 217.7C221.327 217.7 232.469 228.428 232.469 241.662C232.469 254.895 221.327 265.624 207.584 265.624Z" fill="#242938"/>
<path d="M209.691 271.051C195.948 271.051 184.807 260.323 184.807 247.089C184.807 233.855 195.948 223.127 209.691 223.127C223.435 223.127 234.576 233.855 234.576 247.089C234.576 260.323 223.435 271.051 209.691 271.051Z" stroke="#242938" stroke-width="2" stroke-miterlimit="10"/>
<path d="M222.91 207.71L214.271 193.457L228.254 183.279L231.55 188.33C231.706 189.663 232.232 193.532 230.652 198.321C229.404 202.076 225.387 206.583 222.91 207.71Z" fill="#D58B8B"/>
<path d="M229.854 199.729C227.942 204.95 223.359 207.748 221.312 208.499L225.7 215.954C227.084 219.259 230.692 225.794 234.008 225.494L279.76 176.65C279.37 173.025 267.863 166.734 264.899 166.734C261.935 166.734 256.357 172.274 253.237 174.509C250.74 176.312 242.667 179.861 238.961 181.419C238.61 177.401 237.479 169.438 235.607 169.739C233.266 170.114 231.219 182.189 231.219 183.654C231.219 185.138 232.252 193.194 229.854 199.729Z" fill="#EC5B60" stroke="#242938" stroke-width="2"/>
<path d="M274.436 171.204C274.26 173.175 273.402 177.588 271.296 179.429C265.601 184.443 257.917 197.588 250.955 199.372C246.801 200.255 241.555 212.086 238.59 214.17C235.626 216.255 231.063 219.484 227.435 219.259" stroke="#242938" stroke-width="2"/>
<path d="M270.203 169.213C269.267 172.03 266.556 178.358 263.143 181.194C258.872 184.762 255.752 188.198 253.938 189.344C252.125 190.49 242.451 185.231 242.217 180.086" stroke="#242938" stroke-width="2"/>
<path d="M221.838 208.536C223.788 207.597 228.897 205.194 231.179 205.757C233.461 206.32 238.356 210.527 239.994 212.724" stroke="#242938" stroke-width="2"/>
</svg>
