<svg width="54" height="52" viewBox="0 0 54 52" fill="none" xmlns="http://www.w3.org/2000/svg">
<path fill-rule="evenodd" clip-rule="evenodd" d="M16.5428 19.6002C15.4289 21.246 14.872 23.2279 14.872 25.5494H14.8652C14.8652 28.4737 15.6753 30.7363 17.2955 32.3301C18.9157 33.924 20.9883 34.7209 23.5063 34.7209C25.1434 34.7209 26.5206 34.5546 27.6345 34.215C29.3998 33.7092 31.1989 32.4341 33.0351 30.3829C33.1668 30.5527 33.3963 30.8784 33.7271 31.3704C34.0511 31.8589 34.2874 32.1812 34.4359 32.3544C34.5811 32.5207 34.8275 32.791 35.1718 33.1582C35.5161 33.529 35.9144 33.9171 36.3734 34.319C36.9304 34.5546 37.4063 34.5199 37.7979 34.215C38.0274 34.0141 39.4991 32.7078 42.2197 30.2824C42.4829 30.0814 42.6112 29.8458 42.6112 29.579C42.6112 29.3434 42.5133 29.0732 42.3175 28.7717L41.1902 27.2333C40.9606 26.9145 40.7176 26.3948 40.4813 25.6672C40.2315 24.95 40.11 24.153 40.11 23.2764V11.0801C40.11 10.9484 40.0965 10.5188 40.0628 9.79808C40.029 9.07738 39.9818 8.6027 39.9142 8.38441C39.8535 8.16612 39.7522 7.77113 39.6172 7.20635C39.4889 6.63118 39.3472 6.19461 39.1784 5.8897C39.0198 5.58479 38.7936 5.24524 38.5134 4.85717C38.2333 4.47257 37.9329 4.10876 37.6088 3.77267C35.5093 1.79076 32.5963 0.799805 28.8665 0.799805H27.6412C24.7316 0.966119 22.1832 1.77343 20.006 3.21829C17.8322 4.66314 16.4652 6.88066 15.9082 9.87084C15.8745 10.006 15.8576 10.1203 15.8576 10.2243C15.8576 10.6955 16.1378 10.9969 16.6913 11.1355L22.3384 11.8424C22.8616 11.7419 23.189 11.3538 23.324 10.6816C23.5502 9.60751 24.0565 8.76555 24.843 8.15919C25.6295 7.54938 26.5644 7.20289 27.6446 7.09894H28.026C29.5011 7.09894 30.5812 7.60481 31.2664 8.61656C31.7221 9.35111 31.9584 10.7994 31.9584 12.9476V13.8035C29.9601 13.9698 28.5154 14.1014 27.6378 14.2054C25.0523 14.5415 22.8751 15.0959 21.1098 15.8685C19.1756 16.7105 17.6567 17.9544 16.5428 19.6002ZM24.2725 27.6907C23.6346 26.8938 23.3173 25.8474 23.3173 24.5377L23.3139 24.5411C23.3139 21.6514 24.7518 19.7873 27.6344 18.9488C28.6133 18.682 30.0546 18.5434 31.955 18.5434V19.8012C31.955 20.8753 31.9482 21.6514 31.9314 22.1227C31.9145 22.5939 31.8166 23.2072 31.6377 23.959C31.4554 24.7144 31.1854 25.4108 30.8276 26.0518C30.0749 27.4967 29.0082 28.401 27.6378 28.7717C27.5703 28.7717 27.4454 28.7891 27.2665 28.8237C27.0843 28.8549 26.9492 28.8688 26.848 28.8688C25.7678 28.8688 24.9139 28.4772 24.2725 27.6907Z" fill="#221F1F"/>
<path d="M43.9342 40.7669C44.0017 40.6283 44.103 40.4967 44.2278 40.3615C45.0481 39.7933 45.8345 39.4052 46.5906 39.2043C47.8294 38.8716 49.0412 38.6845 50.2192 38.6499C50.5466 38.6152 50.8606 38.636 51.1508 38.7018C52.6259 38.8404 53.5136 39.0899 53.8039 39.4641C53.9389 39.6616 53.9997 39.9631 53.9997 40.365V40.7184C53.9997 41.8965 53.6892 43.2824 53.0681 44.8762C52.4436 46.4701 51.5761 47.759 50.469 48.7327C50.3002 48.8712 50.1551 48.9336 50.0234 48.9336C49.9559 48.9336 49.8884 48.9163 49.8277 48.8851C49.6251 48.7812 49.5813 48.5975 49.6792 48.3307C50.8943 45.4064 51.4951 43.376 51.4951 42.2326C51.4951 41.8618 51.4276 41.5916 51.2994 41.4252C50.9719 41.0268 50.0572 40.8223 48.5484 40.8223C47.9948 40.8223 47.34 40.857 46.5906 40.9263C45.767 41.0302 45.0143 41.1273 44.3291 41.2277C44.1266 41.2277 44.0017 41.1931 43.9342 41.1238C43.8667 41.0545 43.8532 40.9921 43.8869 40.9228C43.8869 40.8882 43.9004 40.8397 43.9342 40.7738V40.7669Z" fill="#FF9900"/>
<path d="M0.101263 39.9114C0.263283 39.6411 0.523191 39.6238 0.884361 39.8594C9.06639 44.731 17.9708 47.1703 27.5941 47.1703C34.0074 47.1703 40.3431 45.9403 46.5977 43.4872L47.3065 43.1857C47.6171 43.0471 47.8365 42.9501 47.9681 42.8843C48.4609 42.6833 48.8457 42.7803 49.1259 43.1857C49.4027 43.5876 49.3116 43.9584 48.8559 44.2945C48.2652 44.731 47.5125 45.2369 46.5943 45.8051C43.7826 47.5203 40.6401 48.8473 37.1702 49.7898C33.7036 50.7253 30.318 51.2 27.0101 51.2C21.9031 51.2 17.0763 50.2818 12.5296 48.4523C7.97275 46.6229 3.90199 44.0415 0.300413 40.7153C0.101263 40.5524 0 40.3792 0 40.2128C0 40.1089 0.0337542 40.0119 0.101263 39.9114Z" fill="#FF9900"/>
</svg>
