<svg width="20" height="20" viewBox="0 0 20 20" fill="none" xmlns="http://www.w3.org/2000/svg">
<path fill-rule="evenodd" clip-rule="evenodd" d="M20 10C20 15.5228 15.5228 20 10 20C8.91097 20 7.8626 19.8259 6.8812 19.5041C7.28058 18.9936 7.97567 18.0167 8.266 17.0406C8.37912 16.6572 8.91773 14.6724 8.91773 14.6724C9.24028 15.2433 10.1819 15.746 11.1832 15.746C14.1652 15.746 16.25 12.0657 16.25 8.68584C16.25 6.13011 13.9198 3.75 10.3783 3.75C5.97219 3.75 3.75 6.68489 3.75 9.13222C3.75 10.6143 4.35434 11.9327 5.64964 12.424C5.86212 12.5045 6.05219 12.4269 6.11385 12.2082C6.13566 12.1312 6.17268 11.9944 6.20968 11.8577C6.2453 11.7261 6.2809 11.5946 6.30289 11.5166C6.36506 11.3007 6.34111 11.225 6.16939 11.0366C5.79639 10.6271 5.55741 10.0974 5.55741 9.34665C5.55741 7.16963 7.3108 5.22029 10.1241 5.22029C12.6148 5.22029 13.983 6.63425 13.983 8.52205C13.983 11.0063 12.7369 14.2586 10.9804 14.2586C10.0097 14.2586 9.34598 12.3578 9.57885 11.4437C9.67962 11.049 9.8145 10.643 9.94565 10.2483C10.1772 9.55118 10.3972 8.88908 10.3972 8.38618C10.3972 7.68086 9.98955 7.09294 9.14674 7.09294C8.15514 7.09294 7.35768 8.04584 7.35768 9.32251C7.35768 10.1362 7.65373 10.6858 7.65373 10.6858C7.65373 10.6858 6.5763 15.8369 6.39847 16.5365C6.15029 17.5131 6.22393 18.6441 6.29898 19.2928C2.60827 17.8216 0 14.2154 0 10C0 4.47716 4.47715 0 10 0C15.5228 0 20 4.47716 20 10Z" fill="#010101"/>
</svg>
