<svg width="20" height="20" viewBox="0 0 20 20" fill="none" xmlns="http://www.w3.org/2000/svg">
<path fill-rule="evenodd" clip-rule="evenodd" d="M1 0C0.447715 0 0 0.447708 0 1V19C0 19.5523 0.447715 20 1 20H10.6344V12.343H8.04706V9.31186H10.6217V6.75552C10.6217 5.97969 10.7167 5.35031 10.9067 4.8674C11.0967 4.38448 11.3501 4.01241 11.6667 3.75114C11.9834 3.4899 12.3436 3.31573 12.7474 3.22865C13.1511 3.14157 13.7217 3.09802 14.165 3.09802H16.8192V5.88753H15.6912H14.8062C14.522 5.88753 14.4512 5.94057 14.3096 6.04666C14.2698 6.07651 14.2244 6.11055 14.167 6.14879C13.9058 6.32295 13.7752 6.66336 13.7752 7.17003V9.31186H16.8192V12.343H13.7752V20H19C19.5523 20 20 19.5523 20 19V1C20 0.447708 19.5523 0 19 0H1Z" fill="#010101"/>
</svg>
