<svg width="20" height="20" viewBox="0 0 20 20" fill="none" xmlns="http://www.w3.org/2000/svg">
<path fill-rule="evenodd" clip-rule="evenodd" d="M4.54929 20H15.45C17.9629 20 20 17.9629 20 15.45V4.55C20 2.03714 17.9629 0 15.45 0H4.54929C2.03714 0 0 2.03714 0 4.55V15.45C0 17.9629 2.03714 20 4.54929 20ZM18.3334 15.45C18.3334 17.0423 17.0424 18.3333 15.45 18.3333H4.54931C2.95757 18.3333 1.66669 17.0423 1.66669 15.45V4.54996C1.66669 2.95764 2.95757 1.66663 4.54931 1.66663H15.45C17.0424 1.66663 18.3334 2.95758 18.3334 4.54996V15.45ZM16.875 4.68718C16.875 5.43529 16.2694 6.041 15.5214 6.041C14.7723 6.041 14.1667 5.43529 14.1667 4.68718C14.1667 3.93909 14.7723 3.33337 15.5214 3.33337C16.2694 3.33337 16.875 3.93909 16.875 4.68718ZM10.3833 14.1C7.87046 14.1 5.83331 12.0629 5.83331 9.55C5.83331 7.03714 7.87046 5 10.3833 5C12.8962 5 14.9333 7.03714 14.9333 9.55C14.9333 12.0629 12.8962 14.1 10.3833 14.1ZM10.3833 12.4333C11.9757 12.4333 13.2667 11.1423 13.2667 9.54996C13.2667 7.95758 11.9757 6.66663 10.3833 6.66663C8.79095 6.66663 7.5 7.95758 7.5 9.54996C7.5 11.1423 8.79095 12.4333 10.3833 12.4333Z" fill="#010101"/>
</svg>
