<svg width="16" height="16" viewBox="0 0 16 16" fill="none" xmlns="http://www.w3.org/2000/svg">
<path d="M0.802922 7.46967C0.510029 7.76256 0.510029 8.23744 0.802922 8.53033L5.57589 13.3033C5.86879 13.5962 6.34366 13.5962 6.63655 13.3033C6.92945 13.0104 6.92945 12.5355 6.63655 12.2426L2.39391 8L6.63655 3.75736C6.92945 3.46447 6.92945 2.98959 6.63655 2.6967C6.34366 2.40381 5.86879 2.40381 5.57589 2.6967L0.802922 7.46967ZM14.6666 8.75C15.0808 8.75 15.4166 8.41421 15.4166 8C15.4166 7.58579 15.0808 7.25 14.6666 7.25V8.75ZM1.33325 8.75H14.6666V7.25H1.33325V8.75Z" fill="#010101"/>
</svg>
