<svg width="18" height="18" viewBox="0 0 18 18" fill="none" xmlns="http://www.w3.org/2000/svg">
<path d="M9 16.5C13.1421 16.5 16.5 13.1421 16.5 9C16.5 4.85787 13.1421 1.5 9 1.5C4.85787 1.5 1.5 4.85787 1.5 9C1.5 13.1421 4.85787 16.5 9 16.5Z" stroke="#EC5B60" stroke-width="1.2"/>
<path d="M9.6 5.34082C9.6 5.00945 9.33137 4.74082 9 4.74082C8.66863 4.74082 8.4 5.00945 8.4 5.34082H9.6ZM9 9.00065H8.4V9.24918L8.57574 9.42491L9 9.00065ZM11.0156 11.8648C11.2499 12.0991 11.6298 12.0991 11.8641 11.8648C12.0985 11.6305 12.0985 11.2506 11.8641 11.0163L11.0156 11.8648ZM8.4 5.34082V9.00065H9.6V5.34082H8.4ZM8.57574 9.42491L11.0156 11.8648L11.8641 11.0163L9.42426 8.57638L8.57574 9.42491Z" fill="#EC5B60"/>
</svg>
