<svg width="20" height="20" viewBox="0 0 20 20" fill="none" xmlns="http://www.w3.org/2000/svg">
<path fill-rule="evenodd" clip-rule="evenodd" d="M1 0C0.447715 0 0 0.447715 0 1V19C0 19.5523 0.447715 20 1 20H10.6344V12.343H8.04706V9.31183H10.6217V6.75549C10.6217 5.97965 10.7167 5.35029 10.9067 4.86737C11.0967 4.38445 11.3501 4.01237 11.6667 3.75112C11.9834 3.48987 12.3436 3.3157 12.7474 3.22862C13.1511 3.14153 13.7217 3.09799 14.165 3.09799H16.8192V5.8875H15.6912H14.8062C14.522 5.8875 14.4512 5.94055 14.3096 6.04664C14.2698 6.07648 14.2244 6.11052 14.167 6.14875C13.9058 6.32292 13.7752 6.66333 13.7752 7.17V9.31183H16.8192V12.343H13.7752V20H19C19.5523 20 20 19.5523 20 19V1C20 0.447715 19.5523 0 19 0H1Z" fill="#010101"/>
</svg>
