<svg width="10" height="10" viewBox="0 0 10 10" fill="none" xmlns="http://www.w3.org/2000/svg">
<path d="M5.44219 0.258723C5.2692 -0.086241 4.73123 -0.086241 4.55824 0.258723L0.0584647 9.22568C0.0179585 9.30605 -0.00212276 9.39612 0.000177586 9.48711C0.00247793 9.5781 0.0270814 9.66691 0.0715907 9.74489C0.1161 9.82287 0.178997 9.88735 0.254154 9.93206C0.32931 9.97677 0.414162 10.0002 0.500443 10H9.49999C9.58621 10.0002 9.67101 9.9768 9.74611 9.93212C9.82122 9.88744 9.88407 9.82299 9.92853 9.74506C9.973 9.66712 9.99756 9.57836 9.99983 9.48743C10.0021 9.3965 9.98199 9.3065 9.94147 9.2262L5.44219 0.258723ZM5.50019 8.4176H4.50024V7.36266H5.50019V8.4176ZM4.50024 6.30772V3.67038H5.50019L5.50069 6.30772H4.50024Z" fill="#FF7395"/>
</svg>
