<svg width="64" height="64" viewBox="0 0 64 64" fill="none" xmlns="http://www.w3.org/2000/svg">
<path d="M32.0006 12.3733C38.0095 12.3733 42.0628 14.9688 44.3739 17.1377L53.405 8.31997C47.8584 3.16443 40.6406 0 32.0006 0C19.4851 0 8.67627 7.1822 3.41406 17.6355L13.7607 25.671C16.3562 17.9555 23.5384 12.3733 32.0006 12.3733Z" fill="#EA4335"/>
<path d="M62.7199 32.7111C62.7199 30.08 62.5066 28.1601 62.0444 26.1689H32V38.0445H49.6355C49.2799 40.9956 47.36 45.44 43.0933 48.4267L53.191 56.2489C59.2355 50.6666 62.7199 42.4533 62.7199 32.7111Z" fill="#4285F4"/>
<path d="M13.7955 38.329C13.12 36.3379 12.7289 34.2046 12.7289 32.0001C12.7289 29.7957 13.12 27.6624 13.76 25.6713L3.41332 17.6357C1.24444 21.9735 0 26.8446 0 32.0001C0 37.1557 1.24444 42.0268 3.41332 46.3645L13.7955 38.329Z" fill="#FBBC05"/>
<path d="M32.0002 64.0001C40.6402 64.0001 47.8935 61.1557 53.1913 56.249L43.0935 48.4268C40.3913 50.3113 36.7647 51.6268 32.0002 51.6268C23.538 51.6268 16.3558 46.0446 13.7959 38.3291L3.44922 46.3646C8.71142 56.8179 19.4847 64.0001 32.0002 64.0001Z" fill="#34A853"/>
</svg>
