<svg width="100" height="100" viewBox="0 0 100 100" fill="none" xmlns="http://www.w3.org/2000/svg">
<circle cx="50" cy="50" r="50" fill="#F6F6F7"/>
<path d="M41.165 55.2161L39.4919 56.8892C38.5359 57.8453 37.1018 57.8453 36.1458 56.8892C35.1897 55.9332 35.1897 54.4991 36.1458 53.543L37.8188 51.8699C38.7749 50.9139 40.209 50.9139 41.165 51.8699C42.1211 52.826 42.1211 54.2601 41.165 55.2161Z" stroke="#242938" stroke-width="1.5" stroke-miterlimit="10" stroke-linecap="round" stroke-linejoin="round"/>
<path d="M44.63 58.5621L39.7302 63.4618C38.7742 64.4179 37.3401 64.4179 36.384 63.4618C35.428 62.5058 35.428 61.0717 36.384 60.1157L41.2838 55.2159C42.2399 54.2598 43.6739 54.2598 44.63 55.2159C45.4665 56.1719 45.4665 57.7255 44.63 58.5621Z" stroke="#242938" stroke-width="1.5" stroke-miterlimit="10" stroke-linecap="round" stroke-linejoin="round"/>
<path d="M47.9776 61.908L43.0779 66.8078C42.1218 67.7638 40.6877 67.7638 39.7317 66.8078C38.7756 65.8517 38.7756 64.4177 39.7317 63.4616L44.6315 58.5618C45.5875 57.6058 47.0216 57.6058 47.9776 58.5618C48.9337 59.5179 48.9337 61.0715 47.9776 61.908Z" stroke="#242938" stroke-width="1.5" stroke-miterlimit="10" stroke-linecap="round" stroke-linejoin="round"/>
<path d="M51.2045 65.4932L48.4558 68.2419C47.4997 69.1979 46.0657 69.1979 45.1096 68.2419C44.1536 67.2858 44.1536 65.8517 45.1096 64.8957L47.8583 62.147C48.8143 61.191 50.2484 61.191 51.2045 62.147C52.1605 63.1031 52.1605 64.6567 51.2045 65.4932Z" stroke="#242938" stroke-width="1.5" stroke-miterlimit="10" stroke-linecap="round" stroke-linejoin="round"/>
<path d="M53.832 45.2966L66.0217 57.8448C67.0973 58.9204 67.0973 60.5935 66.0217 61.669C64.9461 62.7446 63.2731 62.6251 62.1975 61.5495" stroke="#242938" stroke-width="1.5" stroke-miterlimit="10" stroke-linecap="round" stroke-linejoin="round"/>
<path d="M58.3746 57.6061L62.3184 61.5499C63.3939 62.6254 63.3939 64.2985 62.3184 65.3741C61.2428 66.4496 59.5697 66.4496 58.4941 65.3741L57.5381 64.179" stroke="#242938" stroke-width="1.5" stroke-miterlimit="10" stroke-linecap="round" stroke-linejoin="round"/>
<path d="M53.9521 60.7134L57.5373 64.2986C58.6129 65.3742 58.6129 67.0473 57.5373 68.1229C56.4618 69.1984 54.7887 69.1984 53.7131 68.1229L51.5 65.5" stroke="#242938" stroke-width="1.5" stroke-miterlimit="10" stroke-linecap="round" stroke-linejoin="round"/>
<path d="M63.6327 55.3355C63.8717 54.977 70.5641 48.0456 70.5641 48.0456L63.1547 39.2021L53.5941 38.6046L51.8015 38.4851C50.726 38.4851 49.7699 38.8436 48.9334 39.5607L43.9141 44.3409C42.8385 45.4165 42.8385 46.9701 43.9141 48.0456C44.9897 49.1212 46.5432 49.1212 47.6188 48.0456L49.8894 45.775C51.204 44.4604 53.3551 44.4604 54.6697 45.775L56.1038 47.3286C57.8964 49.2407 60.2865 50.3163 62.7961 50.5553H63.0352" stroke="#242938" stroke-width="1.5" stroke-miterlimit="10" stroke-linecap="round" stroke-linejoin="round"/>
<path d="M43.0771 38.3655C43.0771 38.3655 43.7942 39.202 49.7695 38.8435" stroke="#242938" stroke-width="1.5" stroke-miterlimit="10" stroke-linecap="round" stroke-linejoin="round"/>
<path d="M36.2653 53.4233C36.2653 53.4233 36.1458 50.4357 35.4287 47.3285" stroke="#242938" stroke-width="1.5" stroke-miterlimit="10" stroke-linecap="round" stroke-linejoin="round"/>
<path d="M78.4506 40.6358L71.6387 32.6289C70.8021 31.6728 69.3681 31.5533 68.412 32.3899L63.7513 36.3336C62.9147 37.0506 62.6757 38.1262 63.1537 39.0822L53.5932 38.4847L51.8006 38.3652C51.0836 38.3652 50.486 38.4847 49.8885 38.8432C43.9132 39.2017 43.0766 38.2457 43.0766 38.2457C43.3156 37.4091 43.0766 36.4531 42.3596 35.8556L37.4598 31.7923C36.5037 30.9558 35.0697 31.0753 34.2331 32.0313L27.8993 39.6798C27.0627 40.6358 27.1822 42.0699 28.1383 42.9065L32.799 46.8502C33.5161 47.4477 34.4721 47.5672 35.3087 47.2087C36.0257 50.3159 36.2647 53.423 36.2647 53.423L36.1452 53.5425C35.1892 54.4986 35.1892 55.9327 36.1452 56.8887C37.1013 57.8448 38.5354 57.8448 39.4914 56.8887L36.3842 59.9959C35.4282 60.952 35.4282 62.386 36.3842 63.3421C37.3403 64.2981 38.7744 64.2981 39.7304 63.3421C38.7744 64.2981 38.7744 65.7322 39.7304 66.6883C40.6865 67.6443 42.1206 67.6443 43.0766 66.6883L44.9887 64.7762C44.0327 65.7322 44.1522 67.2858 45.1082 68.2419C45.5862 68.7199 46.0643 68.9589 46.6618 68.9589L48.4544 70.7515C49.53 71.8271 51.2031 71.8271 52.2786 70.7515C53.3542 69.6759 52.5756 67.0755 51.5 65.9999L53.7127 68.2419C54.7883 69.3174 56.4614 69.3174 57.5369 68.2419C58.493 67.2858 58.6125 65.8517 57.8954 64.8957L58.3735 65.4932C59.449 66.5688 61.1221 66.5688 62.1977 65.4932C63.2732 64.4176 63.2732 62.7446 62.1977 61.669C63.2732 62.7446 64.9463 62.7446 66.0219 61.7885C67.0974 60.7129 67.0974 59.0398 66.0219 57.9643L63.5122 55.4546C63.7513 55.0961 70.4436 48.1647 70.4436 48.1647C71.2802 48.8818 72.4752 48.8818 73.4313 48.0452L78.092 44.1015C79.1676 43.026 79.2871 41.5919 78.4506 40.6358Z" stroke="#242938" stroke-width="1.5" stroke-miterlimit="10" stroke-linecap="round" stroke-linejoin="round"/>
<path d="M56.0303 29.697H59L57.5152 32.6061V36L54.9697 34.303H52L53.4849 31.3939V28L56.0303 29.697Z" fill="#242938"/>
<path d="M27.8788 49.0606H30L28.9394 50.8788V53L27.1212 51.9394H25L26.0606 50.1212L25.9091 48L27.8788 49.0606Z" fill="#242938"/>
<path d="M25.7895 57.0526L30 56.8947L27.8947 60.2105V64L24.2105 62.1053L20 62.2632L22.1053 58.9474V55L25.7895 57.0526Z" fill="#242938"/>
<path d="M35.3086 47.2088L42.957 38.2458" stroke="#242938" stroke-width="1.5" stroke-miterlimit="10" stroke-linecap="round" stroke-linejoin="round"/>
</svg>
