<svg width="100" height="100" viewBox="0 0 100 100" fill="none" xmlns="http://www.w3.org/2000/svg">
<circle cx="50" cy="50" r="50" fill="#F6F6F7"/>
<path d="M60.7999 50.8001C60.7999 44.4001 55.6999 39.2001 49.5999 39.4001C43.4999 39.6001 38.5999 44.8001 38.7999 51.1001C38.7999 53.2001 39.3999 55.1001 40.3999 56.7001C41.7999 59.2001 44.6999 62.0001 44.6999 65.0001V69.1001C44.6999 71.4001 45.9999 73.4001 47.6999 73.4001H51.7999C53.3999 73.4001 54.7999 71.4001 54.7999 69.1001V65.1001C54.7999 62.1001 57.6999 59.2001 59.2999 56.5001C60.2999 54.9001 60.7999 53.0001 60.7999 50.8001Z" stroke="#242938" stroke-width="1.5" stroke-miterlimit="10" stroke-linecap="round" stroke-linejoin="round"/>
<path d="M44.7998 65.4004H54.7998" stroke="#242938" stroke-width="1.5" stroke-miterlimit="10" stroke-linecap="round" stroke-linejoin="round"/>
<path d="M50.7999 65.4004H48.8999L46.8999 52.8004C46.6999 52.1004 47.3999 51.4004 48.0999 51.4004H51.6999C52.3999 51.4004 53.0999 52.1004 52.8999 52.8004L50.7999 65.4004Z" fill="#242938"/>
<path d="M54.7998 68.4004H50.7998" stroke="#242938" stroke-width="1.5" stroke-miterlimit="10" stroke-linecap="round" stroke-linejoin="round"/>
<path d="M49.7002 32.4V27" stroke="#242938" stroke-width="1.5" stroke-miterlimit="10" stroke-linecap="round" stroke-linejoin="round"/>
<path d="M36.4004 64.2002L32.9004 67.7002" stroke="#242938" stroke-width="1.5" stroke-miterlimit="10" stroke-linecap="round" stroke-linejoin="round"/>
<path d="M66.7002 34L62.7002 37.9" stroke="#242938" stroke-width="1.5" stroke-miterlimit="10" stroke-linecap="round" stroke-linejoin="round"/>
<path d="M30.9 50.9004H26" stroke="#242938" stroke-width="1.5" stroke-miterlimit="10" stroke-linecap="round" stroke-linejoin="round"/>
<path d="M73.7006 50.9004H68.1006" stroke="#242938" stroke-width="1.5" stroke-miterlimit="10" stroke-linecap="round" stroke-linejoin="round"/>
<path d="M36.5004 37.7001L32.9004 34.1001" stroke="#242938" stroke-width="1.5" stroke-miterlimit="10" stroke-linecap="round" stroke-linejoin="round"/>
<path d="M66.6998 67.8L62.7998 64" stroke="#242938" stroke-width="1.5" stroke-miterlimit="10" stroke-linecap="round" stroke-linejoin="round"/>
</svg>
