<svg width="20" height="20" viewBox="0 0 20 20" fill="none" xmlns="http://www.w3.org/2000/svg">
<path fill-rule="evenodd" clip-rule="evenodd" d="M4.54929 20H15.45C17.9629 20 20 17.9629 20 15.45V4.55C20 2.03714 17.9629 0 15.45 0H4.54929C2.03714 0 0 2.03714 0 4.55V15.45C0 17.9629 2.03714 20 4.54929 20ZM18.3333 15.45C18.3333 17.0424 17.0424 18.3333 15.45 18.3333H4.54929C2.95755 18.3333 1.66667 17.0423 1.66667 15.45V4.55C1.66667 2.95769 2.95755 1.66667 4.54929 1.66667H15.45C17.0424 1.66667 18.3333 2.95762 18.3333 4.55V15.45ZM16.875 4.68714C16.875 5.43524 16.2694 6.04095 15.5214 6.04095C14.7723 6.04095 14.1667 5.43524 14.1667 4.68714C14.1667 3.93903 14.7723 3.33333 15.5214 3.33333C16.2694 3.33333 16.875 3.93903 16.875 4.68714ZM10.3833 14.1C7.87047 14.1 5.83333 12.0629 5.83333 9.55C5.83333 7.03714 7.87047 5 10.3833 5C12.8962 5 14.9333 7.03714 14.9333 9.55C14.9333 12.0629 12.8962 14.1 10.3833 14.1ZM10.3833 12.4333C11.9757 12.4333 13.2667 11.1424 13.2667 9.55C13.2667 7.95762 11.9757 6.66667 10.3833 6.66667C8.79095 6.66667 7.5 7.95762 7.5 9.55C7.5 11.1424 8.79095 12.4333 10.3833 12.4333Z" fill="#010101"/>
</svg>
