<svg width="32" height="32" viewBox="0 0 32 32" fill="none" xmlns="http://www.w3.org/2000/svg">
<path d="M9.66587 21.2778C8.73995 21.2778 8.0918 20.5371 8.0918 19.7037V14.2408C8.0918 9.70371 11.7955 6 16.3326 6C20.8696 6 24.5733 9.70371 24.5733 14.2408V19.7037C24.5733 20.6297 23.8326 21.2778 22.9992 21.2778" stroke="#ffffff" stroke-width="1.5" stroke-linecap="round" stroke-linejoin="round"/>
<path d="M11.24 21.2777H9.57328C8.73995 21.2777 8.0918 20.6296 8.0918 19.7962V16.1851C8.0918 15.3518 8.73995 14.7036 9.57328 14.7036H10.4066C11.7029 14.7036 12.7214 15.7221 12.7214 17.0184V19.7962C12.7214 20.6296 12.0733 21.2777 11.24 21.2777Z" stroke="#ffffff" stroke-width="1.5" stroke-linecap="round" stroke-linejoin="round"/>
<path d="M21.4258 21.2777H23.0925C23.9258 21.2777 24.574 20.6296 24.574 19.7962V16.1851C24.574 15.3518 23.9258 14.7036 23.0925 14.7036H22.2592C20.9629 14.7036 19.9443 15.7221 19.9443 17.0184V19.7962C19.9443 20.6296 20.5925 21.2777 21.4258 21.2777Z" stroke="#ffffff" stroke-width="1.5" stroke-linecap="round" stroke-linejoin="round"/>
<path d="M13.7408 24.8888H13.1852C10.3148 24.8888 8 22.574 8 19.7036" stroke="#ffffff" stroke-width="1.5" stroke-linecap="round" stroke-linejoin="round"/>
<path fill-rule="evenodd" clip-rule="evenodd" d="M17.0741 26.0001H15.1297C14.4815 26.0001 14.0186 25.4445 14.0186 24.8889C14.0186 24.2408 14.5741 23.7778 15.1297 23.7778H17.1667C17.8149 23.7778 18.2778 24.3334 18.2778 24.8889C18.2778 25.4445 17.7223 26.0001 17.0741 26.0001Z" stroke="#ffffff" stroke-width="1.5" stroke-linecap="round" stroke-linejoin="round"/>
</svg>
