<svg width="32" height="32" viewBox="0 0 32 32" fill="none" xmlns="http://www.w3.org/2000/svg">
<path fill-rule="evenodd" clip-rule="evenodd" d="M25.709 11.5619L25.0091 10.4381C24.417 9.48718 23.1049 9.15914 22.0758 9.70476V9.70476C21.586 9.97178 21.0015 10.0475 20.4512 9.91532C19.901 9.78311 19.4301 9.4538 19.1425 9C18.9575 8.71156 18.8581 8.38302 18.8544 8.04762V8.04762C18.8711 7.50988 18.6518 6.98879 18.2466 6.60305C17.8414 6.21731 17.2847 5.99978 16.7033 6H15.2933C14.7237 5.99999 14.1776 6.21001 13.7759 6.58357C13.3741 6.95713 13.1498 7.46345 13.1525 7.99048V7.99048C13.1356 9.07861 12.1775 9.95249 11.0014 9.95238C10.639 9.9489 10.2839 9.85691 9.97221 9.68571V9.68571C8.94317 9.14009 7.63103 9.46813 7.03894 10.419L6.28761 11.5619C5.69623 12.5116 6.04592 13.725 7.06981 14.2762V14.2762C7.73536 14.6318 8.14536 15.2889 8.14536 16C8.14536 16.7111 7.73536 17.3682 7.06981 17.7238V17.7238C6.04722 18.2712 5.69715 19.4817 6.28761 20.4286V20.4286L6.99777 21.5619C7.27519 22.0251 7.74065 22.3669 8.29115 22.5117C8.84166 22.6565 9.43182 22.5923 9.93104 22.3333V22.3333C10.4218 22.0683 11.0066 21.9957 11.5555 22.1317C12.1044 22.2676 12.5719 22.6008 12.854 23.0571C13.039 23.3456 13.1384 23.6741 13.1422 24.0095V24.0095C13.1422 25.1088 14.1053 26 15.2933 26H16.7033C17.8873 26 18.8487 25.1146 18.8544 24.019V24.019C18.8516 23.4904 19.0774 22.9826 19.4814 22.6088C19.8854 22.2349 20.4341 22.026 21.0054 22.0286C21.367 22.0375 21.7206 22.1291 22.0347 22.2952V22.2952C23.061 22.8425 24.3723 22.5189 24.9679 21.5714V21.5714L25.709 20.4286C25.9958 19.973 26.0745 19.4304 25.9277 18.9209C25.7809 18.4115 25.4207 17.9772 24.9268 17.7143V17.7143C24.4329 17.4514 24.0726 17.0171 23.9258 16.5076C23.779 15.9982 23.8577 15.4556 24.1446 15C24.3311 14.6987 24.6011 14.4488 24.9268 14.2762V14.2762C25.9445 13.7253 26.2934 12.519 25.709 11.5714V11.5714V11.5619Z" stroke="#ffffff" stroke-width="1.5" stroke-linecap="round" stroke-linejoin="round"/>
<ellipse cx="16.0032" cy="15.9999" rx="2.96415" ry="2.74286" stroke="#ffffff" stroke-width="1.5" stroke-linecap="round" stroke-linejoin="round"/>
</svg>
