<svg width="32" height="32" viewBox="0 0 32 32" fill="none" xmlns="http://www.w3.org/2000/svg">
<path d="M23.3701 14.4901C25.3872 14.4901 27.0234 12.855 27.0234 10.8379C27.0234 8.8209 25.3872 7.18579 23.3701 7.18579" stroke="#ffffff" stroke-width="1.5" stroke-linecap="round" stroke-linejoin="round"/>
<path d="M25.0498 18.4587C25.6522 18.5003 26.251 18.5857 26.8407 18.7184C27.66 18.8788 28.6454 19.2146 28.9962 19.9496C29.2201 20.4204 29.2201 20.9685 28.9962 21.4405C28.6466 22.1755 27.66 22.5102 26.8407 22.6786" stroke="#ffffff" stroke-width="1.5" stroke-linecap="round" stroke-linejoin="round"/>
<path d="M9.13964 14.4901C7.12259 14.4901 5.48633 12.855 5.48633 10.8379C5.48633 8.8209 7.12259 7.18579 9.13964 7.18579" stroke="#ffffff" stroke-width="1.5" stroke-linecap="round" stroke-linejoin="round"/>
<path d="M7.45972 18.4587C6.85737 18.5003 6.25849 18.5857 5.66883 18.7184C4.84955 18.8788 3.8641 19.2146 3.51446 19.9496C3.28945 20.4204 3.28945 20.9685 3.51446 21.4405C3.86295 22.1755 4.84955 22.5102 5.66883 22.6786" stroke="#ffffff" stroke-width="1.5" stroke-linecap="round" stroke-linejoin="round"/>
<path fill-rule="evenodd" clip-rule="evenodd" d="M16.2489 19.2454C20.3361 19.2454 23.8278 19.8639 23.8278 22.339C23.8278 24.813 20.3591 25.4546 16.2489 25.4546C12.1605 25.4546 8.66992 24.8361 8.66992 22.3609C8.66992 19.8858 12.1386 19.2454 16.2489 19.2454Z" stroke="#ffffff" stroke-width="1.5" stroke-linecap="round" stroke-linejoin="round"/>
<path fill-rule="evenodd" clip-rule="evenodd" d="M16.2485 15.7149C13.5529 15.7149 11.3916 13.5536 11.3916 10.8569C11.3916 8.16129 13.5529 6 16.2485 6C18.944 6 21.1053 8.16129 21.1053 10.8569C21.1053 13.5536 18.944 15.7149 16.2485 15.7149Z" stroke="#ffffff" stroke-width="1.5" stroke-linecap="round" stroke-linejoin="round"/>
</svg>
