<svg width="32" height="32" viewBox="0 0 32 32" fill="none" xmlns="http://www.w3.org/2000/svg">
<path d="M16.1475 10.981V21.6279" stroke="#ffffff" stroke-width="1.5" stroke-linecap="round" stroke-linejoin="round"/>
<path d="M25.8603 9.13568C24.9905 8.7098 23.5409 8.14196 21.5114 8C19.1919 8 17.4523 8.7098 16.5825 9.13568C16.2926 9.27764 16.0026 9.27764 15.7127 9.13568C14.8429 8.7098 13.3933 8 11.3637 8C9.04428 8 7.30469 8.7098 6.4349 9.13568C6.14497 9.27764 6 9.56156 6 9.84548V23.3317C6 23.8995 6.57986 24.3254 7.30469 24.0414C8.17449 23.7575 9.47918 23.4736 10.9288 23.4736C12.5235 23.4736 13.9731 23.7575 14.9879 24.0414C15.5678 24.1834 16.8724 24.1834 17.4523 24.0414C18.3221 23.7575 19.6268 23.4736 21.0765 23.4736C22.6711 23.4736 24.1207 23.7575 25.1355 24.0414C25.7154 24.1834 26.4402 23.8995 26.4402 23.3317V9.84548C26.2952 9.56156 26.1503 9.27764 25.8603 9.13568Z" stroke="#ffffff" stroke-width="1.5" stroke-linecap="round" stroke-linejoin="round"/>
</svg>
