<svg width="32" height="32" viewBox="0 0 32 32" fill="none" xmlns="http://www.w3.org/2000/svg">
<path fill-rule="evenodd" clip-rule="evenodd" d="M22.7817 26.7211C25.1128 26.7211 27 24.8326 27 22.5028V19.1461C25.4584 19.1461 24.2151 17.9028 24.2151 16.3624C24.2151 14.8208 25.4584 13.5788 27 13.5788L26.9975 10.2183C26.9975 7.88849 25.1103 6 22.7804 6H8.21957C5.88973 6 4.00124 7.88849 4.00124 10.2183L4 13.687C5.54038 13.687 6.78362 14.8208 6.78362 16.3624C6.78362 17.9028 5.54038 19.1461 4 19.1461V22.5028C4 24.8326 5.88724 26.7211 8.21708 26.7211H22.7817Z" stroke="#ffffff" stroke-width="1.5" stroke-linecap="round" stroke-linejoin="round"/>
<path fill-rule="evenodd" clip-rule="evenodd" d="M15.4987 18.5625L17.662 19.7C17.8646 19.8057 18.1021 19.6341 18.0635 19.4091L17.6495 16.9985L19.4013 15.294C19.5654 15.1336 19.4746 14.8564 19.2484 14.8228L16.829 14.471L15.7461 12.2779C15.6454 12.0727 15.3533 12.0727 15.2513 12.2779L14.1685 14.471L11.7504 14.8228C11.5241 14.8564 11.4333 15.1336 11.5974 15.294L13.3479 16.9985L12.9339 19.4091C12.8954 19.6341 13.1328 19.8057 13.3355 19.7L15.4987 18.5625Z" stroke="#ffffff" stroke-width="1.5" stroke-linecap="round" stroke-linejoin="round"/>
</svg>
