<svg width="32" height="32" viewBox="0 0 32 32" fill="none" xmlns="http://www.w3.org/2000/svg">
<path fill-rule="evenodd" clip-rule="evenodd" d="M19.8742 22.4527C19.7829 23.2004 19.7561 23.9361 19.552 24.6971C19.2271 25.7819 18.3774 26.4453 17.4605 26.4186C17.0256 26.4293 16.4134 26.1644 16.0013 25.818L11.1941 21.9137H8.51597C7.2259 21.9137 6.35467 21.0336 6.17881 19.5837C5.92912 17.7994 5.95194 14.5758 6.17881 12.7554C6.35467 11.4981 7.2259 10.507 8.51597 10.507H11.1941L15.902 6.66956C16.3141 6.32045 17.0256 5.99142 17.4605 6.00078C18.3774 5.97403 19.2271 6.63879 19.552 7.72221C19.7332 8.41507 19.7829 9.22027 19.8742 9.96797C20.093 11.7162 20.093 20.7045 19.8742 22.4527Z" stroke="#ffffff" stroke-width="1.5" stroke-linecap="round" stroke-linejoin="round"/>
<path d="M24.7812 9.28491C26.0082 11.0497 26.7447 13.4171 26.7447 16.0521C26.7447 18.6871 26.0082 21.0532 24.7812 22.818" stroke="#ffffff" stroke-width="1.5" stroke-linecap="round" stroke-linejoin="round"/>
</svg>
