<svg width="18" height="16" viewBox="0 0 18 16" fill="none" xmlns="http://www.w3.org/2000/svg">
<path d="M2.57143 9.66678L2.94014 9.19343L2.57143 9.66678ZM3.64286 15.2668H14.3571V14.0668H3.64286V15.2668ZM14.3571 15.2668C15.3006 15.2668 16.0286 14.4799 16.0286 13.5557H14.8286C14.8286 13.8587 14.5971 14.0668 14.3571 14.0668V15.2668ZM1.97143 13.5557C1.97143 14.4799 2.69937 15.2668 3.64286 15.2668V14.0668C3.40287 14.0668 3.17143 13.8587 3.17143 13.5557H1.97143ZM0.9 4.11122V7.44455H2.1V4.11122H0.9ZM4.17857 10.8223H13.8214V9.62233H4.17857V10.8223ZM17.1 7.44455V4.11122H15.9V7.44455H17.1ZM15.9643 2.95566H2.03571V4.15566H15.9643V2.95566ZM17.1 4.11122C17.1 3.49378 16.6119 2.95566 15.9643 2.95566V4.15566C15.9394 4.15566 15.9202 4.14426 15.9112 4.13486C15.9025 4.12585 15.9 4.1163 15.9 4.11122H17.1ZM2.1 4.11122C2.1 4.1163 2.09751 4.12585 2.08881 4.13486C2.07975 4.14426 2.06061 4.15566 2.03571 4.15566V2.95566C1.3881 2.95566 0.9 3.49378 0.9 4.11122H2.1ZM0.9 7.44455C0.9 8.54124 1.40847 9.52144 2.20272 10.1401L2.94014 9.19343C2.43319 8.79855 2.1 8.16545 2.1 7.44455H0.9ZM2.20272 10.1401C2.75044 10.5668 3.43539 10.8223 4.17857 10.8223V9.62233C3.71575 9.62233 3.28777 9.46422 2.94014 9.19343L2.20272 10.1401ZM1.97143 9.66678V13.5557H3.17143V9.66678H1.97143ZM13.8214 10.8223C14.5645 10.8223 15.2494 10.5671 15.7973 10.1403L15.0599 9.19364C14.7123 9.46433 14.2844 9.62233 13.8214 9.62233V10.8223ZM15.7973 10.1403C16.5916 9.52162 17.1 8.54119 17.1 7.44455H15.9C15.9 8.16549 15.5668 8.79878 15.0599 9.19364L15.7973 10.1403ZM16.0286 13.5557V9.66698H14.8286V13.5557H16.0286Z" fill="#5B77DE"/>
<path d="M10.6431 1.3335H7.35742C7.08128 1.3335 6.85742 1.55735 6.85742 1.8335V3.55572H11.1431V1.8335C11.1431 1.55735 10.9193 1.3335 10.6431 1.3335Z" stroke="#5B77DE" stroke-width="1.2"/>
<path d="M9 9.11133V11.3336" stroke="#5B77DE" stroke-width="1.2" stroke-linecap="round" stroke-linejoin="round"/>
</svg>
