<svg width="20" height="20" viewBox="0 0 20 20" fill="none" xmlns="http://www.w3.org/2000/svg">
<rect width="20" height="20" rx="4" fill="white"/>
<path d="M16.1651 5.47908C15.3569 4.35184 14.0345 3.8258 12.712 4.05124C11.5365 4.20154 10.508 4.95304 9.99367 6.00513C9.40592 4.95304 8.45082 4.20154 7.20184 4.05124C5.87939 3.8258 4.55694 4.35184 3.74877 5.47908C3.30795 6.15543 3.01408 6.98207 3.01408 7.80872C2.94061 8.78566 3.16102 9.68745 3.52836 10.5892C4.77734 13.5201 9.84674 16 9.99367 16C10.0671 16 15.1365 13.5201 16.459 10.5141C16.8263 9.68745 17.0864 8.83254 16.9733 7.73357C16.8773 6.80127 16.6059 6.15543 16.1651 5.47908Z" stroke="#242938" stroke-width="1.2" stroke-linecap="round" stroke-linejoin="round"/>
</svg>
