<svg width="24" height="24" viewBox="0 0 24 24" fill="none" xmlns="http://www.w3.org/2000/svg">
<path d="M22.0001 12.2224C22.0001 11.4003 21.9321 10.7999 21.7847 10.1777H12.2041V13.8889H17.8275C17.7144 14.8113 17.1017 16.2001 15.7411 17.1337L15.7223 17.2581L18.7514 19.558L18.9611 19.5789C20.8886 17.8337 22.0001 15.2664 22.0001 12.2224Z" fill="#4285F4"/>
<path d="M12.2042 22C14.959 22 17.2722 21.1114 18.9612 19.5781L15.7412 17.1337C14.8795 17.7229 13.7229 18.1339 12.2042 18.1339C9.50597 18.1339 7.21567 16.3895 6.39899 13.978L6.2794 13.9877L3.12982 16.3767L3.08887 16.4891C4.76646 19.7555 8.21337 22 12.2042 22Z" fill="#34A853"/>
<path d="M6.39875 13.9781C6.18332 13.356 6.05881 12.6889 6.05881 12.0001C6.05881 11.3113 6.18332 10.6442 6.38729 10.0221L6.38155 9.88964L3.19266 7.46289L3.08863 7.51186C2.39646 8.86692 2 10.389 2 12.0001C2 13.6112 2.39646 15.1333 3.08863 16.4891L6.39875 13.9781Z" fill="#FBBC05"/>
<path d="M12.2042 5.8669C14.1202 5.8669 15.4128 6.67769 16.15 7.35602L19.0301 4.60014C17.2607 2.989 14.959 2 12.2042 2C8.21338 2 4.76646 4.24452 3.08887 7.51096L6.38834 10.022C7.21567 7.6113 9.50597 5.8669 12.2042 5.8669Z" fill="#EB4335"/>
</svg>
