<svg width="20" height="20" viewBox="0 0 20 20" fill="none" xmlns="http://www.w3.org/2000/svg">
<rect width="20" height="20" rx="4" fill="white"/>
<path d="M14.125 6.88889C15.1605 6.88889 15.9999 6.01832 15.9999 4.94444C15.9999 3.87056 15.1605 3 14.125 3C13.0895 3 12.25 3.87056 12.25 4.94444C12.25 6.01832 13.0895 6.88889 14.125 6.88889Z" stroke="#242938" stroke-width="1.2" stroke-linecap="round"/>
<path d="M5.87495 11.9441C6.91045 11.9441 7.74991 11.0735 7.74991 9.99962C7.74991 8.92574 6.91045 8.05518 5.87495 8.05518C4.83945 8.05518 4 8.92574 4 9.99962C4 11.0735 4.83945 11.9441 5.87495 11.9441Z" stroke="#242938" stroke-width="1.2" stroke-linecap="round"/>
<path d="M12.2497 5.94531L7.50195 8.92844" stroke="#242938" stroke-width="1.2" stroke-linecap="round"/>
<path d="M7.50195 10.9971L12.5045 14.0627" stroke="#242938" stroke-width="1.2" stroke-linecap="round"/>
<path d="M14.125 13.1113C15.1605 13.1113 15.9999 13.9819 15.9999 15.0558C15.9999 16.1297 15.1605 17.0002 14.125 17.0002C13.0895 17.0002 12.25 16.1297 12.25 15.0558C12.25 13.9819 13.0895 13.1113 14.125 13.1113Z" stroke="#242938" stroke-width="1.2" stroke-linecap="round"/>
</svg>
