<svg width="16" height="13" viewBox="0 0 16 13" fill="none" xmlns="http://www.w3.org/2000/svg">
<g opacity="0.5">
<path d="M11.8584 5.80006C12.9522 5.80006 13.8394 4.87551 13.8394 3.73499C13.8394 2.59447 12.9522 1.66992 11.8584 1.66992" stroke="#200E32" stroke-width="1.5" stroke-linecap="round" stroke-linejoin="round"/>
<path d="M12.7695 8.04492C13.0962 8.06841 13.4209 8.11669 13.7406 8.19173C14.1849 8.28242 14.7193 8.47229 14.9095 8.88791C15.0309 9.15412 15.0309 9.46405 14.9095 9.73091C14.7199 10.1465 14.1849 10.3357 13.7406 10.431" stroke="#200E32" stroke-width="1.5" stroke-linecap="round" stroke-linejoin="round"/>
<path d="M4.14117 5.80006C3.04742 5.80006 2.16016 4.87551 2.16016 3.73499C2.16016 2.59447 3.04742 1.66992 4.14117 1.66992" stroke="#200E32" stroke-width="1.5" stroke-linecap="round" stroke-linejoin="round"/>
<path d="M3.23084 8.04492C2.90421 8.06841 2.57946 8.11669 2.25972 8.19173C1.81546 8.28242 1.2811 8.47229 1.09151 8.88791C0.969496 9.15412 0.969496 9.46405 1.09151 9.73091C1.28048 10.1465 1.81546 10.3357 2.25972 10.431" stroke="#200E32" stroke-width="1.5" stroke-linecap="round" stroke-linejoin="round"/>
<path fill-rule="evenodd" clip-rule="evenodd" d="M7.99642 8.48828C10.2127 8.48828 12.1061 8.83801 12.1061 10.2376C12.1061 11.6365 10.2252 11.9992 7.99642 11.9992C5.77951 11.9992 3.88672 11.6495 3.88672 10.25C3.88672 8.8504 5.76762 8.48828 7.99642 8.48828Z" stroke="#200E32" stroke-width="1.5" stroke-linecap="round" stroke-linejoin="round"/>
<path fill-rule="evenodd" clip-rule="evenodd" d="M7.99692 6.49315C6.53525 6.49315 5.36328 5.27108 5.36328 3.74625C5.36328 2.22208 6.53525 1 7.99692 1C9.4586 1 10.6306 2.22208 10.6306 3.74625C10.6306 5.27108 9.4586 6.49315 7.99692 6.49315Z" stroke="#200E32" stroke-width="1.5" stroke-linecap="round" stroke-linejoin="round"/>
</g>
</svg>
