<svg width="97" height="14" viewBox="0 0 97 14" fill="none" xmlns="http://www.w3.org/2000/svg">
<path d="M3.61359 7.44093L9.08192 1.95054C9.45135 1.5812 9.95122 1.37388 10.4723 1.37388C10.9934 1.37388 11.4932 1.5812 11.8627 1.95054L12.2876 2.37768L13.1395 1.52145L12.7145 1.09236C12.1186 0.494709 11.3112 0.159058 10.4694 0.159058C9.62756 0.159058 8.82011 0.494709 8.22422 1.09236L2.75977 6.5847L3.61359 7.44093Z" fill="black"/>
<path d="M10.915 3.75843L10.0631 2.9022L4.59282 8.40039C4.2233 8.77154 3.72222 8.97994 3.19982 8.97976C2.67742 8.97958 2.17649 8.77082 1.80723 8.39942C1.43797 8.02801 1.23062 7.52438 1.2308 6.99931C1.23098 6.47425 1.43868 5.97076 1.8082 5.59961L6.5275 0.856227L5.67562 0L0.95632 4.74338C0.655888 5.03835 0.416671 5.39029 0.252524 5.77884C0.0883777 6.16738 0.00256498 6.5848 5.66281e-05 7.00691C-0.00245172 7.42903 0.0783942 7.84745 0.237911 8.23793C0.397429 8.62842 0.632446 8.98321 0.929351 9.28176C1.22626 9.58031 1.57915 9.81668 1.96758 9.97718C2.35602 10.1377 2.77228 10.2191 3.19225 10.2168C3.61222 10.2144 4.02756 10.1284 4.4142 9.96356C4.80084 9.79874 5.1511 9.55845 5.4447 9.25662L10.915 3.75843ZM16.36 4.74338C15.7639 4.1462 14.9565 3.81088 14.1149 3.81088C13.2732 3.81088 12.4658 4.1462 11.8697 4.74338L6.39943 10.2416L7.25131 11.0978L12.7216 5.59961C12.9971 5.32319 13.348 5.13506 13.7299 5.05896C14.1118 4.98287 14.5075 5.02223 14.8672 5.17208C15.2268 5.32193 15.5342 5.57554 15.7505 5.90088C15.9668 6.22622 16.0824 6.6087 16.0825 7C16.0835 7.26068 16.0325 7.51891 15.9325 7.75944C15.8325 7.99997 15.6856 8.21792 15.5004 8.40039L10.7869 13.1438L11.6407 14L16.36 9.25662C16.9546 8.65768 17.2886 7.84612 17.2886 7C17.2886 6.15388 16.9546 5.34232 16.36 4.74338Z" fill="black"/>
<path d="M13.7007 6.5592L8.2304 12.0554C7.86048 12.4261 7.35945 12.6342 6.83712 12.6342C6.31479 12.6342 5.81376 12.4261 5.44384 12.0554L5.01887 11.6264L4.16699 12.4826L4.59196 12.9117C5.18811 13.5088 5.99546 13.8442 6.83712 13.8442C7.67879 13.8442 8.48614 13.5088 9.08228 12.9117L14.5526 7.41153L13.7007 6.5592Z" fill="black"/>
<path d="M22.2824 8.47839C22.3384 8.80451 22.5152 9.09721 22.7772 9.29756C23.0778 9.50658 23.4386 9.6101 23.8037 9.59207C24.1513 9.61434 24.4953 9.5113 24.774 9.30146C24.8851 9.20857 24.9736 9.09141 25.0328 8.95891C25.092 8.82641 25.1203 8.68207 25.1155 8.53691C25.1194 8.40112 25.088 8.26665 25.0243 8.14683C24.9605 8.03807 24.8729 7.94536 24.7682 7.87572C24.6432 7.79233 24.5074 7.72669 24.3645 7.68068L23.8251 7.51684L23.3109 7.37642C23.0258 7.30049 22.7484 7.19798 22.4823 7.0702C22.2538 6.96162 22.0426 6.81965 21.8555 6.64891C21.6886 6.49317 21.5563 6.30375 21.4674 6.09305C21.3725 5.86125 21.3262 5.61225 21.3315 5.36165C21.3288 5.08399 21.3885 4.80929 21.5062 4.55808C21.6196 4.3136 21.7876 4.0987 21.9971 3.93005C22.2276 3.74467 22.491 3.60501 22.7733 3.51852C23.1033 3.41343 23.448 3.36272 23.794 3.36833C24.5069 3.36833 25.0715 3.53737 25.4881 3.87544C25.6946 4.04254 25.8658 4.24936 25.9917 4.4838C26.1177 4.71823 26.1958 4.97556 26.2216 5.24072L25.0573 5.33629C24.9997 5.06779 24.8499 4.82821 24.6343 4.6595C24.3728 4.48383 24.0614 4.3989 23.7475 4.41765C23.4512 4.40015 23.1582 4.48706 22.9189 4.6634C22.8233 4.73828 22.7465 4.83461 22.6946 4.94468C22.6427 5.05476 22.6172 5.17551 22.62 5.29728C22.6153 5.4271 22.6454 5.5558 22.7074 5.66981C22.7698 5.77505 22.8554 5.86447 22.9577 5.93117C23.0823 6.01266 23.2166 6.07818 23.3574 6.12621C23.5146 6.18472 23.6931 6.24713 23.8911 6.31149L24.384 6.46558C24.6906 6.5631 24.968 6.66452 25.2164 6.76984C25.4448 6.86749 25.6574 6.99897 25.8471 7.15992C26.018 7.30536 26.1546 7.48726 26.2468 7.69238C26.3467 7.93444 26.3943 8.19502 26.3866 8.45694C26.3898 8.7631 26.3234 9.06596 26.1925 9.34242C26.0662 9.60797 25.8818 9.84134 25.653 10.0251C25.4072 10.2204 25.1276 10.3685 24.8283 10.462C24.4873 10.5686 24.1317 10.6206 23.7746 10.616C23.1431 10.6397 22.5201 10.4637 21.9933 10.1128C21.7473 9.93395 21.5414 9.70531 21.3886 9.44162C21.2359 9.17793 21.1398 8.88504 21.1064 8.58177L22.2824 8.47839ZM31.296 3.38784C31.7841 3.38149 32.2687 3.47162 32.7223 3.65309C33.1365 3.81985 33.5104 4.0739 33.8187 4.39815C34.128 4.72876 34.3676 5.11887 34.5231 5.54499C34.6937 6.01339 34.7786 6.50899 34.7734 7.00779C34.7804 7.51574 34.6901 8.0203 34.5075 8.494C34.3374 8.92454 34.0804 9.31501 33.7527 9.64083L34.6764 10.7272V11.0646H33.5121L32.8659 10.2708C32.6318 10.3834 32.3866 10.471 32.1343 10.5322C31.862 10.5907 31.5842 10.6195 31.3057 10.618C30.812 10.621 30.3226 10.5255 29.8659 10.3371C29.454 10.1693 29.0827 9.91457 28.7772 9.59012C28.4717 9.26101 28.236 8.87279 28.0845 8.44914C27.9171 7.98537 27.8337 7.49525 27.838 7.00194C27.8332 6.50541 27.9167 6.012 28.0845 5.54499C28.2369 5.11988 28.4747 4.73084 28.7831 4.40205C29.0906 4.07773 29.4629 3.82248 29.8756 3.65309C30.3265 3.46946 30.8096 3.37924 31.296 3.38784ZM31.2863 4.43326C30.9659 4.42829 30.6485 4.49491 30.3568 4.6283C30.0889 4.75271 29.8521 4.936 29.6641 5.16466C29.4685 5.40442 29.3209 5.67993 29.2294 5.97602C29.1282 6.30569 29.0784 6.64914 29.0819 6.99414C29.0785 7.34212 29.1303 7.68842 29.2352 8.02005C29.3292 8.31883 29.4779 8.59733 29.6738 8.84117C29.8615 9.0726 30.0982 9.25915 30.3665 9.38728C30.6579 9.52162 30.9755 9.58828 31.296 9.58232C31.6162 9.58545 31.9333 9.51892 32.2255 9.38728C32.4929 9.26553 32.7297 9.08488 32.9183 8.85872C33.1164 8.6186 33.2654 8.34155 33.3568 8.04345C33.463 7.70402 33.5154 7.34993 33.5121 6.99414C33.515 6.64348 33.4626 6.29457 33.3568 5.96042C33.2641 5.66407 33.1152 5.38855 32.9183 5.14905C32.7277 4.92287 32.4898 4.74173 32.2216 4.61854C31.9271 4.48889 31.6078 4.42565 31.2863 4.43326ZM39.3472 9.63108C39.5629 9.64443 39.7789 9.61014 39.9801 9.53062C40.1812 9.4511 40.3626 9.32828 40.5115 9.17079C40.787 8.86522 40.9248 8.39583 40.9248 7.7626V3.52242H42.1337V7.8016C42.1433 8.24 42.0776 8.67677 41.9397 9.09277C41.8282 9.42598 41.64 9.72803 41.3905 9.97435C41.143 10.2099 40.8429 10.3825 40.5153 10.4776C39.7534 10.6893 38.9486 10.6893 38.1867 10.4776C37.8604 10.3824 37.5616 10.2098 37.3155 9.97435C37.0665 9.72753 36.8785 9.42563 36.7663 9.09277C36.6284 8.67675 36.5628 8.23999 36.5722 7.8016V3.52242H37.7851V7.7626C37.7851 8.39453 37.9235 8.86392 38.2003 9.17079C38.3471 9.32616 38.5256 9.44775 38.7236 9.52721C38.9215 9.60667 39.1343 9.6421 39.3472 9.63108ZM43.3446 10.1421L45.7993 3.53022H47.6195L50.0471 10.1421V10.4737H48.8537L48.159 8.48815H45.1648L44.4623 10.4737H43.3368L43.3446 10.1421ZM45.5296 7.45053H47.8136L47.4371 6.3466C47.2896 5.91556 47.1713 5.56644 47.0801 5.29143C46.9889 5.01643 46.9112 4.78238 46.8394 4.57563H46.5425L46.4261 4.90525C46.3873 5.01448 46.3446 5.13735 46.2961 5.27193C46.2476 5.40651 46.1952 5.56254 46.137 5.73808C46.0788 5.91361 46.0089 6.1145 45.9255 6.3466L45.5296 7.45053ZM56.8272 10.4737H55.6629L53.5536 7.74309H52.7774V10.4737H51.582V3.52242H53.8272C54.1635 3.52182 54.4995 3.54594 54.8324 3.59458C55.1417 3.63966 55.4368 3.75433 55.6959 3.93005C56.2418 4.29153 56.5148 4.83634 56.5148 5.56449C56.5202 5.84669 56.4721 6.12734 56.3731 6.39146C56.2892 6.61384 56.1634 6.81782 56.0025 6.99219C55.849 7.15606 55.6685 7.29199 55.4688 7.39397C55.2688 7.49678 55.057 7.57472 54.8382 7.62607L56.8272 10.1421V10.4737ZM52.7735 6.69767H53.8233C54.2039 6.71804 54.5826 6.63016 54.9158 6.44412C55.05 6.35397 55.1578 6.22942 55.2281 6.08334C55.2984 5.93727 55.3286 5.77498 55.3155 5.61325C55.3314 5.45274 55.3018 5.29098 55.23 5.14671C55.1582 5.00243 55.0473 4.88153 54.91 4.79798C54.5731 4.62964 54.1991 4.55043 53.8233 4.56783H52.7735V6.69767ZM58.368 3.52242H62.8466V4.58734H59.5478V6.40706H62.6099V7.45248H59.5536V9.40289H62.9146V10.4737H58.368V3.52242ZM65.5924 8.47839C65.6484 8.80451 65.8252 9.09721 66.0873 9.29756C66.388 9.50632 66.7487 9.60981 67.1138 9.59207C67.4613 9.61434 67.8053 9.5113 68.0841 9.30146C68.1951 9.20857 68.2837 9.09141 68.3428 8.95891C68.402 8.82641 68.4303 8.68207 68.4256 8.53691C68.4295 8.40112 68.398 8.26665 68.3344 8.14683C68.2706 8.03807 68.183 7.94536 68.0782 7.87572C67.9533 7.79233 67.8174 7.72669 67.6746 7.68068L67.1351 7.51684L66.6151 7.37251C66.33 7.29659 66.0526 7.19408 65.7865 7.0663C65.558 6.95772 65.3468 6.81575 65.1597 6.64501C64.9928 6.48927 64.8606 6.29985 64.7716 6.08915C64.6757 5.84366 64.6298 5.58136 64.6364 5.31772C64.6431 5.05408 64.7023 4.79445 64.8104 4.55418C64.9245 4.3101 65.0924 4.09533 65.3014 3.92615C65.5318 3.74077 65.7952 3.60111 66.0776 3.51462C66.4075 3.40953 66.7522 3.35882 67.0983 3.36443C67.8111 3.36443 68.3764 3.53347 68.7943 3.87154C69.0005 4.03874 69.1714 4.24562 69.297 4.48006C69.4226 4.7145 69.5004 4.97178 69.5258 5.23682L68.3615 5.33239C68.3049 5.06444 68.1566 4.82494 67.9424 4.6556C67.6811 4.47967 67.3695 4.39471 67.0556 4.41375C66.7593 4.39625 66.4663 4.48316 66.227 4.6595C66.1318 4.73458 66.0553 4.831 66.0038 4.94106C65.9522 5.05112 65.927 5.17178 65.9301 5.29338C65.9247 5.42302 65.9542 5.55171 66.0155 5.66591C66.0779 5.77115 66.1635 5.86057 66.2658 5.92726C66.3904 6.00876 66.5247 6.07428 66.6655 6.12231C66.8227 6.18082 67.0012 6.24323 67.2011 6.30759L67.6921 6.46168C68 6.5592 68.2775 6.66062 68.5245 6.76594C68.753 6.86359 68.9655 6.99507 69.1552 7.15602C69.3261 7.30146 69.4627 7.48336 69.555 7.68848C69.6548 7.93054 69.7024 8.19112 69.6947 8.45304C69.6979 8.7592 69.6315 9.06206 69.5006 9.33852C69.375 9.60446 69.1904 9.83797 68.9612 10.0212C68.7149 10.215 68.4354 10.3617 68.1364 10.4542C67.7948 10.5607 67.4385 10.6127 67.0808 10.6082C66.4493 10.6316 65.8264 10.4557 65.2994 10.105C65.0551 9.92663 64.8505 9.69906 64.6984 9.43681C64.5464 9.17455 64.4504 8.88336 64.4165 8.58177L65.5924 8.47839ZM71.4178 3.52242H73.9405C74.3402 3.51204 74.7388 3.56806 75.1203 3.6882C75.4102 3.77802 75.6758 3.93349 75.8965 4.14265C76.0905 4.33235 76.2357 4.56663 76.3195 4.82529C76.4085 5.09844 76.4524 5.38437 76.4496 5.67176C76.4575 5.99561 76.3966 6.31743 76.271 6.61576C76.1576 6.87662 75.9808 7.10465 75.7568 7.2789C75.5117 7.46126 75.2335 7.59377 74.9379 7.66898C74.5824 7.76066 74.2163 7.8046 73.8493 7.79965H72.6268V10.4737H71.4217L71.4178 3.52242ZM72.6229 6.75619H73.7775C73.9728 6.75765 74.1677 6.74001 74.3596 6.70353C74.523 6.6728 74.6794 6.61267 74.8215 6.52604C74.9522 6.44384 75.0587 6.32802 75.13 6.19057C75.2082 6.02919 75.2461 5.85115 75.2406 5.67176C75.2464 5.48796 75.2085 5.30543 75.13 5.1393C75.0608 5.00008 74.9556 4.88217 74.8254 4.79798C74.6857 4.71074 74.531 4.65054 74.3693 4.62049C74.1775 4.58373 73.9825 4.56609 73.7872 4.56783H72.6132L72.6229 6.75619ZM76.7833 10.1421L79.24 3.53022H81.0602L83.4858 10.1421V10.4737H82.3021L81.6093 8.48815H78.6035L77.9107 10.4737H76.7833V10.1421ZM78.9703 7.45053H81.2523L80.8758 6.3466C80.7284 5.91556 80.61 5.56644 80.5207 5.29143L80.2801 4.57563H79.9735L79.8571 4.90525C79.8183 5.01448 79.7756 5.13735 79.7271 5.27193C79.6786 5.40651 79.6262 5.56254 79.5679 5.73808C79.5097 5.91361 79.4399 6.1145 79.3564 6.3466L78.9703 7.45053ZM90.8248 8.63443C90.7152 8.90638 90.5717 9.16328 90.3979 9.39898C90.2176 9.64063 90.0009 9.85252 89.7556 10.027C89.4897 10.2147 89.1955 10.3583 88.8843 10.4522C88.5268 10.5598 88.1552 10.6124 87.7821 10.6082C87.3002 10.6156 86.822 10.5233 86.3772 10.3371C85.9698 10.1663 85.6028 9.9111 85.3002 9.58817C84.9961 9.25787 84.7618 8.86907 84.6113 8.44524C84.4467 7.98423 84.3646 7.49757 84.3687 7.00779C84.3644 6.51799 84.4465 6.0313 84.6113 5.57034C84.7621 5.14461 84.9978 4.75434 85.3041 4.4235C85.6085 4.09714 85.9773 3.83809 86.3869 3.66285C86.8332 3.47422 87.3135 3.38058 87.7976 3.38784C88.471 3.36378 89.1353 3.54977 89.6993 3.9203C90.2006 4.26357 90.5805 4.75805 90.784 5.33239L89.5596 5.57424C89.4071 5.23643 89.1655 4.94705 88.861 4.73752C88.5391 4.52805 88.1615 4.42193 87.7782 4.43326C87.4639 4.42634 87.1523 4.49312 86.8681 4.6283C86.6064 4.75736 86.3764 4.94322 86.1947 5.17246C86.004 5.41667 85.8617 5.69542 85.7756 5.99358C85.6765 6.32168 85.6275 6.66297 85.6301 7.00584C85.6272 7.35093 85.6776 7.69439 85.7795 8.02395C85.8708 8.31915 86.0177 8.59394 86.2122 8.83337C86.402 9.05821 86.6385 9.23861 86.905 9.36193C87.1951 9.49569 87.5114 9.56234 87.8306 9.55697C88.2272 9.57299 88.618 9.45714 88.9425 9.22735C89.2285 9.01678 89.4612 8.7415 89.6217 8.42378L90.8248 8.63443ZM92.4529 3.52242H96.9315V4.58734H93.6327V6.40706H96.7006V7.45248H93.6385V9.40289H96.9995V10.4737H92.4529V3.52242Z" fill="black"/>
</svg>
