<svg width="85" height="14" viewBox="0 0 85 14" fill="none" xmlns="http://www.w3.org/2000/svg">
<path d="M18.8656 8.8953L16.4952 7.67379L9.60916 11.2487C9.53251 11.2871 9.4417 11.2871 9.36387 11.2487L2.45897 7.67379L0.0873688 8.8953C0.00953381 8.93373 -0.0223077 9.02805 0.0166097 9.10491C0.0319409 9.13635 0.0567065 9.1608 0.0873688 9.17594L9.35089 13.9712C9.42873 14.0096 9.51954 14.0096 9.59619 13.9712L18.8597 9.17594C18.9387 9.14217 18.9753 9.05134 18.9411 8.97332C18.9269 8.93955 18.8998 8.9116 18.8656 8.8953ZM1.82096 6.18561L9.35797 10.0784C9.43463 10.1168 9.52543 10.1168 9.60209 10.0784L17.1403 6.18561C17.2181 6.14718 17.25 6.05286 17.211 5.976C17.1957 5.94573 17.1709 5.92127 17.1403 5.90614L14.9751 4.78593L9.60916 7.57248C9.53251 7.6109 9.4417 7.6109 9.36387 7.57248L3.99208 4.79874L1.82686 5.91895C1.75138 5.94922 1.716 6.03539 1.74785 6.10992C1.762 6.14369 1.78794 6.17047 1.82096 6.18561ZM3.45667 3.36179L9.35797 6.415C9.43463 6.45227 9.52543 6.45227 9.60209 6.415L15.5034 3.36179C15.5812 3.3222 15.6131 3.22904 15.5741 3.15103C15.5588 3.12075 15.534 3.0963 15.5034 3.08116L9.60916 0.027947C9.53251 -0.00931568 9.4417 -0.00931568 9.36387 0.027947L3.46375 3.08116C3.38474 3.11842 3.35054 3.21158 3.38709 3.2896C3.40243 3.31987 3.42601 3.34549 3.45667 3.36179Z" fill="#316AB3"/>
<path d="M53.9613 5.56285C53.703 5.22283 53.2961 5.02487 52.8669 5.02837C51.5908 5.02837 51.3208 6.22427 51.3208 7.19077C51.3208 8.15843 51.5779 9.34152 52.8669 9.34152C53.2985 9.35317 53.7089 9.15288 53.9613 8.80704C54.2962 8.37386 54.387 7.76368 54.387 7.17796C54.387 6.61785 54.2962 6.00768 53.9613 5.56285ZM54.8375 10.1683C54.3658 10.5363 53.7773 10.7296 53.1758 10.7156C52.3645 10.7156 51.7194 10.435 51.3974 10.053V13.1062H49.7617V3.83247H51.1651L51.2689 4.57074C51.6687 3.94659 52.4282 3.67992 53.1758 3.67992C53.7761 3.67177 54.3611 3.87439 54.8245 4.25167C55.6359 4.91425 56.0357 5.91918 56.0357 7.17796C56.0487 8.48914 55.6489 9.50571 54.8375 10.1683Z" fill="#121A43"/>
<path d="M23.0098 10.537V1.40186H24.6974V8.972H27.8933L28.8203 10.5487L23.0098 10.537Z" fill="#121A43"/>
<path d="M45.4269 5.02798C44.9988 5.01983 44.5931 5.21313 44.3325 5.54966C43.9976 5.98167 43.9068 6.59301 43.9068 7.16476C43.9068 7.73768 43.9976 8.36066 44.3325 8.79384C44.5931 9.12921 44.9988 9.32251 45.4269 9.31552C46.7029 9.31552 46.96 8.11962 46.96 7.15195C46.96 6.18545 46.6959 5.02798 45.4269 5.02798ZM47.1027 10.537L46.9989 9.79877C46.6003 10.4218 45.8397 10.6896 45.092 10.6896C44.4929 10.6966 43.9103 10.4998 43.4433 10.1295C42.6319 9.46806 42.2451 8.46314 42.2451 7.20319C42.2451 5.89317 42.6449 4.87544 43.4563 4.21402C43.9256 3.85188 44.5094 3.66207 45.105 3.67954C45.9682 3.67954 46.5874 3.95901 46.8834 4.31533V1.40186H48.5061V10.537H47.1027Z" fill="#121A43"/>
<path d="M66.8199 12.3932C66.176 12.3932 65.1063 12.3175 65.1063 11.4651C65.0945 11.082 65.3504 10.7397 65.7255 10.6384H67.0003C67.6195 10.6384 68.6113 10.6384 68.6113 11.4651C68.6172 12.356 67.4579 12.3932 66.814 12.3932H66.8199ZM66.7043 4.88828C67.452 4.88828 67.9025 5.40996 67.9025 6.13425C67.9025 6.85971 67.452 7.36858 66.7043 7.36858C65.9566 7.36858 65.5061 6.85971 65.5061 6.13425C65.5061 5.40996 65.9566 4.88828 66.7043 4.88828ZM69.333 9.81161C68.6879 9.37844 67.8129 9.36563 67.1289 9.36563H66.0085C65.6736 9.36563 65.2608 9.27713 65.2608 8.88238C65.2608 8.66579 65.4413 8.5016 65.5957 8.41193C65.9495 8.52955 66.3187 8.5901 66.6913 8.5901C68.1478 8.5901 69.3967 7.7121 69.3967 6.29961C69.4132 5.7069 69.0818 5.15727 68.5464 4.88828H69.951L70.6597 3.69238H66.6913C65.1712 3.69238 63.9211 4.55758 63.9211 6.14706C63.907 6.76423 64.1546 7.35926 64.6039 7.78895C64.0626 8.11966 63.7926 8.57729 63.7926 9.13739C63.7961 9.61249 64.0567 10.0492 64.4754 10.2821C63.69 10.664 63.4447 11.6689 63.8822 12.5213C64.6429 13.5519 65.8021 13.666 66.8847 13.666C68.3919 13.666 70.1573 13.1955 70.1573 11.4267C70.1809 10.7851 69.8696 10.1749 69.333 9.81161Z" fill="#121A43"/>
<path d="M79.976 10.7152C79.5786 10.7164 79.1835 10.6605 78.8038 10.5487C77.9405 10.2692 77.2188 9.63345 77.0254 8.74264L78.3521 8.2722C78.4936 9.04773 79.2543 9.41686 79.989 9.41686C80.4006 9.41686 80.7108 9.36563 80.9549 9.22589C81.1601 9.12458 81.2898 8.91848 81.2898 8.69141C81.2898 8.28501 81.0327 8.06842 80.594 7.99273L78.9713 7.7121C77.8627 7.52112 77.2577 6.74559 77.2577 5.90602C77.2577 4.59484 78.4559 3.69238 79.989 3.69238C81.3028 3.69238 82.3594 4.23968 82.6814 5.44722L81.3417 5.95609C81.2002 5.28187 80.581 4.96397 80.002 4.96397C79.7732 4.95582 79.5456 4.98959 79.331 5.06644C79.0349 5.18056 78.8156 5.38434 78.8156 5.71505C78.8156 6.18549 79.2284 6.26234 79.6022 6.32522L80.9549 6.58024C82.0245 6.78286 82.8359 7.45824 82.8359 8.5016C82.8099 9.85004 81.7155 10.7152 79.976 10.7152Z" fill="#121A43"/>
<path d="M32.6195 5.30731C32.3376 5.03715 31.9555 4.89392 31.5628 4.91372C30.6996 4.91372 30.0427 5.5239 29.9648 6.44033H33.0063C33.0252 6.02694 32.8848 5.62171 32.6124 5.30731H32.6195ZM34.6031 7.5978H29.9778C29.966 8.52005 30.7137 9.27811 31.6477 9.28976C31.6642 9.28976 31.6808 9.28976 31.6984 9.28976C32.6124 9.28976 33.09 8.83212 33.3342 8.23359L34.6102 8.76808C34.2752 9.77301 33.2575 10.651 31.7244 10.651C29.7526 10.651 28.3232 9.22571 28.3232 7.139C28.3232 5.25607 29.4955 3.60254 31.5699 3.60254C32.7032 3.60254 33.6313 4.08579 34.1715 5.00222C34.5323 5.6124 34.6491 6.31223 34.6361 7.03769C34.6397 7.22517 34.629 7.41265 34.6031 7.5978Z" fill="#121A43"/>
<path d="M39.597 7.55966L37.8705 7.68659C37.3811 7.72502 36.8905 8.0173 36.8905 8.56459C36.8905 9.08627 37.3162 9.40417 37.8575 9.40417C38.8752 9.40417 39.597 8.85687 39.597 7.86475V7.55966ZM41.1938 8.88249C41.1938 9.18758 41.3742 9.30286 41.6455 9.30286C41.7103 9.3017 41.7752 9.29354 41.8389 9.27724V10.4091C41.616 10.5733 41.3424 10.6548 41.0652 10.6385C40.3565 10.6385 39.8671 10.2065 39.8163 9.69761C39.4425 10.2566 38.7208 10.7025 37.7549 10.7025C36.131 10.7025 35.3066 9.69761 35.3066 8.60302C35.3066 7.33027 36.3114 6.59316 37.5992 6.5035L39.597 6.36377V6.09594C39.597 5.38446 39.1194 4.97689 38.321 4.97689C37.4058 4.97689 36.9683 5.41007 36.8527 6.0843L35.4871 5.79085C35.5897 4.67181 36.6723 3.67969 38.3729 3.67969C40.1383 3.67969 41.2068 4.53207 41.2068 6.22403L41.1938 8.88249Z" fill="#121A43"/>
<path d="M60.8561 7.55966L59.1295 7.68659C58.6401 7.72502 58.1507 8.0173 58.1507 8.56459C58.1507 9.08627 58.5753 9.40417 59.1166 9.40417C60.1343 9.40417 60.8561 8.85687 60.8561 7.86475V7.55966ZM62.4411 8.88249C62.4411 9.18758 62.6215 9.30286 62.8916 9.30286C62.9576 9.3017 63.0225 9.29354 63.085 9.27724V10.4091C62.8633 10.5733 62.5885 10.6548 62.3125 10.6385C61.6037 10.6385 61.1143 10.2065 61.0624 9.69761C60.6886 10.2566 59.9669 10.7025 59.001 10.7025C57.3771 10.7025 56.5527 9.69761 56.5527 8.60302C56.5527 7.33027 57.5575 6.59316 58.8465 6.5035L60.8431 6.36377V6.09594C60.8431 5.38446 60.3666 4.97689 59.5682 4.97689C58.6531 4.97689 58.2144 5.41007 58.0988 6.0843L56.7332 5.79085C56.8358 4.67181 57.9184 3.67969 59.619 3.67969C61.3844 3.67969 62.454 4.53207 62.454 6.22403L62.4411 8.88249Z" fill="#121A43"/>
<path d="M74.5892 5.30731C74.3073 5.03715 73.9252 4.89392 73.5325 4.91372C72.6693 4.91372 72.0124 5.5239 71.9345 6.44033H74.989C74.976 5.96872 74.8474 5.58794 74.5892 5.30731ZM76.5728 7.5978H71.9475C71.9357 8.52005 72.6834 9.27811 73.6174 9.28976C73.6363 9.28976 73.6552 9.28976 73.674 9.28976C74.5892 9.28976 75.0656 8.83212 75.3109 8.23359L76.5858 8.76808C76.2508 9.77301 75.2331 10.651 73.7 10.651C71.7293 10.651 70.2988 9.22571 70.2988 7.139C70.2988 5.25607 71.4711 3.60254 73.5455 3.60254C74.68 3.60254 75.6069 4.08579 76.1482 5.00222C76.5091 5.6124 76.6247 6.31223 76.6117 7.03769C76.6141 7.22517 76.6011 7.41265 76.5728 7.5978Z" fill="#121A43"/>
<path d="M84.2072 4.1757H84.0267V4.44236H84.2072C84.2968 4.44236 84.3617 4.40393 84.3617 4.30262C84.3617 4.20132 84.2909 4.1757 84.2072 4.1757ZM84.3546 4.90115L84.2072 4.58209H84.0267V4.90115H83.884V4.02315H84.2072C84.3628 4.00918 84.5008 4.12446 84.515 4.27933C84.5162 4.28632 84.5162 4.29447 84.5162 4.30262C84.5209 4.41092 84.4607 4.51106 84.3617 4.55764L84.5291 4.90115H84.3546ZM84.1612 3.78095C83.7956 3.7693 83.489 4.05343 83.4772 4.41558C83.4772 4.4377 83.4772 4.45866 83.4784 4.48079C83.4784 4.85341 83.7826 5.15617 84.16 5.15617C84.5374 5.15734 84.844 4.85574 84.844 4.48428C84.844 4.48311 84.844 4.48195 84.844 4.48079C84.8699 4.1198 84.594 3.80773 84.2284 3.78211C84.206 3.78095 84.1836 3.78095 84.1612 3.78095ZM84.1612 5.32036C83.6918 5.32735 83.305 4.95705 83.2979 4.49359C83.292 4.03014 83.6659 3.6482 84.1352 3.64121C84.6058 3.63422 84.9914 4.00452 84.9985 4.46798C84.9997 4.47263 84.9997 4.47613 84.9997 4.48079C85.0103 4.93376 84.6459 5.30988 84.1871 5.32036C84.1789 5.32036 84.1706 5.32036 84.1612 5.32036Z" fill="#121A43"/>
</svg>
