<svg width="62" height="14" viewBox="0 0 62 14" fill="none" xmlns="http://www.w3.org/2000/svg">
<path d="M61.8853 3.03456H55.8895C55.8613 3.03456 55.8343 3.04605 55.8143 3.06651C55.7944 3.08696 55.7832 3.1147 55.7832 3.14363V4.33951C55.7832 4.36844 55.7944 4.39618 55.8143 4.41664C55.8343 4.43709 55.8613 4.44858 55.8895 4.44858H58.1674V10.8552C58.1674 10.8841 58.1786 10.9119 58.1985 10.9323C58.2184 10.9528 58.2455 10.9643 58.2737 10.9643H59.51C59.5382 10.9643 59.5653 10.9528 59.5852 10.9323C59.6051 10.9119 59.6163 10.8841 59.6163 10.8552V4.44988H61.8942C61.9082 4.44988 61.922 4.44706 61.9349 4.44158C61.9478 4.4361 61.9595 4.42806 61.9694 4.41794C61.9792 4.40781 61.9871 4.39578 61.9924 4.38255C61.9978 4.36932 62.0005 4.35513 62.0005 4.34081V3.14493C62.0007 3.1297 61.9978 3.11459 61.992 3.10057C61.9862 3.08655 61.9776 3.07394 61.9668 3.06354C61.9559 3.05315 61.9431 3.0452 61.9291 3.0402C61.915 3.03521 61.9001 3.03329 61.8853 3.03456Z" fill="black"/>
<path d="M54.1385 3.03455H52.911C52.8523 3.03455 52.8047 3.08338 52.8047 3.14362V10.8552C52.8047 10.9154 52.8523 10.9642 52.911 10.9642H54.1385C54.1972 10.9642 54.2448 10.9154 54.2448 10.8552V3.14362C54.2448 3.08338 54.1972 3.03455 54.1385 3.03455Z" fill="black"/>
<path d="M51.3007 3.03449H50.0061C49.9838 3.03437 49.962 3.04145 49.9439 3.05473C49.9257 3.06801 49.912 3.08683 49.9049 3.1085L48.4597 8.38934L46.9766 3.09033C46.9696 3.06841 46.9561 3.04931 46.9379 3.03578C46.9197 3.02225 46.8978 3.01498 46.8753 3.01501H46.116C46.0936 3.01498 46.0717 3.02225 46.0535 3.03578C46.0353 3.04931 46.0217 3.06841 46.0148 3.09033L44.538 8.38934L43.0928 3.10461C43.0856 3.08293 43.072 3.06412 43.0538 3.05084C43.0356 3.03755 43.0139 3.03047 42.9916 3.0306H41.6666C41.6496 3.03064 41.6329 3.03485 41.6178 3.04289C41.6027 3.05093 41.5898 3.06256 41.58 3.0768C41.5702 3.09104 41.5639 3.10748 41.5615 3.12474C41.5592 3.14201 41.561 3.15959 41.5666 3.17602L43.9293 10.9434C43.9366 10.9646 43.9501 10.983 43.968 10.996C43.9859 11.0091 44.0073 11.0161 44.0293 11.0161H45.0011C45.0234 11.0162 45.0452 11.0092 45.0634 10.9959C45.0816 10.9826 45.0952 10.9638 45.1024 10.9421L46.483 5.808L47.8548 10.9408C47.862 10.9625 47.8756 10.9813 47.8938 10.9946C47.9119 11.0079 47.9337 11.015 47.956 11.0148H48.9406C48.9625 11.0148 48.9839 11.0078 49.0018 10.9947C49.0197 10.9817 49.0332 10.9633 49.0406 10.9421L51.4032 3.17862C51.4089 3.16219 51.4106 3.14461 51.4083 3.12734C51.406 3.11008 51.3996 3.09364 51.3898 3.0794C51.3801 3.06515 51.3671 3.05353 51.352 3.04549C51.3369 3.03745 51.3202 3.03323 51.3032 3.03319L51.3007 3.03449Z" fill="black"/>
<path d="M36.977 2.90991C34.765 2.90991 33.0312 4.71088 33.0312 7.01045C33.0312 9.33599 34.7181 11.0902 36.9542 11.0902C39.1663 11.0902 40.9 9.28925 40.9 6.98967C40.9013 4.66283 39.2144 2.90991 36.977 2.90991ZM36.977 9.67489C35.566 9.67489 34.5017 8.52056 34.5017 6.98967C34.5017 5.45879 35.5571 4.32523 36.9568 4.32523C38.3564 4.32523 39.432 5.47956 39.432 7.01045C39.432 8.54133 38.3766 9.67489 36.977 9.67489Z" fill="black"/>
<path d="M31.2653 3.03455H30.0391C30.0109 3.03455 29.9839 3.04604 29.9639 3.06649C29.944 3.08695 29.9328 3.11469 29.9328 3.14362V6.25992H26.4806V3.14362C26.4806 3.11469 26.4694 3.08695 26.4494 3.06649C26.4295 3.04604 26.4024 3.03455 26.3743 3.03455H25.1493C25.1211 3.03455 25.094 3.04604 25.0741 3.06649C25.0542 3.08695 25.043 3.11469 25.043 3.14362V10.8552C25.043 10.8841 25.0542 10.9118 25.0741 10.9323C25.094 10.9528 25.1211 10.9642 25.1493 10.9642H26.3755C26.4037 10.9642 26.4307 10.9528 26.4507 10.9323C26.4706 10.9118 26.4818 10.8841 26.4818 10.8552V7.69212H29.9328V10.8552C29.9328 10.8841 29.944 10.9118 29.9639 10.9323C29.9839 10.9528 30.0109 10.9642 30.0391 10.9642H31.2653C31.2935 10.9642 31.3206 10.9528 31.3405 10.9323C31.3604 10.9118 31.3716 10.8841 31.3716 10.8552V3.14492C31.3718 3.13048 31.3692 3.11616 31.3639 3.10278C31.3586 3.08939 31.3508 3.07722 31.3409 3.06695C31.3311 3.05668 31.3193 3.04853 31.3063 3.04297C31.2933 3.03741 31.2794 3.03454 31.2653 3.03455Z" fill="black"/>
<path d="M20.8808 6.28456C19.2092 5.91709 19.2092 5.54314 19.2092 5.18216C19.2092 4.67836 19.6976 4.32518 20.3987 4.32518C21.0719 4.32518 21.6642 4.55241 22.2425 5.04063L22.4121 5.18216C22.4232 5.19158 22.4361 5.19857 22.45 5.2027C22.4639 5.20683 22.4784 5.20802 22.4927 5.2062C22.507 5.20438 22.5209 5.19958 22.5333 5.1921C22.5458 5.18462 22.5566 5.17461 22.5652 5.16269L23.2891 4.17845C23.3056 4.15574 23.3129 4.12731 23.3093 4.0992C23.3058 4.07108 23.2917 4.04548 23.2701 4.02783L23.1094 3.89799C22.3589 3.24644 21.4003 2.90239 20.4177 2.93193C18.8827 2.93193 17.769 3.90837 17.769 5.25488C17.769 6.78446 18.8219 7.33241 20.4025 7.68559C21.9831 8.03878 21.9919 8.41533 21.9919 8.75682C21.9919 9.30607 21.4857 9.67613 20.7265 9.67613C19.8748 9.67613 19.2332 9.40216 18.5106 8.73215L18.3474 8.58023C18.3259 8.56042 18.2977 8.55014 18.2689 8.55167C18.2545 8.55263 18.2405 8.55658 18.2277 8.56328C18.2148 8.56998 18.2035 8.57928 18.1942 8.59062L17.4286 9.52811C17.4107 9.54979 17.4017 9.5778 17.4036 9.60618C17.4055 9.63456 17.4181 9.66106 17.4387 9.68003L17.5931 9.82156C18.522 10.6721 19.5103 11.0681 20.7024 11.0681C22.3159 11.0681 23.4422 10.0826 23.4422 8.67242C23.4409 7.39993 22.6753 6.68578 20.8808 6.28456Z" fill="black"/>
<path d="M6.8222 0C5.4729 0 4.1539 0.410543 3.03199 1.17971C1.91009 1.94888 1.03567 3.04213 0.519312 4.32122C0.00295595 5.6003 -0.132146 7.00776 0.13109 8.36563C0.394326 9.7235 1.04408 10.9708 1.99818 11.9497C2.95228 12.9287 4.16788 13.5954 5.49126 13.8655C6.81464 14.1356 8.18635 13.997 9.43295 13.4672C10.6795 12.9373 11.745 12.0401 12.4947 10.889C13.2443 9.73785 13.6444 8.38447 13.6444 7C13.6444 5.14348 12.9256 3.36301 11.6462 2.05025C10.3668 0.737498 8.63157 0 6.8222 0ZM8.98111 7.53107C8.96086 8.13305 8.76367 8.71467 8.41544 9.19959C8.09967 9.66693 7.63886 10.0107 7.1082 10.1747H7.09555H2.53982V10.0799C2.51451 9.55017 2.72585 8.9412 3.11688 8.40883C3.4902 7.90243 3.97614 7.53626 4.41779 7.42849H4.42918H8.98491L8.98111 7.53107ZM11.1109 3.92654C11.0907 4.52852 10.8935 5.11015 10.5452 5.59506C10.2295 6.0624 9.76866 6.40614 9.23801 6.57021H9.22535H4.66962V6.47542C4.64431 5.94565 4.85565 5.33667 5.24668 4.8043C5.62 4.2979 6.10594 3.93174 6.5476 3.82397H6.55898H11.1147L11.1109 3.92654Z" fill="black"/>
</svg>
