<svg width="74" height="14" viewBox="0 0 74 14" fill="none" xmlns="http://www.w3.org/2000/svg">
<path d="M41.5935 5.25H38.681V5.54938C39.592 5.54938 39.7385 5.73857 39.7385 6.85803V8.87617C39.7385 9.9955 39.5921 10.2005 38.681 10.2005C37.9815 10.106 37.5095 9.74325 36.8587 9.04956L36.1103 8.26134C37.119 8.08769 37.6558 7.47299 37.6558 6.77917C37.6558 5.91222 36.8913 5.25 35.4593 5.25H32.5957V5.54938C33.5067 5.54938 33.6532 5.73857 33.6532 6.85803V8.87617C33.6532 9.9955 33.5067 10.2005 32.5957 10.2005V10.5H35.8335V10.2005C34.9225 10.2005 34.776 9.9955 34.776 8.87617V8.30874H35.0525L36.8587 10.5H41.5935C43.9202 10.5 44.929 9.30194 44.929 7.86703C44.929 6.43239 43.9203 5.25 41.5935 5.25ZM34.7762 7.81964V5.72304H35.4432C36.1752 5.72304 36.5008 6.21174 36.5008 6.7793C36.5008 7.3312 36.1752 7.81977 35.4432 7.81977H34.7762V7.81964ZM41.6424 10.0113H41.5284C40.9428 10.0113 40.8614 9.86951 40.8614 9.14422V5.72304C40.8614 5.72304 41.5774 5.72304 41.6424 5.72304C43.3346 5.72304 43.6436 6.92109 43.6436 7.85137C43.6436 8.81297 43.3344 10.0113 41.6424 10.0113Z" fill="#00749A"/>
<path d="M23.1513 8.1668L24.2599 4.99329C24.5813 4.07557 24.4367 3.81123 23.4085 3.81123V3.5H26.4289V3.81123C25.4167 3.81123 25.1758 4.04453 24.7741 5.18008L22.9424 10.5H22.7337L21.0948 5.63108L19.4241 10.5H19.2152L17.4319 5.18008C17.0464 4.04453 16.7893 3.81123 15.8574 3.81123V3.5H19.4241V3.81123C18.4761 3.81123 18.2189 4.02894 18.5565 4.99329L19.6328 8.1668L21.2555 3.5H21.5608L23.1513 8.1668Z" fill="#00749A"/>
<path d="M29.0717 10.5C27.1336 10.5 25.5479 9.3156 25.5479 7.86767C25.5479 6.43465 27.1338 5.25 29.0717 5.25C31.0098 5.25 32.5955 6.43465 32.5955 7.86767C32.5955 9.3156 31.0098 10.5 29.0717 10.5ZM29.0717 5.70366C27.4509 5.70366 26.8869 6.91725 26.8869 7.8678C26.8869 8.83312 27.4509 10.0322 29.0717 10.0322C30.7104 10.0322 31.2742 8.83312 31.2742 7.8678C31.2742 6.91725 30.7104 5.70366 29.0717 5.70366Z" fill="#00749A"/>
<path d="M49.6573 10.1767V10.5H45.8096V10.1767C46.9354 10.1767 47.1371 9.90198 47.1371 8.28515V5.69879C47.1371 4.08196 46.9354 3.82345 45.8096 3.82345V3.5H49.2876C51.0182 3.5 51.9762 4.35681 51.9762 5.5048C51.9762 6.62026 51.0182 7.49313 49.2876 7.49313H48.3298V8.28501C48.3298 9.90198 48.5315 10.1767 49.6573 10.1767ZM49.2876 4.08196H48.3298V6.89497H49.2876C50.2287 6.89497 50.6655 6.26455 50.6655 5.5048C50.6655 4.72886 50.2287 4.08196 49.2876 4.08196Z" fill="#464342"/>
<path d="M63.1757 9.01809L63.0913 9.30181C62.9396 9.82211 62.7539 10.0113 61.5564 10.0113H61.3202C60.4433 10.0113 60.2914 9.82211 60.2914 8.70278V7.97763C61.6071 7.97763 61.7084 8.08782 61.7084 8.90777H62.0288V6.55852H61.7084C61.7084 7.37833 61.6071 7.48866 60.2914 7.48866V5.72304H61.2189C62.4167 5.72304 62.602 5.91222 62.7539 6.43252L62.8384 6.73191H63.1081L62.9902 5.25H58.0313V5.54938C58.9757 5.54938 59.1276 5.73857 59.1276 6.85803V8.87617C59.1276 9.90017 58.9987 10.1581 58.254 10.1949C57.5462 10.0939 57.0603 9.73302 56.3955 9.04956L55.6196 8.26134C56.6653 8.08769 57.222 7.47299 57.222 6.77917C57.222 5.91222 56.4293 5.25 54.945 5.25H51.9766V5.54938C52.9209 5.54938 53.0728 5.73857 53.0728 6.85803V8.87617C53.0728 9.9955 52.9211 10.2005 51.9766 10.2005V10.5H55.3331V10.2005C54.3887 10.2005 54.2367 9.9955 54.2367 8.87617V8.30874H54.5235L56.3956 10.5H63.3277L63.4289 9.01823H63.1757V9.01809ZM54.2366 7.81964V5.72304H54.928C55.687 5.72304 56.0245 6.21174 56.0245 6.7793C56.0245 7.3312 55.687 7.81977 54.928 7.81977H54.2366V7.81964Z" fill="#464342"/>
<path d="M66.5388 10.5C65.8254 10.5 65.2012 10.193 64.9337 10.0027C64.8445 10.076 64.6841 10.2953 64.6485 10.5H64.3096V8.48211H64.6662C64.8091 9.44722 65.6292 10.0175 66.6814 10.0175C67.2521 10.0175 67.7158 9.75434 67.7158 9.3157C67.7158 8.93554 67.3057 8.64294 66.5745 8.36512L65.558 7.97032C64.8445 7.69225 64.3096 7.20964 64.3096 6.56632C64.3096 5.86438 65.1121 5.2649 66.2178 5.2649C66.8064 5.2649 67.3055 5.44039 67.6089 5.64506C67.698 5.58656 67.7872 5.42561 67.8408 5.25H68.1796V6.97578H67.805C67.6801 6.28837 67.2165 5.71808 66.2714 5.71808C65.7721 5.71808 65.3082 5.95206 65.3082 6.31781C65.3082 6.69796 65.6828 6.90263 66.5389 7.22441L67.5195 7.61922C68.3757 7.95554 68.7143 8.49689 68.7143 8.93554C68.7143 9.85668 67.7335 10.5 66.5388 10.5Z" fill="#464342"/>
<path d="M71.825 10.5C71.1116 10.5 70.4873 10.193 70.22 10.0027C70.1308 10.076 69.9704 10.2953 69.9348 10.5H69.5959V8.48211H69.9525C70.0952 9.44722 70.9154 10.0175 71.9677 10.0175C72.5384 10.0175 73.0021 9.75434 73.0021 9.3157C73.0021 8.93554 72.592 8.64294 71.8606 8.36512L70.8441 7.97032C70.1308 7.69225 69.5957 7.20964 69.5957 6.56632C69.5957 5.86438 70.3982 5.2649 71.504 5.2649C72.0925 5.2649 72.5917 5.44039 72.895 5.64506C72.9841 5.58656 73.0733 5.42561 73.1266 5.25H73.4655V6.97578H73.0912C72.9662 6.28837 72.5026 5.71808 71.5576 5.71808C71.0582 5.71808 70.5944 5.95206 70.5944 6.31781C70.5944 6.69796 70.9689 6.90263 71.825 7.22441L72.8057 7.61922C73.6618 7.95554 74.0005 8.49689 74.0005 8.93554C74.0005 9.85668 73.0197 10.5 71.825 10.5Z" fill="#464342"/>
<path d="M1.00879 6.99955C1.00879 9.37647 2.40904 11.4306 4.43951 12.404L1.53581 4.55566C1.19805 5.3025 1.00879 6.12897 1.00879 6.99955Z" fill="#464342"/>
<path d="M11.2051 6.6969C11.2051 5.95476 10.9349 5.4408 10.7031 5.04076C10.3946 4.54611 10.1054 4.12721 10.1054 3.63256C10.1054 3.08055 10.5297 2.56671 11.1275 2.56671C11.1545 2.56671 11.1801 2.57002 11.2064 2.57151C10.1234 1.59272 8.68055 0.995117 7.09579 0.995117C4.96918 0.995117 3.0982 2.07149 2.00977 3.70181C2.15258 3.70604 2.28717 3.70901 2.4015 3.70901C3.0382 3.70901 4.02379 3.63279 4.02379 3.63279C4.35193 3.61371 4.39062 4.08916 4.06282 4.12744C4.06282 4.12744 3.73306 4.16572 3.36611 4.18469L5.58284 10.6892L6.91498 6.74787L5.96658 4.18446C5.63878 4.16549 5.32825 4.12721 5.32825 4.12721C5.00022 4.10825 5.03868 3.61348 5.3667 3.63256C5.3667 3.63256 6.37197 3.70878 6.97011 3.70878C7.6067 3.70878 8.5924 3.63256 8.5924 3.63256C8.92078 3.61348 8.95935 4.08894 8.63144 4.12721C8.63144 4.12721 8.30098 4.16549 7.93473 4.18446L10.1345 10.6397L10.7417 8.63814C11.0049 7.80755 11.2051 7.21098 11.2051 6.6969Z" fill="#464342"/>
<path d="M7.20236 7.52539L5.37598 12.7609C5.9213 12.919 6.49801 13.0055 7.09556 13.0055C7.80443 13.0055 8.48423 12.8846 9.117 12.6651C9.10067 12.6394 9.08584 12.6121 9.07368 12.5824L7.20236 7.52539Z" fill="#464342"/>
<path d="M12.4365 4.11865C12.4627 4.30993 12.4775 4.51526 12.4775 4.73614C12.4775 5.34551 12.3621 6.03052 12.0147 6.88705L10.1553 12.1904C11.965 11.1493 13.1822 9.21518 13.1822 6.99983C13.1823 5.95579 12.912 4.97403 12.4365 4.11865Z" fill="#464342"/>
<path d="M7.09587 0C3.18331 0 0 3.1401 0 6.99983C0 10.86 3.18331 14 7.09587 14C11.0083 14 14.1921 10.86 14.1921 6.99983C14.192 3.1401 11.0083 0 7.09587 0ZM7.09587 13.6791C3.36273 13.6791 0.325362 10.6828 0.325362 6.99983C0.325362 3.31709 3.36261 0.320968 7.09587 0.320968C10.8289 0.320968 13.866 3.31709 13.866 6.99983C13.866 10.6828 10.8289 13.6791 7.09587 13.6791Z" fill="#464342"/>
</svg>
