<svg width="75" height="14" viewBox="0 0 75 14" fill="none" xmlns="http://www.w3.org/2000/svg">
<path d="M10.4766 13.0817C9.44578 13.6627 8.26506 14 6.99063 14C3.12985 14 0 10.8702 0 6.99064C0 4.34807 1.48059 2.02411 3.65462 0.843384V10.4204H5.4913V8.69613L6.55957 7.62786L10.4766 13.0817Z" fill="#6B6B6B"/>
<path d="M13.9999 6.99063C13.9999 8.92102 13.2128 10.6827 11.9383 11.9384L7.98385 6.20348L10.6639 3.52343H8.07756L6.91558 4.66667L5.49121 6.09103V0.168675C5.97849 0.0562249 6.48452 0 6.99054 0C10.8701 0 13.9999 3.12985 13.9999 6.99063Z" fill="#59C4E3"/>
<path d="M24.2151 10.6265H26.4828L21.5725 7.00939L26.3329 3.48596H24.0839L19.6796 6.74701V3.48596H18.124V10.6265H19.6796V7.34674L24.2151 10.6265Z" fill="#59C4E3"/>
<path d="M36.94 10.6265L32.9293 3.97324C32.7606 3.67338 32.4233 3.48596 32.0859 3.48596C31.7486 3.48596 31.4112 3.67338 31.2426 3.97324L27.2881 10.6265H29.0311L32.0859 5.36013L33.5665 7.92773H31.1114L30.5304 8.996H34.2037L35.1596 10.6453H36.94V10.6265Z" fill="#59C4E3"/>
<path d="M74.9293 10.6265L70.9186 3.97324C70.7499 3.67338 70.4126 3.48596 70.0752 3.48596C69.7379 3.48596 69.4005 3.67338 69.2318 3.97324L65.2773 10.6265H67.0203L70.0752 5.36013L71.5558 7.92773H69.0819L68.5009 8.996H72.1743L73.1301 10.6453H74.9293V10.6265Z" fill="#59C4E3"/>
<path d="M51.4837 3.48596H49.9844V10.6265H51.4837V3.48596Z" fill="#59C4E3"/>
<path d="M54.3057 4.89342V3.48779L47.1651 3.48779V4.89342L54.3057 4.89342Z" fill="#59C4E3"/>
<path d="M44.6052 8.4713C45.2425 8.07773 45.6548 7.38429 45.6548 6.5784V5.69754C45.6548 4.47933 44.6615 3.46729 43.4245 3.46729H37.9707V10.6078H39.47V4.70423H43.4058C43.968 4.70423 44.4178 5.15403 44.4178 5.71628V6.59714C44.4178 7.00945 44.1742 7.3468 43.8368 7.51548C43.7056 7.5717 43.5745 7.60919 43.4245 7.60919H40.2572V8.82739H43.3683L44.7739 10.6453H46.2732L44.6052 8.4713Z" fill="#59C4E3"/>
<path d="M62.2224 8.4713C62.8596 8.07773 63.272 7.38429 63.272 6.5784V5.69754C63.272 4.47933 62.2787 3.46729 61.0417 3.46729H55.5879V10.6078H57.0872V4.70423H61.023C61.5852 4.70423 62.035 5.15403 62.035 5.71628V6.59714C62.035 7.00945 61.7914 7.3468 61.454 7.51548C61.3228 7.5717 61.1916 7.60919 61.0417 7.60919H57.8744V8.82739H60.9855L62.3911 10.6453H63.8904L62.2224 8.4713Z" fill="#59C4E3"/>
</svg>
