<svg width="69" height="12" viewBox="0 0 69 12" fill="none" xmlns="http://www.w3.org/2000/svg">
<path d="M0 11.8388C0 7.95638 0 4.0001 0 0.0371094C3.94765 0.0371094 7.8886 0.0371094 11.8161 0.0371094C7.87184 3.97659 3.92084 7.92279 0 11.8388Z" fill="#258EFF"/>
<path d="M62.1202 5.81364C62.8876 6.04537 63.3802 6.53235 63.6249 7.27793C63.7656 7.70782 63.7757 8.13434 63.6986 8.57766C63.588 9.19226 63.2998 9.68931 62.7871 10.0352C62.5592 10.1897 62.2945 10.2972 62.0331 10.3879C61.5974 10.5424 61.135 10.5222 60.6792 10.5222C59.2315 10.5222 57.7872 10.5222 56.3395 10.5222C56.2724 10.5222 56.2054 10.5222 56.125 10.5222C56.125 7.47608 56.125 4.44003 56.125 1.38382C56.1786 1.38046 56.2389 1.37374 56.2959 1.37374C57.8274 1.37374 59.3555 1.36367 60.887 1.3771C61.4902 1.38046 62.0833 1.4745 62.5961 1.83385C63.1658 2.23351 63.4908 2.77423 63.5511 3.4795C63.5981 4.00678 63.5143 4.49712 63.2395 4.94716C63.0116 5.31659 62.6932 5.59198 62.2744 5.73304C62.2241 5.74983 62.1772 5.78341 62.1202 5.81364ZM59.4627 8.77917C59.4627 8.77245 59.4627 8.76238 59.4627 8.75566C59.9353 8.75566 60.4145 8.79596 60.8836 8.74558C61.7348 8.6549 61.9225 7.89925 61.6477 7.30144C61.45 6.87492 61.0545 6.70699 60.5988 6.70363C59.8247 6.69692 59.0472 6.70699 58.2731 6.69692C58.1122 6.69356 58.072 6.75737 58.0754 6.90178C58.0787 7.46601 58.0821 8.03023 58.0754 8.59445C58.0754 8.73551 58.1223 8.77917 58.2597 8.77581C58.6618 8.77245 59.064 8.77917 59.4627 8.77917ZM59.4963 5.06806C59.8247 5.06806 60.1531 5.06806 60.4848 5.06806C60.5284 5.06806 60.5753 5.06134 60.6189 5.05799C61.0914 5.03448 61.3662 4.83633 61.5237 4.38293C61.6812 3.92954 61.5405 3.46271 61.135 3.27464C60.9238 3.17724 60.6792 3.12015 60.448 3.11679C59.7275 3.09664 59.0103 3.11343 58.2898 3.10671C58.1256 3.10336 58.0754 3.15709 58.0754 3.3183C58.0821 3.84222 58.0821 4.3695 58.0754 4.89342C58.072 5.03783 58.1256 5.07142 58.2597 5.07142C58.6719 5.0647 59.0841 5.06806 59.4963 5.06806Z" fill="#30373E"/>
<path d="M53.9229 10.5224C53.2828 10.5224 52.6528 10.5224 52.0228 10.5224C51.7245 10.5224 51.7212 10.5224 51.6173 10.247C51.4799 9.89104 51.3492 9.53504 51.2185 9.17569C51.1783 9.06486 51.1213 9.01112 50.9906 9.01112C49.8077 9.01784 48.6214 9.01784 47.4384 9.01112C47.3077 9.01112 47.2508 9.06486 47.2105 9.17569C47.053 9.58878 46.8955 10.0019 46.7313 10.4116C46.7146 10.4553 46.6543 10.5157 46.614 10.5157C45.9103 10.5224 45.2066 10.5191 44.4727 10.5191L47.9143 1.58219C47.978 1.40419 48.0584 1.37061 48.2226 1.37061C48.8828 1.37732 49.5396 1.37396 50.1998 1.37396C50.4444 1.37396 50.4343 1.37732 50.5449 1.66951C50.8164 2.38486 53.9229 10.4788 53.9229 10.5224ZM50.6086 7.1371C50.5583 7.01283 50.5215 6.92216 50.488 6.83148C50.2802 6.25046 50.0758 5.66945 49.8646 5.09179C49.6736 4.56787 49.4759 4.04731 49.2782 3.52674C49.2681 3.49987 49.2413 3.47972 49.2212 3.45957C49.1944 3.48308 49.1576 3.49988 49.1442 3.5301C49.0403 3.79878 48.9397 4.0641 48.8392 4.33613C48.5845 5.02798 48.3265 5.72318 48.0718 6.41838C47.9847 6.65012 47.9042 6.88857 47.8171 7.14046C48.7588 7.1371 49.6636 7.1371 50.6086 7.1371Z" fill="#30373E"/>
<path d="M35.2979 10.5224C34.6578 10.5224 34.0278 10.5224 33.3978 10.5224C33.0995 10.5224 33.0962 10.5224 32.9923 10.247C32.8549 9.89104 32.7242 9.53504 32.5935 9.17569C32.5533 9.06486 32.4963 9.01112 32.3656 9.01112C31.1827 9.01784 29.9964 9.01784 28.8134 9.01112C28.6827 9.01112 28.6258 9.06486 28.5855 9.17569C28.428 9.58878 28.2705 10.0019 28.1063 10.4116C28.0896 10.4553 28.0293 10.5157 27.989 10.5157C27.2853 10.5224 26.5816 10.5191 25.8477 10.5191L29.2893 1.58219C29.353 1.40419 29.4334 1.37061 29.5976 1.37061C30.2578 1.37732 30.9146 1.37396 31.5748 1.37396C31.8194 1.37396 31.8093 1.37732 31.9199 1.66951C32.1914 2.38486 35.2979 10.4788 35.2979 10.5224ZM31.9803 7.1371C31.93 7.01283 31.8931 6.92216 31.8596 6.83148C31.6518 6.25046 31.4474 5.66945 31.2363 5.09179C31.0453 4.56787 30.8476 4.04731 30.6498 3.52674C30.6398 3.49987 30.613 3.47972 30.5929 3.45957C30.5661 3.48308 30.5292 3.49988 30.5158 3.5301C30.4119 3.79878 30.3114 4.0641 30.2108 4.33613C29.9562 5.02798 29.6981 5.72318 29.4434 6.41838C29.3563 6.65012 29.2759 6.88857 29.1887 7.14046C30.1338 7.1371 31.0386 7.1371 31.9803 7.1371Z" fill="#30373E"/>
<path d="M18.579 5.40379C18.646 5.35006 18.6963 5.31983 18.7298 5.27617C19.5173 4.27871 20.3015 3.27788 21.089 2.27706C21.2968 2.01174 21.5045 1.74642 21.7224 1.48782C21.7659 1.43408 21.8464 1.38035 21.91 1.38035C22.6305 1.37363 23.351 1.37699 24.0715 1.37699C24.0916 1.37699 24.1117 1.38371 24.1653 1.39378C24.1285 1.45424 24.105 1.50797 24.0715 1.54827C23.5186 2.20653 22.9623 2.86143 22.406 3.51634C21.8631 4.1578 21.3169 4.79927 20.7773 5.44074C20.5696 5.68591 20.5696 5.65232 20.774 5.90085C21.4007 6.67666 22.0173 7.46254 22.6372 8.2417C23.2304 8.98728 23.8269 9.73286 24.4401 10.502C24.3664 10.5087 24.3027 10.5187 24.2424 10.5187C23.5722 10.5187 22.902 10.5154 22.2317 10.5255C22.0843 10.5288 21.9938 10.4751 21.9134 10.3676C21.2968 9.54479 20.6835 8.72532 20.0669 7.9025C19.8524 7.61703 19.6379 7.33156 19.4235 7.04609C19.3062 6.88824 19.2894 6.88824 19.1654 7.03265C19.0079 7.21737 18.8404 7.39537 18.6963 7.59016C18.636 7.67076 18.5857 7.78831 18.5857 7.88906C18.5756 8.70517 18.579 9.52464 18.5823 10.3407C18.5823 10.4717 18.5589 10.5288 18.4114 10.5255C17.8819 10.5154 17.3491 10.5221 16.8196 10.5221C16.766 10.5221 16.7124 10.5154 16.642 10.5087C16.642 10.4348 16.642 10.3743 16.642 10.3139C16.642 7.40544 16.6454 4.49365 16.6387 1.58522C16.6387 1.40722 16.6923 1.37027 16.8565 1.37027C17.3692 1.38035 17.8853 1.38035 18.398 1.37027C18.5488 1.36691 18.5857 1.41729 18.5857 1.56171C18.579 2.77076 18.5823 3.9798 18.5823 5.18885C18.579 5.24931 18.579 5.31312 18.579 5.40379Z" fill="#30373E"/>
<path d="M42.3054 1.37358C42.3054 1.45083 42.3054 1.50792 42.3054 1.56166C42.3054 3.64391 42.3155 5.72616 42.3021 7.80841C42.2954 8.57078 42.0507 9.26263 41.5146 9.82013C41.1459 10.2064 40.6768 10.4314 40.1607 10.559C39.4134 10.7404 38.6728 10.7269 37.9355 10.5221C37.4932 10.3978 37.091 10.1862 36.7526 9.86379C36.7157 9.83021 36.6956 9.72945 36.7191 9.68915C36.9536 9.25927 37.1983 8.83946 37.4362 8.40958C37.4999 8.29203 37.5535 8.30882 37.6373 8.38607C38.026 8.74206 38.4784 8.97044 39.0112 8.94357C39.7083 8.91335 40.2344 8.54056 40.3282 7.74124C40.3785 7.32143 40.345 6.89491 40.345 6.46838C40.345 4.82945 40.3484 3.18716 40.3417 1.54822C40.3417 1.41053 40.3819 1.36351 40.5226 1.36687C41.1057 1.3803 41.6922 1.37358 42.3054 1.37358Z" fill="#30373E"/>
<path d="M7.15015 7.30518C8.69167 8.84335 10.2466 10.3983 11.8149 11.9634C8.70173 11.9634 5.59521 11.9634 2.48535 11.9634C4.05034 10.4017 5.60862 8.84671 7.15015 7.30518Z" fill="#258EFF"/>
<path d="M67.0801 10.5088C67.0801 7.46268 67.0801 4.42998 67.0801 1.38721C67.7235 1.38721 68.3569 1.38721 69.0003 1.38721C69.0003 4.42326 69.0003 7.45932 69.0003 10.5088C68.3669 10.5088 67.7302 10.5088 67.0801 10.5088Z" fill="#30373E"/>
</svg>
