<svg width="51" height="14" viewBox="0 0 51 14" fill="none" xmlns="http://www.w3.org/2000/svg">
<path d="M10.0412 2.47482C10.0322 2.40992 9.97492 2.37391 9.92735 2.36999C9.88015 2.36607 8.95531 2.35217 8.95531 2.35217C8.95531 2.35217 8.18184 1.60907 8.10543 1.53348C8.02905 1.45789 7.87982 1.48071 7.82179 1.49782C7.82108 1.49818 7.67655 1.54239 7.43327 1.61692C7.39254 1.48641 7.3327 1.32596 7.24728 1.16479C6.97194 0.644906 6.56862 0.36999 6.08133 0.369279C6.08061 0.369279 6.08024 0.369279 6.07953 0.369279C6.04564 0.369279 6.01213 0.372488 5.97826 0.375339C5.96384 0.358223 5.94942 0.341466 5.93429 0.325062C5.72199 0.100424 5.44989 -0.00904344 5.12371 0.000583955C4.49442 0.0184125 3.86766 0.468048 3.35947 1.26677C3.00193 1.82872 2.72981 2.53474 2.65268 3.08135C1.93004 3.30278 1.42473 3.45752 1.41356 3.4611C1.04882 3.57448 1.03728 3.58553 0.989709 3.92572C0.954388 4.18279 0 11.4839 0 11.4839L7.99804 12.8524L11.4645 11.9999C11.4645 11.9999 10.0503 2.53973 10.0412 2.47482ZM7.03284 1.73958C6.84867 1.79592 6.63925 1.8601 6.41219 1.92963C6.40751 1.61442 6.36967 1.17584 6.22118 0.796805C6.69873 0.886305 6.93372 1.4208 7.03284 1.73958ZM5.99375 2.05799C5.57459 2.18635 5.11721 2.32649 4.65841 2.46698C4.78743 1.97812 5.03216 1.4914 5.33276 1.17227C5.44448 1.05354 5.60089 0.921249 5.78615 0.845655C5.96023 1.20508 5.99808 1.7139 5.99375 2.05799ZM5.13631 0.414918C5.28408 0.411709 5.40843 0.443801 5.51476 0.512976C5.34464 0.600336 5.18028 0.725848 5.02603 0.889514C4.62632 1.31383 4.31997 1.97242 4.19778 2.60783C3.81682 2.72442 3.44415 2.83889 3.10103 2.94372C3.31766 1.94354 4.16498 0.44273 5.13631 0.414918Z" fill="#95BF47"/>
<path d="M9.92736 2.37035C9.88016 2.36643 8.95532 2.35253 8.95532 2.35253C8.95532 2.35253 8.18187 1.60943 8.10546 1.53384C8.07699 1.50566 8.03843 1.49105 7.99805 1.48499L7.99842 12.8521L11.4646 11.9999C11.4646 11.9999 10.0503 2.54009 10.0413 2.47518C10.0322 2.41028 9.97458 2.37427 9.92736 2.37035Z" fill="#5E8E3E"/>
<path d="M6.07707 4.13352L5.6745 5.62361C5.6745 5.62361 5.22542 5.42144 4.69308 5.4546C3.9124 5.50346 3.90411 5.99053 3.91206 6.11284C3.95458 6.77926 5.72675 6.92475 5.82624 8.48581C5.90444 9.71384 5.16774 10.5539 4.10632 10.6202C2.83223 10.6997 2.13086 9.9563 2.13086 9.9563L2.40082 8.82027C2.40082 8.82027 3.10686 9.34729 3.672 9.31198C4.04108 9.28881 4.17298 8.99179 4.15965 8.78176C4.10415 7.91244 2.66103 7.96378 2.56985 6.53536C2.49308 5.33338 3.29106 4.11533 5.05168 4.00551C5.72999 3.96237 6.07707 4.13352 6.07707 4.13352Z" fill="white"/>
<path d="M16.0396 7.30363C15.6113 7.05934 15.3912 6.85343 15.3912 6.57038C15.3912 6.21023 15.697 5.97885 16.1744 5.97885C16.7302 5.97885 17.2264 6.22314 17.2264 6.22314L17.6178 4.96259C17.6178 4.96259 17.2579 4.66663 16.1986 4.66663C14.7244 4.66663 13.7028 5.55409 13.7028 6.80173C13.7028 7.50913 14.1798 8.04937 14.8162 8.43496C15.3302 8.74344 15.5138 8.96229 15.5138 9.28368C15.5138 9.61801 15.2568 9.88812 14.7798 9.88812C14.0688 9.88812 13.3974 9.50212 13.3974 9.50212L12.9814 10.7627C12.9814 10.7627 13.6018 11.2 14.6453 11.2C16.1625 11.2 17.2514 10.4154 17.2514 9.00064C17.251 8.24237 16.7006 7.70213 16.0396 7.30363Z" fill="black"/>
<path d="M22.5806 4.58062C21.7557 4.58062 21.1067 4.96465 20.6066 5.54692L20.5794 5.53361L21.296 1.8667H19.4299L17.6182 11.1996H19.4842L20.1061 8.00939C20.3494 6.80455 20.9848 6.06352 21.58 6.06352C21.9989 6.06352 22.1615 6.34155 22.1615 6.73888C22.1615 6.99033 22.1344 7.29497 22.0804 7.54642L21.3775 11.2H23.2436L23.9736 7.42712C24.0548 7.0298 24.1091 6.55353 24.1091 6.23557C24.1083 5.20279 23.554 4.58062 22.5806 4.58062Z" fill="black"/>
<path d="M28.3525 4.66663C26.3575 4.66663 25.0361 6.58835 25.0361 8.72764C25.0361 10.0983 25.829 11.2 27.3193 11.2C29.2779 11.2 30.5998 9.32973 30.5998 7.13895C30.5998 5.87081 29.9026 4.66663 28.3525 4.66663ZM27.5354 9.84252C26.9706 9.84252 26.7302 9.33012 26.7302 8.68942C26.7302 7.67748 27.2231 6.02487 28.1242 6.02487C28.7131 6.02487 28.905 6.56299 28.905 7.08828C28.905 8.17702 28.4128 9.84252 27.5354 9.84252Z" fill="black"/>
<path d="M35.0949 4.66663C33.7861 4.66663 33.0434 5.7663 33.0434 5.7663H33.0156L33.1281 4.77398H31.414C31.3299 5.44465 31.1749 6.46349 31.0208 7.22805L29.6719 14H31.6109L32.1444 11.2642H32.1869C32.1869 11.2642 32.5847 11.5055 33.325 11.5055C35.6009 11.5055 37.0901 9.27963 37.0901 7.0264C37.0901 5.77979 36.5138 4.66663 35.0949 4.66663ZM33.2403 10.1111C32.737 10.1111 32.4391 9.84292 32.4391 9.84292L32.7624 8.11302C32.9873 6.95987 33.6194 6.19531 34.294 6.19531C34.8841 6.19531 35.0666 6.71821 35.0666 7.21458C35.0666 8.40812 34.322 10.1111 33.2403 10.1111Z" fill="black"/>
<path d="M39.9351 1.8667C39.384 1.8667 38.9453 2.30524 38.9453 2.86886C38.9453 3.38254 39.271 3.73337 39.7598 3.73337H39.7848C40.3238 3.73337 40.7872 3.36993 40.7999 2.73121C40.7999 2.23011 40.4615 1.8667 39.9351 1.8667Z" fill="black"/>
<path d="M37.0908 11.2H38.7452L39.8726 4.66663H38.2057L37.0908 11.2Z" fill="black"/>
<path d="M45.4725 4.80377H44.0922L44.1638 4.50339C44.2789 3.8899 44.6816 3.34158 45.3429 3.34158C45.6958 3.34158 45.9752 3.43297 45.9752 3.43297L46.3634 2.02325C46.3634 2.02325 46.0184 1.8667 45.2849 1.8667C44.5804 1.8667 43.8765 2.04946 43.3442 2.46705C42.6684 2.98917 42.3521 3.74606 42.1941 4.50339L42.1369 4.80377H41.2164L40.9288 6.16147H41.8493L40.7998 11.2H42.784L43.8335 6.16147H45.1994L45.4725 4.80377Z" fill="black"/>
<path d="M49.2126 4.66705C49.2126 4.66705 48.1419 7.52003 47.6611 9.07739H47.6361C47.6036 8.57586 47.2141 4.66705 47.2141 4.66705H45.4144L46.445 10.5605C46.47 10.6916 46.4575 10.7707 46.4077 10.8626C46.2088 11.2694 45.8739 11.6633 45.4767 11.9522C45.154 12.2015 44.7941 12.359 44.5088 12.464L44.9803 14C45.328 13.9213 46.0476 13.6192 46.6557 13.0154C47.4379 12.2411 48.1575 11.0464 48.9021 9.41859L50.9997 4.66663H49.2126V4.66705Z" fill="black"/>
</svg>
