<svg width="65" height="14" viewBox="0 0 65 14" fill="none" xmlns="http://www.w3.org/2000/svg">
<path d="M14.0704 7.03522C14.0704 10.5176 11.5271 13.4053 8.20906 13.9922L8.16993 13.9609C8.18558 13.9609 8.1934 13.953 8.20906 13.953V8.99162H9.77418L10.0872 7.03522H8.20906V5.66574C8.20906 5.11794 8.4047 4.68754 9.26551 4.68754H10.1655V2.89547C9.65679 2.81722 9.109 2.73896 8.60034 2.73896C6.99609 2.73896 5.86138 3.71716 5.86138 5.47792V7.04304H4.10062V8.99944H5.86138V13.9609C5.87703 13.9609 5.88485 13.9687 5.9005 13.9687L5.86138 14C2.54332 13.4053 0 10.5176 0 7.03522C0 3.16937 3.16154 0 7.03522 0C10.9011 0 14.0704 3.16937 14.0704 7.03522Z" fill="url(#paint0_linear)"/>
<path d="M24.8146 5.75185C24.7912 5.75185 24.7599 5.75185 24.7364 5.75185C23.1165 5.75185 22.373 6.97264 22.373 8.7021C22.373 10.8854 23.3356 11.7541 24.752 11.7541C25.5581 11.7541 26.0902 11.4098 26.4189 10.7759V11.6367H28.0857V5.86141H26.4189V6.75353C26.145 6.18226 25.605 5.75967 24.8146 5.75185ZM25.2372 7.1135C25.918 7.1135 26.325 7.59086 26.325 8.3969V9.21859C26.325 9.76638 25.9885 10.4003 25.2372 10.4003C24.079 10.4003 24.1103 9.14816 24.1103 8.7334C24.1103 7.33262 24.7286 7.1135 25.2372 7.1135ZM28.7509 8.75688C28.7509 8.05258 28.7196 5.75967 31.709 5.75967C32.9141 5.75967 33.415 6.14313 33.415 6.14313L33.008 7.39522C33.008 7.39522 32.5072 7.12133 31.8499 7.12133C31.0125 7.12133 30.4804 7.60652 30.4804 8.45951V9.0699C30.4804 9.89159 30.9969 10.4394 31.8499 10.4394C32.4446 10.4394 32.9924 10.1577 32.9924 10.1577L33.3915 11.3863C33.3915 11.3863 32.9298 11.7697 31.709 11.7697C28.8683 11.7619 28.7509 9.69595 28.7509 8.75688ZM43.1657 5.75185C44.7856 5.75185 45.5447 6.97264 45.5447 8.7021C45.5447 10.8854 44.5821 11.7541 43.1657 11.7541C42.3596 11.7541 41.7571 11.4098 41.4362 10.7759V11.6367H39.7928V2.97376L41.5379 2.82507V6.67527C41.7884 6.00227 42.6179 5.75185 43.1657 5.75185ZM42.6805 7.1135C41.9997 7.1135 41.5379 7.59086 41.5379 8.3969V9.21859C41.5379 9.76638 41.8588 10.4003 42.6805 10.4003C43.8387 10.4003 43.8074 9.14816 43.8074 8.7334C43.8074 7.33262 43.1891 7.1135 42.6805 7.1135ZM36.4357 5.75967C34.5966 5.75967 33.6263 6.76135 33.6263 8.54559V8.87426C33.6263 11.1906 34.9879 11.7854 36.6156 11.7854C38.1964 11.7854 38.9085 11.3472 38.9085 11.3472L38.5799 10.1733C38.5799 10.1733 37.7347 10.5333 36.8191 10.5333C35.8644 10.5333 35.4575 10.2907 35.3557 9.3751H39.0494V8.4282C39.0494 6.48745 37.9616 5.75967 36.4357 5.75967ZM36.4826 6.93351C37.1165 6.93351 37.5312 7.32479 37.5078 8.23256H35.3635C35.4027 7.27784 35.8409 6.93351 36.4826 6.93351ZM49.0192 5.75185C47.1333 5.75185 46.1394 6.81613 46.1394 8.72558C46.1394 11.3393 47.8532 11.7619 49.027 11.7619C50.7409 11.7619 51.8834 10.8385 51.8834 8.74905C51.8834 6.56571 50.6 5.75185 49.0192 5.75185ZM48.9957 7.12133C49.8253 7.12133 50.1539 7.73955 50.1539 8.45168V9.06208C50.1539 9.92289 49.6922 10.4159 48.9879 10.4159C48.3306 10.4159 47.8689 9.9542 47.8689 9.06208V8.45168C47.8767 7.50478 48.4245 7.12133 48.9957 7.12133ZM55.358 5.75185C53.472 5.75185 52.4781 6.81613 52.4781 8.72558C52.4781 11.3393 54.1919 11.7619 55.3658 11.7619C57.0796 11.7619 58.2221 10.8385 58.2221 8.74905C58.2221 6.56571 56.9309 5.75185 55.358 5.75185ZM55.3345 7.12133C56.164 7.12133 56.4927 7.73955 56.4927 8.45168V9.06208C56.4927 9.92289 56.031 10.4159 55.3267 10.4159C54.6693 10.4159 54.2076 9.9542 54.2076 9.06208V8.45168C54.2076 7.50478 54.7632 7.12133 55.3345 7.12133ZM58.8795 11.6445V2.97376L60.6324 2.82507V8.63949L62.3697 5.86923H64.2165L62.4088 8.7334L64.287 11.6445H62.4323L60.6324 8.81948V11.6445H58.8795Z" fill="url(#paint1_linear)"/>
<path d="M21.6225 4.17106H22.272V2.87201C21.9042 2.81723 21.5051 2.76245 21.1373 2.76245C19.9791 2.76245 19.1574 3.46676 19.1574 4.74233V5.86921H17.8818V7.28565H19.1574V11.6445H20.8556V7.28565H21.9903L22.2172 5.86921H20.8556V4.88319C20.8556 4.48408 20.9964 4.17106 21.6225 4.17106Z" fill="url(#paint2_linear)"/>
<defs>
<linearGradient id="paint0_linear" x1="-20.7967" y1="6.9349" x2="114.559" y2="7.24079" gradientUnits="userSpaceOnUse">
<stop stop-color="#0062E0"/>
<stop offset="1" stop-color="#19AFFF"/>
</linearGradient>
<linearGradient id="paint1_linear" x1="-20.7975" y1="7.14635" x2="114.558" y2="7.45224" gradientUnits="userSpaceOnUse">
<stop stop-color="#0062E0"/>
<stop offset="1" stop-color="#19AFFF"/>
</linearGradient>
<linearGradient id="paint2_linear" x1="-20.7968" y1="7.10791" x2="114.559" y2="7.41379" gradientUnits="userSpaceOnUse">
<stop stop-color="#0062E0"/>
<stop offset="1" stop-color="#19AFFF"/>
</linearGradient>
</defs>
</svg>
