<svg width="57" height="14" viewBox="0 0 57 14" fill="none" xmlns="http://www.w3.org/2000/svg">
<path d="M55.8642 11.2538C55.8642 11.2538 55.3493 11.7118 54.7412 11.9519C53.747 12.3432 52.5441 12.0097 51.8295 11.2182C50.9862 10.2845 50.7732 8.8172 51.2525 7.66115C51.5499 6.94083 52.118 6.33168 52.8282 6.01154C53.2854 5.80701 53.8003 5.72253 54.3018 5.78033C54.9854 5.85592 55.4692 6.22052 55.6822 6.35836C55.6822 4.78879 55.6822 3.24145 55.6822 1.67188C56.1083 1.67188 57.0005 1.67632 57.0005 1.67632V12.072H55.8686V11.2538H55.8642ZM55.7266 8.9506C55.7266 8.89279 55.7266 8.83944 55.7222 8.78163C55.7088 8.43481 55.66 8.0791 55.4825 7.78564C55.3094 7.49663 55.0297 7.28765 54.7235 7.15426C54.4172 7.02087 54.0754 6.96306 53.747 7.02087C53.4185 7.08312 53.1167 7.26542 52.8859 7.51441C52.5397 7.89236 52.371 8.41258 52.3799 8.92392C52.4021 9.91991 53.059 10.9515 54.1465 10.9159C54.6258 10.8981 55.0919 10.6491 55.3715 10.2578C55.6423 9.88878 55.7266 9.41747 55.7266 8.9506Z" fill="#313131"/>
<path d="M35.9657 7.82557C35.9657 7.82557 34.9626 10.6357 34.461 12.0318C34.1015 12.0318 33.2981 12.0274 33.2981 12.0274C33.2981 12.0274 31.3274 6.0648 31.3008 5.92697C31.7846 5.92697 32.6989 5.92697 32.6989 5.92697C32.6989 5.92697 33.8885 10.0577 33.9373 10.1421C34.5276 8.74152 34.9537 7.33647 35.4819 5.93141C35.7926 5.93141 36.1388 5.93141 36.5205 5.93141C37.0088 7.30979 38.0296 10.1421 38.0296 10.1421L39.2502 5.90918H40.7017C40.7017 5.90918 38.7576 11.7784 38.6821 12.0318C38.327 12.0318 37.537 12.0274 37.537 12.0274C37.5103 12.0763 35.9657 7.82557 35.9657 7.82557Z" fill="#313131"/>
<path d="M24.5589 12.0184C24.5589 12.0184 23.6356 12.0184 23.1696 12.0184C23.1563 11.8183 23.143 11.6271 23.1296 11.4492C22.8988 11.556 22.6858 11.636 22.4905 11.7471C21.6738 12.2007 20.4488 12.1918 19.6853 11.6271C19.2637 11.3158 18.9663 10.8134 18.9485 10.2887C18.913 9.25273 19.6365 8.41236 20.5508 8.15003C20.9547 8.03442 21.6205 7.97662 23.1518 8.04776C23.2539 7.40304 22.7302 6.96285 21.9978 6.91838C21.0923 6.86503 20.067 7.10513 20.067 7.10513L19.743 6.2203C19.743 6.2203 20.5819 5.9802 20.8216 5.93129C21.2788 5.83347 21.7537 5.79345 22.2197 5.81123C22.9965 5.83791 23.8664 6.17139 24.2881 6.86058C24.5455 7.27854 24.5544 7.78543 24.5589 8.26119C24.5722 9.43948 24.5589 12.0184 24.5589 12.0184ZM23.1474 9.03486C22.6991 8.97261 21.8647 8.97705 21.7448 8.99039C21.3853 9.01707 20.9636 9.14157 20.6662 9.35055C20.2446 9.64846 20.1869 10.2487 20.5775 10.6311C20.7683 10.8179 21.0346 10.9112 21.2965 10.9379C21.6383 10.9735 22.7479 10.7867 23.1341 10.3643C23.1652 9.93747 23.1474 9.51062 23.1474 9.03486Z" fill="#313131"/>
<path d="M49.8717 12.0275C49.3879 12.0275 48.9396 12.0275 48.4647 12.0275C48.4647 11.9431 48.4647 11.863 48.4647 11.783C48.4647 10.5691 48.4691 9.35972 48.4603 8.14586C48.4558 7.70567 48.2783 7.29216 47.8566 7.07873C47.3284 6.8075 46.5916 6.94979 46.1433 7.31884C45.9569 7.47001 45.7749 7.92799 45.7794 8.16809C45.7927 9.35972 45.7838 10.5469 45.7794 11.7385C45.7794 11.8275 45.7794 11.9119 45.7794 12.0187C45.3089 12.0187 44.8606 12.0187 44.3945 12.0187C44.3945 9.99555 44.3945 7.96356 44.3945 5.92267C44.8473 5.92267 45.3 5.92267 45.7616 5.92267C45.7705 6.09163 45.7838 6.24281 45.7927 6.4429C45.7882 6.40733 46.3741 5.59364 47.8832 5.68257C48.3715 5.70925 49.1038 6.05162 49.4101 6.50515C49.5477 6.70524 49.6365 6.90977 49.7119 7.13653C49.9694 7.88353 49.8406 8.65275 49.8584 9.41308C49.8806 10.1956 49.8628 10.9782 49.8628 11.7608C49.8717 11.8408 49.8717 11.9208 49.8717 12.0275Z" fill="#313131"/>
<path d="M18.2603 10.9603L18.2469 11.9741C18.2469 11.9741 17.1684 12.352 16.183 11.7251C15.7791 11.4672 15.4995 10.9692 15.4551 10.1777C15.3796 8.88385 15.4151 7.16755 15.4151 7.16755H14.4697V6.06485H15.4418C15.4418 6.06485 15.4418 4.48194 15.4418 3.68604C15.8812 3.68604 16.8399 3.68604 16.8399 3.68604L16.8355 6.06485H18.1093L18.1005 7.16755H16.8177C16.8177 7.16755 16.8355 9.06171 16.8621 9.90207C16.8665 10.0844 16.8754 10.2711 16.9376 10.4445C17.0397 10.7335 17.2705 10.9203 17.5945 10.9559C17.8386 10.9825 18.2603 10.9603 18.2603 10.9603Z" fill="#313131"/>
<path d="M30.5152 12.0186C30.0535 12.0186 29.6008 12.0186 29.1348 12.0186C29.1348 8.62599 29.1348 5.23785 29.1348 1.84082C29.5964 1.84082 30.0491 1.84082 30.5152 1.84082C30.5152 5.23785 30.5152 8.6171 30.5152 12.0186Z" fill="#313131"/>
<path d="M43.253 12.0187C42.7869 12.0187 42.3342 12.0187 41.8682 12.0187C41.8682 9.99118 41.8682 7.97253 41.8682 5.93164C42.3209 5.93164 42.7825 5.93164 43.253 5.93164C43.253 7.96364 43.253 9.98229 43.253 12.0187Z" fill="#313131"/>
<path d="M41.877 2.93457L43.2573 2.93902V4.47302L41.877 4.47746V2.93457Z" fill="#313131"/>
<path d="M27.2081 12.0186C26.742 12.0186 26.2893 12.0186 25.8232 12.0186C25.8232 9.99106 25.8232 7.97241 25.8232 5.93152C26.276 5.93152 26.7376 5.93152 27.2081 5.93152C27.2081 7.96351 27.2081 9.98217 27.2081 12.0186Z" fill="#313131"/>
<path d="M25.832 2.93457L27.2124 2.93902V4.47302L25.832 4.47746V2.93457Z" fill="#313131"/>
<path opacity="0.5" d="M3.03154 0C3.03154 0 7.97609 7.35876 4.05685 12.6144L0 12.6099C0 12.6099 4.90905 7.63443 3.03154 0Z" fill="#0091CE"/>
<path opacity="0.8" d="M7.74085 2.44104C7.74085 2.44104 7.49673 9.62194 0 12.6099L1.26943 13.8549C1.26943 13.8549 6.98186 13.0012 8.0116 10.2311C9.21889 6.97635 8.81054 4.39745 7.74085 2.44104Z" fill="#0091CE"/>
<path d="M0 12.61C0 12.61 0.310699 13.6549 1.11408 13.8283C1.91746 14.0017 6.86645 14.1618 8.3445 13.6815C9.82254 13.2013 11.6335 11.6318 11.2651 7.78564C11.2651 7.78564 9.53847 11.3561 4.83803 12.1431C1.21617 12.7522 0 12.61 0 12.61Z" fill="#0091CE"/>
</svg>
