<svg width="62" height="15" viewBox="0 0 62 15" fill="none" xmlns="http://www.w3.org/2000/svg">
<path d="M3.96071 5.9507C3.96071 4.85275 4.84831 3.96434 5.94526 3.96434C7.0422 3.96434 7.9298 4.85275 7.9298 5.9507C7.9298 7.04865 7.0422 7.93706 5.94526 7.93706C4.84831 7.93706 3.96071 7.04865 3.96071 5.9507ZM2.88889 5.9507C2.88889 7.63533 4.25379 9.00986 5.94526 9.00986C7.63672 9.00986 9.00162 7.64371 9.00162 5.9507C9.00162 4.25768 7.62835 2.89154 5.94526 2.89154C4.26216 2.89154 2.88889 4.26606 2.88889 5.9507ZM8.4071 2.7742C8.4071 3.16812 8.72529 3.48661 9.11885 3.48661C9.51241 3.48661 9.83061 3.16812 9.83061 2.7742C9.83061 2.38028 9.51241 2.06179 9.11885 2.06179C8.72529 2.06179 8.4071 2.38028 8.4071 2.7742ZM3.54203 10.7951C2.96425 10.7699 2.64606 10.6694 2.43672 10.5939C2.16039 10.485 1.95942 10.3592 1.75008 10.1497C1.54074 9.94018 1.41514 9.74741 1.30628 9.46245C1.22255 9.25292 1.13044 8.93443 1.10532 8.35612C1.08019 7.72753 1.07182 7.54314 1.07182 5.9507C1.07182 4.35826 1.08019 4.17387 1.10532 3.54528C1.13044 2.96697 1.23092 2.64848 1.30628 2.43895C1.41514 2.16237 1.54074 1.96122 1.75008 1.75168C1.95942 1.54215 2.15202 1.41643 2.43672 1.30748C2.64606 1.22366 2.96425 1.13147 3.54203 1.10633C4.17005 1.08118 4.35427 1.0728 5.94526 1.0728C7.53624 1.0728 7.72046 1.08118 8.34848 1.10633C8.92626 1.13147 9.24446 1.23205 9.4538 1.30748C9.73012 1.41643 9.93109 1.54215 10.1404 1.75168C10.3498 1.96122 10.4754 2.16237 10.5842 2.43895C10.668 2.64848 10.7601 2.96697 10.7852 3.54528C10.8103 4.17387 10.8187 4.35826 10.8187 5.9507C10.8187 7.54314 10.8103 7.72753 10.7852 8.35612C10.7601 8.93443 10.6596 9.25292 10.5842 9.46245C10.4754 9.73903 10.3498 9.94018 10.1404 10.1497C9.93109 10.3592 9.73012 10.485 9.4538 10.5939C9.24446 10.6777 8.92626 10.7699 8.34848 10.7951C7.72046 10.8202 7.53624 10.8286 5.94526 10.8286C4.35427 10.8286 4.17005 10.8202 3.54203 10.7951ZM3.49179 0.0335251C2.86377 0.0670501 2.42834 0.167625 2.05153 0.310107C1.65797 0.46097 1.3314 0.66212 0.996458 0.997371C0.661514 1.33262 0.460548 1.65949 0.309823 2.05341C0.167472 2.43057 0.0669888 2.86639 0.0334944 3.49499C0.0083736 4.13196 0 4.33311 0 5.9507C0 7.56828 0.0083736 7.76943 0.0334944 8.40641C0.0586152 9.04339 0.159098 9.47083 0.309823 9.84799C0.460548 10.2419 0.661514 10.5688 0.996458 10.904C1.3314 11.2309 1.65797 11.4404 2.05153 11.5913C2.42834 11.7422 2.86377 11.8427 3.49179 11.8679C4.12819 11.893 4.32915 11.9014 5.94526 11.9014C7.56136 11.9014 7.76233 11.893 8.39872 11.8679C9.03512 11.8427 9.46217 11.7422 9.83898 11.5913C10.2325 11.4404 10.5591 11.2393 10.8941 10.904C11.229 10.5772 11.43 10.2419 11.5807 9.84799C11.7314 9.47083 11.8319 9.03501 11.857 8.40641C11.8821 7.76943 11.8905 7.56828 11.8905 5.9507C11.8905 4.33311 11.8821 4.13196 11.857 3.49499C11.8319 2.85801 11.7314 2.43057 11.5807 2.05341C11.43 1.65949 11.229 1.33262 10.8941 0.997371C10.5675 0.66212 10.2325 0.46097 9.83898 0.310107C9.46217 0.159244 9.02674 0.0586689 8.39872 0.0335251C7.76233 0.00838127 7.56136 0 5.94526 0C4.32915 0 4.12819 0.00838127 3.49179 0.0335251Z" fill="url(#paint0_radial)"/>
<path d="M3.96071 5.9507C3.96071 4.85275 4.84831 3.96434 5.94526 3.96434C7.0422 3.96434 7.9298 4.85275 7.9298 5.9507C7.9298 7.04865 7.0422 7.93706 5.94526 7.93706C4.84831 7.93706 3.96071 7.04865 3.96071 5.9507ZM2.88889 5.9507C2.88889 7.63533 4.25379 9.00986 5.94526 9.00986C7.63672 9.00986 9.00162 7.64371 9.00162 5.9507C9.00162 4.25768 7.62835 2.89154 5.94526 2.89154C4.26216 2.89154 2.88889 4.26606 2.88889 5.9507ZM8.4071 2.7742C8.4071 3.16812 8.72529 3.48661 9.11885 3.48661C9.51241 3.48661 9.83061 3.16812 9.83061 2.7742C9.83061 2.38028 9.51241 2.06179 9.11885 2.06179C8.72529 2.06179 8.4071 2.38028 8.4071 2.7742ZM3.54203 10.7951C2.96425 10.7699 2.64606 10.6694 2.43672 10.5939C2.16039 10.485 1.95942 10.3592 1.75008 10.1497C1.54074 9.94018 1.41514 9.74741 1.30628 9.46245C1.22255 9.25292 1.13044 8.93443 1.10532 8.35612C1.08019 7.72753 1.07182 7.54314 1.07182 5.9507C1.07182 4.35826 1.08019 4.17387 1.10532 3.54528C1.13044 2.96697 1.23092 2.64848 1.30628 2.43895C1.41514 2.16237 1.54074 1.96122 1.75008 1.75168C1.95942 1.54215 2.15202 1.41643 2.43672 1.30748C2.64606 1.22366 2.96425 1.13147 3.54203 1.10633C4.17005 1.08118 4.35427 1.0728 5.94526 1.0728C7.53624 1.0728 7.72046 1.08118 8.34848 1.10633C8.92626 1.13147 9.24446 1.23205 9.4538 1.30748C9.73012 1.41643 9.93109 1.54215 10.1404 1.75168C10.3498 1.96122 10.4754 2.16237 10.5842 2.43895C10.668 2.64848 10.7601 2.96697 10.7852 3.54528C10.8103 4.17387 10.8187 4.35826 10.8187 5.9507C10.8187 7.54314 10.8103 7.72753 10.7852 8.35612C10.7601 8.93443 10.6596 9.25292 10.5842 9.46245C10.4754 9.73903 10.3498 9.94018 10.1404 10.1497C9.93109 10.3592 9.73012 10.485 9.4538 10.5939C9.24446 10.6777 8.92626 10.7699 8.34848 10.7951C7.72046 10.8202 7.53624 10.8286 5.94526 10.8286C4.35427 10.8286 4.17005 10.8202 3.54203 10.7951ZM3.49179 0.0335251C2.86377 0.0670501 2.42834 0.167625 2.05153 0.310107C1.65797 0.46097 1.3314 0.66212 0.996458 0.997371C0.661514 1.33262 0.460548 1.65949 0.309823 2.05341C0.167472 2.43057 0.0669888 2.86639 0.0334944 3.49499C0.0083736 4.13196 0 4.33311 0 5.9507C0 7.56828 0.0083736 7.76943 0.0334944 8.40641C0.0586152 9.04339 0.159098 9.47083 0.309823 9.84799C0.460548 10.2419 0.661514 10.5688 0.996458 10.904C1.3314 11.2309 1.65797 11.4404 2.05153 11.5913C2.42834 11.7422 2.86377 11.8427 3.49179 11.8679C4.12819 11.893 4.32915 11.9014 5.94526 11.9014C7.56136 11.9014 7.76233 11.893 8.39872 11.8679C9.03512 11.8427 9.46217 11.7422 9.83898 11.5913C10.2325 11.4404 10.5591 11.2393 10.8941 10.904C11.229 10.5772 11.43 10.2419 11.5807 9.84799C11.7314 9.47083 11.8319 9.03501 11.857 8.40641C11.8821 7.76943 11.8905 7.56828 11.8905 5.9507C11.8905 4.33311 11.8821 4.13196 11.857 3.49499C11.8319 2.85801 11.7314 2.43057 11.5807 2.05341C11.43 1.65949 11.229 1.33262 10.8941 0.997371C10.5675 0.66212 10.2325 0.46097 9.83898 0.310107C9.46217 0.159244 9.02674 0.0586689 8.39872 0.0335251C7.76233 0.00838127 7.56136 0 5.94526 0C4.32915 0 4.12819 0.00838127 3.49179 0.0335251Z" fill="url(#paint1_radial)"/>
<path d="M21.5279 0.0336984C21.2341 0.145214 20.7378 0.753481 20.4542 1.36175C20.0592 2.20319 19.8871 2.94324 19.8871 3.79482C19.8871 4.41322 19.9174 4.61598 20.12 5.06204C20.2517 5.3459 20.4644 5.69058 20.596 5.83251C20.8898 6.14678 21.4468 6.40023 21.8216 6.41037C22.0546 6.41037 22.1052 6.44078 22.1052 6.6334C22.1052 6.75505 22.0242 7.03891 21.9431 7.29235C21.5583 8.296 20.7784 8.86371 19.7655 8.86371C19.0464 8.86371 18.5197 8.63054 18.3273 8.21489C18.0943 7.71814 18.1449 7.41401 18.5501 6.92739C18.8236 6.61312 18.9248 6.40023 18.9552 6.11637C18.9856 5.77169 18.9755 5.71086 18.7932 5.65003C18.2969 5.46755 17.679 5.93389 17.4866 6.61312C17.436 6.82602 17.4056 7.21125 17.436 7.49511C17.5676 8.92454 18.6412 9.6646 20.4239 9.54294C21.3962 9.47198 21.9026 9.27936 22.4394 8.74206C22.9965 8.19462 23.2295 7.57621 23.351 6.44078C23.4422 5.47769 23.4624 1.80781 23.3814 0.814308C23.3206 0.155352 23.3206 0.145214 23.0471 0.104663C22.3989 -0.00685278 21.6899 -0.0271283 21.5279 0.0336984ZM22.0647 1.28065C22.1153 1.35161 22.1356 2.20319 22.1052 3.41972C22.0748 5.30535 22.0546 5.45742 21.9026 5.49797C21.619 5.58921 21.2645 5.3459 21.0417 4.8897C20.8391 4.49433 20.8189 4.3524 20.8189 3.40958C20.8189 2.27415 20.91 1.86864 21.2747 1.44285C21.5076 1.15899 21.9128 1.07789 22.0647 1.28065ZM32.6085 0.277005C32.5781 0.34797 32.5578 0.611552 32.5578 0.854859C32.5578 1.1083 32.5274 1.57464 32.4971 1.88891L32.4464 2.48704H32.0413C31.6463 2.48704 31.0082 2.6087 30.9271 2.6898C30.9069 2.72021 30.9271 2.81145 30.9778 2.91283C31.0689 3.07503 31.2512 3.13586 32.1932 3.32848L32.3856 3.35889L32.3654 5.43714C32.335 7.2518 32.3553 7.57621 32.5072 8.05269C32.7908 8.97523 33.4187 9.53281 34.067 9.41115C34.3911 9.35033 34.8165 8.88399 35.1001 8.29599C35.2318 8.01214 35.3432 7.84993 35.3432 7.95131C35.3432 8.23517 35.7483 9.01578 35.9711 9.16785C36.0825 9.24895 36.3864 9.34019 36.6396 9.39088C37.3891 9.53281 37.8247 9.21853 38.2703 8.20476L38.4121 7.86007L38.4931 8.11352C38.5843 8.4582 39.0603 8.92454 39.3743 8.98536C39.7187 9.05633 40.1643 8.85357 40.4074 8.52916L40.61 8.25544L40.7923 8.62041C41.0354 9.09688 41.2987 9.27936 41.9267 9.39088C42.3926 9.47198 42.4635 9.47198 42.6661 9.30977C42.7876 9.21853 43.0003 8.95495 43.132 8.71165L43.3751 8.28586V9.31991L42.7269 9.95859C42.0077 10.6581 41.4912 11.5705 41.238 12.564C40.8126 14.2469 41.3494 14.9869 43.0206 14.9971C43.7397 15.0072 43.7397 15.0072 43.9929 14.7132C44.3981 14.2266 44.469 13.8616 44.5196 11.6415L44.5601 9.59363H44.8437C45.0058 9.59363 45.178 9.54294 45.2387 9.48212C45.3299 9.39088 45.3198 9.33005 45.1476 9.19826C45.0362 9.10702 44.8437 9.03605 44.7222 9.03605H44.4993L44.5399 7.61676C44.5702 6.52188 44.6209 6.13665 44.7323 5.91362L44.8842 5.62976L44.6006 5.51824L44.317 5.39659V4.60584C44.317 3.85564 44.2968 3.80496 44.0739 3.56165C43.9423 3.41972 43.6688 3.26765 43.4662 3.20683C43.2637 3.15614 42.9193 3.02435 42.6863 2.92297C42.2103 2.69994 41.9571 2.75063 41.5317 3.11559C40.9341 3.64275 40.6404 4.66667 40.529 6.56243C40.4581 7.77897 40.3264 8.20476 39.9922 8.30613C39.7491 8.38724 39.587 8.22503 39.4655 7.82966C39.3541 7.40387 39.3541 6.41037 39.4857 5.92375C39.5769 5.53852 39.5769 5.51824 39.3642 5.33576C39.1616 5.17356 39.1414 5.07218 39.1008 4.42336C39.0502 3.51096 38.9185 3.31834 38.1082 2.99393C36.4877 2.33498 35.6774 3.0649 35.3736 5.48783C35.333 5.86293 35.252 6.21775 35.2115 6.27858C35.171 6.32927 35.0596 6.64354 34.9887 6.96795C34.8165 7.69787 34.5734 8.20475 34.2695 8.38724C34.0568 8.52916 34.0467 8.52917 33.8745 8.35682C33.6112 8.09324 33.5302 7.27208 33.5909 5.44728C33.6517 3.15614 33.6213 3.28793 34.1986 3.21696C34.4721 3.18655 34.938 3.15614 35.2419 3.15614C35.8395 3.146 35.9306 3.0649 35.6268 2.79118C35.485 2.66952 35.252 2.61883 34.5937 2.57828L33.7429 2.52759L33.7631 1.91933C33.7732 1.57464 33.8036 1.11844 33.834 0.885273C33.8847 0.479761 33.8745 0.469623 33.6011 0.34797C33.1048 0.16549 32.6591 0.114801 32.6085 0.277005ZM43.0915 3.91647C43.3143 4.11923 43.3346 4.16992 43.3244 4.76805C43.3042 5.94403 43.0814 7.27208 42.7876 7.84993C42.5851 8.25544 42.2306 8.58999 41.9976 8.58999C41.8862 8.58999 41.7343 8.49875 41.6532 8.35682C41.4203 8.01214 41.4304 5.70072 41.6634 5.01135C41.8862 4.33212 42.1394 3.96716 42.4534 3.82523C42.8079 3.67316 42.8079 3.67316 43.0915 3.91647ZM38.0374 4.09895C38.2703 4.40309 38.3615 5.04177 38.1994 5.29521C38.1285 5.40673 38.0374 5.91362 37.9766 6.43064C37.8449 7.59649 37.6727 8.21489 37.3587 8.52916C36.9941 8.88399 36.6903 8.86371 36.5079 8.43792C36.1636 7.64718 36.3054 5.3459 36.751 4.48419C37.065 3.86578 37.7031 3.67316 38.0374 4.09895ZM43.2839 12.8986C43.1219 13.9123 42.7471 14.4395 42.2711 14.3178C41.8153 14.2063 41.6735 13.3852 41.9267 12.3917C42.1191 11.6719 42.5851 10.7189 42.9801 10.2526L43.3244 9.86735L43.3548 11.0839C43.365 11.753 43.3447 12.5741 43.2839 12.8986Z" fill="black"/>
<path d="M49.875 3.12596C49.4293 3.5923 49.166 4.2918 49.0343 5.40696C48.9127 6.45115 48.5582 7.82989 48.3152 8.27595C48.1632 8.54967 48.0721 8.63078 47.91 8.63078C47.5657 8.63078 47.4441 8.1543 47.5049 6.83639C47.5353 6.04564 47.596 5.56916 47.748 5.10283L47.9505 4.45401L47.7581 4.2918C47.6366 4.20056 47.3428 4.11946 46.9681 4.07891C46.644 4.0485 46.3198 4.01808 46.2489 4.00795C46.1578 3.98767 46.1173 3.87615 46.1173 3.64299C46.1071 3.14623 46.0261 3.04486 45.6615 3.10568C45.1247 3.19692 45.1247 3.20706 45.1753 4.67704C45.2057 5.52861 45.1855 6.23826 45.1146 6.66405C44.9525 7.58658 44.9626 7.65755 45.1449 7.6981C45.3779 7.74879 45.6108 7.12025 45.7932 5.88344L45.9552 4.78856H46.4718L46.4414 5.92399C46.3907 8.1543 46.8465 9.28973 47.8087 9.28973C48.2139 9.28973 48.5582 9.01601 48.8115 8.49899L49.0343 8.0732L49.1761 8.4483C49.2571 8.65105 49.4293 8.92477 49.561 9.04643C49.8446 9.32015 50.665 9.5229 50.9891 9.39111C51.2727 9.28973 51.6474 8.8234 51.8905 8.30637L52.0728 7.88058L52.2349 8.24554C52.6502 9.17822 53.6124 9.24918 54.1796 8.39761L54.4125 8.04279L54.4632 8.49899C54.5442 9.07684 54.6354 9.18836 55.1215 9.26946C55.8812 9.38097 55.8812 9.37084 56.0533 8.06306C56.2053 6.88708 56.4281 5.89357 56.5598 5.89357C56.5902 5.89357 56.6408 6.48157 56.6509 7.19121C56.6813 8.31651 56.7016 8.51926 56.8434 8.67133C57.1877 9.04643 58.0284 8.9856 58.0284 8.58009C58.0284 8.27595 58.3728 7.00873 58.6665 6.27881L58.9501 5.5793L58.9906 6.80598C59.021 7.89072 59.0615 8.08334 59.254 8.45844C59.3755 8.70174 59.5781 8.97546 59.7097 9.0667C60.0339 9.29987 60.6517 9.29987 60.9657 9.0667C61.6342 8.56995 62.333 6.4106 61.8266 6.4106C61.6645 6.4106 61.5633 6.62349 61.4822 7.06956C61.2797 8.18471 60.6112 8.82339 60.3073 8.17458C60.125 7.79948 60.0946 6.29909 60.2668 5.5793C60.5302 4.44387 60.5403 4.53511 60.1858 4.27153C59.963 4.10932 59.7199 4.00795 59.4464 3.98767L59.0413 3.95726L58.8184 4.46415C58.6868 4.748 58.4032 5.50834 58.1601 6.15716L57.7448 7.33314L57.7144 6.00509L57.684 4.6669L57.4308 4.53511C56.732 4.18029 56.3673 4.5047 55.9521 5.85302C55.79 6.38019 55.6583 6.83639 55.6381 6.88708C55.6178 6.92763 55.6077 6.22812 55.6077 5.29544C55.5976 4.26139 55.5672 3.60243 55.5165 3.56188C55.4659 3.53147 55.2127 3.48078 54.9595 3.46051L54.4834 3.40982L54.453 5.06228C54.4227 6.45115 54.3821 6.79584 54.2302 7.29259C53.8858 8.31651 53.4503 8.63078 53.1971 8.02251C53.0452 7.66769 53.035 6.34977 53.1667 5.84289C53.2579 5.52861 53.2478 5.48806 53.0452 5.31572C52.8629 5.16365 52.8224 5.03186 52.7717 4.45401C52.7008 3.6734 52.5691 3.34899 52.2653 3.2172C51.3537 2.79141 51.1917 2.74072 50.7359 2.74072C50.2598 2.74072 50.2092 2.761 49.875 3.12596ZM51.5765 3.96739C51.8601 4.1296 52.0526 5.11296 51.8399 5.32586C51.7994 5.36641 51.7082 5.82261 51.6677 6.31936C51.5462 7.50548 51.3537 8.17458 51.0499 8.50912C50.7257 8.85381 50.3713 8.83353 50.1991 8.46857C49.9053 7.84003 49.9155 6.06592 50.2295 4.97104C50.4827 4.09919 51.0296 3.68354 51.5765 3.96739ZM24.4119 3.43009C24.341 3.55175 24.1587 7.68796 24.1992 8.18471C24.2599 8.76257 24.4524 8.95519 24.9588 8.95519C25.1816 8.95519 25.4045 8.92477 25.4551 8.88422C25.5159 8.85381 25.6172 8.48885 25.6982 8.08334C25.8602 7.27231 26.1236 6.4106 26.316 6.07605C26.4274 5.8733 26.4376 5.9544 26.4477 6.90735C26.4477 8.0732 26.5692 8.46857 26.9744 8.68147C27.258 8.83353 27.815 8.76257 28.129 8.51926C28.3924 8.32664 28.3924 8.32664 28.5139 8.49899C28.7975 8.9045 29.9927 9.13767 30.8435 8.95519C31.4816 8.82339 31.8665 8.51926 31.8665 8.13403C31.8665 7.75893 31.7348 7.59672 30.8333 6.85666C29.9218 6.12674 29.78 5.93413 29.78 5.50834C29.78 4.8798 30.5599 4.5047 31.0055 4.91021C31.2182 5.10283 31.4005 5.06228 31.6538 4.75814C31.8361 4.53511 31.8766 4.41346 31.8563 4.11946C31.8259 3.82547 31.7854 3.74436 31.5727 3.64299C31.0866 3.40982 29.4863 3.8356 28.9191 4.36277C28.4633 4.77842 28.362 5.42724 28.6456 5.98481C28.7773 6.25853 28.7975 6.3295 28.6962 6.37005C28.6355 6.40046 28.5544 6.59308 28.524 6.7857C28.3822 7.66769 27.9265 8.26582 27.6125 7.96168C27.5011 7.84003 27.4707 7.57645 27.4504 6.39033C27.4302 5.28531 27.3896 4.8798 27.2884 4.68718C27.1364 4.40332 26.8022 4.27153 26.5389 4.40332C26.316 4.51484 25.9717 5.1231 25.6577 5.91385L25.4146 6.54239L25.4045 5.1231C25.4045 3.7545 25.3943 3.70381 25.212 3.58216C24.9385 3.41995 24.4726 3.32871 24.4119 3.43009ZM30.2459 7.57645C30.4586 7.75893 30.6409 7.98196 30.6612 8.0732C30.7928 8.55981 30.0737 8.70174 29.5166 8.29623C29.3343 8.16444 29.0912 7.9921 28.9494 7.91099C28.7975 7.81975 28.7266 7.72851 28.7671 7.63727C28.7975 7.56631 28.8583 7.29259 28.9191 7.01887L29.0102 6.52212L29.4457 6.88708C29.6888 7.0797 30.0433 7.39397 30.2459 7.57645Z" fill="black"/>
<defs>
<radialGradient id="paint0_radial" cx="0" cy="0" r="1" gradientUnits="userSpaceOnUse" gradientTransform="translate(1.57986 11.9586) scale(15.5233 15.5376)">
<stop offset="0.09" stop-color="#FA8F21"/>
<stop offset="0.78" stop-color="#D82D7E"/>
</radialGradient>
<radialGradient id="paint1_radial" cx="0" cy="0" r="1" gradientUnits="userSpaceOnUse" gradientTransform="translate(7.21167 12.4919) scale(12.2345 12.2457)">
<stop offset="0.64" stop-color="#8C3AAA" stop-opacity="0"/>
<stop offset="1" stop-color="#8C3AAA"/>
</radialGradient>
</defs>
</svg>
