<svg width="60" height="14" viewBox="0 0 60 14" fill="none" xmlns="http://www.w3.org/2000/svg">
<path fill-rule="evenodd" clip-rule="evenodd" d="M19.6736 2.18593C19.4435 1.3268 18.7627 0.649134 17.8965 0.41686C16.3303 0 10.0462 0 10.0462 0C10.0462 0 3.76535 0 2.19593 0.41686C1.33295 0.645927 0.652104 1.32367 0.418767 2.18593C-3.93854e-08 3.745 0 6.99996 0 6.99996C0 6.99996 -3.93854e-08 10.255 0.418767 11.8141C0.648883 12.6732 1.32973 13.3509 2.19593 13.5831C3.76535 14 10.0462 14 10.0462 14C10.0462 14 16.3303 14 17.8965 13.5831C18.7595 13.3541 19.4403 12.6763 19.6736 11.8141C20.0924 10.255 20.0924 7.00004 20.0924 7.00004C20.0924 7.00004 20.0924 3.745 19.6736 2.18593Z" fill="#FF0000"/>
<path fill-rule="evenodd" clip-rule="evenodd" d="M8.03906 10.0004L13.2587 6.99992L8.03906 3.99951V10.0004Z" fill="white"/>
<path fill-rule="evenodd" clip-rule="evenodd" d="M31.1246 11.8725C30.7864 11.6444 30.5436 11.2914 30.4018 10.8109C30.2599 10.3302 30.1863 9.69214 30.1863 8.8938V7.80771C30.1863 7.0013 30.2681 6.35508 30.4318 5.86624C30.5954 5.37753 30.8519 5.02187 31.1982 4.79916C31.5447 4.57653 32.0002 4.46251 32.5648 4.46251C33.1213 4.46251 33.5659 4.57653 33.9014 4.80463C34.2369 5.03267 34.4824 5.38841 34.6379 5.87171C34.7934 6.35508 34.8698 7.0013 34.8698 7.80497V8.89113C34.8698 9.6894 34.7934 10.3302 34.6433 10.8135C34.4933 11.2968 34.2479 11.6526 33.9069 11.8752C33.5686 12.0978 33.1076 12.212 32.5266 12.212C31.932 12.2146 31.4628 12.1006 31.1246 11.8725ZM33.0258 10.6995C33.1186 10.4551 33.1677 10.0559 33.1677 9.5048V7.17236C33.1677 6.63469 33.1213 6.24372 33.0258 5.99394C32.9331 5.74681 32.7667 5.62192 32.5294 5.62192C32.3003 5.62192 32.1393 5.74681 32.0438 5.99394C31.9511 6.24099 31.902 6.63469 31.902 7.17236V9.5048C31.902 10.0587 31.9457 10.4579 32.0357 10.6995C32.1257 10.9439 32.2894 11.066 32.5267 11.066C32.7667 11.066 32.9304 10.9439 33.0258 10.6995ZM57.166 8.91281V9.2903C57.166 9.77087 57.1796 10.1293 57.2097 10.3709C57.2369 10.6099 57.2969 10.7864 57.3869 10.8951C57.4769 11.0036 57.616 11.0606 57.8042 11.0606C58.058 11.0606 58.2325 10.9629 58.3253 10.7674C58.418 10.5719 58.4697 10.246 58.478 9.78988L59.9373 9.87408C59.9455 9.93919 59.9482 10.0288 59.9482 10.1428C59.9482 10.8353 59.7573 11.3511 59.3781 11.6933C58.999 12.0354 58.4616 12.2064 57.7661 12.2064C56.9314 12.2064 56.3477 11.9458 56.0122 11.4245C55.6767 10.9031 55.5103 10.0994 55.5103 9.00789V7.70183C55.5103 6.57771 55.6848 5.76036 56.0312 5.24183C56.3776 4.72591 56.9723 4.46791 57.8152 4.46791C58.3962 4.46791 58.8408 4.57386 59.1517 4.78562C59.4627 4.99738 59.6809 5.32589 59.8091 5.77397C59.9346 6.22197 60.0001 6.84111 60.0001 7.62851V8.91015H57.166V8.91281ZM57.3814 5.76309C57.2969 5.86904 57.2396 6.04277 57.2096 6.28175C57.1796 6.52067 57.166 6.88728 57.166 7.37325V7.91092H58.4043V7.37325C58.4043 6.89261 58.388 6.52881 58.3552 6.28175C58.3225 6.03463 58.2625 5.85817 58.1779 5.75769C58.0933 5.65721 57.9597 5.60564 57.7797 5.60564C57.5997 5.6029 57.466 5.65721 57.3814 5.76309ZM27.0058 8.77164L25.0801 1.85039H26.7603L27.434 4.98657C27.6059 5.76043 27.7314 6.41752 27.8132 6.96327H27.8622C27.9196 6.57224 28.045 5.91788 28.2415 4.99738L28.9397 1.84766H30.62L28.6724 8.77164V12.0924H27.0058V8.77164ZM40.3333 4.60915V12.0897H39.0104L38.8631 11.1747H38.8276C38.4676 11.8671 37.9275 12.2119 37.2101 12.2119C36.711 12.2119 36.3427 12.049 36.1054 11.7231C35.8681 11.3973 35.7508 10.8896 35.7508 10.1972V4.60915H37.442V10.1021C37.442 10.4361 37.4774 10.6751 37.5511 10.8163C37.6247 10.9574 37.7475 11.0308 37.9193 11.0308C38.0666 11.0308 38.2084 10.9873 38.3421 10.8977C38.4757 10.8081 38.5767 10.694 38.6421 10.5556V4.60908L40.3333 4.60915ZM49.0129 4.60915V12.0897H47.6899L47.5426 11.1747H47.5071C47.1471 11.8671 46.607 12.2119 45.8896 12.2119C45.3905 12.2119 45.0222 12.049 44.785 11.7231C44.5476 11.3973 44.4303 10.8896 44.4303 10.1972V4.60915H46.1215V10.1021C46.1215 10.4361 46.157 10.6751 46.2306 10.8163C46.3042 10.9574 46.427 11.0308 46.5989 11.0308C46.7462 11.0308 46.888 10.9873 47.0216 10.8977C47.1553 10.8081 47.2562 10.694 47.3217 10.5556V4.60908L49.0129 4.60915Z" fill="#282828"/>
<path fill-rule="evenodd" clip-rule="evenodd" d="M44.9322 3.20553H43.252V12.0899H41.5963V3.20553H39.916V1.85063H44.9295V3.20553H44.9322ZM54.6128 5.8067C54.5092 5.33427 54.3456 4.99215 54.1164 4.78039C53.8873 4.56856 53.5737 4.46268 53.1726 4.46268C52.8618 4.46268 52.5725 4.54954 52.3025 4.72608C52.0325 4.89981 51.8252 5.13065 51.6779 5.41573H51.6643V1.47314H50.0331V12.0926H51.4296L51.6015 11.3839H51.637C51.7679 11.6365 51.9642 11.8347 52.2261 11.9812C52.488 12.1279 52.7772 12.2012 53.0963 12.2012C53.6691 12.2012 54.0891 11.9378 54.3592 11.4137C54.6292 10.8898 54.7629 10.0697 54.7629 8.95375V7.76985C54.7657 6.93355 54.7138 6.27919 54.6128 5.80677V5.8067ZM53.0608 8.85868C53.0608 9.40449 53.039 9.83075 52.9926 10.1403C52.9489 10.4499 52.8726 10.6698 52.7662 10.8002C52.6598 10.9304 52.518 10.9956 52.338 10.9956C52.1988 10.9956 52.0707 10.9631 51.9506 10.8979C51.8334 10.8327 51.7352 10.735 51.6615 10.6046V6.35525C51.7188 6.15156 51.817 5.98597 51.9561 5.85567C52.0952 5.7253 52.2452 5.66012 52.4089 5.66012C52.5807 5.66012 52.7144 5.72797 52.8071 5.861C52.8999 5.99411 52.9654 6.22214 53.0035 6.53712C53.039 6.85483 53.0581 7.30557 53.0581 7.89201V8.85868H53.0608Z" fill="#282828"/>
</svg>
