<svg width="66" height="14" viewBox="0 0 66 14" fill="none" xmlns="http://www.w3.org/2000/svg">
<path d="M25.2979 4.84328H27.3733V11.208H25.2979V4.84328Z" fill="#E60023"/>
<path d="M27.8066 4.84328H29.8057V5.71346H29.8438C30.3277 5.02972 30.9516 4.65684 31.8556 4.65684C33.2817 4.65684 34.122 5.65131 34.122 7.06845V11.208H32.0466V7.47871C32.0466 6.80739 31.7028 6.3474 31.028 6.3474C30.3405 6.3474 29.882 6.90685 29.882 7.68998V11.208H27.8066V4.84328Z" fill="#E60023"/>
<path d="M27.5797 3.14055C27.5797 2.46923 27.0223 1.92509 26.3348 1.92509C25.6473 1.92509 25.0898 2.46923 25.0898 3.14055C25.0898 3.81181 25.6473 4.35596 26.3348 4.35596C27.0223 4.35596 27.5797 3.81181 27.5797 3.14055Z" fill="#E60023"/>
<path d="M48.7187 4.7514C48.6595 4.7462 48.5916 4.74388 48.5121 4.74388C47.7227 4.74388 47.188 5.07951 46.7295 5.83781H46.6914V4.84334H44.7051V11.208H46.7805V8.34889C46.7805 7.02412 47.5319 6.41024 48.7187 6.51735V4.7514Z" fill="#E60023"/>
<path d="M58.9027 7.19256C58.0751 7.04343 57.3366 6.98128 57.3366 6.53378C57.3366 6.13594 57.7314 5.9495 58.2406 5.9495C58.8135 5.9495 59.2083 6.12352 59.2847 6.69538H61.1946C61.0928 5.43985 60.0996 4.65665 58.2534 4.65665C56.7127 4.65665 55.4394 5.3528 55.4394 6.69538C55.4394 8.18703 56.649 8.48541 57.7823 8.67191C58.6481 8.8211 59.4375 8.88325 59.4375 9.45505C59.4375 9.8653 59.0428 10.0891 58.4189 10.0891C57.793 10.0891 57.379 9.8305 57.2521 9.30592H55.2744C55.42 10.6143 56.5963 11.4067 58.4316 11.4067C60.1378 11.4067 61.3983 10.6857 61.3983 9.2935C61.3983 7.66496 60.0487 7.37906 58.9027 7.19256Z" fill="#E60023"/>
<path d="M51.9367 6.09883C52.6115 6.09883 53.0953 6.58365 53.1718 7.34202H50.5998C50.7398 6.58365 51.1473 6.09883 51.9367 6.09883ZM52.0513 9.94001C51.1982 9.94001 50.7144 9.40553 50.587 8.54776H55.2727C55.2854 7.25498 54.9035 6.14856 54.1267 5.45247C53.5665 4.95524 52.828 4.65686 51.8984 4.65686C49.9122 4.65686 48.5498 6.11125 48.5498 8.01328C48.5498 9.94001 49.874 11.3945 52.0258 11.3945C52.8534 11.3945 53.5155 11.1832 54.0631 10.8103C54.636 10.4249 55.018 9.87793 55.158 9.30613H53.1335C52.9552 9.7039 52.5988 9.94001 52.0513 9.94001Z" fill="#E60023"/>
<path d="M65.0535 9.70729C64.9573 9.71099 64.8282 9.71644 64.7096 9.71644C64.2638 9.71644 63.9838 9.59209 63.9838 9.09485V6.11137H65.0535V4.84342H63.9838V2.82958H61.9593V4.84342H61.3223V6.11137H61.9593V9.52994C61.9593 10.8974 62.8251 11.2827 64.0347 11.2827C64.4962 11.2827 64.8451 11.249 65.0535 11.2093V9.70729Z" fill="#E60023"/>
<path d="M37.8277 9.71017C37.7449 9.71331 37.6494 9.71644 37.5601 9.71644C37.1145 9.71644 36.8343 9.59209 36.8343 9.09485V6.11137H37.8277V4.84342H36.8343V2.82958H34.8098V4.84342H34.1348V6.11137H34.8098V9.52994C34.8098 10.8974 35.6756 11.2827 36.8853 11.2827C37.2945 11.2827 37.615 11.2561 37.8277 11.2224V9.71017Z" fill="#E60023"/>
<path d="M42.3475 7.34202C42.2712 6.58372 41.7872 6.09883 41.1124 6.09883C40.323 6.09883 39.9156 6.58372 39.7755 7.34202H42.3475ZM37.7256 8.01328C37.7256 6.11131 39.088 4.65692 41.0743 4.65692C42.0037 4.65692 42.7423 4.95524 43.3025 5.45247C44.0792 6.14863 44.4611 7.25498 44.4484 8.54783H39.7628C39.8901 9.40552 40.3739 9.94007 41.2271 9.94007C41.7745 9.94007 42.1311 9.7039 42.3093 9.30613H44.3338C44.1937 9.87793 43.8118 10.4249 43.2388 10.8103C42.6913 11.1832 42.0292 11.3945 41.2016 11.3945C39.0497 11.3945 37.7256 9.94007 37.7256 8.01328Z" fill="#E60023"/>
<path d="M21.6928 6.49665C22.5078 6.49665 22.9661 6.02425 22.9661 5.31562C22.9661 4.60711 22.495 4.17202 21.6928 4.17202H20.1012V6.49665H21.6928ZM18 2.31978H21.6041C22.7118 2.31978 23.5267 2.6181 24.0869 3.14023C24.6726 3.67472 25.0037 4.43308 25.0037 5.32809C25.0037 7.03114 23.7941 8.23701 21.9223 8.23701H20.1012V11.208H18V2.31978Z" fill="#E60023"/>
<path d="M14.3394 7.00012C14.3394 10.866 11.1294 14 7.16968 14C3.20999 14 0 10.866 0 7.00012C0 3.13415 3.20999 0.000238419 7.16968 0.000238419C11.1294 0.000238419 14.3394 3.13415 14.3394 7.00012Z" fill="white"/>
<path d="M7.16968 -0.000249863C3.20999 -0.000249863 0 3.13372 0 6.99963C0 9.96514 1.8898 12.5002 4.55687 13.5202C4.49421 12.9663 4.43756 12.1146 4.58173 11.51C4.71202 10.9637 5.42246 8.03057 5.42246 8.03057C5.42246 8.03057 5.208 7.61124 5.208 6.99131C5.208 6.01798 5.78584 5.29132 6.50532 5.29132C7.11702 5.29132 7.41247 5.73969 7.41247 6.27733C7.41247 6.87793 7.02081 7.77587 6.8187 8.60799C6.64979 9.30469 7.17656 9.87287 7.88041 9.87287C9.15469 9.87287 10.1342 8.56105 10.1342 6.66746C10.1342 4.99145 8.90074 3.81964 7.13941 3.81964C5.09939 3.81964 3.90197 5.31353 3.90197 6.85739C3.90197 7.45901 4.13935 8.10414 4.43556 8.45484C4.49416 8.52416 4.50274 8.58486 4.48528 8.65561C4.43086 8.8767 4.30991 9.35215 4.28616 9.44946C4.2549 9.57759 4.18225 9.60479 4.04637 9.54305C3.15093 9.13611 2.59107 7.85792 2.59107 6.83128C2.59107 4.62319 4.23433 2.59533 7.32836 2.59533C9.81552 2.59533 11.7483 4.32567 11.7483 6.63814C11.7483 9.05056 10.1904 10.9921 8.02792 10.9921C7.30139 10.9921 6.6184 10.6236 6.38461 10.1883C6.38461 10.1883 6.0251 11.5248 5.93794 11.8523C5.77608 12.4603 5.33912 13.2224 5.04684 13.6874C5.71767 13.8901 6.43057 13.9995 7.16968 13.9995C11.1294 13.9995 14.3394 10.8655 14.3394 6.99963C14.3394 3.13372 11.1294 -0.000249863 7.16968 -0.000249863Z" fill="#E60023"/>
</svg>
