<svg width="58" height="14" viewBox="0 0 58 14" fill="none" xmlns="http://www.w3.org/2000/svg">
<path fill-rule="evenodd" clip-rule="evenodd" d="M17.2934 1.6584C16.6561 1.93866 15.9724 2.12893 15.2552 2.21377C15.9879 1.77668 16.5503 1.08246 16.8135 0.257117C16.1272 0.663361 15.3687 0.956474 14.5612 1.11589C13.9136 0.429385 12.9926 0 11.9709 0C10.0128 0 8.42351 1.58384 8.42351 3.53535C8.42351 3.81304 8.45447 4.08301 8.51639 4.34013C5.56752 4.19357 2.95403 2.78457 1.20483 0.645363C0.9004 1.16731 0.724964 1.7741 0.724964 2.42204C0.724964 3.64848 1.35189 4.73095 2.30389 5.36345C1.7234 5.34545 1.17645 5.18604 0.696584 4.92121C0.696584 4.93664 0.696584 4.94949 0.696584 4.96492C0.696584 6.67732 1.91948 8.10689 3.54226 8.43085C3.24557 8.51056 2.93081 8.55427 2.60832 8.55427C2.37871 8.55427 2.15683 8.53113 1.94012 8.48999C2.39161 9.89385 3.70222 10.9172 5.25276 10.9455C4.03761 11.8942 2.51028 12.4599 0.846221 12.4599C0.559847 12.4599 0.278634 12.4419 0 12.411C1.5686 13.4138 3.4339 14 5.43852 14C11.9632 14 15.5313 8.61341 15.5313 3.9416C15.5313 3.78733 15.5287 3.63563 15.5209 3.48393C16.2149 2.98512 16.8161 2.3629 17.2908 1.65326L17.2934 1.6584Z" fill="#41ABE1"/>
<path d="M26.4614 3.97754H23.7932V11.8184H22.6683V3.97754H20V3H26.4614V3.97754Z" fill="black"/>
<path d="M29.4795 11.8184H28.6358L26.5232 5.51562H27.6481L29.1228 10L30.529 5.51562H31.2355L32.6348 10L34.1095 5.51562H35.2344L33.1286 11.8184H32.285L30.8788 7.34082L29.4795 11.8184Z" fill="black"/>
<path d="M37.3402 11.8184H36.2839V5.51562H37.3402V11.8184ZM36.1467 3.73828C36.1467 3.54232 36.2085 3.38281 36.3319 3.25977C36.46 3.13216 36.6177 3.06836 36.8052 3.06836C37.0018 3.06836 37.1619 3.13216 37.2854 3.25977C37.4134 3.38281 37.4774 3.54232 37.4774 3.73828C37.4774 3.92513 37.4134 4.08236 37.2854 4.20996C37.1619 4.33757 37.0018 4.40137 36.8052 4.40137C36.6177 4.40137 36.46 4.33757 36.3319 4.20996C36.2085 4.08236 36.1467 3.92513 36.1467 3.73828Z" fill="black"/>
<path d="M39.7959 3.84082H40.7081V5.51562H42.1143V6.5H40.7081V9.78809C40.7081 10.1436 40.8042 10.4193 40.9962 10.6152C41.1883 10.8112 41.4444 10.9092 41.7645 10.9092C41.8559 10.9092 41.9405 10.9001 42.0183 10.8818C42.0548 10.8727 42.0869 10.859 42.1143 10.8408V11.75C42.0686 11.7773 42.0183 11.8001 41.9634 11.8184C41.8399 11.8639 41.6799 11.8867 41.4832 11.8867C41.2409 11.8867 41.0099 11.8366 40.7904 11.7363C40.571 11.6315 40.3766 11.488 40.2074 11.3057C40.0382 11.1234 39.9033 10.9046 39.8027 10.6494C39.7067 10.3942 39.6587 10.1071 39.6587 9.78809V6.5H38.5337V5.51562H39.0276C39.5443 5.51562 39.8004 5.26042 39.7959 4.75V3.84082Z" fill="black"/>
<path d="M44.2955 3.84082H45.2078V5.51562H46.614V6.5H45.2078V9.78809C45.2078 10.1436 45.3039 10.4193 45.4959 10.6152C45.688 10.8112 45.944 10.9092 46.2641 10.9092C46.3556 10.9092 46.4402 10.9001 46.5179 10.8818C46.5545 10.8727 46.5865 10.859 46.614 10.8408V11.75C46.5682 11.7773 46.5179 11.8001 46.4631 11.8184C46.3396 11.8639 46.1796 11.8867 45.9829 11.8867C45.7406 11.8867 45.5096 11.8366 45.2901 11.7363C45.0706 11.6315 44.8763 11.488 44.7071 11.3057C44.5379 11.1234 44.403 10.9046 44.3024 10.6494C44.2064 10.3942 44.1584 10.1071 44.1584 9.78809V6.5H43.0334V5.51562H43.5273C44.044 5.51562 44.3001 5.26042 44.2955 4.75V3.84082Z" fill="black"/>
<path d="M53.1577 10.1367C53.0525 10.36 52.9199 10.5811 52.7599 10.7998C52.5998 11.014 52.4123 11.2008 52.1974 11.3604C51.9825 11.5153 51.7378 11.6429 51.4635 11.7432C51.1937 11.8389 50.8919 11.8867 50.5581 11.8867C50.1556 11.8867 49.7738 11.8092 49.4126 11.6543C49.0513 11.4948 48.7358 11.2738 48.466 10.9912C48.2007 10.7041 47.9904 10.3646 47.8349 9.97266C47.684 9.58073 47.6086 9.14551 47.6086 8.66699C47.6086 8.19303 47.684 7.76009 47.8349 7.36816C47.9904 6.97624 48.1985 6.639 48.4591 6.35645C48.7243 6.06934 49.033 5.84603 49.3851 5.68652C49.7372 5.52702 50.1053 5.44727 50.4895 5.44727C50.8736 5.44727 51.2348 5.52246 51.5732 5.67285C51.9162 5.82324 52.2134 6.03743 52.4649 6.31543C52.721 6.58887 52.9222 6.91927 53.0685 7.30664C53.2194 7.69401 53.2949 8.12467 53.2949 8.59863C53.2949 8.68978 53.2903 8.76953 53.2812 8.83789C53.272 8.90169 53.2629 8.95638 53.2537 9.00195C53.2446 9.05664 53.2355 9.10905 53.2263 9.15918H48.7335C48.7518 9.38249 48.8135 9.60124 48.9187 9.81543C49.0284 10.0296 49.1633 10.2165 49.3234 10.376C49.488 10.5355 49.6778 10.6654 49.8927 10.7656C50.1122 10.8613 50.334 10.9092 50.5581 10.9092C50.7547 10.9092 50.9285 10.8818 51.0794 10.8271C51.2348 10.7679 51.3766 10.7018 51.5046 10.6289C51.6327 10.556 51.7378 10.4762 51.8202 10.3896C51.907 10.2985 51.9779 10.2142 52.0328 10.1367H53.1577ZM50.4895 6.43164C50.2745 6.43164 50.0688 6.47721 49.8721 6.56836C49.6801 6.65951 49.504 6.78483 49.344 6.94434C49.1885 7.10384 49.0559 7.29525 48.9461 7.51855C48.8409 7.74186 48.7701 7.98568 48.7335 8.25H52.17C52.0968 7.68945 51.9025 7.2474 51.5869 6.92383C51.276 6.5957 50.9102 6.43164 50.4895 6.43164Z" fill="black"/>
<path d="M57.7123 6.5H57.431C56.9326 6.5 56.5279 6.65951 56.2169 6.97852C55.906 7.29297 55.7505 7.7168 55.7505 8.25V11.8184H54.6942V5.51562H55.4693L55.7505 6.21973C55.8831 6.07845 56.0363 5.95312 56.2101 5.84375C56.3701 5.73893 56.5622 5.64779 56.7863 5.57031C57.0103 5.48828 57.2733 5.44727 57.5751 5.44727H57.7123V6.5Z" fill="black"/>
</svg>
