<svg width="42" height="14" viewBox="0 0 42 14" fill="none" xmlns="http://www.w3.org/2000/svg">
<path d="M4.70312 2.44531C4.70312 2.44531 6.22944 2.44531 7.01891 2.44531C7.01891 4.72163 7.01891 6.97539 7.01891 9.32313C8.59034 9.32313 9.80087 9.32313 11.3441 9.32313C11.3441 10.1408 11.3441 10.8645 11.3441 11.6502C9.06779 11.6502 4.71252 11.6502 4.71252 11.6502L4.70312 2.44531Z" fill="#263238"/>
<path d="M31.0562 8.65809C29.5675 8.65809 28.1558 8.65809 26.7404 8.65809C26.8795 10.0246 28.2799 10.2746 30.1953 9.28215C30.466 9.78215 30.7348 10.284 31.0017 10.7784C29.8344 11.9588 27.3532 12.1619 25.8908 11.2126C24.4904 10.3028 23.9359 8.44193 24.5731 6.78967C25.1765 5.22576 26.8043 4.39493 28.6201 4.72576C30.1351 5.00208 31.0543 6.2126 31.0562 7.93441C31.0562 8.14681 31.0562 8.35734 31.0562 8.65809ZM28.7216 7.39869C28.6577 6.70884 28.3457 6.34982 27.8062 6.35734C27.2348 6.36298 26.8607 6.73516 26.7912 7.39869C27.293 7.39869 27.7912 7.40057 28.2912 7.39681C28.4227 7.39493 28.7216 7.39869 28.7216 7.39869Z" fill="#263238"/>
<path d="M16.4018 7.27621C16.3323 6.68222 15.9714 6.37583 15.289 6.49801C14.7063 6.6014 14.1462 6.82884 13.5033 7.02433C13.2778 6.58636 13.024 6.09764 12.7721 5.61267C13.4827 4.92094 14.5672 4.65027 15.5334 4.64275C16.7815 4.63147 18.1086 5.18034 18.5071 6.45854C18.6894 7.04312 18.6518 7.66531 18.6593 8.27057C18.6631 8.56568 18.6499 11.624 18.6424 11.624C17.9977 11.624 17.3492 11.624 16.6763 11.624C16.6443 11.4134 16.6142 11.2273 16.5691 10.9322C15.9864 11.6089 15.2853 11.8514 14.4714 11.8157C13.3868 11.7687 12.5484 11.06 12.3661 10.0149C12.1913 9.01681 12.6518 8.21418 13.7627 7.85327C14.603 7.57696 15.4921 7.46794 16.4018 7.27621ZM16.4169 8.63523C16.4169 8.63523 16.0409 8.69726 16.0052 8.7029C15.8022 8.74237 15.5992 8.78561 15.3999 8.84576C15.212 8.90215 15.0221 8.9623 14.8849 9.10891C14.7327 9.27057 14.6105 9.55064 14.7458 9.75741C14.8586 9.92846 15.0879 10.0224 15.2853 10.045C15.5804 10.077 15.8793 9.9529 16.071 9.72734C16.0879 9.70854 16.103 9.68974 16.118 9.66907C16.259 9.4811 16.3454 9.24989 16.3868 9.01869C16.4093 8.88335 16.4187 8.77245 16.4169 8.63523Z" fill="#263238"/>
<path d="M23.7744 4.87777V6.70296L22.2894 6.78191C22.2894 6.78191 22.327 8.01875 22.3308 8.44356C22.3383 9.36461 22.5883 9.63341 23.5225 9.72552C23.6184 9.73492 23.7143 9.73867 23.8515 9.74807C23.8515 10.3853 23.8515 11.0075 23.8515 11.6522C22.9417 11.7988 22.0808 11.7124 21.2838 11.3082C20.5413 10.9323 20.109 10.3007 20.0883 9.45484C20.0658 8.5695 20.0827 7.68416 20.0827 6.75371C19.7519 6.72176 19.4925 6.69544 19.1992 6.66537C19.1992 6.10522 19.1992 4.87965 19.1992 4.87965L20.0996 4.87589C20.0996 4.87589 20.0996 3.66161 20.0996 3.01123C20.844 3.01123 21.5432 3.01123 22.3289 3.01123C22.3289 3.43792 22.3721 4.87589 22.3721 4.87589H23.7744V4.87777Z" fill="#263238"/>
<path d="M34.1771 4.86854C34.1771 5.30838 34.1771 5.70312 34.1771 6.09598C34.7843 5.2426 35.4703 4.63545 36.6094 4.72568C36.6094 5.45124 36.6094 6.14109 36.6094 6.89109C36.4327 6.90049 36.2485 6.90989 36.0624 6.91929C35.0418 6.96628 34.3463 7.61666 34.2993 8.63921C34.2617 9.48884 34.2899 11.6561 34.2899 11.6561H32.0361C32.0361 11.6561 32.0361 7.15237 32.0361 4.86666C32.7091 4.86854 33.3952 4.86854 34.1771 4.86854Z" fill="#263238"/>
<path d="M4.70307 0H2.35156V2.3515H4.70307V0Z" fill="#FFB500"/>
<path d="M2.3515 4.64099H0V6.9925H2.3515V4.64099Z" fill="#09C5FF"/>
<path d="M4.70307 6.99243H2.35156V9.34394H4.70307V6.99243Z" fill="#5D59B2"/>
<path d="M7.05463 11.6484H4.70312V13.9999H7.05463V11.6484Z" fill="#09C5FF"/>
<path d="M13.6933 11.6484H11.3418V13.9999H13.6933V11.6484Z" fill="#00EFA2"/>
<path d="M39.1601 0H36.8086V2.3515H39.1601V0Z" fill="#92A0FF"/>
<path d="M41.5097 0H39.1582V2.3515H41.5097V0Z" fill="#BCE156"/>
<path d="M41.5097 2.35156H39.1582V4.70307H41.5097V2.35156Z" fill="#09C5FF"/>
<path d="M9.37201 6.96997H7.02051V9.32147H9.37201V6.96997Z" fill="#FB8C60"/>
<path d="M11.7236 4.61841H9.37207V6.96991H11.7236V4.61841Z" fill="#6DC987"/>
</svg>
