<svg width="62" height="10" viewBox="0 0 62 10" fill="none" xmlns="http://www.w3.org/2000/svg">
<path d="M34.5967 9.73906C34.0835 9.73906 32.9363 9.7239 32.9363 9.7239C32.9363 9.7239 28.9287 3.02928 28.8155 2.85491C28.8155 5.19764 28.8155 7.44182 28.8155 9.70873C28.3552 9.70873 27.925 9.70873 27.457 9.70873C27.457 6.57751 27.457 3.43869 27.457 0.254395C28.0382 0.254395 29.3438 0.269558 29.3438 0.269558C29.3438 0.269558 33.125 6.61541 33.2307 6.78979C33.2307 4.56078 33.2307 2.43033 33.2307 0.27714C33.7061 0.27714 34.1439 0.27714 34.5892 0.27714C34.5967 3.42353 34.5967 6.55476 34.5967 9.73906Z" fill="black"/>
<path d="M45.3506 4.85667C45.3506 6.22895 45.0865 7.3662 44.3619 8.38972C42.9506 10.3837 39.3355 10.5429 38.0071 7.98031C37.0034 6.03182 36.943 4.04543 37.9845 2.10452C38.7619 0.656422 40.0449 0.00439875 41.6826 0.118124C43.2525 0.231849 44.2638 1.12649 44.8827 2.52909C45.2299 3.31759 45.3582 4.15157 45.3506 4.85667ZM43.3355 6.56254C43.5468 5.44804 43.5166 4.29562 43.2374 3.19628C43.2072 3.07497 43.177 2.96125 43.1393 2.83994C42.8525 1.91498 42.2034 1.48282 41.3128 1.49041C40.4223 1.49799 39.7581 1.93014 39.4562 2.82478C38.9732 4.2653 38.9732 5.72856 39.4562 7.16907C39.6751 7.81352 40.1128 8.29874 40.8223 8.45038C41.9393 8.69299 42.9732 8.04855 43.26 6.86581C43.2978 6.76725 43.3129 6.66868 43.3355 6.56254Z" fill="black"/>
<path d="M0 0.32254C1.58492 0.32254 3.15475 0.23156 4.70193 0.345285C6.21893 0.45901 7.17743 1.67208 7.14724 3.1505C7.1095 4.64409 6.07553 5.78892 4.58872 5.94814C4.18117 5.99363 3.75853 5.98605 3.34343 5.99363C2.81512 6.00121 2.28681 5.99363 1.71322 5.99363C1.71322 7.23702 1.71322 8.46525 1.71322 9.72381C1.11699 9.72381 0.57359 9.72381 0 9.72381C0 6.57742 0 3.44619 0 0.32254ZM1.71322 4.43939C2.6038 4.43939 3.47173 4.50762 4.32457 4.41664C4.98873 4.34841 5.35099 3.76462 5.3359 3.0671C5.32835 2.39992 4.95854 1.83887 4.30193 1.77822C3.44909 1.69482 2.5887 1.75548 1.71322 1.75548C1.71322 2.64253 1.71322 3.54475 1.71322 4.43939Z" fill="black"/>
<path d="M19.9243 0.261976C20.5884 0.261976 22.0375 0.254395 22.0375 0.254395C22.0375 0.254395 25.1621 9.56468 25.2149 9.73906C24.6338 9.73906 23.4187 9.7239 23.4187 9.7239L22.5885 7.47972H19.0035L18.2563 9.74664C18.2563 9.74664 17.1997 9.73906 16.7695 9.73906C17.8261 6.56234 18.8677 3.42353 19.9243 0.261976ZM20.8299 2.02092C20.8073 2.02092 20.7771 2.02092 20.7545 2.01334C20.3167 3.36288 19.8714 4.71242 19.4262 6.0847C20.3545 6.0847 21.245 6.0847 22.1658 6.0847C21.7054 4.71242 21.2677 3.36288 20.8299 2.02092Z" fill="black"/>
<path d="M53.8867 0.262207L55.932 0.269789C55.932 0.269789 58.1132 3.98481 58.2113 4.14402C58.7245 3.21148 60.3849 0.338024 60.3849 0.338024C60.3849 0.338024 61.8491 0.262207 62 0.262207C61.917 0.41384 58.9434 5.77408 58.9434 5.77408C58.9434 5.77408 58.9358 8.54897 58.9358 9.71655C58.317 9.71655 57.7358 9.71655 57.1094 9.71655C57.1094 9.09485 57.1169 5.77408 57.1169 5.77408L53.8867 0.262207Z" fill="black"/>
<path d="M48.0381 0.269531C48.6343 0.269531 49.2004 0.269531 49.8192 0.269531C49.8192 2.90037 49.8192 5.52363 49.8192 8.17721C51.1853 8.17721 52.4985 8.17721 53.8419 8.17721C53.8419 8.70035 53.8419 9.18557 53.8419 9.70871C51.9249 9.70871 49.9928 9.70871 48.0381 9.70871C48.0381 6.57748 48.0381 3.44625 48.0381 0.269531Z" fill="black"/>
<path d="M9.60059 9.70868C9.60059 6.56229 9.60059 3.43864 9.60059 0.284668C10.1968 0.284668 10.778 0.284668 11.3893 0.284668C11.3893 2.90792 11.3893 5.51602 11.3893 8.1696C12.7478 8.1696 14.0686 8.1696 15.4195 8.1696C15.4195 8.70032 15.4195 9.18554 15.4195 9.70868C13.495 9.70868 11.5629 9.70868 9.60059 9.70868Z" fill="black"/>
</svg>
