<svg width="60" height="14" viewBox="0 0 60 14" fill="none" xmlns="http://www.w3.org/2000/svg">
<path d="M56.7617 12.4819H54.6957V4.40223H56.7617V5.50679C57.3139 4.79087 58.2958 4.19768 59.2572 4.19768V6.26362C59.114 6.22271 58.9094 6.22271 58.6844 6.22271C58.0094 6.22271 57.0889 6.63181 56.7412 7.14318V12.4819H56.7617ZM51.2184 7.675C51.1775 6.89772 50.6457 5.87498 49.2752 5.87498C47.9865 5.87498 47.4343 6.85681 47.332 7.675H51.2184ZM49.3979 12.6864C47.0047 12.6864 45.2047 11.0296 45.2047 8.43183C45.2047 6.09998 46.882 4.19768 49.2752 4.19768C51.607 4.19768 53.2025 5.99771 53.2025 8.65683V9.12729H47.3729C47.4956 10.15 48.2934 11.0091 49.6229 11.0091C50.2979 11.0091 51.2184 10.7023 51.7093 10.2114L52.6093 11.5819C51.8525 12.2978 50.6252 12.6864 49.3979 12.6864ZM43.1797 12.4819H41.0933V6.24316H39.7842V4.38178H41.0933V3.95222C41.0933 2.23402 42.1569 1.14991 43.7319 1.14991C44.4888 1.14991 45.2661 1.35446 45.7774 1.90674L45.0001 3.15449C44.7956 2.92948 44.5092 2.82721 44.141 2.82721C43.5683 2.82721 43.1592 3.21585 43.1592 3.97268V4.40223H44.7547V6.26362H43.1592V12.4819H43.1797ZM37.8614 12.4819H35.7955V6.24316H34.4864V4.38178H35.7955V3.95222C35.7955 2.23402 36.8591 1.14991 38.4341 1.14991C39.1705 1.14991 39.9683 1.35446 40.4796 1.90674L39.7023 3.15449C39.4978 2.92948 39.2114 2.82721 38.8432 2.82721C38.2705 2.82721 37.8614 3.21585 37.8614 3.97268V4.40223H39.4569V6.26362H37.8614V12.4819ZM33.1977 12.4819H31.1318V11.4591C30.5999 12.0728 29.659 12.6864 28.3704 12.6864C26.6522 12.6864 25.834 11.7251 25.834 10.15V4.40223H27.8999V9.31139C27.8999 10.4364 28.4726 10.8046 29.3522 10.8046C30.1499 10.8046 30.784 10.3546 31.1318 9.88412V4.40223H33.1977V12.4819ZM18.4702 9.88412C18.818 10.3955 19.5748 10.7841 20.2498 10.7841C21.4566 10.7841 22.2544 9.84321 22.2544 8.43183C22.2544 7.02045 21.4566 6.07953 20.2498 6.07953C19.5748 6.07953 18.818 6.48862 18.4702 7.02045V9.88412ZM18.4702 12.4819H16.4043V0.96582H18.4702V5.42497C19.0839 4.60678 19.9634 4.17723 20.8839 4.17723C22.8885 4.17723 24.3612 5.79316 24.3612 8.43183C24.3612 11.1319 22.868 12.666 20.8839 12.666C19.943 12.666 19.0839 12.2364 18.4702 11.4387V12.4819Z" fill="#23404E"/>
<mask id="mask0" mask-type="alpha" maskUnits="userSpaceOnUse" x="0" y="9" width="11" height="5">
<path d="M0 13.0343V9.7002H10.5138V13.0343H0Z" fill="white"/>
</mask>
<g mask="url(#mask0)">
<path d="M10.4317 10.3338L9.24535 9.74064C9.14307 9.69973 8.97944 9.69973 8.87716 9.74064L5.46121 11.4384C5.35893 11.4998 5.19529 11.4998 5.09302 11.4384L1.63615 9.74064C1.53388 9.69973 1.37024 9.69973 1.26797 9.74064L0.0815884 10.3338C-0.0206857 10.3747 -0.0206857 10.477 0.0815884 10.5179L5.07256 12.993C5.17484 13.0339 5.33848 13.0339 5.44075 12.993L10.4317 10.5179C10.534 10.4566 10.534 10.3747 10.4317 10.3338Z" fill="#23404E"/>
</g>
<mask id="mask1" mask-type="alpha" maskUnits="userSpaceOnUse" x="0" y="6" width="11" height="4">
<path d="M0 9.76133V6.40674H10.5138V9.76133H0Z" fill="white"/>
</mask>
<g mask="url(#mask1)">
<path d="M10.4327 7.04009L9.24632 6.4469C9.14405 6.38554 8.98041 6.38554 8.87814 6.4469L5.46218 8.14465C5.35991 8.18556 5.19627 8.18556 5.094 8.14465L1.63713 6.4469C1.53486 6.38554 1.37122 6.38554 1.26894 6.4469L0.0825649 7.04009C-0.0197092 7.10146 -0.0197092 7.18328 0.0825649 7.22419L5.07354 9.69922C5.17582 9.76058 5.33945 9.76058 5.44173 9.69922L10.4327 7.22419C10.535 7.18328 10.535 7.10146 10.4327 7.04009Z" fill="#23404E"/>
</g>
<mask id="mask2" mask-type="alpha" maskUnits="userSpaceOnUse" x="0" y="1" width="11" height="6">
<path d="M0 6.48847V1.66113H10.5138V6.48847H0Z" fill="white"/>
</mask>
<g mask="url(#mask2)">
<path d="M0.0815884 4.15665L5.07256 6.44759C5.17484 6.4885 5.33848 6.4885 5.44075 6.44759L10.4317 4.15665C10.534 4.11574 10.534 4.03392 10.4317 3.99301L5.44075 1.70207C5.33848 1.66116 5.17484 1.66116 5.07256 1.70207L0.0815884 3.99301C-0.0206857 4.03392 -0.0206857 4.11574 0.0815884 4.15665Z" fill="#23404E"/>
</g>
</svg>
