<svg width="52" height="10" viewBox="0 0 52 10" fill="none" xmlns="http://www.w3.org/2000/svg">
<path d="M6.70801 2.99142C6.70801 3.9316 6.36618 4.6581 5.63978 5.17092C4.91338 5.68374 3.88787 5.94015 2.56326 5.94015H0.854089V10H0.0849609V0.170898H2.77691C5.3834 0.170898 6.70801 1.11107 6.70801 2.99142ZM0.854089 5.34186H2.34962C3.58877 5.34186 4.48609 5.17092 5.04157 4.7863C5.59705 4.40169 5.85343 3.84613 5.85343 3.03416C5.85343 2.26492 5.59705 1.70937 5.0843 1.36748C4.57154 0.982868 3.75969 0.811927 2.64872 0.811927H0.854089V5.34186Z" fill="#696969"/>
<path d="M10.8535 9.95726V0.170898H11.5799V9.31624H16.622V9.95726H10.8535Z" fill="#696969"/>
<path d="M26.108 7.64982H20.895L19.8695 9.95752H19.0576L23.2878 0.128418H23.7578L27.9026 9.95752H27.0907L26.108 7.64982ZM21.1514 7.00879H25.8516L23.9288 2.35065C23.8006 2.09424 23.6724 1.70962 23.5015 1.1968C23.3733 1.62415 23.2451 2.00877 23.0742 2.35065L21.1514 7.00879Z" fill="#696969"/>
<path d="M39.2255 9.95726H38.4563L32.2178 1.28201H32.1751C32.2178 2.30766 32.2606 3.11963 32.2606 3.63245V10H31.5342V0.170898H32.2606L38.4991 8.84615H38.5418C38.4991 8.03418 38.4563 7.26495 38.4563 6.53845V0.170898H39.1827V9.95726H39.2255Z" fill="#696969"/>
<path d="M51.9999 9.95726H51.2735L44.9923 1.28201H44.9495C44.9923 2.30766 45.035 3.11963 45.035 3.63245V10H44.3086V0.170898H45.035L51.2735 8.84615H51.3162C51.2735 8.03418 51.2308 7.26495 51.2308 6.53845V0.170898H51.9571V9.95726H51.9999Z" fill="#696969"/>
<path d="M6.62305 2.86349C6.62305 3.80367 6.28122 4.53017 5.55482 5.04299C4.82842 5.55581 3.80291 5.81222 2.4783 5.81222H0.769129V9.82934H0V0.0429688H2.69195C5.29844 0.0429688 6.62305 0.983144 6.62305 2.86349ZM0.769129 5.21393H2.26466C3.50381 5.21393 4.40112 5.04299 4.95661 4.65837C5.51209 4.27376 5.76846 3.7182 5.76846 2.90623C5.76846 2.13699 5.51209 1.58144 4.99934 1.23956C4.48658 0.854938 3.67473 0.641262 2.60649 0.641262H0.769129V5.21393Z" fill="#0C3754"/>
<path d="M10.7686 9.82934V0.0429688H11.495V9.18831H16.537V9.82934H10.7686Z" fill="#0C3754"/>
<path d="M26.022 7.47866H20.809L19.7835 9.8291H18.9717L23.2019 0H23.6719L27.8167 9.8291H27.0048L26.022 7.47866ZM21.0654 6.88037H25.7656L23.8856 2.22223C23.7574 1.96582 23.6292 1.5812 23.4583 1.06838C23.3301 1.49573 23.2019 1.88035 23.031 2.22223L21.0654 6.88037Z" fill="#0C3754"/>
<path d="M39.1405 9.82934H38.4141L32.1329 1.15408H32.0902C32.1329 2.17973 32.1756 2.9917 32.1756 3.50452V9.82934H31.4492V0.0429688H32.1756L38.4568 8.71822H38.4996C38.4568 7.90625 38.4141 7.13702 38.4141 6.41052V0.0429688H39.1405V9.82934Z" fill="#0C3754"/>
<path d="M51.9159 9.82934H51.1895L44.9083 1.15408H44.8655C44.9083 2.17973 44.951 2.9917 44.951 3.50452V9.82934H44.2246V0.0429688H44.951L51.1895 8.71822H51.2322C51.1895 7.90625 51.1468 7.13702 51.1468 6.41052V0.0429688H51.8732V9.82934H51.9159Z" fill="#0C3754"/>
</svg>
