<svg width="100" height="11" viewBox="0 0 100 11" fill="none" xmlns="http://www.w3.org/2000/svg">
<path d="M45.2549 1.00916C45.4547 0.504569 45.9542 0.302734 46.4538 0.302734C48.252 0.302734 49.9503 0.302734 51.7485 0.302734C51.5487 0.807322 51.3489 1.31191 51.249 1.8165C49.8504 1.8165 48.4518 1.8165 47.0532 1.8165C46.7534 1.8165 46.5536 2.11925 46.5536 2.422C46.5536 2.52292 46.6536 2.72475 46.7535 2.62384C47.7525 2.62384 48.7515 2.62384 49.7505 2.62384C50.0502 2.62384 50.3499 2.72475 50.5497 2.92659C50.8494 3.22934 50.8494 3.73393 50.6496 4.1376C50.4498 4.64218 50.25 5.24769 50.0502 5.85319C49.8504 6.35778 49.251 6.55962 48.7515 6.55962C47.0532 6.55962 45.2549 6.55962 43.5566 6.55962C43.6565 6.05503 43.8563 5.55044 43.9562 5.04585C45.3548 5.04585 46.7535 5.04585 48.1521 5.04585C48.5517 5.04585 48.8514 4.7431 48.8514 4.44035C48.9513 4.23851 48.6516 4.1376 48.5517 4.1376C47.5527 4.1376 46.6536 4.1376 45.6545 4.1376C45.2549 4.1376 44.8553 3.93576 44.6555 3.53209C44.5556 3.22934 44.6555 2.92659 44.7554 2.72475C44.8553 2.11925 45.0551 1.51374 45.2549 1.00916Z" fill="#B84E2B"/>
<path d="M59.94 0.302734C63.2367 0.302734 66.4335 0.302734 69.7302 0.302734C70.0299 0.302734 70.4295 0.302734 70.6293 0.605487C70.929 1.00916 70.7292 1.51374 70.6293 2.01833C69.93 3.53209 69.4305 5.04585 68.931 6.55962C68.3316 6.55962 67.8321 6.55962 67.2327 6.55962C67.7322 5.14677 68.2317 3.63301 68.7312 2.22017C68.8311 2.01833 68.7312 1.8165 68.5314 1.8165C67.7322 1.8165 67.0329 1.8165 66.2337 1.8165C65.934 1.8165 65.6343 2.01833 65.5344 2.32108C65.0349 3.73393 64.5354 5.14677 64.1358 6.55962C63.5364 6.55962 63.0369 6.55962 62.4375 6.55962C62.937 5.14677 63.4365 3.73393 63.8361 2.32108C63.936 2.11925 63.936 1.8165 63.6363 1.8165C62.8371 1.8165 62.1378 1.8165 61.3386 1.8165C61.2387 1.8165 60.939 2.01833 60.939 2.32108C60.4395 3.73393 59.94 5.14677 59.4405 6.55962C58.8411 6.55962 58.3416 6.55962 57.7422 6.55962C58.4415 4.44035 59.1408 2.422 59.94 0.302734Z" fill="#B84E2B"/>
<path d="M42.1484 9.26823C42.1484 9.76423 42.4404 10.0482 42.8644 10.0482C43.1484 10.0482 43.3484 9.92823 43.4884 9.82023L43.3524 9.62023C43.2324 9.71223 43.0924 9.79223 42.9204 9.79223C42.6124 9.79223 42.4604 9.60023 42.4604 9.24823C42.4604 8.71623 42.8244 8.26023 43.2124 8.26023C43.3644 8.26023 43.4564 8.31623 43.5564 8.43623L43.7364 8.24423C43.6204 8.11223 43.4644 8.00823 43.2324 8.00823C42.6684 8.00823 42.1484 8.54423 42.1484 9.26823Z" fill="#B84E2B"/>
<path d="M45.5881 10.0482C46.1201 10.0482 46.6401 9.52423 46.6401 8.78823C46.6401 8.30423 46.3641 8.00823 45.9441 8.00823C45.4121 8.00823 44.8961 8.53223 44.8961 9.26823C44.8961 9.75223 45.1681 10.0482 45.5881 10.0482ZM45.9121 8.26023C46.1801 8.26023 46.3281 8.45623 46.3281 8.80823C46.3281 9.35223 45.9801 9.79223 45.6201 9.79223C45.3521 9.79223 45.2041 9.60023 45.2041 9.24823C45.2041 8.70423 45.5561 8.26023 45.9121 8.26023Z" fill="#B84E2B"/>
<path d="M47.9827 10.0002H48.2867L48.5627 8.62423C48.7907 8.38023 48.9947 8.27223 49.1107 8.27223C49.3027 8.27223 49.3907 8.37623 49.3907 8.57223C49.3907 8.64023 49.3787 8.69623 49.3587 8.80023L49.1187 10.0002H49.4227L49.6987 8.62423C49.9307 8.38023 50.1347 8.27223 50.2467 8.27223C50.4387 8.27223 50.5307 8.37623 50.5307 8.57223C50.5307 8.64023 50.5187 8.69623 50.4987 8.80023L50.2547 10.0002H50.5627L50.8107 8.76023C50.8307 8.65223 50.8427 8.58423 50.8427 8.49223C50.8427 8.19223 50.7067 8.00823 50.3827 8.00823C50.1827 8.00823 49.9427 8.15223 49.6947 8.38823C49.6667 8.17623 49.5547 8.00823 49.2467 8.00823C49.0427 8.00823 48.8107 8.15623 48.6067 8.34823H48.5907L48.6187 8.05623H48.3667L47.9827 10.0002Z" fill="#B84E2B"/>
<path d="M52.574 9.76823H52.582C52.682 9.93223 52.846 10.0482 53.05 10.0482C53.586 10.0482 54.098 9.46023 54.098 8.71223C54.098 8.26023 53.878 8.00823 53.538 8.00823C53.294 8.00823 53.062 8.14823 52.866 8.31223H52.854L52.878 8.05623H52.626L52.074 10.8202H52.378L52.502 10.1842L52.574 9.76823ZM53.426 8.26423C53.646 8.26423 53.782 8.42823 53.782 8.75623C53.782 9.29623 53.426 9.79223 53.038 9.79223C52.886 9.79223 52.75 9.71223 52.642 9.51223L52.826 8.58423C53.01 8.38423 53.246 8.26423 53.426 8.26423Z" fill="#B84E2B"/>
<path d="M55.4627 9.23623C55.4627 9.75623 55.7667 10.0482 56.2267 10.0482C56.4787 10.0482 56.6987 9.95223 56.8547 9.84023L56.7347 9.63623C56.6107 9.72823 56.4507 9.80423 56.2987 9.80423C55.9587 9.80423 55.6987 9.59223 55.7707 9.09223H57.0347C57.0587 9.02023 57.1027 8.86823 57.1027 8.71223C57.1027 8.31223 56.9387 8.00823 56.5027 8.00823C55.9947 8.00823 55.4627 8.50423 55.4627 9.23623ZM55.8027 8.88423C55.9027 8.50023 56.1827 8.25223 56.4667 8.25223C56.7467 8.25223 56.8427 8.46423 56.8427 8.68423C56.8427 8.76023 56.8347 8.82023 56.8227 8.88423H55.8027Z" fill="#B84E2B"/>
<path d="M58.53 9.40023C58.522 9.47223 58.51 9.53623 58.51 9.61623C58.51 9.85623 58.634 10.0482 58.974 10.0482C59.126 10.0482 59.254 10.0002 59.342 9.96023L59.274 9.74023C59.214 9.76823 59.146 9.80023 59.07 9.80023C58.886 9.80023 58.822 9.72023 58.822 9.56023C58.822 9.50823 58.826 9.46423 58.834 9.41623L59.062 8.30423H59.562L59.61 8.05623H59.118L59.226 7.52023H58.966L58.822 8.05623L58.518 8.07623L58.474 8.30423H58.758L58.53 9.40023Z" fill="#B84E2B"/>
<path d="M60.7188 10.0002H61.0228L61.4148 8.05623H61.1068L60.7188 10.0002ZM61.3668 7.65223C61.4908 7.65223 61.5988 7.55623 61.5988 7.42423C61.5988 7.30823 61.5068 7.24023 61.4028 7.24023C61.2788 7.24023 61.1708 7.34023 61.1708 7.47223C61.1708 7.58823 61.2628 7.65223 61.3668 7.65223Z" fill="#B84E2B"/>
<path d="M62.9 9.40023C62.892 9.47223 62.88 9.53623 62.88 9.61623C62.88 9.85623 63.004 10.0482 63.344 10.0482C63.496 10.0482 63.624 10.0002 63.712 9.96023L63.644 9.74023C63.584 9.76823 63.516 9.80023 63.44 9.80023C63.256 9.80023 63.192 9.72023 63.192 9.56023C63.192 9.50823 63.196 9.46423 63.204 9.41623L63.432 8.30423H63.932L63.98 8.05623H63.488L63.596 7.52023H63.336L63.192 8.05623L62.888 8.07623L62.844 8.30423H63.128L62.9 9.40023Z" fill="#B84E2B"/>
<path d="M65.7698 10.0482C66.3018 10.0482 66.8218 9.52423 66.8218 8.78823C66.8218 8.30423 66.5458 8.00823 66.1258 8.00823C65.5938 8.00823 65.0778 8.53223 65.0778 9.26823C65.0778 9.75223 65.3498 10.0482 65.7698 10.0482ZM66.0938 8.26023C66.3618 8.26023 66.5098 8.45623 66.5098 8.80823C66.5098 9.35223 66.1618 9.79223 65.8018 9.79223C65.5338 9.79223 65.3858 9.60023 65.3858 9.24823C65.3858 8.70423 65.7378 8.26023 66.0938 8.26023Z" fill="#B84E2B"/>
<path d="M68.1644 10.0002H68.4684L68.7124 8.77223C68.8764 8.45623 69.0924 8.28423 69.2844 8.28423C69.3564 8.28423 69.4124 8.29623 69.4524 8.31623L69.5604 8.04423C69.5044 8.02023 69.4484 8.00823 69.3764 8.00823C69.1364 8.00823 68.9284 8.19223 68.7724 8.42823H68.7564L68.8004 8.05623H68.5484L68.1644 10.0002Z" fill="#B84E2B"/>
<path d="M70.4282 9.68023C70.5602 9.88423 70.8362 10.0482 71.0962 10.0482C71.5162 10.0482 71.8242 9.81223 71.8242 9.44823C71.8242 9.23623 71.7162 9.08823 71.3682 8.89623C71.1922 8.80023 71.0242 8.71623 71.0242 8.55223C71.0242 8.38823 71.1842 8.24823 71.3922 8.24823C71.5682 8.24823 71.6922 8.33223 71.7962 8.44023L71.9722 8.26823C71.8282 8.11623 71.6362 8.00823 71.4002 8.00823C71.0362 8.00823 70.7322 8.24423 70.7322 8.58823C70.7322 8.80823 70.8762 8.95623 71.1762 9.12023C71.4482 9.26823 71.5322 9.34823 71.5322 9.48823C71.5322 9.66423 71.3442 9.81223 71.1202 9.81223C70.9162 9.81223 70.7402 9.69623 70.6202 9.52823L70.4282 9.68023Z" fill="#B84E2B"/>
<path d="M75.124 9.99986H75.428L75.672 8.77186C75.836 8.45586 76.052 8.28386 76.244 8.28386C76.316 8.28386 76.372 8.29586 76.412 8.31586L76.52 8.04386C76.464 8.01986 76.408 8.00786 76.336 8.00786C76.096 8.00786 75.888 8.19186 75.732 8.42786H75.716L75.76 8.05586H75.508L75.124 9.99986Z" fill="#B84E2B"/>
<path d="M78.1761 9.23586C78.1761 9.75586 78.4801 10.0479 78.9401 10.0479C79.1921 10.0479 79.4121 9.95186 79.5681 9.83986L79.4481 9.63586C79.3241 9.72786 79.1641 9.80386 79.0121 9.80386C78.6721 9.80386 78.4121 9.59186 78.4841 9.09186H79.7481C79.7721 9.01986 79.8161 8.86786 79.8161 8.71186C79.8161 8.31186 79.6521 8.00786 79.2161 8.00786C78.7081 8.00786 78.1761 8.50386 78.1761 9.23586ZM78.5161 8.88386C78.6161 8.49986 78.8961 8.25186 79.1801 8.25186C79.4601 8.25186 79.5561 8.46386 79.5561 8.68386C79.5561 8.75986 79.5481 8.81986 79.5361 8.88386H78.5161Z" fill="#B84E2B"/>
<path d="M81.6379 9.67986C81.7699 9.88386 82.0459 10.0479 82.3059 10.0479C82.7259 10.0479 83.0339 9.81186 83.0339 9.44786C83.0339 9.23586 82.9259 9.08786 82.5779 8.89586C82.4019 8.79986 82.2339 8.71586 82.2339 8.55186C82.2339 8.38786 82.3939 8.24786 82.6019 8.24786C82.7779 8.24786 82.9019 8.33186 83.0059 8.43986L83.1819 8.26786C83.0379 8.11586 82.8459 8.00786 82.6099 8.00786C82.2459 8.00786 81.9419 8.24386 81.9419 8.58786C81.9419 8.80786 82.0859 8.95586 82.3859 9.11986C82.6579 9.26786 82.7419 9.34786 82.7419 9.48786C82.7419 9.66386 82.5539 9.81186 82.3299 9.81186C82.1259 9.81186 81.9499 9.69586 81.8299 9.52786L81.6379 9.67986Z" fill="#B84E2B"/>
<path d="M85.1113 9.23586C85.1113 9.75586 85.4153 10.0479 85.8753 10.0479C86.1273 10.0479 86.3473 9.95186 86.5033 9.83986L86.3833 9.63586C86.2593 9.72786 86.0993 9.80386 85.9473 9.80386C85.6073 9.80386 85.3473 9.59186 85.4193 9.09186H86.6833C86.7073 9.01986 86.7513 8.86786 86.7513 8.71186C86.7513 8.31186 86.5873 8.00786 86.1513 8.00786C85.6433 8.00786 85.1113 8.50386 85.1113 9.23586ZM85.4513 8.88386C85.5513 8.49986 85.8313 8.25186 86.1153 8.25186C86.3953 8.25186 86.4913 8.46386 86.4913 8.68386C86.4913 8.75986 86.4833 8.81986 86.4713 8.88386H85.4513Z" fill="#B84E2B"/>
<path d="M88.7131 9.99986H89.0171L89.2611 8.77186C89.4251 8.45586 89.6411 8.28386 89.8331 8.28386C89.9051 8.28386 89.9611 8.29586 90.0011 8.31586L90.1091 8.04386C90.0531 8.01986 89.9971 8.00786 89.9251 8.00786C89.6851 8.00786 89.4771 8.19186 89.3211 8.42786H89.3051L89.3491 8.05586H89.0971L88.7131 9.99986Z" fill="#B84E2B"/>
<path d="M91.7652 9.26786C91.7652 9.76386 92.0572 10.0479 92.4812 10.0479C92.7652 10.0479 92.9652 9.92786 93.1052 9.81986L92.9692 9.61986C92.8492 9.71186 92.7092 9.79186 92.5372 9.79186C92.2292 9.79186 92.0772 9.59986 92.0772 9.24786C92.0772 8.71586 92.4412 8.25986 92.8292 8.25986C92.9812 8.25986 93.0732 8.31586 93.1732 8.43586L93.3532 8.24386C93.2372 8.11186 93.0812 8.00786 92.8492 8.00786C92.2852 8.00786 91.7652 8.54386 91.7652 9.26786Z" fill="#B84E2B"/>
<path d="M95.1795 9.99986H95.4835L95.7595 8.62386C96.0035 8.37986 96.1915 8.27186 96.3435 8.27186C96.5435 8.27186 96.6315 8.37586 96.6315 8.57186C96.6315 8.63986 96.6195 8.69586 96.5995 8.79986L96.3595 9.99986H96.6635L96.9115 8.75986C96.9355 8.65186 96.9435 8.58386 96.9435 8.49186C96.9435 8.19186 96.8115 8.00786 96.4835 8.00786C96.2475 8.00786 96.0355 8.14786 95.8155 8.33586H95.7995L95.8635 8.09186L96.0555 7.15186H95.7475L95.1795 9.99986Z" fill="#B84E2B"/>
<path d="M72.1288 0.504569C72.4285 0.302734 72.7282 0.302734 73.1278 0.302734C74.926 0.302734 76.6243 0.302734 78.4225 0.302734C78.2227 0.807322 78.1228 1.31191 77.923 1.8165C76.5244 1.8165 75.0259 1.8165 73.6273 1.8165C73.3276 1.8165 73.1278 2.01833 73.0279 2.32108C72.5284 3.73393 72.0289 5.14677 71.5294 6.55962C70.93 6.55962 70.4305 6.55962 69.8311 6.55962C70.4305 4.84402 71.0299 3.12842 71.6293 1.41283C71.6293 1.00916 71.8291 0.706404 72.1288 0.504569Z" fill="#B84E2B"/>
<path d="M79.121 0.302578C79.7204 0.302578 80.2199 0.302578 80.8193 0.302578C80.3198 1.71542 79.8203 3.22918 79.3208 4.64203C79.2209 4.84386 79.3208 5.0457 79.5206 5.0457C80.2199 5.0457 80.8193 5.0457 81.5186 5.0457C81.7184 5.0457 81.9182 5.0457 82.118 4.94478C82.2179 4.84386 82.3178 4.64203 82.4177 4.44019C82.9172 3.02735 83.4167 1.6145 83.8163 0.20166C84.4157 0.20166 84.9152 0.20166 85.5146 0.20166C84.9152 2.22001 84.3158 4.03652 83.6165 5.95395C83.5166 6.35762 83.0171 6.55946 82.6175 6.55946C81.119 6.55946 79.7204 6.55946 78.2219 6.55946C77.9222 6.55946 77.5226 6.45854 77.3228 6.15579C77.123 5.75212 77.3228 5.34845 77.4227 4.94478C78.122 3.3301 78.6215 1.81634 79.121 0.302578Z" fill="#B84E2B"/>
<path d="M86.1143 1.00916C86.3141 0.504569 86.9135 0.302734 87.413 0.302734C89.1113 0.302734 90.9095 0.302734 92.6078 0.302734C92.408 0.807322 92.2082 1.31191 92.1083 1.8165C90.7097 1.8165 89.3111 1.8165 87.9125 1.8165C87.5129 1.8165 87.2132 2.422 87.5129 2.62384C88.5119 2.62384 89.5109 2.62384 90.6098 2.62384C90.9095 2.62384 91.2092 2.72475 91.409 2.92659C91.7087 3.22934 91.7087 3.73393 91.5089 4.1376C91.3091 4.7431 91.1093 5.24769 90.9095 5.85319C90.7097 6.35778 90.1103 6.55962 89.6108 6.55962C87.9125 6.55962 86.1143 6.55962 84.416 6.55962C84.6158 6.05503 84.7157 5.55044 84.9155 5.04585C86.3141 5.04585 87.7127 5.04585 89.1113 5.04585C89.5109 5.04585 89.9105 4.64218 89.8106 4.23851C89.7107 4.1376 89.5109 4.1376 89.411 4.1376C88.5119 4.1376 87.5129 4.1376 86.6138 4.1376C86.2142 4.1376 85.8146 3.93576 85.6148 3.53209C85.5149 3.22934 85.6148 3.02751 85.7147 2.72475C85.7147 2.11925 85.9145 1.51374 86.1143 1.00916Z" fill="#B84E2B"/>
<path d="M93.5067 0.302578C94.1061 0.302578 94.6056 0.302578 95.205 0.302578C94.9053 1.009 94.6056 1.81634 94.4058 2.52276C95.4048 2.52276 96.4038 2.52276 97.5027 2.52276C97.8024 1.71542 98.0022 1.009 98.3019 0.20166C98.9013 0.20166 99.4008 0.20166 100 0.20166V0.302578C99.201 2.32093 98.6016 4.44019 97.8024 6.45854C97.203 6.45854 96.7035 6.45854 96.1041 6.45854C96.3039 5.6512 96.6036 4.84386 96.9033 4.03652C95.9043 4.03652 94.9053 4.03652 93.8064 4.03652C93.5067 4.84386 93.207 5.75212 92.9073 6.55946C92.3079 6.55946 91.8084 6.55946 91.209 6.55946C92.0082 4.44019 92.7075 2.32093 93.5067 0.302578Z" fill="#B84E2B"/>
<path d="M38.8612 2.52294C38.1619 1.51376 37.2628 0.605505 36.064 0.302752C35.6644 0.100917 35.1649 0 34.7653 0H33.9661C32.1679 0.201835 30.2698 0.605505 28.4716 0.807339C27.4726 1.00917 26.4736 1.00917 25.4746 0.706422C25.9741 1.31193 26.7733 1.7156 27.4726 1.81651C27.8722 1.91743 28.2718 2.11927 28.2718 2.52294C28.2718 2.92661 27.9721 3.02752 27.7723 3.02752C27.4726 3.02752 27.2728 2.82569 26.9731 2.72477C26.1739 2.11927 25.4746 1.51376 24.5755 1.11009C23.1769 0.504587 21.5785 0.504587 20.08 0.807339C20.4796 1.00917 20.9791 1.31193 21.3787 1.51376C19.7803 1.31193 18.2818 1.21101 16.6834 1.41284C18.3817 1.91743 20.08 2.3211 21.7783 2.82569C22.1779 3.02752 22.5775 3.12844 22.9771 3.33028C21.8782 3.63303 20.7793 3.63303 19.5805 3.43119C16.7833 2.92661 14.4855 1.11009 11.6883 0.605505C10.3896 0.302752 9.09093 0.40367 7.89212 0.706422C9.59043 0.908257 11.1888 1.21101 12.6873 2.01835C13.3866 2.42202 13.986 3.02752 14.6853 3.53211C15.5844 4.23853 16.5835 4.6422 17.6824 4.6422C19.5805 4.74312 21.4786 4.44037 23.3767 4.13761C24.076 4.13761 24.7753 4.0367 25.3747 4.23853C25.8742 4.33945 25.7743 5.14679 25.3747 5.34862C24.9751 5.65138 24.4756 5.65138 23.9761 5.65138C20.6794 5.85321 17.2828 5.44954 14.3856 4.0367C12.987 3.43119 11.5884 2.62385 10.0899 2.42202C10.4895 2.82569 10.989 3.22936 11.3886 3.63303C10.2897 3.22936 8.99103 3.22936 7.79222 3.33028C5.79422 3.63303 3.79621 4.23853 1.79821 4.74312C1.1988 4.94495 0.599402 5.14679 0 5.34862C0.699302 5.55046 1.3986 5.65138 2.19781 5.55046C3.09691 5.55046 4.09591 5.44954 4.99502 5.34862C6.19382 5.24771 7.39262 5.44954 8.49153 5.85321C9.19083 6.15596 9.89013 6.66055 10.5894 6.9633C12.1878 7.66972 14.0859 7.66972 15.7842 7.06422C16.0839 6.9633 16.3836 6.76147 16.6834 6.76147C16.9831 6.76147 17.2828 6.86239 17.4826 7.06422C17.5825 7.16514 17.5825 7.26606 17.4826 7.36697C17.1829 7.66973 16.7833 7.77064 16.4835 7.87156C14.7852 8.57798 12.7872 8.88073 10.989 8.27523C12.0879 9.08257 13.4865 9.2844 14.7852 9.2844C16.7833 9.2844 18.7813 8.77982 20.5795 7.97248C21.8782 7.36697 23.077 6.86239 24.4756 6.3578C24.9751 6.15596 25.5745 6.05505 26.1739 6.05505C26.3737 6.05505 26.6734 6.15596 26.7733 6.45872C26.6734 6.76147 26.3737 6.86239 26.1739 6.9633C24.7753 7.56881 23.2768 7.77064 21.8782 8.47706C23.4766 8.47706 25.075 8.47706 26.7733 8.47706C28.6714 8.57798 30.5695 8.88073 32.3677 9.58716C33.067 9.88991 33.8662 10.0917 34.5655 10.0917C35.5645 10.0917 36.5635 9.78899 37.3627 9.2844C38.4616 8.47706 39.3607 7.36697 39.5605 6.05505C39.7603 4.94495 39.5605 3.63303 38.8612 2.52294ZM37.1629 8.47706C36.1639 9.2844 34.8652 9.48624 33.6664 9.18349C32.4676 8.88073 31.4686 7.97248 30.9691 6.86239C30.4696 5.65138 30.4696 4.23853 31.1689 3.02752C31.7683 1.91743 32.8672 1.21101 34.066 1.00917C35.1649 0.807339 36.3637 1.11009 37.2628 1.81651C38.2618 2.62385 38.8612 3.83486 38.8612 5.04587C38.7613 6.45872 38.1619 7.77064 37.1629 8.47706Z" fill="#B84E2B"/>
<path d="M52.2475 1.11007C52.4473 0.605487 52.9468 0.302734 53.4463 0.302734C54.8449 0.302734 56.3434 0.302734 57.742 0.302734C58.0417 0.302734 58.4413 0.504569 58.5412 0.807322C58.741 1.41283 58.4413 2.01833 58.2415 2.52292C58.0417 3.02751 57.8419 3.63301 57.6421 4.1376C56.0437 4.1376 54.4453 4.1376 52.8469 4.1376C52.747 4.33943 52.747 4.54127 52.6471 4.7431C52.6471 4.94494 52.8469 5.04585 52.9468 5.04585C54.4453 5.04585 55.8439 5.04585 57.3424 5.04585C57.1426 5.55044 57.0427 6.05503 56.8429 6.55962C55.3444 6.55962 53.8459 6.55962 52.2475 6.55962C51.748 6.55962 51.2485 6.55962 50.9488 6.25686C50.6491 5.95411 50.749 5.44952 50.8489 5.14677C51.3484 3.73393 51.748 2.422 52.2475 1.11007ZM53.3464 2.72475C54.3454 2.72475 55.4443 2.72475 56.4433 2.72475C56.5432 2.52292 56.6431 2.32108 56.6431 2.01833C56.6431 1.71558 56.3434 1.8165 56.1436 1.8165C55.4443 1.8165 54.6451 1.8165 53.9458 1.8165C53.6461 1.91741 53.4463 2.32108 53.3464 2.72475Z" fill="#B84E2B"/>
<path d="M33.8667 2.0186C35.2653 1.61493 36.7638 2.32136 37.4631 3.63328C37.8627 4.44062 37.9626 5.4498 37.6629 6.35805C37.3632 7.26631 36.6639 8.07365 35.6649 8.3764C34.9656 8.67915 34.1664 8.67915 33.4671 8.3764C32.5679 8.07365 31.7687 7.26631 31.469 6.35805C31.1693 5.55071 31.2692 4.64246 31.5689 3.93603C32.1683 2.92686 32.9676 2.22044 33.8667 2.0186ZM34.9656 2.52319C34.8657 2.62411 34.6659 2.82594 34.566 3.02778C35.6649 3.22961 36.564 4.13787 36.6639 5.24796C36.7638 5.95438 36.564 6.76172 36.1644 7.36723C36.9636 6.66081 37.3632 5.4498 36.9636 4.3397C36.7638 3.33053 35.9646 2.72503 34.9656 2.52319Z" fill="#B84E2B"/>
</svg>
