<svg width="48" height="14" viewBox="0 0 48 14" fill="none" xmlns="http://www.w3.org/2000/svg">
<path d="M41.0602 9.33333L47.9942 1.75H33.4786C33.201 1.7605 32.9777 1.98333 32.9639 2.2645V3.8605C31.632 1.57267 28.8983 0 25.7349 0C21.9967 0 18.8588 2.19333 17.9277 5.17008V1.75H15.3947C14.7915 1.75875 14.2629 2.02883 13.8795 2.43658L8.96501 7.87617L4.04819 2.43658C3.66651 2.02825 3.13851 1.75875 2.53475 1.75H0V12.8333H2.95923C3.24376 12.8193 3.45831 12.5883 3.46988 12.3025V7L8.96385 13.125L14.4578 7V12.3025C14.4677 12.5883 14.6978 12.8193 14.9812 12.8333H17.9277V8.82992C18.8588 11.8067 21.9967 14 25.7349 14C30.2065 14 33.8313 10.8657 33.8313 7C33.8313 6.3945 33.733 5.81 33.5653 5.25H39.9036L32.9639 12.8333H47.4818C47.7594 12.8228 47.9861 12.5982 48 12.3177V9.33333H41.0602ZM25.7627 10.4767C23.5859 10.4767 21.8198 8.92033 21.8198 7C21.8198 5.07908 23.5853 3.52333 25.7627 3.52333C27.9418 3.52333 29.708 5.07967 29.708 7C29.708 8.92033 27.9424 10.4767 25.7627 10.4767Z" fill="#4DBDEB"/>
</svg>
