<svg width="106" height="14" viewBox="0 0 106 14" fill="none" xmlns="http://www.w3.org/2000/svg">
<path d="M62.5642 2.19679L64.0484 6.32698H61.1727L62.5649 2.19679H62.5642ZM62.0074 0.813477L58.7607 9.85773H59.9664L60.8011 7.4007H64.4181L65.2528 9.85773H66.4585L63.2118 0.813477H62.0061H62.0074ZM79.5333 9.86564H80.652V0.820064H79.5333V9.86432V9.86564ZM68.129 4.54975C68.5001 3.95953 69.2477 3.46813 69.9842 3.46813C71.4683 3.46813 72.2104 4.54975 72.2104 6.12278V9.95654H71.0917V6.31908C71.0917 5.04116 70.4422 4.54909 69.6076 4.54909C68.6797 4.54909 68.0308 5.53256 68.0308 6.41723V9.85839H66.9122V3.57484H68.0308L68.1241 4.55831L68.129 4.54975ZM73.1382 7.9975C73.1382 6.61419 74.3439 5.83426 75.7361 5.83426C76.5707 5.83426 77.1282 6.03187 77.3128 6.22752V6.0299C77.3128 5.04643 76.5707 4.55436 75.8286 4.55436C75.1792 4.55436 74.623 4.84947 74.4365 5.43902L73.416 4.94762C73.6025 4.3574 74.3439 3.47208 75.8274 3.47208C77.2195 3.47208 78.4252 4.35674 78.4252 6.12673V9.863H77.4047V8.97834H77.3115C77.0331 9.46975 76.3836 10.06 75.3638 10.06C74.1581 10.06 73.1376 9.27345 73.1376 7.99553L73.1382 7.9975ZM77.3115 7.20901C77.3115 7.20901 76.8479 6.81575 75.9194 6.81575C74.8007 6.81575 74.3427 7.50412 74.3427 8.00146C74.3427 8.68982 74.9921 8.98493 75.5484 8.98493C76.383 8.98493 77.3109 8.19841 77.3109 7.21494" fill="#757575"/>
<path fill-rule="evenodd" clip-rule="evenodd" d="M82.826 12.3715L84.1431 9.16203L81.8037 3.52056H82.9326L84.7113 7.80005L86.49 3.52056H87.6189L83.9687 12.3715H82.8398H82.826ZM99.3021 5.56158C99.0211 4.78349 98.3657 4.29735 97.7109 4.29735C96.7745 4.29735 95.9322 5.17253 95.9322 6.43742C95.9322 7.7023 96.7745 8.57749 97.7109 8.57749C98.3663 8.57749 99.028 8.09135 99.3021 7.40449L100.238 7.98838C99.7706 9.05842 98.8336 9.73941 97.7109 9.73941C96.1198 9.73941 94.809 8.27968 94.809 6.4322C94.809 4.48698 96.126 3.125 97.7109 3.125C98.8399 3.125 99.7706 3.80599 100.238 4.87603L99.3021 5.55702V5.56158Z" fill="#757575"/>
<path d="M103.595 10.0517C105.198 10.0517 106 9.1359 106 8.01623C106 5.57368 102.493 6.48878 102.493 5.06499C102.493 4.5563 102.894 4.25081 103.595 4.25081C104.297 4.25081 105.005 4.5563 105.298 5.06499L106 4.35241C105.599 3.84372 104.496 3.125 103.496 3.125C101.992 3.125 101.192 4.04078 101.192 5.16045C101.192 7.5014 104.798 6.6879 104.798 7.90849C104.798 8.51946 104.398 8.92656 103.59 8.92656C102.783 8.92656 102.382 8.41786 101.987 7.90849L101.097 8.62789C101.698 9.23886 102.601 10.0599 103.601 10.0599L103.595 10.0517ZM92.1738 9.84848H93.3821V3.33502H92.1738V9.84848Z" fill="#757575"/>
<path fill-rule="evenodd" clip-rule="evenodd" d="M92.596 0.813477C93.0523 0.813477 93.3263 1.20693 93.3263 1.60038C93.3263 2.09204 92.9612 2.38729 92.596 2.38729C92.2309 2.38729 91.8657 1.99384 91.8657 1.60038C91.8657 1.20693 92.2309 0.813477 92.596 0.813477ZM91.0443 9.17486L91.2278 10.06H90.1269C89.1226 10.06 88.6663 9.27306 88.6663 8.09269V5.0314H87.5654V3.84511H88.6663V1.98791H89.7673V3.85697H91.0517V5.04327H89.7673V8.28909C89.7673 9.1742 90.4064 9.1742 91.0517 9.1742L91.0443 9.17486Z" fill="#757575"/>
<path d="M20.1874 5.46593V6.89139H23.5634C23.4665 7.65121 23.1776 8.22775 22.7918 8.6013C22.3097 9.07603 21.5381 9.64621 20.1874 9.64621C18.162 9.64621 16.5218 8.03175 16.5218 5.94257C16.5218 3.94821 18.1613 2.23893 20.1874 2.23893C21.3506 2.23893 22.1165 2.71366 22.6949 3.18902L23.6597 2.23893C22.7918 1.47911 21.7306 0.813477 20.1874 0.813477C17.3904 0.813477 14.9785 3.09293 14.9785 5.84075C14.9785 8.58857 17.3891 10.868 20.1874 10.868C21.7306 10.868 22.8888 10.3933 23.756 9.44257C24.7209 8.49248 25.0098 7.25794 25.0098 6.21303C25.0098 5.92793 25.0098 5.54803 24.9128 5.35839H20.1867L20.1874 5.46593ZM28.771 4.32048C26.9382 4.32048 25.4912 5.65684 25.4912 7.55003C25.4912 9.44321 26.9389 10.7796 28.771 10.7796C29.2028 10.7834 29.631 10.7025 30.0307 10.5415C30.4304 10.3806 30.7935 10.1428 31.0988 9.84218C31.4042 9.54152 31.6456 9.18398 31.809 8.79043C31.9725 8.39687 32.0547 7.9752 32.0508 7.55003C32.0508 5.65048 30.6032 4.32048 28.771 4.32048ZM28.771 9.53866C27.8062 9.53866 26.9382 8.68403 26.9382 7.5443C26.9382 6.40457 27.8062 5.5563 28.771 5.5563C29.7359 5.5563 30.6045 6.31993 30.6045 7.54812C30.6045 8.7763 29.7365 9.54248 28.7717 9.54248L28.771 9.53866ZM44.585 4.98484C44.1992 4.60493 43.6202 4.22502 42.7522 4.22502C41.1127 4.22502 39.6657 5.65048 39.6657 7.45457C39.6657 9.25866 41.1133 10.6841 42.7522 10.6841C43.5239 10.6841 44.1999 10.3042 44.4887 9.9243H44.5857V10.399C44.5857 11.6336 43.9103 12.2986 42.8492 12.2986C41.9812 12.2986 41.4015 11.6336 41.2096 11.1531L39.9559 11.6278C40.3417 12.4825 41.313 13.5274 42.8498 13.5274C44.5863 13.5274 46.0326 12.5773 46.0326 10.1082V4.21993H44.6755V4.97975L44.585 4.98484ZM42.9455 9.54376C41.9806 9.54376 41.209 8.68912 41.209 7.54939C41.209 6.40966 41.9806 5.55503 42.9455 5.55503C43.9103 5.55503 44.682 6.40966 44.682 7.54939C44.682 8.68912 43.9103 9.54376 42.9455 9.54376ZM35.9032 4.32557C34.0704 4.32557 32.6234 5.66193 32.6234 7.55512C32.6234 9.4483 34.071 10.7847 35.9032 10.7847C36.3349 10.7885 36.7632 10.7076 37.1628 10.5466C37.5625 10.3857 37.9256 10.1479 38.231 9.84727C38.5363 9.54661 38.7777 9.18907 38.9412 8.79552C39.1046 8.40197 39.1868 7.98029 39.1829 7.55512C39.2799 5.65557 37.7353 4.32557 35.9032 4.32557ZM35.9032 9.54376C34.9383 9.54376 34.0704 8.68912 34.0704 7.54939C34.0704 6.40966 34.9383 5.55503 35.9032 5.55503C36.868 5.55503 37.736 6.31484 37.736 7.54939C37.736 8.78394 36.868 9.54376 35.9032 9.54376ZM47.1054 0.907023H48.5531V10.7847H47.1054V0.907023ZM52.5069 9.55012C51.7353 9.55012 51.2531 9.17021 50.8673 8.60003L55.3046 6.7953L55.1107 6.41539C54.8212 5.65557 53.9474 4.32557 52.3137 4.32557C50.5772 4.32557 49.2271 5.66193 49.2271 7.55512C49.2232 7.98029 49.3054 8.40197 49.4689 8.79552C49.6323 9.18907 49.8738 9.54661 50.1791 9.84727C50.4844 10.1479 50.8475 10.3857 51.2472 10.5466C51.6469 10.7076 52.0751 10.7885 52.5069 10.7847C54.0502 10.7847 54.9174 9.83457 55.3039 9.35921L54.1406 8.59939C53.7548 9.16957 53.2727 9.54948 52.5011 9.54948L52.5069 9.55012ZM52.41 5.56012C52.989 5.56012 53.4711 5.84521 53.6637 6.31994L50.6735 7.55448C50.6735 6.12903 51.6383 5.56012 52.41 5.56012Z" fill="#757575"/>
<path d="M8.72266 1.67045V12.1705C8.72266 13.3453 9.53147 14 10.3879 14C11.1808 14 12.0531 13.4432 12.0531 12.1705V1.75C12.0531 0.672955 11.2601 0 10.3879 0C9.51561 0 8.72266 0.742159 8.72266 1.67045Z" fill="#F9AB00"/>
<path d="M4.36133 7.00004V12.1705C4.36133 13.3454 5.17014 14 6.02653 14C6.81949 14 7.69174 13.4432 7.69174 12.1705V7.07959C7.69174 6.00254 6.89878 5.32959 6.02653 5.32959C5.15428 5.32959 4.36133 6.07175 4.36133 7.00004Z" fill="#E37400"/>
<path d="M1.6652 14.0001C2.58487 14.0001 3.33041 13.2522 3.33041 12.3296C3.33041 11.4071 2.58487 10.6592 1.6652 10.6592C0.745538 10.6592 0 11.4071 0 12.3296C0 13.2522 0.745538 14.0001 1.6652 14.0001Z" fill="#E37400"/>
</svg>
