<svg width="130" height="14" viewBox="0 0 130 14" fill="none" xmlns="http://www.w3.org/2000/svg">
<path d="M48.8838 10.8087C48.1976 10.8087 47.5319 10.5823 46.8866 10.1396C46.2312 9.68669 45.8113 9.05875 45.6064 8.25581L46.7125 7.80286C46.8457 8.31757 47.112 8.76022 47.5216 9.11022C47.9313 9.47051 48.3819 9.64551 48.894 9.64551C49.4163 9.64551 49.867 9.51169 50.2357 9.23375C50.6044 8.95581 50.7887 8.58522 50.7887 8.11169C50.7887 7.58669 50.6044 7.17492 50.2357 6.89698C49.867 6.60875 49.2729 6.3411 48.4741 6.10433C47.6445 5.83669 47.0095 5.49698 46.5896 5.08522C46.1595 4.66316 45.9444 4.13816 45.9444 3.47933C45.9444 2.79992 46.2107 2.21316 46.7433 1.70875C47.2758 1.20433 47.9723 0.957275 48.8326 0.957275C49.6314 0.957275 50.2766 1.15286 50.7682 1.55433C51.2701 1.9558 51.5875 2.38816 51.7412 2.86169L50.6351 3.32492C50.5531 3.02639 50.3586 2.74845 50.0513 2.4911C49.7441 2.23375 49.3446 2.11022 48.853 2.11022C48.3922 2.11022 47.9927 2.24404 47.665 2.50139C47.3373 2.75875 47.1734 3.08816 47.1734 3.46904C47.1734 3.81904 47.327 4.11757 47.624 4.35433C47.921 4.5911 48.3717 4.81757 48.9555 5.00286C49.4163 5.15728 49.8055 5.30139 50.1128 5.43522C50.42 5.57933 50.7375 5.76463 51.055 5.9911C51.3725 6.22786 51.6183 6.5161 51.7719 6.85581C51.9358 7.20581 52.0177 7.60728 52.0177 8.06022C52.0177 8.51316 51.9255 8.92492 51.7309 9.28522C51.5466 9.64551 51.2905 9.93375 50.9833 10.1396C50.676 10.3455 50.3381 10.5102 49.9796 10.6235C49.6212 10.7573 49.2525 10.8087 48.8838 10.8087Z" fill="#616161"/>
<path d="M55.9609 10.8088C54.988 10.8088 54.1993 10.4794 53.5951 9.83082C52.9908 9.18229 52.6836 8.35876 52.6836 7.37053C52.6836 6.43376 52.9806 5.62053 53.5644 4.94111C54.1584 4.2617 54.906 3.922 55.8278 3.922C56.7802 3.922 57.5381 4.23082 58.1116 4.85876C58.6852 5.4867 58.9719 6.32053 58.9719 7.36023L58.9617 7.5867H53.8921C53.9228 8.23523 54.1481 8.74994 54.5373 9.13082C54.9367 9.5117 55.3976 9.697 55.9302 9.697C56.7905 9.697 57.3845 9.32641 57.6917 8.58523L58.7671 9.03817C58.5623 9.54259 58.2141 9.95435 57.7327 10.2941C57.2513 10.6441 56.6676 10.8088 55.9609 10.8088ZM57.6917 6.59847C57.661 6.22788 57.4971 5.87788 57.1899 5.54847C56.8826 5.21906 56.4218 5.04406 55.8073 5.04406C55.3566 5.04406 54.9777 5.18817 54.65 5.46611C54.3222 5.74406 54.0969 6.12494 53.974 6.59847H57.6917Z" fill="#616161"/>
<path d="M61.8292 10.8088C61.143 10.8088 60.5797 10.6132 60.1188 10.2117C59.6579 9.82053 59.4326 9.29553 59.4326 8.647C59.4326 7.947 59.6989 7.39111 60.2417 6.98964C60.7845 6.58817 61.4502 6.39259 62.2491 6.39259C62.9557 6.39259 63.5395 6.52641 63.9901 6.78376V6.59847C63.9901 6.12494 63.8263 5.74406 63.5088 5.45582C63.181 5.16759 62.7919 5.02347 62.3208 5.02347C61.9725 5.02347 61.655 5.10582 61.3683 5.27053C61.0815 5.43523 60.8869 5.6617 60.7845 5.96023L59.6784 5.4867C59.8218 5.09553 60.1188 4.74553 60.5592 4.41611C60.9996 4.0867 61.5731 3.922 62.29 3.922C63.1094 3.922 63.7955 4.15876 64.3383 4.64259C64.8812 5.12641 65.1474 5.80582 65.1474 6.68082V10.6029H63.9901V9.70729H63.9389C63.4576 10.4485 62.7509 10.8088 61.8292 10.8088ZM62.0237 9.70729C62.5256 9.70729 62.9762 9.522 63.3756 9.15141C63.7853 8.78082 63.9901 8.33817 63.9901 7.82347C63.6522 7.54553 63.1401 7.40141 62.4539 7.40141C61.8701 7.40141 61.4297 7.52494 61.1327 7.78229C60.8357 8.03964 60.6821 8.33817 60.6821 8.67788C60.6821 8.997 60.8152 9.24406 61.0918 9.42935C61.3683 9.61464 61.6755 9.70729 62.0237 9.70729Z" fill="#616161"/>
<path d="M67.5025 10.6028H66.2939V4.14843H67.4512V5.19843H67.5025C67.6253 4.84843 67.8711 4.5602 68.2603 4.33372C68.6393 4.10725 69.008 3.99402 69.3664 3.99402C69.7249 3.99402 70.0219 4.04549 70.2677 4.14843L69.8068 5.28078C69.6532 5.21902 69.4381 5.18814 69.1616 5.18814C68.7212 5.18814 68.3423 5.36314 68.0043 5.71314C67.6663 6.06314 67.5025 6.51608 67.5025 7.07196V10.6028Z" fill="#616161"/>
<path d="M73.4535 10.8087C72.4908 10.8087 71.7022 10.4793 71.0775 9.83078C70.4528 9.17196 70.1455 8.35872 70.1455 7.37049C70.1455 6.38225 70.4528 5.56902 71.0775 4.91019C71.7022 4.25137 72.4908 3.93225 73.4535 3.93225C74.1705 3.93225 74.7645 4.10725 75.2356 4.45725C75.7067 4.80725 76.0549 5.2499 76.27 5.78519L75.1639 6.24843C74.8362 5.43519 74.2319 5.03372 73.3716 5.03372C72.839 5.03372 72.3679 5.2499 71.9583 5.69255C71.5486 6.13519 71.3438 6.69107 71.3438 7.37049C71.3438 8.0499 71.5486 8.60578 71.9583 9.04843C72.3679 9.49107 72.839 9.70725 73.3716 9.70725C74.2729 9.70725 74.8874 9.30578 75.2356 8.49255L76.3109 8.95578C76.0959 9.48078 75.7374 9.92343 75.2561 10.2837C74.7645 10.6337 74.1705 10.8087 73.4535 10.8087Z" fill="#616161"/>
<path d="M78.2466 1.17346V4.14846L78.1954 5.04405H78.2466C78.4207 4.73523 78.6972 4.47787 79.0762 4.2617C79.4551 4.04552 79.8545 3.94258 80.2847 3.94258C81.0835 3.94258 81.6878 4.18964 82.1077 4.68376C82.5276 5.17787 82.7324 5.8367 82.7324 6.66023V10.6029H81.5239V6.83523C81.5239 5.64111 80.9913 5.04405 79.9365 5.04405C79.4346 5.04405 79.0352 5.23964 78.7177 5.64111C78.4002 6.04258 78.2466 6.50582 78.2466 7.03082V10.6029H77.0381V1.17346H78.2466Z" fill="#616161"/>
<path d="M89.9619 10.8088C88.5793 10.8088 87.422 10.3353 86.49 9.39849C85.558 8.46173 85.0869 7.2882 85.0869 5.8779C85.0869 4.46761 85.558 3.30437 86.49 2.35732C87.422 1.42055 88.5793 0.947021 89.9619 0.947021C91.3753 0.947021 92.5223 1.46173 93.4133 2.49114L92.5735 3.30437C91.9385 2.50143 91.068 2.11026 89.9619 2.11026C88.9378 2.11026 88.0775 2.46026 87.3708 3.14996C86.6641 3.83967 86.3159 4.75585 86.3159 5.8779C86.3159 6.99996 86.6641 7.91614 87.3708 8.60585C88.0775 9.29555 88.9378 9.64555 89.9619 9.64555C91.0885 9.64555 92.0512 9.19261 92.85 8.27643L93.6898 9.12055C93.2597 9.63526 92.7271 10.047 92.0819 10.3558C91.4265 10.6647 90.7198 10.8088 89.9619 10.8088Z" fill="#616161"/>
<path d="M95.0834 4.92057C95.7081 4.26174 96.4967 3.94263 97.4594 3.94263C98.4221 3.94263 99.2107 4.27204 99.8355 4.92057C100.46 5.57939 100.767 6.39263 100.767 7.38086C100.767 8.3691 100.46 9.18233 99.8355 9.84116C99.2107 10.5 98.4221 10.8191 97.4594 10.8191C96.4967 10.8191 95.7081 10.4897 95.0834 9.84116C94.4586 9.18233 94.1514 8.3691 94.1514 7.38086C94.1514 6.39263 94.4586 5.5691 95.0834 4.92057ZM95.9744 9.0691C96.3943 9.49116 96.8859 9.70733 97.4492 9.70733C98.0125 9.70733 98.504 9.49116 98.924 9.0691C99.3439 8.64704 99.5487 8.08086 99.5487 7.38086C99.5487 6.68086 99.3439 6.11469 98.924 5.69263C98.504 5.27057 98.0125 5.05439 97.4492 5.05439C96.8859 5.05439 96.3943 5.27057 95.9744 5.69263C95.5545 6.11469 95.3496 6.68086 95.3496 7.38086C95.3599 8.08086 95.5647 8.63674 95.9744 9.0691Z" fill="#616161"/>
<path d="M102.764 4.14851V5.0441H102.815C102.989 4.73527 103.266 4.47792 103.645 4.26174C104.023 4.04557 104.423 3.94263 104.853 3.94263C105.652 3.94263 106.256 4.18969 106.676 4.6838C107.096 5.17792 107.301 5.83674 107.301 6.66027V10.6029H106.092V6.83527C106.092 5.64116 105.56 5.0441 104.505 5.0441C104.003 5.0441 103.604 5.23969 103.286 5.64116C102.969 6.04263 102.815 6.50586 102.815 7.03086V10.6029H101.606V4.14851H102.764Z" fill="#616161"/>
<path d="M110.814 10.8087C110.097 10.8087 109.503 10.6337 109.042 10.2837C108.571 9.93372 108.233 9.49108 108.018 8.96607L109.093 8.51313C109.431 9.32637 110.015 9.72784 110.834 9.72784C111.213 9.72784 111.52 9.64549 111.756 9.48078C111.991 9.31607 112.114 9.0896 112.114 8.82196C112.114 8.3999 111.817 8.11166 111.233 7.96755L109.933 7.64843C109.523 7.54549 109.134 7.3396 108.765 7.05137C108.397 6.75284 108.212 6.36166 108.212 5.85725C108.212 5.29107 108.468 4.82784 108.97 4.46755C109.472 4.10725 110.066 3.93225 110.762 3.93225C111.326 3.93225 111.838 4.06607 112.278 4.32343C112.729 4.58078 113.046 4.95137 113.231 5.43519L112.186 5.86755C111.95 5.30137 111.459 5.01313 110.721 5.01313C110.363 5.01313 110.066 5.08519 109.82 5.2396C109.574 5.39402 109.451 5.5896 109.451 5.84696C109.451 6.21755 109.738 6.4646 110.301 6.59843L111.571 6.89696C112.176 7.04107 112.616 7.27784 112.913 7.61755C113.2 7.95725 113.343 8.34843 113.343 8.78078C113.343 9.35725 113.108 9.84107 112.637 10.2323C112.165 10.6234 111.551 10.8087 110.814 10.8087Z" fill="#616161"/>
<path d="M114.726 4.92057C115.351 4.26174 116.139 3.94263 117.102 3.94263C118.065 3.94263 118.853 4.27204 119.478 4.92057C120.103 5.57939 120.41 6.39263 120.41 7.38086C120.41 8.3691 120.103 9.18233 119.478 9.84116C118.853 10.5 118.065 10.8191 117.102 10.8191C116.139 10.8191 115.351 10.4897 114.726 9.84116C114.101 9.18233 113.794 8.3691 113.794 7.38086C113.794 6.39263 114.101 5.5691 114.726 4.92057ZM115.627 9.0691C116.047 9.49116 116.539 9.70733 117.102 9.70733C117.665 9.70733 118.157 9.49116 118.577 9.0691C118.997 8.64704 119.202 8.08086 119.202 7.38086C119.202 6.68086 118.997 6.11469 118.577 5.69263C118.157 5.27057 117.665 5.05439 117.102 5.05439C116.539 5.05439 116.047 5.27057 115.627 5.69263C115.207 6.11469 115.002 6.68086 115.002 7.38086C115.002 8.08086 115.207 8.63674 115.627 9.0691Z" fill="#616161"/>
<path d="M122.479 10.6029H121.271V1.17346H122.479V10.6029Z" fill="#616161"/>
<path d="M126.627 10.8088C125.654 10.8088 124.865 10.4794 124.261 9.83082C123.657 9.18229 123.35 8.35876 123.35 7.37053C123.35 6.43376 123.647 5.62053 124.23 4.94111C124.824 4.2617 125.572 3.922 126.494 3.922C127.446 3.922 128.204 4.23082 128.778 4.85876C129.351 5.4867 129.638 6.32053 129.638 7.36023L129.628 7.5867H124.558C124.589 8.23523 124.814 8.74994 125.203 9.13082C125.603 9.5117 126.064 9.697 126.596 9.697C127.456 9.697 128.05 9.32641 128.358 8.58523L129.433 9.03817C129.228 9.54259 128.88 9.95435 128.399 10.2941C127.917 10.6441 127.323 10.8088 126.627 10.8088ZM128.358 6.59847C128.327 6.22788 128.163 5.87788 127.856 5.54847C127.549 5.21906 127.088 5.04406 126.473 5.04406C126.023 5.04406 125.644 5.18817 125.316 5.46611C124.988 5.74406 124.763 6.12494 124.64 6.59847H128.358Z" fill="#616161"/>
<path d="M0.0722656 5.41467C0.0722656 2.43967 2.56097 0.0102539 5.53104 0.0102539C7.16969 0.0102539 8.33723 0.658783 9.21801 1.5029L8.18361 2.54261C7.55887 1.94555 6.69858 1.49261 5.53104 1.49261C3.37006 1.49261 1.6802 3.24261 1.6802 5.41467C1.6802 7.58673 3.37006 9.33673 5.53104 9.33673C6.93413 9.33673 7.73298 8.77055 8.24506 8.25584C8.66496 7.83378 8.94149 7.22643 9.0439 6.4029H5.53104V4.93084H10.4777C10.5289 5.19849 10.5597 5.50731 10.5597 5.85731C10.5597 6.96908 10.2627 8.3382 9.2897 9.30584C8.34748 10.2941 7.13897 10.8191 5.54128 10.8191C2.56097 10.8088 0.0722656 8.38967 0.0722656 5.41467Z" fill="#4285F4"/>
<path d="M14.5432 3.86023C12.628 3.86023 11.0713 5.32199 11.0713 7.33964C11.0713 9.34699 12.628 10.8191 14.5432 10.8191C16.4584 10.8191 18.0151 9.34699 18.0151 7.33964C18.0151 5.32199 16.4584 3.86023 14.5432 3.86023ZM14.5432 9.43964C13.4985 9.43964 12.587 8.57494 12.587 7.32935C12.587 6.07347 13.4883 5.21905 14.5432 5.21905C15.5878 5.21905 16.4993 6.07347 16.4993 7.32935C16.4993 8.57494 15.5878 9.43964 14.5432 9.43964Z" fill="#DB4437"/>
<path d="M22.1223 3.86023C20.2071 3.86023 18.6504 5.32199 18.6504 7.33964C18.6504 9.34699 20.2071 10.8191 22.1223 10.8191C24.0375 10.8191 25.5942 9.34699 25.5942 7.33964C25.5942 5.32199 24.0375 3.86023 22.1223 3.86023ZM22.1223 9.43964C21.0776 9.43964 20.1661 8.57494 20.1661 7.32935C20.1661 6.07347 21.0674 5.21905 22.1223 5.21905C23.1772 5.21905 24.0784 6.07347 24.0784 7.32935C24.0784 8.57494 23.1669 9.43964 22.1223 9.43964Z" fill="#F4B400"/>
<path d="M31.422 4.06615V4.63233H31.3708C31.0328 4.22056 30.3773 3.84998 29.5478 3.84998C27.8169 3.84998 26.2295 5.3735 26.2295 7.33968C26.2295 9.28527 27.8169 10.8088 29.5478 10.8088C30.3773 10.8088 31.0328 10.4382 31.3708 10.0162H31.422V10.5206C31.422 11.8485 30.7153 12.5588 29.5785 12.5588C28.6465 12.5588 28.073 11.8897 27.8374 11.3235L26.5163 11.8794C26.8952 12.8059 27.9091 13.9382 29.5887 13.9382C31.3708 13.9382 32.8763 12.8882 32.8763 10.3147V4.06615H31.422ZM29.6809 9.43968C28.6363 9.43968 27.7555 8.55439 27.7555 7.33968C27.7555 6.11468 28.6363 5.21909 29.6809 5.21909C30.7153 5.21909 31.5244 6.11468 31.5244 7.33968C31.5346 8.56468 30.7153 9.43968 29.6809 9.43968Z" fill="#4285F4"/>
<path d="M35.4367 0.380859H33.9209V10.6029H35.4367V0.380859Z" fill="#0F9D58"/>
<path d="M39.6048 9.43964C38.8264 9.43964 38.2836 9.07935 37.9251 8.38964L42.5543 6.46464L42.4007 6.07347C42.114 5.29111 41.2332 3.86023 39.4409 3.86023C37.6589 3.86023 36.1738 5.27052 36.1738 7.33964C36.1738 9.28523 37.6384 10.8191 39.6048 10.8191C41.1922 10.8191 42.1037 9.84111 42.4929 9.27494L41.3151 8.48229C40.9157 9.05876 40.3831 9.43964 39.6048 9.43964ZM39.4921 5.19847C40.0964 5.19847 40.6084 5.49699 40.7723 5.93964L37.6793 7.22641C37.6384 5.88817 38.7137 5.19847 39.4921 5.19847Z" fill="#DB4437"/>
</svg>
