<svg width="89" height="14" viewBox="0 0 89 14" fill="none" xmlns="http://www.w3.org/2000/svg">
<path fill-rule="evenodd" clip-rule="evenodd" d="M18.5976 10.2602C18.2789 10.6977 17.9002 10.916 17.4625 10.916C17.1835 10.916 16.9557 10.7624 16.7804 10.4554C16.6056 10.1468 16.5183 9.67405 16.5183 9.035C16.5183 8.39511 16.6113 7.89966 16.7986 7.5478C16.9859 7.19468 17.2306 7.0196 17.5336 7.0196C17.8362 7.0196 18.1913 7.14472 18.5976 7.39496V10.2602ZM20.044 3.98431C20.044 3.64421 19.9841 3.40362 19.8646 3.26129C19.7447 3.12021 19.538 3.04883 19.2433 3.04883H18.6691L18.5976 3.13448V6.19328C18.1673 5.96697 17.749 5.8536 17.343 5.8536C16.6969 5.8536 16.1451 6.13324 15.6874 6.69167C15.229 7.25011 15 8.01932 15 8.99847C15 9.9772 15.1786 10.7489 15.5378 11.3116C15.8962 11.8742 16.4125 12.1551 17.0855 12.1551C17.7589 12.1551 18.3306 11.8872 18.8006 11.3536C19.0081 11.7663 19.3632 12.0086 19.8646 12.0825C19.968 12.001 20.0701 11.886 20.1697 11.7361C20.2689 11.5857 20.3392 11.4417 20.3789 11.3049C20.1556 11.11 20.044 10.7624 20.044 10.2602V3.98431Z" fill="#535E64"/>
<path fill-rule="evenodd" clip-rule="evenodd" d="M24.6423 8.39086H22.5626C22.6105 7.38694 22.9615 6.88519 23.6142 6.88519C23.9652 6.88519 24.2239 7.01199 24.3913 7.26224C24.5584 7.51206 24.6423 7.83999 24.6423 8.24475V8.39086ZM23.5485 5.79309C22.7478 5.79309 22.1327 6.08826 21.7019 6.67987C21.272 7.2698 21.0566 8.03523 21.0566 8.97323C21.0566 9.91249 21.2518 10.6779 21.642 11.2683C22.0326 11.8599 22.6758 12.1551 23.5729 12.1551C24.4691 12.1551 25.2363 11.9241 25.8737 11.4631C25.8092 11.0667 25.6662 10.7585 25.443 10.5398C24.87 10.8228 24.3475 10.9651 23.8775 10.9651C23.4075 10.9651 23.0789 10.8333 22.8912 10.5696C22.7039 10.3076 22.5989 9.93769 22.5746 9.45945H25.9217C26.0006 9.11179 26.0411 8.75196 26.0411 8.37911C26.0411 7.63467 25.8253 7.01703 25.3954 6.52703C24.9651 6.03788 24.3496 5.79309 23.5485 5.79309Z" fill="#535E64"/>
<path fill-rule="evenodd" clip-rule="evenodd" d="M30.0548 10.4186C29.672 10.8074 29.2731 11.0022 28.8593 11.0022C28.6444 11.0022 28.4724 10.9312 28.3451 10.7889C28.2178 10.6478 28.1537 10.4475 28.1537 10.1881C28.1537 9.92858 28.2376 9.71486 28.405 9.54523C28.572 9.37518 28.8192 9.28995 29.1462 9.28995C29.4732 9.28995 29.7758 9.30549 30.0548 9.33824V10.4186ZM31.5248 7.88127C31.5248 7.19351 31.3375 6.68 30.963 6.3399C30.5885 6.00022 30.1028 5.82849 29.5046 5.82849C28.6444 5.82849 27.7837 6.01198 26.9231 6.37559C26.9549 6.84585 27.0855 7.20568 27.3174 7.45551C28.1058 7.16454 28.7155 7.01968 29.1462 7.01968C29.7518 7.01968 30.0548 7.33837 30.0548 7.97868V8.34271C29.7278 8.31038 29.381 8.29358 29.0144 8.29358C28.3377 8.29358 27.7817 8.46657 27.3472 8.81003C26.9127 9.15391 26.6953 9.66616 26.6953 10.3459C26.6953 10.8229 26.8512 11.2445 27.1616 11.6081C27.4725 11.973 27.9346 12.1552 28.5481 12.1552C29.1619 12.1552 29.732 11.8957 30.2578 11.3776C30.4885 11.7916 30.851 12.0259 31.345 12.0825C31.4491 12.0011 31.5508 11.886 31.65 11.7361C31.7501 11.5858 31.8195 11.4422 31.8592 11.3049C31.6364 11.1193 31.5248 10.8032 31.5248 10.3577V7.88127Z" fill="#535E64"/>
<path fill-rule="evenodd" clip-rule="evenodd" d="M35.9677 10.2602C35.649 10.6977 35.2704 10.916 34.8326 10.916C34.5536 10.916 34.3258 10.7624 34.1505 10.4554C33.9761 10.1468 33.8885 9.67405 33.8885 9.035C33.8885 8.39511 33.9815 7.89966 34.1687 7.5478C34.356 7.19468 34.6007 7.0196 34.9037 7.0196C35.2067 7.0196 35.5614 7.14472 35.9677 7.39496V10.2602ZM37.4141 3.98431C37.4141 3.64421 37.3542 3.40362 37.2347 3.26129C37.1149 3.12021 36.9082 3.04883 36.6134 3.04883H36.0392L35.9677 3.13448V6.19328C35.5374 5.96697 35.1191 5.8536 34.7131 5.8536C34.067 5.8536 33.5152 6.13324 33.0576 6.69167C32.5991 7.25011 32.3701 8.01932 32.3701 8.99847C32.3701 9.9772 32.5487 10.7489 32.9079 11.3116C33.2663 11.8742 33.7826 12.1551 34.4556 12.1551C35.129 12.1551 35.7007 11.8872 36.1707 11.3536C36.3782 11.7663 36.7333 12.0086 37.2347 12.0825C37.3381 12.001 37.4402 11.886 37.5398 11.7361C37.639 11.5857 37.7093 11.4417 37.749 11.3049C37.5258 11.11 37.4141 10.7624 37.4141 10.2602V3.98431Z" fill="#535E64"/>
<path fill-rule="evenodd" clip-rule="evenodd" d="M40.7335 10.8678C40.4066 10.8678 40.2437 10.6855 40.2437 10.3207V3.98389C40.2437 3.64421 40.1838 3.40362 40.0643 3.26129C39.9448 3.12021 39.7373 3.04883 39.443 3.04883H38.8688L38.7969 3.13448V10.6251C38.7969 11.5723 39.2276 12.0455 40.0878 12.0455C40.3747 12.0455 40.7497 12.0086 41.2118 11.9359C41.2354 11.8385 41.2478 11.6979 41.2478 11.5118C41.2478 11.3246 41.2073 11.11 41.1279 10.8678H40.7335Z" fill="#535E64"/>
<path fill-rule="evenodd" clip-rule="evenodd" d="M42.7802 5.03953C43.1105 5.03953 43.3681 4.98411 43.5508 4.86948C43.6305 4.68348 43.6706 4.48362 43.6706 4.26864C43.6706 4.05534 43.6305 3.8538 43.5508 3.6678C43.3681 3.55485 43.1225 3.49817 42.8158 3.49817C42.5095 3.49817 42.2519 3.55485 42.0448 3.6678C41.9651 3.8538 41.9258 4.05534 41.9258 4.26864C41.9258 4.48362 41.9651 4.68348 42.0448 4.86948C42.2044 4.98411 42.4487 5.03953 42.7802 5.03953Z" fill="#535E64"/>
<path fill-rule="evenodd" clip-rule="evenodd" d="M42.6787 5.92603H42.4873C42.1921 5.92603 41.9015 5.94324 41.6146 5.97473C41.5749 6.12883 41.5547 6.31063 41.5547 6.52141C41.5547 6.73219 41.5749 6.90644 41.6146 7.04332H41.7581C42.1173 7.04332 42.2959 7.26207 42.2959 7.69958V11.9848C42.5352 12.0256 42.7866 12.0453 43.049 12.0453C43.312 12.0453 43.5546 12.0256 43.7782 11.9848V7.14073C43.7782 6.76788 43.6807 6.4727 43.4852 6.25395C43.29 6.03561 43.0209 5.92603 42.6787 5.92603Z" fill="#535E64"/>
<path fill-rule="evenodd" clip-rule="evenodd" d="M50.027 7.91817C50.027 7.30305 49.8898 6.80508 49.6144 6.42425C49.3395 6.04342 48.9138 5.85364 48.3359 5.85364C47.758 5.85364 47.178 6.11312 46.5964 6.63125C46.5087 6.14461 46.238 5.90234 45.7837 5.90234H45.2339L45.1504 5.97498V11.9851C45.3889 12.0258 45.6402 12.0455 45.9031 12.0455C46.1656 12.0455 46.4091 12.0258 46.6319 11.9851V7.82076C47.0147 7.41642 47.4331 7.2132 47.8874 7.2132C48.1341 7.2132 48.3061 7.29255 48.4012 7.45043C48.4975 7.60872 48.5446 7.86946 48.5446 8.23308V11.1235C48.5446 11.446 48.605 11.6861 48.7244 11.8386C48.8435 11.9926 49.0647 12.0707 49.3875 12.0707C49.7099 12.0707 50.003 11.9654 50.2663 11.7546C50.1068 11.4871 50.027 11.1063 50.027 10.6134V7.91817Z" fill="#535E64"/>
<path fill-rule="evenodd" clip-rule="evenodd" d="M54.5661 8.39086H52.4864C52.5344 7.38694 52.8853 6.88519 53.5384 6.88519C53.889 6.88519 54.1478 7.01199 54.3156 7.26224C54.4826 7.51206 54.5661 7.83999 54.5661 8.24475V8.39086ZM53.4727 5.79309C52.672 5.79309 52.0565 6.08826 51.6262 6.67987C51.1963 7.2698 50.9805 8.03523 50.9805 8.97323C50.9805 9.91249 51.176 10.6779 51.5662 11.2683C51.9569 11.8599 52.6001 12.1551 53.4967 12.1551C54.3929 12.1551 55.1601 11.9241 55.7975 11.4631C55.7335 11.0667 55.5904 10.7585 55.3668 10.5398C54.7939 10.8228 54.2718 10.9651 53.8014 10.9651C53.3318 10.9651 53.0027 10.8333 52.8154 10.5696C52.6282 10.3076 52.5228 9.93769 52.4988 9.45945H55.8459C55.9249 9.11179 55.965 8.75196 55.965 8.37911C55.965 7.63467 55.7496 7.01703 55.3197 6.52703C54.8889 6.03788 54.2738 5.79309 53.4727 5.79309Z" fill="#535E64"/>
<path fill-rule="evenodd" clip-rule="evenodd" d="M66.7338 5.96307C66.5106 5.92234 66.2634 5.90218 65.9922 5.90218C65.7223 5.90218 65.4751 5.92234 65.2519 5.96307V10.1392C64.8691 10.5435 64.4512 10.7467 63.9965 10.7467C63.7493 10.7467 63.5781 10.6674 63.4831 10.5095C63.3867 10.3512 63.3396 10.0862 63.3396 9.71508V6.82465C63.3396 6.50177 63.2793 6.34431 63.1598 6.19022C63.0403 6.0378 62.815 5.94711 62.4847 5.94711C62.4649 5.94711 62.4484 5.95593 62.4285 5.95677C62.4281 5.95509 62.4256 5.95341 62.4252 5.95131L60.1599 5.97482C60.1116 5.65866 60.088 5.35592 60.088 5.06453C60.088 4.77356 60.1636 4.54682 60.3149 4.38475C60.4667 4.22268 60.6816 4.14122 60.9606 4.14122C61.2397 4.14122 61.5617 4.19917 61.9292 4.31085C62.152 4.06858 62.264 3.73268 62.264 3.30483C61.7295 3.10203 61.1735 3 60.596 3C60.0185 3 59.5543 3.18768 59.2034 3.55886C58.8528 3.93171 58.6776 4.40449 58.6776 4.97888C58.6776 5.19763 58.7011 5.52555 58.7495 5.96307L57.7929 5.95131C57.7532 6.15285 57.7334 6.33969 57.7334 6.50974C57.7334 6.67979 57.7532 6.85782 57.7929 7.04341L58.8206 7.01989V11.9849C59.0603 12.0257 59.2976 12.0454 59.532 12.0454C59.7668 12.0454 60.0119 12.0257 60.2674 11.9849V7.01989L61.8291 7.03543C61.8382 7.13494 61.8568 7.21598 61.8568 7.3348V10.0417C61.8568 10.6573 61.9945 11.1536 62.2694 11.5289C62.5443 11.9056 62.9486 12.0945 63.4831 12.0945C64.1519 12.0945 64.7935 11.8031 65.4069 11.2195C65.6144 11.7217 66.0009 12.0084 66.5664 12.0823C66.8293 11.8871 66.9972 11.6331 67.0687 11.3169C66.8455 11.1389 66.7338 10.7912 66.7338 10.2739V5.96307Z" fill="#535E64"/>
<path fill-rule="evenodd" clip-rule="evenodd" d="M73.0182 7.91817C73.0182 7.30305 72.881 6.80508 72.6061 6.42425C72.3308 6.04342 71.905 5.85364 71.3271 5.85364C70.7492 5.85364 70.1692 6.11312 69.5876 6.63125C69.5 6.14461 69.2292 5.90234 68.7749 5.90234H68.2251L68.1416 5.97498V11.9851C68.3801 12.0258 68.6314 12.0455 68.8944 12.0455C69.1573 12.0455 69.4003 12.0258 69.6236 11.9851V7.82076C70.0059 7.41642 70.4247 7.2132 70.879 7.2132C71.1253 7.2132 71.2973 7.29255 71.3924 7.45043C71.4887 7.60872 71.5358 7.86946 71.5358 8.23308V11.1235C71.5358 11.446 71.5962 11.6861 71.7157 11.8386C71.8351 11.9926 72.0559 12.0707 72.3787 12.0707C72.7011 12.0707 72.9942 11.9654 73.2576 11.7546C73.098 11.4871 73.0182 11.1063 73.0182 10.6134V7.91817Z" fill="#535E64"/>
<path fill-rule="evenodd" clip-rule="evenodd" d="M79.2291 7.91817C79.2291 7.30305 79.0915 6.80508 78.8166 6.42425C78.5417 6.04342 78.1159 5.85364 77.5376 5.85364C76.9601 5.85364 76.3802 6.11312 75.7985 6.63125C75.7109 6.14461 75.4401 5.90234 74.9858 5.90234H74.436L74.3525 5.97498V11.9851C74.5911 12.0258 74.8424 12.0455 75.1053 12.0455C75.3678 12.0455 75.6113 12.0258 75.8341 11.9851V7.82076C76.2169 7.41642 76.6352 7.2132 77.0895 7.2132C77.3363 7.2132 77.5083 7.29255 77.6033 7.45043C77.6992 7.60872 77.7468 7.86946 77.7468 8.23308V11.1235C77.7468 11.446 77.8071 11.6861 77.9266 11.8386C78.0456 11.9926 78.2668 12.0707 78.5897 12.0707C78.9117 12.0707 79.2052 11.9654 79.4685 11.7546C79.3089 11.4871 79.2291 11.1063 79.2291 10.6134V7.91817Z" fill="#535E64"/>
<path fill-rule="evenodd" clip-rule="evenodd" d="M83.7682 8.39086H81.6885C81.7365 7.38694 82.0875 6.88519 82.7406 6.88519C83.0911 6.88519 83.3499 7.01199 83.5173 7.26224C83.6847 7.51206 83.7682 7.83999 83.7682 8.24475V8.39086ZM82.6749 5.79309C81.8742 5.79309 81.2586 6.08826 80.8283 6.67987C80.3984 7.2698 80.1826 8.03523 80.1826 8.97323C80.1826 9.91249 80.3781 10.6779 80.7684 11.2683C81.159 11.8599 81.8018 12.1551 82.6988 12.1551C83.595 12.1551 84.3623 11.9241 84.9997 11.4631C84.9356 11.0667 84.7926 10.7585 84.569 10.5398C83.996 10.8228 83.4739 10.9651 83.0035 10.9651C82.5339 10.9651 82.2049 10.8333 82.0176 10.5696C81.8303 10.3076 81.7249 9.93769 81.701 9.45945H85.0481C85.127 9.11179 85.1671 8.75196 85.1671 8.37911C85.1671 7.63467 84.9517 7.01703 84.5218 6.52703C84.0911 6.03788 83.476 5.79309 82.6749 5.79309Z" fill="#535E64"/>
<path fill-rule="evenodd" clip-rule="evenodd" d="M88.6367 10.9585H88.2423C87.9158 10.9585 87.7525 10.7767 87.7525 10.4118V4.07508C87.7525 3.7354 87.6925 3.49439 87.5731 3.35205C87.454 3.21097 87.2465 3.14001 86.9518 3.14001H86.378L86.3057 3.22567V10.7163C86.3057 11.6635 86.7364 12.1367 87.5971 12.1367C87.8839 12.1367 88.2585 12.0997 88.721 12.0271C88.7446 11.9297 88.7566 11.7886 88.7566 11.6026C88.7566 11.4158 88.7161 11.2008 88.6367 10.9585Z" fill="#535E64"/>
<path fill-rule="evenodd" clip-rule="evenodd" d="M11.1831 0L10.7197 0.961735L11.1411 2.84038L12.8692 3.26112L13.8928 2.75264L11.7393 2.18765L11.1831 0Z" fill="#F82E1C"/>
<path fill-rule="evenodd" clip-rule="evenodd" d="M8.23101 7.43332C8.39291 8.18737 8.18689 9.00643 7.60983 9.59288C7.15924 10.0505 6.5682 10.2797 5.97747 10.2797C5.38705 10.2797 4.79601 10.0505 4.34511 9.59288C3.44364 8.67691 3.44364 7.19249 4.34511 6.27652C4.79601 5.81885 5.38705 5.5897 5.97747 5.5897C6.30189 5.5897 6.62538 5.66135 6.92681 5.79928L8.52871 4.19397C7.84879 3.71263 7.05266 3.43677 6.21333 3.39258V4.00775C6.21333 4.14 6.10799 4.24731 5.97747 4.24731C5.84696 4.24731 5.74161 4.14 5.74161 4.00775V3.39258C4.65027 3.45002 3.63133 3.8998 2.84638 4.68099L3.27521 5.11657C3.36719 5.21031 3.36719 5.36213 3.27521 5.45524C3.18292 5.54899 3.03314 5.54899 2.94147 5.45524L2.526 5.03324C1.91072 5.78666 1.56051 6.71241 1.51172 7.69498H2.11799C2.2485 7.69498 2.35416 7.80229 2.35416 7.93486C2.35416 8.06711 2.2485 8.17442 2.11799 8.17442H1.51265C1.56734 9.22296 1.97038 10.203 2.66646 10.9804L3.12139 10.5183C3.21368 10.4249 3.36284 10.4249 3.45513 10.5183C3.54712 10.6117 3.54712 10.7636 3.45513 10.8573L3.00113 11.3181C3.76371 12.0103 4.71957 12.4102 5.74161 12.4639V11.861C5.74161 11.7288 5.84696 11.6218 5.97747 11.6218C6.10799 11.6218 6.21333 11.7288 6.21333 11.861V12.4639C7.16453 12.4137 8.06165 12.0678 8.79595 11.4608L8.355 11.0129C8.26302 10.9195 8.26302 10.7677 8.355 10.6742C8.44729 10.5805 8.59676 10.5805 8.68874 10.6742L9.14679 11.1392C9.95566 10.316 10.3839 9.25357 10.4407 8.17442H9.83696C9.70675 8.17442 9.6011 8.06711 9.6011 7.93486C9.6011 7.80229 9.70675 7.69498 9.83696 7.69498H10.4414C10.4268 7.40459 10.3851 7.11611 10.3161 6.83235L9.6011 6.52871L8.23101 7.43332Z" fill="#1BA3A4"/>
<mask id="mask0" mask-type="alpha" maskUnits="userSpaceOnUse" x="0" y="1" width="12" height="13">
<path d="M0 1.85742H11.9497V13.9998H0V1.85742Z" fill="white"/>
</mask>
<g mask="url(#mask0)">
<path fill-rule="evenodd" clip-rule="evenodd" d="M9.77355 11.7834C8.7254 12.848 7.35159 13.3805 5.97777 13.3805C4.60396 13.3805 3.23014 12.848 2.1823 11.7834C0.0859995 9.65412 0.0859995 6.20204 2.1823 4.07278C3.23014 3.00815 4.60396 2.47599 5.97777 2.47599C7.10237 2.47599 8.22386 2.83897 9.17008 3.5523L9.24435 3.47781L9.27449 3.44751L9.23378 2.85791L9.23223 2.8355C6.9153 1.30499 3.78358 1.57012 1.75098 3.635C-0.583661 6.00572 -0.583661 9.85045 1.75098 12.2218C4.08532 14.5925 7.87022 14.5925 10.2049 12.2218C11.7334 10.6692 12.2539 8.4866 11.7813 6.49811L11.1915 6.65403C11.6122 8.43673 11.1433 10.3921 9.77355 11.7834Z" fill="#1BA3A4"/>
</g>
<path fill-rule="evenodd" clip-rule="evenodd" d="M6.41478 8.63322L6.37997 8.65626C6.37997 8.65626 6.14474 8.74274 6.01267 8.74274C5.79111 8.74274 5.5826 8.655 5.42598 8.49592C5.26905 8.33684 5.18266 8.12505 5.18266 7.89969C5.18266 7.67464 5.26905 7.46316 5.42878 7.30061L6.21031 6.51784C6.13417 6.50522 6.05711 6.49512 5.97818 6.49512C5.59938 6.49512 5.24357 6.64473 4.97571 6.9168C4.70815 7.18856 4.56055 7.55028 4.56055 7.93504C4.56055 8.31948 4.70815 8.68119 4.97571 8.95327C5.24357 9.22503 5.59938 9.37496 5.97818 9.37496C6.35667 9.37496 6.71278 9.22503 6.98034 8.95327C7.24323 8.68624 7.37716 8.33936 7.39021 7.98933L6.51173 8.56914C6.48066 8.59313 6.44834 8.61396 6.41478 8.63322Z" fill="#1BA3A4"/>
<path fill-rule="evenodd" clip-rule="evenodd" d="M5.84559 8.06948C5.89127 8.11588 5.95186 8.13955 6.01215 8.13955C6.07243 8.13955 6.13303 8.11588 6.17902 8.06948L7.13581 7.1109C7.08951 7.04304 7.03948 6.97708 6.97981 6.91679C6.92574 6.86155 6.86515 6.81484 6.80424 6.77002L5.84559 7.73049C5.75329 7.82424 5.75329 7.97574 5.84559 8.06948Z" fill="white"/>
<path fill-rule="evenodd" clip-rule="evenodd" d="M8.23106 7.43355L9.60114 6.52895L10.3162 6.83259C10.1934 6.3282 9.98833 5.84087 9.69406 5.39551L8.09277 6.99956C8.15306 7.14001 8.19905 7.28552 8.23106 7.43355Z" fill="#086D6A"/>
<path fill-rule="evenodd" clip-rule="evenodd" d="M10.371 4.71771L10.335 4.75369C10.7476 5.33698 11.0332 5.98246 11.1917 6.65444L11.7812 6.49852L11.7883 6.49662C11.7703 6.4215 11.7479 6.34764 11.7271 6.27315C11.7172 6.23749 11.7085 6.2015 11.6979 6.16615C11.6482 5.99981 11.5919 5.83569 11.5282 5.67313C11.5155 5.64094 11.5009 5.60906 11.4875 5.57718C11.4316 5.44177 11.3707 5.30858 11.3048 5.17696C11.2852 5.13814 11.2666 5.09931 11.2461 5.06081C11.187 4.94907 11.1239 4.83923 11.0574 4.73065L10.4036 4.68457L10.371 4.71771Z" fill="#086D6A"/>
<path fill-rule="evenodd" clip-rule="evenodd" d="M6.51074 8.56892L7.38891 7.9891C7.39233 7.89852 7.38674 7.80888 7.37369 7.71924L6.59837 8.49601C6.57103 8.52316 6.54088 8.54588 6.51074 8.56892Z" fill="#086D6A"/>
<path fill-rule="evenodd" clip-rule="evenodd" d="M4.72593 1.27889H7.22776C7.48848 1.27889 7.69947 1.06426 7.69947 0.799444C7.69947 0.535259 7.48848 0.320312 7.22776 0.320312H4.72593C4.46521 0.320312 4.25391 0.535259 4.25391 0.799444C4.25391 1.06426 4.46521 1.27889 4.72593 1.27889Z" fill="#1BA3A4"/>
<path fill-rule="evenodd" clip-rule="evenodd" d="M10.4074 1.60889L9.82595 2.81587L9.8853 3.67976L9.66436 3.90386L5.84559 7.73028C5.75329 7.82371 5.75329 7.97553 5.84559 8.06927C5.89158 8.11567 5.95186 8.13903 6.01215 8.13903C6.07274 8.13903 6.13303 8.11567 6.17933 8.06927L9.95398 4.28798L10.1749 4.06294L11.1202 4.12985L12.2405 3.57339L10.7678 3.21451L10.4074 1.60889Z" fill="#F82E1C"/>
</svg>
