<svg width="88" height="14" viewBox="0 0 88 14" fill="none" xmlns="http://www.w3.org/2000/svg">
<path d="M15.5198 12.7432H1.19833V2.98121H15.5198V12.7432ZM10.5219 0.935282C10.5511 0.935282 10.6096 0.935282 10.6388 0.935282C10.6681 0.935282 10.7265 0.964509 10.7557 0.964509C10.785 0.993737 10.8142 0.993737 10.8727 1.02296C10.9019 1.05219 10.9311 1.08142 10.9603 1.11065C10.9896 1.13987 11.0188 1.1691 11.048 1.19833C11.0772 1.22756 11.0772 1.25679 11.1065 1.31524C11.1357 1.34447 11.1357 1.40292 11.1357 1.43215C11.1357 1.46138 11.1357 1.51983 11.1357 1.54906C11.1357 1.57829 11.1357 1.63674 11.1357 1.66597C11.1357 1.6952 11.1065 1.72443 11.1065 1.75365C11.0772 1.78288 11.0772 1.81211 11.048 1.87056C11.0188 1.89979 10.9896 1.92902 10.9603 1.95825C10.9311 1.98747 10.9019 2.0167 10.8727 2.04593C10.8434 2.07516 10.8142 2.07516 10.7557 2.10438C10.7265 2.13361 10.6681 2.13361 10.6388 2.13361C10.6096 2.13361 10.5511 2.13361 10.5219 2.13361C10.4927 2.13361 10.4342 2.13361 10.405 2.13361C10.3758 2.13361 10.3173 2.10438 10.2881 2.10438C10.2589 2.07516 10.2296 2.07516 10.2004 2.04593C10.1712 2.0167 10.142 1.98747 10.1127 1.95825C10.0835 1.92902 10.0543 1.89979 10.0251 1.87056C9.99582 1.84134 9.99582 1.81211 9.9666 1.75365C9.9666 1.72443 9.93737 1.6952 9.93737 1.66597C9.93737 1.63674 9.93737 1.57829 9.93737 1.54906C9.93737 1.51983 9.93737 1.46138 9.93737 1.43215C9.93737 1.40292 9.9666 1.34447 9.9666 1.31524C9.99582 1.28601 9.99582 1.25678 10.0251 1.19833C10.0543 1.1691 10.0835 1.13987 10.1127 1.11065C10.142 1.08142 10.1712 1.05219 10.2004 1.02296C10.2296 0.993737 10.2589 0.993737 10.3173 0.964509C10.3466 0.935282 10.405 0.935282 10.4342 0.935282C10.4635 0.935282 10.4927 0.935282 10.5219 0.935282ZM12.714 0.935282C12.7432 0.935282 12.8017 0.935282 12.8309 0.935282C12.8601 0.935282 12.9186 0.964509 12.9478 0.964509C12.977 0.993737 13.0063 0.993737 13.0647 1.02296C13.0939 1.05219 13.1232 1.08142 13.1524 1.11065C13.1816 1.13987 13.2109 1.1691 13.2401 1.19833C13.2693 1.22756 13.2693 1.25679 13.2985 1.31524C13.3278 1.34447 13.3278 1.40292 13.3278 1.43215C13.3278 1.46138 13.3278 1.51983 13.3278 1.54906C13.3278 1.57829 13.3278 1.63674 13.3278 1.66597C13.3278 1.6952 13.2985 1.75365 13.2985 1.78288C13.2693 1.81211 13.2693 1.84134 13.2401 1.89979C13.2109 1.92902 13.1816 1.95825 13.1524 1.98747C13.1232 2.0167 13.0939 2.04593 13.0647 2.07516C13.0355 2.10438 13.0063 2.10438 12.9478 2.13361C12.9186 2.16284 12.8601 2.16284 12.8309 2.16284C12.8017 2.16284 12.7432 2.16284 12.714 2.16284C12.6848 2.16284 12.6263 2.16284 12.5971 2.16284C12.5678 2.16284 12.5094 2.13361 12.4802 2.13361C12.4509 2.10438 12.4217 2.10438 12.3633 2.07516C12.334 2.04593 12.3048 2.0167 12.2756 1.98747C12.2463 1.95825 12.2171 1.92902 12.1879 1.89979C12.1587 1.87056 12.1587 1.84134 12.1294 1.78288C12.1002 1.75365 12.1002 1.6952 12.1002 1.66597C12.1002 1.63674 12.1002 1.57829 12.1002 1.54906C12.1002 1.51983 12.1002 1.46138 12.1002 1.43215C12.1002 1.40292 12.1294 1.34447 12.1294 1.31524C12.1587 1.28601 12.1587 1.25678 12.1879 1.19833C12.2171 1.1691 12.2463 1.13987 12.2756 1.11065C12.3048 1.08142 12.334 1.05219 12.3633 1.02296C12.3925 0.993737 12.4217 0.993737 12.4802 0.964509C12.5094 0.935282 12.5678 0.935282 12.5971 0.935282C12.6263 0.935282 12.6848 0.935282 12.714 0.935282ZM14.9061 0.935282C14.9353 0.935282 14.9937 0.935282 15.023 0.935282C15.0522 0.935282 15.1106 0.964509 15.1399 0.964509C15.1691 0.993737 15.1983 0.993737 15.2568 1.02296C15.286 1.05219 15.3152 1.08142 15.3445 1.11065C15.3737 1.13987 15.4029 1.1691 15.4321 1.19833C15.4614 1.22756 15.4614 1.25679 15.4906 1.31524C15.4906 1.34447 15.4906 1.3737 15.4906 1.40292C15.4906 1.43215 15.4906 1.49061 15.4906 1.51983C15.4906 1.54906 15.4906 1.60752 15.4906 1.63674C15.4906 1.6952 15.4906 1.72443 15.4614 1.75365C15.4321 1.78288 15.4321 1.81211 15.4029 1.87056C15.3737 1.89979 15.3445 1.92902 15.3152 1.95825C15.286 1.98747 15.2568 2.0167 15.2276 2.04593C15.1983 2.07516 15.1691 2.07516 15.1106 2.10438C15.0814 2.13361 15.023 2.13361 14.9937 2.13361C14.9645 2.13361 14.9061 2.13361 14.8768 2.13361C14.8476 2.13361 14.7891 2.13361 14.7599 2.13361C14.7307 2.13361 14.6722 2.10438 14.643 2.10438C14.6138 2.07516 14.5845 2.07516 14.5553 2.04593C14.5261 2.0167 14.4969 1.98747 14.4676 1.95825C14.4384 1.92902 14.4092 1.89979 14.38 1.87056C14.38 1.84134 14.3507 1.81211 14.3215 1.75365C14.2923 1.72443 14.2923 1.66597 14.2923 1.63674C14.2923 1.60752 14.2923 1.54906 14.2923 1.51983C14.2923 1.49061 14.2923 1.43215 14.2923 1.40292C14.2923 1.3737 14.3215 1.31524 14.3215 1.28601C14.3507 1.25679 14.3507 1.22756 14.38 1.1691C14.4092 1.13987 14.4384 1.11065 14.4676 1.08142C14.4969 1.05219 14.5261 1.02296 14.5553 0.993737C14.5845 0.964509 14.6138 0.964509 14.6722 0.935282C14.7015 0.906054 14.7599 0.906054 14.7891 0.906054C14.8184 0.935282 14.8476 0.935282 14.9061 0.935282ZM15.8121 0H0.964509C0.906054 0 0.847599 0 0.759916 0.0292276C0.701461 0.0292276 0.643006 0.0584551 0.584551 0.0584551C0.526096 0.0876827 0.467641 0.11691 0.438413 0.175365C0.379958 0.204593 0.321503 0.23382 0.292276 0.292276C0.23382 0.321503 0.204593 0.379958 0.175365 0.438413C0.11691 0.467641 0.0876827 0.526096 0.0584551 0.584551C0.0584551 0.643006 0.0292276 0.701461 0.0292276 0.759916C0 0.847599 0 0.906054 0 0.964509V13.0355C0 13.0939 0 13.1524 0.0292276 13.2109C0.0292276 13.2693 0.0584551 13.3278 0.0876827 13.3862C0.11691 13.4447 0.146138 13.5031 0.175365 13.5616C0.204593 13.62 0.263048 13.6493 0.292276 13.7077C0.350731 13.7662 0.379958 13.7954 0.438413 13.8246C0.496868 13.8539 0.555324 13.8831 0.613779 13.9123C0.672234 13.9415 0.730689 13.9415 0.789144 13.9708C0.847599 13.9708 0.906054 14 0.964509 14H15.8121C15.8706 14 15.929 14 15.9875 13.9708C16.0459 13.9708 16.1044 13.9415 16.1628 13.9123C16.2213 13.8831 16.2797 13.8539 16.3382 13.8246C16.3967 13.7954 16.4259 13.737 16.4843 13.7077C16.5428 13.6493 16.572 13.62 16.6013 13.5616C16.6305 13.5031 16.6597 13.4447 16.6889 13.3862C16.7182 13.3278 16.7182 13.2693 16.7474 13.2109C16.7474 13.1524 16.7766 13.0939 16.7766 13.0355V0.964509C16.7766 0.906054 16.7766 0.847599 16.7474 0.789144C16.7474 0.730689 16.7182 0.672234 16.6889 0.613779C16.6597 0.555324 16.6305 0.496868 16.6013 0.438413C16.572 0.379958 16.5136 0.350731 16.4843 0.292276C16.4259 0.23382 16.3967 0.204593 16.3382 0.175365C16.2797 0.146138 16.2213 0.11691 16.1628 0.0876827C16.1044 0.0584551 16.0459 0.0584551 15.9875 0.0292276C15.929 0 15.8706 0 15.8121 0Z" fill="#394C60"/>
<path d="M5.69927 11.6911C5.75773 11.6034 5.81618 11.545 5.87464 11.4865C5.93309 11.4281 6.02078 11.3696 6.10846 11.3404C6.19614 11.3112 6.28382 11.2819 6.37151 11.2819C6.45919 11.2819 6.54687 11.2819 6.66378 11.3112C6.69301 11.3112 6.75147 11.3404 6.78069 11.3404C6.83915 11.3404 6.86838 11.3404 6.92683 11.3404C6.98529 11.3404 7.01451 11.3404 7.04374 11.3112C7.07297 11.3112 7.13142 11.2819 7.16065 11.2527C7.18988 11.2235 7.24833 11.1942 7.27756 11.1942C7.30679 11.165 7.33602 11.1358 7.36524 11.1066C7.39447 11.0773 7.4237 11.0481 7.45293 10.9897C7.48215 10.9604 7.48216 10.902 7.51138 10.8727C7.54061 10.8435 7.54061 10.7851 7.54061 10.7558C7.54061 10.6974 7.54061 10.6682 7.54061 10.6097C7.54061 10.5512 7.54061 10.522 7.51138 10.4636C7.51138 10.4051 7.48216 10.3759 7.48216 10.3467C7.45293 10.3174 7.45293 10.259 7.4237 10.2297C7.39447 10.2005 7.36524 10.1713 7.33602 10.1128C7.30679 10.0836 7.27756 10.0544 7.21911 10.0251C7.18988 9.99592 7.13142 9.96669 7.1022 9.96669C7.01451 9.93746 6.95606 9.87901 6.86838 9.82055C6.80992 9.7621 6.75147 9.67442 6.69301 9.61596C6.66378 9.52828 6.63456 9.4406 6.60533 9.35291C6.60533 9.26523 6.60533 9.17755 6.60533 9.08987C6.60533 9.00218 6.66378 8.9145 6.69301 8.82682C6.75147 8.73914 6.80992 8.68068 6.86838 8.593C6.92683 8.53454 7.01451 8.47609 7.1022 8.44686C7.18988 8.41763 7.27756 8.3884 7.36524 8.3884C7.4237 8.3884 7.45293 8.3884 7.51138 8.35918C7.56984 8.35918 7.59907 8.32995 7.65752 8.32995C7.68675 8.30072 7.7452 8.30072 7.77443 8.27149C7.80366 8.24227 7.86211 8.21304 7.89134 8.18381C7.92057 8.15458 7.9498 8.12536 7.97902 8.0669C8.00825 8.03767 8.03748 7.97922 8.03748 7.94999C8.06671 7.92076 8.06671 7.86231 8.06671 7.80385C8.06671 7.7454 8.06671 7.71617 8.06671 7.65772C8.06671 7.59926 8.06671 7.57003 8.03748 7.51158C8.03748 7.45312 8.00825 7.4239 8.00825 7.36544C7.97902 7.33621 7.97902 7.27776 7.9498 7.24853C7.92057 7.2193 7.89134 7.16085 7.86211 7.13162C7.83289 7.10239 7.80366 7.07316 7.7452 7.04394C7.71598 7.01471 7.65752 6.98548 7.62829 6.98548C7.59907 6.95625 7.54061 6.95625 7.48216 6.95625C7.4237 6.95625 7.39447 6.95625 7.33602 6.95625C7.24833 6.95625 7.16065 6.92703 7.07297 6.8978C6.98529 6.86857 6.8976 6.81012 6.83915 6.75166C6.78069 6.69321 6.69301 6.60552 6.66378 6.54707C6.60533 6.45939 6.5761 6.3717 6.5761 6.28402C6.54687 6.16711 6.54687 6.0502 6.5761 5.93329C6.60533 5.81638 6.63456 5.69947 6.72224 5.58256C6.80992 5.46565 6.8976 5.40719 7.01451 5.34874C7.04374 5.31951 7.1022 5.29028 7.13142 5.26106C7.16065 5.23183 7.18988 5.2026 7.21911 5.17337C7.24833 5.14415 7.27756 5.11492 7.30679 5.05646C7.33602 5.02724 7.33602 4.96878 7.36524 4.93955C7.36524 4.91033 7.39447 4.85187 7.39447 4.79341C7.39447 4.73496 7.39447 4.70573 7.39447 4.64728C7.39447 4.58882 7.39447 4.55959 7.36524 4.50114C7.36524 4.44268 7.33602 4.41346 7.30679 4.38423C7.27756 4.355 7.27756 4.29655 7.24833 4.26732C7.21911 4.23809 7.18988 4.17964 7.16065 4.15041C7.13142 4.12118 7.1022 4.09195 7.07297 4.06273C7.04374 4.0335 6.98529 4.00427 6.95606 4.00427C6.92683 3.97504 6.86838 3.97504 6.83915 3.94582C6.78069 3.94582 6.75147 3.91659 6.69301 3.91659C6.63456 3.91659 6.60533 3.91659 6.54687 3.91659C6.48842 3.91659 6.45919 3.94582 6.40074 3.94582C6.22537 4.0335 6.02078 4.0335 5.84541 3.97504C5.69927 3.91659 5.55314 3.79968 5.46545 3.65354C5.37777 3.53663 5.34854 3.44895 5.31932 3.30281C5.29009 3.1859 5.29009 3.03976 5.31932 2.92285H2.07506C3.59489 3.74122 5.02704 5.37797 5.05627 7.5408C5.08549 9.87901 3.85794 11.7788 2.0166 12.6849H5.69927C5.64082 12.6264 5.58236 12.5387 5.55314 12.451C5.52391 12.3634 5.49468 12.2757 5.49468 12.188C5.49468 12.1003 5.49468 12.0126 5.52391 11.9249C5.58236 11.8665 5.64082 11.7788 5.69927 11.6911Z" fill="#3C9BD6"/>
<path d="M10.2879 3.91624C10.3756 3.97469 10.434 4.06238 10.4633 4.12083C10.5217 4.20851 10.551 4.2962 10.5802 4.38388C10.6094 4.47156 10.6094 4.55924 10.5802 4.67616C10.5802 4.76384 10.551 4.85152 10.4925 4.9392C10.4633 5.02689 10.4048 5.11457 10.3464 5.17302C10.2879 5.23148 10.2002 5.31916 10.1418 5.34839C10.0541 5.40684 9.9664 5.43607 9.87872 5.43607C9.79103 5.4653 9.70335 5.4653 9.58644 5.43607C9.52799 5.43607 9.49876 5.43607 9.4403 5.43607C9.38185 5.43607 9.35262 5.43607 9.29417 5.4653C9.26494 5.4653 9.20648 5.49453 9.17726 5.49453C9.14803 5.52375 9.08957 5.52375 9.06035 5.55298C9.03112 5.58221 9.00189 5.61144 8.97266 5.64066C8.94344 5.66989 8.91421 5.69912 8.88498 5.75758C8.85575 5.7868 8.85575 5.84526 8.82653 5.87449C8.7973 5.90371 8.7973 5.96217 8.7973 5.9914C8.7973 6.04985 8.76807 6.07908 8.76807 6.13753C8.76807 6.19599 8.76807 6.22522 8.76807 6.28367C8.76807 6.34213 8.7973 6.37135 8.7973 6.40058C8.82652 6.42981 8.82652 6.48826 8.85575 6.51749C8.88498 6.54672 8.91421 6.60517 8.94344 6.6344C8.97266 6.66363 9.00189 6.69286 9.03112 6.72208C9.06035 6.75131 9.1188 6.78054 9.14803 6.78054C9.17726 6.80977 9.23571 6.80977 9.26494 6.83899C9.35262 6.86822 9.4403 6.89745 9.49876 6.9559C9.58644 7.01436 9.6449 7.07281 9.70335 7.13127C9.76181 7.21895 9.79103 7.27741 9.82026 7.36509C9.84949 7.45277 9.84949 7.54046 9.84949 7.62814C9.84949 7.71582 9.82026 7.8035 9.79103 7.89119C9.76181 7.97887 9.70335 8.06655 9.6449 8.12501C9.58644 8.18346 9.52799 8.24192 9.4403 8.30037C9.35262 8.35883 9.26494 8.38805 9.17726 8.38805C9.1188 8.38805 9.08957 8.41728 9.03112 8.41728C9.00189 8.44651 8.94343 8.44651 8.91421 8.47574C8.88498 8.50496 8.82652 8.53419 8.7973 8.56342C8.76807 8.59265 8.73884 8.62188 8.70961 8.68033C8.68039 8.70956 8.65116 8.76801 8.65116 8.79724C8.62193 8.82647 8.62193 8.88492 8.5927 8.94338C8.5927 9.00183 8.56348 9.03106 8.56348 9.08952C8.56348 9.14797 8.56348 9.1772 8.56348 9.23565C8.56348 9.29411 8.5927 9.32334 8.5927 9.38179C8.62193 9.44025 8.62193 9.46947 8.65116 9.4987C8.68039 9.52793 8.70961 9.58638 8.73884 9.61561C8.76807 9.64484 8.7973 9.67407 8.85575 9.70329C8.88498 9.73252 8.94344 9.76175 8.97266 9.76175C9.00189 9.79098 9.06035 9.79098 9.1188 9.8202C9.17726 9.8202 9.20648 9.84943 9.26494 9.84943C9.32339 9.84943 9.35262 9.84943 9.41108 9.84943C9.49876 9.84943 9.58644 9.84943 9.70335 9.84943C9.79103 9.87866 9.87872 9.90789 9.9664 9.96634C10.0541 10.0248 10.1125 10.0833 10.171 10.1417C10.2294 10.2294 10.2879 10.2878 10.3171 10.3755C10.3464 10.4924 10.3756 10.6093 10.3756 10.7263C10.3756 10.8432 10.3464 10.9893 10.2879 11.1062C10.2294 11.2231 10.1418 11.3108 10.0541 11.3985C10.0249 11.4277 9.99563 11.4569 9.9664 11.4862C9.93717 11.5154 9.90794 11.5446 9.87872 11.6031C9.84949 11.6323 9.84949 11.6908 9.82026 11.72C9.79103 11.7492 9.79103 11.8077 9.79103 11.8661C9.79103 11.9246 9.79103 11.9538 9.79103 12.0123C9.79103 12.0707 9.79103 12.1 9.82026 12.1584C9.82026 12.2169 9.84949 12.2461 9.84949 12.2753C9.87872 12.3045 9.87872 12.363 9.90794 12.3922C9.99563 12.5384 10.1418 12.6553 10.2879 12.743H14.6428C13.2691 12.0415 11.9539 10.7555 11.6616 8.91415C11.2232 6.3129 12.4507 4.03315 14.5259 2.98096H10.1418C10.1125 3.01018 10.0833 3.06864 10.0833 3.09787C10.0541 3.12709 10.0541 3.18555 10.0541 3.21478C10.0541 3.24401 10.0249 3.30246 10.0249 3.33169C10.0249 3.39014 10.0249 3.41937 10.0249 3.4486C10.0249 3.47783 10.0541 3.53628 10.0541 3.56551C10.0833 3.59474 10.0833 3.65319 10.1125 3.68242C10.1418 3.71165 10.171 3.74087 10.2002 3.79933C10.2294 3.85778 10.2587 3.88701 10.2879 3.91624Z" fill="#E74F38"/>
<path d="M19.0384 7.03075C19.0384 6.68513 19.0768 6.33951 19.192 5.99389C19.3072 5.68668 19.4608 5.37946 19.6912 5.14905C19.9217 4.88023 20.1905 4.68822 20.5361 4.57301C20.9201 4.4194 21.3425 4.3426 21.765 4.381C22.149 4.381 22.4946 4.4194 22.8402 4.53461C23.109 4.61141 23.3778 4.76502 23.5699 4.99544C23.6851 5.11064 23.7235 5.22585 23.7235 5.37946C23.7235 5.53307 23.6851 5.68668 23.6083 5.80188C23.5315 5.91709 23.4162 6.03229 23.2626 6.0707C23.0706 6.1091 22.8786 6.0707 22.6866 5.95549C22.5714 5.87869 22.4178 5.84028 22.2642 5.76348C22.0722 5.68667 21.9186 5.68668 21.7266 5.68668C21.5345 5.68668 21.3809 5.68667 21.1889 5.76348C21.0353 5.84028 20.8817 5.91709 20.7665 6.0707C20.6513 6.22431 20.5745 6.37791 20.4977 6.56992C20.4593 6.76194 20.4209 6.91554 20.4209 7.10755V7.9908C20.4209 8.18282 20.4209 8.37483 20.4977 8.52843C20.5361 8.72045 20.6513 8.87405 20.7665 9.02766C20.8817 9.14287 21.0353 9.25808 21.1889 9.33488C21.3425 9.41168 21.5345 9.41168 21.7266 9.41168C21.9186 9.41168 22.1106 9.37328 22.3026 9.33488C22.4562 9.29648 22.5714 9.25808 22.725 9.18127C22.8786 9.10447 23.0322 9.06607 23.2242 9.10447C23.3778 9.14287 23.4931 9.18127 23.5699 9.29648C23.6467 9.41168 23.7235 9.52689 23.7235 9.6805C23.7235 9.83411 23.6851 9.98772 23.5699 10.1029C23.3778 10.3333 23.109 10.4869 22.8402 10.6022C22.4946 10.7174 22.1106 10.7558 21.7266 10.7558C21.3041 10.7558 20.8817 10.679 20.4977 10.5253C20.1521 10.4101 19.8832 10.2181 19.6528 9.94932C19.4224 9.7189 19.2688 9.41168 19.1536 9.10447C19.0384 8.75885 19 8.41323 19 8.06761L19.0384 7.03075Z" fill="#394C60"/>
<path d="M25.1064 2.8449C25.1064 2.7681 25.1448 2.69129 25.1448 2.61449C25.1832 2.53769 25.2217 2.49928 25.2985 2.42248C25.4521 2.30727 25.6441 2.23047 25.8361 2.23047C26.0281 2.23047 26.2201 2.26887 26.3353 2.42248C26.4505 2.53769 26.5273 2.65289 26.5273 2.8065V10.1029C26.5273 10.2565 26.4505 10.4101 26.3353 10.4869C26.1817 10.6021 26.0281 10.6789 25.8361 10.6789C25.6441 10.6789 25.4521 10.6405 25.2985 10.4869C25.2217 10.4485 25.1832 10.3717 25.1448 10.2949C25.1064 10.2181 25.1064 10.1413 25.1064 10.0645V2.8449Z" fill="#394C60"/>
<path d="M28.4863 4.91871C28.4863 4.84191 28.5247 4.76511 28.5247 4.6883C28.5631 4.6115 28.6015 4.57309 28.6783 4.49629C28.8319 4.38108 29.024 4.30428 29.216 4.30428C29.408 4.30428 29.6 4.34268 29.7152 4.49629C29.8304 4.6115 29.9072 4.7267 29.9072 4.88031V10.103C29.9072 10.2566 29.8304 10.4102 29.7152 10.487C29.5616 10.6022 29.408 10.679 29.216 10.679C29.024 10.679 28.8319 10.6406 28.6783 10.487C28.6015 10.4486 28.5631 10.3718 28.5247 10.295C28.4863 10.2182 28.4863 10.1414 28.4863 10.0646V4.91871ZM28.4863 2.72979C28.4863 2.65299 28.5247 2.57618 28.5247 2.49938C28.5631 2.42257 28.6015 2.38417 28.6783 2.30737C28.8319 2.19216 29.024 2.11536 29.216 2.11536C29.408 2.11536 29.6 2.15376 29.7152 2.30737C29.8304 2.42257 29.9072 2.53778 29.9072 2.69139V2.99861C29.9072 3.15221 29.8304 3.30582 29.7152 3.38263C29.5616 3.49783 29.408 3.57464 29.216 3.57464C29.024 3.57464 28.8319 3.53624 28.6783 3.38263C28.6015 3.34423 28.5631 3.26742 28.5247 3.19062C28.4863 3.11381 28.4863 3.03701 28.4863 2.9602V2.72979Z" fill="#394C60"/>
<path d="M31.5967 7.03075C31.5967 6.68513 31.6351 6.33951 31.7503 5.99389C31.8655 5.68668 32.0191 5.37946 32.2495 5.14905C32.4799 4.88023 32.7871 4.68822 33.0944 4.57301C33.4784 4.4194 33.9008 4.3426 34.3232 4.381C34.7073 4.381 35.0529 4.4194 35.3985 4.53461C35.6673 4.61141 35.9361 4.76502 36.1281 4.99544C36.2433 5.11064 36.2817 5.22585 36.2817 5.37946C36.2817 5.53307 36.2433 5.68668 36.1665 5.80188C36.0897 5.91709 35.9745 6.03229 35.8209 6.0707C35.6289 6.1091 35.4369 6.0707 35.2449 5.95549C35.1297 5.87869 34.9761 5.84028 34.8225 5.76348C34.6304 5.68667 34.4768 5.68668 34.2848 5.68668C34.0928 5.68668 33.9392 5.68667 33.7472 5.76348C33.5936 5.84028 33.44 5.91709 33.3248 6.0707C33.2096 6.22431 33.1328 6.37791 33.056 6.56992C33.0176 6.76194 32.9792 6.91554 32.9792 7.10755V7.9908C32.9792 8.18282 32.9792 8.37483 33.056 8.52843C33.0944 8.72045 33.2096 8.87405 33.3248 9.02766C33.44 9.14287 33.5936 9.25808 33.7472 9.33488C33.9008 9.41168 34.0928 9.41168 34.2848 9.41168C34.4768 9.41168 34.6689 9.37328 34.8609 9.33488C35.0145 9.29648 35.1297 9.25808 35.2833 9.18127C35.4369 9.10447 35.5905 9.06607 35.7825 9.10447C35.9361 9.14287 36.0513 9.18127 36.1281 9.29648C36.2049 9.41168 36.2817 9.52689 36.2817 9.6805C36.2817 9.83411 36.2433 9.98772 36.1665 10.1029C35.9745 10.3333 35.7441 10.4869 35.4369 10.6022C35.0913 10.7174 34.7073 10.7558 34.3232 10.7558C33.9008 10.7558 33.4784 10.679 33.0944 10.5637C32.7487 10.4485 32.4799 10.2565 32.2495 9.98772C32.0191 9.7573 31.8655 9.45009 31.7503 9.14287C31.6351 8.79725 31.5967 8.45163 31.5967 8.10601V7.03075Z" fill="#394C60"/>
<path d="M37.7412 2.8449C37.7412 2.7681 37.7796 2.69129 37.7796 2.61449C37.818 2.53769 37.8564 2.49928 37.9332 2.42248C38.0868 2.30727 38.2788 2.23047 38.4708 2.23047C38.6629 2.23047 38.8549 2.26887 38.9701 2.42248C39.0853 2.53769 39.1621 2.65289 39.1621 2.8065V6.64672H39.7381L41.5046 4.4962C41.6198 4.38099 41.8118 4.34259 41.9654 4.34259C42.1575 4.34259 42.3495 4.41939 42.4647 4.573C42.5415 4.64981 42.5799 4.72661 42.6183 4.80341C42.6567 4.88022 42.6567 4.99542 42.6567 5.07223C42.6567 5.22584 42.5799 5.37945 42.4263 5.49465L40.8518 7.22275L42.8103 9.68049C42.8487 9.75729 42.8871 9.79569 42.9255 9.8725C42.9255 9.9493 42.9255 10.0261 42.9255 10.1029C42.8871 10.2949 42.7719 10.4485 42.5799 10.5637C42.4263 10.6789 42.2727 10.7173 42.0807 10.6789C41.927 10.6789 41.7734 10.6021 41.6966 10.4869L39.7381 7.91399H39.2005V10.1413C39.2005 10.2949 39.1237 10.4485 39.0085 10.5253C38.8549 10.6405 38.7013 10.7173 38.5093 10.7173C38.3172 10.7173 38.1252 10.6789 37.9716 10.5253C37.8948 10.4869 37.8564 10.4101 37.818 10.3333C37.7796 10.2565 37.7796 10.1797 37.7796 10.1029V2.8449H37.7412Z" fill="#394C60"/>
<path d="M47.6866 4.45774V4.07372C47.6866 3.30567 47.8786 2.76804 48.2626 2.46083C48.6467 2.15361 49.1843 2 49.9139 2C50.106 2 50.2596 2 50.4132 2.0384C50.5668 2.0768 50.7204 2.11521 50.8356 2.19201C50.9508 2.26882 51.066 2.34562 51.1428 2.46083C51.2196 2.57603 51.258 2.65284 51.258 2.80645C51.258 2.96005 51.2196 3.11366 51.1044 3.22887C50.9892 3.34408 50.8356 3.38248 50.682 3.38248C50.5668 3.38248 50.4132 3.38248 50.298 3.34408C50.1444 3.30567 50.0291 3.30567 49.8755 3.30567C49.6451 3.26727 49.4531 3.34408 49.2611 3.45928C49.1075 3.65129 49.0691 3.8433 49.1075 4.03531V4.45774H50.0675C50.2212 4.45774 50.3364 4.49614 50.4516 4.61135C50.5668 4.72655 50.6052 4.84176 50.6052 4.99537C50.6052 5.14898 50.5668 5.30259 50.4516 5.41779C50.3364 5.533 50.2212 5.5714 50.0675 5.5714H49.1075V10.1029C49.1075 10.2565 49.0307 10.4101 48.9155 10.4869C48.7619 10.6021 48.6083 10.6789 48.4163 10.6789C48.2243 10.6789 48.0322 10.6405 47.8786 10.4869C47.7634 10.3717 47.6866 10.2565 47.6866 10.1029V5.6098H47.2642C47.1106 5.6098 46.9954 5.5714 46.8802 5.45619C46.765 5.34099 46.7266 5.18738 46.7266 5.03377C46.7266 4.88016 46.765 4.72655 46.8802 4.64975C46.9954 4.53454 47.1106 4.49614 47.2642 4.49614H47.6866V4.45774Z" fill="#394C60"/>
<path d="M54.5227 10.7174C54.1003 10.7174 53.7162 10.6406 53.3322 10.5254C53.1786 10.4486 53.025 10.3718 52.8714 10.295C52.7178 10.2182 52.6026 10.103 52.4874 9.98777C52.3722 9.87256 52.2569 9.71895 52.1801 9.56535C52.1033 9.41174 52.0265 9.25813 51.9497 9.10452C51.8345 8.7589 51.7577 8.41328 51.7961 8.02926V4.95709C51.7961 4.88028 51.8345 4.80348 51.8345 4.72667C51.8729 4.64987 51.9113 4.61147 51.9881 4.53466C52.1417 4.41946 52.3338 4.34265 52.5258 4.34265C52.7178 4.34265 52.9098 4.38105 53.025 4.53466C53.1402 4.64987 53.217 4.76508 53.217 4.91868V8.06766C53.217 8.25967 53.217 8.41328 53.2938 8.60529C53.3706 8.7973 53.4474 8.91251 53.601 9.06612C53.7162 9.18132 53.8698 9.25813 54.0234 9.29653C54.1771 9.33493 54.3307 9.37333 54.5227 9.37333C54.6763 9.37333 54.8683 9.37333 55.0219 9.29653C55.1755 9.25813 55.3291 9.14292 55.4443 9.06612C55.5595 8.95091 55.6747 8.7973 55.7515 8.60529C55.8284 8.41328 55.8283 8.25967 55.8283 8.06766V4.91868C55.8283 4.76508 55.9052 4.61147 56.0204 4.53466C56.174 4.41946 56.3276 4.34265 56.5196 4.34265C56.7116 4.34265 56.9036 4.38105 57.0188 4.53466C57.0956 4.57306 57.134 4.64987 57.1724 4.72667C57.2108 4.80348 57.2108 4.88028 57.2492 4.95709V8.02926C57.2492 8.41328 57.2108 8.7589 57.0956 9.10452C57.0572 9.25813 56.9804 9.41174 56.8652 9.56535C56.7884 9.71895 56.6732 9.83416 56.558 9.94937C56.4428 10.0646 56.3276 10.1798 56.174 10.2566C56.0204 10.3334 55.8668 10.4102 55.7131 10.487C55.3291 10.6406 54.9451 10.7174 54.5227 10.7174Z" fill="#394C60"/>
<path d="M61.7031 4.34265C62.1255 4.34265 62.5096 4.38105 62.8936 4.53466C63.2008 4.64987 63.508 4.80348 63.7384 5.03389C63.9688 5.2643 64.1609 5.53312 64.2377 5.84034C64.3529 6.18595 64.4297 6.53157 64.4297 6.87719V10.1414C64.4297 10.2182 64.3913 10.295 64.3529 10.3718C64.3145 10.4486 64.2761 10.487 64.1993 10.5638C64.0456 10.679 63.892 10.7558 63.7 10.7558C63.508 10.7558 63.316 10.7174 63.2008 10.5638C63.0856 10.4486 63.0088 10.3334 63.0088 10.1798V7.0308C63.0088 6.83879 63.0088 6.68518 62.932 6.49317C62.8552 6.30116 62.7784 6.18595 62.6248 6.03235C62.5096 5.91714 62.3559 5.84034 62.2023 5.80193C62.0487 5.76353 61.8951 5.72513 61.7031 5.72513C61.5495 5.72513 61.3575 5.72513 61.2039 5.80193C61.0503 5.84034 60.8967 5.95554 60.7815 6.03235C60.6663 6.14755 60.551 6.30116 60.4742 6.49317C60.3974 6.68518 60.3974 6.83879 60.3974 7.0308V10.1798C60.3974 10.3334 60.3206 10.487 60.2054 10.5638C60.0518 10.679 59.8982 10.7558 59.7062 10.7558C59.5142 10.7558 59.3222 10.7174 59.1686 10.5638C59.0918 10.5254 59.0534 10.4486 59.015 10.3718C58.9766 10.295 58.9766 10.2182 58.9766 10.1414V7.0308C58.9766 6.64678 59.015 6.30116 59.1686 5.95554C59.207 5.80193 59.2838 5.64832 59.399 5.49472C59.4758 5.34111 59.591 5.2259 59.7062 5.07229C59.8214 4.95709 59.9366 4.84188 60.0902 4.76508C60.2438 4.68827 60.3974 4.61147 60.551 4.53466C60.8967 4.38105 61.2807 4.34265 61.7031 4.34265Z" fill="#394C60"/>
<path d="M68.8457 4.34265C69.2681 4.34265 69.6521 4.38105 70.0362 4.53466C70.3434 4.64987 70.6506 4.80348 70.881 5.03389C71.1114 5.2643 71.3034 5.53312 71.3802 5.84034C71.4954 6.18595 71.5722 6.53157 71.5722 6.87719V10.1414C71.5722 10.2182 71.5338 10.295 71.4954 10.3718C71.457 10.4486 71.4186 10.487 71.3418 10.5638C71.1882 10.679 71.0346 10.7558 70.8426 10.7558C70.6506 10.7558 70.4586 10.7174 70.3434 10.5638C70.2282 10.4486 70.1514 10.3334 70.1514 10.1798V7.0308C70.1514 6.83879 70.1514 6.68518 70.0746 6.49317C69.9978 6.30116 69.921 6.18595 69.7673 6.03235C69.6521 5.91714 69.4985 5.84034 69.3449 5.80193C69.1913 5.76353 69.0377 5.72513 68.8457 5.72513C68.6921 5.72513 68.5001 5.72513 68.3465 5.80193C68.1929 5.84034 68.0392 5.95554 67.924 6.03235C67.8088 6.14755 67.6936 6.30116 67.6168 6.49317C67.54 6.68518 67.54 6.83879 67.54 7.0308V10.1798C67.54 10.3334 67.4632 10.487 67.348 10.5638C67.1944 10.679 67.0408 10.7558 66.8488 10.7558C66.6568 10.7558 66.4648 10.7174 66.3112 10.5638C66.2343 10.5254 66.1959 10.4486 66.1575 10.3718C66.1191 10.295 66.1191 10.2182 66.1191 10.1414V7.0308C66.1191 6.64678 66.1575 6.30116 66.2728 5.95554C66.3112 5.80193 66.388 5.64832 66.5032 5.49472C66.58 5.34111 66.6952 5.2259 66.8104 5.07229C66.9256 4.95709 67.0408 4.84188 67.1944 4.76508C67.348 4.68827 67.5016 4.61147 67.6552 4.53466C68.0392 4.38105 68.4617 4.34265 68.8457 4.34265Z" fill="#394C60"/>
<path d="M75.7582 5.53307C75.6045 5.53307 75.4509 5.53307 75.2973 5.60987C75.1437 5.68667 75.0285 5.76348 74.9133 5.87869C74.6829 6.1475 74.5677 6.45472 74.5293 6.80034H77.0254V6.60833C77.0254 6.45472 76.987 6.30111 76.9486 6.1859C76.8718 6.03229 76.795 5.91709 76.6798 5.84028C76.5646 5.72508 76.411 5.64827 76.2574 5.60987C76.1038 5.53307 75.9118 5.53307 75.7582 5.53307ZM78.3695 6.83874C78.3695 6.99235 78.3695 7.10756 78.3311 7.26116C78.2927 7.41477 78.2159 7.52998 78.1391 7.64519C78.0239 7.72199 77.9087 7.79879 77.7935 7.8372C77.6783 7.8756 77.5247 7.8756 77.4094 7.8756H74.4909V8.18282C74.4909 8.37483 74.5293 8.52843 74.5677 8.68204C74.6445 8.83565 74.7213 8.98926 74.8365 9.10447C74.9901 9.21967 75.1437 9.33488 75.2973 9.37328C75.4893 9.45009 75.6429 9.45009 75.835 9.45009C76.027 9.45009 76.2574 9.45009 76.4494 9.41168C76.603 9.41168 76.7566 9.33488 76.8718 9.29648L77.2174 9.14287C77.2942 9.10447 77.4094 9.06606 77.5246 9.06606C77.6783 9.06606 77.7935 9.10447 77.9087 9.21967C77.9855 9.33488 78.0623 9.45009 78.0623 9.60369C78.0623 9.7573 77.9855 9.87251 77.9087 9.98772C77.7935 10.1413 77.6015 10.2565 77.4478 10.3333C77.2174 10.4485 76.987 10.5253 76.7566 10.6022C76.4878 10.679 76.1806 10.7174 75.9118 10.7174C75.5277 10.7174 75.1437 10.6406 74.7597 10.5253C74.4141 10.4101 74.1453 10.2181 73.8764 10.0261C73.6076 9.79571 73.4156 9.56529 73.3004 9.25808C73.1468 8.95086 73.1084 8.64364 73.1084 8.29802V6.99235C73.1084 6.64673 73.1852 6.30111 73.3004 5.99389C73.4156 5.68667 73.6076 5.37946 73.8764 5.14905C74.1069 4.91863 74.4141 4.72662 74.7213 4.57301C75.0669 4.4194 75.4125 4.3426 75.7965 4.381C76.219 4.381 76.603 4.45781 76.987 4.61141C77.2942 4.72662 77.5631 4.91863 77.7551 5.18745C77.9855 5.41786 78.1391 5.72508 78.2543 6.03229C78.3311 6.26271 78.3695 6.53152 78.3695 6.83874Z" fill="#394C60"/>
<path d="M80.0225 2.8449C80.0225 2.7681 80.0609 2.69129 80.0609 2.61449C80.0993 2.53769 80.1377 2.49928 80.2145 2.42248C80.3681 2.30727 80.5601 2.23047 80.7521 2.23047C80.9441 2.23047 81.1361 2.26887 81.2513 2.42248C81.3665 2.53769 81.4433 2.65289 81.4433 2.8065V10.1029C81.4433 10.2565 81.3665 10.4101 81.2513 10.4869C81.0977 10.6021 80.9441 10.6789 80.7521 10.6789C80.5601 10.6789 80.3681 10.6405 80.2145 10.4869C80.1377 10.4485 80.0993 10.3717 80.0609 10.2949C80.0225 10.2181 80.0225 10.1413 80.0225 10.0645V2.8449Z" fill="#394C60"/>
<path d="M83.0941 9.83407C83.0557 9.75726 83.0557 9.71886 83.0557 9.64206C83.0557 9.56525 83.0557 9.48845 83.0557 9.41164C83.0941 9.33484 83.0941 9.25803 83.1709 9.21963C83.2093 9.14283 83.2861 9.10442 83.3629 9.06602C83.4397 9.02762 83.5549 8.98922 83.6701 8.98922C83.7469 8.98922 83.8237 8.98922 83.9005 9.02762C83.9773 9.06602 84.0157 9.10442 84.0925 9.14283L84.2461 9.25803C84.5917 9.45004 84.9758 9.56525 85.3598 9.52685C85.5902 9.52685 85.7822 9.48845 85.9742 9.37324C86.0126 9.33484 86.051 9.33484 86.0894 9.29644C86.1278 9.25803 86.1278 9.21963 86.1662 9.18123C86.2046 9.14283 86.2046 9.10442 86.2046 9.06602C86.2046 9.02762 86.2046 8.98922 86.2046 8.95082C86.2046 8.91241 86.2046 8.87401 86.2046 8.83561C86.2046 8.79721 86.1662 8.75881 86.1662 8.7204C86.1278 8.682 86.1278 8.6436 86.0894 8.6052C86.051 8.56679 86.0126 8.52839 86.0126 8.52839C85.859 8.41319 85.667 8.29798 85.4366 8.25958C85.2062 8.18277 84.9758 8.10597 84.707 8.02916C84.4381 7.95236 84.2077 7.83715 83.9773 7.72195C83.7469 7.60674 83.5549 7.41473 83.4013 7.22272C83.2477 6.9539 83.1709 6.68509 83.1709 6.37787C83.1709 6.10906 83.2093 5.84024 83.3245 5.60983C83.4397 5.37942 83.5933 5.149 83.7853 4.99539C84.0157 4.80338 84.2845 4.64977 84.5533 4.57297C84.8222 4.49617 85.1294 4.45776 85.4366 4.45776C85.7054 4.45776 85.9742 4.49617 86.243 4.53457C86.4351 4.57297 86.6271 4.64977 86.8191 4.72658C86.9343 4.80338 87.0879 4.88019 87.1647 4.95699C87.2415 5.0338 87.2799 5.1106 87.3567 5.1874C87.4335 5.30261 87.4335 5.45622 87.4335 5.60983C87.4335 5.68663 87.3951 5.76344 87.3951 5.80184C87.3567 5.87864 87.3183 5.91705 87.2415 5.95545C87.0879 6.07065 86.9727 6.10906 86.7807 6.07065C86.6655 6.03225 86.5119 5.99385 86.3967 5.91705C86.3198 5.87864 86.243 5.84024 86.0894 5.76344C85.8974 5.68663 85.667 5.64823 85.4366 5.68663C85.2062 5.68663 85.0142 5.72504 84.8606 5.87864C84.7838 5.95545 84.7454 5.99385 84.707 6.10906C84.6686 6.18586 84.6686 6.26267 84.6686 6.37787C84.6686 6.45468 84.6686 6.53148 84.707 6.60828C84.7454 6.68509 84.7838 6.72349 84.8606 6.76189C85.0142 6.8771 85.2062 6.9539 85.3982 6.99231L86.0894 7.22272C86.3582 7.29952 86.5887 7.41473 86.7807 7.56834C86.8959 7.64514 87.0111 7.76035 87.1263 7.83715C87.2415 7.95236 87.3183 8.06757 87.3567 8.18277C87.4335 8.29798 87.4719 8.45159 87.5103 8.6052C87.5487 8.75881 87.5487 8.91241 87.5487 9.02762C87.5487 9.29644 87.5103 9.52685 87.3951 9.79566C87.2799 10.0261 87.1263 10.2565 86.9343 10.4101C86.7039 10.6021 86.4351 10.7173 86.1662 10.8325C85.8974 10.9093 85.5902 10.9477 85.283 10.9477C85.0526 10.9477 84.7838 10.9093 84.5533 10.8709C84.3229 10.8325 84.0925 10.7557 83.9005 10.6789C83.7085 10.6021 83.5549 10.5253 83.4013 10.4101C83.2861 10.1029 83.2093 9.98767 83.0941 9.83407Z" fill="#394C60"/>
</svg>
