<svg width="94" height="14" viewBox="0 0 94 14" fill="none" xmlns="http://www.w3.org/2000/svg">
<g opacity="0.6">
<path d="M22.3916 10.8702H23.7312V6.90076H25.6129C27.8933 6.90076 29.4721 5.9084 29.4721 3.80153C29.4721 1.60305 27.9252 0.854962 25.6129 0.854962H22.3916V10.8702ZM23.7312 5.8626V1.87786H25.4375C27.2395 1.87786 28.1485 2.35114 28.1485 3.80153C28.1485 5.22137 27.2714 5.8626 25.4375 5.8626H23.7312Z" fill="#010101"/>
<path d="M31.4223 10.8702H32.7299V5.49618C33.5113 4.74809 34.0535 4.35114 34.8509 4.35114C35.8715 4.35114 36.318 4.94656 36.318 6.33588V10.8702H37.6257V6.16794C37.6257 4.27481 36.8921 3.26718 35.2655 3.26718C34.197 3.26718 33.4156 3.81679 32.6821 4.48855L32.7299 2.96183V0H31.4223V10.8702Z" fill="#010101"/>
<path d="M39.5225 7.17557C39.5225 9.63359 41.2129 11.0534 43.1106 11.0534C45.0083 11.0534 46.6987 9.63359 46.6987 7.17557C46.6987 4.68702 45.0083 3.26718 43.1106 3.26718C41.2129 3.26718 39.5225 4.68702 39.5225 7.17557ZM40.878 7.17557C40.878 5.46565 41.787 4.30534 43.1106 4.30534C44.4501 4.30534 45.3432 5.46565 45.3432 7.17557C45.3432 8.87023 44.4501 10.0153 43.1106 10.0153C41.787 10.0153 40.878 8.87023 40.878 7.17557Z" fill="#010101"/>
<path d="M48.963 8.58015C48.963 10.0458 49.5212 11.0534 51.1797 11.0534C51.6581 11.0534 52.1844 10.916 52.6149 10.7786L52.3598 9.83206C52.1046 9.92366 51.7538 10.0305 51.4827 10.0305C50.5896 10.0305 50.2867 9.51145 50.2867 8.59542V4.47328H52.3757V3.45038H50.2867V1.37405H49.1863L49.0268 3.45038L47.8149 3.52672V4.47328H48.963V8.58015Z" fill="#010101"/>
<path d="M53.3983 7.17557C53.3983 9.63359 55.0887 11.0534 56.9864 11.0534C58.8841 11.0534 60.5745 9.63359 60.5745 7.17557C60.5745 4.68702 58.8841 3.26718 56.9864 3.26718C55.0887 3.26718 53.3983 4.68702 53.3983 7.17557ZM54.7538 7.17557C54.7538 5.46565 55.6628 4.30534 56.9864 4.30534C58.326 4.30534 59.219 5.46565 59.219 7.17557C59.219 8.87023 58.326 10.0153 56.9864 10.0153C55.6628 10.0153 54.7538 8.87023 54.7538 7.17557Z" fill="#010101"/>
<path d="M61.7545 10.0305C62.488 10.6107 63.5405 11.0534 64.6409 11.0534C66.4748 11.0534 67.4795 10.0458 67.4795 8.83969C67.4795 7.43511 66.2356 6.99237 65.1193 6.59542C64.2422 6.27481 63.397 6 63.397 5.31298C63.397 4.74809 63.8435 4.24427 64.8163 4.24427C65.502 4.24427 66.0602 4.51908 66.5864 4.90076L67.2084 4.10687C66.6183 3.64885 65.7731 3.26718 64.8004 3.26718C63.1259 3.26718 62.1372 4.18321 62.1372 5.37405C62.1372 6.62595 63.3492 7.12977 64.4495 7.51145C65.2947 7.81679 66.2197 8.15267 66.2197 8.91603C66.2197 9.55725 65.7093 10.0763 64.6887 10.0763C63.7638 10.0763 63.0781 9.70992 62.4083 9.19084L61.7545 10.0305Z" fill="#010101"/>
<path d="M69.2966 10.8702H70.6042V5.49618C71.3856 4.74809 71.9278 4.35114 72.7252 4.35114C73.7458 4.35114 74.1923 4.94656 74.1923 6.33588V10.8702H75.5V6.16794C75.5 4.27481 74.7664 3.26718 73.1398 3.26718C72.0714 3.26718 71.29 3.81679 70.5564 4.48855L70.6042 2.96183V0H69.2966V10.8702Z" fill="#010101"/>
<path d="M77.3968 7.17557C77.3968 9.63359 79.0872 11.0534 80.9849 11.0534C82.8826 11.0534 84.573 9.63359 84.573 7.17557C84.573 4.68702 82.8826 3.26718 80.9849 3.26718C79.0872 3.26718 77.3968 4.68702 77.3968 7.17557ZM78.7523 7.17557C78.7523 5.46565 79.6613 4.30534 80.9849 4.30534C82.3245 4.30534 83.2175 5.46565 83.2175 7.17557C83.2175 8.87023 82.3245 10.0153 80.9849 10.0153C79.6613 10.0153 78.7523 8.87023 78.7523 7.17557Z" fill="#010101"/>
<path d="M87.8899 10.1985C88.6075 10.7328 89.3251 11.0534 90.0427 11.0534C91.8128 11.0534 93.3916 9.57252 93.3916 7.05343C93.3916 4.74809 92.3232 3.26718 90.3298 3.26718C89.4208 3.26718 88.5596 3.74046 87.858 4.30534H87.8101L87.6985 3.45038H86.6141V14H87.9218V11.4962L87.8899 10.1985ZM87.9218 9.22137V5.32824C88.6872 4.67175 89.341 4.32061 89.9949 4.32061C91.462 4.32061 92.0361 5.41985 92.0361 7.05343C92.0361 8.8855 91.0952 10 89.8195 10C89.3092 10 88.6234 9.78626 87.9218 9.22137Z" fill="#010101"/>
</g>
<path d="M2.47917 0H11.5208C12.8917 0 14 1.13675 14 2.54274V11.4573C14 12.8632 12.8917 14 11.5208 14H2.47917C1.10833 14 0 12.8632 0 11.4573V2.54274C0 1.13675 1.10833 0 2.47917 0Z" fill="#001E36"/>
<path d="M3.15039 9.81818V3.66177C3.15039 3.61989 3.16789 3.59596 3.20872 3.59596C3.30789 3.59596 3.40122 3.59596 3.53539 3.58997C3.67539 3.58399 3.82122 3.58399 3.97872 3.57801C4.13622 3.57202 4.30539 3.57202 4.48622 3.56604C4.66706 3.56006 4.84206 3.56006 5.01706 3.56006C5.49539 3.56006 5.89206 3.61989 6.21872 3.74553C6.51039 3.84724 6.77872 4.01476 7.00039 4.23613C7.18706 4.42758 7.33289 4.66091 7.42622 4.91818C7.51372 5.16946 7.56039 5.42673 7.56039 5.69596C7.56039 6.21049 7.44372 6.63527 7.21039 6.97032C6.97706 7.30536 6.65039 7.55664 6.27122 7.70023C5.87456 7.8498 5.43706 7.90365 4.95872 7.90365C4.81872 7.90365 4.72539 7.90365 4.66706 7.89767C4.60872 7.89168 4.52706 7.89168 4.41622 7.89168V9.8122C4.42206 9.85408 4.39289 9.88997 4.35206 9.89596C4.34622 9.89596 4.34039 9.89596 4.32872 9.89596H3.22039C3.17372 9.89596 3.15039 9.87203 3.15039 9.81818ZM4.42206 4.75066V6.76091C4.50372 6.7669 4.57956 6.77288 4.64956 6.77288H4.95872C5.18622 6.77288 5.41372 6.73698 5.62956 6.66519C5.81622 6.61134 5.97956 6.49767 6.10789 6.34809C6.23039 6.19852 6.28872 5.9951 6.28872 5.73185C6.29456 5.54638 6.24789 5.36091 6.15456 5.19938C6.05539 5.04382 5.91539 4.92416 5.74622 4.85835C5.53039 4.76861 5.29706 4.73271 5.05789 4.73869C4.90622 4.73869 4.77206 4.73869 4.66122 4.74467C4.54456 4.73869 4.46289 4.74467 4.42206 4.75066Z" fill="#31A8FF"/>
<path d="M11.2002 6.39559C11.0252 6.29987 10.8385 6.23406 10.6402 6.19217C10.4243 6.14431 10.2085 6.1144 9.98684 6.1144C9.87017 6.10841 9.74767 6.12636 9.63684 6.15628C9.56101 6.17423 9.49684 6.21611 9.45601 6.27594C9.42684 6.3238 9.40934 6.38363 9.40934 6.43747C9.40934 6.49132 9.43267 6.54517 9.46767 6.59303C9.52017 6.65884 9.59017 6.71269 9.66601 6.75457C9.80017 6.82636 9.94017 6.89217 10.0802 6.952C10.3952 7.0597 10.6985 7.20927 10.9785 7.38876C11.171 7.5144 11.3285 7.68192 11.4393 7.88534C11.5327 8.07679 11.5793 8.28619 11.5735 8.50158C11.5793 8.78277 11.4977 9.06397 11.346 9.2973C11.1827 9.53662 10.9552 9.72209 10.6927 9.82978C10.4068 9.95542 10.0568 10.0212 9.63684 10.0212C9.3685 10.0212 9.10601 9.9973 8.8435 9.94346C8.63934 9.90756 8.43517 9.84175 8.2485 9.752C8.20767 9.72807 8.1785 9.68619 8.18434 9.63833V8.5973C8.18434 8.57935 8.19017 8.55542 8.20767 8.54346C8.22517 8.53149 8.24267 8.53747 8.26017 8.54944C8.48767 8.68705 8.72684 8.78277 8.9835 8.8426C9.20517 8.90243 9.43851 8.93235 9.67184 8.93235C9.89351 8.93235 10.051 8.90243 10.156 8.84858C10.2493 8.8067 10.3135 8.705 10.3135 8.5973C10.3135 8.51354 10.2668 8.43576 10.1735 8.35799C10.0802 8.28021 9.88767 8.19047 9.60184 8.07679C9.30434 7.9691 9.03017 7.82551 8.7735 7.64602C8.59267 7.5144 8.441 7.34089 8.33017 7.13747C8.23684 6.94602 8.19017 6.73662 8.196 6.52722C8.196 6.26995 8.266 6.02465 8.39434 5.80329C8.54017 5.56397 8.756 5.37252 9.00684 5.25286C9.281 5.10927 9.62517 5.04346 10.0393 5.04346C10.2785 5.04346 10.5235 5.06141 10.7627 5.0973C10.9377 5.12123 11.1068 5.1691 11.2643 5.23491C11.2877 5.24089 11.311 5.26482 11.3227 5.28876C11.3285 5.31269 11.3343 5.33662 11.3343 5.36055V6.33576C11.3343 6.3597 11.3227 6.38363 11.3052 6.39559C11.2527 6.40756 11.2235 6.40756 11.2002 6.39559Z" fill="#31A8FF"/>
</svg>
