<svg width="76" height="15" viewBox="0 0 76 15" fill="none" xmlns="http://www.w3.org/2000/svg">
<g opacity="0.6">
<path d="M22.3916 11.5764H23.6761V1.55022H22.3916V11.5764Z" fill="#010101"/>
<path d="M26.2574 11.5764H27.5113V6.19651C28.2606 5.4476 28.7805 5.05022 29.545 5.05022C30.5237 5.05022 30.9518 5.64629 30.9518 7.03712V11.5764H32.2057V6.869C32.2057 4.9738 31.5023 3.96507 29.9426 3.96507C28.9181 3.96507 28.1535 4.51528 27.4501 5.21834H27.4043L27.2972 4.14847H26.2574V11.5764Z" fill="#010101"/>
<path d="M34.6963 11.5764H37.2652C40.2929 11.5764 41.9444 9.71179 41.9444 6.51747C41.9444 3.33843 40.2929 1.55022 37.2041 1.55022H34.6963V11.5764ZM35.9808 10.5371V2.58952H37.1123C39.4672 2.58952 40.6293 3.99563 40.6293 6.51747C40.6293 9.05459 39.4672 10.5371 37.1123 10.5371H35.9808Z" fill="#010101"/>
<path d="M43.4323 7.87773C43.4323 10.3079 45.0073 11.7598 46.9951 11.7598C48.0043 11.7598 48.7995 11.4083 49.4417 10.9956L48.9983 10.1703C48.4478 10.5218 47.8514 10.7511 47.148 10.7511C45.726 10.7511 44.7626 9.74236 44.6709 8.13755H49.6864C49.717 7.95415 49.7323 7.70961 49.7323 7.44978C49.7323 5.32533 48.6619 3.96507 46.7658 3.96507C45.0684 3.96507 43.4323 5.4476 43.4323 7.87773ZM44.6556 7.31223C44.8085 5.81441 45.7565 4.95852 46.7963 4.95852C47.9585 4.95852 48.6313 5.79913 48.6313 7.31223H44.6556Z" fill="#010101"/>
<path d="M50.7429 10.7358C51.4463 11.3166 52.4555 11.7598 53.5106 11.7598C55.2691 11.7598 56.2325 10.7511 56.2325 9.54367C56.2325 8.13755 55.0398 7.69432 53.9694 7.29694C53.1284 6.97598 52.3179 6.70087 52.3179 6.0131C52.3179 5.4476 52.7461 4.94323 53.6788 4.94323C54.3364 4.94323 54.8716 5.21834 55.3762 5.60044L55.9725 4.80568C55.4068 4.34716 54.5963 3.96507 53.6636 3.96507C52.058 3.96507 51.1099 4.8821 51.1099 6.07424C51.1099 7.32751 52.272 7.83188 53.3271 8.21397C54.1376 8.51965 55.0245 8.8559 55.0245 9.62009C55.0245 10.262 54.5352 10.7817 53.5565 10.7817C52.6696 10.7817 52.0121 10.4148 51.3699 9.8952L50.7429 10.7358Z" fill="#010101"/>
<path d="M58.6171 2.62009C59.1064 2.62009 59.4887 2.28384 59.4887 1.81004C59.4887 1.32096 59.1064 1 58.6171 1C58.1278 1 57.7455 1.32096 57.7455 1.81004C57.7455 2.28384 58.1278 2.62009 58.6171 2.62009ZM57.9749 11.5764H59.2287V4.14847H57.9749V11.5764Z" fill="#010101"/>
<path d="M62.2731 12.8297C62.2731 12.4017 62.5025 11.9585 63.0377 11.5764C63.3588 11.6681 63.7105 11.6987 64.001 11.6987H65.2855C66.2489 11.6987 66.784 11.9279 66.784 12.6157C66.784 13.3952 65.8513 14.1288 64.4292 14.1288C63.0836 14.1288 62.2731 13.6245 62.2731 12.8297ZM61.1722 12.9978C61.1722 14.2817 62.426 15 64.2457 15C66.5547 15 68.0074 13.8079 68.0074 12.4323C68.0074 11.1943 67.1358 10.6594 65.4078 10.6594H63.9705C62.9612 10.6594 62.6554 10.3231 62.6554 9.84935C62.6554 9.43668 62.8695 9.19214 63.1294 8.96288C63.4659 9.131 63.8787 9.22271 64.2457 9.22271C65.7595 9.22271 66.9675 8.22926 66.9675 6.63974C66.9675 6.0131 66.7076 5.4476 66.3559 5.11135H67.885V4.14847H65.3008C65.0256 4.04148 64.6586 3.96507 64.2457 3.96507C62.7319 3.96507 61.4474 4.98908 61.4474 6.60917C61.4474 7.49563 61.9214 8.21397 62.4108 8.61135V8.67249C62.0285 8.93232 61.6003 9.4214 61.6003 10.048C61.6003 10.6288 61.8908 11.0262 62.2578 11.2555V11.3166C61.585 11.7751 61.1722 12.3712 61.1722 12.9978ZM64.2457 8.3821C63.3894 8.3821 62.6707 7.69432 62.6707 6.60917C62.6707 5.52402 63.3741 4.8821 64.2457 4.8821C65.1173 4.8821 65.8207 5.52402 65.8207 6.60917C65.8207 7.69432 65.102 8.3821 64.2457 8.3821Z" fill="#010101"/>
<path d="M69.4433 11.5764H70.6972V6.19651C71.4465 5.4476 71.9664 5.05022 72.7309 5.05022C73.7096 5.05022 74.1377 5.64629 74.1377 7.03712V11.5764H75.3916V6.869C75.3916 4.9738 74.6882 3.96507 73.1285 3.96507C72.104 3.96507 71.3394 4.51528 70.636 5.21834H70.5901L70.4831 4.14847H69.4433V11.5764Z" fill="#010101"/>
</g>
<path d="M2.47917 0H11.5208C12.8917 0 14 1.13675 14 2.54274V11.4573C14 12.8632 12.8917 14 11.5208 14H2.47917C1.10833 14 0 12.8632 0 11.4573V2.54274C0 1.13675 1.10833 0 2.47917 0Z" fill="#49021F"/>
<path d="M5.08599 3.6617V9.80015C5.08599 9.86597 5.05682 9.89588 5.00432 9.89588H3.86099C3.80849 9.89588 3.78516 9.86597 3.78516 9.80015V3.6617C3.78516 3.60785 3.81432 3.58392 3.86682 3.58392H5.00432C5.03932 3.57793 5.07432 3.60187 5.08016 3.64375C5.08599 3.64973 5.08599 3.65571 5.08599 3.6617Z" fill="#FF3366"/>
<path d="M8.44629 9.99151C8.01462 9.9975 7.58295 9.90775 7.19212 9.72228C6.82462 9.54878 6.52129 9.2616 6.31129 8.90861C6.09545 8.54365 5.99045 8.08895 5.99045 7.5445C5.98462 7.10177 6.09545 6.66502 6.31129 6.28211C6.53295 5.89322 6.85379 5.57014 7.23879 5.35476C7.64712 5.12143 8.13712 5.00775 8.71462 5.00775C8.74379 5.00775 8.78462 5.00775 8.83712 5.01373C8.88962 5.01972 8.94795 5.01972 9.01795 5.0257V3.1351C9.01795 3.09322 9.03545 3.06929 9.07629 3.06929H10.2605C10.2896 3.06331 10.313 3.08724 10.3188 3.11117C10.3188 3.11715 10.3188 3.12314 10.3188 3.12314V8.81886C10.3188 8.92655 10.3246 9.04621 10.3305 9.17784C10.3421 9.30348 10.348 9.42314 10.3538 9.52485C10.3538 9.56673 10.3363 9.60262 10.2955 9.62057C9.99212 9.7522 9.67129 9.84792 9.34462 9.90775C9.05295 9.9616 8.74962 9.99151 8.44629 9.99151ZM9.01795 8.79493V6.16245C8.96545 6.15049 8.91295 6.13852 8.86045 6.13254C8.79629 6.12655 8.73212 6.12057 8.66795 6.12057C8.44045 6.12057 8.21295 6.16843 8.00879 6.27613C7.81045 6.37784 7.64129 6.52741 7.51295 6.71886C7.38462 6.91032 7.32045 7.16758 7.32045 7.47869C7.31462 7.68809 7.34962 7.8975 7.41962 8.09493C7.47795 8.25647 7.56545 8.40006 7.68212 8.51972C7.79295 8.62741 7.92712 8.71117 8.07879 8.75903C8.23629 8.81288 8.39962 8.83681 8.56295 8.83681C8.65045 8.83681 8.73212 8.83083 8.80795 8.82485C8.88379 8.83083 8.95379 8.81886 9.01795 8.79493Z" fill="#FF3366"/>
</svg>
