<svg width="86" height="14" viewBox="0 0 86 14" fill="none" xmlns="http://www.w3.org/2000/svg">
<g opacity="0.6">
<path d="M24.704 8.12L25.216 6.52C25.584 5.352 25.92 4.2 26.256 2.984H26.32C26.656 4.2 26.992 5.352 27.36 6.52L27.856 8.12H24.704ZM29.2 12.392H30.608L27.056 1.896H25.552L22 12.392H23.36L24.368 9.192H28.192L29.2 12.392Z" fill="#010101"/>
<path d="M31.3614 8.52C31.3614 11.112 32.6254 12.584 34.5774 12.584C35.4894 12.584 36.3214 12.072 36.9294 11.48H36.9774L37.0894 12.392H38.1774V1H36.8494V3.992L36.9134 5.32C36.2254 4.76 35.6334 4.424 34.7374 4.424C32.9614 4.424 31.3614 5.992 31.3614 8.52ZM32.7214 8.504C32.7214 6.728 33.7134 5.528 34.9614 5.528C35.6014 5.528 36.1934 5.752 36.8494 6.344V10.408C36.2094 11.128 35.5854 11.48 34.8654 11.48C33.5054 11.48 32.7214 10.36 32.7214 8.504Z" fill="#010101"/>
<path d="M40.2204 8.52C40.2204 11.096 41.9164 12.584 43.8204 12.584C45.7244 12.584 47.4204 11.096 47.4204 8.52C47.4204 5.912 45.7244 4.424 43.8204 4.424C41.9164 4.424 40.2204 5.912 40.2204 8.52ZM41.5804 8.52C41.5804 6.728 42.4924 5.512 43.8204 5.512C45.1644 5.512 46.0604 6.728 46.0604 8.52C46.0604 10.296 45.1644 11.496 43.8204 11.496C42.4924 11.496 41.5804 10.296 41.5804 8.52Z" fill="#010101"/>
<path d="M49.4683 12.392H50.5243L50.6362 11.624H50.6842C51.3722 12.232 52.1883 12.584 52.9083 12.584C54.6842 12.584 56.2682 11.032 56.2682 8.376C56.2682 5.976 55.1963 4.424 53.1803 4.424C52.3162 4.424 51.4522 4.888 50.7482 5.512L50.7803 4.104V1H49.4683V12.392ZM50.7803 10.664V6.584C51.5163 5.896 52.2043 5.528 52.8603 5.528C54.3323 5.528 54.9082 6.68 54.9082 8.392C54.9082 10.312 53.9642 11.48 52.6842 11.48C52.1722 11.48 51.4683 11.256 50.7803 10.664Z" fill="#010101"/>
<path d="M57.7673 8.52C57.7673 11.064 59.4152 12.584 61.4953 12.584C62.5513 12.584 63.3833 12.216 64.0553 11.784L63.5913 10.92C63.0153 11.288 62.3913 11.528 61.6553 11.528C60.1673 11.528 59.1593 10.472 59.0633 8.792H64.3112C64.3433 8.6 64.3592 8.344 64.3592 8.072C64.3592 5.848 63.2393 4.424 61.2552 4.424C59.4792 4.424 57.7673 5.976 57.7673 8.52ZM59.0472 7.928C59.2072 6.36 60.1992 5.464 61.2873 5.464C62.5033 5.464 63.2072 6.344 63.2072 7.928H59.0472Z" fill="#010101"/>
<path d="M68.4111 12.392H69.8031L71.3231 9.56C71.5951 9.048 71.8511 8.52 72.1551 7.88H72.2191C72.5551 8.52 72.8431 9.048 73.1151 9.56L74.6671 12.392H76.1391L73.0831 7.032L75.9311 1.896H74.5231L73.1311 4.584C72.8751 5.064 72.6831 5.496 72.3951 6.104H72.3311C71.9951 5.496 71.7711 5.064 71.5151 4.584L70.0751 1.896H68.6031L71.4671 6.968L68.4111 12.392Z" fill="#010101"/>
<path d="M77.7201 12.392H80.4081C83.5761 12.392 85.3041 10.44 85.3041 7.096C85.3041 3.768 83.5761 1.896 80.3441 1.896H77.7201V12.392ZM79.0641 11.304V2.984H80.2481C82.7121 2.984 83.9281 4.456 83.9281 7.096C83.9281 9.752 82.7121 11.304 80.2481 11.304H79.0641Z" fill="#010101"/>
</g>
<path d="M2.47917 0H11.5208C12.8917 0 14 1.13675 14 2.54274V11.4573C14 12.8632 12.8917 14 11.5208 14H2.47917C1.10833 14 0 12.8632 0 11.4573V2.54274C0 1.13675 1.10833 0 2.47917 0Z" fill="#470137"/>
<path d="M7.36135 3.67959L5.61135 6.64113L7.47802 9.78216C7.48968 9.80609 7.49552 9.83002 7.48968 9.85395C7.48385 9.87788 7.46052 9.85993 7.42552 9.86592H6.08968C5.99635 9.86592 5.93218 9.85993 5.89135 9.8001C5.76885 9.54882 5.64052 9.30352 5.51802 9.05224C5.39552 8.80694 5.26135 8.55566 5.12135 8.29839C4.98135 8.04113 4.84135 7.78386 4.70135 7.52062H4.68968C4.56718 7.77788 4.43302 8.03515 4.29885 8.29241C4.16468 8.54968 4.03052 8.80694 3.90218 9.05822C3.76802 9.30951 3.63385 9.56677 3.49968 9.81207C3.47635 9.8719 3.42968 9.87788 3.36552 9.87788H2.08218C2.05885 9.87788 2.04135 9.88985 2.04135 9.85993C2.03552 9.836 2.04135 9.81207 2.05302 9.79412L3.86718 6.74284L2.09968 3.6736C2.08218 3.64967 2.07635 3.62574 2.08802 3.61378C2.09968 3.59583 2.12302 3.58984 2.14635 3.58984H3.47052C3.49968 3.58984 3.52885 3.59583 3.55218 3.60181C3.57552 3.61378 3.59302 3.63172 3.61052 3.65566C3.72135 3.91292 3.84968 4.17019 3.98385 4.42745C4.12385 4.68472 4.25802 4.936 4.40385 5.18728C4.54385 5.43856 4.67218 5.68985 4.79468 5.94711H4.80635C4.92885 5.68386 5.05718 5.4266 5.18552 5.17531C5.31385 4.92403 5.44802 4.67275 5.58218 4.42147C5.71635 4.17019 5.84468 3.91292 5.97302 3.66762C5.97885 3.64369 5.99052 3.61976 6.00802 3.60779C6.03135 3.59583 6.05468 3.58984 6.08385 3.59583H7.31468C7.34385 3.58984 7.37302 3.60779 7.37885 3.63771C7.38468 3.64369 7.37302 3.66762 7.36135 3.67959Z" fill="#FF61F6"/>
<path d="M10.0557 9.99151C9.62399 9.9975 9.19233 9.90775 8.80149 9.72228C8.43399 9.54878 8.13066 9.2616 7.92066 8.90861C7.70483 8.54365 7.59983 8.08895 7.59983 7.5445C7.59399 7.10177 7.70483 6.66502 7.92066 6.28211C8.14233 5.89322 8.46316 5.57014 8.84816 5.35476C9.25649 5.12143 9.74649 5.00775 10.324 5.00775C10.3532 5.00775 10.394 5.00775 10.4465 5.01373C10.499 5.01972 10.5573 5.01972 10.6273 5.0257V3.1351C10.6273 3.09322 10.6448 3.06929 10.6857 3.06929H11.8698C11.899 3.06331 11.9223 3.08724 11.9282 3.11117C11.9282 3.11715 11.9282 3.12314 11.9282 3.12314V8.81886C11.9282 8.92655 11.934 9.04621 11.9398 9.17784C11.9515 9.30348 11.9573 9.42314 11.9632 9.52485C11.9632 9.56673 11.9457 9.60262 11.9048 9.62057C11.6015 9.7522 11.2807 9.84792 10.954 9.90775C10.6565 9.9616 10.359 9.99151 10.0557 9.99151ZM10.6273 8.79493V6.16245C10.5748 6.15049 10.5223 6.13852 10.4698 6.13254C10.4057 6.12655 10.3415 6.12057 10.2773 6.12057C10.0498 6.12057 9.82233 6.16843 9.61816 6.27613C9.41983 6.37784 9.25066 6.52741 9.12233 6.71886C8.99399 6.91032 8.92983 7.16758 8.92983 7.47869C8.924 7.68809 8.95899 7.8975 9.02899 8.09493C9.08733 8.25647 9.17483 8.40006 9.29149 8.51972C9.40233 8.62741 9.5365 8.71117 9.68816 8.75903C9.84566 8.81288 10.009 8.83681 10.1723 8.83681C10.2598 8.83681 10.3415 8.83083 10.4173 8.82485C10.4932 8.83083 10.5573 8.81886 10.6273 8.79493Z" fill="#FF61F6"/>
</svg>
