<svg width="48" height="14" viewBox="0 0 48 14" fill="none" xmlns="http://www.w3.org/2000/svg">
<path d="M3.43305 0L0 1.97024V5.82438L3.43305 3.84225V0ZM0 6.17445V10.0289L6.91979 14V10.1455L0 6.17445ZM8.28642 3.08026L1.75068 6.83856L5.07531 8.78705L8.28642 6.93474V3.08026ZM14.1067 6.16697L7.2199 10.1187V13.9732L14.1067 10.0211V6.16697Z" fill="#3B3B3B"/>
<path d="M25.1595 9.28415C24.9559 10.1233 24.5114 10.7891 23.8269 11.2816C23.1417 11.7744 22.3161 12.0208 21.3495 12.0208C20.1124 12.0208 19.1163 11.6418 18.3604 10.8836C17.6045 10.1253 17.2266 9.12543 17.2266 7.88354C17.2266 6.65184 17.6055 5.655 18.3638 4.89437C19.122 4.13373 20.1172 3.75342 21.3495 3.75342C22.5863 3.75342 23.5791 4.12762 24.3278 4.87635C25.0766 5.62543 25.4508 6.62296 25.4508 7.86893V8.10344H18.321C18.378 9.03741 18.6693 9.75861 19.1954 10.2681C19.7212 10.7775 20.4394 11.0325 21.3492 11.0325C22.0079 11.0325 22.5704 10.8795 23.0377 10.574C23.5043 10.2681 23.8323 9.83814 24.0223 9.28347H25.1595V9.28415ZM18.3495 7.25818H24.2993C24.2425 6.49041 23.9441 5.87456 23.4037 5.40995C22.8637 4.94569 22.1788 4.71356 21.3495 4.71356C20.506 4.71356 19.8116 4.94569 19.2665 5.40995C18.7213 5.87456 18.4158 6.49041 18.3495 7.25818ZM34.526 10.7701L34.5332 11.6442C34.3768 11.6918 34.2286 11.7272 34.089 11.7509C33.9493 11.7747 33.8154 11.7863 33.6872 11.7863C33.3463 11.7863 33.0972 11.6952 32.9409 11.513C32.7845 11.3305 32.6873 11.0141 32.6493 10.5641C32.2275 11.0426 31.7561 11.391 31.2347 11.6089C30.7134 11.8267 30.0832 11.9358 29.344 11.9358C28.4104 11.9358 27.6902 11.7346 27.1831 11.3319C26.676 10.9291 26.4225 10.3578 26.4225 9.61859C26.4225 9.27735 26.4898 8.96943 26.625 8.69447C26.76 8.41952 26.9629 8.18025 27.2327 7.97633C27.4462 7.81998 27.7351 7.68981 28.1001 7.58547C28.4651 7.48147 29.0881 7.36761 29.9697 7.24458C30.1641 7.22079 30.4292 7.18748 30.766 7.145C32.0219 6.99342 32.6496 6.62839 32.6496 6.05061C32.6496 5.62883 32.4685 5.30765 32.1058 5.08741C31.7432 4.86718 31.2113 4.75706 30.5098 4.75706C29.6285 4.75706 28.9589 4.90626 28.5015 5.20467C28.044 5.50308 27.7966 5.95103 27.7585 6.54818H26.7566C26.8133 5.64311 27.144 4.96574 27.748 4.51507C28.3523 4.06508 29.2302 3.83975 30.3816 3.83975C31.1161 3.83975 31.7099 3.9135 32.1626 4.05998C32.6153 4.20715 32.9715 4.44404 33.2321 4.77065C33.3885 4.96982 33.5013 5.19855 33.57 5.45686C33.6386 5.71516 33.673 6.11179 33.673 6.64743V10.0665C33.673 10.4078 33.7039 10.6222 33.7654 10.7099C33.8269 10.7976 33.936 10.8411 34.0924 10.8411C34.2398 10.8412 34.3863 10.8172 34.526 10.7701ZM32.6493 7.56372C32.4647 7.66806 32.186 7.76425 31.8142 7.85159C31.442 7.93928 30.8344 8.04702 29.9908 8.17515C28.877 8.35052 28.1732 8.53881 27.8795 8.74002C27.5859 8.94156 27.4387 9.24371 27.4387 9.64646C27.4387 10.0635 27.6188 10.3966 27.9787 10.6453C28.339 10.8941 28.8247 11.0189 29.4361 11.0189C30.3888 11.0189 31.1623 10.7959 31.7571 10.3503C32.3519 9.9051 32.6493 9.32664 32.6493 8.61596V7.56372ZM35.2296 9.3127H36.2533C36.3243 9.88606 36.5836 10.3187 37.0316 10.61C37.4792 10.9016 38.113 11.0471 38.9332 11.0471C39.8005 11.0471 40.4602 10.9251 40.9132 10.6814C41.366 10.4373 41.592 10.0829 41.592 9.61859C41.592 9.29163 41.4795 9.03707 41.2541 8.85455C41.0291 8.67204 40.6631 8.54289 40.156 8.46676L37.9098 8.13267C37.0333 8.00487 36.4015 7.77512 36.0154 7.44307C35.6293 7.11135 35.4362 6.63757 35.4362 6.02138C35.4362 5.32499 35.7418 4.77269 36.3532 4.36519C36.9646 3.95768 37.8034 3.75376 38.8696 3.75376C39.9453 3.75376 40.7902 3.97535 41.404 4.41855C42.0175 4.86174 42.3315 5.47385 42.3458 6.25589H41.3364C41.2606 5.72977 41.0043 5.33654 40.5686 5.07586C40.1329 4.81518 39.5191 4.68501 38.7275 4.68501C38.0213 4.68501 37.4717 4.79852 37.0781 5.02624C36.6846 5.25361 36.4881 5.56629 36.4881 5.96428C36.4881 6.29634 36.6135 6.5509 36.865 6.72832C37.1159 6.90641 37.5805 7.04474 38.2582 7.14432L40.2413 7.4502C41.0947 7.578 41.7082 7.80469 42.0824 8.12893C42.4566 8.45385 42.6442 8.91709 42.6442 9.51866C42.6442 10.334 42.3196 10.955 41.6701 11.3812C41.021 11.8077 40.0731 12.0208 38.8268 12.0208C37.7365 12.0208 36.88 11.7863 36.257 11.3173C35.6337 10.8482 35.2911 10.1797 35.2296 9.3127Z" fill="#3B3B3B"/>
<path d="M44.0527 4.72826V11.7439H45.0554V4.16747L44.0527 4.72826ZM44.0527 2.08032V3.48195L45.0554 3.00035V1.49982L44.0527 2.08032ZM46.996 1.91854V11.7439H47.9986V1.33838L46.996 1.91854Z" fill="#3B3B3B"/>
</svg>
