<svg width="33" height="14" viewBox="0 0 33 14" fill="none" xmlns="http://www.w3.org/2000/svg">
<path d="M9.58408 10.7434C9.01897 11.5156 8.28766 12.3213 7.32365 12.9257C6.39288 13.53 5.32915 14 4.06597 14C2.90251 14 1.9385 13.3957 1.40664 12.8921C0.608837 12.1199 0.176695 11.012 0.0437286 9.97122C-0.321929 6.7482 1.63933 2.51799 4.66432 0.63789C5.36239 0.201439 6.12695 0 6.85826 0C8.3209 0 9.41787 1.04077 9.55084 2.31655C9.6838 3.45803 9.25166 4.43165 7.98848 5.06954C7.35689 5.40528 7.02447 5.3717 6.92475 5.23741C6.85826 5.13669 6.89151 4.96882 7.02447 4.86811C8.18793 3.89448 8.22117 3.08873 8.08821 1.94724C7.98848 1.20863 7.5231 0.738609 6.99123 0.738609C4.69756 0.738609 1.37339 5.94245 1.83878 9.70264C2.00499 11.1799 2.90251 12.8921 4.76404 12.8921C5.36239 12.8921 6.02722 12.7242 6.59233 12.4221C7.88876 11.7506 8.45386 11.2806 9.21842 10.2062C9.31815 10.0719 9.41787 9.90408 9.5176 9.76978C9.58408 9.63549 9.71705 9.60192 9.81677 9.60192C9.9165 9.60192 10.0495 9.70264 10.0495 9.8705C10.0495 9.97122 10.0162 10.1727 9.88325 10.3405C9.81677 10.4077 9.6838 10.6091 9.58408 10.7434Z" fill="#24BECA"/>
<path d="M13.0746 12.6572C12.5094 12.6572 12.177 12.355 12.0441 11.885C11.6784 12.3886 11.1465 12.6572 10.6147 12.6572C9.71715 12.6572 8.88611 11.885 8.75314 10.8778C8.55369 9.0984 10.0496 6.81543 12.31 6.81543C13.274 6.81543 14.0718 7.21831 14.1715 7.99049C14.3045 8.96411 13.4735 9.16555 13.1743 9.16555C12.9083 9.16555 12.4762 9.0984 12.443 8.82982C12.4097 8.56123 13.0081 8.7291 12.9416 8.09121C12.9083 7.68833 12.5094 7.55404 12.1105 7.55404C10.7144 7.55404 9.94984 9.50128 10.1161 10.7099C10.1825 11.2471 10.4485 11.7843 10.9471 11.7843C11.346 11.7843 11.9443 11.2135 12.1438 10.3406C12.2768 9.76987 12.8419 9.36699 13.2408 9.36699C13.4402 9.36699 13.6064 9.46771 13.6397 9.66915C13.6397 9.73629 13.6397 9.83701 13.6064 9.9713C13.5732 10.2399 13.3737 11.0456 13.3737 11.2471C13.3737 11.4149 13.4735 11.6164 13.7394 11.6164C14.0386 11.6164 15.4015 10.8106 16.166 9.73629C16.2325 9.63557 16.3655 9.56843 16.4652 9.56843C16.5649 9.56843 16.6979 9.63557 16.6979 9.76987C16.7311 9.90416 16.6647 10.072 16.4984 10.307C15.6342 11.5828 13.7394 12.6572 13.0746 12.6572Z" fill="#24BECA"/>
<path d="M32.1221 11.9854C32.1885 12.5562 32.4545 12.9255 32.6872 13.1269C32.7869 13.1941 32.8201 13.2948 32.8201 13.3619C32.8534 13.5298 32.7204 13.6641 32.521 13.6641C32.4545 13.6641 32.388 13.6641 32.3215 13.6305C31.3243 13.2276 30.9254 12.5562 30.7924 11.9183C30.4267 12.3883 29.8949 12.6905 29.3963 12.6905C28.4987 12.6905 27.6677 11.9183 27.5347 10.9111C27.3353 9.1653 28.8976 6.88232 31.1248 6.88232C32.0556 6.88232 32.8866 7.25163 32.9863 8.02381C33.1193 8.99743 32.255 9.19887 31.9891 9.19887C31.6899 9.19887 31.2578 9.13172 31.2245 8.86314C31.1913 8.62813 31.8229 8.76242 31.7564 8.1581C31.7232 7.75523 31.291 7.62093 30.9254 7.62093C29.6289 7.62093 28.7647 9.33316 28.9309 10.7432C28.9974 11.314 29.2633 11.8511 29.7619 11.8511C30.1608 11.8511 30.7592 11.2804 30.9918 10.4075C31.1248 9.83676 31.6899 9.43388 32.0888 9.43388C32.2883 9.43388 32.4545 9.5346 32.4877 9.76961C32.4877 9.87033 32.4545 10.1389 32.255 11.0454C32.0888 11.3811 32.0888 11.7169 32.1221 11.9854Z" fill="#24BECA"/>
<path d="M20.1543 11.6497C20.4534 11.6497 21.4507 11.2804 22.2485 10.1725C22.3482 10.0718 22.4479 10.0046 22.5476 10.0046C22.6806 10.0046 22.7803 10.0718 22.8136 10.2061C22.8136 10.3068 22.7471 10.5082 22.5809 10.7432C21.6834 12.019 20.1543 12.6569 19.4894 12.6569C18.7913 12.6569 18.4257 12.2205 18.3592 11.5826C18.326 11.3811 18.326 11.1125 18.3924 10.844C18.6251 9.40031 19.157 8.52741 19.1238 8.25882C19.1238 8.19168 19.0573 8.1581 19.024 8.1581C18.5919 8.1581 17.0295 9.76961 16.7968 10.844L16.5974 11.6833C16.4644 12.2876 15.8993 12.6569 15.5004 12.6569C15.301 12.6569 15.168 12.5562 15.1348 12.3547C15.1348 12.2876 15.1348 12.1869 15.168 12.0526C15.168 12.0526 15.9326 8.09096 15.9658 7.88952C16.0655 7.41949 16.2317 6.94947 17.1625 6.94947C17.362 6.94947 17.4949 7.05019 17.5282 7.2852C17.5282 7.35235 17.5282 7.45307 17.4949 7.58736L17.229 8.79599C18.06 7.68808 19.3232 6.88232 20.121 6.88232C20.4534 6.88232 20.6861 7.05019 20.7526 7.41949C20.7858 7.62093 20.7194 7.95666 20.5864 8.32597C20.3205 9.09815 20.0213 10.2061 19.7886 11.1797C19.7221 11.314 19.7886 11.6497 20.1543 11.6497Z" fill="#24BECA"/>
<path d="M25.407 7.01664C25.407 7.55381 25.673 8.12455 26.0054 8.49385C26.1383 8.12455 26.2048 7.75524 26.2048 7.38594C26.2048 6.6809 25.9389 6.37875 25.7394 6.37875C25.5067 6.37875 25.407 6.71448 25.407 7.01664ZM26.6037 9.90393C26.504 9.90393 26.4043 9.90393 26.2713 9.87035C25.407 11.1461 24.5095 12.019 23.8114 12.3883C23.5122 12.5562 23.2463 12.6234 23.0469 12.6234C22.8807 12.6234 22.7144 12.5898 22.648 12.4555C22.3488 11.9183 22.2158 10.8775 22.2158 9.76963C22.2158 8.96388 22.2823 8.29241 22.4153 7.82239C22.5815 7.31879 23.2131 6.84877 23.612 6.84877C23.8114 6.84877 23.9776 6.94949 23.9776 7.1845C23.9776 7.25165 23.9444 7.35237 23.9111 7.45309C23.612 8.29241 23.479 9.09817 23.479 9.90393C23.479 10.3404 23.5787 11.079 23.6785 11.4483C23.7117 11.5154 23.7117 11.6162 23.7782 11.6162C23.9111 11.6162 24.8087 10.7097 25.4735 9.63534C24.9084 9.26604 24.576 8.59457 24.576 7.75524C24.576 6.34517 25.407 5.64014 26.2048 5.64014C26.8364 5.64014 27.4015 6.11016 27.4015 7.05021C27.4015 7.62095 27.1688 8.29242 26.8364 8.93031C26.8364 8.93031 26.9694 8.96388 27.0359 8.96388C27.5345 8.96388 27.9334 8.72887 28.1328 8.49385C28.299 8.32599 28.432 8.1917 28.565 8.1917C28.6647 8.1917 28.6979 8.25884 28.6979 8.35956C28.6979 8.42671 28.6647 8.52743 28.6315 8.62815C28.1661 9.40033 27.3018 9.90393 26.6037 9.90393Z" fill="#24BECA"/>
</svg>
