<svg width="50" height="14" viewBox="0 0 50 14" fill="none" xmlns="http://www.w3.org/2000/svg">
<path d="M34.9418 13.9956C34.8248 13.9769 34.7078 13.9624 34.5907 13.9417C34.4382 13.9126 34.2835 13.8794 34.133 13.842C34.11 13.8358 34.0787 13.8088 34.0745 13.786C34.0139 13.4145 33.9596 13.0429 33.9031 12.6714C33.901 12.6527 33.9031 12.6319 33.9031 12.5987C34.0369 12.6216 34.1644 12.6444 34.2919 12.6631C34.7266 12.7233 35.1613 12.742 35.5897 12.6216C35.968 12.5136 36.269 12.2998 36.4508 11.947C36.6326 11.5941 36.7998 11.2351 36.9691 10.8781C36.9817 10.8511 36.9775 10.8054 36.9629 10.7764C36.5637 9.94818 36.1624 9.12209 35.7611 8.29392C35.0756 6.88043 34.3901 5.46901 33.7046 4.05552C33.5499 3.73795 33.3953 3.41831 33.2427 3.10074C33.2302 3.07583 33.2197 3.04885 33.2051 3.01564C33.2364 3.01356 33.2594 3.00941 33.2824 3.00941C33.8362 3.00941 34.388 3.00941 34.9418 3.00941C34.9899 3.00941 35.0234 3.01356 35.0484 3.06753C35.8008 4.71141 36.5595 6.35115 37.3056 7.99711C37.4916 8.40808 37.6358 8.8398 37.7988 9.26115C37.8072 9.28191 37.8156 9.30059 37.8302 9.33795C37.8762 9.20511 37.9159 9.08888 37.9556 8.97264C38.2127 8.21089 38.5638 7.48651 38.9044 6.76004C39.4792 5.53958 40.0518 4.31705 40.6245 3.09451C40.6538 3.03224 40.6872 3.00941 40.7562 3.00941C41.6005 3.01149 42.4449 3.01149 43.2892 3.01149C43.3206 3.01149 43.3519 3.01149 43.3937 3.01149C43.3937 3.37472 43.3937 3.73172 43.3937 4.08873C43.4062 4.09911 43.4209 4.10741 43.4334 4.11779C43.446 4.09288 43.4522 4.06175 43.471 4.04307C44.0291 3.42868 44.7292 3.0696 45.5422 2.93261C45.8808 2.8745 46.2256 2.84129 46.5705 2.83714C47.327 2.83091 48.0627 2.95545 48.7482 3.29585C49.4567 3.6487 49.8455 4.2278 49.95 4.99785C49.9855 5.2573 49.998 5.52298 49.998 5.7845C50.0022 7.42631 50.0001 9.06812 50.0001 10.7079C50.0001 10.7411 50.0001 10.7743 50.0001 10.8137C49.4379 10.8137 48.882 10.8137 48.3114 10.8137C48.3114 10.7805 48.3114 10.7452 48.3114 10.7099C48.3114 9.13869 48.3156 7.56953 48.3072 5.99829C48.3052 5.74507 48.2759 5.48977 48.2341 5.24069C48.1484 4.73009 47.8265 4.40215 47.3626 4.19874C46.9279 4.0057 46.4702 3.95797 45.9999 3.98287C45.5694 4.0057 45.1576 4.10741 44.7626 4.27969C44.1106 4.56404 43.7469 5.06427 43.6361 5.74922C43.5923 6.0149 43.5672 6.28888 43.5672 6.55871C43.5609 7.93899 43.5651 9.32135 43.563 10.7016C43.563 10.7369 43.563 10.7743 43.563 10.8158C43.0008 10.8158 42.4449 10.8158 41.8785 10.8158C41.8785 8.5679 41.8785 6.31794 41.8785 4.06797C41.8701 4.0659 41.8638 4.06382 41.8555 4.06175C41.8367 4.09703 41.8179 4.13232 41.7991 4.16968C40.6726 6.52135 39.5502 8.87717 38.4154 11.2247C38.1855 11.7041 37.9305 12.1712 37.6588 12.6299C37.3934 13.0761 37.0318 13.4414 36.5637 13.6905C36.2376 13.8628 35.8844 13.9479 35.5187 13.9811C35.4852 13.9832 35.4539 13.9935 35.4205 13.9998C35.2616 13.9956 35.1007 13.9956 34.9418 13.9956Z" fill="#515252"/>
<path d="M17.8398 0.0415039C18.4 0.0415039 18.9538 0.0415039 19.5181 0.0415039C19.5181 1.31385 19.5181 2.5862 19.5181 3.87101C19.5453 3.85855 19.5578 3.8544 19.5662 3.8461C20.1994 3.24625 20.9581 2.9266 21.8254 2.85396C22.722 2.77924 23.5852 2.90792 24.4065 3.28153C25.1882 3.63854 25.742 4.21971 26.1078 4.98769C26.1329 5.04165 26.1559 5.09562 26.1809 5.14958C26.2039 5.20355 26.2269 5.25752 26.2624 5.30733C26.2624 5.17034 26.252 5.03335 26.2645 4.89844C26.3022 4.47086 26.5049 4.12008 26.8017 3.81912C27.1841 3.4289 27.6627 3.20681 28.1831 3.06152C28.7265 2.91207 29.2804 2.83943 29.8447 2.83528C30.5511 2.82905 31.2491 2.88717 31.9325 3.07812C32.3464 3.19436 32.7435 3.35003 33.0883 3.61156C33.4875 3.91667 33.709 4.33387 33.8428 4.80296C33.8553 4.84654 33.8658 4.89013 33.8762 4.93372C33.8825 4.95863 33.8867 4.98354 33.8929 5.01882C33.3433 5.07694 32.7999 5.13506 32.2481 5.19525C32.2377 5.15374 32.2272 5.11222 32.2147 5.07279C32.0559 4.53105 31.6671 4.22386 31.1467 4.05781C30.7371 3.92705 30.3128 3.91044 29.8865 3.91875C29.5291 3.92497 29.1759 3.95196 28.8289 4.04121C28.5426 4.11593 28.2835 4.24047 28.0828 4.46256C27.7923 4.78428 27.8216 5.16619 28.1518 5.4464C28.3775 5.63735 28.6471 5.73283 28.9313 5.7951C29.7799 5.98398 30.6326 6.16663 31.4811 6.35967C31.9848 6.47382 32.4906 6.59006 32.9734 6.78309C33.3684 6.94084 33.7153 7.16915 33.9682 7.51786C34.3715 8.07412 34.3778 8.867 33.9912 9.48554C33.6965 9.95878 33.2722 10.2805 32.7685 10.5109C32.2711 10.7392 31.7465 10.8783 31.2031 10.9343C30.852 10.9696 30.4988 10.9966 30.1456 10.9945C29.4371 10.9924 28.7349 10.9302 28.0536 10.7143C27.2698 10.4673 26.6449 10.0169 26.2562 9.28213C26.1872 9.14929 26.1308 9.01022 26.0681 8.86908C26.0576 8.88361 26.043 8.89606 26.0346 8.91059C25.5393 9.80933 24.7681 10.376 23.8193 10.7288C23.3762 10.8928 22.9143 10.9675 22.442 10.9904C21.861 11.0173 21.2925 10.9613 20.7449 10.762C20.2579 10.5856 19.8379 10.3054 19.4867 9.92557C19.4658 9.90273 19.4533 9.87368 19.4366 9.84877C19.4261 9.855 19.4178 9.86122 19.4073 9.86745C19.4073 10.1788 19.4073 10.4922 19.4073 10.8098C18.8807 10.8098 18.3644 10.8098 17.844 10.8098C17.8398 7.22104 17.8398 3.63231 17.8398 0.0415039ZM19.3822 6.88895C19.3739 6.88895 19.3676 6.89102 19.3593 6.89102C19.3948 7.22727 19.4199 7.5656 19.47 7.89977C19.5766 8.5951 19.9486 9.12438 20.5401 9.50214C21.1922 9.91726 21.9132 10.0107 22.651 9.84462C23.6416 9.62253 24.3334 9.0372 24.6239 8.04921C24.8329 7.34351 24.8225 6.62534 24.6741 5.90926C24.5152 5.14543 24.0889 4.57464 23.3908 4.21348C22.7994 3.90629 22.1661 3.83572 21.5224 3.97686C20.63 4.17197 19.9695 4.67634 19.6101 5.52527C19.4303 5.96115 19.3802 6.42193 19.3822 6.88895ZM26.415 5.80963C26.5801 6.70629 26.5321 7.5822 26.2415 8.45811C26.716 8.39999 27.1779 8.34395 27.6397 8.28791C27.6899 8.54528 27.7735 8.77568 27.9114 8.98531C28.1748 9.38176 28.5551 9.6163 29.0045 9.75537C29.4726 9.90066 29.9554 9.92142 30.4424 9.91104C30.8228 9.90273 31.199 9.85915 31.5605 9.73669C31.8803 9.62875 32.1583 9.45648 32.3631 9.1825C32.6097 8.85455 32.5972 8.44358 32.3359 8.17167C32.2022 8.03261 32.035 7.93713 31.851 7.88109C31.6002 7.80637 31.3494 7.73164 31.0945 7.6756C30.3525 7.51163 29.6085 7.36219 28.8686 7.19614C28.3963 7.09028 27.9261 6.97197 27.4851 6.77271C27.0796 6.59006 26.7369 6.33061 26.5007 5.94662C26.4673 5.90303 26.4422 5.85737 26.415 5.80963Z" fill="#515252"/>
<path d="M14.7728 10.8117C14.2127 10.8117 13.6568 10.8117 13.0967 10.8117C13.0967 7.223 13.0967 3.63634 13.0967 0.043457C13.6547 0.043457 14.2106 0.043457 14.7728 0.043457C14.7728 3.63219 14.7728 7.21677 14.7728 10.8117Z" fill="#515252"/>
<path d="M17.1808 3.01562C17.1808 5.61637 17.1808 8.21296 17.1808 10.8137C16.6227 10.8137 16.071 10.8137 15.5088 10.8137C15.5088 8.21711 15.5088 5.61844 15.5088 3.01562C16.0626 3.01562 16.6165 3.01562 17.1808 3.01562Z" fill="#515252"/>
<path d="M17.1801 0.043457C17.1822 0.0745912 17.1842 0.101574 17.1842 0.130633C17.1842 0.576889 17.1842 1.02522 17.1863 1.47148C17.1863 1.5296 17.1759 1.55865 17.1069 1.55865C16.597 1.55658 16.087 1.55658 15.575 1.55658C15.552 1.55658 15.5311 1.55243 15.5039 1.55035C15.5039 1.04805 15.5039 0.547831 15.5039 0.0455326C16.064 0.043457 16.62 0.043457 17.1801 0.043457Z" fill="#515252"/>
<g filter="url(#filter0_d)">
<path d="M1 10.8014H3.14013C3.14013 10.8014 3.27389 6.92835 5.91353 4.87142C8.42986 2.90996 11.0549 3.34584 11.801 3.33546V1.50477C11.801 1.50477 7.68583 0.917376 4.46936 3.49321C1.11495 6.12301 1 10.8014 1 10.8014Z" fill="url(#paint0_linear)"/>
</g>
<g filter="url(#filter1_d)">
<path d="M1.17792 0L3.14459 0.0103781C3.14459 0.0103781 2.75376 3.86686 5.80095 5.86568C8.41551 7.58013 11.0551 7.38918 11.8013 7.39956V9.23024C11.8013 9.23024 7.38933 9.4897 4.41738 7.24388C0.674238 4.24255 1.17792 0 1.17792 0Z" fill="url(#paint1_linear)"/>
</g>
<g filter="url(#filter2_d)">
<path d="M4.71777 10.8015H6.71997C6.71997 10.8015 6.55068 8.28376 8.09308 7.04254C9.70654 5.74321 11.7903 6.18116 11.7903 6.18116V4.49369C11.7903 4.49369 8.37523 3.85855 6.16404 6.54855C4.816 8.30036 4.71777 10.8015 4.71777 10.8015Z" fill="url(#paint2_linear)"/>
</g>
<g filter="url(#filter3_d)">
<path d="M4.819 0.010376H6.77939C6.77939 0.010376 6.5913 2.20845 8.21312 3.53269C9.55488 4.61201 11.7912 4.55596 11.7912 4.55596V6.18117C11.7912 6.18117 8.24029 6.51327 6.18793 4.13669C4.6936 2.25619 4.819 0.010376 4.819 0.010376Z" fill="url(#paint3_linear)"/>
</g>
<defs>
<filter id="filter0_d" x="0.8" y="1.44714" width="11.201" height="9.75429" filterUnits="userSpaceOnUse" color-interpolation-filters="sRGB">
<feFlood flood-opacity="0" result="BackgroundImageFix"/>
<feColorMatrix in="SourceAlpha" type="matrix" values="0 0 0 0 0 0 0 0 0 0 0 0 0 0 0 0 0 0 127 0"/>
<feOffset dy="0.2"/>
<feGaussianBlur stdDeviation="0.1"/>
<feColorMatrix type="matrix" values="0 0 0 0 0 0 0 0 0 0 0 0 0 0 0 0 0 0 0.1 0"/>
<feBlend mode="normal" in2="BackgroundImageFix" result="effect1_dropShadow"/>
<feBlend mode="normal" in="SourceGraphic" in2="effect1_dropShadow" result="shape"/>
</filter>
<filter id="filter1_d" x="0.955273" y="0" width="11.046" height="9.63938" filterUnits="userSpaceOnUse" color-interpolation-filters="sRGB">
<feFlood flood-opacity="0" result="BackgroundImageFix"/>
<feColorMatrix in="SourceAlpha" type="matrix" values="0 0 0 0 0 0 0 0 0 0 0 0 0 0 0 0 0 0 127 0"/>
<feOffset dy="0.2"/>
<feGaussianBlur stdDeviation="0.1"/>
<feColorMatrix type="matrix" values="0 0 0 0 0 0 0 0 0 0 0 0 0 0 0 0 0 0 0.1 0"/>
<feBlend mode="normal" in2="BackgroundImageFix" result="effect1_dropShadow"/>
<feBlend mode="normal" in="SourceGraphic" in2="effect1_dropShadow" result="shape"/>
</filter>
<filter id="filter2_d" x="4.51777" y="4.42834" width="7.47248" height="6.77313" filterUnits="userSpaceOnUse" color-interpolation-filters="sRGB">
<feFlood flood-opacity="0" result="BackgroundImageFix"/>
<feColorMatrix in="SourceAlpha" type="matrix" values="0 0 0 0 0 0 0 0 0 0 0 0 0 0 0 0 0 0 127 0"/>
<feOffset dy="0.2"/>
<feGaussianBlur stdDeviation="0.1"/>
<feColorMatrix type="matrix" values="0 0 0 0 0 0 0 0 0 0 0 0 0 0 0 0 0 0 0.1 0"/>
<feBlend mode="normal" in2="BackgroundImageFix" result="effect1_dropShadow"/>
<feBlend mode="normal" in="SourceGraphic" in2="effect1_dropShadow" result="shape"/>
</filter>
<filter id="filter3_d" x="4.61641" y="0.010376" width="7.37475" height="6.58664" filterUnits="userSpaceOnUse" color-interpolation-filters="sRGB">
<feFlood flood-opacity="0" result="BackgroundImageFix"/>
<feColorMatrix in="SourceAlpha" type="matrix" values="0 0 0 0 0 0 0 0 0 0 0 0 0 0 0 0 0 0 127 0"/>
<feOffset dy="0.2"/>
<feGaussianBlur stdDeviation="0.1"/>
<feColorMatrix type="matrix" values="0 0 0 0 0 0 0 0 0 0 0 0 0 0 0 0 0 0 0.1 0"/>
<feBlend mode="normal" in2="BackgroundImageFix" result="effect1_dropShadow"/>
<feBlend mode="normal" in="SourceGraphic" in2="effect1_dropShadow" result="shape"/>
</filter>
<linearGradient id="paint0_linear" x1="1" y1="6.12396" x2="11.8012" y2="6.12396" gradientUnits="userSpaceOnUse">
<stop stop-color="#96C93C"/>
<stop offset="0.9995" stop-color="#ADD037" stop-opacity="0.7"/>
</linearGradient>
<linearGradient id="paint1_linear" x1="1.15554" y1="4.61999" x2="11.8014" y2="4.61999" gradientUnits="userSpaceOnUse">
<stop stop-color="#CFE186"/>
<stop offset="0.9995" stop-color="#80B73B"/>
</linearGradient>
<linearGradient id="paint2_linear" x1="4.71673" y1="7.61438" x2="11.79" y2="7.61438" gradientUnits="userSpaceOnUse">
<stop stop-color="#A3CD39" stop-opacity="0.2"/>
<stop offset="0.9995" stop-color="#99C739"/>
</linearGradient>
<linearGradient id="paint3_linear" x1="4.81713" y1="3.10313" x2="11.7909" y2="3.10313" gradientUnits="userSpaceOnUse">
<stop stop-color="#A3CD39" stop-opacity="0.2"/>
<stop offset="0.9995" stop-color="#99C739"/>
</linearGradient>
</defs>
</svg>
