<svg width="62" height="14" viewBox="0 0 62 14" fill="none" xmlns="http://www.w3.org/2000/svg">
<path fill-rule="evenodd" clip-rule="evenodd" d="M54.828 10.5931C54.757 10.8204 54.6662 11.032 54.5557 11.228C54.4418 11.43 54.3129 11.6034 54.1691 11.7481C54.0252 11.8928 53.8679 12.0058 53.6971 12.0872C53.5262 12.1686 53.3509 12.2093 53.1711 12.2093C52.9134 12.2093 52.7246 12.1596 52.6047 12.0601C52.4848 11.9606 52.4249 11.7812 52.4249 11.522C52.4249 11.4255 52.4294 11.3275 52.4384 11.228C52.4474 11.1286 52.4668 11.0276 52.4968 10.9251L53.6746 5.37209H54.7805L54.9243 4.63049H53.8184L54.4478 1.70026L51.7236 2.07106L51.1662 4.63049H50.5638L50.411 5.37209H51.0223L49.9165 10.5724C49.7427 10.7291 49.5464 10.8844 49.3276 11.0381C49.1088 11.1919 48.8646 11.3471 48.5948 11.5039C48.6248 11.4014 48.6443 11.2929 48.6533 11.1783C48.6623 11.0637 48.6668 10.9371 48.6668 10.7984C48.6668 10.5935 48.6623 10.396 48.6533 10.2061C48.6443 10.0161 48.6293 9.80513 48.6083 9.573C48.5873 9.34087 48.5649 9.07408 48.5409 8.77261C48.5169 8.47114 48.4899 8.10487 48.46 7.67377C48.43 7.24268 48.3985 6.73321 48.3656 6.14535C48.3326 5.55749 48.2981 4.86262 48.2622 4.06072L45.538 4.42248C45.2503 5.33894 44.9296 6.25086 44.576 7.15827C44.2223 8.06568 43.7878 8.98363 43.2723 9.91214C43.1465 9.97244 43.0251 10.0553 42.9082 10.1609C42.7913 10.2664 42.6879 10.3915 42.598 10.5362C42.5081 10.6809 42.4347 10.8452 42.3778 11.0291C42.3208 11.213 42.2923 11.4134 42.2923 11.6305C42.2923 11.6922 42.2948 11.7538 42.2998 11.8153C42.1767 11.966 42.0409 12.0868 41.8923 12.1776C41.7394 12.2711 41.5731 12.3178 41.3933 12.3178C40.8898 12.3178 40.6381 12.0525 40.6381 11.522C40.6381 11.4255 40.644 11.3275 40.656 11.228C40.668 11.1286 40.689 11.0276 40.719 10.9251L42.0406 4.63049H39.3883L39.1905 5.61628V5.48062C39.1905 5.21533 39.0722 4.99225 38.8354 4.81137C38.5987 4.63049 38.2196 4.54005 37.6981 4.54005C37.1646 4.54005 36.6761 4.64104 36.2326 4.84302C35.7891 5.04501 35.392 5.31632 35.0413 5.65698C34.6907 5.99763 34.385 6.38953 34.1243 6.83269C33.8635 7.27584 33.6463 7.73858 33.4724 8.22093C33.2986 8.70328 33.1698 9.18561 33.0858 9.66796C33.0144 10.0784 32.9734 10.467 32.9628 10.8337C32.8099 10.9973 32.6576 11.1544 32.5059 11.3049C32.2752 11.534 32.0309 11.733 31.7732 11.9018C31.5155 12.0706 31.2383 12.2033 30.9416 12.2997C30.6449 12.3962 30.3137 12.4444 29.9481 12.4444C29.7263 12.4444 29.533 12.4218 29.3682 12.3766C29.2034 12.3314 29.0655 12.2515 28.9546 12.137C28.8437 12.0224 28.7598 11.8641 28.7029 11.6621C28.6459 11.4602 28.6175 11.2024 28.6175 10.8889C28.6175 10.5452 28.6489 10.1729 28.7119 9.77196C28.7748 9.37101 28.8617 8.96856 28.9726 8.5646C29.0835 8.16063 29.2138 7.77175 29.3637 7.39793C29.5135 7.02412 29.6769 6.69251 29.8537 6.4031C30.0305 6.11369 30.2148 5.88157 30.4066 5.70672C30.5984 5.53187 30.7902 5.44444 30.982 5.44444C31.1558 5.44444 31.2847 5.51378 31.3686 5.65245C31.4525 5.79113 31.4945 5.97502 31.4945 6.20413C31.4945 6.53575 31.4196 6.90051 31.2697 7.29845C31.4915 7.44315 31.7073 7.5155 31.9171 7.5155C32.0489 7.5155 32.1748 7.48837 32.2947 7.43411C32.4145 7.37984 32.5194 7.29544 32.6093 7.18088C32.6992 7.06632 32.7697 6.92614 32.8206 6.76034C32.8716 6.59453 32.897 6.39707 32.897 6.16796C32.897 5.96296 32.8671 5.75797 32.8071 5.55297C32.7472 5.34797 32.6393 5.16559 32.4835 5.00581C32.3276 4.84604 32.1178 4.71641 31.8541 4.61693C31.5904 4.51744 31.2547 4.4677 30.8472 4.4677C30.2238 4.4677 29.6694 4.58075 29.1839 4.80685C28.6984 5.03295 28.2713 5.32989 27.9027 5.69767C27.5341 6.06546 27.2224 6.48449 26.9677 6.95478C26.7129 7.42507 26.5061 7.90439 26.3473 8.39277C26.1885 8.88114 26.0731 9.35896 26.0012 9.82623C25.9292 10.2935 25.8933 10.705 25.8933 11.0607C25.8933 11.0851 25.8934 11.1093 25.8937 11.1333C25.8771 11.1684 25.8605 11.203 25.8438 11.2371C25.7449 11.4391 25.6355 11.6124 25.5157 11.7571C25.3958 11.9018 25.2609 12.0133 25.1111 12.0917C24.9612 12.1701 24.7874 12.2093 24.5896 12.2093C24.3079 12.2093 24.1146 12.137 24.0097 11.9922C23.9048 11.8475 23.8524 11.6606 23.8524 11.4315C23.8524 11.2567 23.8749 11.0532 23.9198 10.8211C23.9648 10.5889 24.0202 10.3372 24.0861 10.0659C24.1521 9.79457 24.2225 9.5112 24.2974 9.21576C24.3723 8.92033 24.4428 8.62339 24.5087 8.32493C24.5746 8.02648 24.6301 7.73407 24.675 7.44767C24.72 7.16128 24.7425 6.89449 24.7425 6.64729C24.7425 6.2795 24.6915 5.96296 24.5896 5.69767C24.4877 5.43238 24.3454 5.21533 24.1626 5.04651C23.9797 4.87769 23.7625 4.75409 23.5107 4.67571C23.259 4.59733 22.9863 4.55814 22.6926 4.55814C22.5487 4.55814 22.3944 4.5702 22.2296 4.59432C22.0647 4.61843 21.8894 4.66667 21.7036 4.73902C21.5178 4.81137 21.3275 4.91537 21.1327 5.05103C20.9379 5.18669 20.7416 5.36606 20.5438 5.58915L20.7416 4.63049H18.0893L16.8369 10.5753C16.6041 10.8335 16.3727 11.0767 16.1428 11.3049C15.9121 11.534 15.6678 11.733 15.4101 11.9018C15.1524 12.0706 14.8751 12.2033 14.5785 12.2997C14.2818 12.3962 13.9506 12.4444 13.585 12.4444C13.3632 12.4444 13.1699 12.4218 13.0051 12.3766C12.8402 12.3314 12.7024 12.2515 12.5915 12.137C12.4806 12.0224 12.3967 11.8641 12.3398 11.6621C12.2828 11.4602 12.2544 11.2024 12.2544 10.8889C12.2544 10.7804 12.2588 10.6643 12.2678 10.5407C12.2768 10.4171 12.2873 10.286 12.2993 10.1473C12.8507 10.1111 13.3812 9.98751 13.8907 9.77649C14.4001 9.56546 14.8512 9.28812 15.2438 8.94444C15.6364 8.60077 15.9495 8.19832 16.1833 7.73708C16.4171 7.27584 16.5339 6.77692 16.5339 6.24031C16.5339 6.0112 16.5055 5.78962 16.4485 5.57558C16.3916 5.36154 16.2867 5.17313 16.1338 5.01034C15.981 4.84754 15.7742 4.71641 15.5135 4.61693C15.2528 4.51744 14.9156 4.4677 14.502 4.4677C13.8727 4.4677 13.3123 4.58075 12.8208 4.80685C12.3293 5.03295 11.9007 5.33139 11.5351 5.7022C11.1695 6.073 10.8578 6.49354 10.6001 6.96382C10.3423 7.43411 10.1355 7.91343 9.9797 8.40181C9.82386 8.89018 9.70998 9.36649 9.63805 9.83075C9.56612 10.295 9.53016 10.705 9.53016 11.0607C9.53016 11.5853 9.59759 12.0329 9.73245 12.4037C9.86732 12.7745 10.0606 13.0775 10.3124 13.3127C10.5641 13.5478 10.8668 13.7211 11.2204 13.8327C11.5741 13.9442 11.9696 14 12.4072 14C13.0126 14 13.5685 13.902 14.075 13.7061C14.5815 13.5101 15.043 13.2524 15.4595 12.9328C15.8691 12.6187 16.238 12.2608 16.5665 11.8593L16.1383 13.8915H18.7906L20.0403 7.94961C20.1122 7.71447 20.1962 7.4929 20.2921 7.28488C20.388 7.07687 20.4958 6.896 20.6157 6.74225C20.7356 6.5885 20.8675 6.46641 21.0113 6.37597C21.1552 6.28553 21.311 6.24031 21.4788 6.24031C21.9224 6.24031 22.1441 6.55684 22.1441 7.18992C22.1441 7.48536 22.1007 7.83807 22.0138 8.24806C21.9269 8.65806 21.8325 9.08312 21.7306 9.52326C21.6287 9.9634 21.5343 10.393 21.4474 10.812C21.3605 11.2311 21.317 11.5973 21.317 11.9109C21.317 12.1761 21.3545 12.4339 21.4294 12.6841C21.5043 12.9343 21.6257 13.1574 21.7935 13.3534C21.9613 13.5493 22.1831 13.7061 22.4588 13.8236C22.7345 13.9412 23.0762 14 23.4838 14C23.7295 14 23.9977 13.9638 24.2884 13.8915C24.5791 13.8191 24.8758 13.6639 25.1785 13.4257C25.4812 13.1876 25.7809 12.8424 26.0776 12.3902C26.0804 12.3859 26.0832 12.3815 26.0861 12.3772C26.0892 12.3861 26.0924 12.3949 26.0956 12.4037C26.2304 12.7745 26.4237 13.0775 26.6755 13.3127C26.9272 13.5478 27.2299 13.7211 27.5835 13.8327C27.9372 13.9442 28.3328 14 28.7703 14C29.3757 14 29.9316 13.902 30.4381 13.7061C30.9446 13.5101 31.4061 13.2524 31.8227 12.9328C32.2392 12.6133 32.6138 12.2485 32.9465 11.8385C32.9673 11.8129 32.9879 11.7873 33.0084 11.7616C33.0428 12.0026 33.0956 12.2212 33.1668 12.4173C33.3046 12.7972 33.4874 13.1046 33.7152 13.3398C33.943 13.5749 34.2037 13.7438 34.4974 13.8463C34.7911 13.9488 35.0968 14 35.4144 14C35.7441 14 36.0453 13.9503 36.318 13.8508C36.5907 13.7513 36.838 13.6217 37.0597 13.4619C37.2815 13.3021 37.4823 13.1212 37.6621 12.9193C37.8419 12.7173 38.0068 12.5108 38.1566 12.2997C38.2225 12.8605 38.4099 13.284 38.7185 13.5704C39.0272 13.8568 39.4423 14 39.9637 14C40.1256 14 40.3054 13.9849 40.5032 13.9548C40.701 13.9246 40.9078 13.8674 41.1236 13.7829C41.3393 13.6985 41.5611 13.578 41.7889 13.4212C42.0166 13.2644 42.2399 13.0594 42.4587 12.8062C42.4887 12.7715 42.5185 12.7357 42.5482 12.6988C42.6477 12.8922 42.7782 13.0712 42.9397 13.2358C43.1614 13.4619 43.4417 13.6458 43.7803 13.7875C44.119 13.9292 44.519 14 44.9806 14C45.2143 14 45.4616 13.9804 45.7223 13.9412C45.983 13.902 46.2408 13.8387 46.4955 13.7513C46.7502 13.6639 46.996 13.5493 47.2327 13.4076C47.4695 13.2659 47.6838 13.0926 47.8756 12.8876C48.3071 12.6344 48.7642 12.3254 49.2467 11.9606C49.4253 11.8256 49.6036 11.6771 49.7818 11.5153C49.7757 11.6092 49.7726 11.6988 49.7726 11.7842C49.7726 12.1761 49.8236 12.5108 49.9255 12.7881C50.0274 13.0655 50.1667 13.2946 50.3435 13.4755C50.5204 13.6563 50.7286 13.789 50.9684 13.8734C51.2081 13.9578 51.4659 14 51.7416 14C51.9034 14 52.0877 13.9849 52.2945 13.9548C52.5013 13.9246 52.7186 13.8674 52.9463 13.7829C53.1741 13.6985 53.4094 13.578 53.6521 13.4212C53.8946 13.2646 54.1311 13.0599 54.3616 12.8071L54.1331 13.8915H56.7854L58.2599 6.8553C58.4876 6.64427 58.6974 6.47395 58.8892 6.34432C59.081 6.21468 59.3178 6.14987 59.5995 6.14987C59.6894 6.14987 59.7538 6.18002 59.7928 6.24031C59.8317 6.3006 59.8632 6.37597 59.8872 6.46641C59.9112 6.55685 59.9336 6.65482 59.9546 6.76034C59.9756 6.86585 60.0101 6.96382 60.058 7.05426C60.106 7.1447 60.1764 7.22007 60.2693 7.28036C60.3622 7.34065 60.4956 7.3708 60.6694 7.3708C60.8911 7.3708 61.0859 7.3301 61.2538 7.24871C61.4216 7.16731 61.561 7.06331 61.6718 6.93669C61.7827 6.81008 61.8651 6.66688 61.9191 6.50711C61.973 6.34733 62 6.18605 62 6.02326C62 5.84238 61.973 5.66753 61.9191 5.49871C61.8651 5.32989 61.7842 5.18217 61.6763 5.05556C61.5684 4.92894 61.4351 4.82644 61.2762 4.74806C61.1174 4.66968 60.9331 4.63049 60.7233 4.63049C60.5015 4.63049 60.2918 4.66365 60.094 4.72997C59.8962 4.7963 59.7059 4.88221 59.5231 4.98773C59.3402 5.09324 59.1649 5.21533 58.9971 5.35401C58.8293 5.49268 58.6644 5.63437 58.5026 5.77907L58.7364 4.63049H56.0841L54.828 10.5931ZM0 13.8915L6.43736 1.00388C6.24555 1.00388 6.0028 0.996339 5.70911 0.981266C5.41541 0.966193 5.10673 0.958656 4.78306 0.958656C4.56728 0.958656 4.3575 0.964686 4.15371 0.976744C3.94992 0.988803 3.77011 1.00991 3.61427 1.04005C3.45843 1.0702 3.33256 1.1124 3.23666 1.16667C3.14076 1.22093 3.09281 1.29027 3.09281 1.37468C3.15874 1.37468 3.22617 1.41688 3.2951 1.50129C3.36403 1.5857 3.39849 1.73945 3.39849 1.96253C3.39849 2.16753 3.36253 2.33785 3.2906 2.47351C3.21868 2.60917 3.12877 2.7177 3.02088 2.7991C2.91299 2.88049 2.79611 2.93777 2.67024 2.97093C2.54437 3.00409 2.42749 3.02067 2.31961 3.02067C2.13979 3.02067 1.98995 2.98751 1.87007 2.92119C1.75019 2.85487 1.65279 2.77046 1.57787 2.66796C1.50295 2.56546 1.4505 2.44789 1.42053 2.31525C1.39056 2.1826 1.37558 2.05297 1.37558 1.92636C1.37558 1.69121 1.42503 1.45909 1.52393 1.22997C1.62283 1.00086 1.76668 0.794359 1.95548 0.610465C2.14429 0.426571 2.37954 0.278855 2.66125 0.167313C2.94296 0.0557703 3.26962 0 3.64124 0H9.95273L3.60528 12.6886C3.85702 12.6886 4.13873 12.6947 4.45041 12.7067C4.76209 12.7188 5.07076 12.7248 5.37645 12.7248C5.59223 12.7248 5.80201 12.7203 6.0058 12.7112C6.20959 12.7022 6.3969 12.6826 6.56772 12.6525C6.73854 12.6223 6.88689 12.5816 7.01276 12.5304C7.13863 12.4791 7.23153 12.4083 7.29147 12.3178C7.22554 12.3178 7.15362 12.2786 7.0757 12.2003C6.99778 12.1219 6.95882 11.9681 6.95882 11.739C6.95882 11.5401 6.99328 11.3727 7.06221 11.2371C7.13114 11.1014 7.21805 10.9914 7.32294 10.907C7.42783 10.8226 7.54621 10.7623 7.67807 10.7261C7.80994 10.6899 7.9388 10.6718 8.06468 10.6718C8.2325 10.6718 8.37635 10.7035 8.49623 10.7668C8.61611 10.8301 8.7135 10.9115 8.78843 11.011C8.86335 11.1105 8.91729 11.225 8.95026 11.3547C8.98323 11.4843 8.99971 11.6124 8.99971 11.739C8.99971 11.9742 8.94577 12.2199 8.83788 12.4761C8.72999 12.7323 8.57415 12.9645 8.37036 13.1725C8.16657 13.3805 7.91933 13.5523 7.62863 13.688C7.33792 13.8236 7.00977 13.8915 6.64414 13.8915H0ZM12.4432 9.26098C12.7908 9.23686 13.1264 9.13738 13.4501 8.96253C13.7738 8.78768 14.0585 8.56008 14.3042 8.27972C14.55 7.99935 14.7463 7.6798 14.8931 7.32106C15.04 6.96232 15.1134 6.59001 15.1134 6.20413C15.1134 5.97502 15.0804 5.79113 15.0145 5.65245C14.9486 5.51378 14.8287 5.44444 14.6549 5.44444C14.4211 5.44444 14.1919 5.55749 13.9671 5.78359C13.7423 6.00969 13.531 6.30362 13.3332 6.66537C13.1354 7.02713 12.9601 7.43561 12.8073 7.89083C12.6544 8.34604 12.5331 8.80275 12.4432 9.26098ZM39.0197 6.39406C39.0197 6.33979 39.0077 6.27196 38.9838 6.19057C38.9598 6.10917 38.9193 6.03079 38.8624 5.95543C38.8054 5.88006 38.729 5.81675 38.6331 5.7655C38.5372 5.71425 38.4143 5.68863 38.2645 5.68863C38.0068 5.68863 37.7625 5.77304 37.5318 5.94186C37.301 6.11068 37.0897 6.33527 36.8979 6.61563C36.7061 6.896 36.5353 7.21404 36.3854 7.56977C36.2356 7.9255 36.1082 8.29177 36.0033 8.6686C35.8984 9.04544 35.819 9.41623 35.7651 9.78101C35.7111 10.1458 35.6842 10.4729 35.6842 10.7623C35.6842 11.118 35.7171 11.3923 35.7831 11.5853C35.849 11.7782 35.9284 11.9214 36.0213 12.0149C36.1142 12.1083 36.2146 12.1641 36.3225 12.1822C36.4304 12.2003 36.5263 12.2093 36.6102 12.2093C36.7481 12.2093 36.8934 12.1746 37.0463 12.1053C37.1991 12.036 37.3459 11.9335 37.4868 11.7978C37.6277 11.6621 37.7565 11.4918 37.8734 11.2868C37.9903 11.0818 38.0787 10.8437 38.1386 10.5724L39.0197 6.39406ZM43.2723 11.2416C43.2723 11.6757 43.3577 11.9998 43.5286 12.2138C43.6994 12.4279 43.9886 12.5349 44.3962 12.5349C44.6 12.5349 44.7978 12.5062 44.9896 12.449C45.1814 12.3917 45.3522 12.2952 45.502 12.1596C45.6519 12.0239 45.7718 11.8475 45.8617 11.6305C45.9516 11.4134 45.9965 11.1421 45.9965 10.8165C45.9965 10.6598 45.992 10.5075 45.983 10.3598C45.974 10.2121 45.9636 10.0553 45.9516 9.88953C45.9396 9.72373 45.9231 9.53833 45.9021 9.33333C45.8811 9.12834 45.8572 8.89018 45.8302 8.61886C45.8032 8.34754 45.7747 8.03402 45.7448 7.67829C45.7148 7.32256 45.6818 6.90655 45.6459 6.43023C45.4601 7.03316 45.2413 7.618 44.9896 8.18475C44.7378 8.75151 44.4591 9.33333 44.1534 9.93023C44.2733 9.99656 44.3737 10.081 44.4546 10.1835C44.5355 10.286 44.576 10.4156 44.576 10.5724C44.576 10.6869 44.558 10.7984 44.522 10.907C44.4861 11.0155 44.4321 11.1135 44.3602 11.2009C44.2883 11.2883 44.2029 11.3577 44.104 11.4089C44.0051 11.4602 43.8927 11.4858 43.7668 11.4858C43.6649 11.4858 43.569 11.4707 43.4791 11.4406C43.3892 11.4104 43.3203 11.3441 43.2723 11.2416Z" fill="#31475B"/>
</svg>
