<svg width="88" height="14" viewBox="0 0 88 14" fill="none" xmlns="http://www.w3.org/2000/svg">
<path d="M39.2388 14.0003C38.7218 14.0003 38.2239 14.0003 37.7188 14.0003C37.7188 10.7814 37.7188 7.56733 37.7188 4.34609C38.2215 4.34609 38.7242 4.34609 39.2412 4.34609C39.2412 4.63438 39.2412 4.91552 39.2412 5.22287C39.2817 5.19428 39.3008 5.18237 39.3151 5.16569C39.9345 4.44616 40.7327 4.14119 41.6667 4.14357C43.6942 4.15072 45.0118 5.64459 45.2906 7.30524C45.6075 9.18509 44.3232 11.1841 42.4124 11.6129C41.5595 11.8035 40.7327 11.7487 39.9631 11.2913C39.7106 11.1412 39.4962 10.9482 39.3246 10.7099C39.3103 10.6885 39.2913 10.6694 39.2722 10.648C39.2603 10.6504 39.2484 10.6504 39.2388 10.6528C39.2388 11.2079 39.2388 11.763 39.2388 12.3182C39.2388 12.8757 39.2388 13.4308 39.2388 14.0003ZM41.4356 5.59217C41.0448 5.59217 40.6469 5.70177 40.3277 5.90191C39.1006 6.65957 38.81 8.25827 39.6915 9.39953C40.3324 10.231 41.4665 10.5003 42.3957 10.0452C43.3202 9.59013 43.8277 8.6371 43.6942 7.60068C43.5489 6.4642 42.5673 5.59217 41.4356 5.59217Z" fill="#333333"/>
<path d="M1.52008 10.6551C1.52008 10.9387 1.52008 11.2198 1.52008 11.5105C1.00545 11.5105 0.507488 11.5105 0 11.5105C0 8.40838 0 5.31104 0 2.20654C0.505106 2.20654 1.00306 2.20654 1.5177 2.20654C1.5177 3.20722 1.5177 4.20552 1.5177 5.2205C1.55106 5.20144 1.56535 5.19667 1.5725 5.18714C1.94894 4.66536 2.48502 4.39851 3.08782 4.24841C4.91287 3.79572 7.14772 4.89647 7.54561 7.15753C7.71954 8.14868 7.60041 9.09933 7.06671 9.96658C6.49251 10.9029 5.63955 11.4462 4.56739 11.6463C3.75255 11.7988 2.97107 11.6868 2.24438 11.2699C1.98707 11.1221 1.76072 10.9387 1.58918 10.6909C1.57965 10.679 1.57012 10.6647 1.5582 10.6551C1.55582 10.6551 1.54629 10.6575 1.52008 10.6551ZM5.99932 8.02717C5.99932 7.44344 5.85637 6.93119 5.60858 6.57142C5.11062 5.84711 4.40776 5.54215 3.54765 5.60648C2.89483 5.65651 2.3516 5.94718 1.97039 6.49041C1.46528 7.21471 1.38666 8.00811 1.6821 8.82533C2.22771 10.3311 4.00987 10.6361 5.08679 9.83554C5.72056 9.36618 5.97788 8.70382 5.99932 8.02717Z" fill="#333333"/>
<path d="M54.713 11.7129C53.4026 11.6986 52.3567 11.3174 51.5537 10.3953C49.7358 8.29867 50.7294 5.01548 53.4098 4.30071C54.632 3.9743 55.8185 4.09343 56.8931 4.80343C57.8556 5.43958 58.4036 6.35687 58.5275 7.50289C58.7491 9.5662 57.3768 11.3341 55.3254 11.6509C55.0871 11.6891 54.8441 11.701 54.713 11.7129ZM54.5963 10.2643C55.9139 10.2643 56.936 9.24217 56.9336 7.92222C56.9336 6.60704 55.921 5.59207 54.6034 5.58968C53.2787 5.58492 52.2637 6.59751 52.2614 7.92222C52.2637 9.24693 53.2787 10.2643 54.5963 10.2643Z" fill="#333333"/>
<path d="M9.10183 4.32227C9.61409 4.32227 10.1168 4.32227 10.6362 4.32227C10.6362 4.3723 10.6362 4.41757 10.6362 4.46284C10.6362 5.79708 10.6195 7.13132 10.6457 8.46556C10.66 9.19463 11.0222 9.75453 11.7107 10.0333C12.3969 10.3121 13.0378 10.1929 13.5835 9.68306C13.9361 9.35188 14.1124 8.92778 14.1171 8.44888C14.1267 7.12179 14.1219 5.79708 14.1219 4.46999C14.1219 4.42233 14.1219 4.37706 14.1219 4.32465C14.6389 4.32465 15.1464 4.32465 15.6634 4.32465C15.6634 4.36753 15.6634 4.40804 15.6634 4.44616C15.6634 5.78755 15.6658 7.12894 15.6634 8.47271C15.6611 9.50436 15.2965 10.374 14.4722 11.0173C13.0235 12.149 10.7887 11.8726 9.70939 10.4312C9.31388 9.90225 9.1066 9.30184 9.10183 8.64664C9.08754 7.22662 9.09707 5.80423 9.09468 4.38183C9.09707 4.36515 9.09945 4.35086 9.10183 4.32227Z" fill="#333333"/>
<path d="M60.0357 4.32227C60.5575 4.32227 61.0602 4.32227 61.5772 4.32227C61.5772 4.37468 61.5772 4.41995 61.5772 4.4676C61.5772 5.75419 61.5772 7.04078 61.5772 8.32737C61.5772 8.84915 61.7321 9.31614 62.1133 9.68306C62.6017 10.1524 63.1902 10.2858 63.8311 10.0952C64.4649 9.90702 64.8532 9.46148 65.0081 8.82295C65.051 8.64425 65.0629 8.45365 65.0629 8.26781C65.0677 7.00504 65.0653 5.74228 65.0653 4.47952C65.0653 4.43186 65.0653 4.38421 65.0653 4.32941C65.5775 4.32941 66.0826 4.32941 66.5997 4.32941C66.602 4.36039 66.6068 4.39613 66.6068 4.42948C66.6068 5.81137 66.614 7.19327 66.6044 8.57516C66.5949 10.1214 65.5156 11.389 63.9884 11.6534C62.9591 11.8321 62.0108 11.6391 61.1841 10.9839C60.4979 10.4407 60.1381 9.71403 60.0547 8.84677C60.0381 8.67284 60.0333 8.49892 60.0333 8.32261C60.0309 7.04078 60.0333 5.75896 60.0333 4.47475C60.0357 4.42472 60.0357 4.37706 60.0357 4.32227Z" fill="#333333"/>
<path d="M31.2043 9.41336C31.6451 9.86128 32.1788 10.1853 32.803 10.3521C33.3343 10.4927 33.8561 10.4903 34.3517 10.2211C34.4756 10.1543 34.5899 10.0614 34.6852 9.95659C34.9831 9.62541 34.9211 9.17987 34.5542 8.92731C34.3326 8.77483 34.0753 8.72718 33.818 8.67238C33.2104 8.54134 32.6005 8.41983 32.0001 8.26258C31.7428 8.19586 31.4974 8.06721 31.2663 7.93378C30.6492 7.57401 30.4181 7.00696 30.4871 6.32078C30.592 5.28436 31.2067 4.6363 32.1645 4.32657C33.3105 3.95488 34.4136 4.14549 35.4596 4.70778C35.6931 4.83405 35.9123 4.98177 36.1505 5.12711C35.8527 5.49641 35.5668 5.84903 35.2761 6.21118C35.188 6.14447 35.1093 6.08252 35.026 6.02296C34.528 5.66081 33.9824 5.42255 33.3558 5.4154C33.046 5.41302 32.7458 5.46782 32.4766 5.62745C32.3765 5.68701 32.2765 5.76087 32.2002 5.84903C31.881 6.2088 31.9715 6.71629 32.4075 6.91166C32.6529 7.02126 32.9269 7.07367 33.1938 7.13085C33.7513 7.24998 34.3136 7.34767 34.8711 7.47156C35.2213 7.55019 35.5477 7.69552 35.8289 7.92902C36.2697 8.29593 36.4293 8.78436 36.4078 9.3395C36.3697 10.3283 35.7455 11.1336 34.752 11.4933C34.1301 11.7173 33.4892 11.7554 32.8388 11.6863C31.819 11.5815 30.9518 11.1383 30.1774 10.4927C30.1655 10.4831 30.1512 10.476 30.125 10.4569C30.4872 10.0995 30.8422 9.75883 31.2043 9.41336Z" fill="#333333"/>
<path d="M20.3827 5.75896C19.3081 5.75896 18.2646 5.75896 17.2138 5.75896C17.2138 5.2753 17.2138 4.80116 17.2138 4.32227C19.1223 4.32227 21.0212 4.32227 22.9463 4.32227C21.786 6.22594 20.6328 8.12009 19.4678 10.0309C20.609 10.0309 21.7264 10.0309 22.8534 10.0309C22.8534 10.5146 22.8534 10.9887 22.8534 11.47C20.883 11.47 18.9126 11.47 16.916 11.47C18.0716 9.56869 19.22 7.67693 20.3827 5.75896Z" fill="#333333"/>
<path d="M23.499 11.4696C24.6546 9.56588 25.803 7.6765 26.9609 5.76568C25.8935 5.76568 24.8499 5.76568 23.7992 5.76568C23.7992 5.27963 23.7992 4.8055 23.7992 4.32422C25.7005 4.32422 27.6018 4.32422 29.5246 4.32422C28.3666 6.22551 27.2111 8.11728 26.046 10.0305C27.1872 10.0305 28.3071 10.0305 29.434 10.0305C29.434 10.5165 29.434 10.9859 29.434 11.4672C27.4636 11.4696 25.4932 11.4696 23.499 11.4696Z" fill="#333333"/>
<path d="M70.3123 4.35066C70.7293 4.35066 71.1272 4.35066 71.5346 4.35066C71.5346 4.83671 71.5346 5.30608 71.5346 5.78736C71.4917 5.78974 71.4488 5.79212 71.4059 5.79212C71.0795 5.79212 70.7555 5.7945 70.4291 5.79212C70.3528 5.79212 70.3147 5.80642 70.3147 5.89457C70.3195 6.89049 70.3195 7.8864 70.3266 8.8847C70.3266 9.01812 70.3528 9.15393 70.3814 9.28497C70.4577 9.6233 70.6626 9.86394 70.9604 10.0331C71.2296 10.1856 71.4965 10.3405 71.7776 10.5001C71.5513 10.9027 71.3273 11.303 71.101 11.708C70.5268 11.4269 69.9621 11.1577 69.4927 10.7288C68.9948 10.2785 68.7994 9.69716 68.7875 9.04433C68.778 8.4201 68.7827 7.79825 68.7827 7.17401C68.7827 6.76183 68.7827 6.34726 68.7827 5.93508C68.7827 5.89219 68.7827 5.8493 68.7827 5.79212C68.4921 5.79212 68.2109 5.79212 67.9226 5.79212C67.9179 5.74447 67.9107 5.71111 67.9107 5.67537C67.9107 5.2751 67.9131 4.87245 67.9083 4.47218C67.9059 4.37211 67.9393 4.34352 68.037 4.3459C68.2776 4.35066 68.5206 4.34828 68.7732 4.34828C68.7756 4.29587 68.7803 4.25536 68.7803 4.21248C68.7803 3.65972 68.7827 3.10934 68.778 2.55659C68.778 2.47558 68.7994 2.44222 68.8828 2.4184C69.3522 2.29212 69.8215 2.1587 70.31 2.02051C70.3123 2.80437 70.3123 3.56918 70.3123 4.35066Z" fill="#333333"/>
<path d="M46.7695 4.3411C47.2508 4.3411 47.7226 4.3411 48.2086 4.3411C48.2086 4.59841 48.2086 4.85335 48.2086 5.10828C48.2181 5.11305 48.23 5.11543 48.2396 5.1202C48.261 5.08208 48.2825 5.04634 48.3039 5.00822C48.7375 4.17193 49.6072 3.96465 50.3601 4.28153C50.5126 4.34586 50.5126 4.35063 50.4578 4.50311C50.2957 4.95818 50.1313 5.41325 49.9669 5.87309C49.8764 5.8302 49.793 5.78493 49.7072 5.75158C49.0616 5.50856 48.3492 5.97554 48.3111 6.66649C48.3063 6.73796 48.3063 6.80944 48.3063 6.88092C48.3063 8.37717 48.3063 9.87343 48.3063 11.3697C48.3063 11.4173 48.3063 11.465 48.3063 11.5198C47.7917 11.5198 47.2865 11.5198 46.7719 11.5198C46.7695 9.13483 46.7695 6.74511 46.7695 4.3411Z" fill="#333333"/>
<path d="M81.5265 12.3749C85.0727 12.3749 87.9475 12.104 87.9475 11.7697C87.9475 11.4355 85.0727 11.1646 81.5265 11.1646C77.9803 11.1646 75.1055 11.4355 75.1055 11.7697C75.1055 12.104 77.9803 12.3749 81.5265 12.3749Z" fill="#E8E8E3"/>
<path d="M82.1228 6.4209H80.8887V12.3726H82.1228V6.4209Z" fill="#79B63E"/>
<path d="M81.4176 8.01032C79.6211 8.01032 78.1582 6.54742 78.1582 4.75096V3.84082H84.6769V4.75096C84.6745 6.54742 83.214 8.01032 81.4176 8.01032ZM78.7538 4.43646V4.75096C78.7538 6.21863 79.9475 7.41468 81.4176 7.41468C82.8876 7.41468 84.0813 6.22101 84.0813 4.75096V4.43646H78.7538Z" fill="#79B63E"/>
<path d="M79.2344 3.22363V4.62935C79.2344 5.81587 80.1969 6.77843 81.3835 6.77843C82.57 6.77843 83.5325 5.81587 83.5325 4.62935V3.22363H79.2344Z" fill="#637F61"/>
<path d="M83.5325 2.84003V2.14908C83.5325 0.96256 82.57 0 81.3835 0C80.1969 0 79.2344 0.96256 79.2344 2.14908V2.84003H83.5325Z" fill="#637F61"/>
<path d="M82.3206 12.3751C82.3206 12.3751 81.6916 6.85709 87.6981 6.96192C87.6981 6.96192 88.1865 12.4681 82.3206 12.3751Z" fill="#79B63E"/>
<path d="M80.6119 12.3751C80.6119 12.3751 81.2409 6.85709 75.2345 6.96192C75.2321 6.96192 74.7437 12.4681 80.6119 12.3751Z" fill="#79B63E"/>
</svg>
