<svg width="52" height="14" viewBox="0 0 52 14" fill="none" xmlns="http://www.w3.org/2000/svg">
<path d="M27.7791 2.95801C25.539 2.95801 23.7256 4.76622 23.7256 6.9999C23.7256 9.23358 25.539 11.0418 27.7791 11.0418C30.0192 11.0418 31.8327 9.23358 31.8327 6.9999C31.8327 4.76622 30.0192 2.95801 27.7791 2.95801ZM29.4859 8.70175C28.5258 9.65905 26.9791 9.65905 26.0724 8.70175C25.1123 7.74446 25.1123 6.20216 26.0724 5.29805C27.0324 4.34076 28.5792 4.34076 29.4859 5.29805C30.4459 6.20216 30.4459 7.74446 29.4859 8.70175Z" fill="#4A8CFF"/>
<path d="M22.9263 9.44635H22.4996H18.8727L23.7263 4.60672V4.18125C23.7263 3.54306 23.1929 3.01123 22.5529 3.01123H22.1262H16.0459V3.43669C16.0992 4.07489 16.5793 4.60672 17.2193 4.60672H17.646H21.2728L16.4193 9.44635V9.87182C16.4193 10.51 16.9526 11.0418 17.5926 11.0418H18.0193H24.0997V10.6164C24.0463 9.97818 23.5663 9.44635 22.9263 9.44635Z" fill="#4A8CFF"/>
<path d="M48.8479 2.95801C47.9412 2.95801 47.0345 3.33029 46.3945 4.07485C45.3277 2.85164 43.5143 2.63891 42.1276 3.54302C41.8076 3.17074 41.1142 3.01119 40.6875 3.01119V11.0418H41.1142C41.8076 10.9886 42.2876 10.51 42.2876 9.87178V9.44631V6.62762V6.20216C42.2876 5.93625 42.3409 5.61715 42.5009 5.40442C42.9276 4.60668 43.941 4.39394 44.741 4.81941C45.0077 4.97896 45.1677 5.1385 45.3277 5.40442C45.4344 5.67033 45.5411 5.93625 45.5411 6.20216V6.62762V9.44631V9.87178C45.5411 10.51 46.0744 11.0418 46.7145 11.0418H47.1412V6.57444V6.14898C47.1412 5.88306 47.1945 5.56397 47.3545 5.35124C47.7812 4.55349 48.7946 4.34076 49.5946 4.76622C49.8613 4.92577 50.0213 5.08532 50.1813 5.35124C50.288 5.61715 50.3947 5.88306 50.3947 6.14898V6.57444V9.39313V9.81859C50.3947 10.4568 50.928 10.9886 51.5681 10.9886H51.9948V6.14898C52.1014 4.39394 50.6614 2.95801 48.8479 2.95801Z" fill="#4A8CFF"/>
<path d="M39.141 4.12803C38.3943 3.38347 37.3276 2.95801 36.2609 2.95801C35.1942 2.95801 34.1808 3.38347 33.3807 4.12803C31.7806 5.72352 31.7806 8.27629 33.3807 9.81859C34.9808 11.3609 37.5409 11.4141 39.0877 9.81859C40.7411 8.27629 40.7411 5.72352 39.141 4.12803ZM38.021 8.70175C37.0609 9.65905 35.5142 9.65905 34.6075 8.70175C33.6474 7.74446 33.6474 6.20216 34.6075 5.29805C35.5675 4.34076 37.1143 4.34076 38.021 5.29805C38.981 6.20216 38.981 7.74446 38.021 8.70175Z" fill="#4A8CFF"/>
<path d="M7.02018 14C10.8973 14 14.0404 10.866 14.0404 7C14.0404 3.13401 10.8973 0 7.02018 0C3.14304 0 0 3.13401 0 7C0 10.866 3.14304 14 7.02018 14Z" fill="#E5E5E4"/>
<path d="M7.01997 13.8559C10.8172 13.8559 13.8954 10.7865 13.8954 7.0002C13.8954 3.21392 10.8172 0.144531 7.01997 0.144531C3.22277 0.144531 0.144531 3.21392 0.144531 7.0002C0.144531 10.7865 3.22277 13.8559 7.01997 13.8559Z" fill="white"/>
<path d="M7.02014 13.3144C10.5176 13.3144 13.3528 10.4873 13.3528 6.99998C13.3528 3.51261 10.5176 0.685547 7.02014 0.685547C3.52272 0.685547 0.6875 3.51261 0.6875 6.99998C0.6875 10.4873 3.52272 13.3144 7.02014 13.3144Z" fill="#4A8CFF"/>
<path d="M8.93768 6.17001L10.7108 4.87104C10.8556 4.72671 11.0003 4.76279 11.0003 5.01537V8.98444C11.0003 9.23702 10.8556 9.20093 10.7108 9.12877L8.93768 7.8298V6.17001ZM2.89453 5.01537V7.97413C2.89453 8.6597 3.43733 9.20093 4.12487 9.16485H8.46725C8.57581 9.16485 8.68437 9.0566 8.68437 8.94836V5.98959C8.68437 5.30403 8.14157 4.76279 7.45403 4.79887H3.11165C3.00309 4.79887 2.89453 4.90712 2.89453 5.01537Z" fill="white"/>
</svg>
