<svg width="70" height="14" viewBox="0 0 70 14" fill="none" xmlns="http://www.w3.org/2000/svg">
<path d="M10.2755 0.822718C10.1821 0.763956 10.0304 0.669936 9.94863 0.611174C9.8669 0.564164 9.6801 0.434887 9.52832 0.340867C8.99127 -0.0117066 9.00294 4.59079e-05 8.83949 4.59079e-05C8.72274 0.0117984 8.68771 0.0235508 8.61766 0.0940656L8.54761 0.176333V4.47773L8.46588 4.40722C6.97146 3.11445 4.47298 3.06744 2.79175 3.97238C1.08718 4.88907 -0.0453087 6.82823 0.0013919 8.77914C0.0480925 10.73 1.25063 12.6104 3.00191 13.4566C4.75318 14.3028 6.95979 14.0677 8.50091 12.8807C8.58264 13.1628 8.53593 13.4801 8.53593 13.7739L8.72274 13.9385L9.54 13.9267L10.3573 13.915L10.4507 13.8327L10.5441 13.7504L10.5557 7.4041C10.5674 1.43385 10.5557 1.05777 10.509 0.999005C10.4857 0.963748 10.3806 0.881481 10.2755 0.822718ZM5.27856 12.0581C3.41054 12.0581 1.89277 10.5303 1.89277 8.64986C1.89277 6.76946 3.41054 5.24164 5.27856 5.24164C7.14659 5.24164 8.66436 6.76946 8.66436 8.64986C8.67604 10.5303 7.15827 12.0581 5.27856 12.0581Z" fill="#2A3336"/>
<path d="M20.0361 4.10175C18.6584 3.23207 16.8604 3.04403 15.3427 3.63165C13.8249 4.21927 12.599 5.5473 12.132 7.12213C11.4198 9.59015 12.6224 12.3167 14.9224 13.4215C16.0782 13.9738 17.4325 14.0443 18.6701 13.6918C20.4914 13.1747 21.5655 12.0229 21.6473 11.6116C21.6823 11.4353 21.5889 11.2825 21.4254 11.2355C20.9584 11.0827 19.6275 10.7184 19.5924 10.7419C19.5691 10.7654 19.4757 10.9182 19.3589 11.024C18.7051 11.5998 17.8645 11.9054 16.9889 11.8349C16.4868 11.7996 15.9731 11.6468 15.5528 11.3648C14.8406 10.8947 14.1752 9.73118 14.1752 9.67242C14.1752 9.64891 15.2493 9.63716 18.2264 9.62541L22.4879 9.61366V9.37861L22.4762 8.57944C22.4295 6.75781 21.5889 5.08896 20.0361 4.10175ZM14.1285 7.59223L14.1518 7.52172C14.5021 6.45224 15.5412 5.64132 16.6269 5.45328C18.028 5.20648 19.8026 6.04091 20.1995 7.49821L20.2229 7.59223H14.1285Z" fill="#2A3336"/>
<path d="M37.4084 4.60713C36.346 3.54941 34.7698 3.06756 33.3221 3.53765C32.6216 3.76095 32.1079 4.09002 31.5475 4.66589C31.384 4.83042 31.2556 4.94795 31.2556 4.9362C31.2556 4.90094 30.7536 4.38383 30.6135 4.27806C29.3642 3.33786 27.683 3.07931 26.2586 3.79621C24.986 4.44259 23.8535 5.71186 23.8535 7.21617C23.8535 7.27494 23.7485 13.5037 23.7952 13.6683C23.8185 13.727 23.8769 13.8211 23.9353 13.8681L24.0403 13.9621H24.7992C25.9784 13.9621 25.85 14.3852 25.85 10.6949C25.85 9.63718 25.7099 8.45018 25.8967 7.39246C26.2003 5.68835 28.2668 4.77166 29.5277 6.11144C30.6018 7.25143 30.2515 9.31987 30.2515 10.7419V13.774L30.4383 13.9386H32.0262L32.1312 13.8563C32.283 13.7388 32.2713 13.9386 32.2713 10.7537C32.2713 9.07306 31.7927 5.99392 34.0576 5.50031C35.2485 5.24176 36.346 6.1467 36.5911 7.28669C36.6145 7.41597 36.6495 7.54524 36.6612 7.557C36.6729 7.56875 36.6845 8.96729 36.6845 10.6714C36.6845 13.7035 36.6845 13.774 36.7429 13.8681L36.8013 13.9621H38.5175L38.6226 13.8681L38.7277 13.774V10.5891C38.7277 7.42772 38.4008 6.07619 38.2257 5.72361C38.0155 5.31228 37.7353 4.9362 37.4084 4.60713Z" fill="#2A3336"/>
<path d="M53.8706 7.68616C53.7189 6.81648 53.3569 5.98205 52.7965 5.28866C51.5589 3.76084 49.4341 3.02043 47.5193 3.45528C44.799 4.07816 42.9777 6.87524 43.4797 9.62532C44.0985 12.963 47.6945 14.7847 50.765 13.5036C51.9559 12.9983 52.9366 12.0698 53.4853 10.8828C53.9407 9.89563 54.0574 8.76739 53.8706 7.68616ZM51.8975 9.0612C51.7925 9.88387 51.3721 10.6713 50.73 11.1884C48.6752 12.8572 45.4762 11.3412 45.4645 8.67337C45.4645 6.81648 47.1691 5.24165 49.0254 5.41794C50.298 5.54721 51.4422 6.49916 51.8041 7.72142C51.9326 8.15626 51.9559 8.61461 51.8975 9.0612Z" fill="#2A3336"/>
<path d="M41.9158 0.0117188H40.1996L40.0361 0.199758L40.0595 1.56304L40.1646 1.65706C40.2696 1.75108 41.262 2.35046 41.5539 2.5385C41.6123 2.57376 41.6707 2.59726 41.7407 2.60901C41.8458 2.63252 42.0209 2.64427 42.0676 2.62077C42.0676 2.19768 42.0793 0.176253 42.0793 0.176253L41.9976 0.093986L41.9158 0.0117188Z" fill="#2A3336"/>
<path d="M41.0752 3.36133C40.5032 3.36133 40.2813 3.37308 40.2113 3.40834C40.1646 3.43184 40.1062 3.47885 40.0828 3.52586C40.0245 3.64339 40.0245 13.7388 40.0828 13.8093C40.1996 13.9503 40.2229 13.9503 41.0636 13.9503H41.8575L41.9625 13.8563L42.0676 13.7623V8.66169C42.0676 4.70111 42.0559 3.54937 42.0326 3.51411C41.9158 3.37308 41.8925 3.36133 41.0752 3.36133Z" fill="#2A3336"/>
<path d="M62.3462 0.0470091C59.6726 0.258553 57.466 2.27998 56.6837 4.80676C56.2518 6.22881 56.17 7.74487 56.1817 9.23744C56.1817 10.4244 56.2401 11.6114 56.3335 12.7984C56.3568 13.01 56.3802 13.245 56.5086 13.4213C56.6954 13.6564 57.0223 13.7034 57.3142 13.7386C58.7619 13.8914 60.2213 14.0207 61.669 13.9972C63.2919 13.9737 64.9497 13.7504 66.3741 12.9747C68.2071 11.9993 69.5381 10.1424 69.9 8.08569C70.2619 6.02901 69.6198 3.8313 68.2305 2.29173C66.7828 0.66989 64.5178 -0.164535 62.3462 0.0470091ZM63.5954 2.60905C63.6305 2.6208 63.7472 2.66781 63.8756 2.70307C64.5411 2.90286 65.0315 3.43172 65.265 4.0781C65.4635 4.63047 65.4985 5.22985 65.5102 5.81747C65.5218 6.72241 65.4284 7.68611 64.8563 8.39126C64.3543 9.01414 63.5137 9.3197 62.7315 9.17867C61.8792 9.01414 61.202 8.3325 61.0035 7.49807C60.7817 6.61664 60.7934 5.41788 60.9335 4.5247C61.0386 3.81955 61.4238 3.18492 62.0543 2.83234C62.1244 2.79709 62.1944 2.75008 62.2061 2.73832C62.2178 2.72657 62.3228 2.69131 62.4396 2.65606C62.5563 2.6208 62.6848 2.58554 62.7198 2.57379C62.8132 2.55028 63.4904 2.55028 63.5954 2.60905ZM62.9766 3.34945C62.1944 3.44347 61.7858 4.00759 61.6573 4.75975C61.5289 5.54716 61.5056 6.64014 61.7274 7.40405C61.9259 8.08569 62.533 8.55579 63.2568 8.46177C63.6772 8.40301 64.0624 8.15621 64.3076 7.80364C64.5528 7.43931 64.6462 6.98096 64.6812 6.53437C64.7162 6.00551 64.6812 5.46489 64.6579 4.93603C64.6462 4.65398 64.6228 4.36016 64.4944 4.10161C64.2259 3.5845 63.5371 3.29069 62.9766 3.34945ZM63.2802 4.85377C63.7355 4.85377 63.6188 5.93499 63.6071 6.1818C63.5838 6.46385 63.5604 6.76942 63.4787 7.02797C63.3619 7.38055 62.9766 7.42756 62.8015 7.07498C62.7315 6.9222 62.7198 6.75767 62.7198 6.59313C62.7315 6.26406 62.5096 4.70098 63.1634 4.83026C63.2101 4.85377 63.2568 4.85377 63.2802 4.85377ZM67.0046 8.02693L67.1213 8.14446C66.9929 9.21393 66.2924 10.1659 65.3817 10.73C64.5411 11.2589 63.502 11.4704 62.5213 11.3294C61.5523 11.1883 60.6183 10.7182 59.9761 9.96609C59.6843 9.62527 59.4507 9.23744 59.2756 8.8261C59.1822 8.62631 59.1122 8.37951 59.2289 8.19147C59.3223 8.05044 59.5325 7.99167 59.6843 8.06219C59.8477 8.14446 59.9178 8.34425 59.9995 8.52054C60.5132 9.75454 61.7975 10.6125 63.1284 10.6007C64.4477 10.589 65.732 9.71929 66.2223 8.47353C66.2807 8.3325 66.3274 8.19147 66.4208 8.06219C66.5726 7.8859 66.8295 7.85065 67.0046 8.02693Z" fill="#02BF6F"/>
</svg>
