<svg width="78" height="14" viewBox="0 0 78 14" fill="none" xmlns="http://www.w3.org/2000/svg">
<path d="M7.03525 14C3.15755 14 0 10.86 0 6.99607C0 3.1321 3.15755 0 7.03525 0C7.69208 0 8.33309 0.0865655 8.95827 0.267566L8.72086 1.10174C8.17482 0.944351 7.60503 0.873525 7.03525 0.873525C3.64029 0.865655 0.870503 3.62001 0.870503 6.99607C0.870503 10.3721 3.64029 13.1265 7.03525 13.1265C7.22518 13.1265 7.41511 13.1186 7.59712 13.1029L7.62878 13.6616L7.5259 13.9764C7.38345 13.9921 7.18561 14 7.03525 14Z" fill="#6D6C71"/>
<path d="M8.14258 13.9054L8.42747 12.9767C11.2052 12.3393 13.1994 9.86038 13.1994 7.00372C13.1994 4.44611 11.5771 2.12458 9.15553 1.24318L9.45625 0.432617C12.2102 1.43992 14.0699 4.08411 14.0699 7.00372C14.0778 10.3483 11.68 13.3938 8.14258 13.9054Z" fill="#DD4335"/>
<path d="M10.13 1.12542L7.54218 9.31766H6.76664L5.817 6.54757L4.88319 9.31766H4.17096L2.71484 5.17039H3.63283L4.51916 7.68079L5.36592 5.17039H6.26808L7.13858 7.71227L7.94578 5.17039L8.28607 4.07652L9.29902 0.865723L10.13 1.12542Z" fill="#DD4335"/>
<path d="M7.59754 13.7955L6.7666 13.5279L9.48099 5.11535L10.399 5.09961L7.64502 13.6381L7.59754 13.7955Z" fill="#6D6C71"/>
<path d="M10.4862 4.83951H9.57617L9.90063 3.82433L10.8186 3.80859L10.4862 4.83951Z" fill="#6D6C71"/>
<path d="M25.0086 4L22.9282 10.0044H21.8058L20.4027 5.77052L18.9609 10.0044H18.003L16 4H17.1225L18.4868 8.09914L19.8802 4H20.9349L22.3767 8.34933L23.8765 4H25.0086Z" fill="#DD4335"/>
<path d="M30.2742 10.091H25.8037V4H30.2742V5.05846H26.8681V9.03252H30.2742V10.091Z" fill="#DD4335"/>
<path d="M29.8378 6.40576H26.335V7.46423H29.8378V6.40576Z" fill="#DD4335"/>
<path d="M34.5306 4H31.5986V7.4352H34.5306C35.0821 7.4352 35.5659 7.17539 35.8852 6.78088C36.1175 6.4922 36.2529 6.11693 36.2529 5.72241C36.2626 4.76979 35.4885 4 34.5306 4ZM32.663 5.05846H34.5306C34.8982 5.05846 35.1885 5.35676 35.1885 5.71279C35.1885 6.07844 34.8886 6.36711 34.5306 6.36711H32.663V5.05846Z" fill="#DD4335"/>
<path d="M35.894 6.77115C35.6134 6.56908 35.2651 6.45361 34.8974 6.45361H31.6074V9.88881H34.8974C35.8456 9.88881 36.6197 9.11902 36.6197 8.17602C36.6197 7.59868 36.3295 7.08869 35.894 6.77115ZM34.8877 8.83035H32.6621V7.51208H34.8877C35.2554 7.51208 35.5457 7.81037 35.5457 8.1664C35.5457 8.52243 35.2554 8.83035 34.8877 8.83035Z" fill="#DD4335"/>
<path d="M38.8456 4H37.7812V10.014H38.8456V4Z" fill="#DD4335"/>
<path d="M45.7455 4V10.0044H44.7295L41.4589 5.70317V10.0044H40.3945V4H41.4976L44.6811 8.18575V4H45.7455Z" fill="#DD4335"/>
<path d="M52.8957 9.93702L52.7312 10.0044H51.7636L51.1443 8.58989L50.6798 7.53142L49.7219 5.34714L48.7833 7.53142L48.3285 8.58989L47.7189 10.0044H46.5674L49.1413 4H50.2831L52.8957 9.93702Z" fill="#DD4335"/>
<path d="M51.454 7.53137H47.8447V8.58984H51.454V7.53137Z" fill="#DD4335"/>
<path d="M70.6805 10.0044H69.5193L68.8904 8.58989L68.4259 7.53142L67.4679 5.34714L66.539 7.53142L66.0842 8.58989L65.4746 10.0044H64.3135L66.897 4H68.0389L70.6805 10.0044Z" fill="#6D6C71"/>
<path d="M69.2098 7.53137H65.6006V8.58984H69.2098V7.53137Z" fill="#6D6C71"/>
<path d="M54.8603 4.03857H53.7959V9.91786H54.8603V4.03857Z" fill="#DD4335"/>
<path d="M57.2115 4.06736C57.047 4.01924 56.8729 4 56.6987 4H53.7861V7.9933H56.6987C56.9309 7.9933 57.1632 7.95481 57.3664 7.87783C58.1501 7.6084 58.7114 6.85785 58.7114 5.99184C58.7114 5.06809 58.0727 4.28867 57.2115 4.06736ZM56.6987 6.93483H54.8505V5.05846H56.6987C57.2212 5.05846 57.647 5.48185 57.647 6.00146C57.647 6.52107 57.2212 6.93483 56.6987 6.93483Z" fill="#DD4335"/>
<path d="M58.982 10.0045H57.6563L56.1372 7.92602L55.9727 7.71432L56.8338 7.08887L57.366 7.81055L58.982 10.0045Z" fill="#DD4335"/>
<path d="M63.6273 4V8.14726C63.6273 9.00365 63.066 9.74458 62.2919 10.0044C62.0887 10.0717 61.8759 10.1102 61.6533 10.1102H61.4791C61.2566 10.1102 61.0437 10.0717 60.8405 10.0044C60.3664 9.8408 59.9793 9.51364 59.7471 9.08063L60.3373 8.40706C60.4244 8.31084 60.5792 8.3397 60.6276 8.4648C60.7534 8.8112 61.0921 9.05176 61.4791 9.05176H61.6533C62.1565 9.05176 62.5629 8.64762 62.5629 8.14726V4H63.6273Z" fill="#6D6C71"/>
<path d="M77.4555 4V10.0044H76.3911V5.64543L74.4656 8.30121L72.54 5.64543V10.0044H71.4756V4H72.6561L74.4656 6.4922L76.275 4H77.4555Z" fill="#6D6C71"/>
</svg>
