<svg width="78" height="15" viewBox="0 0 78 15" fill="none" xmlns="http://www.w3.org/2000/svg">
<path d="M10.9048 13.5807C8.45706 14.2504 2.93727 13.9261 2.05041 13.9261H0L3.37715 10.1407C4.29239 9.11862 4.79612 8.90715 5.7823 8.90715C6.76849 8.90715 9.16655 9.00584 10.4507 8.90715C12.2499 8.80353 14.0072 8.32563 15.6087 7.50438C17.7017 6.19325 18.1203 5.38965 18.1203 5.38965C18.1203 5.38965 18.8652 11.4025 10.9048 13.5807Z" fill="#1E64F0"/>
<path d="M17.8719 2.95797C18.2551 0.638814 16.9354 0.00439453 16.9354 0.00439453C16.9354 0.00439453 17.0276 1.89355 13.4802 2.29535C10.3798 2.64781 0 2.37994 0 2.37994L3.34168 6.18646C3.60827 6.57352 3.96784 6.88839 4.38781 7.10256C4.80778 7.31673 5.27489 7.42343 5.74683 7.413C7.34325 7.47795 8.94207 7.45441 10.5359 7.34251C12.5666 7.2314 14.5286 6.57349 16.2117 5.43925C17.0497 4.83962 17.6398 3.95776 17.8719 2.95797Z" fill="#1E64F0"/>
<path d="M38.1364 1.58242H39.8814L35.4201 12.5853H34.957L31.4726 3.97264L27.9487 12.5853H27.4913V12.5292L23.0469 1.58242H24.8314L27.7567 8.87654L30.7102 1.58242H32.2971L35.2619 8.87654L38.1364 1.58242ZM41.5586 12.5404H43.2924V1.58242H41.5586V12.5404ZM50.1538 6.58169L48.9679 5.88595C48.5488 5.65518 48.1679 5.36187 47.8384 5.01626C47.6247 4.78249 47.5042 4.47922 47.4996 4.16341C47.4995 4.00014 47.5408 3.83947 47.6198 3.69628C47.6987 3.55309 47.8128 3.432 47.9514 3.34423C48.3057 3.11208 48.7245 2.99629 49.1486 3.01319C49.6133 3.0293 50.0701 3.13677 50.4927 3.32939C50.9154 3.522 51.2954 3.79594 51.6108 4.13536L51.7633 4.28124V2.2445L51.7237 2.21644C50.9722 1.70593 50.0816 1.43577 49.1712 1.44215C48.3061 1.40477 47.4594 1.6979 46.805 2.26133C46.5041 2.52835 46.2658 2.85761 46.1067 3.22597C45.9477 3.59433 45.8718 3.99284 45.8845 4.39346C45.8798 4.94388 46.0497 5.48178 46.3701 5.93083C46.8137 6.48726 47.3623 6.95231 47.9852 7.29988L49.1655 8.01246C50.0804 8.57355 50.5491 9.17952 50.5491 9.80233C50.5526 9.98351 50.5136 10.163 50.4352 10.3266C50.3568 10.4902 50.2411 10.6335 50.0973 10.745C49.7772 10.9992 49.3776 11.1341 48.9679 11.1265C48.4082 11.1054 47.8613 10.9543 47.3709 10.6854C46.8806 10.4165 46.4605 10.0372 46.1442 9.57789L45.9805 9.3759V11.6202H46.02C46.8556 12.2775 47.8853 12.6442 48.9509 12.6639C49.8083 12.6978 50.6452 12.3978 51.2832 11.8278C51.5808 11.5507 51.8154 11.2136 51.9712 10.8392C52.1271 10.4647 52.2006 10.0614 52.1868 9.65645C52.1868 8.41645 51.5035 7.37844 50.1538 6.58169ZM53.4744 3.1254H56.7498V12.5404H58.4892V3.1254H61.8267V1.56558H53.4744V3.1254ZM63.7073 12.546H65.441V1.58242H63.7073V12.546ZM78.0005 12.546H76.2216L74.7759 9.35346H70.2581L68.8802 12.5404H67.0843L67.1408 12.417L71.845 1.5207H73.0535L78.0005 12.546ZM72.4379 4.2083L70.9471 7.79364H74.0474L72.4379 4.2083Z" fill="#09152F"/>
</svg>
