<svg width="50" height="14" viewBox="0 0 50 14" fill="none" xmlns="http://www.w3.org/2000/svg">
<path d="M11.1772 6.58734C11.1276 7.66552 10.3669 9.14251 8.89635 11.0169C7.37624 12.9746 6.08982 13.9538 5.0371 13.9538C4.38562 13.9538 3.83409 13.3577 3.38323 12.1649C3.08266 11.0717 2.78137 9.97929 2.4808 8.88614C2.14643 7.69401 1.78761 7.09723 1.40363 7.09723C1.32022 7.09723 1.02683 7.27171 0.525641 7.61924L0 6.94768C0.551528 6.4677 1.09587 5.987 1.63157 5.50559C2.3679 4.87605 2.92015 4.54419 3.28903 4.51072C4.15911 4.42811 4.69482 5.01777 4.89616 6.27898C5.11332 7.6406 5.2636 8.48734 5.34773 8.81849C5.59869 9.94795 5.87481 10.512 6.17611 10.512C6.41052 10.512 6.76215 10.1452 7.23098 9.41313C7.6991 8.68033 7.95006 8.12272 7.98385 7.7403C8.05072 7.10791 7.79977 6.79101 7.23098 6.79101C6.96277 6.79101 6.68665 6.85154 6.40333 6.97261C6.9527 5.18939 8.00255 4.32271 9.55287 4.37185C10.7019 4.40532 11.2434 5.14382 11.1772 6.58734Z" fill="#1AB7EA"/>
<path d="M15.8953 1.237C15.8787 1.65004 15.6695 2.04599 15.2668 2.42557C14.8152 2.85428 14.2795 3.06864 13.6604 3.06864C12.7062 3.06864 12.2453 2.6563 12.2791 1.83164C12.2949 1.40293 12.5509 0.989883 13.0442 0.59393C13.5382 0.198689 14.0861 0 14.6894 0C15.041 0 15.3337 0.136732 15.5688 0.408772C15.8025 0.680811 15.9118 0.957124 15.8953 1.237ZM18.0798 10.0811C17.611 10.9585 16.9667 11.754 16.1462 12.4661C15.0245 13.4268 13.9034 13.9075 12.7817 13.9075C12.2618 13.9075 11.8649 13.7416 11.5888 13.4097C11.3126 13.0786 11.1825 12.6484 11.1997 12.1179C11.2156 11.5717 11.3874 10.7263 11.7139 9.58263C12.0403 8.43964 12.2043 7.82648 12.2043 7.74387C12.2043 7.31302 12.0533 7.09724 11.752 7.09724C11.652 7.09724 11.3666 7.27172 10.8977 7.61925L10.3203 6.94769C10.856 6.46771 11.3917 5.98701 11.9274 5.5056C12.6472 4.87606 13.1829 4.5442 13.5353 4.51073C14.0875 4.46159 14.4931 4.62254 14.7527 4.99428C15.0115 5.36673 15.1079 5.84885 15.0417 6.44349C14.8239 7.45118 14.5894 8.73091 14.3385 10.2834C14.3212 10.9941 14.5808 11.3488 15.1165 11.3488C15.3509 11.3488 15.7694 11.1038 16.372 10.6131C16.8746 10.2043 17.2845 9.81978 17.6031 9.45943L18.0798 10.0811Z" fill="#1AB7EA"/>
<path d="M33.7605 10.0804C33.2917 10.9585 32.6474 11.7532 31.8269 12.4654C30.7052 13.4261 29.5834 13.9068 28.4624 13.9068C27.3737 13.9068 26.8466 13.3107 26.8804 12.1171C26.8963 11.5866 27.0012 10.9499 27.1939 10.2043C27.3859 9.45798 27.4909 8.8783 27.5075 8.46383C27.5247 7.835 27.3313 7.51952 26.9279 7.51952C26.4914 7.51952 25.9708 8.03369 25.3661 9.06132C24.7283 10.1395 24.3831 11.1835 24.3335 12.1948C24.2975 12.9083 24.3694 13.4553 24.5442 13.8363C23.3764 13.8697 22.5581 13.6789 22.0914 13.2644C21.6729 12.8998 21.4816 12.2952 21.5154 11.4491C21.5298 10.9186 21.6132 10.388 21.7621 9.8575C21.9095 9.32695 21.9915 8.8548 22.008 8.43961C22.044 7.82646 21.8153 7.51952 21.3292 7.51952C20.91 7.51952 20.457 7.99239 19.9716 8.93741C19.4855 9.88171 19.2173 10.8687 19.167 11.8964C19.131 12.8257 19.1957 13.4716 19.3467 13.8363C18.1976 13.8697 17.3815 13.6297 16.899 13.117C16.4978 12.6876 16.3151 12.0345 16.3489 11.1579C16.3633 10.7285 16.4417 10.1288 16.5797 9.36042C16.7178 8.5913 16.7947 7.99239 16.8106 7.56225C16.8465 7.26529 16.7674 7.11574 16.5848 7.11574C16.4841 7.11574 16.1993 7.2838 15.7305 7.61922L15.1279 6.94767C15.2121 6.88215 15.7384 6.40074 16.7099 5.50557C17.4131 4.85966 17.8899 4.5278 18.1408 4.51142C18.5766 4.47795 18.9275 4.65598 19.1957 5.04553C19.4632 5.43507 19.5977 5.88728 19.5977 6.40074C19.5977 6.56667 19.5833 6.72406 19.5473 6.87361C19.7983 6.49261 20.091 6.16004 20.426 5.87803C21.1962 5.21573 22.0583 4.84185 23.0125 4.75925C23.833 4.69302 24.4183 4.88316 24.7707 5.3311C25.0547 5.69572 25.1885 6.21843 25.1719 6.89782C25.2891 6.79883 25.415 6.69059 25.5494 6.57451C25.9334 6.12728 26.3102 5.7712 26.6784 5.50557C27.2975 5.05763 27.9432 4.8091 28.612 4.75925C29.4159 4.69302 29.9933 4.88245 30.3449 5.32896C30.6455 5.69216 30.78 6.21273 30.7469 6.88927C30.7296 7.35217 30.6167 8.02515 30.4075 8.90892C30.1975 9.79269 30.094 10.2997 30.094 10.4322C30.0767 10.7797 30.1105 11.019 30.1939 11.1508C30.278 11.2832 30.478 11.3487 30.7965 11.3487C31.0309 11.3487 31.4487 11.1038 32.052 10.6124C32.5539 10.2043 32.9645 9.81975 33.283 9.45941L33.7605 10.0804Z" fill="#1AB7EA"/>
<path d="M37.4782 7.45828C37.494 7.01319 37.3107 6.79029 36.9267 6.79029C36.4248 6.79029 35.9149 7.13283 35.3972 7.81721C34.8788 8.50158 34.6113 9.15746 34.5947 9.78415C34.5854 9.78415 34.5854 9.89169 34.5947 10.106C35.4138 9.80908 36.1242 9.35615 36.7261 8.74513C37.2107 8.21743 37.4609 7.78801 37.4782 7.45828ZM43.1783 10.0548C42.6929 10.8502 41.7387 11.6443 40.3157 12.439C38.5417 13.4489 36.7412 13.9531 34.9169 13.9531C33.5614 13.9531 32.5892 13.5058 32.0039 12.6107C31.5854 11.9975 31.3848 11.2683 31.4013 10.4229C31.4179 9.08055 32.0212 7.80439 33.2098 6.59374C34.5149 5.26772 36.0552 4.604 37.8298 4.604C39.4708 4.604 40.3408 5.2663 40.4415 6.58875C40.5084 7.43193 40.0395 8.30075 39.035 9.19378C37.9636 10.1701 36.6153 10.7897 34.9924 11.0539C35.2929 11.4677 35.7445 11.6742 36.3478 11.6742C37.553 11.6742 38.8675 11.3708 40.2905 10.7634C41.3116 10.3368 42.1155 9.89382 42.7015 9.43449L43.1783 10.0548Z" fill="#1AB7EA"/>
<path d="M47.1562 8.2943C47.1727 7.84564 47.1102 7.43474 46.9678 7.06086C46.8254 6.68769 46.6198 6.49969 46.353 6.49969C45.4987 6.49969 44.7955 6.95689 44.244 7.87057C43.7744 8.61832 43.5227 9.41592 43.4904 10.262C43.4731 10.6778 43.5486 11.0439 43.7162 11.3587C43.8995 11.7247 44.1591 11.907 44.4949 11.907C45.2478 11.907 45.8928 11.4676 46.4285 10.5867C46.8801 9.85532 47.1224 9.09119 47.1562 8.2943ZM49.9937 8.3883C49.9268 9.91158 49.358 11.2276 48.2866 12.3364C47.2152 13.4452 45.8834 14 44.2936 14C42.9712 14 41.9667 13.5777 41.2807 12.7331C40.7788 12.1043 40.5019 11.3181 40.4523 10.3752C40.3674 8.95089 40.8866 7.64339 42.0091 6.45126C43.2143 5.12738 44.7286 4.46509 46.5536 4.46509C47.725 4.46509 48.6123 4.85463 49.2156 5.63229C49.7851 6.34444 50.044 7.26311 49.9937 8.3883Z" fill="#1AB7EA"/>
</svg>
