<svg width="79" height="14" viewBox="0 0 79 14" fill="none" xmlns="http://www.w3.org/2000/svg">
<path d="M9.91686 6.59961C10.0122 6.59961 10.1074 6.59961 10.2027 6.59961C10.2634 6.46967 10.2634 6.27909 10.2027 6.06253C10.1421 5.74201 10.0468 5.52544 9.85622 5.55143C9.66564 5.58608 9.66564 5.8373 9.72628 6.15782C9.75227 6.3484 9.82157 6.50433 9.91686 6.59961Z" fill="black"/>
<path d="M8.23628 6.88566C8.36622 6.9463 8.46151 6.98095 8.48749 6.9463C8.52214 6.91165 8.48749 6.88566 8.45284 6.81636C8.3922 6.68642 8.22761 6.59113 8.10633 6.53049C7.78581 6.40055 7.43931 6.4352 7.15344 6.66043C7.05815 6.72107 6.96286 6.81636 6.99751 6.88566C6.99751 6.92031 7.03216 6.92031 7.05815 6.92031C7.11879 6.92031 7.40466 6.79037 7.72518 6.76438C7.91575 6.75572 8.10633 6.82502 8.23628 6.88566Z" fill="black"/>
<path d="M7.95059 7.04145C7.76001 7.0761 7.66472 7.13674 7.60408 7.19738C7.54344 7.25802 7.50879 7.29267 7.50879 7.32732V7.36197H7.54344C7.57809 7.36197 7.67338 7.32732 7.67338 7.32732C7.9246 7.23203 8.08919 7.23203 8.24512 7.26668C8.34041 7.26668 8.37506 7.30133 8.40105 7.26668C8.40105 7.26668 8.40105 7.23203 8.40105 7.20604C8.39239 7.11075 8.20181 7.01546 7.95059 7.04145Z" fill="black"/>
<path d="M8.04597 7.26653C8.10661 7.13658 8.10661 6.85071 8.04597 6.63415C7.98534 6.31363 7.89005 6.12305 7.66482 6.12305C7.47424 6.1577 7.47424 6.40892 7.53487 6.75542C7.56953 6.98065 7.66482 7.10193 7.6908 7.19722C7.8554 7.4571 7.95068 7.3878 8.04597 7.26653Z" fill="black"/>
<path d="M9.34522 7.61302C9.47516 7.67365 9.59644 7.64767 9.66574 7.55238C9.7004 7.45709 9.63109 7.32715 9.50982 7.26651C9.37987 7.20587 9.2586 7.23186 9.1893 7.32714C9.11999 7.42243 9.21528 7.55238 9.34522 7.61302Z" fill="black"/>
<path d="M10.1339 6.92041C10.0386 6.92041 9.94336 7.0157 9.94336 7.17163C9.94336 7.30157 10.004 7.42285 10.1339 7.42285C10.2292 7.42285 10.3245 7.32756 10.3245 7.17163C10.2985 7.04169 10.2292 6.92041 10.1339 6.92041Z" fill="black"/>
<path d="M3.42001 9.38923C3.38536 9.35458 3.35937 9.35458 3.32472 9.38923C3.29007 9.38923 3.26408 9.38923 3.22943 9.38923C3.16879 9.38923 3.09949 9.35458 3.0735 9.29394C3.04751 9.2333 3.03885 9.13801 3.0735 9.00807L3.10815 8.94743C3.20344 8.75686 3.33338 8.47098 3.16879 8.18511C3.03885 7.95988 2.88292 7.83861 2.65769 7.80396C2.43246 7.76931 2.21589 7.8646 2.08595 8.02919C1.86072 8.28041 1.83473 8.60093 1.86072 8.7222C1.86072 8.75685 1.89537 8.78284 1.92136 8.78284C1.95601 8.78284 2.01665 8.74819 2.0513 8.6529V8.61825C2.0513 8.55761 2.08595 8.48831 2.14659 8.39302C2.20723 8.29773 2.30252 8.23709 2.39781 8.23709C2.4931 8.20244 2.62304 8.23709 2.71833 8.29773C2.87426 8.39302 2.94356 8.5836 2.87426 8.77418C2.77897 8.86947 2.74432 9.0254 2.74432 9.18999C2.77897 9.47586 2.96955 9.6058 3.12548 9.63179C3.28141 9.63179 3.41135 9.5365 3.41135 9.47586C3.446 9.42388 3.42001 9.42388 3.42001 9.38923Z" fill="black"/>
<path d="M12.6369 8.85199C12.6369 8.81734 12.6023 8.69606 12.5417 8.50548L12.4117 8.21961C12.6369 7.89909 12.6369 7.58723 12.6023 7.4313C12.5676 7.24072 12.4724 7.05014 12.3164 6.85956C12.1605 6.66898 11.7793 6.47841 11.3029 6.34846L11.0517 6.28783C11.0517 6.28783 11.0517 5.68144 11.017 5.43022C11.017 5.23964 10.9824 4.95377 10.8871 4.6679C10.7918 4.28674 10.6012 3.94023 10.35 3.715C10.9824 3.04797 11.3982 2.28565 11.3982 1.65327C11.3982 0.449158 9.90819 0.0679986 8.03704 0.830317L7.65589 0.986246C7.65589 0.986246 6.96287 0.293229 6.92822 0.293229C4.87515 -1.54327 -1.68252 5.77673 0.405197 7.55258L0.846995 7.93374C0.717054 8.25426 0.691066 8.60077 0.717054 8.98193C0.777693 9.45838 1.03757 9.93483 1.41007 10.316C1.79123 10.6625 2.29367 10.8877 2.80477 10.8877C3.62772 12.7935 5.49887 13.9283 7.68187 13.9976C10.0295 14.0583 12.0219 12.9495 12.8448 10.983C12.9055 10.8531 13.1307 10.2207 13.1307 9.64896C13.1827 9.06856 12.8622 8.85199 12.6369 8.85199ZM3.00401 10.342C2.94337 10.342 2.84808 10.3766 2.77878 10.342C2.08576 10.3073 1.28879 9.67495 1.22815 8.91263C1.16752 8.08967 1.57466 7.45729 2.33698 7.2927C2.43227 7.25805 2.52756 7.25805 2.6575 7.25805C3.07331 7.2927 3.70569 7.60456 3.86162 8.52281C3.9829 9.38908 3.80098 10.212 3.00401 10.342ZM2.2157 6.79026C1.73925 6.88555 1.33211 7.13677 1.07223 7.51793C0.916296 7.38799 0.630427 7.13677 0.595776 7.04148C0.179966 6.27916 1.03757 4.76319 1.64396 3.93157C3.0993 1.84386 5.41224 0.258579 6.46043 0.535785C6.65101 0.596424 7.22275 1.26345 7.22275 1.26345C7.22275 1.26345 6.14857 1.86984 5.16102 2.6928C3.82697 3.68035 2.81343 5.17034 2.2157 6.79026ZM9.69162 10.0215L9.72627 9.9868C9.72627 9.95215 9.69162 9.95215 9.69162 9.95215C9.69162 9.95215 8.5828 10.1081 7.53461 9.72692C7.66455 9.34576 7.95042 9.4757 8.4182 9.53634C9.24116 9.59698 10.0035 9.4757 10.5406 9.31111C11.017 9.18117 11.6494 8.8953 12.1258 8.52281C12.2818 8.86931 12.3511 9.28512 12.3511 9.28512C12.3511 9.28512 12.481 9.25047 12.5763 9.31977C12.6716 9.38041 12.7322 9.51035 12.7062 9.83087C12.611 10.4633 12.3251 10.9397 11.9179 11.4162C11.6667 11.702 11.3115 11.9532 10.9391 12.1438C10.7485 12.2391 10.5232 12.3344 10.3067 12.395C8.59146 12.9321 6.8849 12.3604 6.34782 11.061C6.31317 10.9657 6.25253 10.8704 6.25253 10.7405C6.0273 9.88285 6.21787 8.86931 6.85892 8.23693C6.89357 8.20228 6.91955 8.14165 6.91955 8.08101C6.91955 8.02037 6.8849 7.98572 6.85892 7.95107C6.63368 7.63055 5.88003 7.09346 6.03596 6.04527C6.13125 5.28295 6.79828 4.78051 7.396 4.8065H7.55193C7.80315 4.8065 8.06303 4.86714 8.24495 4.86714C8.59146 4.86714 8.93797 4.83249 9.31913 4.52063C9.44907 4.42534 9.54436 4.33005 9.73493 4.2954C9.76959 4.2954 9.79557 4.26075 9.89086 4.2954C9.98615 4.2954 10.0814 4.33005 10.1421 4.39069C10.4626 4.61592 10.4886 5.08371 10.5232 5.46487C10.5232 5.6901 10.5579 6.19253 10.5579 6.32248C10.5925 6.643 10.6532 6.70364 10.8438 6.76427C10.9391 6.79892 11.0343 6.82491 11.1643 6.85956C11.5801 6.9895 11.8313 7.08479 11.9872 7.24072C12.0825 7.33601 12.1172 7.4313 12.1432 7.52659C12.2038 7.8731 11.8573 8.3149 10.9997 8.73071C10.0468 9.17251 8.93797 9.2678 8.14966 9.17251L7.86379 9.13786C7.23141 9.04257 6.8849 9.86552 7.2574 10.4026C7.50862 10.7491 8.17565 11.009 8.80803 11.009C10.3327 11.009 11.5021 10.3766 11.9179 9.80489L11.9526 9.74425C11.9872 9.70959 11.9526 9.68361 11.9179 9.7096C11.5714 9.96081 9.98615 10.9137 8.30559 10.6278C8.30559 10.6278 8.11501 10.5932 7.92443 10.5326C7.7685 10.4719 7.48263 10.342 7.41333 10.0215C8.83401 10.4373 9.69162 10.0215 9.69162 10.0215ZM4.93579 3.94023C5.44689 3.33384 6.10526 2.79675 6.677 2.51088C6.71165 2.51088 6.71165 2.51088 6.71165 2.54554C6.677 2.64083 6.58171 2.79675 6.55572 2.92669C6.55572 2.96134 6.59037 2.96134 6.59037 2.96134C6.93688 2.71013 7.56926 2.45024 8.11501 2.42426C8.14966 2.42426 8.14966 2.45891 8.14966 2.45891C8.05437 2.51955 7.99373 2.61484 7.89844 2.71013C7.89844 2.71013 7.89844 2.74478 7.93309 2.74478C8.31425 2.74478 8.85134 2.87472 9.19785 3.09128C9.2325 3.09128 9.19785 3.15193 9.1632 3.15193C8.62611 3.02198 7.7685 2.92669 6.85025 3.15193C6.0273 3.3425 5.42091 3.66302 4.97911 3.97488C4.93579 3.96622 4.90981 3.96622 4.93579 3.94023Z" fill="black"/>
<path d="M75.266 4.02783C73.9754 4.02783 73.394 4.96382 73.1387 5.53109C72.9827 5.89982 72.9827 5.99909 72.8835 5.99909C72.7275 5.99909 72.8267 5.6871 72.9402 5.3751C73.0962 4.69437 72.9969 4.18383 72.9969 4.18383H71.1816V12.9056H73.6776V10.1543C73.9896 10.6791 74.5143 11.1896 75.3369 11.1896C77.1522 11.1896 78.0314 9.68635 78.0314 7.61581C78.0172 5.27582 76.9252 4.02783 75.266 4.02783ZM74.5994 9.53035C74.0322 9.53035 73.6067 8.80708 73.6067 7.81436C73.6067 6.82163 74.018 6.09836 74.5994 6.09836C75.2802 6.09836 75.5922 6.72236 75.5922 7.81436C75.578 8.96308 75.3227 9.53035 74.5994 9.53035Z" fill="black"/>
<path d="M25.9276 4.02782C24.8356 4.02782 24.3251 4.90708 24.0556 5.43181C23.8996 5.74381 23.8996 5.99908 23.7436 5.99908C23.5876 5.99908 23.6869 5.78635 23.5876 5.31835C23.4316 4.69436 22.9069 4.02782 21.8291 4.02782C20.6945 4.02782 20.1698 5.02054 19.9571 5.53108C19.8011 5.8998 19.8011 5.99908 19.7018 5.99908C19.5458 5.99908 19.6451 5.68708 19.7585 5.37508C19.9145 4.69436 19.8153 4.18381 19.8153 4.18381H18V11.0336H20.4393V7.6158C20.4393 6.93507 20.6945 6.11253 21.2193 6.11253C21.7865 6.11253 21.9 6.5238 21.9 7.3038V11.0336H24.396V7.6158C24.396 6.9918 24.6512 6.11253 25.176 6.11253C25.7432 6.11253 25.8567 6.73653 25.8567 7.3038V10.9911H28.2392V6.94925C28.2109 5.17654 27.5869 4.02782 25.9276 4.02782ZM68.0616 4.02782C66.9696 4.02782 66.459 4.90708 66.1896 5.43181C66.0336 5.74381 66.0336 5.99908 65.8776 5.99908C65.7216 5.99908 65.8209 5.74381 65.7216 5.31835C65.5089 4.69436 65.0976 4.02782 63.9631 4.02782C62.8285 4.02782 62.3038 5.02054 62.0911 5.53108C61.9351 5.8998 61.9351 5.99908 61.8358 5.99908C61.6798 5.99908 61.7791 5.68708 61.8925 5.37508C62.0485 4.69436 61.9492 4.18381 61.9492 4.18381H60.134V11.0336H62.63V7.6158C62.63 6.93507 62.8852 6.11253 63.41 6.11253C63.9772 6.11253 64.0907 6.5238 64.0907 7.3038V11.0336H66.5867V7.6158C66.5867 6.9918 66.8419 6.11253 67.3667 6.11253C67.9339 6.11253 68.0474 6.73653 68.0474 7.3038V10.9911H70.4867V6.94925C70.3448 5.17654 69.7208 4.02782 68.0616 4.02782ZM32.4654 4.02782C30.5508 4.02782 29.1894 4.70854 29.1894 4.70854V6.77908C29.1894 6.77908 30.6927 5.89981 31.9407 5.89981C32.9334 5.89981 33.0327 6.42453 32.9759 6.89253C32.9759 6.89253 32.7207 6.8358 31.8414 6.8358C29.8134 6.8358 28.7781 7.7718 28.7781 9.21833C28.7781 10.6223 29.9127 11.1896 30.9054 11.1896C32.3094 11.1896 32.9334 10.2536 33.1319 9.7856C33.2879 9.47361 33.2879 9.26088 33.3872 9.26088C33.5432 9.26088 33.4865 9.41688 33.4865 9.72888C33.4865 10.2536 33.4865 10.6649 33.5857 11.0194H35.4719V7.64416C35.4152 5.53108 34.6919 4.02782 32.4654 4.02782ZM31.8414 9.43106C31.2741 9.58706 30.9621 9.37433 30.9621 9.01979C30.9621 8.49507 31.5294 8.23979 32.3094 8.23979C32.6781 8.23979 32.9901 8.29652 32.9901 8.29652C32.9759 8.49507 32.4654 9.27506 31.8414 9.43106ZM39.5137 2.11328H42.0097V11.0336H39.5137C39.5137 10.9911 39.5137 2.11328 39.5137 2.11328ZM44.761 7.6158C44.761 6.9918 45.3282 6.42453 46.3635 6.42453C47.498 6.42453 48.434 6.9918 48.6468 7.10525V4.70854C48.6468 4.70854 47.9235 4.02782 46.1508 4.02782C44.2788 4.02782 42.733 5.11981 42.733 7.50235C42.733 9.88488 44.137 11.1896 46.1508 11.1896C47.7108 11.1896 48.6893 10.3103 48.6893 10.3103V8.02707C48.3773 8.18307 47.5548 8.75034 46.406 8.75034C45.1722 8.80707 44.761 8.2398 44.761 7.6158ZM53.6813 4.02782C52.2347 4.02782 51.71 5.37508 51.6107 5.63035C51.5115 5.88562 51.4547 5.99908 51.3555 5.99908C51.1995 5.99908 51.2987 5.68708 51.3555 5.53108C51.4547 5.16235 51.7242 4.28309 51.7242 3.14855C51.7242 2.36855 51.6249 2.11328 51.6249 2.11328H49.4977V11.0336H51.9936V7.6158C51.9936 7.04853 52.2064 6.11253 52.8304 6.11253C53.3551 6.11253 53.5111 6.48126 53.5111 7.24707V11.0336H56.0071V7.40307C55.9078 5.64454 55.6525 4.02782 53.6813 4.02782ZM56.7445 4.18381V11.0336H59.2405V4.18381C59.2405 4.18381 58.8293 4.43909 57.9925 4.43909C57.1558 4.39654 56.7445 4.18381 56.7445 4.18381Z" fill="black"/>
<path d="M57.9925 3.98544C58.8228 3.98544 59.4958 3.54099 59.4958 2.99272C59.4958 2.44446 58.8228 2 57.9925 2C57.1623 2 56.4893 2.44446 56.4893 2.99272C56.4893 3.54099 57.1623 3.98544 57.9925 3.98544Z" fill="black"/>
<path d="M36.251 4.18408V11.0339H38.7328V4.18408C38.7328 4.18408 38.3215 4.43936 37.4848 4.43936C37.4848 4.39681 36.251 4.18408 36.251 4.18408Z" fill="black"/>
<path d="M37.4857 3.98544C38.3159 3.98544 38.9889 3.54099 38.9889 2.99272C38.9889 2.44446 38.3159 2 37.4857 2C36.6555 2 35.9824 2.44446 35.9824 2.99272C35.9824 3.54099 36.6555 3.98544 37.4857 3.98544Z" fill="black"/>
</svg>
