<svg width="87" height="14" viewBox="0 0 87 14" fill="none" xmlns="http://www.w3.org/2000/svg">
<path d="M7.27531 11.0711C9.89958 11.0711 11.9264 9.09121 11.9264 6.64268C11.9264 4.35816 10.0167 2.9523 8.76318 2.9523C7.00586 2.9523 5.6 4.18243 5.40084 6.01004C5.36569 6.34979 5.09623 6.63096 4.75648 6.63096C4.19414 6.63096 3.36234 6.61925 2.84686 6.61925C2.62427 6.61925 2.43682 6.44351 2.44854 6.20921C2.53054 4.62761 3.05774 3.13975 4.06527 2.00335C5.18996 0.738076 6.83012 0 8.77489 0C12.0318 0 15.113 2.9523 15.113 6.63096C15.113 10.708 11.7389 14 7.35732 14C4.241 14 1.08954 11.9615 0 9.11464C0 9.10293 0 9.09121 0 9.0795C0.0117155 8.99749 0.0468617 8.91548 0.0702927 8.84519C0.117155 8.73975 0.152301 8.62259 0.152301 8.50544L0.12887 8.10711C0.117155 7.90795 0.23431 7.73222 0.410042 7.65021L0.574059 7.57991C0.749791 7.49791 0.878661 7.33389 0.913807 7.13473C0.972385 6.84184 1.21841 6.63096 1.52301 6.63096C1.99163 6.63096 2.38996 6.93556 2.54226 7.38075C3.2569 9.51297 4.41674 11.0711 7.27531 11.0711Z" fill="#FB6970"/>
<path d="M80.2431 4.04122C79.4482 4.04122 79.2097 3.55522 79.2097 3.02061C79.2097 2.45361 79.4005 2 80.2431 2C81.0698 2 81.2765 2.45361 81.2765 3.02061C81.2765 3.55522 81.0698 4.04122 80.2431 4.04122ZM65.8548 10.6671V6.69804H64.7419V6.22824C64.7419 5.72604 65.1394 5.32103 65.6323 5.32103H65.8389V3.63622L67.6196 3.13401V5.32103H69.2253V5.79083C69.2253 6.29304 68.8279 6.69804 68.335 6.69804H67.6196V10.4403C67.6196 11.0235 67.9376 11.2179 68.3509 11.2827C68.8438 11.3637 69.2412 11.7201 69.2412 12.2223V12.9027C67.5719 12.9027 65.8548 12.8379 65.8548 10.6671ZM30.8302 5.15903C29.0495 5.11043 26.8714 6.26064 26.8714 9.11186C26.8714 11.9145 29.0495 13.0323 30.8302 12.9837C32.6585 13.0323 34.8207 11.9145 34.8207 9.11186C34.8207 6.24444 32.6585 5.11043 30.8302 5.15903ZM30.8461 11.5743C29.5583 11.5743 28.6362 10.6185 28.6362 9.04706C28.6362 7.55665 29.5583 6.56844 30.8461 6.56844C32.1339 6.56844 33.0401 7.55665 33.0401 9.04706C33.0401 10.6185 32.1339 11.5743 30.8461 11.5743ZM39.4949 5.17523C41.0371 5.17523 42.6429 5.61264 42.6429 8.69066V12.8217H41.6571C41.1643 12.8217 40.7668 12.4167 40.7668 11.9145V8.52866C40.7668 7.05445 40.2422 6.50364 39.3041 6.50364C38.7954 6.50364 38.1277 6.90865 37.8097 7.23265V11.9145C37.8097 12.4167 37.4122 12.8217 36.9194 12.8217H36.0131V5.35343H37.0147C37.3645 5.35343 37.6825 5.59643 37.762 5.95284C38.2071 5.45063 38.8113 5.17523 39.4949 5.17523ZM44.6779 5.33723C45.0594 5.33723 45.3933 5.58024 45.5205 5.93664L47.1422 10.5699L48.7638 5.93664C48.891 5.58024 49.2249 5.33723 49.6065 5.33723H50.8942L48.2551 12.2385C48.1279 12.5949 47.794 12.8217 47.4283 12.8217H46.2995L43.3901 5.33723H44.6779ZM57.8896 12.4491C57.3332 12.6759 56.1885 12.9837 55.012 12.9837C52.9293 12.9837 51.3394 11.7687 51.3394 9.01467C51.3394 6.53604 52.8816 5.22383 54.7576 5.22383C57.0788 5.22383 58.0645 6.81144 57.9691 8.96606C57.9532 9.41967 57.5717 9.74367 57.1265 9.74367H53.12C53.2154 10.9425 54.074 11.5743 55.2187 11.5743C55.6638 11.5743 56.1408 11.5581 56.6972 11.4447C57.3014 11.3313 57.8896 11.7687 57.8896 12.3843V12.4491ZM56.3634 8.48006C56.4906 7.29745 55.6956 6.64944 54.7576 6.64944C53.8196 6.64944 53.1836 7.36225 53.12 8.48006H56.3634ZM60.338 5.35343C60.6719 5.35343 60.974 5.59644 61.0535 5.92044C61.6576 5.45063 62.4207 5.15903 62.9454 5.15903C62.9931 5.15903 63.2793 5.15903 63.7403 5.22383V6.01764C63.7403 6.45504 63.3747 6.77904 62.9454 6.77904C62.4525 6.77904 61.753 6.95725 61.1806 7.28125V12.8055H59.3682V5.33723L60.338 5.35343ZM81.1652 11.8983V5.33723H80.2749C79.782 5.33723 79.3846 5.74224 79.3846 6.24444V12.8055H80.2749C80.7677 12.8055 81.1652 12.4005 81.1652 11.8983ZM83.5977 10.6833V6.71424H82.4053V6.24444C82.4053 5.74224 82.8028 5.33723 83.2956 5.33723H83.5977V3.65242L85.3783 3.15021V5.33723H86.9841V5.80703C86.9841 6.30924 86.5866 6.71424 86.0938 6.71424H85.3783V10.4565C85.3783 11.0397 85.6963 11.2341 86.1097 11.2989C86.6025 11.3799 87 11.7363 87 12.2385V12.9189C85.3148 12.9189 83.5977 12.8541 83.5977 10.6833ZM18 7.55665C18.0159 4.05742 20.6074 2.1134 23.0876 2.1134C24.4707 2.1134 25.7267 2.42121 26.776 3.16641L26.3627 3.74962C26.0765 4.13842 25.5518 4.30042 25.1067 4.12222C24.4866 3.86302 23.8825 3.81442 23.4532 3.81442C21.4182 3.81442 19.8919 5.14283 19.876 7.55665C19.8919 9.97048 21.4182 11.3151 23.4532 11.3151C23.8984 11.3151 24.4866 11.2665 25.1067 11.0073C25.5518 10.8291 26.0924 10.9587 26.3627 11.3637L26.776 11.9469C25.7426 12.7083 24.4707 12.9999 23.0876 12.9999C20.6074 13.0161 18.0159 11.0559 18 7.55665ZM71.4512 2.162C71.944 2.162 72.3415 2.56701 72.3415 3.06921V7.23265L75.9982 2.56701C76.173 2.3402 76.4274 2.1944 76.7136 2.1944H78.3353L74.2016 7.49185L78.3353 12.7893H76.7136C76.4274 12.7893 76.1571 12.6597 75.9982 12.4167L72.3415 7.75105V11.8821C72.3415 12.3843 71.944 12.7893 71.4512 12.7893H70.5131V2.1458H71.4512V2.162Z" fill="#212F4F"/>
</svg>
