<svg width="49" height="14" viewBox="0 0 49 14" fill="none" xmlns="http://www.w3.org/2000/svg">
<path d="M48.5148 13.7309C47.5622 13.736 46.6095 13.7411 45.6568 13.7309C45.5656 13.7309 45.449 13.6347 45.3984 13.5485C44.6991 12.4742 44.015 11.3999 43.3207 10.3206C43.2751 10.2496 43.2295 10.1838 43.1434 10.0571C43.0927 11.3391 43.0775 12.5452 43.6299 13.7157C42.5556 13.7157 41.5218 13.7157 40.4982 13.7157C40.5945 13.3661 40.711 13.0367 40.7769 12.6921C40.8326 12.4033 40.858 12.1094 40.858 11.8155C40.863 9.74797 40.863 7.6754 40.863 5.60283C40.863 4.62989 40.8326 4.53868 40.1992 3.79377C41.3495 3.35797 42.216 2.54719 43.042 1.68066C43.0674 1.6908 43.0876 1.70093 43.113 1.71107C43.113 4.38159 43.113 7.05211 43.113 9.72263C43.1383 9.7277 43.1586 9.73783 43.1839 9.7429C43.5741 9.33244 43.9694 8.92198 44.3596 8.51152C44.5623 8.29869 44.7649 8.08079 44.9676 7.86796C45.4795 7.33082 45.4997 6.7582 45.0234 6.18052C45.0031 6.15518 44.993 6.12478 44.9575 6.06904C45.9355 6.06904 46.8882 6.06904 47.8662 6.06904C47.3139 6.45922 46.7564 6.80888 46.2548 7.21934C45.743 7.63993 45.2869 8.13147 44.7903 8.60274C45.0234 8.96252 45.2413 9.31217 45.4693 9.65169C46.1078 10.6196 46.7412 11.5925 47.3949 12.5553C47.6888 12.986 48.0436 13.3712 48.5148 13.6245C48.5148 13.6651 48.5148 13.7005 48.5148 13.7309Z" fill="black"/>
<path d="M4.76336 0.0489595C5.36131 0.185779 5.90859 0.601306 6.13156 1.17899C6.31398 1.65533 6.26331 2.20261 6.03528 2.6536C5.78191 3.15021 5.29037 3.52013 4.73802 3.61641C4.10966 3.72283 3.6536 3.43905 3.233 3.00832C2.97457 2.74482 2.72119 2.48131 2.31074 2.608C1.96108 2.71948 1.70771 3.04886 1.68744 3.41878C1.65197 3.96099 1.93068 4.4424 2.48303 4.63496C2.86308 4.77178 3.28368 4.82752 3.68907 4.86299C4.12993 4.89846 4.57586 4.87313 5.01673 4.87313C5.01166 5.29879 4.98632 5.32919 4.6164 5.32919C4.28196 5.32919 3.94244 5.32919 3.56745 5.32919C3.56745 5.43054 3.56745 5.52175 3.56745 5.6079C3.56745 7.645 3.56745 9.67702 3.56745 11.7141C3.56745 12.2411 3.62319 12.758 3.92724 13.2141C4.04379 13.3864 4.19581 13.5283 4.36303 13.7157C3.12152 13.7157 1.91041 13.7157 0.684099 13.7157C0.689167 13.6853 0.684099 13.6448 0.704369 13.6245C1.17564 13.0671 1.31752 12.3982 1.31752 11.6939C1.32259 9.64155 1.31752 7.58925 1.31752 5.53696C1.31752 5.48122 1.30739 5.42041 1.30232 5.32413C0.881728 5.32413 0.466201 5.32413 0 5.32413C0.0709436 5.21771 0.106415 5.1569 0.146955 5.11129C0.62329 4.55895 0.962806 3.92552 1.25165 3.25663C1.49995 2.67894 1.77359 2.11139 2.0827 1.56411C2.48809 0.854676 3.17219 0.200982 3.99818 0.0388247C4.24142 -0.0169168 4.50999 -0.0118494 4.76336 0.0489595Z" fill="black"/>
<path d="M26.8366 13.7208C25.8383 13.7208 24.84 13.7208 23.8113 13.7208C23.8113 13.4066 23.8113 13.0823 23.8113 12.6972C23.6593 12.8543 23.563 12.9658 23.4566 13.0671C21.8756 14.6481 19.2861 14.1566 18.4956 12.0688C17.8166 10.2851 18.0041 8.55713 19.2507 7.03691C19.9196 6.22106 20.8418 5.82073 21.8806 5.75992C22.4786 5.72445 23.0867 5.79539 23.7302 5.82073C23.7353 5.13663 23.8215 4.37145 23.0208 3.81404C24.2268 3.35797 25.0883 2.54212 25.9194 1.68066C25.9447 1.6908 25.97 1.70093 25.9903 1.71107C25.9903 1.80228 25.9903 1.89856 25.9903 1.98978C25.9903 4.80218 25.9751 7.60952 26.0004 10.4219C26.0055 11.106 26.1018 11.7952 26.2031 12.4742C26.2639 12.8847 26.4616 13.2546 26.7707 13.5536C26.8011 13.584 26.8264 13.6195 26.8467 13.6499C26.8467 13.6651 26.8366 13.6853 26.8366 13.7208ZM23.7353 9.95573C23.7353 9.40339 23.7404 8.84597 23.7353 8.29362C23.7302 7.76155 23.6796 7.2396 23.4211 6.75313C22.9752 5.91701 22.0327 5.80046 21.4347 6.54537C21.2117 6.81901 21.0395 7.15853 20.933 7.49297C20.5428 8.71929 20.5327 9.97093 20.7557 11.2327C20.8013 11.4962 20.8824 11.7547 20.9837 12.003C21.4651 13.133 22.6762 13.361 23.5427 12.4844C23.6492 12.3779 23.7252 12.2006 23.7302 12.0486C23.7454 11.3493 23.7353 10.655 23.7353 9.95573Z" fill="black"/>
<path d="M13.2915 5.72953C15.5769 5.7194 17.5329 7.62474 17.5329 9.8696C17.538 12.0891 15.6022 13.9793 13.327 13.9894C11.0264 13.9945 9.08049 12.1449 9.07035 9.93548C9.06022 7.63488 10.9656 5.73967 13.2915 5.72953ZM11.5838 10.1534C11.6091 10.4422 11.6395 10.9996 11.7206 11.5469C11.8118 12.1651 11.974 12.7682 12.4098 13.2496C12.9165 13.812 13.6564 13.8424 14.153 13.2749C14.3911 13.0063 14.5837 12.6617 14.6901 12.3222C15.1259 10.9388 15.1006 9.52502 14.8725 8.11121C14.7864 7.55887 14.6192 7.03185 14.2695 6.58086C13.7324 5.88662 12.8709 5.88155 12.3439 6.58592C12.1868 6.79875 12.0652 7.04706 11.9689 7.29536C11.6446 8.12135 11.6041 9.00307 11.5838 10.1534Z" fill="black"/>
<path d="M33.8755 9.13968C32.2438 9.13968 30.6425 9.13968 29.0057 9.13968C29.031 10.1582 29.1628 11.1616 30.0496 11.7798C31.3772 12.7021 32.6593 12.3423 33.9008 11.3795C33.8704 11.5112 33.8653 11.5923 33.8349 11.6734C33.1964 13.4216 31.7269 14.1463 30.0344 13.9588C27.9871 13.7307 26.624 12.0028 26.7304 9.77818C26.7963 8.38464 27.3334 7.21914 28.4989 6.39822C29.9229 5.39487 31.7978 5.53169 32.938 6.71746C33.5816 7.38129 33.8957 8.18194 33.8755 9.13968ZM29.0158 8.73429C29.705 8.73429 30.3638 8.72922 31.0174 8.73429C31.7624 8.74442 31.6255 8.69375 31.6154 8.11607C31.6053 7.58399 31.5546 7.05698 31.3012 6.57558C31.0174 6.03337 30.3891 5.89654 29.9128 6.28167C29.7557 6.41342 29.6138 6.58571 29.5175 6.76307C29.1729 7.38129 29.0614 8.05526 29.0158 8.73429Z" fill="black"/>
<path d="M9.23282 13.7209C7.9305 13.7209 6.67885 13.7209 5.39173 13.7209C5.4272 13.6449 5.44747 13.5892 5.47788 13.5435C5.88834 12.9 6.0657 12.1906 6.0657 11.4355C6.07076 9.63658 6.0657 7.83765 6.0657 6.03873C6.0657 5.43064 5.93901 4.86816 5.43227 4.4577C5.40187 4.43236 5.39173 4.39182 5.36133 4.33101C6.54203 3.90028 7.40856 3.06416 8.25482 2.1875C8.27508 2.19763 8.29535 2.20777 8.31562 2.2179C8.32069 2.31418 8.32576 2.4054 8.32576 2.50168C8.32576 5.43571 8.32069 8.36973 8.33083 11.3038C8.33083 11.6787 8.3967 12.0588 8.47271 12.4237C8.56393 12.8493 8.77169 13.2243 9.08587 13.5334C9.13654 13.579 9.16695 13.6348 9.23282 13.7209Z" fill="black"/>
<path d="M39.7381 7.93886C39.6671 7.83751 39.6164 7.76657 39.5658 7.70069C39.2009 7.16861 38.7905 6.68214 38.228 6.34263C37.8276 6.10446 37.402 5.94737 36.9307 6.04872C36.4442 6.15513 36.1909 6.49972 36.0845 6.95072C35.9831 7.37638 36.0895 7.75643 36.4594 7.9946C36.8395 8.23784 37.255 8.42026 37.6604 8.63309C38.228 8.927 38.8361 9.15504 39.3479 9.52496C40.1992 10.1381 40.4323 11.0401 40.2448 12.0384C40.0674 12.9911 39.4137 13.5282 38.5168 13.7866C37.2196 14.1616 35.9476 13.964 34.696 13.5485C34.6403 13.5282 34.5693 13.4522 34.5642 13.3965C34.5237 12.7326 34.4933 12.0688 34.4629 11.41C34.4629 11.3948 34.4781 11.3847 34.5085 11.334C34.5744 11.405 34.6301 11.4607 34.6859 11.5215C35.1419 12.0283 35.5676 12.5654 36.0642 13.0265C36.3581 13.2951 36.7483 13.4927 37.1283 13.6194C37.6351 13.7917 38.1368 13.5333 38.3851 13.0721C38.6739 12.5451 38.6131 11.9472 38.1925 11.5975C37.9391 11.3847 37.6402 11.2175 37.3412 11.0654C36.88 10.8273 36.3834 10.6449 35.9274 10.3965C34.7517 9.74792 34.2602 8.67363 34.5693 7.48279C34.8125 6.54026 35.4966 6.06899 36.3885 5.86122C37.4223 5.62306 38.4459 5.71934 39.4594 6.01325C39.5303 6.03352 39.6316 6.11459 39.6367 6.18047C39.7026 6.72268 39.7482 7.26996 39.7938 7.81217C39.7989 7.83244 39.7735 7.86285 39.7381 7.93886Z" fill="black"/>
</svg>
