<svg width="70" height="14" viewBox="0 0 70 14" fill="none" xmlns="http://www.w3.org/2000/svg">
<path d="M23.5993 10.2366H18.5054L17.1803 13.1269H15.2461L21.1333 0.47998L26.8124 13.1269H24.8478L23.5993 10.2366ZM22.8676 8.5495L21.1026 4.50341L19.253 8.5495H22.8676Z" fill="#0079C1"/>
<path d="M26.5163 1.2274L29.6147 9.18084L32.8514 0.649414L35.9493 9.18084L39.2398 1.2274H41.1898L35.8722 13.8815L32.8127 5.45122L29.6223 13.8894L24.5674 1.2274H26.5163Z" fill="#0079C1"/>
<path d="M46.8051 9.78171H41.4261C41.4721 10.399 41.6725 10.8893 42.0268 11.2538C42.381 11.613 42.8362 11.7932 43.391 11.7932C43.8224 11.7932 44.1796 11.6908 44.4622 11.4848C44.74 11.2801 45.0551 10.8996 45.4099 10.3442L46.8737 11.1613C46.6483 11.5468 46.4086 11.8763 46.158 12.1515C45.9053 12.4261 45.6359 12.6524 45.3484 12.8301C45.0608 13.0072 44.7497 13.1372 44.4155 13.2193C44.0819 13.3013 43.7202 13.3417 43.3297 13.3417C42.2095 13.3417 41.3104 12.9825 40.6321 12.2633C39.9542 11.5387 39.6152 10.5785 39.6152 9.38162C39.6152 8.19508 39.9437 7.23348 40.6012 6.4994C41.2644 5.77425 42.1427 5.41211 43.2365 5.41211C44.3413 5.41211 45.2147 5.76447 45.8565 6.46866C46.4939 7.16668 46.8126 8.13498 46.8126 9.37423L46.8051 9.78171ZM45.0247 8.36353C44.783 7.43936 44.1997 6.97659 43.2757 6.97659C43.065 6.97659 42.867 7.0087 42.6819 7.07344C42.4975 7.13715 42.3283 7.22987 42.1775 7.35059C42.0256 7.4713 41.8963 7.61657 41.7883 7.7864C41.6804 7.95536 41.5977 8.14854 41.5413 8.36353H45.0247Z" fill="#0079C1"/>
<path d="M49.8471 0.110352V6.49141C50.5406 5.77193 51.3271 5.41219 52.2045 5.41219C53.217 5.41219 54.0601 5.78961 54.7327 6.54533C55.4061 7.29554 55.7427 8.2307 55.7427 9.35096C55.7427 10.5068 55.4039 11.4617 54.7256 12.2174C54.0517 12.9674 53.202 13.3424 52.1741 13.3424C51.306 13.3424 50.5296 13.0078 49.8471 12.3405V13.1268H48.1133V0.110352H49.8471ZM53.9704 9.42754C53.9704 8.70823 53.7747 8.12286 53.3844 7.66988C52.9884 7.20849 52.4928 6.97667 51.8968 6.97667C51.2599 6.97667 50.7412 7.20059 50.3402 7.64721C49.9446 8.08903 49.7473 8.6641 49.7473 9.37363C49.7473 10.1029 49.942 10.6864 50.3332 11.1227C50.7235 11.5695 51.2369 11.7932 51.8743 11.7932C52.4748 11.7932 52.9733 11.5695 53.3689 11.1227C53.7699 10.6709 53.9704 10.1055 53.9704 9.42754Z" fill="#0079C1"/>
<path d="M63.7538 9.78171H58.3747C58.4207 10.399 58.6216 10.8893 58.9755 11.2538C59.3303 11.613 59.7848 11.7932 60.34 11.7932C60.7717 11.7932 61.1292 11.6908 61.4113 11.4848C61.6883 11.2801 62.0039 10.8996 62.359 10.3442L63.8229 11.1613C63.5969 11.5468 63.3578 11.8763 63.1073 12.1515C62.8546 12.4261 62.585 12.6524 62.2972 12.8301C62.0087 13.0072 61.6988 13.1372 61.3648 13.2193C61.0306 13.3013 60.6685 13.3417 60.278 13.3417C59.1581 13.3417 58.2595 12.9825 57.5812 12.2633C56.9024 11.5387 56.5635 10.5785 56.5635 9.38162C56.5635 8.19508 56.8928 7.23348 57.5505 6.4994C58.213 5.77425 59.0916 5.41211 60.1858 5.41211C61.2901 5.41211 62.1634 5.76447 62.8056 6.46866C63.4422 7.16668 63.7617 8.13498 63.7617 9.37423L63.7538 9.78171ZM61.9735 8.36353C61.7317 7.43936 61.1493 6.97659 60.2244 6.97659C60.0134 6.97659 59.8161 7.0087 59.631 7.07344C59.4459 7.13715 59.2776 7.22987 59.1263 7.35059C58.9742 7.4713 58.8454 7.61657 58.7369 7.7864C58.6292 7.95536 58.5469 8.14854 58.4906 8.36353H61.9735Z" fill="#0079C1"/>
<path d="M64.9902 5.6204H66.724V6.29146C67.0422 5.95696 67.3254 5.72841 67.5716 5.60512C67.8233 5.47633 68.1214 5.41211 68.4652 5.41211C68.9233 5.41211 69.4007 5.56167 69.8987 5.8596L69.1052 7.44675C68.7769 7.21081 68.4556 7.09181 68.142 7.09181C67.1969 7.09181 66.724 7.80649 66.724 9.23497V13.1267H64.9902V5.6204Z" fill="#0079C1"/>
<path d="M3.49695 0H3.33262C1.49236 0 0 1.49236 0 3.33262V10.6667C0 12.5076 1.49236 14 3.33262 14H3.70404C2.81422 11.8476 2.35385 9.52308 2.35385 6.71246C2.35385 4.14723 2.74193 1.9893 3.49695 0Z" fill="#0079C1"/>
<path d="M10.6659 0H6.00504C5.1408 1.95067 4.66602 4.08954 4.66602 6.71246C4.66602 9.59537 5.23782 11.9072 6.24338 14H10.6659C12.5073 14 13.9995 12.5076 13.9995 10.6667V3.33262C13.9995 1.49236 12.5073 0 10.6659 0ZM8.41041 13.0616C8.29519 13.1512 8.16657 13.1892 8.03727 13.1892C7.88273 13.1892 7.72836 13.1119 7.59975 12.9452C6.28699 11.1562 5.59138 9.4568 5.59138 7.02395C5.59138 4.60365 6.28699 2.91725 7.61314 1.14121C7.74175 0.973274 7.90849 0.896003 8.06355 0.896003C8.19164 0.896003 8.30755 0.934638 8.41041 1.01174C8.57852 1.11528 8.69425 1.26982 8.69425 1.44944C8.69425 1.5401 8.65493 1.64296 8.57852 1.74599C7.41945 3.29038 6.7374 4.8097 6.7374 7.02395C6.7374 9.26327 7.43233 10.8077 8.56495 12.3275C8.64205 12.4434 8.68068 12.5461 8.68068 12.6357C8.68068 12.8165 8.56495 12.9587 8.41041 13.0616ZM10.6475 10.5863C10.7014 10.6672 10.7282 10.739 10.7282 10.8015C10.7282 10.927 10.6475 11.0257 10.5395 11.0975C10.4586 11.1605 10.3691 11.1868 10.2795 11.1868C10.1724 11.1868 10.0638 11.1338 9.97438 11.0166C9.06 9.77069 8.57525 8.58655 8.57525 6.89208C8.57525 5.20619 9.06 4.03133 9.98348 2.79464C10.0731 2.67753 10.1895 2.62362 10.2975 2.62362C10.3875 2.62362 10.4679 2.65057 10.5395 2.70381C10.6559 2.77627 10.7368 2.88342 10.7368 3.00894C10.7368 3.07162 10.7098 3.14391 10.6559 3.21551C9.84868 4.29182 9.37389 5.35026 9.37389 6.89208C9.37389 8.45193 9.85864 9.52788 10.6475 10.5863Z" fill="#0079C1"/>
</svg>
