<svg width="90" height="14" viewBox="0 0 90 14" fill="none" xmlns="http://www.w3.org/2000/svg">
<path d="M0 4.66717L7.46672 0V6.53403L0 11.2004V4.66717Z" fill="#6EBF53"/>
<path d="M0 4.66699L8.40015 7.46654V13.9998L0 11.2003V4.66699Z" fill="#908E8E"/>
<path d="M6.81767 6.93922L0 4.66717L7.46672 0V6.53403L6.81767 6.93922Z" fill="#6EBF53"/>
<path d="M0 11.2003V4.66699L6.81767 6.93905L0 11.2003Z" fill="#62825B"/>
<path d="M79.6288 5.09194C79.634 4.19603 79.5732 3.29486 79.6648 2.40345C79.8576 1.59607 80.776 1.36646 81.4776 1.20514C81.4258 0.958275 81.3696 0.712911 81.3095 0.466797C80.4279 0.738423 79.2851 0.965779 78.9294 1.94498C78.624 2.96696 78.8341 4.04896 78.7531 5.09795C78.2766 5.08369 77.8009 5.08144 77.3252 5.1047C77.392 5.32605 77.452 5.55041 77.5375 5.76576C77.939 5.80177 78.3449 5.77626 78.7471 5.77101C78.7884 8.02806 78.7599 10.2874 78.7614 12.5444C79.048 12.5497 79.3354 12.5512 79.6235 12.5497C79.6258 10.2919 79.6033 8.03331 79.6348 5.77551C80.3446 5.78226 81.0529 5.78151 81.7628 5.77776C81.7117 5.54741 81.657 5.31855 81.6044 5.08819C80.9456 5.08894 80.2868 5.08594 79.6288 5.09194Z" fill="#868A8A"/>
<path d="M29.6607 6.53235C29.5736 6.01686 29.431 5.51487 29.3027 5.00914C28.6882 5.00464 28.0744 5.02264 27.4621 4.98888C27.4951 4.34133 27.3863 3.67277 27.5627 3.03872C27.9356 2.48947 28.683 2.47221 29.26 2.27862C29.1347 1.79615 29.0169 1.31142 28.9066 0.825195C27.9484 1.06606 26.8183 1.24989 26.2196 2.12555C25.7116 2.9937 25.9262 4.04644 25.8834 5.00163C25.4392 5.00914 24.9942 5.00914 24.5508 5.00839C24.6603 5.51862 24.7991 6.02286 24.923 6.53084C25.2419 6.53084 25.56 6.53234 25.8789 6.53385C25.8774 8.55153 25.8902 10.57 25.8721 12.5884C26.4019 12.6184 26.9346 12.6109 27.4659 12.5997C27.4614 10.7643 27.4711 8.92896 27.4614 7.09436C27.4591 6.90002 27.4959 6.70793 27.5364 6.51734C28.244 6.5436 28.9531 6.52859 29.6607 6.53235Z" fill="#75C04E"/>
<path d="M16.0613 12.5968C16.0523 8.98013 16.0605 5.3657 16.0583 1.74902C15.5308 1.9111 14.998 2.06492 14.4668 2.21724C14.4758 5.6801 14.4653 9.14221 14.472 12.6066C15.0018 12.6088 15.5315 12.6111 16.0613 12.5968Z" fill="#75C04E"/>
<path d="M46.6068 2.1792C46.0695 2.33002 45.5323 2.48909 44.9853 2.6024C44.9755 3.22744 44.98 3.85098 44.9785 4.47602C45.5188 4.31544 46.0583 4.16012 46.6023 4.0138C46.609 3.40227 46.6053 2.79073 46.6068 2.1792Z" fill="#75C04E"/>
<path d="M84.9586 11.8583C84.5031 11.7293 84.4589 11.1905 84.4679 10.7973C84.4791 9.1203 84.4349 7.44327 84.4904 5.76849C85.0547 5.7835 85.6204 5.78125 86.1862 5.78125C86.1231 5.54714 86.0586 5.31378 85.9948 5.08117C85.4846 5.09093 84.9751 5.09018 84.4664 5.08568C84.4634 4.12898 84.4664 3.17154 84.4649 2.21484C84.1775 2.27112 83.8961 2.3439 83.6177 2.42794C83.6267 3.31636 83.6305 4.20402 83.617 5.09093C83.1825 5.08718 82.7503 5.08718 82.3174 5.08868C82.3789 5.31678 82.4367 5.54564 82.493 5.776C82.8644 5.78125 83.2351 5.779 83.6072 5.773C83.6447 7.27594 83.617 8.77814 83.623 10.2818C83.6215 11.0097 83.5825 11.9176 84.2293 12.4068C84.9436 12.8488 85.8215 12.5539 86.6019 12.5066C86.5891 12.2605 86.5734 12.0136 86.5591 11.766C86.0301 11.8298 85.4899 11.9551 84.9586 11.8583Z" fill="#868A8A"/>
<path d="M67.2964 11.9463C66.1431 12.1421 64.9695 11.9635 63.841 11.7047C63.8965 11.968 63.9588 12.2314 64.0414 12.4895C65.3695 12.7244 66.7689 12.8692 68.0865 12.491C68.725 12.3177 69.185 11.7392 69.2525 11.0871C69.3463 10.3128 69.3778 9.30053 68.6162 8.83832C67.505 8.21928 66.1603 8.41888 64.9943 7.97992C64.3843 7.75407 64.3422 6.98421 64.4676 6.44396C64.5531 5.95023 65.0551 5.69436 65.5068 5.62908C66.5633 5.46625 67.64 5.59456 68.6875 5.75439C68.6275 5.50752 68.5637 5.26141 68.4909 5.01905C67.8749 4.96052 67.2656 4.83446 66.6451 4.85847C65.7874 4.84947 64.8187 4.88774 64.1344 5.47376C63.5589 5.96524 63.5536 6.79512 63.6279 7.48544C63.6587 7.96191 63.9588 8.40837 64.4053 8.5892C65.488 9.05442 66.7118 8.95838 67.8171 9.34406C68.5502 9.61793 68.5517 10.5529 68.3604 11.1824C68.2178 11.6431 67.7413 11.8787 67.2964 11.9463Z" fill="#868A8A"/>
<path d="M22.3308 12.6066C22.8673 12.6066 23.4015 12.6066 23.938 12.6058C23.9418 10.8125 23.9365 9.01843 23.9403 7.22435C23.9275 6.5753 23.8007 5.85796 23.3032 5.39575C22.8208 4.93879 22.1259 4.82699 21.4859 4.84875C20.6185 4.85475 19.7991 5.17815 19.0157 5.51731C18.7096 5.63961 18.7696 5.16314 18.6991 4.98681C18.2947 4.98531 17.8917 4.98756 17.4873 4.99656C17.506 7.51849 17.4618 10.0419 17.509 12.5631C18.032 12.6576 18.567 12.5878 19.096 12.6066C19.1073 10.7202 19.0803 8.83385 19.1088 6.94822C19.9649 6.61807 20.8691 6.2474 21.8063 6.38396C22.204 6.43498 22.3473 6.86718 22.3255 7.21609C22.336 9.01243 22.3248 10.8103 22.3308 12.6066Z" fill="#75C04E"/>
<path d="M41.6885 11.2197C40.4482 11.3601 39.1681 11.2197 38.002 10.7613C38.1596 11.336 38.2804 11.9206 38.4553 12.4901C39.6431 12.7527 40.8796 12.8893 42.0854 12.6679C42.6317 12.5659 43.202 12.3438 43.5359 11.8733C43.9321 11.3075 43.9861 10.5804 43.9358 9.91114C43.8975 9.34537 43.6252 8.76385 43.1067 8.48998C42.1297 7.93322 40.9607 8.01801 39.9057 7.72687C39.4592 7.60907 39.5298 7.06206 39.6221 6.7184C39.8502 6.3815 40.3026 6.37174 40.6688 6.34848C41.6412 6.33723 42.6422 6.37249 43.5606 6.72666C43.4496 6.1804 43.3018 5.6409 43.1659 5.1014C42.4321 4.93858 41.6825 4.84028 40.9299 4.86054C40.1488 4.86054 39.3009 4.96184 38.6631 5.45632C38.0996 5.90052 37.9315 6.66738 37.9675 7.3532C37.9923 7.94147 38.1799 8.60178 38.7254 8.91242C39.7309 9.5037 40.9592 9.34162 42.0299 9.7198C42.4344 9.85186 42.2888 10.3553 42.2955 10.6787C42.306 11.0021 41.9564 11.162 41.6885 11.2197Z" fill="#75C04E"/>
<path d="M44.9822 12.6068C45.5232 12.6068 46.065 12.6068 46.606 12.6068C46.6097 10.0196 46.603 7.43317 46.6082 4.84521C46.0687 4.99829 45.5315 5.16186 44.9852 5.29392C44.9732 7.73181 44.9807 10.1689 44.9822 12.6068Z" fill="#75C04E"/>
<path d="M57.218 12.6065C57.2232 10.7232 57.215 8.83978 57.2217 6.95566C58.0786 6.60525 58.9993 6.24058 59.944 6.38915C60.3289 6.45143 60.4542 6.88062 60.4437 7.21828C60.4542 9.01537 60.434 10.8132 60.4527 12.611C60.981 12.6058 61.507 12.6058 62.0345 12.6088C62.0795 11.0263 62.036 9.44381 62.0547 7.86208C62.0457 7.07572 62.0952 6.17755 61.5467 5.5405C61.053 4.93422 60.2164 4.80966 59.481 4.85093C58.5783 4.86594 57.7657 5.28538 56.9298 5.56752C56.8916 5.37543 56.8548 5.18409 56.8188 4.9905C56.4143 4.98675 56.0099 4.98675 55.6055 4.9905C55.6122 7.52968 55.604 10.0681 55.6092 12.6073C56.145 12.6065 56.6815 12.6065 57.218 12.6065Z" fill="#75C04E"/>
<path d="M30.4971 10.6727C30.5114 11.4681 30.9466 12.3062 31.7375 12.5629C33.0311 13.0318 34.3974 12.5171 35.5815 11.9783C35.622 12.1712 35.6573 12.3655 35.7158 12.5554C36.0947 12.6694 36.5082 12.5861 36.9006 12.6049C36.9074 10.0649 36.8961 7.52577 36.9059 4.98584C36.3746 4.98734 35.8434 4.98734 35.3121 4.98959C35.3384 6.85946 35.3061 8.72783 35.3294 10.5977C34.6038 10.9564 33.8062 11.1987 32.9935 11.2355C32.6274 11.264 32.1486 11.0974 32.1314 10.6682C31.9956 9.56522 32.1171 8.45095 32.0774 7.34494C32.0774 6.56082 32.0361 5.77446 32.1261 4.99409C31.5784 4.98659 31.0329 4.98734 30.4844 4.98659C30.4986 6.88122 30.4716 8.7781 30.4971 10.6727Z" fill="#75C04E"/>
<path d="M75.9868 10.7955C75.6896 11.4528 75.0308 11.8955 74.324 11.9885C73.3756 12.1273 72.2298 12.0546 71.577 11.2554C70.8514 10.3415 70.8889 9.09068 70.9504 7.98692C71.0082 7.02197 71.4749 5.94672 72.4827 5.66234C73.2915 5.43348 74.1987 5.41923 74.9806 5.75238C75.8472 6.13056 76.2089 7.11201 76.2959 7.99067C76.3552 8.92785 76.3845 9.92132 75.9868 10.7955ZM72.4962 4.91124C71.4952 5.09582 70.6353 5.83792 70.3419 6.81712C69.9562 8.14749 69.939 9.61667 70.4124 10.9275C70.7561 11.876 71.6633 12.5325 72.6485 12.6721C73.8018 12.8574 75.1261 12.7899 76.0641 12.017C76.9938 11.2194 77.1708 9.91381 77.1933 8.75903C77.1686 7.6335 76.996 6.36992 76.1188 5.5708C75.1321 4.71165 73.714 4.73191 72.4962 4.91124Z" fill="#868A8A"/>
<path d="M52.6559 10.76C52.1659 11.3392 51.333 11.2799 50.6502 11.2402C50.0792 11.2124 49.5764 10.8042 49.3783 10.2782C49.1075 9.58716 49.1577 8.82781 49.1847 8.10147C49.2208 7.42015 49.5036 6.64129 50.203 6.39968C50.843 6.20759 51.5634 6.19258 52.1906 6.43795C52.9215 6.7651 53.1098 7.65276 53.1511 8.3746C53.1646 9.17822 53.2074 10.1079 52.6559 10.76ZM53.4092 5.3567C52.4007 4.71815 51.1154 4.66337 49.9756 4.90649C48.9776 5.10308 48.1305 5.85418 47.8274 6.82513C47.4177 8.12548 47.4162 9.57666 47.8761 10.8628C48.2175 11.8315 49.1232 12.521 50.1272 12.6793C51.3683 12.8969 52.8172 12.7941 53.7784 11.89C54.6428 11.0061 54.8004 9.68471 54.7778 8.50141C54.7388 7.34587 54.4289 6.03951 53.4092 5.3567Z" fill="#75C04E"/>
<path d="M89.0844 11.6463C89.0844 12.092 88.7085 12.5497 88.175 12.5497C87.6572 12.5595 87.2686 12.1175 87.2686 11.6463C87.2686 10.9853 87.8118 10.7339 88.175 10.7339C88.4098 10.7339 89.0844 10.9057 89.0844 11.6463ZM88.9486 11.6538C88.9516 11.2111 88.6057 10.8772 88.1802 10.8772C87.7728 10.8772 87.4036 11.2111 87.4036 11.6403C87.4036 12.1483 87.8658 12.3952 88.1592 12.4049C88.5899 12.4049 88.9456 12.0522 88.9486 11.6538ZM88.6244 12.128H88.3596L88.1667 11.7161H88.0332V12.128H87.8006V11.1271H88.1937C88.3836 11.1271 88.6214 11.1758 88.6244 11.4039C88.6274 11.5413 88.5456 11.6313 88.3993 11.6771L88.6244 12.128ZM88.3761 11.4175C88.3761 11.3019 88.2658 11.2681 88.133 11.2681H88.0362V11.572H88.133C88.2688 11.572 88.3708 11.5458 88.3761 11.4175Z" fill="#868A8A"/>
</svg>
