<svg width="33" height="20" viewBox="0 0 33 20" fill="none" xmlns="http://www.w3.org/2000/svg">
<path fill-rule="evenodd" clip-rule="evenodd" d="M17.2541 13.7272C16.6121 15.2024 15.9156 16.3272 14.9446 17.2523C13.8646 18.2891 12.5807 18.8394 11.1089 18.967C9.89556 19.0706 8.71358 18.9272 7.54729 18.5763C6.35711 18.2253 5.27672 17.675 4.33748 16.8375C3.56256 16.1358 2.96765 15.2983 2.50569 14.3572C1.79333 12.9137 1.31587 11.3983 1.09666 9.79527C0.955859 8.75848 0.948017 7.72957 1.21428 6.71662C1.46469 5.74365 1.97352 4.9302 2.67803 4.23632C3.37453 3.55032 4.18082 3.02404 5.04182 2.58541C6.36513 1.92344 7.75064 1.42888 9.20673 1.16574C10.2479 0.974299 11.2891 0.926439 12.3381 1.14154C13.3242 1.34911 14.1697 1.81965 14.9056 2.51353C15.7041 3.26334 16.299 4.16444 16.7841 5.14548C17.3401 6.27799 17.7315 7.46643 17.9115 8.72657C18.0837 9.97864 18.0055 11.2146 17.6691 12.4353C17.5123 12.9616 17.3323 13.4642 17.2539 13.7272H17.2541Z" stroke="#262627" stroke-width="0.5"/>
<path d="M8 8.62281V8.04875H11.1288V8.62281H9.88141V11.891H9.25748V8.62281H8ZM16.3804 11.9297C16.0483 11.9297 15.7565 11.774 15.6154 11.5799V12.9998H15.0222V9.11884H15.6154V9.43975C15.7265 9.25503 16.0483 9.07992 16.3903 9.07992C17.2256 9.07992 17.6684 9.60458 17.6684 10.4998C17.6684 11.3851 17.2156 11.9295 16.3807 11.9295L16.3804 11.9297ZM17.0442 10.5C17.0442 10.218 16.9739 9.99414 16.8431 9.82887C16.7023 9.66339 16.5312 9.57594 16.32 9.57594C16.1088 9.57594 15.9276 9.65377 15.7968 9.82887C15.656 9.99414 15.5957 10.218 15.5957 10.5C15.5957 10.782 15.666 11.0056 15.7968 11.1711C15.9377 11.3364 16.1088 11.4142 16.32 11.4142C16.5312 11.4142 16.7123 11.3364 16.8431 11.1711C16.9737 11.0056 17.0442 10.782 17.0442 10.5ZM20.8267 10.665H18.8049C18.8049 11.1029 19.0665 11.4241 19.5092 11.4241C19.8311 11.4241 20.1128 11.2492 20.2537 10.9571L20.7566 11.1517C20.4648 11.696 20.1329 11.9299 19.4992 11.9299C18.5532 11.9299 18.1711 11.1613 18.1711 10.5096C18.1711 9.84811 18.5635 9.08932 19.4992 9.08932C20.4147 9.08932 20.8169 9.8092 20.8169 10.422V10.6646H20.8267V10.665ZM18.815 10.1885H20.203C20.1531 9.84833 19.9115 9.58556 19.509 9.58556C19.1368 9.58556 18.8853 9.82887 18.815 10.1889V10.1885ZM21.31 9.62448V9.11884H21.6822V8.97281C21.6822 8.32092 22.0441 8 22.6378 8C22.8291 8 22.98 8.02907 23.1108 8.09728L22.9901 8.58368C22.8893 8.53493 22.7787 8.50586 22.658 8.50586C22.4065 8.50586 22.2755 8.65167 22.2755 8.94351V9.12824H22.9095V9.63431H22.2757V11.8908H21.6825V9.63431H21.31V9.62448ZM23.2821 10.5C23.2821 10.1013 23.4026 9.76067 23.6642 9.48828C23.9157 9.21612 24.2677 9.07992 24.6903 9.07992C25.1127 9.07992 25.4549 9.2159 25.7064 9.48806C25.9579 9.76045 26.0889 10.101 26.0889 10.4998C26.0889 10.8985 25.9579 11.2387 25.7064 11.5113C25.4549 11.7837 25.1127 11.9201 24.6903 11.9201C24.2677 11.9201 23.9157 11.7837 23.6642 11.5113C23.4127 11.249 23.2817 10.9084 23.2817 10.4998L23.2821 10.5ZM23.9056 10.5C23.9056 10.7529 23.9759 10.9667 24.1067 11.1515C24.2476 11.3364 24.4388 11.4241 24.6803 11.4241C24.9217 11.4241 25.1127 11.3366 25.2536 11.1517C25.3944 10.9667 25.465 10.7529 25.465 10.5002C25.465 10.2471 25.3944 10.0331 25.2536 9.85795C25.1127 9.67322 24.9214 9.58556 24.6803 9.58556C24.4388 9.58556 24.2474 9.68284 24.1067 9.85795C23.9762 10.0429 23.9056 10.2567 23.9056 10.5ZM27.2456 11.8812H26.6524V9.11884H27.2456V9.57573C27.4369 9.25503 27.7688 9.07009 28.0908 9.07009C28.2214 9.07009 28.3423 9.08976 28.4527 9.13829L28.3524 9.66339C28.2617 9.60502 28.1508 9.58556 28.0202 9.58556C27.8091 9.58556 27.6279 9.69268 27.4769 9.91632C27.3258 10.1402 27.2456 10.4513 27.2456 10.8598V11.8814V11.8812ZM29.0565 9.11884H29.6502V9.58556C29.8815 9.24519 30.1632 9.07009 30.5153 9.07009C30.8973 9.07009 31.2191 9.29394 31.2998 9.64393C31.5009 9.27448 31.8229 9.06987 32.185 9.06987C32.6981 9.06987 33 9.40062 33 9.89664V11.8711H32.4063V10.0232C32.4063 9.73137 32.2455 9.57573 31.9839 9.57573C31.6115 9.57573 31.3197 10.0427 31.3197 10.7722V11.8812H30.7265V10.0333C30.7265 9.74121 30.5654 9.58556 30.3039 9.58556C29.9214 9.58556 29.6396 10.0525 29.6396 10.8404V11.8908H29.0464V9.11884H29.0562H29.0565ZM14.4789 9.11884H13.7949L12.8192 11.1418L11.9035 9.11905H11.2296L12.477 11.8713L11.9337 13H12.6176L14.4789 9.11905V9.11884Z" fill="#262627"/>
</svg>
