<svg width="94" height="14" viewBox="0 0 94 14" fill="none" xmlns="http://www.w3.org/2000/svg">
<path d="M20.9639 10.3261L21.7252 9.42061C22.4145 10.0175 23.1019 10.3557 23.9964 10.3557C24.778 10.3557 25.2714 9.99532 25.2714 9.45017V9.42985C25.2714 8.91612 24.9832 8.63893 23.6471 8.32108C22.1151 7.95149 21.2448 7.49874 21.2448 6.17192V6.15159C21.2448 4.91901 22.2722 4.06526 23.7025 4.06526C24.653 4.0462 25.579 4.36733 26.3137 4.97075L25.6355 5.93723C24.9887 5.45491 24.3419 5.19805 23.6822 5.19805C22.943 5.19805 22.5106 5.57872 22.5106 6.0518V6.07213C22.5106 6.62651 22.8395 6.87414 24.2163 7.20307C25.7371 7.57266 26.5299 8.12705 26.5299 9.30973V9.33006C26.5299 10.6772 25.471 11.4792 23.9594 11.4792C22.8519 11.4823 21.7834 11.071 20.9639 10.3261Z" fill="#00BF6F"/>
<path d="M27.3652 9.40255V5.94873H28.6089V9.03296C28.6089 9.87562 29.0302 10.3598 29.7713 10.3598C30.5123 10.3598 30.9946 9.85529 30.9946 9.01078V5.94873H32.2383V11.3762H30.9946V10.8218C30.7789 11.052 30.515 11.2317 30.2217 11.348C29.9284 11.4643 29.6131 11.5143 29.2982 11.4944C28.0748 11.4889 27.3652 10.661 27.3652 9.40255Z" fill="#00BF6F"/>
<path d="M33.5684 5.94865H34.812V6.85415C35.1502 6.04105 35.7785 5.80451 36.7339 5.84702V6.95578H36.6618C35.5715 6.95578 34.8139 7.68388 34.8139 9.31746V11.3761H33.5702L33.5684 5.94865Z" fill="#00BF6F"/>
<path d="M37.1777 5.94873H38.5138L39.9737 9.72594L41.452 5.94873H42.7567L40.5391 11.4187H39.4193L37.1777 5.94873Z" fill="#00BF6F"/>
<path d="M42.7588 8.68167V8.66134C42.7588 7.10907 43.8676 5.83398 45.4106 5.83398C47.1384 5.83398 48.0125 7.19038 48.0125 8.75374C48.0125 8.86647 48.0014 8.97919 47.9922 9.103H44.0025C44.1355 9.98632 44.7638 10.4816 45.5658 10.4816C45.8441 10.4839 46.1196 10.4273 46.3744 10.3155C46.6292 10.2037 46.8575 10.0392 47.0442 9.83294L47.7649 10.476C47.4985 10.8048 47.1598 11.0677 46.7752 11.244C46.3905 11.4203 45.9703 11.5053 45.5473 11.4924C43.9729 11.4979 42.7588 10.3578 42.7588 8.68167ZM46.7781 8.28067C46.6968 7.47866 46.2237 6.8522 45.4014 6.8522C44.64 6.8522 44.1078 7.438 43.9932 8.28067H46.7781Z" fill="#00BF6F"/>
<path d="M54.6035 4.18018H55.9507L58.1405 7.8502L60.3303 4.18018H61.6701V11.3761H60.4135V6.21477L58.1405 9.87555H58.0998L55.849 6.23509V11.3761H54.6054L54.6035 4.18018Z" fill="#00BF6F"/>
<path d="M62.5684 8.69295V8.67262C62.5657 7.90512 62.868 7.16797 63.4088 6.62336C63.9496 6.07874 64.6846 5.77127 65.4521 5.76857C66.2196 5.76588 66.9568 6.06818 67.5014 6.60898C68.046 7.14979 68.3535 7.88479 68.3562 8.65229V8.67262C68.3548 9.05042 68.278 9.42415 68.1304 9.77189C67.9827 10.1196 67.7671 10.4344 67.4962 10.6977C67.2253 10.9611 66.9045 11.1677 66.5527 11.3054C66.2009 11.4432 65.8252 11.5093 65.4475 11.5C65.0728 11.5096 64.7001 11.4441 64.3511 11.3074C64.0022 11.1706 63.6842 10.9654 63.4159 10.7037C63.1475 10.4421 62.9343 10.1294 62.7887 9.78407C62.6432 9.43872 62.5683 9.06772 62.5684 8.69295ZM67.1125 8.69295V8.67262C67.1125 7.71723 66.4232 6.92446 65.4493 6.92446C64.4755 6.92446 63.8139 7.70615 63.8139 8.65229V8.67262C63.8139 9.61877 64.5032 10.4208 65.4771 10.4208C66.4749 10.4208 67.1125 9.62801 67.1125 8.69295Z" fill="#00BF6F"/>
<path d="M75.3134 3.87158H76.557V8.35286L78.8078 5.95052H80.3195L78.1611 8.16806L80.3915 11.3853H78.952L77.3165 9.04214L76.5552 9.83306V11.3853H75.3115L75.3134 3.87158Z" fill="#00BF6F"/>
<path d="M80.292 8.68167V8.66134C80.292 7.10907 81.4008 5.83398 82.9438 5.83398C84.6716 5.83398 85.5457 7.19038 85.5457 8.75374C85.5457 8.86647 85.5346 8.97919 85.5254 9.103H81.5357C81.6687 9.98632 82.297 10.4816 83.099 10.4816C83.3773 10.484 83.6529 10.4275 83.9077 10.3157C84.1625 10.2039 84.3908 10.0393 84.5774 9.83294L85.2981 10.476C85.0317 10.8048 84.693 11.0677 84.3084 11.244C83.9237 11.4203 83.5035 11.5053 83.0805 11.4924C81.5042 11.4979 80.292 10.3578 80.292 8.68167ZM84.3113 8.28067C84.23 7.47866 83.7569 6.8522 82.9346 6.8522C82.1732 6.8522 81.641 7.438 81.5264 8.28067H84.3113Z" fill="#00BF6F"/>
<path d="M52.3809 5.94873L50.8785 9.65017L49.3872 5.94873H48.0918L50.2299 11.2505L49.1137 14.0002H50.4091L53.6763 5.94873H52.3809Z" fill="#00BF6F"/>
<path d="M92.5921 6.0409C92.4628 6.04093 92.3355 6.07401 92.2225 6.13699C92.1045 6.20006 92.0071 6.29561 91.9416 6.41234C91.8783 6.52539 91.8441 6.65238 91.8419 6.78193C91.8421 6.91151 91.8759 7.03882 91.9398 7.15152C92.0042 7.26774 92.1003 7.36323 92.217 7.42686C92.3294 7.49174 92.4568 7.52589 92.5866 7.52589C92.7163 7.52589 92.8438 7.49174 92.9562 7.42686C93.0722 7.36304 93.1677 7.26754 93.2315 7.15152C93.2951 7.03873 93.3286 6.91143 93.3286 6.78193C93.3286 6.65243 93.2951 6.52513 93.2315 6.41234C93.1675 6.29522 93.0704 6.19948 92.9525 6.13699C92.8393 6.07439 92.7122 6.04134 92.5829 6.0409H92.5921ZM92.5829 5.89307C92.7364 5.89412 92.8871 5.93419 93.0209 6.00949C93.1626 6.08344 93.279 6.19796 93.3553 6.33842C93.4339 6.4737 93.4752 6.62735 93.4752 6.78378C93.4752 6.9402 93.4339 7.09385 93.3553 7.22913C93.2785 7.3684 93.1638 7.48308 93.0245 7.55992C92.8892 7.63637 92.7364 7.67647 92.581 7.67634C92.4251 7.67572 92.2719 7.63567 92.1357 7.55992C91.9963 7.48316 91.8817 7.36846 91.8049 7.22913C91.729 7.09428 91.6889 6.94222 91.6885 6.78747C91.6881 6.63039 91.7296 6.47604 91.8086 6.34027C91.8849 6.20041 92.0005 6.08603 92.1412 6.01133C92.2758 5.93648 92.427 5.89646 92.581 5.89491" fill="#00BF6F"/>
<path d="M92.2134 6.29212H92.6587C92.7642 6.2863 92.8677 6.32214 92.947 6.3919C93.0022 6.45012 93.0321 6.52788 93.0301 6.60811C93.0326 6.67836 93.0102 6.74722 92.9669 6.80263C92.9237 6.85804 92.8623 6.89647 92.7936 6.91118L93.0634 7.28077H92.8546L92.6088 6.9315H92.3889V7.28077H92.2041L92.2134 6.29212ZM92.6458 6.77997C92.7714 6.77997 92.8509 6.71345 92.8509 6.61366C92.8509 6.50648 92.7733 6.44734 92.6439 6.44734H92.3889V6.77997H92.6458Z" fill="#00BF6F"/>
<path d="M89.9141 5.94873L88.4117 9.65017L86.9186 5.94873H85.625L87.7631 11.2505L86.6469 14.0002H87.9423L91.2095 5.94873H89.9141Z" fill="#00BF6F"/>
<path d="M74.0514 7.9223V11.3761H72.8078V8.29189C72.8022 7.44922 72.3883 6.96506 71.6491 6.96506C70.9099 6.96506 70.4258 7.46955 70.4258 8.31221V11.3761H69.1729V5.94869H70.4165V6.50307C70.6322 6.27283 70.8962 6.09313 71.1894 5.97684C71.4827 5.86056 71.7981 5.81055 72.1129 5.83042C73.3363 5.83411 74.0514 6.65645 74.0514 7.9223Z" fill="#00BF6F"/>
<path d="M16.1164 7.27168C15.9426 7.27257 15.7695 7.29429 15.6008 7.33635C15.2864 6.09919 14.6226 4.97861 13.6888 4.10833C12.7549 3.23804 11.5904 2.65481 10.3342 2.4282C10.2196 2.40788 10.1161 2.39309 9.99972 2.37831C10.0182 1.75001 10.0478 1.02376 10.9736 0.36959L10.8276 0C10.8276 0 9.02585 0.554385 8.81703 2.10112C8.72648 1.68163 7.89305 1.15682 7.47172 1.05703L7.26475 1.39151C7.44878 1.50262 7.60578 1.65329 7.72436 1.8326C7.84294 2.01191 7.92014 2.21536 7.95034 2.4282C6.69401 2.65434 5.52926 3.23716 4.59508 4.10712C3.6609 4.97707 2.99674 6.09743 2.68184 7.33451C2.35193 7.25204 2.0072 7.24869 1.67575 7.32473C1.3443 7.40077 1.03551 7.55406 0.774543 7.77209C0.513575 7.99012 0.307817 8.26672 0.174037 8.57936C0.0402575 8.89201 -0.0177575 9.23183 0.00472092 9.57115C0.0271994 9.91047 0.129535 10.2397 0.303387 10.5319C0.477239 10.8242 0.717688 11.0712 1.00514 11.2529C1.29259 11.4346 1.6189 11.5459 1.95748 11.5775C2.29607 11.6092 2.63734 11.5604 2.95349 11.4351C3.13739 11.8948 3.37232 12.3325 3.65386 12.7398L5.44452 11.533L5.42974 11.5127C4.93004 10.8086 4.64796 9.9733 4.61849 9.11038C4.5649 8.12728 4.80329 7.14971 5.43344 6.575C6.727 5.46623 8.13883 5.97442 9.02215 7.03144H9.26054C10.1439 5.97442 11.5538 5.47177 12.8493 6.575C13.4776 7.14971 13.7178 8.12728 13.6642 9.11038C13.6347 9.9733 13.3527 10.8086 12.8529 11.5127L12.8382 11.533L14.6288 12.7398C14.9104 12.3325 15.1453 11.8948 15.3292 11.4351C15.6243 11.5504 15.9412 11.5992 16.2574 11.5782C16.5735 11.5571 16.8811 11.4666 17.1583 11.3131C17.4356 11.1597 17.6755 10.947 17.8612 10.6903C18.0469 10.4336 18.1738 10.1391 18.2328 9.82778C18.2917 9.51647 18.2814 9.19599 18.2025 8.88913C18.1235 8.58227 17.9779 8.29658 17.7761 8.05237C17.5742 7.80815 17.321 7.61143 17.0345 7.47617C16.7479 7.34092 16.4351 7.27047 16.1183 7.26983L16.1164 7.27168ZM2.12376 10.0658C1.96085 10.057 1.80751 9.98609 1.69529 9.86767C1.58308 9.74924 1.52053 9.5923 1.52053 9.42916C1.52053 9.26601 1.58308 9.10907 1.69529 8.99064C1.80751 8.87222 1.96085 8.80132 2.12376 8.79254C2.25101 8.79329 2.37517 8.83188 2.48042 8.90341C2.48592 9.23762 2.50874 9.57131 2.54879 9.90315C2.43194 10.0078 2.28062 10.0657 2.12376 10.0658ZM16.1589 10.0658C16.0021 10.0657 15.8507 10.0078 15.7339 9.90315C15.7739 9.57131 15.7968 9.23762 15.8023 8.90341C15.898 8.83852 16.0097 8.80098 16.1252 8.79483C16.2407 8.78869 16.3557 8.81418 16.4578 8.86855C16.5598 8.92292 16.6452 9.00412 16.7045 9.10339C16.7639 9.20267 16.795 9.31626 16.7946 9.43193C16.7944 9.51541 16.7777 9.59802 16.7455 9.67506C16.7134 9.75209 16.6663 9.82203 16.6071 9.88089C16.5479 9.93975 16.4777 9.98637 16.4005 10.0181C16.3233 10.0498 16.2406 10.066 16.1571 10.0658H16.1589Z" fill="#00BF6F"/>
</svg>
