<svg width="53" height="14" viewBox="0 0 53 14" fill="none" xmlns="http://www.w3.org/2000/svg">
<path d="M2.31682 2.45229C2.74994 2.8029 2.91494 2.78228 3.73304 2.72728L11.4466 2.26667C11.6116 2.26667 11.4741 2.10167 11.4191 2.07417L10.1404 1.14606C9.89291 0.953569 9.56979 0.740449 8.94418 0.788573L1.47809 1.33169C1.2031 1.35919 1.1481 1.49668 1.2581 1.60668L2.31682 2.45229ZM2.77744 4.24662V12.3589C2.77744 12.7921 2.99743 12.9571 3.48555 12.9296L11.9622 12.4414C12.4504 12.4139 12.5054 12.1114 12.5054 11.7608V3.70351C12.5054 3.35289 12.3679 3.1604 12.0722 3.1879L3.21743 3.70351C2.88744 3.73101 2.77744 3.89601 2.77744 4.24662ZM11.1441 4.68661C11.1991 4.93411 11.1441 5.17473 10.8966 5.20223L10.491 5.28473V11.2727C10.1335 11.4652 9.81041 11.5752 9.53542 11.5752C9.1023 11.5752 8.9923 11.4377 8.66231 11.0321L5.98799 6.83844V10.8946L6.8336 11.0871C6.8336 11.0871 6.8336 11.5752 6.15299 11.5752L4.27616 11.6852C4.22116 11.5752 4.27616 11.3071 4.46865 11.2521L4.95677 11.1146V5.75221L4.27616 5.69722C4.22116 5.44972 4.35865 5.0991 4.73677 5.0716L6.7511 4.93411L9.52854 9.18276V5.42222L8.82043 5.33972C8.76543 5.03723 8.98543 4.82411 9.25355 4.79661L11.1441 4.68661ZM0.845606 0.602952L8.61419 0.0323395C9.56979 -0.0501587 9.81041 0.00484073 10.4154 0.437956L12.8972 2.17729C13.3097 2.47979 13.4403 2.55541 13.4403 2.8854V12.4414C13.4403 13.0396 13.2203 13.397 12.4572 13.452L3.43742 13.9952C2.86681 14.0227 2.59182 13.9402 2.28932 13.562L0.460615 11.1902C0.130622 10.7571 0 10.4271 0 10.049V1.55168C0 1.06357 0.219995 0.657951 0.845606 0.602952Z" fill="black"/>
<path d="M22.9522 11.6078H21.5477L17.4946 3.95315V11.6078H16.4312V3.05023H18.1968L21.8988 10.0328V3.05023H22.9622V11.6078H22.9522Z" fill="black"/>
<path d="M30.6074 8.40742C30.6074 9.45079 30.3365 10.2734 29.8048 10.8854C29.2731 11.4874 28.5507 11.7883 27.6478 11.7883C26.7449 11.7883 26.0226 11.4874 25.4808 10.8854C24.9491 10.2835 24.6782 9.45079 24.6782 8.40742C24.6782 7.36405 24.9491 6.53137 25.4808 5.92942C26.0125 5.32748 26.7349 5.01648 27.6478 5.01648C28.5507 5.01648 29.263 5.31745 29.8048 5.92942C30.3365 6.53137 30.6074 7.36405 30.6074 8.40742ZM29.4938 8.40742C29.4938 7.57473 29.3332 6.96276 29.0022 6.55143C28.6811 6.15014 28.2297 5.94949 27.6478 5.94949C27.0659 5.94949 26.6044 6.15014 26.2834 6.55143C25.9624 6.95273 25.8018 7.57473 25.8018 8.40742C25.8018 9.21001 25.9624 9.82199 26.2934 10.2333C26.6145 10.6446 27.076 10.8553 27.6578 10.8553C28.2297 10.8553 28.6811 10.6446 29.0122 10.2333C29.3332 9.83202 29.4938 9.22004 29.4938 8.40742Z" fill="black"/>
<path d="M35.6129 11.5576C35.4122 11.6078 35.1915 11.6579 34.9507 11.688C34.71 11.7181 34.4993 11.7382 34.3087 11.7382C33.6566 11.7382 33.1549 11.5576 32.8138 11.2065C32.4727 10.8553 32.3022 10.2935 32.3022 9.51101V6.1H31.5698V5.19709H32.3022V3.35114H33.3857V5.19709H35.6129V6.1H33.3857V9.01943C33.3857 9.36053 33.3957 9.62137 33.4057 9.81198C33.4258 10.0026 33.476 10.1832 33.5663 10.3437C33.6465 10.4942 33.7669 10.6045 33.9174 10.6748C34.0679 10.745 34.2886 10.7851 34.5896 10.7851C34.7702 10.7851 34.9507 10.755 35.1414 10.7049C35.332 10.6547 35.4724 10.6146 35.5527 10.5744H35.6129V11.5576Z" fill="black"/>
<path d="M38.0709 4.12362H36.8569V3H38.0709V4.12362ZM38.0006 11.6078H36.9171V5.18706H38.0006V11.6078Z" fill="black"/>
<path d="M45.6157 8.40742C45.6157 9.45079 45.3448 10.2734 44.8131 10.8854C44.2813 11.4874 43.559 11.7883 42.6561 11.7883C41.7532 11.7883 41.0309 11.4874 40.4891 10.8854C39.9574 10.2835 39.6865 9.45079 39.6865 8.40742C39.6865 7.36405 39.9574 6.53137 40.4891 5.92942C41.0208 5.32748 41.7432 5.01648 42.6561 5.01648C43.559 5.01648 44.2713 5.31745 44.8131 5.92942C45.3448 6.53137 45.6157 7.36405 45.6157 8.40742ZM44.492 8.40742C44.492 7.57473 44.3315 6.96276 44.0004 6.55143C43.6794 6.15014 43.228 5.94949 42.6461 5.94949C42.0642 5.94949 41.6027 6.15014 41.2817 6.55143C40.9606 6.95273 40.8001 7.57473 40.8001 8.40742C40.8001 9.21001 40.9606 9.82199 41.2917 10.2333C41.6127 10.6446 42.0742 10.8553 42.6561 10.8553C43.2279 10.8553 43.6794 10.6446 44.0105 10.2333C44.3315 9.83202 44.492 9.22004 44.492 8.40742Z" fill="black"/>
<path d="M52.6481 11.6077H51.5646V7.95594C51.5646 7.665 51.5445 7.3841 51.5144 7.12326C51.4843 6.86242 51.4141 6.66177 51.3238 6.52132C51.2235 6.3608 51.0931 6.24041 50.9125 6.16015C50.7319 6.07989 50.5012 6.03976 50.2102 6.03976C49.9193 6.03976 49.6083 6.10999 49.2872 6.26047C48.9662 6.41096 48.6552 6.59154 48.3643 6.82229V11.6178H47.2808V5.19704H48.3643V5.90934C48.7054 5.62843 49.0465 5.40772 49.4076 5.25724C49.7688 5.09672 50.14 5.02649 50.5212 5.02649C51.2135 5.02649 51.7452 5.23717 52.1063 5.6485C52.4675 6.06986 52.6481 6.6718 52.6481 7.45432V11.6077Z" fill="black"/>
</svg>
