<svg width="65" height="14" viewBox="0 0 65 14" fill="none" xmlns="http://www.w3.org/2000/svg">
<path d="M25.8099 8.05937L24.6902 5.04105C24.6445 4.9176 24.4699 4.9176 24.4241 5.04105L23.3046 8.05956C23.2966 8.08102 23.294 8.10408 23.2969 8.12678C23.2997 8.14948 23.3081 8.17114 23.3212 8.18992C23.3342 8.2087 23.3517 8.22404 23.3719 8.23463C23.3922 8.24522 23.4148 8.25074 23.4376 8.25074H25.6768C25.6997 8.25073 25.7222 8.2452 25.7425 8.23459C25.7628 8.22399 25.7802 8.20864 25.7933 8.18985C25.8063 8.17106 25.8147 8.14939 25.8175 8.12669C25.8204 8.10399 25.8178 8.08092 25.8098 8.05947L25.8099 8.05937ZM26.3271 9.75593H22.7874C22.7584 9.75593 22.7302 9.7648 22.7064 9.78134C22.6826 9.79787 22.6645 9.82129 22.6544 9.84844L21.9575 11.7265C21.9474 11.7537 21.9293 11.7771 21.9055 11.7936C21.8818 11.8102 21.8535 11.819 21.8245 11.819H20.2903C20.2671 11.819 20.2443 11.8133 20.2238 11.8025C20.2033 11.7916 20.1858 11.7759 20.1728 11.7566C20.1598 11.7374 20.1517 11.7153 20.1492 11.6923C20.1468 11.6692 20.15 11.6459 20.1586 11.6244L23.6909 2.82498C23.7015 2.7987 23.7197 2.77618 23.7431 2.76034C23.7666 2.74449 23.7943 2.73604 23.8226 2.73606H25.2917C25.3496 2.73606 25.4017 2.77125 25.4234 2.82498L28.9555 11.6243C28.9642 11.6458 28.9675 11.6691 28.965 11.6922C28.9626 11.7153 28.9545 11.7374 28.9415 11.7567C28.9285 11.7759 28.911 11.7917 28.8904 11.8026C28.8699 11.8134 28.8471 11.8191 28.8239 11.8191H27.2899C27.2609 11.8191 27.2327 11.8102 27.2089 11.7937C27.1851 11.7771 27.167 11.7537 27.1569 11.7265L26.4599 9.84844C26.4499 9.82129 26.4317 9.79787 26.4079 9.78134C26.3842 9.7648 26.3559 9.75593 26.3269 9.75593H26.3271ZM29.6744 5.8242H30.9866C31.0242 5.8242 31.0603 5.83915 31.0869 5.86576C31.1135 5.89237 31.1285 5.92846 31.1285 5.96609V11.6771C31.1285 11.7148 31.1135 11.7509 31.0869 11.7775C31.0603 11.8041 31.0242 11.819 30.9866 11.819H29.6744C29.6367 11.819 29.6006 11.8041 29.574 11.7775C29.5474 11.7509 29.5325 11.7148 29.5325 11.6771V5.966C29.5325 5.92836 29.5474 5.89227 29.574 5.86566C29.6006 5.83905 29.6367 5.8241 29.6744 5.8241V5.8242ZM35.9142 7.21341C35.9142 7.25105 35.8992 7.28714 35.8726 7.31375C35.846 7.34036 35.8099 7.35531 35.7723 7.35531H35.7326C35.0838 7.35531 34.6078 7.51101 34.3051 7.82241C34.0023 8.13382 33.8511 8.6486 33.8511 9.36658V11.6771C33.8511 11.7148 33.8361 11.7509 33.8095 11.7775C33.7829 11.8041 33.7468 11.819 33.7092 11.819H32.4098C32.3722 11.819 32.3361 11.8041 32.3095 11.7775C32.2829 11.7509 32.268 11.7148 32.268 11.6771V5.966C32.268 5.92836 32.2829 5.89227 32.3095 5.86566C32.3361 5.83905 32.3722 5.8241 32.4098 5.8241H33.6961C33.7338 5.8241 33.7699 5.83905 33.7965 5.86566C33.8231 5.89227 33.838 5.92836 33.838 5.966V7.09564H33.864C34.0198 6.62854 34.2663 6.26974 34.6038 6.01868C34.941 5.76791 35.3563 5.64239 35.8493 5.64239H35.9142V7.21332V7.21341ZM39.5022 7.16063C39.4645 7.16063 39.4284 7.17558 39.4018 7.20219C39.3752 7.2288 39.3603 7.26489 39.3603 7.30252V9.67798C39.3603 9.92024 39.4076 10.0933 39.5029 10.197C39.598 10.3008 39.7624 10.3527 39.996 10.3527H40.1266C40.1642 10.3527 40.2003 10.3677 40.2269 10.3943C40.2535 10.4209 40.2685 10.457 40.2685 10.4946V11.69C40.2685 11.7276 40.2535 11.7637 40.2269 11.7903C40.2003 11.817 40.1642 11.8319 40.1266 11.8319H39.5677C38.9881 11.8319 38.5427 11.6827 38.2313 11.3843C37.9198 11.0858 37.7641 10.6427 37.7641 10.0543V7.30252C37.7641 7.26489 37.7491 7.2288 37.7225 7.20219C37.6959 7.17558 37.6598 7.16063 37.6222 7.16063H36.8031C36.7655 7.16063 36.7294 7.14568 36.7028 7.11907C36.6762 7.09246 36.6612 7.05637 36.6612 7.01874V5.966C36.6612 5.92836 36.6762 5.89227 36.7028 5.86566C36.7294 5.83905 36.7655 5.8241 36.8031 5.8241H37.6223C37.6599 5.8241 37.696 5.80915 37.7226 5.78254C37.7492 5.75593 37.7642 5.71984 37.7642 5.68221V3.56547C37.7642 3.52784 37.7791 3.49175 37.8057 3.46514C37.8324 3.43853 37.8684 3.42358 37.9061 3.42358H39.2183C39.2559 3.42358 39.292 3.43853 39.3186 3.46514C39.3452 3.49175 39.3602 3.52784 39.3602 3.56547V5.68221C39.3602 5.71984 39.3751 5.75593 39.4017 5.78254C39.4284 5.80915 39.4644 5.8241 39.5021 5.8241H40.451C40.4886 5.8241 40.5247 5.83905 40.5513 5.86566C40.5779 5.89227 40.5928 5.92836 40.5928 5.966V7.01883C40.5928 7.05646 40.5779 7.09256 40.5513 7.11917C40.5247 7.14578 40.4886 7.16072 40.451 7.16072H39.5022V7.16063ZM45.5109 10.0413C45.8094 9.72991 45.9585 9.32335 45.9585 8.82152C45.9585 8.31998 45.8094 7.91322 45.5109 7.60182C45.2125 7.29041 44.8209 7.13471 44.3365 7.13471C43.852 7.13471 43.4608 7.29041 43.1622 7.60182C42.8639 7.91322 42.7146 8.31998 42.7146 8.82152C42.7146 9.32335 42.8639 9.72991 43.1622 10.0413C43.4608 10.3527 43.852 10.5084 44.3365 10.5084C44.8209 10.5084 45.2125 10.3527 45.5109 10.0413ZM42.481 11.6373C42.0399 11.3865 41.6916 11.0209 41.4365 10.5409C41.1812 10.0608 41.0537 9.48775 41.0537 8.82152C41.0537 8.15558 41.1812 7.58233 41.4365 7.10227C41.6916 6.6222 42.0399 6.25687 42.481 6.00582C42.9222 5.75495 43.4066 5.62952 43.9343 5.62952C44.4014 5.62952 44.8014 5.72033 45.1347 5.90195C45.4675 6.08358 45.7335 6.33889 45.9326 6.6676H45.9585V5.966C45.9585 5.92836 45.9735 5.89227 46.0001 5.86566C46.0267 5.83905 46.0628 5.8241 46.1004 5.8241H47.3997C47.4373 5.8241 47.4734 5.83905 47.5 5.86566C47.5266 5.89227 47.5416 5.92836 47.5416 5.966V11.677C47.5416 11.7147 47.5266 11.7508 47.5 11.7774C47.4734 11.804 47.4373 11.8189 47.3997 11.8189H46.1004C46.0628 11.8189 46.0267 11.804 46.0001 11.7774C45.9735 11.7508 45.9585 11.7147 45.9585 11.677V10.9755H45.9326C45.7335 11.3044 45.4675 11.5595 45.1346 11.7411C44.8015 11.9227 44.4015 12.0135 43.9343 12.0135C43.4066 12.0135 42.9222 11.8881 42.481 11.6373ZM52.9451 10.0413C53.2435 9.72991 53.3927 9.32335 53.3927 8.82152C53.3927 8.31998 53.2435 7.91322 52.9451 7.60182C52.6467 7.29041 52.2552 7.13471 51.7708 7.13471C51.2863 7.13471 50.8949 7.29041 50.5965 7.60182C50.2982 7.91322 50.1488 8.31998 50.1488 8.82152C50.1488 9.32335 50.2982 9.72991 50.5965 10.0413C50.8949 10.3527 51.2863 10.5084 51.7708 10.5084C52.2552 10.5084 52.6467 10.3527 52.9451 10.0413ZM50.9728 11.7411C50.6397 11.5595 50.3736 11.3044 50.1748 10.9755H50.1488V11.677C50.1488 11.7147 50.1338 11.7508 50.1072 11.7774C50.0806 11.804 50.0445 11.8189 50.0069 11.8189H48.6947C48.657 11.8189 48.621 11.804 48.5943 11.7774C48.5677 11.7508 48.5528 11.7147 48.5528 11.677V2.87767C48.5528 2.84004 48.5677 2.80395 48.5943 2.77734C48.621 2.75073 48.657 2.73578 48.6947 2.73578H50.0069C50.0445 2.73578 50.0806 2.75073 50.1072 2.77734C50.1338 2.80395 50.1488 2.84004 50.1488 2.87767V6.66751H50.1748C50.3736 6.33879 50.6397 6.08358 50.9728 5.90195C51.3058 5.72024 51.7059 5.62943 52.1731 5.62943C52.7007 5.62943 53.1852 5.75486 53.6264 6.00572C54.0676 6.25678 54.4157 6.6221 54.6709 7.10208C54.926 7.58243 55.0538 8.15567 55.0538 8.82162C55.0538 9.48785 54.926 10.0608 54.671 10.541C54.4158 11.021 54.0676 11.3866 53.6265 11.6373C53.1853 11.8882 52.7008 12.0137 52.1732 12.0137C51.706 12.0137 51.3059 11.9229 50.9729 11.7412L50.9728 11.7411ZM57.2647 11.819H55.9524C55.9148 11.819 55.8787 11.8041 55.8521 11.7775C55.8255 11.7509 55.8106 11.7148 55.8106 11.6771V2.87795C55.8106 2.84032 55.8255 2.80423 55.8521 2.77762C55.8787 2.75101 55.9148 2.73606 55.9524 2.73606H57.2647C57.3023 2.73606 57.3384 2.75101 57.365 2.77762C57.3916 2.80423 57.4066 2.84032 57.4066 2.87795V11.6771C57.4066 11.7148 57.3916 11.7509 57.365 11.7775C57.3384 11.8041 57.3023 11.819 57.2647 11.819ZM60.36 7.21266C60.1424 7.38236 59.9955 7.62736 59.9195 7.94785C59.8986 8.0362 59.9675 8.12095 60.0583 8.12095H62.5556C62.6423 8.12095 62.7104 8.04339 62.6964 7.95787C62.6464 7.6547 62.5165 7.41301 62.3064 7.23214C62.0598 7.02025 61.7375 6.91431 61.3396 6.91431C60.9417 6.91431 60.615 7.01372 60.36 7.21266ZM63.5585 6.4665C64.0688 7.0246 64.3241 7.81399 64.3241 8.83458V9.00409C64.3241 9.04172 64.3091 9.07781 64.2825 9.10442C64.2559 9.13103 64.2198 9.14598 64.1822 9.14598H60.0102C59.9894 9.14602 59.9689 9.1506 59.95 9.1594C59.9312 9.16819 59.9145 9.18098 59.9011 9.19689C59.8878 9.2128 59.878 9.23143 59.8726 9.25149C59.8672 9.27155 59.8662 9.29255 59.8697 9.31304C59.9364 9.69217 60.1041 9.99336 60.3729 10.2165C60.6799 10.4719 61.0672 10.5993 61.5343 10.5993C62.1373 10.5993 62.6955 10.364 63.2088 9.89318C63.2715 9.83567 63.3709 9.84787 63.4196 9.91778L64.0575 10.8335C64.0775 10.8619 64.0863 10.8968 64.0823 10.9313C64.0783 10.9659 64.0617 10.9978 64.0357 11.0209C63.7226 11.295 63.3745 11.5263 63.0005 11.7087C62.5852 11.9119 62.0965 12.0137 61.5343 12.0137C60.8856 12.0137 60.3187 11.8817 59.8344 11.6179C59.3498 11.3542 58.9736 10.9823 58.7056 10.502C58.4374 10.0219 58.3033 9.46618 58.3033 8.83458C58.3033 8.20325 58.4331 7.64533 58.6926 7.16072C58.952 6.6764 59.3154 6.3001 59.7826 6.03183C60.2497 5.76385 60.7946 5.62962 61.4176 5.62962C62.3342 5.62962 63.048 5.90867 63.5585 6.4665ZM31.2999 3.71285C31.2999 4.24806 30.866 4.68197 30.3307 4.68197C29.7953 4.68197 29.3613 4.24806 29.3613 3.71275C29.3613 3.17744 29.7953 2.74354 30.3307 2.74354C30.866 2.74354 31.2999 3.17744 31.2999 3.71275" fill="#333333"/>
<path d="M7.47273 0.176754L1.23327 2.75852C0.886297 2.90212 0.889892 3.39505 1.23904 3.53344L7.50451 6.01806C8.05501 6.23639 8.66807 6.23639 9.21857 6.01806L15.4841 3.53335C15.8332 3.39505 15.837 2.90221 15.4898 2.75862L9.25054 0.176659C8.68131 -0.0588863 8.04187 -0.0588863 7.47263 0.176659" fill="#FCB400"/>
<path d="M8.91797 7.37474V13.5817C8.91797 13.8769 9.21566 14.0791 9.49008 13.9703L16.4717 11.2604C16.5496 11.2295 16.6164 11.176 16.6634 11.1067C16.7105 11.0374 16.7357 10.9556 16.7356 10.8718V4.66489C16.7356 4.36966 16.438 4.16751 16.1635 4.27629L9.18189 6.98624C9.10404 7.01713 9.03725 7.07068 8.9902 7.13997C8.94314 7.20925 8.91798 7.29108 8.91797 7.37483" fill="#18BFFF"/>
<path d="M7.28738 7.69502L5.21538 8.69546L5.005 8.79714L0.631135 10.8929C0.353973 11.0266 0 10.8246 0 10.5166V4.69089C0 4.57946 0.0571351 4.48325 0.133757 4.41089C0.165191 4.37959 0.200852 4.35284 0.239703 4.33143C0.344135 4.26871 0.493216 4.25197 0.619973 4.3021L7.25257 6.93013C7.5897 7.06389 7.61619 7.53629 7.28738 7.69512" fill="#F82B60"/>
<path d="M7.28741 7.69502L5.21541 8.69545L0.133789 4.41079C0.165229 4.37952 0.20089 4.35281 0.239735 4.33143C0.344167 4.26871 0.493248 4.25197 0.620005 4.3021L7.2526 6.93013C7.58973 7.06389 7.61622 7.53629 7.28741 7.69512" fill="black" fill-opacity="0.25"/>
</svg>
