<svg width="53" height="14" viewBox="0 0 53 14" fill="none" xmlns="http://www.w3.org/2000/svg">
<path fill-rule="evenodd" clip-rule="evenodd" d="M50.2118 5.86479L50.6515 5.67211C51.1068 5.475 51.5848 5.27921 52.0734 5.11952L52.6484 4.9268C52.7151 4.90305 52.8465 4.8929 52.8859 4.84101H52.8988C52.8397 4.62101 52.803 4.36407 52.7348 4.14277C52.578 3.63284 52.3234 3.18012 51.9204 2.91305C51.6716 2.74806 51.2413 2.65743 50.9027 2.80174C50.6023 2.93021 50.2943 3.20915 50.0409 3.40142C49.7713 3.60645 49.5065 3.81939 49.2353 4.01738L48.9641 4.22724H48.9467C48.941 4.16828 48.9452 4.10876 48.9595 4.05125C48.9883 3.87967 48.9827 3.71116 49.0114 3.55013L49.0459 3.22455C49.1111 2.8497 49.1508 2.47264 49.2353 2.11055L49.3561 1.53859C49.3732 1.47391 49.4107 1.37668 49.4035 1.31156C49.1345 1.179 48.8527 1.07418 48.5626 0.998747C48.3736 0.95167 48.1247 0.919112 47.9119 0.954749C47.4501 1.03438 47.1096 1.10302 46.8733 1.4044C46.7721 1.53304 46.6971 1.6799 46.6521 1.83689C46.5918 2.04675 46.6263 2.33757 46.6649 2.54392L46.7252 3.01953L46.846 3.91046L46.9104 4.34735C46.8377 4.33899 46.7733 4.25936 46.721 4.22328C46.5884 4.12869 46.4555 4.0319 46.3229 3.93642C45.9047 3.63152 45.5263 3.29143 45.1248 2.97245L44.5991 2.50564L44.5733 2.50124L44.1514 2.8013C43.9256 2.97729 43.74 3.21927 43.5908 3.46961C43.5071 3.6197 43.4419 3.77942 43.3973 3.94522C43.3491 4.09747 43.3344 4.25801 43.3529 4.41643C43.3772 4.55898 43.3836 4.66061 43.4302 4.77192C43.6609 5.32012 44.3942 5.51106 44.9468 5.74427L45.6146 6.01395L45.9506 6.14596V6.15872C45.9104 6.20754 45.8138 6.22645 45.7525 6.25285C45.5881 6.32326 45.4233 6.39674 45.2525 6.46712C44.9427 6.59473 44.6196 6.7254 44.2999 6.84419L43.8131 7.00698L43.1753 7.22694L43.2829 7.69817C43.4389 8.34667 43.6919 8.86805 44.1923 9.17206C44.4226 9.31152 44.815 9.41227 45.1358 9.28338C45.3684 9.19008 45.5498 9.02733 45.7392 8.88741L46.7172 8.13331L47.0793 7.84203C47.1036 7.86404 47.088 7.97138 47.0793 8.02638L47.0229 8.58337C46.9426 9.01717 46.9119 9.45144 46.8202 9.86854L46.6433 10.7595C46.7009 10.8035 46.7827 10.8242 46.8543 10.8536C47.0494 10.9423 47.2509 11.0158 47.4577 11.0736C47.6585 11.1238 47.9494 11.1616 48.1861 11.1176C48.3921 11.0776 48.5618 11.0587 48.7289 10.9891C49.1217 10.8263 49.5084 10.3956 49.4012 9.7726L49.3622 9.43867L49.2735 8.74881L49.1315 7.77207V7.7637C49.2069 7.77866 49.2728 7.85612 49.33 7.8957C49.4853 8.00524 49.6353 8.11876 49.7868 8.22963C50.3701 8.65374 50.9273 9.11308 51.4542 9.60499C51.5375 9.59223 51.8166 9.33572 51.8935 9.27501C52.2878 8.96396 52.8776 8.1808 52.6431 7.42716C52.603 7.30216 52.5416 7.18482 52.4624 7.08001C52.2981 6.86222 52.0299 6.76146 51.7598 6.64753L50.5318 6.13365L50.058 5.94093V5.93653C50.1053 5.90506 50.1572 5.88089 50.2118 5.86479Z" fill="#80919F"/>
<path fill-rule="evenodd" clip-rule="evenodd" d="M12.4976 3.48189C9.84759 3.48189 8.49161 4.79036 8.49161 7.42534V12.8687H10.8499V6.95415C10.8677 5.99456 11.4253 5.52337 12.4626 5.52337C13.4999 5.52337 14.0558 5.99456 14.1106 6.95415V11.7001C14.1106 12.4331 14.4965 12.8167 15.2688 12.8691H16.4291V7.42534C16.4468 4.79036 15.148 3.48189 12.4976 3.48189ZM20.9604 3.48189C18.8193 3.48189 17.6081 4.31784 17.3275 6.02933H19.662C19.785 5.59333 20.2413 5.3839 21.0661 5.3839C22.0313 5.3839 22.523 5.64567 22.5757 6.16922C22.5757 6.67518 22.0668 6.97172 21.0661 7.09316C18.7145 7.3202 17.0996 7.91328 17.0469 10.129C17.0469 12.1704 18.5914 13.1999 20.8205 13.0253C23.3302 12.8493 24.8747 11.7168 24.8747 9.16895V6.02933C24.8216 4.31916 23.5227 3.48189 20.9604 3.48189ZM22.6102 9.06555C22.6102 10.374 21.8202 11.1418 20.5218 11.1418C19.7845 11.1418 19.3986 10.7929 19.3459 10.0599C19.3459 9.37925 19.8199 8.94324 20.7502 8.76859C21.3863 8.64219 22.0087 8.45523 22.6089 8.21024V9.06509L22.6102 9.06555ZM29.8259 5.52117C30.5632 5.52117 31.0544 5.8529 31.3355 6.48072H33.8801C33.4765 4.47403 32.1427 3.4797 29.8972 3.4797C27.0366 3.53206 25.6146 5.1199 25.6146 8.278C25.685 11.4537 27.1242 13.0587 29.9321 13.0587C32.0909 13.1111 33.4597 11.9073 33.881 10.0229H32.125C31.8265 10.0204 31.5404 10.1412 31.335 10.3564C30.9491 10.7925 30.4751 11.0195 29.9308 11.0195C28.632 11.0371 27.9836 10.1123 27.9836 8.2802C27.9836 6.44818 28.5974 5.52117 29.8259 5.52117ZM39.3849 7.36902L42.6113 3.56856H41.003C40.7697 3.56801 40.5383 3.61069 40.3205 3.69439C39.9788 3.82363 39.6731 4.03209 39.4288 4.30243C39.1864 4.54353 36.9102 7.22823 36.9102 7.22823V2.12106C36.9102 1.51038 36.4013 0.986816 35.787 0.986816H34.563V12.8686H36.9085V9.48394C36.9085 9.23978 37.0315 9.0827 37.2771 9.03036C37.5754 9.03036 37.8738 9.29213 38.1724 9.81571L39.8224 12.8691H42.6302L39.3849 7.36902ZM8.04815 3.56856H6.43995C5.80092 3.56856 5.2995 3.8717 4.86626 4.30243C4.62373 4.54354 2.34771 7.22823 2.34771 7.22823V2.12106C2.34771 1.51038 1.83878 0.986816 1.22453 0.986816H0V12.8687H2.3455V9.48398C2.3455 9.23978 2.46853 9.0827 2.71414 9.03036C3.01242 9.03036 3.31084 9.29213 3.60941 9.81571L5.25878 12.8687H8.06674L4.82024 7.373L8.04815 3.56856Z" fill="#91267F"/>
</svg>
