<svg width="41" height="14" viewBox="0 0 41 14" fill="none" xmlns="http://www.w3.org/2000/svg">
<path d="M40.5909 2.98899V12.6162L39.2642 13.9155V4.50215L40.5909 2.98899Z" fill="#E79224"/>
<path d="M39.2818 4.49888H30.4824V13.9232H39.2872V4.49888H39.2818Z" fill="url(#paint0_linear)"/>
<path d="M31.8586 2.99561L30.4771 4.4978H39.2819L40.5922 2.99013L31.8586 2.99561Z" fill="#FEF26F"/>
<path d="M20.9557 3.40842L29.6124 2.20228L28.8888 4.28013L20.687 5.57947L20.7199 4.09372L20.9557 3.40842Z" fill="#91C9ED"/>
<path d="M28.8927 4.27958L30.0934 12.7226L21.5517 13.9232L20.4004 5.75984L20.8993 5.37059L28.8927 4.27958Z" fill="url(#paint1_linear)"/>
<path d="M29.6153 2.20451L29.6208 2.25385L30.7447 10.8997L30.0923 12.7253L28.8916 4.28236" fill="#0B9AD6"/>
<path d="M13.6406 2.68969L21.3105 6.14912L17.8511 14L10.1812 10.5406L13.6406 2.68969Z" fill="url(#paint2_linear)"/>
<path d="M12.8457 4.1008e-05L13.6407 2.68644L21.3051 6.14587L20.6582 3.58008L12.8457 4.1008e-05Z" fill="#98D0A0"/>
<path d="M12.8459 -3.8147e-05L9.75928 7.32452L10.1814 10.5427L13.6409 2.68637L12.8459 -3.8147e-05Z" fill="#68BF6B"/>
<path d="M8.56908 4.26858L9.83004 12.58L1.35965 13.9067L0 5.57889L8.56908 4.26858Z" fill="url(#paint3_linear)"/>
<path d="M0 5.58057L0.597588 2.61456L9.15022 1.24394L8.56908 4.27026L0 5.58057Z" fill="#EF463D"/>
<path d="M9.1489 1.24235L10.4044 9.63051L9.83421 12.5746L8.57324 4.26318L9.1489 1.24235Z" fill="#761116"/>
<path d="M27.4381 5.89915C27.3997 5.636 27.312 5.43863 27.164 5.30705C27.0488 5.20288 26.9008 5.14806 26.7363 5.14806C26.6925 5.14806 26.6486 5.15354 26.6047 5.15902C26.3854 5.19192 26.2155 5.29608 26.1113 5.46056C26.0346 5.58117 26.0017 5.7292 26.0017 5.89915C26.0017 5.96494 26.0072 6.03073 26.0181 6.10749L26.3306 8.30595L23.8745 8.6678L23.562 6.46933C23.5236 6.21165 23.4359 6.01429 23.2933 5.88271C23.1782 5.77306 23.0357 5.71823 22.8712 5.71823C22.8328 5.71823 22.7944 5.72372 22.7506 5.7292C22.5203 5.76209 22.3449 5.86078 22.2352 6.03073C22.1585 6.15135 22.1201 6.29937 22.1201 6.47481C22.1201 6.5406 22.1256 6.61187 22.1365 6.68315L22.9754 12.3959C23.0137 12.659 23.1069 12.8564 23.255 12.988C23.3701 13.0867 23.5181 13.1415 23.6881 13.1415C23.7319 13.1415 23.7813 13.136 23.8306 13.1305C24.0444 13.0976 24.2034 12.9989 24.3021 12.829C24.3734 12.7084 24.4063 12.5658 24.4063 12.4013C24.4063 12.3356 24.4008 12.2643 24.3898 12.193L24.0444 9.93424L26.5006 9.5724L26.846 11.8312C26.8844 12.0888 26.9721 12.2917 27.1256 12.4178C27.2462 12.522 27.3887 12.5768 27.5532 12.5713C27.5971 12.5713 27.6409 12.5658 27.6848 12.5603C27.9041 12.5274 28.074 12.4288 28.1782 12.2588C28.2495 12.1382 28.2879 11.9956 28.2879 11.8257C28.2879 11.7599 28.2824 11.6886 28.2714 11.6174L27.4381 5.89915ZM17.4545 9.06253C17.164 9.74236 16.7857 10.2084 16.3142 10.466C16.062 10.6031 15.8043 10.6744 15.5357 10.6744C15.3054 10.6744 15.0642 10.625 14.8175 10.5154C14.2802 10.2851 13.9458 9.91779 13.8032 9.40244C13.7539 9.22701 13.7319 9.04608 13.7319 8.8542C13.7319 8.47591 13.8251 8.05376 14.0225 7.6042C14.3186 6.90793 14.7023 6.43095 15.1738 6.17328C15.426 6.03622 15.6837 5.96494 15.9523 5.96494C16.1881 5.96494 16.4293 6.01977 16.6815 6.12394C17.2133 6.34872 17.5477 6.72152 17.6903 7.24236C17.7341 7.41231 17.7615 7.59323 17.7615 7.77964C17.7506 8.16341 17.6519 8.59104 17.4545 9.06253ZM18.2933 5.64148C17.9918 5.3235 17.6245 5.0713 17.1969 4.89038C16.7692 4.70946 16.3416 4.62174 15.9085 4.62174H15.8865C15.448 4.62722 15.0094 4.72043 14.5817 4.9178C14.1322 5.11516 13.7429 5.38929 13.4085 5.74016C13.074 6.09104 12.8054 6.51319 12.5971 7.00661C12.3887 7.49455 12.2791 7.97701 12.2572 8.46494C12.2572 8.51977 12.2517 8.57459 12.2517 8.62942C12.2517 9.05705 12.323 9.4792 12.471 9.89038C12.6245 10.3235 12.8547 10.7018 13.1618 11.0143C13.4633 11.3323 13.8361 11.5845 14.2802 11.7709C14.7023 11.9518 15.13 12.0395 15.5686 12.0395H15.5795C16.0181 12.0395 16.4512 11.9408 16.8844 11.7599C17.3339 11.557 17.7287 11.2829 18.0686 10.932C18.403 10.5812 18.6771 10.159 18.8855 9.67108C19.0938 9.18315 19.2089 8.69521 19.2254 8.21275C19.2254 8.16341 19.2254 8.11955 19.2254 8.07569C19.2254 7.64258 19.1486 7.21494 18.9951 6.7928C18.8251 6.33775 18.5949 5.95946 18.2933 5.64148ZM7.65738 11.2555C7.59159 11.1733 7.49839 11.1185 7.38874 11.0801C7.27361 11.0417 7.14203 11.0198 6.97756 11.0198C6.82405 11.0198 6.65409 11.0362 6.45672 11.0691L4.21988 11.4529C4.24181 11.2829 4.32953 11.0527 4.47756 10.7785C4.64751 10.4715 4.89422 10.0987 5.22317 9.6656C5.3383 9.51758 5.42054 9.40244 5.48085 9.32021C5.52471 9.26538 5.58501 9.18863 5.66177 9.08446C6.17163 8.4156 6.48962 7.86736 6.61023 7.43972C6.6815 7.1985 6.71988 6.95179 6.73633 6.70508C6.74181 6.63929 6.74181 6.56801 6.74181 6.50222C6.74181 6.32679 6.72536 6.15135 6.69795 5.98139C6.67054 5.82788 6.63216 5.6963 6.58282 5.59214C6.53348 5.48797 6.46769 5.41122 6.38545 5.35639C6.29225 5.30157 6.16615 5.27964 5.9962 5.27964C5.85913 5.27964 5.68918 5.29608 5.49729 5.32898L2.91506 5.77306C2.60256 5.82788 2.37229 5.92108 2.22427 6.05815C2.10914 6.16779 2.04883 6.31034 2.04883 6.47481C2.04883 6.51867 2.05431 6.56253 2.05979 6.60639C2.09817 6.82569 2.2133 6.98468 2.39422 7.06692C2.50387 7.11626 2.63545 7.13819 2.78896 7.13819C2.89313 7.13819 3.00826 7.12722 3.13436 7.1053L5.29993 6.73797C5.30541 6.77635 5.30541 6.81472 5.30541 6.8531C5.30541 6.99016 5.28348 7.12174 5.23414 7.24784C5.16835 7.42876 5.00936 7.68095 4.75168 8.0099C4.68041 8.09762 4.57076 8.23468 4.41725 8.42657C3.83611 9.1338 3.41396 9.73687 3.16177 10.2358C2.98085 10.5812 2.86023 10.9211 2.78896 11.2555C2.75058 11.4529 2.72865 11.6393 2.72865 11.8202C2.72865 11.9463 2.73962 12.0724 2.76155 12.193C2.78896 12.3685 2.83282 12.511 2.89313 12.6206C2.94795 12.7358 3.0247 12.818 3.11242 12.8674C3.19466 12.9112 3.32076 12.9331 3.49072 12.9331C3.70453 12.9331 4.00058 12.9003 4.36791 12.8399L6.7144 12.4397C7.13106 12.3685 7.41615 12.2698 7.58611 12.1327C7.71769 12.0231 7.78896 11.8695 7.78896 11.6941C7.78896 11.6503 7.78348 11.6009 7.77799 11.5516C7.76703 11.4364 7.72317 11.3378 7.65738 11.2555ZM36.1278 10.9978C35.7879 11.4035 35.3383 11.6064 34.7517 11.6064C34.1596 11.6064 33.7045 11.4035 33.3646 10.9978C33.0247 10.5921 32.8547 10.0329 32.8547 9.32021C32.8547 8.59104 33.0247 8.02635 33.3591 7.61516C33.699 7.20398 34.1541 7.00113 34.7462 7.00113C35.3328 7.00113 35.7879 7.20398 36.1223 7.61516C36.4567 8.02635 36.6322 8.59104 36.6322 9.32021C36.6376 10.0329 36.4677 10.5921 36.1278 10.9978ZM37.937 7.88929C37.7615 7.45069 37.5039 7.06144 37.164 6.71056C36.835 6.37613 36.4732 6.12394 36.0675 5.95946C35.6618 5.78951 35.2232 5.70727 34.7517 5.70727C34.2802 5.70727 33.8361 5.78951 33.4249 5.95946C33.0137 6.12942 32.6519 6.38161 32.3284 6.71056C31.9885 7.05595 31.7308 7.44521 31.5609 7.8838C31.3909 8.3224 31.3032 8.79937 31.3032 9.31472C31.3032 9.82459 31.3909 10.3016 31.5609 10.7402C31.7308 11.1788 31.9885 11.579 32.3284 11.9244C32.6464 12.2533 33.0083 12.5 33.414 12.6645C33.8197 12.829 34.2692 12.9167 34.7517 12.9167C35.2177 12.9167 35.6563 12.8345 36.062 12.6645C36.4677 12.5 36.835 12.2533 37.164 11.9244C37.5039 11.5735 37.7615 11.1788 37.937 10.7402C38.1124 10.3016 38.2001 9.82459 38.2001 9.30924C38.2001 8.79389 38.1124 8.32788 37.937 7.88929Z" fill="white"/>
<defs>
<linearGradient id="paint0_linear" x1="34.8817" y1="4.62863" x2="34.8817" y2="8.15691" gradientUnits="userSpaceOnUse">
<stop stop-color="#FFE500"/>
<stop offset="1" stop-color="#FCB822"/>
</linearGradient>
<linearGradient id="paint1_linear" x1="20.8399" y1="5.58543" x2="24.2991" y2="8.36339" gradientUnits="userSpaceOnUse">
<stop stop-color="#168CCC"/>
<stop offset="1" stop-color="#00649E"/>
</linearGradient>
<linearGradient id="paint2_linear" x1="10.1833" y1="8.3437" x2="14.541" y2="8.3437" gradientUnits="userSpaceOnUse">
<stop stop-color="#25A149"/>
<stop offset="1" stop-color="#008A52"/>
</linearGradient>
<linearGradient id="paint3_linear" x1="4.29439" y1="5.05282" x2="4.82597" y2="8.26199" gradientUnits="userSpaceOnUse">
<stop stop-color="#D92231"/>
<stop offset="1" stop-color="#BA2234"/>
</linearGradient>
</defs>
</svg>
