<svg width="50" height="14" viewBox="0 0 50 14" fill="none" xmlns="http://www.w3.org/2000/svg">
<path d="M23.7373 9.22698C23.7245 9.29079 23.7117 9.3546 23.7117 9.43117C23.7117 9.6226 23.7245 9.81403 23.7245 10.0055C23.7245 10.1714 23.6734 10.2224 23.5075 10.2224C23.3671 10.2224 23.2395 10.2224 23.0991 10.2224C22.9715 10.2224 22.9077 10.1714 22.9077 10.0437C22.9077 9.97994 22.9077 9.90337 22.9077 9.83956C22.9077 7.87419 22.9077 5.9216 22.9077 3.95624C22.9077 3.70099 22.9332 3.68823 23.1885 3.68823C23.2906 3.68823 23.3927 3.68823 23.482 3.68823C23.6607 3.68823 23.7117 3.73928 23.7117 3.90519C23.7117 4.12214 23.7117 4.3391 23.7117 4.56882C23.7117 5.11759 23.699 5.66636 23.699 6.21512C23.699 6.26617 23.7373 6.31722 23.75 6.38103C23.7883 6.34275 23.8393 6.31722 23.8649 6.26617C24.2222 5.62807 24.7965 5.3473 25.5112 5.33454C26.2769 5.32178 26.915 5.58978 27.3489 6.24065C27.6297 6.6618 27.7701 7.13399 27.7828 7.64448C27.7956 8.00182 27.7701 8.35915 27.668 8.70373C27.4893 9.30355 27.1575 9.77575 26.5832 10.0693C26.162 10.2862 25.7026 10.35 25.2432 10.2862C24.6561 10.2097 24.1967 9.91613 23.8904 9.40564C23.8521 9.34183 23.8138 9.29079 23.7755 9.23974C23.7755 9.22698 23.75 9.22698 23.7373 9.22698ZM23.7117 7.81039C23.7117 8.30811 23.8393 8.74202 24.1712 9.09936C24.5795 9.53327 25.1028 9.6226 25.6643 9.54603C26.2641 9.46946 26.6598 9.12488 26.864 8.57611C27.0043 8.18048 27.0171 7.75934 26.9405 7.33819C26.8512 6.81494 26.5704 6.43208 26.0982 6.20236C25.8302 6.06198 25.5367 6.04922 25.2432 6.06198C24.8858 6.07474 24.5668 6.1896 24.2988 6.41932C23.8649 6.77666 23.7117 7.27438 23.7117 7.81039Z" fill="black"/>
<path d="M43.1739 9.16316C43.1228 9.23974 43.059 9.30355 43.008 9.38012C42.6379 9.97994 42.0891 10.2479 41.3999 10.2862C40.9277 10.3117 40.4938 10.1969 40.0982 9.92889C39.6515 9.6226 39.358 9.21421 39.2176 8.69097C39.039 8.00181 39.039 7.2999 39.3197 6.62351C39.5367 6.11303 39.894 5.74292 40.4045 5.51321C40.9277 5.28349 41.451 5.27073 41.9742 5.42387C42.4081 5.55149 42.7527 5.8195 42.9952 6.21512C43.0462 6.30446 43.1101 6.38103 43.1739 6.47036C43.1866 6.47036 43.1994 6.4576 43.2122 6.4576C43.2122 6.41931 43.2249 6.38103 43.2249 6.32998C43.2249 5.51321 43.2122 4.7092 43.2122 3.89242C43.2122 3.72652 43.2632 3.68823 43.4291 3.70099C43.544 3.70099 43.6588 3.70099 43.7737 3.70099C43.9396 3.70099 43.9906 3.75204 44.0034 3.90518C44.0034 3.98176 44.0034 4.05833 44.0034 4.1349C44.0034 6.07474 44.0034 8.02734 44.0034 9.96717C44.0034 10.1714 43.9524 10.2352 43.7482 10.2224C43.6461 10.2224 43.544 10.2224 43.4291 10.2224C43.276 10.2352 43.2122 10.1586 43.2122 10.0182C43.2122 9.7885 43.2249 9.54603 43.2249 9.31631C43.2249 9.26526 43.2122 9.21421 43.2122 9.17593C43.2122 9.16316 43.1866 9.16316 43.1739 9.16316ZM41.5658 6.04921C41.5403 6.04921 41.5148 6.04921 41.4893 6.04921C40.7235 6.04921 40.2131 6.49589 40.0089 7.17228C39.9068 7.50409 39.9195 7.87419 39.9706 8.23153C40.0599 8.90792 40.6087 9.49498 41.2978 9.55879C41.7573 9.59707 42.1912 9.55879 42.5741 9.26526C43.2377 8.75478 43.3653 7.78486 43.0973 7.09571C42.8293 6.40655 42.306 6.04921 41.5658 6.04921Z" fill="black"/>
<path d="M15.2635 6.45758C15.2763 6.381 15.289 6.30443 15.289 6.24062C15.289 5.4749 15.289 4.70917 15.289 3.94345C15.289 3.70097 15.3018 3.6882 15.5443 3.70097C15.6464 3.70097 15.7485 3.70097 15.8633 3.70097C16.0037 3.70097 16.0803 3.76478 16.0675 3.90516C16.0675 3.96897 16.0675 4.03278 16.0675 4.09659C16.0675 6.06195 16.0675 8.02731 16.0675 9.99267C16.0675 10.1841 16.0165 10.2352 15.825 10.2352C15.7102 10.2352 15.5953 10.2224 15.4805 10.2352C15.3401 10.2479 15.2763 10.1841 15.2763 10.0437C15.2763 9.814 15.289 9.58429 15.2763 9.35457C15.2763 9.29076 15.2508 9.21419 15.2508 9.15037C15.238 9.15037 15.2125 9.15037 15.1997 9.13761C15.1614 9.20142 15.1359 9.278 15.0976 9.34181C14.7786 9.9161 14.2681 10.2096 13.63 10.2734C12.8387 10.35 12.1623 10.0948 11.6646 9.4439C11.3456 9.03552 11.2179 8.56332 11.1796 8.05284C11.1414 7.42749 11.2307 6.82768 11.5625 6.29167C11.8816 5.78119 12.3282 5.48766 12.9153 5.3728C13.4896 5.25794 14.0384 5.32175 14.5361 5.6408C14.8041 5.81947 15.021 6.03643 15.1487 6.34272C15.1614 6.381 15.1869 6.41929 15.2125 6.45758C15.2252 6.47034 15.2508 6.45758 15.2635 6.45758ZM12.0985 8.65265C12.2644 9.09933 12.6473 9.38009 13.094 9.49495C13.5279 9.59705 13.9618 9.60981 14.3829 9.39285C14.7658 9.20142 15.021 8.89513 15.1614 8.48675C15.3146 8.04007 15.3273 7.60616 15.1742 7.14673C15.0466 6.77663 14.8424 6.4831 14.5233 6.27891C14.1532 6.03643 13.7448 5.99814 13.3364 6.04919C12.8642 6.113 12.4941 6.34272 12.2517 6.76387C12.0347 7.1212 11.8305 7.82312 12.0985 8.65265Z" fill="black"/>
<path d="M37.2782 6.3811C37.2782 6.31729 37.2909 6.25348 37.2909 6.18967C37.2909 5.98548 37.2909 5.78128 37.2782 5.57709C37.2782 5.46223 37.3164 5.41118 37.4313 5.41118C37.5972 5.41118 37.7631 5.41118 37.929 5.41118C38.0439 5.41118 38.0822 5.46223 38.0822 5.57709C38.0822 7.03197 38.0694 8.4996 38.0694 9.95448C38.0694 10.2097 38.0439 10.2352 37.7886 10.2352C37.6865 10.2352 37.5845 10.2352 37.4696 10.2352C37.3292 10.2352 37.2526 10.1714 37.2654 10.0311C37.2654 9.82686 37.2782 9.63543 37.2782 9.43124C37.2782 9.36743 37.2654 9.29085 37.2654 9.22704C37.2526 9.22704 37.2271 9.21428 37.2144 9.21428C37.1633 9.27809 37.1123 9.32914 37.074 9.39295C36.857 9.80134 36.5124 10.0438 36.0913 10.197C35.7339 10.3246 35.3766 10.3373 35.0193 10.2863C34.3046 10.1714 33.7814 9.77581 33.4495 9.12495C33.1815 8.6017 33.156 8.04017 33.1943 7.46588C33.2326 6.94263 33.4112 6.4832 33.7431 6.07481C34.0366 5.71747 34.4195 5.52604 34.8661 5.41118C35.249 5.32185 35.6319 5.33461 36.002 5.43671C36.4486 5.55156 36.7932 5.81957 37.0484 6.21519C37.0995 6.29177 37.1505 6.35558 37.2016 6.43215C37.2399 6.39386 37.2654 6.3811 37.2782 6.3811ZM35.6446 6.04929C35.1469 6.02376 34.713 6.17691 34.3939 6.55977C33.9217 7.15959 33.8962 7.83598 34.1132 8.53789C34.2408 8.9718 34.5215 9.30362 34.9555 9.444C35.1979 9.52057 35.4659 9.5461 35.7212 9.5461C36.2955 9.55886 36.8442 9.20152 37.074 8.67827C37.2399 8.32094 37.2654 7.93807 37.2399 7.55521C37.1888 6.72568 36.5507 6.011 35.6446 6.04929Z" fill="black"/>
<path d="M47.5003 10.2862C46.6197 10.2607 45.9305 9.94167 45.4456 9.21423C45.1265 8.72928 45.0372 8.19327 45.0627 7.63174C45.101 6.92982 45.3435 6.33001 45.8922 5.87057C46.1985 5.61533 46.5559 5.46218 46.9515 5.37285C47.3599 5.28351 47.7683 5.30904 48.1639 5.39837C48.7127 5.52599 49.1466 5.81952 49.4656 6.27896C49.8485 6.82773 49.9378 7.42754 49.8868 8.07841C49.8485 8.63994 49.6571 9.13766 49.2742 9.54605C48.7892 10.0821 48.1639 10.2735 47.5003 10.2862ZM45.8922 7.82317C45.8667 8.26984 45.9816 8.6527 46.2368 8.99728C46.6197 9.495 47.1557 9.62262 47.7555 9.54605C48.3426 9.46948 48.7382 9.15042 48.9551 8.61442C49.121 8.21879 49.1338 7.81041 49.07 7.40202C48.9551 6.72563 48.5978 6.27896 47.9214 6.08753C47.2961 5.90886 46.5686 6.13857 46.2113 6.64906C45.9688 7.0064 45.8667 7.40202 45.8922 7.82317Z" fill="black"/>
<path d="M21.6572 7.78482C21.6572 8.51226 21.6572 9.25246 21.6572 9.9799C21.6572 10.1841 21.6189 10.2224 21.4274 10.2224C21.3126 10.2224 21.1977 10.2224 21.0829 10.2224C20.8787 10.2224 20.8404 10.1841 20.8404 9.96714C20.8404 9.80123 20.8531 9.63533 20.8404 9.46942C20.8404 9.41837 20.8021 9.38008 20.7893 9.3418C20.751 9.36732 20.7128 9.39285 20.6872 9.43113C20.2916 10.1075 19.679 10.3372 18.9261 10.299C18.288 10.2607 17.803 9.9799 17.484 9.41837C17.3308 9.16313 17.2542 8.88236 17.2415 8.6016C17.216 7.66997 17.2032 6.72557 17.1904 5.79394C17.1904 5.39832 17.1904 5.39832 17.5861 5.39832C18.0327 5.39832 18.0327 5.39832 18.0327 5.83223C18.0327 6.61071 18.0327 7.40196 18.0327 8.18045C18.0327 8.70369 18.1859 9.13761 18.6453 9.43113C18.9644 9.62256 19.3217 9.67361 19.679 9.6098C20.0874 9.53323 20.432 9.31627 20.6362 8.94617C20.7766 8.69093 20.8404 8.41017 20.8404 8.11664C20.8404 7.26158 20.8404 6.40652 20.8276 5.56422C20.8276 5.44936 20.8659 5.39832 20.9808 5.39832C21.1594 5.39832 21.3253 5.39832 21.504 5.39832C21.6189 5.39832 21.6699 5.46213 21.6699 5.57698C21.6572 6.31719 21.6572 7.04462 21.6572 7.78482Z" fill="black"/>
<path d="M30.7054 10.2862C30.2332 10.299 29.7737 10.1841 29.3781 9.90337C29.0463 9.67366 28.8293 9.35461 28.7272 8.97174C28.6762 8.76755 28.7272 8.72926 28.9442 8.70374C29.276 8.66545 29.4547 8.76755 29.5823 9.11213C29.6971 9.43118 30.0034 9.60985 30.3608 9.64813C30.5522 9.67366 30.7564 9.67366 30.9606 9.66089C31.3052 9.63537 31.5732 9.36737 31.6115 9.02279C31.6497 8.69098 31.4711 8.37193 31.1265 8.26983C30.6926 8.12945 30.2459 8.02735 29.7992 7.89973C29.5312 7.82316 29.2888 7.72106 29.0846 7.54239C28.4848 7.01914 28.6507 5.8578 29.493 5.51322C30.0162 5.29626 30.5522 5.27074 31.0882 5.42388C31.6497 5.58979 32.0454 5.95989 32.224 6.53419C32.2368 6.57247 32.2496 6.61076 32.2623 6.63628C32.3517 6.84048 32.3261 6.89152 32.1092 6.89152C31.9816 6.89152 31.8539 6.89152 31.7263 6.89152C31.5987 6.89152 31.5349 6.84047 31.5094 6.71285C31.4073 6.27894 30.9734 5.93437 30.5267 5.93437C30.3225 5.93437 30.1183 5.92161 29.9141 6.01094C29.6333 6.15132 29.4674 6.35552 29.4547 6.66181C29.4419 6.98086 29.6333 7.18505 29.9013 7.29991C30.0928 7.37648 30.2842 7.44029 30.4756 7.49134C30.8202 7.59344 31.1776 7.68277 31.5349 7.78487C31.9433 7.91249 32.3134 8.33364 32.3389 8.76755C32.3517 8.89517 32.3261 9.02279 32.3134 9.15041C32.3006 9.26527 32.2879 9.36737 32.2496 9.46946C32.173 9.64813 32.0454 9.80128 31.8795 9.9289C31.5477 10.1841 31.1137 10.2735 30.7054 10.2862Z" fill="black"/>
<path d="M4.07129 0V4.67092L8.14239 2.33546L4.07129 0Z" fill="#4FF3F6"/>
<path d="M8.14239 2.33545V6.99361L4.07129 4.67091L8.14239 2.33545Z" fill="#00C6FC"/>
<path d="M4.07129 4.6709V9.32906L8.14239 6.9936L4.07129 4.6709Z" fill="#EF5910"/>
<path d="M4.07129 9.3291V14L8.14239 11.6646L4.07129 9.3291Z" fill="#78E12A"/>
<path d="M8.14239 6.99365V11.6646L4.07129 9.32911L8.14239 6.99365Z" fill="#00D16E"/>
<path d="M4.0711 4.6709V9.32906L0 6.9936L4.0711 4.6709Z" fill="#FFBA00"/>
<path d="M4.0711 9.3291V14L0 11.6646L4.0711 9.3291Z" fill="#FF4746"/>
<path d="M0 6.99365V11.6646L4.0711 9.32911L0 6.99365Z" fill="#C05FC8"/>
</svg>
