<svg width="58" height="14" viewBox="0 0 58 14" fill="none" xmlns="http://www.w3.org/2000/svg">
<path d="M0 10.3277L2.07688 8.74414C3.1803 10.1775 4.35264 10.8382 5.65756 10.8382C6.9555 10.8382 8.09469 10.1853 9.14839 8.76324L11.2549 10.3086C9.73456 12.3592 7.84522 13.4426 5.65756 13.4426C3.47688 13.4426 1.56922 12.3661 0 10.3277Z" fill="url(#paint0_linear)"/>
<path d="M5.6501 3.44487L1.95341 6.6154L0.244629 4.64293L5.65795 0L11.0285 4.64641L9.3119 6.61193L5.6501 3.44487Z" fill="url(#paint1_linear)"/>
<path d="M19.22 11.4867C17.9579 11.4867 16.9059 11.0795 16.0528 10.2652C15.1997 9.43956 14.7793 8.38127 14.7793 7.08944C14.7793 5.7872 15.2111 4.71676 16.0642 3.87898C16.9294 3.02992 17.9814 2.61146 19.2322 2.61146C20.7753 2.61146 22.1421 3.27387 22.9377 4.30959L21.5455 5.76376C20.8791 5.0536 20.1542 4.69332 19.3718 4.69332C18.7054 4.69332 18.1559 4.91383 17.6997 5.36788C17.2557 5.82193 17.0341 6.39231 17.0341 7.07816C17.0341 7.74144 17.2557 8.29966 17.6997 8.75371C18.1559 9.19561 18.7054 9.41612 19.3596 9.41612C20.2127 9.41612 20.9611 9.04368 21.5804 8.31095L23.0301 9.69567C22.6324 10.2192 22.095 10.6498 21.4286 10.9866C20.7622 11.3243 20.026 11.4867 19.2192 11.4867H19.22ZM25.483 2.48297V11.3591H23.4261V2.48297H25.483ZM27.4325 4.36689C26.7434 4.36689 26.241 3.86683 26.241 3.18098C26.241 2.5177 26.7669 2.01764 27.4325 2.01764C28.0989 2.01764 28.6135 2.5177 28.6135 3.18098C28.6135 3.86683 28.0989 4.36776 27.4325 4.36776V4.36689ZM28.4731 4.93727V11.3591H26.4041V4.93727H28.4731ZM32.4332 11.4988C31.4161 11.4988 30.598 11.1846 29.956 10.556C29.3244 9.92834 29.0087 9.12529 29.0087 8.13645C29.0087 7.14761 29.3244 6.34543 29.9673 5.71688C30.6102 5.08833 31.4397 4.77492 32.4681 4.77492C33.8123 4.77492 34.9933 5.42605 35.542 6.64755L33.8943 7.50877C33.5672 6.96182 33.111 6.68228 32.5152 6.68228C32.0826 6.68228 31.7319 6.82205 31.451 7.1016C31.3178 7.23881 31.213 7.40085 31.1428 7.57843C31.0726 7.75602 31.0383 7.94565 31.0419 8.13645C31.0419 8.98551 31.6613 9.61406 32.4917 9.61406C33.0874 9.61406 33.637 9.2885 33.8707 8.78844L35.5193 9.76512C34.9576 10.8356 33.8009 11.4988 32.4332 11.4988ZM42.6938 11.3591H40.2383L38.3324 8.81101L38.0288 9.09056V11.3591H35.9729V2.48297H38.0297V6.79861L39.9697 4.93727H42.4827L39.7132 7.52005L42.6938 11.3591ZM42.8316 8.02012V2.76165H45.0288V7.98539C45.0288 8.95079 45.5897 9.41612 46.3966 9.41612C47.1912 9.41612 47.7521 8.92735 47.7521 7.98539V2.76165H49.9615V8.02012C49.9615 10.556 48.1961 11.5101 46.3966 11.5101C44.6084 11.5101 42.8316 10.556 42.8316 8.02012ZM54.8445 4.77492C55.7683 4.77492 56.5167 5.10048 57.1124 5.75161C57.7082 6.39144 58.0004 7.19449 58.0004 8.13645C58.0004 9.07927 57.6968 9.88146 57.1011 10.5447C56.5045 11.1959 55.7569 11.5223 54.8567 11.5223C54.1432 11.5223 53.5239 11.2896 53.0215 10.8243V14H50.9524V4.93727H52.9866V5.53109C53.489 5.03016 54.1083 4.77492 54.8445 4.77492ZM55.8965 8.15989C55.8965 7.32211 55.2894 6.68228 54.4476 6.68228C53.6059 6.68228 52.9866 7.32211 52.9866 8.15989C52.9866 8.56706 53.1261 8.91606 53.3957 9.20689C53.6757 9.49773 54.0263 9.6375 54.4476 9.6375C54.8681 9.6375 55.2187 9.49773 55.4874 9.20689C55.7554 8.92408 55.9024 8.54862 55.8973 8.15989H55.8965Z" fill="#111111"/>
<defs>
<linearGradient id="paint0_linear" x1="0" y1="11.9396" x2="11.2549" y2="11.9396" gradientUnits="userSpaceOnUse">
<stop stop-color="#8930FD"/>
<stop offset="1" stop-color="#49CCF9"/>
</linearGradient>
<linearGradient id="paint1_linear" x1="0.244629" y1="4.49913" x2="11.0285" y2="4.49913" gradientUnits="userSpaceOnUse">
<stop stop-color="#FF02F0"/>
<stop offset="1" stop-color="#FFC800"/>
</linearGradient>
</defs>
</svg>
