<svg width="58" height="14" viewBox="0 0 58 14" fill="none" xmlns="http://www.w3.org/2000/svg">
<path d="M21.6648 10.5846C20.3445 10.5846 19.2742 9.49077 19.2742 8.14117C19.2742 6.7918 20.3445 5.6978 21.6648 5.6978C22.9852 5.6978 24.0552 6.7918 24.0552 8.14117C24.0552 9.49077 22.9852 10.5846 21.6648 10.5846ZM24.0629 10.8946C24.0629 11.1182 24.4462 11.7468 24.9161 11.7468H25.2204C25.3383 11.7468 25.4349 11.6501 25.4349 11.5322V4.84578H25.4336C25.4275 4.73321 25.3343 4.64295 25.2204 4.64295H24.2775C24.1635 4.64295 24.0704 4.73321 24.064 4.84578H24.0629V5.38915C23.4852 4.67758 22.5745 4.38237 21.6611 4.38237C19.5851 4.38237 17.9023 6.06512 17.9023 8.14117C17.9023 10.2172 19.5851 11.9002 21.6611 11.9002C22.5745 11.9002 23.5698 11.5459 24.0628 10.8936L24.0629 10.8946ZM27.6874 9.93695C28.3168 10.3728 29.0038 10.5846 29.664 10.5846C30.293 10.5846 30.9432 10.2585 30.9432 9.69108C30.9432 8.93338 29.5263 8.81542 28.6362 8.51295C27.7458 8.21042 26.9789 7.58487 26.9789 6.57202C26.9789 5.02229 28.3599 4.38214 29.6487 4.38214C30.4654 4.38214 31.308 4.65148 31.8542 5.03728C32.0425 5.17973 31.9278 5.34347 31.9278 5.34347L31.4063 6.08824C31.3477 6.17209 31.2262 6.2391 31.0982 6.15371C30.7469 5.92152 30.3556 5.69774 29.6487 5.69774C28.7736 5.69774 28.3886 6.061 28.3886 6.51102C28.3886 7.05089 29.0043 7.22064 29.7254 7.4047C30.9822 7.74329 32.353 8.15055 32.353 9.69108C32.353 11.0565 31.0756 11.9005 29.664 11.9005C28.5943 11.9005 27.6834 11.5954 26.9195 11.0349C26.7605 10.8757 26.8716 10.7278 26.8716 10.7278L27.3905 9.98691C27.496 9.84824 27.6292 9.89666 27.6874 9.93695ZM39.4237 10.8946C39.4237 11.1182 39.807 11.7468 40.2768 11.7468H40.581C40.6991 11.7468 40.7957 11.6501 40.7957 11.5322V4.84578H40.7945C40.7882 4.73321 40.695 4.64295 40.581 4.64295H39.6382C39.5242 4.64295 39.4311 4.73321 39.4248 4.84578H39.4237V5.38915C38.846 4.67758 37.9352 4.38237 37.022 4.38237C34.946 4.38237 33.263 6.06512 33.263 8.14117C33.263 10.2172 34.946 11.9002 37.022 11.9002C37.9352 11.9002 38.9306 11.5459 39.4236 10.8936L39.4237 10.8946ZM37.0256 10.5846C35.7052 10.5846 34.635 9.49077 34.635 8.14117C34.635 6.7918 35.7052 5.6978 37.0256 5.6978C38.3458 5.6978 39.4161 6.7918 39.4161 8.14117C39.4161 9.49077 38.3458 10.5846 37.0256 10.5846ZM49.2429 11.1243L49.2425 7.66454H49.2426C49.2426 5.71411 48.0121 4.3984 46.0499 4.3984C45.1133 4.3984 44.347 4.93999 44.0758 5.40517V5.3987L44.0742 5.40403C44.0736 4.93317 43.6918 4.65903 43.2211 4.65903H42.9184C42.8002 4.65903 42.7037 4.7557 42.7037 4.87371V10.9113V10.9123V11.5606H42.705C42.7111 11.6732 42.8044 11.7635 42.9184 11.7635H43.8611C43.8756 11.7635 43.8898 11.7618 43.9035 11.7592C43.9098 11.7579 43.9155 11.7555 43.9215 11.7537C43.9287 11.7516 43.9359 11.7499 43.9425 11.7471C43.9511 11.7437 43.9586 11.7389 43.9664 11.7346C43.9702 11.7323 43.9743 11.7306 43.978 11.7283C43.9872 11.7222 43.996 11.7149 44.0043 11.7074C44.0057 11.7059 44.0074 11.705 44.0087 11.7037C44.0181 11.6947 44.0266 11.6849 44.0342 11.6744L44.0343 11.6742C44.0579 11.6418 44.0722 11.6028 44.0746 11.5606H44.0758V7.61085C44.0758 6.56333 44.925 5.71411 45.9726 5.71411C47.0202 5.71411 47.8695 6.56333 47.8695 7.61085L47.8702 10.9124L47.8705 10.9113C47.8705 10.9141 47.871 10.9172 47.871 10.9203V11.5606H47.8723C47.8785 11.6732 47.9716 11.7635 48.0857 11.7635H49.0285C49.043 11.7635 49.057 11.7618 49.0707 11.7592C49.0763 11.758 49.0815 11.7557 49.0868 11.7544C49.0947 11.7521 49.1026 11.7501 49.11 11.7471C49.1176 11.7438 49.1247 11.7395 49.1319 11.7354C49.1364 11.733 49.1411 11.7311 49.1453 11.7283C49.1542 11.7224 49.1621 11.7156 49.1699 11.7088C49.1719 11.707 49.1741 11.7055 49.176 11.7037C49.185 11.6951 49.1928 11.6857 49.2002 11.676C49.2006 11.6752 49.2013 11.6746 49.2019 11.6739C49.2251 11.6418 49.2393 11.6031 49.2418 11.5611C49.2418 11.5609 49.2419 11.5606 49.2419 11.5606H49.243V11.1245L49.2429 11.1243ZM56.5956 10.8946C56.5956 11.1182 56.9785 11.7468 57.4484 11.7468H57.7529C57.8708 11.7468 57.9675 11.6501 57.9675 11.5322V4.84578H57.9664C57.9601 4.73321 57.8668 4.64295 57.7529 4.64295H56.8103C56.6958 4.64295 56.6031 4.73321 56.5968 4.84578H56.5956V5.38915C56.0176 4.67758 55.107 4.38237 54.1936 4.38237C52.1178 4.38237 50.4348 6.06512 50.4348 8.14117C50.4348 10.2172 52.1178 11.9002 54.1936 11.9002C55.107 11.9002 56.1023 11.5459 56.5951 10.8936L56.5956 10.8946ZM54.1976 10.5846C52.8773 10.5846 51.807 9.49077 51.807 8.14117C51.807 6.7918 52.8773 5.6978 54.1976 5.6978C55.5174 5.6978 56.5876 6.7918 56.5876 8.14117C56.5876 9.49077 55.5174 10.5846 54.1976 10.5846Z" fill="#283343"/>
<path d="M11.8525 7.41171C10.033 7.41171 8.55834 8.88646 8.55834 10.7057C8.55834 12.5251 10.033 14 11.8525 14C13.6717 14 15.1465 12.5251 15.1465 10.7057C15.1465 8.88646 13.6717 7.41171 11.8525 7.41171ZM3.29409 7.41194C1.47487 7.41194 0 8.88646 0 10.7059C0 12.5251 1.47487 14 3.29409 14C5.11342 14 6.58835 12.5251 6.58835 10.7059C6.58835 8.88646 5.11342 7.41194 3.29409 7.41194ZM10.8673 3.29403C10.8673 5.11331 9.39257 6.5884 7.57334 6.5884C5.75395 6.5884 4.2792 5.11331 4.2792 3.29403C4.2792 1.47487 5.75395 0 7.57334 0C9.39257 0 10.8673 1.47487 10.8673 3.29403Z" fill="url(#paint0_radial)"/>
<defs>
<radialGradient id="paint0_radial" cx="0" cy="0" r="1" gradientUnits="userSpaceOnUse" gradientTransform="translate(7.57326 7.65131) scale(10.0366 9.27687)">
<stop stop-color="#FFB900"/>
<stop offset="0.6" stop-color="#F95D8F"/>
<stop offset="0.9991" stop-color="#F95353"/>
</radialGradient>
</defs>
</svg>
