<svg width="77" height="14" viewBox="0 0 77 14" fill="none" xmlns="http://www.w3.org/2000/svg">
<path d="M1.59472 11.0656C1.31133 11.0662 1.03286 10.9916 0.787744 10.8493C0.542632 10.7071 0.339669 10.5024 0.199591 10.256C0.0616564 10.0114 -0.00713505 9.73387 0.000585195 9.45316C0.00830544 9.17244 0.0922465 8.89911 0.243417 8.66245L3.11646 4.1508C3.26351 3.90832 3.47228 3.70922 3.72145 3.57383C3.97063 3.43844 4.25127 3.37162 4.53472 3.38019C4.81796 3.38697 5.0943 3.46889 5.33548 3.61755C5.57666 3.76622 5.774 3.97629 5.90733 4.22627C6.17516 4.73271 6.14168 5.34201 5.8209 5.8174L2.94968 10.3291C2.80408 10.5559 2.60355 10.7424 2.36669 10.8712C2.12984 10.9999 1.86431 11.0668 1.59472 11.0656Z" fill="#F62B54"/>
<path d="M6.52297 11.0654C5.94349 11.0654 5.41028 10.7556 5.13028 10.2577C4.99265 10.0138 4.92402 9.73695 4.93174 9.45697C4.93946 9.17699 5.02324 8.90439 5.1741 8.6684L8.04167 4.16709C8.18655 3.92121 8.39458 3.71856 8.64417 3.58017C8.89377 3.44178 9.17585 3.37268 9.46115 3.38005C10.0455 3.39283 10.5751 3.7197 10.8429 4.23101C11.1089 4.74231 11.0699 5.35527 10.7394 5.82944L7.87245 10.3307C7.7273 10.5567 7.52759 10.7424 7.29174 10.8708C7.05589 10.9992 6.79151 11.0661 6.52297 11.0654Z" fill="#FFCC00"/>
<path d="M11.3405 11.1032C12.1574 11.1032 12.8196 10.4549 12.8196 9.65512C12.8196 8.85536 12.1574 8.20703 11.3405 8.20703C10.5236 8.20703 9.86133 8.85536 9.86133 9.65512C9.86133 10.4549 10.5236 11.1032 11.3405 11.1032Z" fill="#00CA72"/>
<path d="M75.5981 8.29101C76.0448 8.29101 76.3121 8.60875 76.3121 9.12919V10.9127H76.9189V9.08841C76.9189 8.20336 76.502 7.69023 75.718 7.69023C75.4112 7.69023 74.9242 7.77423 74.6339 8.33849C74.5664 8.17206 74.4551 8.02701 74.3118 7.91876C74.1685 7.81051 73.9986 7.74311 73.8201 7.72371C73.7077 7.70313 73.5932 7.69639 73.4792 7.70362C73.2296 7.72371 72.7853 7.87893 72.6191 8.23075V7.7578H72.0116V10.9127H72.6191V9.21014C72.6191 8.54788 73.0525 8.29101 73.4865 8.29101C73.8931 8.29101 74.1603 8.60206 74.1603 9.12249V10.9127H74.7642V9.21014C74.7642 8.68301 75.0807 8.28493 75.5981 8.29101ZM69.782 10.3855C70.0595 10.3916 70.3274 10.2808 70.5215 10.08C70.7163 9.8791 70.8198 9.6058 70.8095 9.32519C70.8095 8.68971 70.342 8.29101 69.782 8.29101C69.2214 8.29101 68.7545 8.68971 68.7545 9.32519C68.7435 9.60519 68.847 9.87788 69.0406 10.0781C69.2342 10.279 69.5008 10.3904 69.7771 10.3855H69.782ZM69.782 10.9772C68.8945 10.9772 68.1537 10.3216 68.1537 9.32154C68.1537 8.32145 68.8945 7.68658 69.782 7.68658C70.6695 7.68658 71.4163 8.32145 71.4163 9.32154C71.4163 10.3216 70.6652 10.9802 69.7777 10.9802L69.782 10.9772ZM65.0281 9.32154L65.022 9.32519C65.022 8.3251 65.7822 7.69023 66.6758 7.68658C66.9003 7.68224 67.1232 7.72507 67.33 7.81231C67.5369 7.89955 67.7232 8.02925 67.8768 8.19301L67.4166 8.58501C67.3188 8.48904 67.2031 8.41337 67.0759 8.36239C66.9488 8.3114 66.8128 8.28611 66.6758 8.28797C66.1158 8.28797 65.6288 8.68667 65.6288 9.32154C65.6288 9.75067 65.8839 10.1372 66.2753 10.3015C66.6667 10.4659 67.1171 10.3746 67.4166 10.0714L67.8835 10.4634C67.7294 10.6289 67.5423 10.7601 67.3342 10.8486C67.1262 10.9371 66.9019 10.9809 66.6758 10.9772C65.7889 10.9772 65.0281 10.3216 65.0281 9.32154ZM63.0845 10.307C63.0839 10.2519 63.0941 10.1971 63.1146 10.1459C63.1351 10.0947 63.1655 10.048 63.2041 10.0086C63.2426 9.96914 63.2886 9.93767 63.3393 9.91597C63.39 9.89428 63.4445 9.88278 63.4996 9.88214C63.5548 9.88278 63.6093 9.89428 63.66 9.91597C63.7107 9.93767 63.7566 9.96914 63.7952 10.0086C63.8337 10.048 63.8641 10.0947 63.8847 10.1459C63.9052 10.1971 63.9154 10.2519 63.9148 10.307C63.9093 10.4138 63.8634 10.5146 63.7862 10.5887C63.7091 10.6627 63.6066 10.7046 63.4996 10.7057C63.3927 10.7046 63.2902 10.6627 63.213 10.5887C63.1359 10.5146 63.0899 10.4138 63.0845 10.307Z" fill="#333333"/>
<path fill-rule="evenodd" clip-rule="evenodd" d="M64.7453 3.74713H62.5838L61.0688 7.65313L59.5617 3.74713H57.4002L60.0279 9.9193L58.3936 14H60.5392L64.7453 3.74713ZM51.5999 7.18017C51.5999 8.16626 52.4618 8.81513 53.3085 8.81513C54.1406 8.81513 54.9581 8.2113 54.9581 7.17956C54.9581 6.14783 54.1406 5.54339 53.3085 5.54339C52.4618 5.54339 51.5999 6.19287 51.5999 7.17956V7.18017ZM54.9581 10.6266V9.84565C54.5198 10.5091 53.4972 10.7599 52.9725 10.7599C51.2353 10.7599 49.4975 9.39035 49.4975 7.17956C49.4975 4.96939 51.2347 3.59983 52.9725 3.59983C53.4102 3.59983 54.4328 3.74591 54.9581 4.51287V3.74956H56.9729V10.6278L54.9581 10.6272V10.6266ZM48.9241 10.6266H46.9093V9.772C46.5727 10.405 45.7564 10.7739 44.9091 10.7739C43.1567 10.7739 41.6088 9.37452 41.6088 7.20756C41.6088 4.99983 43.1567 3.59861 44.9091 3.59861C45.7552 3.59861 46.5739 3.95165 46.9093 4.5853V0H48.9241V10.6266ZM46.8655 7.16435C46.8655 6.13322 46.1211 5.52878 45.289 5.52878C44.4271 5.52878 43.7112 6.17704 43.7112 7.16435C43.7112 8.1833 44.4271 8.82852 45.2884 8.82852C46.1363 8.82974 46.8655 8.15165 46.8655 7.16435ZM36.6272 6.98661C36.6272 5.94087 37.1677 5.58722 37.883 5.58722C38.569 5.58722 39.0657 6.04374 39.0657 6.95678V10.6254H41.0951V6.51548C41.0951 4.5567 40.1309 3.59861 38.5976 3.59861C37.7947 3.59861 36.9918 4.05513 36.6266 4.74783V3.74713H34.5984V10.6254H36.6272V6.98661ZM30.4776 10.7435C28.5504 10.7435 26.9429 9.32948 26.9429 7.16374C26.9429 4.99678 28.5486 3.59678 30.4776 3.59678C32.4065 3.59678 34.0263 4.99678 34.0263 7.16374C34.0263 9.3307 32.4047 10.7441 30.4776 10.7441V10.7435ZM30.4776 8.74087C31.3237 8.74087 32.0255 8.12122 32.0255 7.16435C32.0255 6.23609 31.3243 5.60243 30.4776 5.60243C30.2737 5.59925 30.0713 5.63759 29.8827 5.71513C29.6942 5.79268 29.5234 5.90779 29.3807 6.05348C29.2372 6.19994 29.1246 6.37376 29.0497 6.56459C28.9747 6.75542 28.9389 6.95938 28.9443 7.16435C28.9449 8.12243 29.6455 8.74087 30.4776 8.74087ZM23.3047 5.58783C23.903 5.58783 24.429 6.05957 24.429 6.95739V10.6266H26.4437V6.72C26.4437 4.64313 25.4339 3.59739 23.8154 3.59739C23.3345 3.59739 22.4288 3.74348 21.7714 4.81965C21.3916 4.02409 20.6617 3.61139 19.5831 3.61139C19.2087 3.60949 18.8415 3.71547 18.5257 3.91668C18.2099 4.11789 17.9586 4.4058 17.8021 4.746V3.74774H15.7715V10.626H17.8003V6.98661C17.8003 5.94087 18.37 5.58722 18.983 5.58722C19.5673 5.58722 20.092 6.04374 20.1072 6.91296V10.626H22.1366V6.98661C22.1366 5.98652 22.6625 5.58843 23.3047 5.58843V5.58783Z" fill="#333333"/>
</svg>
