<svg width="50" height="14" viewBox="0 0 50 14" fill="none" xmlns="http://www.w3.org/2000/svg">
<path fill-rule="evenodd" clip-rule="evenodd" d="M39.7782 10.492C39.0237 10.7994 38.4283 11.8616 37.5228 12.4652C37.4667 12.5027 37.4105 12.5214 37.3731 12.5214C37.2982 12.5214 37.2046 12.4465 37.2046 12.1096C37.2046 10.9492 37.579 10.3877 37.8972 9.56417C39.0014 6.70053 40.8918 4.24866 42.5763 1.57219C42.7073 1.36631 42.7822 1.14171 42.7822 0.898396C42.7822 0.692513 42.7073 0.524064 42.6137 0.318182C42.5389 0.149733 42.202 0 41.8276 0C41.6218 0 41.4346 0.0187166 41.1913 0.0187166C40.3116 0.0187166 40.1244 1.31016 39.9186 1.64706C38.5148 4.02406 36.9052 6.96257 36.0817 9.04011C35.9011 9.50584 35.706 9.97157 35.5577 10.4496C34.7439 10.6852 34.1342 11.8295 33.1806 12.4652C33.1244 12.5027 33.0683 12.5214 33.0309 12.5214C32.956 12.5214 32.8624 12.4465 32.8624 12.1096C32.8624 10.9492 33.2367 10.3877 33.5549 9.56417C34.6592 6.70053 36.5496 4.24866 38.2341 1.57219C38.3651 1.36631 38.4399 1.14171 38.4399 0.898396C38.4399 0.692513 38.3651 0.524064 38.2715 0.318182C38.1966 0.149733 37.8597 0 37.4854 0C37.2795 0 37.0924 0.0187166 36.849 0.0187166C35.9694 0.0187166 35.7822 1.31016 35.5763 1.64706C34.1726 4.02406 32.5629 6.96257 31.7394 9.04011C31.6739 9.20895 31.6066 9.3778 31.5402 9.54722C31.5197 9.55817 31.4988 9.57004 31.4774 9.58289C30.5228 10.1444 29.718 11.1364 28.5576 11.8102C28.333 11.9412 27.6405 12.4278 27.079 12.4278C26.948 12.4278 26.8357 12.3904 26.7234 12.3342C26.5549 12.2594 26.3865 11.9037 26.3865 11.7914C26.3865 11.6979 26.4052 11.6791 26.5923 11.5668C28.2394 10.5749 29.587 9.15241 30.7474 7.72995C31.1779 7.20588 31.7394 6.17647 31.7394 5.42781C31.7394 4.94118 31.571 4.37968 30.9907 4.1738C30.579 4.02406 30.1111 3.9492 29.7367 3.9492C28.7448 3.9492 28.0148 4.3984 27.603 4.82888C27.1838 5.2764 26.7784 5.73593 26.4016 6.2116C26.008 5.87179 25.4529 5.72727 24.9266 5.72727C24.3089 5.72727 23.1485 6.49465 22.5496 6.94385C22.456 7.01872 22.3998 7.05615 22.3624 7.05615C22.3437 7.05615 22.325 7.03743 22.325 7C22.325 6.98128 22.3624 6.81283 22.3624 6.51337C22.3624 6.25134 22.3062 5.91444 22.0629 5.50267C22.0068 5.40909 21.6699 5.20321 21.2581 5.20321C20.7528 5.20321 20.2849 5.44652 20.2849 5.70856C20.2849 5.89572 20.4533 5.97059 20.4533 6.13904C20.4533 6.23262 20.3784 6.6631 20.2661 7.07487C19.948 8.27273 19.5549 9.45187 19.1431 10.631C18.9185 11.2861 18.1699 11.8663 18.1699 12.5775C18.1699 12.8021 18.3196 13.1016 18.5255 13.3262C18.8624 13.7005 19.0683 13.8316 19.3677 13.8316C19.4988 13.8316 19.6485 13.7941 19.7795 13.6818C20.0603 13.4385 20.21 13.1952 20.2849 12.8583C20.7715 10.6497 22.1752 9.15241 23.7287 8.16043C24.2528 7.82353 24.964 7.46791 25.0576 7.46791C25.1535 7.46791 25.3036 7.51219 25.4549 7.55535C25.0206 8.26365 24.6687 9.01062 24.4399 9.80749C24.3651 10.0695 24.3276 10.3128 24.3276 10.5749C24.3276 11.0053 24.4212 11.4545 24.571 11.885C24.7768 12.484 25.1137 13.008 25.5817 13.2513C26.4426 13.7005 27.0603 13.9439 27.6218 13.9439C27.9399 13.9439 28.1833 13.8877 28.4453 13.738C29.6755 13.0419 30.4297 12.5139 30.9743 12.0449C30.9893 12.5204 31.083 12.7839 31.4212 13.139C31.7581 13.4947 32.2822 13.8128 32.9747 13.9626C33.087 13.9813 33.1993 14 33.3116 14C34.1039 14 34.8664 13.356 35.4544 12.7176C35.5225 12.8569 35.6214 12.9899 35.7635 13.139C36.1004 13.4947 36.6244 13.8128 37.3169 13.9626C37.4292 13.9813 37.5415 14 37.6538 14C38.582 14 39.4692 13.1163 40.0829 12.3931C40.2874 12.8161 40.859 13.2344 41.5469 13.5695C41.7341 13.6631 41.9587 13.7193 42.1645 13.7193C42.9694 13.7193 43.5496 13.0642 43.9988 12.5775C45.1592 11.3048 45.7956 9.73262 46.2822 7.74866C46.3196 7.59893 46.3758 7.54278 46.4506 7.54278C46.6378 7.54278 46.8811 7.54278 47.1432 7.50535C47.6485 7.43048 48.0415 7.26203 48.5095 7.18717C48.7902 7.13102 48.7528 7.03743 49.0148 6.94385C49.202 6.86898 49.3517 6.79412 49.3517 6.60695C49.3517 6.28877 48.7715 5.95187 47.8918 5.95187C47.1993 5.95187 46.7875 6.00802 46.5068 6.00802C46.0763 6.00802 45.964 5.87701 45.6833 5.14706C45.6833 5.14706 45.964 5.87701 45.6833 5.14706C45.6271 4.99733 45.571 4.92246 45.4025 4.77273C45.0095 4.43583 44.5228 4.32353 44.1298 4.32353C43.194 4.32353 42.3891 5.27807 41.8276 6.08289C41.6966 6.27005 41.5095 6.41979 41.3784 6.62567C40.6074 7.78216 39.8693 9.0863 39.7782 10.492ZM15.849 4.11765C16.3169 4.11765 16.579 4.08021 16.6351 4.08021C16.6913 4.08021 16.7287 4.09893 16.7287 4.15508C16.7287 4.19251 16.71 4.24866 16.579 4.52941C15.4373 6.98128 14.6512 9.47059 13.9587 12.2219C13.9399 12.2968 13.8838 12.5775 13.8838 12.8583C13.8838 13.1203 13.9587 13.4011 14.2207 13.5508C14.726 13.8503 15.1378 13.9813 15.4185 13.9813C15.8303 13.9813 16.0362 13.7193 16.0362 13.2888C16.0362 12.9144 16.0549 12.5214 16.1111 12.2219C16.6351 9.47059 17.4212 7.31818 18.6378 5.07219C19.218 4.00535 19.2929 3.9492 19.2929 3.85562C19.2929 3.81818 19.2742 3.76203 19.2367 3.70588C19.9854 3.53743 20.8838 3.42513 21.7073 3.42513C21.8009 3.42513 22.1752 3.55615 22.2314 3.6123C22.3624 3.74332 22.4934 3.87433 22.718 3.87433C22.9052 3.87433 23.2234 3.74332 23.3357 3.66845C23.5977 3.48128 23.7287 3.2754 23.7287 2.9385C23.7287 2.62032 22.5496 1.83422 21.726 1.83422C20.7153 1.83422 19.7982 1.96524 18.9373 2.13369C18.5629 2.20856 17.2153 2.41444 16.2421 2.41444C15.3062 2.41444 15.3624 2.28342 14.9694 2.28342C14.7448 2.28342 14.6325 2.39572 14.5389 2.4893C14.4453 2.58289 14.3891 2.95722 14.3891 3.29412C14.3891 3.46257 14.3891 3.59358 14.4827 3.70588C14.7635 4.04278 15.3062 4.11765 15.849 4.11765C15.849 4.11765 15.3062 4.11765 15.849 4.11765ZM29.718 5.63369C29.718 5.80214 29.6619 5.91444 29.4373 6.27005C29.2127 6.62567 29.3063 6.62567 29.0255 7C28.4827 7.72995 27.8089 8.45989 26.9292 9.26471C26.6859 9.4893 26.6485 9.4893 26.6111 9.4893C26.5923 9.4893 26.5549 9.47059 26.5549 9.43316C26.5549 9.37701 26.5736 9.30214 26.7608 8.90909C27.341 7.69251 28.0522 6.8877 28.8383 6.1016C29.2688 5.67112 29.5308 5.52139 29.6244 5.52139C29.6806 5.52139 29.718 5.54011 29.718 5.63369C29.718 5.63369 29.718 5.54011 29.718 5.63369ZM44.1111 6.12032C44.1298 6.12032 44.1485 6.13904 44.1672 6.17647C44.1859 6.23262 44.2234 6.28877 44.3169 6.36364C44.3918 6.41979 44.3918 6.68182 44.3918 6.8877C44.3918 8.70321 43.3624 10.2005 42.3517 11.7166C42.1271 12.0535 41.9961 12.1096 41.8838 12.1096C41.7902 12.1096 41.6405 11.8663 41.5843 11.7166C41.5095 11.5107 41.4907 11.2674 41.4907 11.1738C41.4907 9.7139 42.8758 7.54278 43.7929 6.34492C43.9426 6.13904 44.0549 6.12032 44.1111 6.12032C44.1111 6.12032 44.0549 6.12032 44.1111 6.12032Z" fill="#0079BF"/>
<path d="M10.339 2.06787H1.477C0.661277 2.06787 0 2.72915 0 3.54487V12.4069C0 13.2226 0.661277 13.8839 1.477 13.8839H10.339C11.1547 13.8839 11.816 13.2226 11.816 12.4069V3.54487C11.816 2.72915 11.1547 2.06787 10.339 2.06787Z" fill="url(#paint0_linear)"/>
<path d="M9.5707 3.604H7.38474C6.99319 3.604 6.67578 3.92142 6.67578 4.31297V8.06456C6.67578 8.4561 6.99319 8.77352 7.38474 8.77352H9.5707C9.96225 8.77352 10.2797 8.4561 10.2797 8.06456V4.31297C10.2797 3.92142 9.96225 3.604 9.5707 3.604Z" fill="white"/>
<path d="M4.43106 3.604H2.24509C1.85355 3.604 1.53613 3.92142 1.53613 4.31297V11.0186C1.53613 11.4101 1.85355 11.7275 2.24509 11.7275H4.43106C4.82261 11.7275 5.14002 11.4101 5.14002 11.0186V4.31297C5.14002 3.92142 4.82261 3.604 4.43106 3.604Z" fill="white"/>
<defs>
<linearGradient id="paint0_linear" x1="5.90801" y1="2.06787" x2="5.90801" y2="13.8839" gradientUnits="userSpaceOnUse">
<stop stop-color="#0079BF"/>
<stop offset="1" stop-color="#0079BF"/>
</linearGradient>
</defs>
</svg>
