<svg width="55" height="14" viewBox="0 0 55 14" fill="none" xmlns="http://www.w3.org/2000/svg">
<path d="M18.5638 9.02222V4.97778C18.5638 4.72889 18.7661 4.52667 19.0151 4.52667C19.264 4.52667 19.4663 4.72889 19.4663 4.97778V9.02222C19.4663 9.27111 19.264 9.47333 19.0151 9.47333C18.7817 9.47333 18.5638 9.27111 18.5638 9.02222ZM23.7299 9.19333L21.7693 6.06667V9.02222C21.7693 9.27111 21.567 9.47333 21.318 9.47333C21.0691 9.47333 20.8668 9.27111 20.8668 9.02222V5.10222C20.8668 4.77556 21.1313 4.49556 21.4736 4.49556H21.5048C21.7071 4.49556 21.9093 4.60444 22.0183 4.77556L23.9634 7.85556V4.94667C23.9634 4.69778 24.1656 4.49556 24.4146 4.49556C24.6636 4.49556 24.8659 4.69778 24.8659 4.94667V8.86667C24.8659 9.19333 24.6013 9.47333 24.259 9.47333C24.0412 9.47333 23.8389 9.38 23.7299 9.19333ZM28.0091 5.36667V9.06889C28.0091 9.30222 27.8224 9.48889 27.589 9.48889H27.5267C27.2933 9.48889 27.1066 9.30222 27.1066 9.06889V5.36667H26.064C25.8306 5.36667 25.6439 5.18 25.6439 4.94667C25.6439 4.71333 25.8306 4.52667 26.064 4.52667H29.0672C29.3006 4.52667 29.4874 4.71333 29.4874 4.94667C29.4874 5.18 29.3006 5.36667 29.0672 5.36667H28.0091ZM30.2032 9.06889V4.91556C30.2032 4.69778 30.3899 4.51111 30.6077 4.51111H33.3308C33.5487 4.51111 33.7354 4.69778 33.7354 4.91556C33.7354 5.13333 33.5487 5.32 33.3308 5.32H31.1057V6.47111H33.0196C33.2375 6.47111 33.4242 6.65778 33.4242 6.87556C33.4242 7.09333 33.2375 7.28 33.0196 7.28H31.1057V8.63333H33.3308C33.5487 8.63333 33.7354 8.82 33.7354 9.03778C33.7354 9.25556 33.5487 9.44222 33.3308 9.44222H30.6077C30.3899 9.47333 30.2032 9.30222 30.2032 9.06889ZM37.5478 9.20889L36.832 7.60667H35.7272V9.03778C35.7272 9.28667 35.5249 9.48889 35.2759 9.48889H35.2604C35.0114 9.48889 34.8091 9.28667 34.8091 9.03778V4.97778C34.8091 4.72889 35.0114 4.52667 35.2604 4.52667H36.9098C38.0924 4.52667 38.637 5.27333 38.637 6.06667C38.637 6.73556 38.2791 7.24889 37.7345 7.45111L38.3569 8.85111C38.4814 9.14667 38.2791 9.47333 37.9523 9.47333C37.7812 9.47333 37.61 9.38 37.5478 9.20889ZM36.9253 5.30444H35.7427V6.78222H36.9409C37.4544 6.78222 37.7501 6.51778 37.7501 6.05111C37.7345 5.66222 37.4388 5.30444 36.9253 5.30444ZM42.9317 8.97556C42.5583 9.34889 42.0448 9.56667 41.5157 9.56667C40.9867 9.56667 40.4887 9.39556 40.1153 9.00667C39.5706 8.46222 39.4928 7.80889 39.4928 7C39.4928 6.19111 39.5706 5.52222 40.1153 4.99333C40.4887 4.62 40.9867 4.43333 41.5157 4.43333C42.0448 4.43333 42.5583 4.63556 42.9317 5.00889C43.0562 5.14889 43.1651 5.28889 43.243 5.46C43.383 5.75556 43.1651 6.08222 42.8384 6.08222C42.6516 6.08222 42.496 5.97333 42.4182 5.80222C42.3871 5.70889 42.3249 5.63111 42.2626 5.55333C42.107 5.35111 41.8269 5.24222 41.5157 5.24222C41.2356 5.24222 40.9555 5.36667 40.7533 5.56889C40.4109 5.92667 40.4109 6.53333 40.4109 7C40.4109 7.45111 40.4109 8.07333 40.7533 8.43111C40.9555 8.63333 41.2356 8.75778 41.5157 8.75778C41.8269 8.75778 42.107 8.64889 42.2626 8.44667C42.3249 8.36889 42.3871 8.27556 42.4182 8.18222C42.4805 8.01111 42.6516 7.90222 42.8384 7.90222C43.1651 7.90222 43.383 8.22889 43.243 8.52444C43.1651 8.69556 43.0562 8.85111 42.9317 8.97556ZM47.7711 9.00667C47.3976 9.38 46.8686 9.56667 46.3395 9.56667C45.8105 9.56667 45.297 9.38 44.9079 9.00667C44.3633 8.46222 44.2855 7.80889 44.2855 7C44.2855 6.19111 44.3789 5.52222 44.9079 4.99333C45.2814 4.62 45.8105 4.43333 46.3395 4.43333C46.8686 4.43333 47.3821 4.62 47.7711 4.99333C48.3157 5.53778 48.3935 6.19111 48.3935 7C48.4091 7.80889 48.3157 8.47778 47.7711 9.00667ZM47.1331 5.58444C46.9308 5.38222 46.6352 5.25778 46.3551 5.25778C46.075 5.25778 45.7638 5.38222 45.577 5.58444C45.2347 5.94222 45.2192 6.54889 45.2192 7.01556C45.2192 7.46667 45.2347 8.07333 45.577 8.43111C45.7793 8.63333 46.075 8.75778 46.3551 8.75778C46.6352 8.75778 46.9464 8.63333 47.1331 8.43111C47.4754 8.07333 47.491 7.46667 47.491 7.01556C47.491 6.54889 47.4754 5.92667 47.1331 5.58444ZM53.6374 9.03778V5.94222L52.4704 9.1C52.4082 9.28667 52.2214 9.41111 52.0191 9.41111C51.8169 9.41111 51.6457 9.28667 51.5679 9.1L50.4008 5.89556V9.03778C50.4008 9.28667 50.1986 9.47333 49.9651 9.47333C49.7162 9.47333 49.5294 9.27111 49.5294 9.03778V5.19556C49.5294 4.82222 49.8407 4.51111 50.2141 4.51111H50.2764C50.5564 4.51111 50.821 4.68222 50.9143 4.96222L52.0503 8.04222L53.2017 4.96222C53.2951 4.69778 53.5596 4.51111 53.8397 4.51111C54.2132 4.51111 54.5244 4.82222 54.5244 5.19556V9.03778C54.5244 9.28667 54.3221 9.47333 54.0887 9.47333C53.8242 9.47333 53.6374 9.28667 53.6374 9.03778ZM12.2618 0H1.75835C0.778031 0 0 0.777778 0 1.74222V12.2422C0 13.2222 0.778031 14 1.75835 14H12.2618C13.2265 14 14.0046 13.2222 14.0046 12.2578V1.75778C14.0046 0.777778 13.2265 0 12.2618 0ZM8.86955 2.56667C8.86955 2.30222 9.07184 2.1 9.33637 2.1C9.6009 2.1 9.80319 2.30222 9.80319 2.56667V8.80444C9.80319 9.06889 9.6009 9.27111 9.33637 9.27111C9.07184 9.27111 8.86955 9.06889 8.86955 8.80444V2.56667ZM6.53546 2.33333C6.53546 2.06889 6.73775 1.86667 7.00228 1.86667C7.26681 1.86667 7.4691 2.06889 7.4691 2.33333V9.1C7.4691 9.36444 7.26681 9.56667 7.00228 9.56667C6.73775 9.56667 6.53546 9.36444 6.53546 9.1V2.33333ZM4.20137 2.56667C4.20137 2.30222 4.40365 2.1 4.66818 2.1C4.93272 2.1 5.135 2.30222 5.135 2.56667V8.80444C5.135 9.06889 4.93272 9.27111 4.66818 9.27111C4.40365 9.27111 4.20137 9.06889 4.20137 8.80444V2.56667ZM1.86727 3.5C1.86727 3.23556 2.06956 3.03333 2.33409 3.03333C2.59862 3.03333 2.80091 3.23556 2.80091 3.5V7.7C2.80091 7.96444 2.59862 8.16667 2.33409 8.16667C2.06956 8.16667 1.86727 7.96444 1.86727 7.7V3.5ZM11.9817 10.6244C11.9039 10.6867 10.1766 12.1333 7.00228 12.1333C3.82791 12.1333 2.10068 10.6867 2.02288 10.6244C1.82059 10.4533 1.80503 10.1578 1.9762 9.97111C2.14737 9.76889 2.44302 9.75333 2.62974 9.92445C2.66087 9.92445 4.20137 11.2 7.00228 11.2C9.83431 11.2 11.3593 9.92445 11.3593 9.90889C11.5615 9.73778 11.8572 9.76889 12.0128 9.95556C12.1995 10.1578 12.1684 10.4533 11.9817 10.6244ZM12.1373 7.7C12.1373 7.96444 11.935 8.16667 11.6705 8.16667C11.4059 8.16667 11.2036 7.96444 11.2036 7.7V3.5C11.2036 3.23556 11.4059 3.03333 11.6705 3.03333C11.935 3.03333 12.1373 3.23556 12.1373 3.5V7.7Z" fill="#1F8DED"/>
</svg>
