<svg width="71" height="14" viewBox="0 0 71 14" fill="none" xmlns="http://www.w3.org/2000/svg">
<path d="M10.9105 0C11.3608 0.591123 11.6986 1.21743 11.6986 1.99856C11.6986 2.81487 11.4171 3.51155 10.8542 4.07453C7.58892 7.33978 4.31663 10.591 1.0373 13.8492C1.00915 13.8703 0.981002 13.8914 0.938779 13.9336C0.446176 13.4973 0.101354 12.7866 0.0169077 12.1462C-0.194208 10.415 1.62139 9.12019 2.69104 8.05757C4.05625 6.6994 5.40739 5.3553 6.75853 4.01119C6.99076 3.77897 7.21594 3.55378 7.44817 3.32155C8.56005 2.21671 9.65785 1.10484 10.7697 0C10.819 0 10.8612 0 10.9105 0Z" fill="#2E96D5"/>
<path d="M5.14717 0C5.47088 0.492603 5.78755 0.978168 5.872 1.59744C5.99867 2.51931 5.77348 3.32155 5.14717 3.96897C3.90862 5.24974 2.63489 6.48124 1.37524 7.7409C1.23449 7.88164 1.1219 8.0435 0.988192 8.21239C0.354846 7.6283 -0.0533109 6.73458 0.0381724 5.86197C0.14373 4.87677 0.777077 4.19416 1.43857 3.53267C2.19859 2.77265 2.96564 2.01263 3.72566 1.25262C4.14085 0.844462 4.53493 0.422231 4.93605 0C5.00642 0 5.07679 0 5.14717 0Z" fill="#2E96D5"/>
<path d="M19.4956 6.3546C19.4956 5.10902 19.4956 3.88455 19.4956 2.60378C20.0093 2.60378 20.4949 2.5897 20.9734 2.61785C21.0367 2.62489 21.1353 2.84304 21.1353 2.96267C21.1493 4.34196 21.1423 5.71421 21.1423 7.0935C21.1423 8.37427 21.1353 9.66207 21.1493 10.9428C21.1493 11.2032 21.0719 11.3088 20.8186 11.3088C20.7623 11.3088 20.706 11.3228 20.6427 11.3299C19.5589 11.4425 19.4815 11.3791 19.4815 10.3095C19.4815 9.47911 19.4815 8.65576 19.4815 7.79722C18.3204 7.79722 17.1663 7.79722 15.97 7.79722C15.97 8.93021 15.97 10.0773 15.97 11.2806C15.4492 11.2806 14.9637 11.2947 14.4781 11.2666C14.4077 11.2595 14.3022 11.0554 14.3022 10.9358C14.2881 9.61985 14.2951 8.29686 14.2951 6.98091C14.2951 5.6368 14.3022 4.29974 14.2881 2.95564C14.2881 2.68119 14.3725 2.59674 14.6399 2.56859C15.9277 2.43489 15.9489 2.44896 15.9489 3.70158C15.9489 4.57419 15.9489 5.4468 15.9489 6.34756C17.1381 6.3546 18.2922 6.3546 19.4956 6.3546Z" fill="#293B48"/>
<path d="M44.6957 5.35528C44.7168 4.67971 44.4917 4.17304 43.8513 3.97599C43.0913 3.74377 42.3312 3.74377 41.6909 4.28563C41.2053 4.70082 41.2686 5.42565 41.8386 5.72825C42.3946 6.01678 42.9998 6.21382 43.5839 6.46012C44.1539 6.69938 44.738 6.9105 45.2869 7.19199C46.075 7.58607 46.5043 8.24053 46.455 9.14129C46.4058 10.1124 45.9484 10.8443 45.0265 11.1961C43.7176 11.6887 42.3875 11.6958 41.0927 11.1539C40.1849 10.7739 39.6923 10.0632 39.6008 9.07795C39.5797 8.83165 39.6219 8.6698 39.9175 8.6698C40.3468 8.67683 40.776 8.6698 41.2475 8.6698C41.1771 9.37351 41.4727 9.83797 42.0849 10.035C42.8379 10.2743 43.619 10.3306 44.3228 9.9013C44.9491 9.52129 44.935 8.66276 44.2805 8.33905C43.6542 8.02941 42.9787 7.82533 42.3312 7.56496C41.7683 7.33273 41.1912 7.13569 40.6775 6.82605C39.1856 5.93233 39.4882 3.87747 40.6634 3.18783C42.1061 2.33633 43.6331 2.31522 45.125 3.04005C45.9202 3.42709 46.2791 4.166 46.3284 5.04565C46.3354 5.21454 46.3284 5.36232 46.1102 5.36232C45.6598 5.35528 45.1954 5.35528 44.6957 5.35528Z" fill="#293B48"/>
<path d="M32.7681 5.74236C33.3663 5.34124 33.9785 5.05272 34.6822 5.04568C36.0756 5.02457 37.0256 5.74236 37.3704 7.08646C37.5675 7.85352 37.5745 8.63464 37.3915 9.40873C36.9693 11.2243 35.21 12.0406 33.4789 11.2454C33.3733 11.1962 33.2748 11.1469 33.12 11.0695C33.12 11.8436 33.12 12.5755 33.12 13.3073C33.12 13.9829 33.12 13.9829 32.4233 13.997C31.5788 14.011 31.5788 14.011 31.5788 13.1736C31.5788 10.6754 31.5859 8.17723 31.5718 5.68606C31.5718 5.35532 31.6984 5.26383 31.994 5.24976C32.5359 5.21457 32.6414 5.27087 32.7681 5.74236ZM33.0988 8.27575C33.0988 8.59946 33.0988 8.9302 33.0988 9.25391C33.0988 9.8943 33.1411 9.9506 33.7674 10.1547C33.8096 10.1687 33.8589 10.1828 33.9011 10.1969C35.02 10.4784 35.8645 9.90134 35.9841 8.76131C36.0122 8.4939 36.0122 8.22649 35.9911 7.95907C35.9419 7.3398 35.7589 6.76979 35.1607 6.48127C34.5063 6.15755 33.8589 6.30534 33.2677 6.67831C33.1833 6.72757 33.12 6.88238 33.12 6.98794C33.0918 7.41721 33.0988 7.84648 33.0988 8.27575Z" fill="#293B48"/>
<path d="M23.5912 8.62057C23.5279 9.95764 24.6538 10.7247 25.8079 10.1547C26.0472 10.035 26.195 9.74652 26.392 9.54948C26.4835 9.458 26.6031 9.32429 26.7157 9.31725C27.0043 9.30318 27.2928 9.35244 27.5884 9.37355C27.8206 9.38762 27.8347 9.51429 27.7924 9.71133C27.6024 10.6121 26.758 11.358 25.7024 11.4706C25.245 11.5199 24.7594 11.5199 24.309 11.4425C22.972 11.1962 22.1908 10.225 22.1064 8.71909C22.0782 8.22649 22.0923 7.70574 22.1979 7.22721C22.5427 5.67199 23.8798 4.83457 25.5405 5.07383C27.0957 5.29902 27.9402 6.31941 27.9402 8.0013C27.9402 8.62761 27.9402 8.62761 27.328 8.62761C26.2161 8.62761 25.1042 8.62761 23.9924 8.62761C23.8586 8.62057 23.732 8.62057 23.5912 8.62057ZM23.5842 7.67759C24.5413 7.67759 25.4702 7.67759 26.392 7.67759C26.4976 6.82609 25.9698 6.22089 25.1113 6.17163C24.2175 6.12941 23.5701 6.75572 23.5842 7.67759Z" fill="#293B48"/>
<path d="M59.6994 8.29684C59.6994 8.45869 59.7135 8.62759 59.6994 8.78944C59.5798 9.94354 59.1646 10.9287 57.9683 11.3158C56.7298 11.7169 55.4912 11.6958 54.499 10.7106C53.3871 9.60575 53.4082 6.98089 54.506 5.86197C55.2379 5.10899 56.1879 4.97529 57.1731 5.08085C58.7142 5.25678 59.6009 6.23494 59.6994 7.81127C59.7135 7.96609 59.6994 8.13498 59.6994 8.29684ZM58.2498 8.21943C58.2216 8.00831 58.2076 7.69868 58.1442 7.41015C57.9964 6.72755 57.5109 6.3405 56.7931 6.31235C56.019 6.2842 55.4983 6.61495 55.3012 7.31163C55.1253 7.95202 55.1253 8.60647 55.3012 9.23982C55.4349 9.73242 55.7446 10.0843 56.2653 10.2039C57.2998 10.4502 58.0457 9.94354 58.2005 8.895C58.2287 8.70499 58.2287 8.50795 58.2498 8.21943Z" fill="#293B48"/>
<path d="M10.8192 5.72125C11.9522 6.86128 12.0155 8.6065 10.9247 9.73948C9.58063 11.1328 8.18023 12.4769 6.80797 13.8492C6.78686 13.8703 6.75168 13.8844 6.72353 13.8985C5.73832 13.0892 5.55536 11.3228 6.38574 10.225C6.73057 9.76059 7.17391 9.36651 7.58207 8.95132C8.65172 7.87463 9.72841 6.81202 10.8192 5.72125Z" fill="#2E96D5"/>
<path d="M60.5366 5.29901C61.0644 5.29901 61.557 5.29901 62.0848 5.29901C62.0848 5.48198 62.0848 5.60865 62.0848 5.73532C62.0848 6.81904 62.0848 7.90277 62.0848 8.98649C62.0848 10.035 62.6618 10.4502 63.6682 10.1406C63.7597 10.1124 63.8441 10.0702 63.9285 10.035C64.3578 9.84503 64.59 9.59169 64.5619 9.05687C64.5056 7.93092 64.5408 5.30605 64.5408 5.30605H66.0819C66.0819 5.30605 66.096 9.21872 66.0819 11.0554C66.089 11.1469 65.9975 11.2736 65.8145 11.3228C65.2023 11.4988 65.0123 11.3228 64.8082 10.7317C64.3297 10.9639 63.8652 11.3017 63.3515 11.4214C61.7681 11.7943 60.5648 11.0132 60.5437 9.28909C60.5296 8.08574 60.5437 6.88941 60.5437 5.68606C60.5366 5.57346 60.5366 5.45383 60.5366 5.29901Z" fill="#293B48"/>
<path d="M51.5995 7.44533C51.318 6.56568 50.9169 6.27012 50.1217 6.31235C49.3546 6.34753 48.855 6.75569 48.7635 7.55793C48.7002 8.11386 48.7213 8.69795 48.8198 9.25389C48.9394 9.91538 49.418 10.218 50.1569 10.2602C50.8254 10.2954 51.2758 10.0139 51.5221 9.40167C51.5291 9.3876 51.5291 9.38056 51.5291 9.36648C51.6206 9.16241 52.2891 9.10611 52.7747 9.25389C53.1125 9.35945 52.9436 9.59871 52.8943 9.7676C52.6128 10.7458 51.9091 11.2876 50.938 11.4495C50.4524 11.5339 49.9317 11.5269 49.4391 11.4495C48.2287 11.2524 47.5249 10.4924 47.2716 9.31722C47.1098 8.57128 47.1168 7.81127 47.3209 7.06532C47.6305 5.93938 48.3764 5.29195 49.5376 5.10195C50.2554 4.98232 50.9661 5.02454 51.6347 5.32714C52.3665 5.65789 52.7958 6.24197 52.9577 7.0231C52.9999 7.22718 52.9788 7.36792 52.7254 7.37496C52.3384 7.39607 51.9584 7.42422 51.5995 7.44533Z" fill="#293B48"/>
<path d="M67.7852 6.60792C66.9548 6.53755 66.9477 6.53755 66.9477 6.02383C66.9477 5.79864 66.9337 5.48901 67.0603 5.36234C67.187 5.23567 67.4966 5.299 67.757 5.27086C67.757 4.74307 67.757 4.22232 67.757 3.63119C68.2426 3.63119 68.707 3.62415 69.1574 3.64527C69.2137 3.64527 69.3052 3.82823 69.3052 3.93379C69.3193 4.37713 69.3122 4.81344 69.3122 5.299C69.65 5.299 69.9526 5.30604 70.2552 5.299C70.4452 5.29197 70.5437 5.3553 70.5437 5.55234C70.5437 5.88309 70.5437 6.21384 70.5437 6.57977C70.1145 6.57977 69.7415 6.57977 69.3193 6.57977C69.3193 6.85422 69.3193 7.09349 69.3193 7.33275C69.3193 7.98721 69.3193 8.64167 69.3193 9.29612C69.3193 10.028 69.5867 10.2532 70.3256 10.1476C70.4382 10.1335 70.5578 10.1124 70.6774 10.0913C70.8252 10.4221 70.9308 10.7247 70.776 11.0976C70.6915 11.2947 70.6071 11.3862 70.4171 11.3932C69.9878 11.4143 69.5515 11.4706 69.1293 11.4284C68.4044 11.358 67.9681 10.9428 67.8766 10.225C67.8063 9.67613 67.8063 9.11316 67.7992 8.55018C67.7781 7.90276 67.7852 7.26238 67.7852 6.60792Z" fill="#293B48"/>
<path d="M28.9327 6.93165C28.9327 5.60163 28.9397 4.2716 28.9256 2.94861C28.9256 2.70231 28.9819 2.57564 29.2494 2.58268C29.566 2.58971 29.8757 2.58971 30.1923 2.58971C30.3964 2.58971 30.4738 2.6812 30.4738 2.89231C30.4668 5.59459 30.4668 8.3039 30.4738 11.0062C30.4738 11.2173 30.4035 11.3088 30.1994 11.3158C29.8968 11.3229 29.5942 11.3299 29.2916 11.3299C29.0171 11.3299 28.9186 11.2173 28.9256 10.9288C28.9397 9.59171 28.9327 8.26168 28.9327 6.93165Z" fill="#293B48"/>
</svg>
