<svg width="91" height="14" viewBox="0 0 91 14" fill="none" xmlns="http://www.w3.org/2000/svg">
<path d="M12.9678 6.62122C12.9678 6.69706 12.9678 6.76784 12.9678 6.84367C12.9678 7.57169 12.9628 8.29971 12.9426 9.02773C12.9375 9.13896 12.8667 9.28557 12.7757 9.35635C10.7433 10.8781 8.70589 12.3948 6.67351 13.9166C6.52689 14.0278 6.43084 14.0278 6.28422 13.9166C4.267 12.4049 2.23967 10.8983 0.212339 9.3968C0.0657239 9.29063 0.00505569 9.18446 0.00505569 9.00245C0.0101114 8.28455 0.0101114 7.56664 0.0101114 6.84873C0.0101114 6.22183 0.0101114 5.59492 0.0101114 4.96801H0C0 3.67376 0 2.3795 0.00505569 1.08525C0.00505569 0.903242 0.0252784 0.716181 0.0556126 0.534176C0.121337 0.0791645 0.369065 -0.0826175 0.80891 0.0589418C1.04653 0.134777 1.2892 0.230835 1.5066 0.357227C3.08903 1.25714 4.6664 2.15705 6.23872 3.06708C6.39545 3.15808 6.50667 3.16819 6.6634 3.0873L6.69373 3.07213C8.26605 2.16211 9.84342 1.25714 11.4259 0.362283C11.6584 0.230835 11.9112 0.11961 12.169 0.0437747C12.5937 -0.0876732 12.8414 0.0791645 12.9122 0.513954C12.9426 0.685847 12.9628 0.867852 12.9628 1.0448C12.9729 2.90024 12.9729 4.76073 12.9678 6.62122Z" fill="#FFC400"/>
<path d="M6.59767 3.11765C6.47128 3.16315 6.37017 3.14798 6.23872 3.06709C4.6664 2.15707 3.08903 1.2521 1.50659 0.357242C1.2892 0.23085 1.05158 0.134792 0.80891 0.0589564C0.369065 -0.0826028 0.121336 0.0791792 0.0505569 0.529135C0.0202227 0.71114 0 0.898201 0 1.08021C0 2.37446 0 3.66872 0 4.96297C0.00505569 4.96297 0.00505569 4.96297 0.0101114 4.96297C0.0101114 5.58988 0.0101114 6.21678 0.0101114 6.84369L6.59767 3.11765Z" fill="#FF8D00"/>
<path d="M12.968 6.62122C12.968 6.69706 12.968 6.76784 12.968 6.84367L9.22172 7.69303L6.48659 11.5252L3.69079 7.64247L0.0102539 6.84367L6.66354 3.0873L6.69387 3.07213C8.26619 2.16211 9.84357 1.25714 11.426 0.362283C11.6586 0.230835 11.9113 0.11961 12.1692 0.0437747C12.5939 -0.0876732 12.8416 0.0791645 12.9124 0.513954C12.9427 0.685847 12.9629 0.867852 12.9629 1.0448C12.973 2.90024 12.973 4.76073 12.968 6.62122Z" fill="#FF4E00"/>
<path d="M90.3299 9.44736C89.8344 9.61925 89.3238 9.71531 88.8031 9.59903C88.2014 9.46758 87.797 9.03279 87.7161 8.43117C87.6757 8.11771 87.6605 7.79921 87.6554 7.4807C87.6453 6.58584 87.6504 5.68593 87.6504 4.78602C87.6504 4.6849 87.6504 4.58884 87.6504 4.4574C87.342 4.4574 87.0589 4.4574 86.7656 4.4574C86.7656 4.12878 86.7656 3.83049 86.7656 3.50693C86.983 3.50693 87.1954 3.49176 87.4026 3.51198C87.6099 3.53221 87.6605 3.44626 87.6554 3.25414C87.6453 2.83452 87.6504 2.4149 87.6504 1.99528C87.6504 1.90427 87.6504 1.81327 87.6504 1.71216C88.0447 1.71216 88.4087 1.71216 88.8132 1.71216C88.8132 2.16717 88.8081 2.61713 88.8132 3.06708C88.8182 3.58782 88.7525 3.50693 89.248 3.51198C89.5766 3.51704 89.9052 3.51198 90.249 3.51198C90.249 3.82038 90.249 4.11867 90.249 4.45234C89.8597 4.45234 89.4704 4.46245 89.0761 4.44729C88.8688 4.43717 88.8031 4.5029 88.8031 4.71524C88.8132 5.59493 88.8031 6.47462 88.8081 7.35936C88.8081 7.56159 88.8283 7.76382 88.8536 7.96099C88.9244 8.48678 89.2985 8.74462 89.8294 8.63845C89.9457 8.61823 90.0569 8.58284 90.1984 8.54745C90.2389 8.84068 90.2793 9.11874 90.3198 9.40186C90.3299 9.41197 90.3299 9.42714 90.3299 9.44736Z" fill="#FF8D00"/>
<path d="M33.4688 8.64352C33.4688 9.71533 33.4688 10.7821 33.4688 11.8691C33.0593 11.8691 32.6802 11.8691 32.2808 11.8691C32.2808 9.08337 32.2808 6.31285 32.2808 3.51706C32.6498 3.51706 33.0189 3.51706 33.4183 3.51706C33.4183 3.81029 33.4183 4.09846 33.4183 4.43719C33.6306 4.23496 33.7924 4.05802 33.9795 3.9114C35.1271 2.9761 37.6145 3.14294 38.3223 5.2916C38.7015 6.43924 38.5953 7.56161 37.8724 8.57274C36.9168 9.90745 34.5204 10.1147 33.4688 8.64352ZM33.4031 6.43419C33.4385 6.69203 33.4486 6.91448 33.4941 7.12176C33.6812 7.9964 34.3738 8.58791 35.2434 8.62836C36.1534 8.6688 36.8915 8.16829 37.1646 7.30882C37.3162 6.82853 37.3263 6.33307 37.2202 5.84267C37.0382 5.00343 36.3405 4.38663 35.5417 4.3563C34.5053 4.31586 33.8025 4.78098 33.5346 5.71123C33.4638 5.95895 33.4436 6.21679 33.4031 6.43419Z" fill="black"/>
<path d="M39.5508 3.50694C39.9249 3.50694 40.2839 3.50694 40.6782 3.50694C40.6782 3.81028 40.6782 4.10351 40.6782 4.45236C40.7641 4.37147 40.8096 4.33608 40.845 4.29563C41.5832 3.43616 42.5336 3.23394 43.5852 3.46144C44.6166 3.67884 45.3092 4.34113 45.5974 5.3371C45.9816 6.64653 45.8502 7.89022 44.8289 8.90136C43.7824 9.94283 41.9168 9.91756 40.9917 8.8862C40.9158 8.80025 40.845 8.70925 40.7237 8.56263C40.7237 9.17437 40.7237 9.71027 40.7237 10.2512C40.7237 10.7871 40.7237 11.323 40.7237 11.8741C40.3243 11.8741 39.9502 11.8741 39.5508 11.8741C39.5508 9.08842 39.5508 6.30779 39.5508 3.50694ZM44.566 6.50497C44.5407 6.31285 44.5306 6.12073 44.4952 5.93367C44.3486 5.08432 43.6914 4.4473 42.8825 4.36641C41.9623 4.27035 41.204 4.68492 40.8754 5.47866C40.6883 5.92862 40.6529 6.39374 40.7035 6.88414C40.84 8.19862 42.0988 8.98225 43.3375 8.51207C44.0958 8.21379 44.5509 7.46049 44.566 6.50497Z" fill="black"/>
<path d="M74.7939 9.47768C74.7939 6.57066 74.7939 3.67881 74.7939 0.77179C75.1832 0.77179 75.5675 0.77179 75.9719 0.77179C75.9719 1.99527 75.9719 3.19852 75.9719 4.47255C76.0933 4.31583 76.1691 4.20966 76.255 4.1136C76.6342 3.67375 77.1145 3.42603 77.701 3.4058C77.9436 3.39569 78.1914 3.38558 78.429 3.43614C79.3542 3.61814 79.9255 4.21977 79.9558 5.16518C80.0064 6.58077 79.9962 7.99637 80.0114 9.41702C80.0114 9.43218 80.0013 9.44735 79.9861 9.47768C79.612 9.47768 79.2328 9.47768 78.8233 9.47768C78.8233 9.37657 78.8233 9.28557 78.8233 9.19456C78.8233 8.08737 78.8284 6.98017 78.8183 5.87298C78.8183 5.67581 78.798 5.46852 78.7525 5.27641C78.6565 4.84162 78.4239 4.50794 77.9588 4.40177C77.3825 4.27033 76.8668 4.37649 76.4674 4.82645C76.1084 5.22585 75.9871 5.72636 75.977 6.24204C75.9568 7.22285 75.9669 8.20365 75.9669 9.18951C75.9669 9.28051 75.9669 9.37151 75.9669 9.47768C75.5675 9.47768 75.1832 9.47768 74.7939 9.47768Z" fill="#FF8D00"/>
<path d="M24.9144 9.50801C24.5302 9.50801 24.151 9.50801 23.7314 9.50801C23.7314 9.41195 23.7314 9.326 23.7314 9.235C23.7314 8.15308 23.7314 7.07117 23.7263 5.98925C23.7263 5.78197 23.7061 5.56963 23.6707 5.36234C23.4937 4.42704 22.4775 4.03775 21.6535 4.58882C21.2338 4.87194 21.0114 5.29156 20.9659 5.7668C20.9002 6.47459 20.8951 7.18745 20.88 7.9003C20.8698 8.42609 20.88 8.95188 20.88 9.49284C20.4755 9.49284 20.1014 9.49284 19.707 9.49284C19.707 6.58076 19.707 3.67374 19.707 0.736389C20.0559 0.736389 20.3997 0.736389 20.7434 0.736389C20.9255 0.736389 20.8749 0.877948 20.8749 0.974006C20.88 2.02559 20.8749 3.07212 20.8749 4.1237C20.8749 4.2147 20.8749 4.30065 20.8749 4.34615C21.1782 4.09842 21.4462 3.79002 21.7799 3.61308C22.4725 3.24907 23.2106 3.27434 23.9184 3.60296C24.5858 3.91136 24.8537 4.52816 24.8841 5.20056C24.9397 6.60604 24.9296 8.01658 24.9397 9.42712C24.9447 9.45239 24.9296 9.46756 24.9144 9.50801Z" fill="black"/>
<path d="M55.0918 6.51507C55.0969 4.68491 56.4467 3.36537 58.3022 3.37548C60.1627 3.3856 61.4873 4.70513 61.4822 6.5454C61.4771 8.36039 60.1374 9.65465 58.2718 9.64959C56.4113 9.64454 55.0868 8.34017 55.0918 6.51507ZM56.3001 6.48473C56.3254 6.69202 56.3406 6.90436 56.3861 7.10658C56.7147 8.56262 58.5044 9.14402 59.5964 8.14805C60.1374 7.6526 60.2992 7.00547 60.2638 6.29767C60.1981 4.89725 58.9038 4.00239 57.5994 4.46246C56.8006 4.74558 56.3153 5.50899 56.3001 6.48473Z" fill="black"/>
<path d="M26.4208 4.76578C26.2995 4.50288 26.1832 4.2501 26.0619 3.98214C26.5978 3.66364 27.1792 3.47152 27.7858 3.4058C28.347 3.34513 28.9133 3.34513 29.4593 3.53724C30.3137 3.83553 30.8193 4.43716 30.9052 5.3219C30.9709 5.98925 30.9558 6.66166 30.9608 7.33407C30.9709 8.04692 30.9608 8.75977 30.9608 9.49284C30.5715 9.49284 30.2025 9.49284 29.8031 9.49284C29.8031 9.27039 29.8031 9.04794 29.8031 8.75471C29.6565 8.88616 29.5553 8.97716 29.4542 9.06311C28.6049 9.81135 27.2499 9.86697 26.4056 9.18445C25.4097 8.38059 25.5715 6.81839 26.7343 6.28754C27.1236 6.11059 27.5685 6.0297 27.9931 5.97914C28.5594 5.91342 29.1357 5.91847 29.702 5.89825C29.9295 5.04889 29.3278 4.31582 28.3774 4.26526C27.7859 4.22987 27.2297 4.37143 26.4208 4.76578ZM29.7677 6.61616C29.3885 6.63638 29.0548 6.6566 28.7212 6.67683C28.6049 6.68188 28.4835 6.68694 28.3673 6.70716C28.1347 6.74255 27.8971 6.76277 27.6797 6.8285C27.1994 6.97511 26.9668 7.30373 26.9668 7.77391C26.9719 8.21376 27.2449 8.58788 27.6847 8.72944C28.3925 8.96705 29.3026 8.64349 29.702 8.01153C29.7323 7.96603 29.7626 7.90536 29.7626 7.8548C29.7677 7.4554 29.7677 7.05095 29.7677 6.61616Z" fill="black"/>
<path d="M46.2798 10.8225C46.5124 10.8579 46.7096 10.8983 46.9118 10.9186C47.205 10.9539 47.4325 10.8326 47.5488 10.5697C47.7106 10.2108 47.8521 9.84675 47.9785 9.47263C48.0089 9.38668 47.9583 9.26029 47.9179 9.16423C47.1848 7.35935 46.4467 5.55447 45.7085 3.75464C45.6782 3.67881 45.6479 3.60297 45.6074 3.4968C46.0119 3.4968 46.3961 3.48669 46.7753 3.50691C46.8309 3.50691 46.8966 3.6232 46.927 3.69903C47.4679 5.10451 48.0038 6.50999 48.5448 7.91547C48.5751 7.99131 48.6054 8.06209 48.6611 8.18848C48.9391 7.46046 49.1919 6.78806 49.4497 6.11059C49.7531 5.30674 50.0615 4.50288 50.3598 3.69397C50.4204 3.53219 50.4963 3.47658 50.6682 3.48164C50.9968 3.4968 51.3254 3.48669 51.6894 3.48669C51.472 4.01754 51.2698 4.50794 51.0676 4.99834C50.294 6.87906 49.5205 8.75472 48.747 10.6354C48.7167 10.7062 48.6863 10.7719 48.656 10.8427C48.1757 11.8589 47.5741 12.1572 46.477 11.9044C46.4214 11.8892 46.3658 11.8741 46.3051 11.8589C46.113 11.8185 46.0119 11.7426 46.1029 11.5151C46.1939 11.2927 46.2242 11.05 46.2798 10.8225Z" fill="black"/>
<path d="M86.078 9.48275C85.6786 9.48275 85.3196 9.48275 84.9303 9.48275C84.9303 9.24513 84.9303 9.02774 84.9303 8.73956C84.7787 8.87101 84.6775 8.96707 84.5714 9.05807C83.8434 9.69509 82.7513 9.83665 81.8868 9.3968C81.2245 9.05807 80.8959 8.49689 80.9009 7.76887C80.911 7.02568 81.2953 6.48978 81.998 6.24205C82.3772 6.10555 82.7918 6.03477 83.1962 5.98927C83.6866 5.93871 84.1871 5.93871 84.6826 5.9286C84.8545 5.92355 84.8899 5.85782 84.8949 5.70109C84.9 4.83657 84.3742 4.2855 83.5046 4.25011C82.817 4.22483 82.18 4.42201 81.5582 4.75063C81.4419 4.49784 81.3307 4.25011 81.2093 3.98722C81.7655 3.6586 82.3519 3.46648 82.9738 3.41592C83.5147 3.37042 84.0658 3.36031 84.5916 3.55243C85.4207 3.85071 85.9516 4.42706 86.0122 5.29664C86.0881 6.4645 86.0628 7.64248 86.078 8.8154C86.083 9.03279 86.078 9.25019 86.078 9.48275ZM84.9253 6.63134C84.8343 6.62123 84.7787 6.61112 84.723 6.61617C84.3135 6.64145 83.904 6.65662 83.4945 6.69707C83.2569 6.72234 83.0092 6.75268 82.7817 6.82851C82.3165 6.97513 82.084 7.32397 82.089 7.78909C82.0941 8.21883 82.3873 8.60306 82.812 8.74462C83.535 8.98729 84.4652 8.65362 84.8646 8.00143C84.8949 7.95593 84.9253 7.89526 84.9253 7.83965C84.9253 7.44531 84.9253 7.05096 84.9253 6.63134Z" fill="#FF8D00"/>
<path d="M67.3216 3.49682C66.5734 4.47257 65.8656 5.40282 65.1426 6.34823C65.9465 7.3897 66.7453 8.42612 67.5845 9.50804C67.1143 9.50804 66.6897 9.51815 66.27 9.49792C66.2043 9.49287 66.1386 9.38164 66.083 9.31086C65.5774 8.62329 65.0718 7.93066 64.5663 7.23803C64.5258 7.18242 64.4854 7.13692 64.4298 7.06614C63.9748 7.68799 63.4894 8.27445 63.0951 8.91146C62.7917 9.40187 62.4277 9.60915 61.8665 9.51815C61.6997 9.49287 61.5177 9.51309 61.3003 9.51309C61.366 9.41198 61.4014 9.35131 61.4469 9.2957C62.1547 8.38062 62.8574 7.46048 63.5754 6.55046C63.7068 6.38362 63.6916 6.28251 63.5703 6.12578C62.908 5.27137 62.2558 4.40685 61.5632 3.49682C62.0182 3.49682 62.4277 3.49177 62.8423 3.50693C62.9029 3.50693 62.9687 3.60805 63.0142 3.67377C63.4844 4.32595 63.9444 4.98319 64.4298 5.67077C64.6168 5.41293 64.7887 5.17025 64.9606 4.93264C65.264 4.50796 65.5572 4.07823 65.8656 3.66366C65.9262 3.58277 66.0628 3.51199 66.1689 3.50693C66.5329 3.48166 66.8969 3.49682 67.3216 3.49682Z" fill="black"/>
<path d="M73.5907 7.92051C73.6767 8.0924 73.7626 8.26429 73.8486 8.43619C74.0104 8.76481 74.0104 8.76481 73.7171 9.00243C73.2571 9.37655 72.7212 9.54844 72.1448 9.61416C71.1286 9.73044 70.1883 9.52822 69.4552 8.77492C68.5452 7.83962 68.3581 6.70714 68.7171 5.49378C69.0709 4.30064 69.9355 3.61812 71.1438 3.43106C72.0336 3.29455 72.9082 3.426 73.6666 3.97202C73.975 4.19447 73.975 4.19447 73.8081 4.52814C73.7222 4.70509 73.6312 4.88204 73.5452 5.0691C72.342 4.01752 70.9062 4.28041 70.2793 4.99832C69.5614 5.8224 69.5664 7.23799 70.3045 8.05196C70.9466 8.74964 72.342 8.98726 73.5907 7.92051Z" fill="#FF8D00"/>
<path d="M53.7065 3.49175C54.2121 3.49175 54.6469 3.49175 55.1019 3.49175C55.1019 3.81026 55.1019 4.11866 55.1019 4.44728C54.6621 4.44728 54.2121 4.44728 53.7267 4.44728C53.7267 6.14599 53.7267 7.81437 53.7267 9.49791C53.3223 9.49791 52.9583 9.49791 52.5589 9.49791C52.5589 9.38668 52.5589 9.28557 52.5589 9.18951C52.5589 7.14196 52.5538 5.09441 52.5639 3.04685C52.5639 2.72329 52.5842 2.38961 52.6347 2.0711C52.7864 1.15603 53.4183 0.604955 54.3486 0.584733C54.6368 0.579677 54.9351 0.635289 55.2232 0.685846C55.2788 0.695958 55.3648 0.802127 55.3648 0.867851C55.3648 1.10041 55.3345 1.33297 55.3092 1.59081C55.1474 1.56554 54.9957 1.54531 54.8441 1.52003C54.2424 1.43409 53.8835 1.65654 53.7824 2.23794C53.7116 2.63734 53.7318 3.05191 53.7065 3.49175Z" fill="black"/>
</svg>
