<svg width="79" height="12" viewBox="0 0 79 12" fill="none" xmlns="http://www.w3.org/2000/svg">
<path d="M59.2315 9.49425C60.0125 9.51124 60.7687 9.22727 61.3352 8.70425L62.3782 9.7992C61.6894 10.4881 60.7342 11 59.2494 11C56.7038 11 55.0582 9.3568 55.0582 7.13531C55.0479 6.62616 55.1431 6.12021 55.3382 5.64763C55.5333 5.17506 55.8243 4.74555 56.1937 4.38472C56.5632 4.02389 57.0036 3.73914 57.4887 3.54746C57.9738 3.35578 58.4936 3.26108 59.0171 3.26903C61.5448 3.26903 62.9776 5.13976 62.8509 7.73413H56.876C57.0872 8.81169 57.867 9.499 59.2267 9.499L59.2315 9.49425ZM61.0461 6.49699C60.8836 5.49052 60.2663 4.7495 59.0317 4.7495C57.8832 4.7495 57.0823 5.3815 56.876 6.49699H61.0477H61.0461ZM20 9.41051L24.5973 4.86642H20.1088V3.44125H26.7303V4.89486L22.133 9.43738H26.7953V10.8641H20V9.41051ZM31.9563 9.49268C32.7372 9.50966 33.4934 9.22569 34.06 8.70267L35.1029 9.79762C34.4141 10.4865 33.4589 10.9984 31.9741 10.9984C29.4286 10.9984 27.783 9.35522 27.783 7.13373C27.7726 6.62458 27.8679 6.11863 28.063 5.64605C28.258 5.17348 28.549 4.74397 28.9185 4.38314C29.288 4.02231 29.7284 3.73757 30.2134 3.54588C30.6985 3.3542 31.2183 3.2595 31.7418 3.26745C34.2696 3.26745 35.7024 5.13818 35.5756 7.73255H29.604C29.8152 8.81011 30.5949 9.49742 31.9547 9.49742L31.9563 9.49268ZM33.7741 6.4954C33.6116 5.48894 32.9943 4.74792 31.7597 4.74792C30.6112 4.74792 29.8103 5.37992 29.604 6.4954H33.7757H33.7741ZM45.5078 7.13215C45.5078 4.76214 47.3321 3.27061 49.3416 3.27061C49.8238 3.26437 50.3015 3.36085 50.7413 3.55328C51.181 3.74572 51.5722 4.02943 51.8872 4.38452V0.00473982H53.5117V10.8436H51.8872V9.82132C51.5782 10.191 51.1876 10.4883 50.7444 10.6913C50.3013 10.8942 49.8168 10.9976 49.327 10.9937C47.3776 10.9937 45.5094 9.49268 45.5094 7.13373L45.5078 7.13215ZM51.9782 7.11793C51.9654 6.65451 51.8124 6.20504 51.5384 5.82575C51.2643 5.44645 50.8814 5.15416 50.4374 4.98544C49.9935 4.81671 49.5082 4.77905 49.0424 4.87714C48.5766 4.97524 48.1508 5.20476 47.8184 5.53698C47.4859 5.86919 47.2616 6.28937 47.1734 6.74495C47.0852 7.20053 47.1371 7.67128 47.3225 8.09834C47.508 8.52539 47.8188 8.88979 48.216 9.14594C48.6133 9.40209 49.0794 9.53864 49.556 9.5385C50.9531 9.5385 51.9765 8.45461 51.9765 7.11793H51.9782ZM63.9133 9.26674L65.3851 8.52413C65.5797 8.8615 65.8653 9.14078 66.2112 9.3318C66.557 9.52282 66.9499 9.61833 67.3475 9.60802C68.267 9.60802 68.7446 9.14981 68.7446 8.62841C68.7446 8.03433 67.856 7.90161 66.8894 7.70727C65.5898 7.43867 64.2366 7.02313 64.2366 5.49526C64.2366 4.32132 65.3851 3.23585 67.1932 3.25165C68.6179 3.25165 69.6787 3.8015 70.2797 4.68946L68.9151 5.41626C68.7266 5.14469 68.47 4.9244 68.1695 4.7762C67.8691 4.62801 67.5347 4.55682 67.1981 4.56938C66.3241 4.56938 65.879 4.98492 65.879 5.4605C65.879 5.99454 66.584 6.14306 67.6886 6.38164C68.946 6.65024 70.3691 7.04999 70.3691 8.59365C70.3691 9.6175 69.4496 10.9984 67.2728 10.9842C65.6808 10.9842 64.5599 10.3601 63.9149 9.262L63.9133 9.26674ZM74.7828 7.54453L73.4946 8.91123V10.8388H71.8701V0H73.4946V7.09897L76.9434 3.41755H78.922L75.933 6.59337L79 10.8404H77.1611L74.7844 7.54453H74.7828ZM40.5986 3.26903C38.6654 3.26903 37.0491 4.48564 37.0491 6.50804V10.8452H38.706V6.70871C38.706 5.4921 39.4257 4.76214 40.6554 4.76214C41.8852 4.76214 42.496 5.48894 42.496 6.70871V10.8452H44.1432V6.50804C44.1432 4.4888 42.5187 3.26903 40.5937 3.26903" fill="#03363D"/>
<path d="M6.36683 11.9993V4.32347L0 11.9993H6.36683Z" fill="#03363D"/>
<path d="M5.43443 3.81679C6.03144 3.22063 6.36683 2.41207 6.36683 1.56897H0C0 2.41207 0.335395 3.22063 0.932401 3.81679C1.52941 4.41295 2.33912 4.74787 3.18341 4.74787C4.02771 4.74787 4.83742 4.41295 5.43443 3.81679Z" fill="#03363D"/>
<path d="M8.34811 9.75221C7.7511 10.3484 7.41571 11.1569 7.41571 12H13.7825C13.7825 11.1569 13.4471 10.3484 12.8501 9.75221C12.2531 9.15605 11.4434 8.82113 10.5991 8.82113C9.75483 8.82113 8.94512 9.15605 8.34811 9.75221Z" fill="#03363D"/>
<path d="M7.41571 1.56897V9.24485L13.7839 1.56897H7.41571Z" fill="#03363D"/>
</svg>
