<svg width="42" height="14" viewBox="0 0 42 14" fill="none" xmlns="http://www.w3.org/2000/svg">
<path fill-rule="evenodd" clip-rule="evenodd" d="M13.845 6.93491C13.845 10.7647 10.7455 13.8698 6.92266 13.8698C3.09948 13.8698 0 10.7647 0 6.93491C0 3.10473 3.09948 0 6.92266 0C10.7455 0 13.845 3.10473 13.845 6.93491ZM11.311 5.09174C11.2666 5.06575 11.2161 5.05205 11.1647 5.05205C11.1133 5.05205 11.0628 5.06575 11.0184 5.09174L7.28521 7.27086C7.24058 7.29707 7.2036 7.33451 7.17794 7.37945C7.15228 7.42439 7.13883 7.47527 7.13893 7.52702V8.6759C7.13893 8.78158 7.19422 8.87887 7.28521 8.93171C7.32952 8.95767 7.37995 8.97135 7.43131 8.97135C7.48267 8.97135 7.5331 8.95767 7.57741 8.93171L8.80573 8.21432V10.8781C8.80536 10.9167 8.81263 10.955 8.82712 10.9908C8.84162 11.0265 8.86305 11.0591 8.89017 11.0866C8.9173 11.114 8.9496 11.1358 8.98519 11.1507C9.02079 11.1657 9.05899 11.1734 9.09759 11.1735C9.14897 11.1734 9.19942 11.1597 9.24386 11.1339L9.9777 10.7056C10.0223 10.6794 10.0592 10.642 10.0849 10.5972C10.1105 10.5523 10.124 10.5015 10.124 10.4498V7.44478L11.311 6.75154C11.3555 6.72534 11.3924 6.68794 11.418 6.64306C11.4436 6.59819 11.457 6.54739 11.4569 6.49573V5.3479C11.4569 5.24221 11.4009 5.14458 11.311 5.09174ZM7.28521 4.39534L8.46173 5.08264C8.46476 5.08446 8.46728 5.08702 8.46905 5.09008C8.47083 5.09314 8.4718 5.0966 8.47188 5.10014V5.95296C8.47188 6.04289 8.56812 6.09959 8.6458 6.05444C9.10283 5.78778 10.3333 5.07109 10.7868 4.80723C10.8041 4.79698 10.8185 4.78236 10.8284 4.76481C10.8384 4.74727 10.8435 4.72743 10.8434 4.70727C10.8433 4.68711 10.8378 4.66734 10.8276 4.64993C10.8175 4.63253 10.8029 4.61811 10.7854 4.60811L7.57741 2.73589C7.53309 2.70997 7.48266 2.6963 7.43131 2.6963C7.37996 2.6963 7.32953 2.70997 7.28521 2.73589C7.24062 2.76196 7.20364 2.79927 7.17797 2.8441C7.15231 2.88892 7.13884 2.9397 7.13893 2.99135V4.13988C7.13893 4.24521 7.19422 4.34285 7.28521 4.39534ZM6.62311 2.73554C6.57878 2.70962 6.52835 2.69595 6.477 2.69595C6.42565 2.69595 6.37523 2.70962 6.3309 2.73554L3.12153 4.60951C3.10417 4.61941 3.08972 4.63371 3.07962 4.65095C3.06952 4.6682 3.06413 4.6878 3.06398 4.70779C3.06384 4.72778 3.06895 4.74745 3.07881 4.76484C3.08866 4.78223 3.10291 4.79673 3.12013 4.80688C3.57296 5.07004 4.81143 5.79163 5.26636 6.05654C5.28372 6.06665 5.30345 6.07196 5.32354 6.07194C5.34363 6.07192 5.36335 6.06656 5.38068 6.05642C5.39802 6.04627 5.41235 6.0317 5.42221 6.0142C5.43206 5.9967 5.4371 5.97689 5.43678 5.95681V5.08894L6.56607 4.42964C6.69205 4.3558 6.76973 4.22037 6.76973 4.07444V2.99135C6.76973 2.88602 6.71339 2.78803 6.62311 2.73554ZM6.56012 7.27086L2.82618 5.09244C2.78191 5.06651 2.73154 5.05284 2.68025 5.05284C2.62895 5.05284 2.57858 5.06651 2.53432 5.09244C2.48973 5.11851 2.45275 5.15582 2.42709 5.20064C2.40142 5.24547 2.38796 5.29624 2.38804 5.3479V6.49573C2.38804 6.60141 2.44403 6.6987 2.53432 6.75154L3.72099 7.44443V10.4498C3.72099 10.5548 3.77663 10.6528 3.86692 10.7052L4.60146 11.1343C4.64608 11.16 4.6967 11.1735 4.74821 11.1733C4.79971 11.1732 4.85026 11.1594 4.89473 11.1335C4.93921 11.1075 4.97603 11.0702 5.00147 11.0255C5.02691 10.9807 5.04006 10.93 5.03959 10.8785V8.21467L6.26791 8.93206L6.27036 8.93311C6.31451 8.95835 6.36452 8.97154 6.41538 8.97135C6.46623 8.97117 6.51615 8.95762 6.56012 8.93206C6.60471 8.9059 6.64168 8.86853 6.66734 8.82365C6.69301 8.77877 6.70647 8.72795 6.70639 8.67625V7.52667C6.70639 7.42169 6.6504 7.32335 6.56012 7.27086Z" fill="#222222"/>
<path fill-rule="evenodd" clip-rule="evenodd" d="M32.7821 7.28224H33.2444V10.7917C33.2469 10.8584 33.2745 10.9216 33.3216 10.9688C33.3687 11.016 33.4319 11.0437 33.4986 11.0463H34.7362C34.8738 11.0463 35.0009 10.9306 35.0009 10.7917V7.28267H36.3424C36.4097 7.28199 36.4741 7.25487 36.5216 7.20716C36.5692 7.15945 36.5961 7.09497 36.5965 7.02762V5.95041C36.5965 5.80009 36.4808 5.69623 36.3428 5.69623H35.0009V5.25623C35.0009 4.82763 35.0706 4.49193 35.6718 4.49193C35.9383 4.49193 36.192 4.5958 36.3656 4.69966C36.4135 4.72725 36.4702 4.73544 36.524 4.72257C36.5778 4.70969 36.6246 4.67672 36.6548 4.63042L37.221 3.63429C37.2784 3.53042 37.2557 3.39194 37.175 3.33321C36.9436 3.11322 36.2381 2.82397 35.5448 2.82397C33.9956 2.82397 33.2444 3.81967 33.2444 5.25623V5.69623H32.7821C32.6317 5.69623 32.5279 5.80009 32.5279 5.95085V7.02718C32.5272 7.06079 32.5332 7.09421 32.5458 7.12542C32.5583 7.15663 32.5769 7.18499 32.6007 7.20881C32.6244 7.23262 32.6527 7.2514 32.6839 7.26402C32.715 7.27664 32.7484 7.28283 32.7821 7.28224ZM17 3.15923C17 3.0431 17.092 2.93923 17.2077 2.93923H20.0283C22.2589 2.93923 24.086 4.75707 24.086 6.98029C24.086 9.22716 22.2589 11.045 20.0278 11.045H17.2077C17.0925 11.045 17 10.9411 17 10.825V3.15923ZM25.0676 5.95041C25.0676 5.79965 25.1829 5.69535 25.3214 5.69535H25.8766C26.016 5.69535 26.0848 5.76503 26.1194 5.8575L26.3622 6.44826C26.5932 6.01965 26.9977 5.57966 27.6914 5.57966C28.1774 5.57966 28.5355 5.70675 28.7318 5.8575C28.8247 5.92718 28.8247 6.04288 28.7669 6.14674L28.2344 7.20072C28.1774 7.3059 28.085 7.38654 27.9342 7.32781C27.8417 7.29363 27.6454 7.24718 27.5297 7.24718C27.1248 7.24718 26.8241 7.53729 26.8241 7.98869V10.7908C26.8241 10.953 26.7321 11.0459 26.5358 11.0459H25.3214C25.254 11.0452 25.1896 11.0181 25.1421 10.9704C25.0946 10.9227 25.0677 10.8582 25.0672 10.7908L25.0676 5.95041ZM30.0755 5.69535C29.9365 5.69535 29.8213 5.79965 29.8213 5.95041V10.7908C29.8216 10.8581 29.8484 10.9226 29.8959 10.9703C29.9434 11.0181 30.0077 11.0452 30.075 11.0459H31.3236C31.391 11.0453 31.4554 11.0182 31.503 10.9705C31.5506 10.9228 31.5774 10.8582 31.5778 10.7908V5.95041C31.5778 5.79965 31.4629 5.69535 31.3236 5.69535H30.0755ZM29.6938 3.95859C29.6938 3.4029 30.1329 2.93967 30.6877 2.93967C31.2425 2.93967 31.6939 3.4029 31.6939 3.95859C31.6939 4.50289 31.2425 4.95428 30.6877 4.95428C30.5571 4.95417 30.4277 4.92832 30.3071 4.87822C30.1864 4.82812 30.0768 4.75475 29.9845 4.66229C29.8922 4.56983 29.819 4.4601 29.7691 4.33936C29.7193 4.21862 29.6936 4.08923 29.6938 3.95859ZM38.2242 7.15471H37.7851C37.658 7.15471 37.5532 7.03857 37.5532 6.89965V5.82288C37.5532 5.67256 37.6575 5.56826 37.7851 5.56826H38.2242V4.08612C38.2242 3.94719 38.3399 3.83062 38.4784 3.83062H39.7497C39.8777 3.83062 39.9811 3.94719 39.9811 4.08612V5.56826H41.0566C41.1946 5.56826 41.3103 5.67256 41.3103 5.82288V6.89965C41.3098 6.967 41.2829 7.03148 41.2354 7.07919C41.1879 7.1269 41.1235 7.15402 41.0561 7.15471H39.9815V9.019C39.9815 9.27406 40.1086 9.38931 40.3405 9.38931C40.5245 9.38931 40.8716 9.30824 40.9991 9.27406C41.1376 9.239 41.2647 9.29685 41.2998 9.43621L41.5307 10.4437C41.5658 10.6059 41.5071 10.6751 41.3576 10.7448C40.9991 10.8951 40.3979 11.0459 39.8312 11.0459C38.8145 11.0459 38.2246 10.3973 38.2246 9.18159L38.2242 7.15471ZM20.0919 9.20179C21.3987 9.20179 22.2424 8.17104 22.2424 6.85061C22.2424 5.54245 21.3987 4.51169 20.0919 4.51169H18.8784V9.20179H20.0919Z" fill="#222222"/>
</svg>
