<svg width="98" height="14" viewBox="0 0 98 14" fill="none" xmlns="http://www.w3.org/2000/svg">
<path d="M42.0635 0C42.0635 4.42663 42.0635 8.87443 42.0635 13.3011C42.0635 13.407 42.0423 13.4917 41.9152 13.534C40.6656 13.8517 39.3736 14.0424 38.0816 13.9576C36.3237 13.8306 34.7775 12.9198 34.2057 11.0348C33.6974 9.31921 33.7609 7.64599 34.6928 6.07867C35.2859 5.10439 36.1754 4.53253 37.3192 4.38427C37.9546 4.29955 38.5688 4.29955 39.183 4.44781C39.5007 4.51135 39.7972 4.65961 40.0937 4.78669C40.1785 4.80787 40.242 4.85023 40.3691 4.91377C40.3691 4.78669 40.3691 4.70197 40.3691 4.63843C40.3691 3.24054 40.3691 1.84266 40.3479 0.444781C40.3479 0.29652 40.4114 0.29652 40.5173 0.27534C40.9198 0.2118 41.3434 0.12708 41.7458 0.0423601C41.8729 0 41.9576 0 42.0635 0ZM40.3903 9.36157C40.3903 8.49319 40.3903 7.60363 40.3903 6.73525C40.3903 6.54463 40.3267 6.43873 40.1573 6.35401C39.5219 5.99395 38.8653 5.76097 38.124 5.80333C37.1921 5.86687 36.4508 6.24811 36.0695 7.11649C35.54 8.28139 35.5189 9.50983 35.9213 10.6959C36.2813 11.7126 37.0226 12.2844 38.1028 12.4327C38.7594 12.5174 39.3948 12.4539 40.0302 12.348C40.3903 12.2844 40.3903 12.2632 40.3903 11.9032C40.3903 11.056 40.3903 10.2088 40.3903 9.36157Z" fill="#0F9AE1"/>
<path d="M0 13.0045C0.16944 12.5809 0.338881 12.1573 0.508321 11.7337C0.953101 11.9032 1.3767 12.0938 1.8003 12.2209C2.90166 12.5597 4.02421 12.6021 5.12557 12.3268C6.58699 11.9667 6.77761 10.3994 6.01513 9.46746C5.63389 8.98032 5.08321 8.72615 4.53253 8.49317C3.66415 8.13311 2.7534 7.81541 1.9062 7.39181C0.847201 6.84113 0.25416 5.93039 0.25416 4.68077C0.25416 3.57941 0.571861 2.64749 1.46142 1.96973C2.03328 1.54612 2.68986 1.31314 3.3888 1.22842C3.93949 1.18606 4.49017 1.1437 5.04085 1.18606C5.90923 1.22842 6.75643 1.41904 7.54009 1.80029C7.70953 1.88501 7.75189 1.96973 7.66717 2.16035C7.49773 2.56277 7.34947 2.96519 7.20121 3.30407C6.60817 3.11345 6.03631 2.90165 5.46445 2.79575C4.57489 2.64749 3.68533 2.58395 2.8593 3.02873C1.86384 3.57941 1.77912 5.08319 2.7534 5.76095C3.43116 6.24809 4.21483 6.50225 4.97731 6.81995C5.73979 7.13765 6.50227 7.43417 7.15885 7.98485C7.85779 8.55672 8.21785 9.29802 8.28139 10.2088C8.32375 10.7383 8.30257 11.2466 8.13313 11.7549C7.92133 12.4115 7.51891 12.8986 6.94705 13.2587C6.26929 13.6823 5.52799 13.8729 4.74433 13.9576C4.70197 13.9576 4.65961 13.9788 4.61725 14C4.06657 14 3.51589 14 2.9652 14C2.68986 13.9576 2.41452 13.9153 2.13918 13.8517C1.39788 13.7246 0.677761 13.5128 0.02118 13.1316C0 13.1104 0 13.0469 0 13.0045Z" fill="#0F9AE1"/>
<path d="M18.321 0C18.321 0.12708 18.3422 0.27534 18.3422 0.402421C18.3422 1.71558 18.3422 3.04992 18.3422 4.36309C18.3422 4.44781 18.3422 4.55371 18.3422 4.61725C18.8717 4.51135 19.3588 4.40545 19.8459 4.34191C20.6932 4.23601 21.5404 4.32073 22.3452 4.70197C23.2771 5.14675 23.7854 5.95159 23.9761 6.94705C24.0608 7.45537 24.1243 7.96369 24.1243 8.47201C24.1455 10.1452 24.1243 11.8185 24.1243 13.5129C24.1243 13.5976 24.1243 13.6611 24.1243 13.7882C23.5948 13.7882 23.0865 13.7882 22.5782 13.7882C22.5358 13.7882 22.4935 13.7247 22.4723 13.6823C22.4511 13.6399 22.4723 13.5764 22.4723 13.5129C22.4723 11.9032 22.4935 10.2935 22.4511 8.70499C22.4299 8.15431 22.3452 7.58245 22.2181 7.05295C22.0275 6.35401 21.4133 5.95159 20.6932 5.86687C19.9095 5.78215 19.147 5.93041 18.3633 6.12103C18.3633 6.22693 18.3633 6.31165 18.3633 6.41755C18.3633 8.78971 18.3633 11.1619 18.3633 13.534C18.3633 13.7458 18.321 13.8094 18.1092 13.8094C17.7279 13.7882 17.3255 13.7882 16.9443 13.8094C16.7113 13.8306 16.6689 13.7458 16.6689 13.534C16.6689 10.9924 16.6689 8.42965 16.6689 5.88805C16.6689 4.10893 16.6689 2.35098 16.6689 0.571861C16.6689 0.381241 16.6901 0.27534 16.9231 0.25416C17.3255 0.2118 17.7068 0.1059 18.088 0.0423601C18.1727 0 18.2363 0 18.321 0Z" fill="#0F9AE1"/>
<path d="M97.5976 9.59455C95.5008 9.59455 93.404 9.59455 91.3071 9.59455C91.3495 11.056 92.0484 12.2632 93.6158 12.4539C94.6112 12.5809 95.5643 12.4962 96.5174 12.1573C96.5598 12.1362 96.6233 12.115 96.6657 12.115C96.6869 12.115 96.6869 12.115 96.7292 12.115C96.7928 12.5174 96.8563 12.9198 96.941 13.3222C96.9622 13.4705 96.8775 13.5129 96.7716 13.5552C95.6279 13.9576 94.4418 14.0847 93.2345 13.9153C92.112 13.7458 91.1801 13.2799 90.4811 12.3691C89.994 11.7126 89.7398 10.9501 89.6339 10.1664C89.5068 9.23449 89.528 8.30257 89.8034 7.39183C90.7353 4.34191 93.6581 3.85477 95.5431 4.70197C96.5386 5.14675 97.0893 5.97277 97.3435 7.01059C97.4494 7.43419 97.5129 7.87897 97.5764 8.30257C97.5976 8.70499 97.5976 9.14977 97.5976 9.59455ZM95.882 8.23903C95.8608 8.02723 95.8608 7.83661 95.8185 7.64599C95.6914 6.90469 95.3737 6.24811 94.6536 5.90923C93.5099 5.35855 92.0273 5.86687 91.4978 7.37065C91.3919 7.64599 91.3495 7.94251 91.286 8.23903C92.8533 8.23903 94.3571 8.23903 95.882 8.23903Z" fill="#303E47"/>
<path d="M54.0725 0C54.0725 3.70651 54.0725 7.43419 54.0725 11.1407C54.0725 11.3525 54.1148 11.5431 54.1572 11.7549C54.2631 12.1997 54.6231 12.348 55.0256 12.4327C55.4492 12.5174 55.4492 12.5174 55.3856 12.941C55.3433 13.2587 55.2797 13.5764 55.2162 13.9153C54.4537 13.9153 53.7124 13.8517 53.0982 13.3222C52.7169 13.0045 52.5263 12.5598 52.4628 12.0726C52.4204 11.8396 52.4204 11.6278 52.4204 11.3949C52.4204 7.77307 52.4204 4.15129 52.4204 0.529501C52.4204 0.338881 52.4416 0.23298 52.6746 0.2118C53.077 0.16944 53.4582 0.0635401 53.8395 0C53.903 0 53.9877 0 54.0725 0Z" fill="#0F9AE1"/>
<path d="M66.463 14C65.9758 13.8941 65.4887 13.7882 65.0227 13.6823C64.8745 13.6399 64.7474 13.5764 64.5991 13.5129C64.7686 13.0469 64.9168 12.6233 65.0651 12.1573C65.6369 12.4115 66.2088 12.5386 66.8018 12.5598C67.9456 12.6021 68.9622 12.2844 69.8094 11.5007C70.466 10.8865 70.826 10.1029 71.0378 9.23449C71.2708 8.28139 71.2708 7.3071 71.1226 6.33282C71.1014 6.2481 71.1226 6.12102 71.1861 6.05748C71.5462 5.67624 71.9062 5.31618 72.2875 4.93494C72.3086 4.91376 72.3722 4.89258 72.4569 4.82904C72.5628 5.295 72.6899 5.69742 72.7746 6.1422C72.9652 7.32828 72.9441 8.51437 72.6264 9.67927C72.0333 11.9244 70.4448 13.534 68.115 13.8941C67.9456 13.9153 67.7761 13.9576 67.6067 14C67.1831 14 66.823 14 66.463 14Z" fill="#303E47"/>
<path d="M62.8621 12.0302C62.9468 12.4962 63.0104 12.9198 63.0739 13.3434C63.0739 13.4069 63.0104 13.5128 62.9469 13.5128C62.4174 13.6611 61.909 13.8094 61.3795 13.8941C60.9136 13.9576 60.4476 13.9576 59.9816 13.9576C58.6049 13.9153 57.3977 13.4493 56.5505 12.3056C56.1269 11.7337 55.8939 11.0771 55.7668 10.3782C55.5974 9.31919 55.6186 8.26019 55.9574 7.22237C56.4022 5.86685 57.2494 4.89257 58.6261 4.49015C59.8334 4.13009 61.0195 4.19363 62.1208 4.89257C62.968 5.42207 63.3916 6.26927 63.5611 7.22237C63.6882 7.92131 63.6882 8.64143 63.7517 9.36155C63.7729 9.55218 63.6881 9.61572 63.4975 9.61572C61.5701 9.61572 59.6216 9.61572 57.6942 9.61572C57.6307 9.61572 57.5459 9.61572 57.4189 9.63689C57.5036 9.99696 57.5459 10.357 57.6518 10.6959C57.9907 11.7761 58.7744 12.3479 59.8969 12.475C60.8288 12.5809 61.7396 12.4538 62.6292 12.1785C62.6927 12.115 62.7774 12.0726 62.8621 12.0302ZM62.0149 8.21783C61.9726 7.92131 61.9514 7.66715 61.8879 7.41299C61.549 5.86685 60.1087 5.37971 58.9015 5.93039C58.1602 6.26927 57.7577 6.90467 57.5671 7.66715C57.5248 7.83659 57.5036 8.02721 57.4612 8.21783C59.0074 8.21783 60.4688 8.21783 62.0149 8.21783Z" fill="#0F9AE1"/>
<path d="M32.1087 12.0303C32.1934 12.475 32.257 12.8775 32.3205 13.2799C32.3417 13.407 32.2993 13.4705 32.1722 13.534C31.4733 13.7882 30.7532 13.9365 30.0119 13.9576C29.3977 13.9788 28.7623 13.9788 28.148 13.8306C26.5383 13.4281 25.5005 12.4327 25.0981 10.823C24.7804 9.59455 24.8016 8.36611 25.204 7.15885C25.6488 5.82451 26.5172 4.89259 27.8727 4.46899C28.9952 4.1301 30.0966 4.19364 31.1344 4.76551C31.8969 5.16793 32.3629 5.84569 32.6382 6.65053C32.9347 7.54009 32.9983 8.49319 32.9771 9.42511C32.9771 9.59455 32.8924 9.59455 32.7441 9.59455C30.8167 9.59455 28.8893 9.59455 26.9831 9.59455C26.8984 9.59455 26.7925 9.59455 26.6443 9.59455C26.7078 9.91225 26.729 10.2088 26.8137 10.5053C27.0043 11.2254 27.3855 11.7973 28.0421 12.1573C28.4869 12.3903 28.9741 12.475 29.4824 12.4962C30.2872 12.5386 31.0497 12.4327 31.8122 12.1573C31.9181 12.115 32.0028 12.0726 32.1087 12.0303ZM26.7502 8.21785C26.8137 8.21785 26.8561 8.23903 26.8772 8.23903C28.1269 8.23903 29.3977 8.23903 30.6473 8.23903C31.2827 8.23903 31.3039 8.23903 31.198 7.60363C30.965 6.41755 30.2449 5.71861 29.08 5.73979C27.6609 5.73979 26.8137 6.96823 26.7502 8.21785Z" fill="#0F9AE1"/>
<path d="M50.8743 4.51135C50.8743 4.63843 50.8743 4.72315 50.8743 4.80787C50.8743 7.62482 50.8743 10.4418 50.8743 13.2587C50.8743 13.4281 50.832 13.5129 50.6413 13.5552C49.773 13.7247 48.9046 13.8941 48.015 13.9365C47.3161 13.9788 46.6383 13.9788 45.9605 13.8306C44.838 13.5764 44.0967 12.8775 43.7155 11.7973C43.4613 11.056 43.4189 10.2935 43.4189 9.50984C43.4189 7.90016 43.4189 6.29048 43.4189 4.70197C43.4189 4.65961 43.4189 4.61725 43.4189 4.53253C43.9696 4.53253 44.4991 4.53253 45.0922 4.53253C45.0922 4.61725 45.0922 4.72315 45.0922 4.80787C45.0922 6.45992 45.0922 8.13314 45.0922 9.78518C45.0922 10.3782 45.1981 10.9501 45.4522 11.4796C45.7487 12.0938 46.2782 12.3903 46.9137 12.4327C47.6126 12.4539 48.3115 12.3903 49.0105 12.348C49.074 12.348 49.1376 12.2421 49.1799 12.1573C49.2011 12.0938 49.1799 12.0091 49.1799 11.9244C49.1799 9.57338 49.1799 7.2224 49.1799 4.87141C49.1799 4.51135 49.1799 4.51135 49.5188 4.51135C49.9636 4.51135 50.4084 4.51135 50.8743 4.51135Z" fill="#0F9AE1"/>
<path d="M73.9185 13.7247C73.9185 13.6188 73.9185 13.5552 73.9185 13.4705C73.9185 10.6536 73.9185 7.85782 73.9185 5.04088C73.9185 4.82908 73.982 4.76554 74.1726 4.72318C75.507 4.42665 76.8413 4.25721 78.218 4.36312C79.1711 4.44784 79.9971 4.76554 80.5902 5.5492C80.9926 6.0787 81.1832 6.69292 81.2467 7.3495C81.3103 7.9849 81.3315 8.6203 81.3315 9.23452C81.3526 10.6324 81.3315 12.0091 81.3315 13.407C81.3315 13.4917 81.3315 13.5764 81.3315 13.6823C81.2467 13.6823 81.162 13.7035 81.0773 13.7035C80.7172 13.7035 80.3572 13.7035 79.9759 13.7035C79.6794 13.7035 79.6794 13.7035 79.6794 13.3858C79.6794 11.7973 79.7006 10.1876 79.6582 8.59912C79.6582 8.06962 79.5735 7.51894 79.4253 7.01062C79.2346 6.2905 78.7051 5.90926 77.985 5.80336C77.2861 5.71864 76.0788 5.78218 75.5493 5.95162C75.5493 8.5144 75.5493 11.0984 75.5493 13.6823C75.0198 13.7247 74.4903 13.7247 73.9185 13.7247Z" fill="#303E47"/>
<path d="M15.292 6.16338C14.5507 5.8245 13.8094 5.73978 13.0469 5.78214C12.3056 5.8245 11.6914 6.12102 11.2255 6.69288C10.8866 7.11649 10.7171 7.62481 10.6324 8.13313C10.5265 8.83207 10.5265 9.55219 10.6748 10.2511C10.9078 11.289 11.4584 12.0303 12.5174 12.3268C13.0469 12.475 13.5764 12.5174 14.1059 12.4115C14.5931 12.3268 15.059 12.2209 15.5885 12.115C15.6309 12.3268 15.6733 12.5598 15.7156 12.8139C15.7368 12.9622 15.7368 13.1104 15.7792 13.2587C15.8427 13.4493 15.7792 13.534 15.6097 13.5976C14.2542 13.9788 12.8775 14.1483 11.522 13.6611C10.2935 13.2163 9.48869 12.3268 9.08627 11.0772C8.83211 10.3147 8.76857 9.50983 8.81093 8.72617C8.91683 7.15885 9.46751 5.8245 10.8442 4.93494C11.4161 4.5537 12.0727 4.38426 12.7504 4.32072C13.6823 4.236 14.5719 4.38426 15.4403 4.6596C15.6309 4.72314 15.6521 4.78668 15.5885 4.95612C15.5038 5.33736 15.4191 5.73978 15.292 6.16338Z" fill="#0F9AE1"/>
<path d="M88.956 12.1361C89.0407 12.5809 89.1042 13.0045 89.1678 13.407C89.1678 13.4493 89.0831 13.5552 89.0195 13.5764C88.5536 13.6823 88.0876 13.8094 87.6216 13.8941C86.7109 14.0424 85.779 14 84.9106 13.6611C83.7245 13.2163 82.9197 12.3691 82.5384 11.1619C82.0937 9.74281 82.0936 8.34492 82.6655 6.96822C83.3221 5.37972 84.5294 4.49016 86.2449 4.36308C87.198 4.27836 88.13 4.42662 89.0619 4.78668C88.9348 5.25264 88.8289 5.69742 88.723 6.09984C88.1511 5.99394 87.6005 5.84568 87.0498 5.80332C86.0543 5.7186 85.1859 5.97276 84.5717 6.84114C84.254 7.28592 84.1058 7.79424 84.0422 8.34492C83.9575 9.02269 83.9575 9.67927 84.1058 10.357C84.4023 11.6914 85.2707 12.4539 86.6474 12.5386C87.3887 12.5809 88.13 12.4962 88.8289 12.2421C88.8289 12.1573 88.8924 12.1573 88.956 12.1361Z" fill="#303E47"/>
<path d="M65.3406 5.33738C65.8065 5.9516 66.2513 6.54464 66.6961 7.1165C68.1575 5.67626 69.6189 4.23602 71.1015 2.7746C71.3981 3.17702 71.6946 3.55826 71.9699 3.91832C71.3345 4.5749 70.7203 5.18912 70.1061 5.80334C69.0047 6.9047 67.8822 8.00606 66.7596 9.10743C66.6325 9.23451 66.5902 9.23451 66.4843 9.08625C65.8701 8.26023 65.2347 7.45538 64.6204 6.62936C64.5781 6.56582 64.5569 6.39638 64.5993 6.33284C64.8322 6.01514 65.0864 5.69744 65.3406 5.33738Z" fill="#0F9AE1"/>
<path d="M64.0274 3.68533C63.752 3.34645 63.4767 2.96521 63.1802 2.60515C64.7051 0.995467 68.3057 0.677767 70.3814 2.24509C70.0425 2.56279 69.7036 2.90167 69.3647 3.19819C69.3224 3.24055 69.1953 3.24055 69.1529 3.21937C67.8186 2.47807 66.4631 2.45689 65.0652 3.04993C64.7051 3.19819 64.3874 3.45235 64.0274 3.68533Z" fill="#303E47"/>
</svg>
