<svg width="82" height="16" viewBox="0 0 82 16" fill="none" xmlns="http://www.w3.org/2000/svg">
<path d="M11.9223 15H1.48251C0.665378 15 0 14.335 0 13.5183V3.08054C0 2.26388 0.665378 1.59888 1.48251 1.59888H11.9223C12.7395 1.59888 13.4048 2.26388 13.4048 3.08054V13.5144C13.4087 14.335 12.7434 15 11.9223 15ZM1.48251 2.41943C1.11675 2.41943 0.821023 2.71499 0.821023 3.08054V13.5144C0.821023 13.88 1.11675 14.1755 1.48251 14.1755H11.9223C12.2881 14.1755 12.5838 13.88 12.5838 13.5144V3.08054C12.5838 2.71499 12.2881 2.41943 11.9223 2.41943H1.48251Z" fill="#676B74"/>
<path d="M9.69653 3.81556C9.52143 3.81556 9.38135 3.67556 9.38135 3.50056V1.315C9.38135 1.14 9.52143 1 9.69653 1C9.87163 1 10.0117 1.14 10.0117 1.315V3.49667C10.0117 3.67167 9.87163 3.81556 9.69653 3.81556ZM3.677 3.81556C3.5019 3.81556 3.36182 3.67556 3.36182 3.50056V1.315C3.36182 1.14 3.5019 1 3.677 1C3.8521 1 3.99217 1.14 3.99217 1.315V3.49667C3.99607 3.67167 3.8521 3.81556 3.677 3.81556ZM7.08171 10.87C5.7743 10.87 4.71203 9.80833 4.71203 8.50167C4.71203 7.195 5.7743 6.13333 7.08171 6.13333C7.67316 6.13333 8.23737 6.35111 8.67317 6.74778C8.72765 6.79444 8.73154 6.88 8.68095 6.93056C8.63426 6.985 8.54866 6.98889 8.49807 6.93833C8.10896 6.58444 7.60701 6.39 7.08171 6.39C5.91827 6.39 4.97273 7.335 4.97273 8.49778C4.97273 9.66055 5.91827 10.6056 7.08171 10.6056C7.60701 10.6056 8.10896 10.4111 8.49807 10.0572C8.55255 10.0106 8.63426 10.0144 8.68095 10.065C8.72765 10.1194 8.72376 10.2011 8.67317 10.2478C8.23737 10.6522 7.67316 10.87 7.08171 10.87Z" fill="#676B74"/>
<path d="M24.1943 10.9806C23.53 11.5785 22.6665 11.9438 21.7033 11.9438C19.6607 11.9438 18 10.2998 18 8.25713C18 6.21451 19.6607 4.55383 21.7033 4.55383C22.6001 4.55383 23.4138 4.86936 24.0615 5.40078" stroke="#666A73" stroke-miterlimit="10" stroke-linecap="round"/>
<path d="M30.3224 11.6781C32.2576 11.6781 33.8264 10.1093 33.8264 8.17412C33.8264 6.23891 32.2576 4.6701 30.3224 4.6701C28.3872 4.6701 26.8184 6.23891 26.8184 8.17412C26.8184 10.1093 28.3872 11.6781 30.3224 11.6781Z" stroke="#666A73" stroke-miterlimit="10" stroke-linecap="round"/>
<path d="M63.9674 11.6781C65.9026 11.6781 67.4714 10.1093 67.4714 8.17412C67.4714 6.23891 65.9026 4.6701 63.9674 4.6701C62.0322 4.6701 60.4634 6.23891 60.4634 8.17412C60.4634 10.1093 62.0322 11.6781 63.9674 11.6781Z" stroke="#666A73" stroke-miterlimit="10" stroke-linecap="round"/>
<path d="M47.3272 10.0009C46.7128 11.0139 45.6001 11.6781 44.3214 11.6781C42.3784 11.6781 40.8174 10.1005 40.8174 8.17412C40.8174 6.24774 42.395 4.6701 44.3214 4.6701C46.2644 4.6701 47.8254 6.24774 47.8254 8.17412H40.9835" stroke="#666A73" stroke-miterlimit="10" stroke-linecap="round"/>
<path d="M33.8428 4.42096V11.9438" stroke="#666A73" stroke-miterlimit="10" stroke-linecap="round"/>
<path d="M51.1304 4.42096V11.9438" stroke="#666A73" stroke-miterlimit="10" stroke-linecap="round"/>
<path d="M37.7124 1V11.9438" stroke="#666A73" stroke-miterlimit="10" stroke-linecap="round"/>
<path d="M67.4717 1V11.9438" stroke="#666A73" stroke-miterlimit="10" stroke-linecap="round"/>
<path d="M71.7725 1V11.9438" stroke="#666A73" stroke-miterlimit="10" stroke-linecap="round"/>
<path d="M51.1304 11.9438V7.36035C51.1304 5.73289 52.4423 4.42096 54.0698 4.42096C55.6972 4.42096 57.0091 5.73289 57.0091 7.36035V11.9438" stroke="#666A73" stroke-miterlimit="10" stroke-linecap="round"/>
<path d="M81.2054 4.42096V9.00441C81.2054 10.6319 79.8935 11.9438 78.266 11.9438C76.6386 11.9438 75.3267 10.6319 75.3267 9.00441V4.42096" stroke="#666A73" stroke-miterlimit="10" stroke-linecap="round"/>
<path d="M81.2053 7.29395V11.8774C81.2053 13.5049 79.7106 15.0327 78.0998 14.9995C77.5352 14.9829 77.0037 14.9663 75.9409 14.5843" stroke="#666A73" stroke-miterlimit="10" stroke-linecap="round"/>
</svg>
