<svg width="112" height="14" viewBox="0 0 112 14" fill="none" xmlns="http://www.w3.org/2000/svg">
<path d="M11.7462 13.9986C11.7253 14.002 11.7078 13.9986 11.6869 13.9951C11.5265 13.9602 11.1919 13.5244 11.0768 13.3954C11.021 13.3396 10.9617 13.2769 10.9583 13.2002C10.9548 13.113 11.021 13.0398 11.0838 12.977C12.3702 11.708 13.6532 10.4355 14.9397 9.16642C15.4034 8.7097 15.881 8.2251 16.0693 7.60103C16.2959 6.85146 16.0205 5.97986 15.4069 5.49525C14.7933 5.01065 13.8799 4.94789 13.2035 5.33837C12.9106 5.5092 12.6666 5.75325 12.4295 5.99032C10.7874 7.63938 9.14185 9.28844 7.49977 10.934C7.44747 10.9863 7.38472 11.0456 7.3115 11.0526C7.20691 11.0665 7.11975 10.9863 7.04654 10.9131C6.91405 10.7806 6.78157 10.6481 6.64909 10.5157C6.57587 10.4424 6.49569 10.3483 6.52009 10.2472C6.53404 10.1949 6.57239 10.1531 6.61074 10.1147C8.22145 8.49703 9.82867 6.87935 11.4394 5.25818C11.802 4.8956 12.168 4.52604 12.6073 4.25759C13.8485 3.50104 15.6056 3.7416 16.5992 4.80146C17.5929 5.86133 17.7184 7.63241 16.8851 8.82127C16.6794 9.11412 16.4284 9.36863 16.1809 9.61965C15.3232 10.4878 14.4656 11.3489 13.6044 12.2135C13.1721 12.6458 12.7433 13.0747 12.311 13.5035C12.168 13.6499 11.9449 13.9741 11.7462 13.9986Z" fill="black"/>
<path d="M6.48186 0.771206C6.48883 0.854879 6.42259 0.93158 6.36332 0.990848C4.96877 2.38192 3.57073 3.77299 2.17617 5.16405C1.85194 5.4848 1.52422 5.81601 1.32549 6.2274C0.987313 6.92816 1.10236 7.83114 1.61486 8.41685C2.12736 9.00256 3.01988 9.22918 3.74853 8.95027C4.2436 8.762 4.63756 8.37501 5.0106 7.99849C6.65966 6.3564 8.30524 4.71431 9.95081 3.06873C10.0136 3.00598 10.0868 2.93974 10.1739 2.9502C10.2367 2.95717 10.2855 3.00598 10.3308 3.0513C10.4912 3.21516 10.6551 3.37902 10.8154 3.54288C10.8782 3.60564 10.9444 3.68234 10.9305 3.76601C10.92 3.82528 10.8782 3.8706 10.8364 3.91244C9.12803 5.61728 7.4197 7.32213 5.71137 9.02697C5.40456 9.33377 5.09428 9.64057 4.71077 9.84278C3.0896 10.7039 0.969881 9.91948 0.255172 8.25648C-0.138789 7.33956 -0.0725482 6.24135 0.426005 5.37672C0.711889 4.88166 1.12328 4.47375 1.5277 4.07281C2.87693 2.7445 4.22268 1.4127 5.56842 0.0809016C5.61026 0.039065 5.65907 -0.00625802 5.71834 0.000714755C5.76715 0.00420114 5.80201 0.039065 5.83688 0.0739289C6.01817 0.255221 6.20295 0.436513 6.38424 0.617805C6.42608 0.659642 6.46791 0.701478 6.47837 0.757261C6.48186 0.764233 6.48186 0.76772 6.48186 0.771206Z" fill="black"/>
<path d="M12.3635 2.27385C12.3147 2.26687 12.2764 2.22504 12.2415 2.19017C12.0567 1.99145 11.8685 1.79621 11.6419 1.64281C11.0178 1.21747 10.1392 1.21399 9.51168 1.63235C9.3025 1.77181 9.12121 1.94961 8.9434 2.12742C7.21764 3.84621 5.49188 5.56848 3.7696 7.28727C3.7208 7.33608 3.66153 7.38838 3.59529 7.38489C3.53253 7.3814 3.48372 7.33608 3.4384 7.29424C3.25013 7.11295 3.06884 6.92817 2.88755 6.73991C2.85268 6.70156 2.81433 6.66321 2.80736 6.61091C2.7969 6.53073 2.85617 6.46448 2.91195 6.4087C4.54707 4.7701 6.18218 3.13498 7.81381 1.49638C8.16594 1.14426 8.52155 0.788647 8.95038 0.53414C9.59536 0.150638 10.3833 0.0216417 11.1224 0.157611C11.8615 0.29358 12.5448 0.684055 13.0573 1.2349C13.134 1.31858 13.2142 1.42666 13.1794 1.53473C13.1619 1.59052 13.1166 1.63584 13.0748 1.67768C12.9005 1.84502 12.7261 2.01585 12.5518 2.1832C12.4995 2.23201 12.4368 2.28779 12.3635 2.27385Z" fill="black"/>
<path d="M6.87916 13.887C5.89949 13.873 4.9233 13.4128 4.26786 12.6179C4.24345 12.5866 4.21556 12.5552 4.21905 12.5134C4.21905 12.468 4.25391 12.4297 4.28877 12.4018C4.47007 12.231 4.65136 12.0601 4.83614 11.8893C4.88495 11.844 4.93376 11.7986 4.99651 11.7812C5.1534 11.7429 5.28239 11.8928 5.38699 12.0148C5.95875 12.6842 7.01513 12.8794 7.78562 12.4576C8.10637 12.2833 8.37133 12.0183 8.63281 11.7603C10.2819 10.1147 11.9309 8.46566 13.5835 6.82008C13.6672 6.73641 13.7752 6.64576 13.8903 6.66668C13.96 6.68063 14.0158 6.73641 14.0681 6.78522C14.2285 6.94559 14.3888 7.10945 14.5492 7.26983C14.598 7.31864 14.6468 7.37791 14.6364 7.44415C14.6294 7.48947 14.5945 7.52433 14.5632 7.55571C12.8688 9.24312 11.1744 10.934 9.48349 12.6214C9.23247 12.869 8.98145 13.12 8.69557 13.3257C8.13774 13.7196 7.50671 13.894 6.87916 13.887Z" fill="black"/>
<path d="M99.5798 6.98066C99.5798 6.26159 99.5798 5.53966 99.5798 4.82058C99.5798 4.65508 99.5798 4.49243 99.5798 4.32693C99.5798 4.29839 99.5798 4.27271 99.5827 4.24418C99.5827 4.21564 99.6226 4.16999 99.6512 4.16428C99.6797 4.15857 99.7054 4.15001 99.731 4.15001C100.051 4.15001 100.37 4.14716 100.69 4.15001C100.744 4.15001 100.798 4.16713 100.85 4.1814C100.949 4.20993 101.038 4.48387 101.092 4.57233C101.195 4.7521 101.3 4.93186 101.403 5.11163C101.617 5.47973 103.326 8.49301 103.341 8.48445C103.355 8.47589 103.378 8.46447 103.378 8.45021C103.386 8.38743 103.395 8.32465 103.395 8.25902C103.395 7.03488 103.392 5.81359 103.392 4.58945C103.392 4.4696 103.389 4.35261 103.386 4.23276C103.386 4.20708 103.426 4.16142 103.455 4.15572C103.463 4.15286 103.472 4.15001 103.481 4.15001C103.717 4.15001 103.954 4.14716 104.191 4.15001C104.225 4.15001 104.262 4.16428 104.297 4.17855C104.334 4.19281 104.359 4.22135 104.362 4.25844C104.368 4.34975 104.371 4.44107 104.371 4.53238C104.371 5.69945 104.371 6.86938 104.371 8.03645C104.371 8.51013 104.371 8.98666 104.371 9.46034C104.371 9.53453 104.371 9.60587 104.368 9.68006C104.365 9.77422 104.311 9.82844 104.214 9.83985C104.185 9.8427 104.16 9.84556 104.131 9.84556C103.849 9.84556 103.566 9.84556 103.284 9.84556C103.238 9.84556 103.192 9.837 103.15 9.82844C103.112 9.82273 103.075 9.80561 103.061 9.77137C102.941 9.45463 101.486 7.08624 101.278 6.71814C101.084 6.37573 100.835 6.0276 100.681 5.66521C100.661 5.62241 100.613 5.60529 100.564 5.61385C100.55 5.6167 100.539 5.63382 100.527 5.64523C100.521 5.65094 100.521 5.66236 100.524 5.67092C100.564 5.80503 100.556 5.942 100.556 6.07896C100.556 7.16614 100.559 8.25046 100.559 9.33764C100.559 9.46604 100.561 9.59445 100.564 9.72C100.564 9.76281 100.527 9.80846 100.487 9.81988C100.462 9.82558 100.433 9.83985 100.407 9.83985C100.17 9.83985 99.9336 9.83985 99.6968 9.837C99.6397 9.837 99.5912 9.78849 99.5884 9.73427C99.5855 9.68006 99.5827 9.62584 99.5827 9.57162C99.5827 8.70416 99.5827 7.83956 99.5827 6.9721C99.577 6.98066 99.5798 6.98066 99.5798 6.98066Z" fill="black"/>
<path d="M111.211 5.58249C111.211 5.58534 111.211 5.5882 111.208 5.59105C111.2 5.61103 111.177 5.62244 111.157 5.631C111.003 5.69378 110.287 5.93918 110.184 5.71946C109.924 5.17159 109.282 4.88053 108.697 4.88339C108.038 4.88624 107.39 5.2629 107.088 5.85357C106.905 6.2074 106.825 6.60974 106.828 7.00638C106.831 7.49147 106.948 7.98797 107.231 8.38461C107.818 9.20926 109.18 9.3605 109.941 8.69564C110.09 8.56438 110.258 8.39032 110.307 8.19628C110.315 8.16204 110.332 8.12779 110.352 8.09926C110.421 8.00224 110.415 7.89381 110.421 7.78538C110.424 7.73687 110.367 7.67694 110.321 7.66838C110.275 7.66268 110.23 7.65412 110.187 7.65412C109.667 7.65412 109.145 7.65126 108.626 7.65412C108.546 7.65412 108.463 7.66838 108.375 7.6798C108.352 7.66268 108.324 7.63985 108.295 7.61702C108.258 7.58849 108.232 7.54854 108.232 7.50003C108.232 7.32597 108.232 7.15476 108.235 6.9807C108.235 6.92933 108.286 6.87797 108.341 6.87226C108.395 6.86656 108.449 6.8637 108.503 6.8637C108.966 6.8637 109.428 6.8637 109.89 6.8637C110.133 6.8637 110.375 6.8637 110.618 6.8637C110.777 6.8637 111.086 6.80663 111.225 6.9008C111.428 7.03206 111.505 7.23751 111.482 7.46293C111.434 7.9252 111.303 8.38175 111.063 8.77839C110.823 9.17502 110.472 9.51173 110.047 9.70006C109.961 9.73716 109.873 9.76855 109.782 9.79708C109.014 10.0425 108.152 10.0453 107.416 9.72004C106.606 9.3605 106.118 8.66425 105.901 7.82533C105.693 7.02635 105.804 6.14463 106.201 5.4227C106.674 4.5638 107.487 4.15004 108.446 4.04161C108.84 3.99881 109.242 4.0359 109.622 4.1529C110.312 4.36405 110.923 4.86341 111.2 5.53113C111.208 5.5454 111.214 5.56537 111.211 5.58249Z" fill="black"/>
<path d="M79.2148 6.995C79.2148 6.1732 79.2148 5.35425 79.2148 4.53245C79.2148 4.4497 79.2177 4.3698 79.2205 4.28705C79.2234 4.22998 79.2634 4.18718 79.3204 4.17291C79.3547 4.16435 79.3918 4.15579 79.4289 4.15293C79.503 4.15008 79.5744 4.15008 79.6486 4.15008C80.5189 4.15008 81.4491 4.0445 82.2966 4.29561C82.8616 4.46396 83.3923 4.80638 83.6891 5.31715C83.7747 5.46268 83.8375 5.61962 83.8917 5.78227C84.12 6.46996 84.14 7.22899 83.9516 7.92809C83.8375 8.35326 83.6406 8.76131 83.341 9.08375C82.6761 9.79141 81.7487 9.84848 80.8413 9.85419C80.4047 9.85704 79.9653 9.85419 79.5287 9.85419C79.4545 9.85419 79.3832 9.85704 79.3119 9.82851C79.2691 9.80853 79.232 9.77714 79.2263 9.72863C79.2177 9.64588 79.2177 9.56599 79.2148 9.48324C79.2148 8.80981 79.2148 8.13354 79.2148 7.46012C79.2148 7.30603 79.2148 7.15194 79.2148 6.995ZM80.2278 7.22899C80.2278 7.68554 80.2307 8.1421 80.2307 8.5958C80.2307 8.67855 80.2335 8.75845 80.2392 8.8412C80.2421 8.89827 80.2678 8.94393 80.3106 8.98388C80.3391 9.01241 80.3705 9.02668 80.4076 9.01241C80.5132 8.96961 80.6815 9.00956 80.7985 9.0067C80.8898 9.00385 80.9783 9.00385 81.0696 8.99814C81.1638 8.99529 81.2579 8.98958 81.3521 8.98388C81.4862 8.97532 81.6232 8.9639 81.7544 8.93251C81.8943 8.89827 82.0284 8.8412 82.1568 8.77843C82.4621 8.63004 82.6818 8.38179 82.8159 8.07076C82.9986 7.6513 83.0299 7.24325 83.0185 6.78955C82.9986 5.93065 82.4935 5.2344 81.6346 5.05749C81.2208 4.97188 80.79 5.00327 80.3705 5.00613C80.1194 5.00898 80.2278 5.47695 80.2278 5.64816C80.2278 5.95919 80.2307 6.27022 80.2307 6.58125C80.2278 6.80382 80.2278 7.01783 80.2278 7.22899Z" fill="black"/>
<path d="M71.0596 6.47852C71.1595 6.3758 71.1823 6.26737 71.1823 6.14181C71.1795 5.59395 71.1795 5.04608 71.1823 4.49821C71.1823 4.41546 71.1852 4.33556 71.1909 4.25281C71.1937 4.21001 71.2337 4.17006 71.2793 4.1615C71.2965 4.15865 71.3164 4.15294 71.3335 4.15294C71.5447 4.15294 71.753 4.15009 71.9642 4.15009C71.9899 4.15009 72.0184 4.15579 72.0441 4.1615C72.1325 4.17577 72.1725 4.21857 72.1753 4.30703C72.1782 4.38122 72.1782 4.45255 72.1782 4.52674C72.1782 6.17035 72.1782 7.8111 72.1782 9.4547C72.1782 9.53746 72.1782 9.62021 72.1753 9.7001C72.1725 9.78 72.1211 9.83422 72.0412 9.84563C72.0155 9.84848 71.987 9.85419 71.9585 9.85419C71.7587 9.85419 71.5561 9.85419 71.3564 9.85419C71.3393 9.85419 71.3193 9.85134 71.3022 9.84848C71.2479 9.84278 71.1966 9.79427 71.1937 9.74291C71.188 9.67157 71.1852 9.59738 71.1852 9.52319C71.1852 9.14938 71.1852 8.77558 71.1852 8.40177C71.1852 8.14496 71.1852 7.891 71.1852 7.63418C71.1852 7.57997 71.1795 7.52575 71.1737 7.47154C71.168 7.42588 71.1081 7.36881 71.0625 7.36596C71.0254 7.3631 70.9911 7.36025 70.954 7.36025C70.2435 7.36025 69.5301 7.36025 68.8196 7.36025C68.8111 7.36025 68.8025 7.36025 68.7911 7.36025C68.6456 7.3574 68.6227 7.39735 68.6199 7.54287C68.6199 7.61706 68.6199 7.6884 68.6199 7.76259C68.6199 8.32758 68.6199 8.89257 68.6199 9.46041C68.6199 9.5346 68.6199 9.60594 68.617 9.68013C68.6142 9.78856 68.56 9.85134 68.4487 9.85134C68.2118 9.85705 67.975 9.85134 67.7382 9.85134C67.6868 9.85134 67.6354 9.79427 67.6326 9.74291C67.6269 9.64303 67.624 9.54316 67.624 9.44329C67.624 7.96519 67.624 6.48709 67.624 5.00898C67.624 4.80924 67.624 4.60664 67.624 4.4069C67.624 4.35268 67.6297 4.29847 67.6354 4.24425C67.6383 4.22142 67.6868 4.17577 67.7096 4.17291C67.7267 4.17006 67.7467 4.16435 67.7638 4.16435C67.9836 4.16435 68.2004 4.1615 68.4201 4.16435C68.4629 4.16435 68.5086 4.18433 68.5514 4.19859C68.5885 4.21001 68.6113 4.2414 68.6142 4.28135C68.617 4.3641 68.6199 4.44399 68.6199 4.52674C68.6199 5.04608 68.6199 5.56826 68.6199 6.0876C68.6199 6.16179 68.6199 6.23313 68.6227 6.30732C68.6284 6.47567 68.6513 6.50135 68.8111 6.50135C68.9652 6.50135 69.1221 6.50135 69.2762 6.50135C69.787 6.50135 70.2977 6.50135 70.8085 6.50135C70.8913 6.48709 70.9797 6.48138 71.0596 6.47852Z" fill="black"/>
<path d="M25.5611 9.79427C25.5011 9.74291 25.4698 9.55173 25.4441 9.47754C25.4013 9.35769 25.3585 9.23784 25.3185 9.11514C25.2757 8.99244 25.2358 8.86689 25.1901 8.74705C25.1473 8.63291 25.0646 8.51021 25.0446 8.39321C25.0246 8.26766 24.9533 8.23342 24.8363 8.23342C24.1058 8.23627 23.3782 8.23627 22.6477 8.23627C22.6305 8.23627 22.6106 8.24198 22.5934 8.24483C22.465 8.26766 22.4023 8.59296 22.368 8.68712C22.2853 8.90969 22.2025 9.13226 22.1255 9.35769C22.0741 9.50892 22.0399 9.85134 21.823 9.85134C21.6147 9.85134 21.4035 9.85134 21.1952 9.85134C21.1268 9.85134 21.0754 9.81995 21.0383 9.76003C20.9984 9.69155 20.9784 9.62877 21.0354 9.56029C21.0811 9.50892 21.0697 9.45185 21.0868 9.38908C21.1096 9.29491 21.1553 9.2036 21.1895 9.11514C21.258 8.93537 21.3265 8.75275 21.395 8.57298C21.532 8.21059 21.6661 7.8482 21.803 7.48581C22.0741 6.76102 22.348 6.03624 22.6191 5.31146C22.6933 5.11457 22.7647 4.92053 22.8388 4.72364C22.9073 4.54102 22.9587 4.34127 23.07 4.18148C23.1128 4.14724 23.1584 4.15009 23.2041 4.15009C23.5865 4.14724 23.9688 4.14724 24.354 4.15009C24.3911 4.15009 24.4282 4.15294 24.4625 4.1558C24.5738 4.16721 24.6251 4.21287 24.6451 4.32415C24.6822 4.54387 24.7935 4.76359 24.8705 4.97474C24.959 5.21158 25.0474 5.45128 25.133 5.68811C25.3128 6.17035 25.4897 6.65544 25.6695 7.13768C25.8122 7.52576 25.9577 7.91668 26.1004 8.30476C26.1717 8.49879 26.243 8.69283 26.3172 8.88687C26.38 9.06093 26.4742 9.23784 26.5084 9.42047C26.5198 9.48324 26.5541 9.54031 26.5741 9.60024C26.5855 9.63448 26.5883 9.67157 26.5883 9.70581C26.5883 9.75718 26.5455 9.8171 26.497 9.83137C26.4542 9.84278 26.4086 9.85134 26.3629 9.8542C26.1632 9.85705 25.9606 9.8542 25.7608 9.8542C25.6838 9.8542 25.6153 9.84278 25.5611 9.79427ZM23.7605 7.37167C23.9888 7.37167 24.2142 7.37167 24.4425 7.37167C24.6594 7.37167 24.6793 7.34599 24.6451 7.13483C24.6394 7.10059 24.511 6.75817 24.4682 6.64403C24.4083 6.47853 24.3512 6.31303 24.2941 6.14467C24.1714 5.79369 24.083 5.40562 23.9089 5.07747C23.8832 5.03181 23.8433 5.01469 23.7948 5.0204C23.7605 5.02325 23.7263 5.03752 23.692 5.04894C23.6064 5.07176 23.5408 5.37994 23.518 5.44842C23.4581 5.62819 23.3953 5.81081 23.3325 5.99058C23.1841 6.41861 22.9929 6.83807 22.8845 7.2775C22.8759 7.30604 22.913 7.35455 22.9444 7.3574C22.9986 7.36311 23.0529 7.36881 23.1071 7.36881C23.3239 7.37167 23.5408 7.37167 23.7605 7.37167Z" fill="black"/>
<path d="M57.7107 4.02448C58.1216 4.02733 58.5354 4.11579 58.8864 4.3298C59.2716 4.56093 59.5712 4.95471 59.634 5.39985C59.6397 5.44265 59.6425 5.48831 59.614 5.5197C59.594 5.54253 59.5655 5.55109 59.537 5.55965C59.3286 5.61672 59.1089 5.64525 58.8921 5.6424C58.8464 5.6424 58.8008 5.63954 58.7608 5.61672C58.7037 5.58248 58.6809 5.51685 58.6524 5.45692C58.5554 5.24006 58.3727 5.06029 58.1502 4.97183C58.0046 4.91476 57.8477 4.89193 57.6936 4.88908C57.4796 4.88623 57.2599 4.91761 57.0744 5.02034C56.8889 5.12306 56.7377 5.30854 56.712 5.5197C56.6892 5.71374 56.7691 5.91063 56.906 6.05045C57.0858 6.23878 57.3312 6.31297 57.5766 6.37004C57.842 6.43281 58.0874 6.55837 58.3442 6.64397C58.698 6.76096 59.0604 6.88652 59.3401 7.13191C59.7281 7.47148 59.905 8.02505 59.8109 8.53012C59.7167 9.03519 59.3686 9.48318 58.912 9.72002C58.7009 9.82845 58.4726 9.89694 58.2415 9.93974C57.6736 10.051 57.063 10.0282 56.5379 9.7828C56.0129 9.5374 55.5877 9.04375 55.5107 8.4702C55.5078 8.43881 55.505 8.40171 55.5278 8.38174C55.5421 8.36747 55.5649 8.36176 55.5877 8.35891C55.8217 8.32182 56.0529 8.28472 56.2868 8.24763C56.3353 8.23907 56.3896 8.23336 56.4295 8.26475C56.4609 8.29043 56.4723 8.33323 56.4837 8.37318C56.615 8.83259 57.1058 9.11223 57.5823 9.15503C57.9162 9.18357 58.27 9.11508 58.5211 8.89251C58.7694 8.66994 58.8778 8.27616 58.7152 7.98511C58.5725 7.734 58.2757 7.61701 57.9989 7.53426C57.6051 7.41726 57.2028 7.3288 56.8233 7.17186C56.4438 7.01492 56.0814 6.77808 55.8645 6.42996C55.5335 5.89921 55.6134 5.15731 56.0215 4.68363C56.4038 4.24134 57.0116 4.04445 57.5966 4.02733C57.6337 4.02448 57.6708 4.02448 57.7107 4.02448Z" fill="black"/>
<path d="M90.1292 6.20168C90.1292 6.65824 90.1292 7.11479 90.1292 7.57135C90.1292 8.05644 90.0636 8.55009 89.8325 8.98097C89.6356 9.34907 89.3217 9.6601 88.9336 9.81418C88.674 9.91976 88.3915 9.95115 88.109 9.96827C87.7266 9.9911 87.3385 9.98539 86.9676 9.89408C86.5966 9.80277 86.24 9.62015 85.9889 9.32909C85.7577 9.06372 85.6293 8.72415 85.5665 8.37603C85.5038 8.02791 85.5009 7.67693 85.498 7.32595C85.4923 6.41569 85.4895 5.50258 85.4895 4.59232C85.4895 4.51813 85.4952 4.44679 85.4895 4.3726C85.4724 4.17571 85.5123 4.16144 85.675 4.15288C85.8947 4.14432 86.1116 4.15003 86.3313 4.15003C86.357 4.15003 86.3855 4.15573 86.4112 4.16429C86.4483 4.17856 86.4768 4.20424 86.4797 4.24134C86.4882 4.31267 86.4939 4.38687 86.4939 4.4582C86.4968 4.7407 86.4939 5.02319 86.4939 5.30569C86.4939 6.16744 86.4283 7.05202 86.5282 7.90806C86.5595 8.19055 86.6166 8.48446 86.7821 8.71559C87.0618 9.10081 87.5954 9.22637 88.0633 9.14647C88.2089 9.12079 88.3544 9.08084 88.4799 9.00665C88.7539 8.84971 88.9308 8.55865 89.0164 8.25618C89.102 7.95372 89.1077 7.63413 89.1134 7.32024C89.122 6.79806 89.1248 6.27587 89.1248 5.75368C89.1248 5.49972 89.1248 5.24291 89.122 4.98895C89.1191 4.76067 89.1705 4.46106 89.1248 4.24134C89.1163 4.20139 89.1676 4.15573 89.2104 4.15003C89.239 4.14717 89.2646 4.14147 89.2932 4.14147C89.4844 4.14147 89.6755 4.13861 89.8667 4.14147C89.9124 4.14147 89.958 4.14717 90.0037 4.15288C90.1007 4.16715 90.1178 4.20424 90.1235 4.27558C90.1264 4.33836 90.1264 4.40399 90.1264 4.46676C90.1293 5.05173 90.1292 5.62813 90.1292 6.20168Z" fill="black"/>
<path d="M73.936 6.98066C73.936 6.07611 73.936 5.17441 73.936 4.26986C73.936 4.22135 73.9646 4.17855 74.0131 4.17284C74.1044 4.16142 74.1928 4.15286 74.2842 4.15001C74.5581 4.14716 74.832 4.15001 75.106 4.15001C75.8279 4.15001 76.547 4.15001 77.2689 4.15001C77.3602 4.15001 77.4515 4.15857 77.5428 4.16428C77.5856 4.16713 77.6256 4.21279 77.6256 4.25844C77.6256 4.47816 77.6256 4.69503 77.6227 4.91474C77.6227 4.96611 77.5685 5.01176 77.5114 5.01462C77.4287 5.01747 77.3459 5.02032 77.266 5.02032C76.5812 5.02032 75.8964 5.02318 75.2115 5.02032C74.9119 5.01747 74.9176 5.05742 74.9176 5.31138C74.9176 5.61385 74.9176 5.91346 74.9176 6.21593C74.9176 6.27015 74.9205 6.32436 74.9233 6.38143C74.9262 6.44992 74.9718 6.49272 75.0489 6.50128C75.086 6.50413 75.1202 6.50698 75.1573 6.50698C75.4769 6.50698 75.7965 6.50984 76.1161 6.50984C76.4813 6.50984 76.8466 6.50698 77.2118 6.50698C77.2575 6.50698 77.3031 6.51269 77.3488 6.5184C77.4002 6.52411 77.4487 6.57547 77.4601 6.62683C77.4629 6.63539 77.4658 6.64395 77.4658 6.65251C77.4658 6.86082 77.4686 7.07197 77.4658 7.28028C77.4658 7.32593 77.423 7.36018 77.3745 7.36588C77.3288 7.37159 77.2832 7.37444 77.2375 7.37444C76.5983 7.37444 75.9592 7.37444 75.32 7.37444C75.3029 7.37444 75.2829 7.37444 75.2658 7.37444C74.9034 7.37444 74.9205 7.36303 74.9205 7.71686C74.9205 8.07355 74.9205 8.43023 74.9205 8.78406C74.9205 8.82116 74.9233 8.8554 74.9262 8.89249C74.929 8.92388 74.9519 8.94671 74.9747 8.95242C75.0375 8.96669 75.1003 8.9781 75.163 8.98095C75.5996 8.98095 76.039 8.98095 76.4756 8.9781C76.8209 8.9781 77.169 8.97525 77.5143 8.97525C77.5428 8.97525 77.5685 8.9781 77.5971 8.98095C77.6513 8.98666 77.7055 9.03232 77.7083 9.08368C77.714 9.16643 77.7198 9.24633 77.7198 9.32908C77.7198 9.4746 77.714 9.62013 77.7112 9.76566C77.7112 9.79705 77.6741 9.837 77.6427 9.8427C77.617 9.84841 77.5885 9.85697 77.5628 9.85697C77.4886 9.85982 77.4173 9.85982 77.3431 9.85982C76.3387 9.85982 75.3342 9.85982 74.3298 9.85982C74.2299 9.85982 74.1301 9.86838 74.0302 9.8427C73.9731 9.82558 73.936 9.78563 73.936 9.72571C73.936 8.80689 73.936 7.89378 73.936 6.98066Z" fill="black"/>
<path d="M38.6267 6.11042C38.6267 6.99785 38.7408 7.93379 38.4355 8.78698C38.4098 8.86403 38.3755 8.93822 38.3384 9.00955C38.0331 9.59737 37.4196 9.89413 36.7804 9.95691C35.9529 10.0368 35.0227 9.97974 34.4606 9.29205C34.1067 8.85832 33.9897 8.23911 33.9897 7.6941C33.9897 6.63546 33.9897 5.57682 33.9897 4.51818C33.9897 4.42686 33.9955 4.33555 34.0012 4.24424C34.0012 4.21856 34.0468 4.1729 34.0725 4.17005C34.1181 4.16434 34.1638 4.15293 34.2066 4.15293C34.4064 4.15008 34.6089 4.15293 34.8087 4.15293C34.8372 4.15293 34.8629 4.15864 34.8914 4.16149C34.9457 4.17005 34.9942 4.21856 34.997 4.26992C34.9999 4.30702 34.9999 4.34126 34.9999 4.37836C35.0056 5.11741 34.997 5.85646 34.997 6.59266C34.997 6.91225 34.9942 7.23469 34.9999 7.55428C35.0113 8.1421 35.1283 8.79269 35.7247 9.06377C36.0813 9.22642 36.4723 9.19218 36.8404 9.08945C36.9602 9.05521 37.1172 8.93536 37.2056 8.84976C37.3255 8.73562 37.4168 8.59009 37.4767 8.43886C37.6222 8.06505 37.6222 7.6142 37.6194 7.21757C37.6137 6.33299 37.6165 5.44841 37.6165 4.56383C37.6165 4.47252 37.6194 4.38121 37.6251 4.2899C37.6308 4.21856 37.6793 4.16434 37.7421 4.16149C37.996 4.15008 38.2528 4.14437 38.5068 4.16434C38.5325 4.1672 38.561 4.17576 38.5838 4.19003C38.6038 4.20429 38.6267 4.22997 38.6267 4.2528C38.6267 4.38121 38.6209 4.50676 38.6181 4.63517C38.6266 5.12597 38.6267 5.61677 38.6267 6.11042Z" fill="black"/>
<path d="M63.7631 9.98254C62.8329 9.98539 61.9255 9.5802 61.409 8.76125C61.1151 8.29328 60.961 7.74541 60.9296 7.19469C60.8754 6.22451 61.2378 5.20296 62.0025 4.60658C62.4334 4.27273 62.9698 4.0844 63.512 4.03589C64.0399 3.98738 64.5821 4.07013 65.0557 4.30697C65.5294 4.54381 65.9289 4.93759 66.1372 5.42553C66.1629 5.48831 66.1829 5.57106 66.1344 5.61672C66.1144 5.63384 66.0887 5.6424 66.0659 5.65096C65.8661 5.71088 65.6607 5.75939 65.4552 5.79078C65.3753 5.80219 65.2869 5.81075 65.2155 5.77366C65.1471 5.73656 65.11 5.66523 65.0672 5.59959C64.7133 5.03461 63.9629 4.77494 63.3208 4.949C62.6788 5.12306 62.1766 5.69376 62.0311 6.34435C61.994 6.51271 61.9768 6.68392 61.974 6.85513C61.9569 7.47148 62.0881 8.11922 62.5019 8.57863C62.85 8.96385 63.3807 9.17786 63.8972 9.13791C64.4137 9.09796 64.9074 8.80691 65.1899 8.37032C65.2184 8.32752 65.2441 8.28187 65.2869 8.25618C65.3497 8.21909 65.4296 8.2305 65.5009 8.24192C65.7092 8.27901 65.9146 8.32181 66.1201 8.37032C66.1401 8.37603 66.1629 8.38174 66.1772 8.39601C66.2028 8.42454 66.1943 8.46734 66.18 8.50158C65.9546 9.15503 65.3611 9.64298 64.6991 9.84557C64.3994 9.93403 64.0799 9.98254 63.7631 9.98254Z" fill="black"/>
<path d="M30.2004 9.97969C30.1005 9.97684 29.9978 9.97113 29.8979 9.95972C29.6582 9.93403 29.4243 9.88552 29.196 9.81419C28.9649 9.74285 28.7737 9.61159 28.5625 9.48889C28.0261 9.17215 27.6523 8.51015 27.5153 7.91948C27.4782 7.75968 27.4554 7.59418 27.4325 7.43153C27.3583 6.87796 27.3926 6.34721 27.5923 5.81932C28.0032 4.73499 29.0818 4.05016 30.2232 4.02733C30.4943 4.02162 30.7654 4.05301 31.0279 4.1215C31.3332 4.20139 31.6386 4.34121 31.8925 4.53525C32.1722 4.74641 32.3405 5.02605 32.5574 5.29428C32.6259 5.37703 32.6344 5.4769 32.643 5.57677C32.643 5.59104 32.6259 5.61101 32.6116 5.61957C32.5888 5.63384 32.5631 5.64525 32.5374 5.64811C32.429 5.66808 32.3263 5.69091 32.2207 5.72801C32.1208 5.7651 32.0067 5.7651 31.8982 5.78222C31.8269 5.79363 31.747 5.81361 31.6842 5.77366C31.5843 5.70518 31.5358 5.57392 31.4645 5.48261C31.3817 5.37417 31.2847 5.28001 31.1763 5.19726C30.52 4.70361 29.4985 4.81489 28.9591 5.43695C28.3571 6.12749 28.2829 7.22608 28.6367 8.05359C28.9877 8.87254 29.8922 9.27773 30.7483 9.06087C31.1135 8.9667 31.4188 8.70704 31.6329 8.39886C31.6785 8.33038 31.7299 8.25619 31.8098 8.23336C31.8554 8.21909 31.9068 8.22765 31.9553 8.23621C32.1665 8.27331 32.3776 8.31611 32.5859 8.36177C32.603 8.36462 32.6202 8.37033 32.6344 8.38174C32.6573 8.40172 32.6573 8.43881 32.6544 8.4702C32.6344 8.62143 32.5602 8.7584 32.4746 8.88395C32.195 9.29771 31.7812 9.623 31.3133 9.79992C30.9594 9.93118 30.5799 9.9854 30.2004 9.97969Z" fill="black"/>
<path d="M49.6156 7.92521C49.6156 7.82249 49.607 7.71691 49.5556 7.63416C49.5071 7.55711 47.8578 4.52672 47.7922 4.41829C47.7637 4.36978 47.7637 4.31271 47.7779 4.25849C47.7836 4.23566 47.8008 4.20427 47.8207 4.19571C47.8607 4.17574 47.9063 4.15577 47.9491 4.15577C48.1774 4.15291 48.4057 4.15291 48.634 4.15577C48.691 4.15577 48.7396 4.18145 48.7709 4.23281C48.7909 4.2642 48.828 4.28988 48.8337 4.32127C48.8508 4.44397 50.0579 6.64685 50.1092 6.73246C50.1178 6.74958 50.172 6.74958 50.1834 6.73246C50.2376 6.66112 51.0965 5.08029 51.165 4.9633C51.2278 4.85487 51.4247 4.46965 51.4703 4.3926C51.4903 4.36122 51.5217 4.33268 51.5274 4.30129C51.5388 4.19571 51.6044 4.16433 51.6986 4.16147C51.9069 4.15862 52.1181 4.15862 52.3264 4.15862C52.3606 4.15862 52.3977 4.17289 52.432 4.18145C52.4805 4.19571 52.5119 4.23281 52.5119 4.28132C52.5119 4.31841 52.5176 4.35836 52.5033 4.38975C52.4576 4.47821 52.4177 4.56952 52.3863 4.66654C52.3121 4.72932 50.6171 7.81963 50.62 7.99084C50.6257 8.47308 50.6228 8.95817 50.62 9.44041C50.62 9.53172 50.6171 9.62303 50.6114 9.71434C50.6057 9.79995 50.5544 9.85417 50.4745 9.85417C50.2462 9.85702 50.0179 9.85702 49.7896 9.85417C49.7639 9.85417 49.7354 9.84275 49.7097 9.83419C49.6641 9.81707 49.6327 9.78283 49.627 9.73432C49.6184 9.67154 49.6184 9.60591 49.6184 9.54314C49.6156 9.28347 49.6156 8.20771 49.6156 7.92521Z" fill="black"/>
<path d="M45.3039 7.443C45.3039 8.1364 45.3039 8.82979 45.3039 9.52604C45.3039 9.60879 45.2982 9.68869 45.2925 9.77144C45.2897 9.80283 45.2497 9.83707 45.2183 9.84278C45.2098 9.84563 45.2012 9.84848 45.1927 9.84848C44.9558 9.84848 44.719 9.85134 44.4821 9.84848C44.4479 9.84848 44.4108 9.83707 44.3766 9.81995C44.3537 9.80854 44.3309 9.78571 44.3252 9.76288C44.3138 9.72008 44.3138 9.67157 44.3138 9.62877C44.3138 9.30062 44.3138 8.97247 44.3138 8.64146C44.3138 7.56285 44.3138 6.48709 44.3138 5.40847C44.3138 5.3086 44.3052 5.20873 44.2995 5.10885C44.2967 5.07747 44.2596 5.04037 44.2282 5.03752C44.1654 5.02896 44.1026 5.0204 44.037 5.0204C43.7174 5.0204 43.3978 5.0204 43.0782 5.0204C43.004 5.0204 42.9327 5.0204 42.8585 5.01754C42.7215 5.01469 42.713 4.9833 42.6787 4.85775C42.6645 4.80639 42.6645 4.74932 42.6616 4.6951C42.6616 4.56669 42.6616 4.43829 42.6673 4.31273C42.673 4.21001 42.7215 4.1615 42.8186 4.15579C42.8813 4.15294 42.947 4.15009 43.0097 4.15009C44.2139 4.15009 45.4181 4.15009 46.6251 4.15009C46.6993 4.15009 46.7706 4.15009 46.842 4.1615C46.9618 4.18147 46.9961 4.22142 46.9789 4.32415C46.9561 4.46111 46.9732 4.78356 46.9732 4.80924C46.9789 4.91767 46.9019 5.00898 46.7992 5.01469C46.725 5.01754 46.6536 5.01754 46.5795 5.01754C46.2427 5.01754 45.4381 5.01469 45.3781 5.03752C45.3439 5.05178 45.3097 5.08317 45.3097 5.11456C45.3068 5.19731 45.3011 5.27721 45.3011 5.35996C45.3039 6.05621 45.3039 6.74961 45.3039 7.443Z" fill="black"/>
<path d="M92.815 4.20145C92.8207 4.22998 92.8321 4.26422 92.8321 4.30132C92.835 4.39263 92.835 4.48394 92.835 4.57525C92.835 5.90783 92.835 7.23755 92.835 8.57013C92.835 8.66144 92.835 8.75275 92.8378 8.84406C92.8407 8.91825 92.8778 8.95535 92.9605 8.96105C93.0433 8.96676 93.1232 8.97247 93.2059 8.97247C93.8708 8.97247 94.5356 8.97247 95.2005 8.97247C95.2376 8.97247 95.2718 8.97532 95.3089 8.98103C95.3603 8.98673 95.4088 9.0381 95.4174 9.08946C95.4231 9.11514 95.4288 9.14368 95.4288 9.16936C95.4288 9.35198 95.4288 9.5346 95.4288 9.71722C95.4288 9.73434 95.4231 9.75432 95.4202 9.77144C95.4145 9.80283 95.3803 9.84278 95.3489 9.84278C95.2661 9.84848 95.1862 9.85419 95.1035 9.85419C94.4301 9.85419 93.7538 9.85419 93.0804 9.85419C92.7608 9.85419 92.4412 9.85419 92.1244 9.85419C92.0617 9.85419 91.9989 9.84848 91.9333 9.84278C91.9019 9.83992 91.8648 9.80283 91.8591 9.77144C91.8562 9.74576 91.8505 9.71722 91.8505 9.69154C91.8477 9.61735 91.8477 9.54602 91.8477 9.47182C91.8477 7.82251 91.8477 6.17035 91.8477 4.52104C91.8477 4.42973 91.8505 4.33841 91.8534 4.2471C91.8534 4.2043 91.8962 4.16435 91.9447 4.1615C92.016 4.15579 92.0902 4.15009 92.1615 4.15009C92.3156 4.15009 92.4726 4.15009 92.6267 4.15294C92.6894 4.15294 92.7522 4.15865 92.815 4.20145Z" fill="black"/>
<path d="M41.3292 4.19859C41.335 4.22142 41.3464 4.2471 41.3464 4.27278C41.3492 4.34412 41.3492 4.41831 41.3492 4.4925C41.3492 6.15894 41.3492 7.82822 41.3492 9.49465C41.3492 9.5774 41.3464 9.6573 41.3435 9.74005C41.3407 9.79712 41.2979 9.84278 41.2379 9.84563C40.984 9.84848 40.7272 9.84848 40.4732 9.84848C40.4133 9.84848 40.3705 9.80283 40.3676 9.74291C40.3648 9.67157 40.3619 9.59738 40.3619 9.52319C40.3619 7.83678 40.3619 6.15037 40.3619 4.46682C40.3619 4.15009 40.3334 4.15009 40.6729 4.15009C40.827 4.15009 40.984 4.15009 41.1381 4.15294C41.2066 4.15294 41.2693 4.15865 41.3292 4.19859Z" fill="black"/>
<path d="M96.7783 6.97788C96.7783 6.14751 96.7783 5.31715 96.7783 4.48964C96.7783 4.40689 96.7812 4.32699 96.784 4.24424C96.784 4.21571 96.824 4.17576 96.8554 4.17005C96.8639 4.1672 96.8725 4.16434 96.881 4.16434C97.1436 4.14437 97.4089 4.14437 97.6715 4.16149C97.7171 4.16434 97.7599 4.20715 97.7628 4.24995C97.7656 4.31273 97.7685 4.37836 97.7685 4.44113C97.7685 6.14751 97.7685 7.85104 97.7685 9.55742C97.7685 9.6202 97.7656 9.68583 97.7628 9.74861C97.7599 9.80567 97.7143 9.84848 97.6543 9.84848C97.4004 9.84848 97.1436 9.84848 96.8896 9.84562C96.8297 9.84562 96.7869 9.79997 96.784 9.74005C96.7812 9.67727 96.7812 9.61164 96.7812 9.54886C96.7783 8.69282 96.7783 7.83677 96.7783 6.97788Z" fill="black"/>
</svg>
