<svg width="31" height="14" viewBox="0 0 31 14" fill="none" xmlns="http://www.w3.org/2000/svg">
<path d="M0 11.0142L3.17163 6.10042H0.373745C0.347809 5.94639 0.337433 5.79015 0.342774 5.63405C0.337711 5.478 0.348134 5.32136 0.373745 5.16769H4.88252L4.94208 5.32314L1.73889 10.2369H4.72766C4.7536 10.391 4.76397 10.5472 4.75863 10.7033C4.76496 10.8491 4.75457 10.9952 4.72766 11.1387H0.0312694L0 11.0142ZM9.11195 7.22016C9.12925 7.04421 9.10755 6.86661 9.04841 6.69999C8.98927 6.53337 8.89413 6.38184 8.76977 6.25617C8.46915 6.04958 8.10742 5.95091 7.74353 5.97623C7.48328 5.98025 7.22355 6.00104 6.96596 6.03847C6.73418 6.07206 6.50544 6.12404 6.28191 6.19393C6.12291 5.90964 6.04755 5.58619 6.06451 5.2609C6.34677 5.16593 6.6389 5.10328 6.93529 5.07418C7.24346 5.02252 7.55601 5.00167 7.86831 5.01194C8.50317 4.97222 9.13145 5.15959 9.64085 5.54054C10.0453 5.88302 10.2627 6.47357 10.2627 7.25084V11.0136L9.2674 11.2003C8.87668 11.2623 8.4812 11.2935 8.08571 11.2935C7.74145 11.2965 7.40076 11.265 7.05947 11.2003C6.77853 11.144 6.5132 11.0273 6.28191 10.8582C6.06842 10.7068 5.89713 10.5034 5.78427 10.2673C5.65371 9.99601 5.58969 9.6975 5.59755 9.39652C5.58439 9.09136 5.6599 8.78892 5.81495 8.52574C5.94046 8.27067 6.13427 8.05542 6.37482 7.90392C6.62573 7.74265 6.89785 7.61707 7.18336 7.53078C7.49665 7.44143 7.82156 7.39974 8.14736 7.40629C8.35514 7.39855 8.56319 7.40892 8.76918 7.43726C8.92463 7.43726 9.04911 7.46824 9.17359 7.46824V7.21957L9.11195 7.22016ZM9.11195 8.33991C8.96513 8.33247 8.8195 8.31162 8.67656 8.28035C8.48983 8.28035 8.33408 8.24938 8.21019 8.24938C7.81709 8.22589 7.42625 8.3236 7.09045 8.52932C6.96769 8.62403 6.86965 8.74702 6.80467 8.88781C6.7397 9.02859 6.70972 9.18299 6.7173 9.33786C6.69975 9.50936 6.73137 9.68231 6.80847 9.83651C6.88557 9.99071 7.00496 10.1198 7.15269 10.2086C7.28606 10.2837 7.4352 10.3263 7.58808 10.3331C7.73182 10.3579 7.87767 10.3682 8.02347 10.3641C8.21063 10.3693 8.3979 10.3589 8.58334 10.3331L9.08068 10.2399V8.34289L9.11195 8.33991ZM11.5376 5.16769C11.6308 5.16769 11.693 5.13672 11.7862 5.13672H12.2836C12.3768 5.13672 12.439 5.16769 12.5322 5.16769C12.5492 5.21798 12.5596 5.27022 12.5632 5.32314C12.5632 5.41636 12.5942 5.4786 12.5942 5.57181C12.5942 5.66502 12.6252 5.75854 12.6252 5.85175C12.6243 5.90535 12.635 5.95807 12.6561 6.0072L12.9361 5.63405C13.057 5.51344 13.1928 5.40891 13.3405 5.32314C13.7023 5.12272 14.1088 5.0164 14.5222 5.01224C14.8498 5.00807 15.1809 5.0718 15.4862 5.19896C15.7861 5.31959 16.0519 5.51181 16.2605 5.75883C16.487 6.03349 16.6562 6.35074 16.7581 6.69186C16.8895 7.12515 16.9525 7.57629 16.9448 8.029C16.9945 8.91643 16.6929 9.78776 16.1053 10.4546C15.5454 11.0455 14.7652 11.3254 13.7419 11.3254C13.5652 11.3306 13.3883 11.3202 13.2133 11.2944C13.0267 11.2633 12.8712 11.2322 12.747 11.2012V13.969C12.6537 13.969 12.5602 14 12.4361 14H11.8762C11.783 14 11.6895 13.969 11.5962 13.969V5.16769H11.5376ZM12.688 10.206C12.8392 10.2619 12.9954 10.3036 13.1544 10.3304C13.3603 10.3588 13.5684 10.3692 13.7762 10.3614C14.0442 10.3683 14.3045 10.3257 14.5505 10.2369C14.7805 10.1582 14.9847 10.0184 15.1413 9.83251C15.3186 9.62074 15.4557 9.37831 15.5457 9.11718C15.6524 8.78568 15.7049 8.43916 15.7012 8.09095C15.7207 7.57195 15.6027 7.05701 15.359 6.59835C15.1169 6.22013 14.6872 6.00274 14.2393 6.03847C14.0488 6.03905 13.8597 6.07053 13.6794 6.13169C13.5023 6.19852 13.3428 6.30485 13.213 6.44259C13.0641 6.59361 12.9477 6.7735 12.8708 6.9712C12.7767 7.21927 12.7345 7.48342 12.7464 7.74549V10.2024L12.688 10.206ZM18.3481 6.06647H17.5738C17.5459 5.99761 17.5353 5.92298 17.5428 5.84907V5.35173C17.5428 5.25852 17.5738 5.19628 17.5738 5.13434H19.4708V11.1673C19.3776 11.1673 19.2841 11.1982 19.1909 11.1982H18.631C18.5378 11.1982 18.4443 11.1673 18.3511 11.1673L18.3481 6.06647ZM21.9867 8.46082C22.0176 9.11391 22.1734 9.61154 22.484 9.89148C22.881 10.2291 23.395 10.3967 23.9147 10.3578C24.4558 10.3608 24.9933 10.2664 25.5008 10.0779C25.576 10.2136 25.6285 10.3607 25.6562 10.5133C25.6919 10.6769 25.7128 10.8433 25.7188 11.0106C25.4511 11.1302 25.1688 11.2139 24.8793 11.2593C24.5409 11.3239 24.1943 11.3552 23.853 11.3525C23.3768 11.3713 22.9014 11.2974 22.4533 11.1351C22.0937 10.9666 21.7672 10.7349 21.4893 10.4511C21.2311 10.165 21.0398 9.82501 20.9295 9.45579C20.8022 9.05354 20.7392 8.63374 20.7427 8.21185C20.7445 7.79255 20.7963 7.378 20.8982 6.96792C21.0051 6.60376 21.1849 6.26515 21.4268 5.97266C21.674 5.69481 21.9688 5.46639 22.2976 5.2886C22.7051 5.09441 23.1525 4.99853 23.6038 5.00866C23.9557 4.99335 24.3065 5.05818 24.6297 5.19824C24.9529 5.3383 25.24 5.54995 25.4695 5.8172C25.6907 6.06715 25.8504 6.36534 25.9359 6.68799C26.0526 7.04922 26.1056 7.42803 26.0913 7.80773V8.15021C26.0913 8.27469 26.0603 8.36761 26.0603 8.46112L21.9867 8.46082ZM24.9722 7.59004C24.9739 7.37916 24.9424 7.16932 24.879 6.96822C24.815 6.7837 24.7317 6.60651 24.6303 6.43962C24.5156 6.28356 24.3667 6.1559 24.1949 6.06647C24.0009 5.97469 23.7874 5.93194 23.5731 5.94198C23.371 5.93174 23.1691 5.96536 22.9812 6.04051C22.7933 6.11566 22.6239 6.23058 22.4846 6.37737C22.2093 6.72478 22.0466 7.14796 22.0182 7.59034L24.9722 7.59004ZM27.3978 5.16471C27.491 5.16471 27.5532 5.13374 27.6465 5.13374H28.1438C28.237 5.13374 28.2992 5.16471 28.3925 5.16471C28.4326 5.31695 28.4535 5.47363 28.4547 5.63108C28.4799 5.79559 28.4902 5.96204 28.4857 6.12841C28.6443 5.85049 28.8685 5.61563 29.1388 5.44435C29.4451 5.25039 29.8026 5.15287 30.165 5.16441H30.3517C30.4056 5.15645 30.4605 5.16739 30.5072 5.19539C30.5072 5.25495 30.5381 5.35084 30.5381 5.41278V5.66145C30.5432 5.75583 30.5327 5.8504 30.5072 5.94139C30.5072 6.0346 30.4762 6.12811 30.4762 6.22132C30.4166 6.22132 30.3517 6.19035 30.2895 6.19035H30.134C29.9333 6.18845 29.7336 6.21995 29.5432 6.28357C29.345 6.34435 29.164 6.45085 29.0146 6.59447C28.8415 6.76836 28.7134 6.98178 28.6414 7.21629C28.5441 7.53865 28.502 7.87516 28.5169 8.21156V11.2006C28.4237 11.2006 28.3302 11.2316 28.237 11.2316H27.6771C27.5839 11.2316 27.4597 11.2006 27.3662 11.2006V5.16769L27.3978 5.16471ZM20.587 1.62262H19.4392L20.2478 0.814075C20.1882 0.720862 20.1233 0.65862 20.0611 0.565407C19.9717 0.500721 19.8884 0.427949 19.8124 0.348009L19.0015 1.15566V0.0329315C18.8999 0.00726568 18.7952 -0.00317222 18.6906 0.0019597C18.5859 -0.0047294 18.4809 0.00573253 18.3797 0.0329315V1.18365L17.5398 0.34384C17.4433 0.399218 17.3588 0.473216 17.2912 0.561536C17.2316 0.654749 17.1357 0.71699 17.0738 0.810203L17.8823 1.61874H16.759L16.728 1.92965C16.721 2.03527 16.7315 2.14133 16.759 2.24354H17.9097L17.0699 3.08335C17.1929 3.26799 17.3513 3.42702 17.5363 3.54971L18.3448 2.74117V3.89189C18.4463 3.91756 18.5511 3.928 18.6557 3.92286C18.7603 3.92955 18.8654 3.91909 18.9666 3.89189V2.74117L19.7752 3.54971C19.8717 3.49434 19.9562 3.42034 20.0238 3.33202C20.104 3.2562 20.1768 3.17294 20.2412 3.08335L19.4392 2.27541H20.59C20.6156 2.17388 20.6261 2.06909 20.6209 1.9645C20.6275 1.84944 20.617 1.73404 20.59 1.62202L20.587 1.62262ZM19.1563 1.93352C19.1534 2.0705 19.1324 2.20649 19.0938 2.33794C18.9657 2.38857 18.8273 2.40942 18.6894 2.39751C18.5524 2.39461 18.4164 2.37358 18.2849 2.33497C18.2343 2.20691 18.2135 2.06843 18.2254 1.93055C18.2283 1.79357 18.2493 1.65758 18.2879 1.52613C18.416 1.4755 18.5545 1.45465 18.6923 1.46657C18.8293 1.46947 18.9653 1.49049 19.0968 1.52911C19.1327 1.66114 19.1535 1.79681 19.159 1.93352H19.1563Z" fill="#FF4A00"/>
</svg>
