<svg width="89" height="14" viewBox="0 0 89 14" fill="none" xmlns="http://www.w3.org/2000/svg">
<path fill-rule="evenodd" clip-rule="evenodd" d="M18.5976 10.2603C18.2789 10.6978 17.9002 10.9161 17.4625 10.9161C17.1835 10.9161 16.9557 10.7624 16.7804 10.4555C16.6056 10.1469 16.5183 9.67411 16.5183 9.03506C16.5183 8.39517 16.6113 7.89972 16.7986 7.54786C16.9859 7.19475 17.2306 7.01966 17.5336 7.01966C17.8362 7.01966 18.1913 7.14478 18.5976 7.39503V10.2603ZM20.044 3.98437C20.044 3.64427 19.9841 3.40368 19.8646 3.26135C19.7447 3.12027 19.538 3.04889 19.2433 3.04889H18.6691L18.5976 3.13454V6.19334C18.1673 5.96703 17.749 5.85366 17.343 5.85366C16.6969 5.85366 16.1451 6.1333 15.6874 6.69173C15.229 7.25017 15 8.01938 15 8.99853C15 9.97726 15.1786 10.749 15.5378 11.3116C15.8962 11.8743 16.4125 12.1552 17.0855 12.1552C17.7589 12.1552 18.3306 11.8873 18.8006 11.3536C19.0081 11.7664 19.3632 12.0086 19.8646 12.0825C19.968 12.0011 20.0701 11.886 20.1697 11.7361C20.2689 11.5858 20.3392 11.4418 20.3789 11.3049C20.1556 11.1101 20.044 10.7624 20.044 10.2603V3.98437Z" fill="#535E64"/>
<path fill-rule="evenodd" clip-rule="evenodd" d="M24.6418 8.3908H22.5621C22.61 7.38688 22.961 6.88513 23.6137 6.88513C23.9647 6.88513 24.2234 7.01193 24.3909 7.26218C24.5579 7.512 24.6418 7.83993 24.6418 8.24469V8.3908ZM23.548 5.79303C22.7473 5.79303 22.1322 6.0882 21.7014 6.67981C21.2715 7.26973 21.0562 8.03517 21.0562 8.97317C21.0562 9.91243 21.2513 10.6779 21.6415 11.2682C22.0321 11.8598 22.6753 12.155 23.5724 12.155C24.4686 12.155 25.2358 11.9241 25.8732 11.463C25.8087 11.0667 25.6657 10.7585 25.4425 10.5397C24.8696 10.8227 24.347 10.9651 23.877 10.9651C23.407 10.9651 23.0784 10.8332 22.8907 10.5695C22.7035 10.3075 22.5985 9.93763 22.5741 9.45939H25.9212C26.0001 9.11173 26.0406 8.7519 26.0406 8.37905C26.0406 7.63461 25.8249 7.01697 25.395 6.52697C24.9646 6.03782 24.3491 5.79303 23.548 5.79303Z" fill="#535E64"/>
<path fill-rule="evenodd" clip-rule="evenodd" d="M30.0553 10.4185C29.6725 10.8073 29.2736 11.0021 28.8598 11.0021C28.6449 11.0021 28.4729 10.9312 28.3456 10.7888C28.2183 10.6478 28.1542 10.4475 28.1542 10.188C28.1542 9.92852 28.2381 9.7148 28.4055 9.54517C28.5725 9.37512 28.8197 9.28989 29.1467 9.28989C29.4737 9.28989 29.7763 9.30542 30.0553 9.33817V10.4185ZM31.5253 7.88121C31.5253 7.19345 31.338 6.67994 30.9635 6.33984C30.589 6.00016 30.1033 5.82843 29.5051 5.82843C28.6449 5.82843 27.7842 6.01192 26.9236 6.37553C26.9554 6.84579 27.086 7.20562 27.3179 7.45545C28.1062 7.16448 28.716 7.01962 29.1467 7.01962C29.7523 7.01962 30.0553 7.3383 30.0553 7.97862V8.34265C29.7283 8.31032 29.3815 8.29352 29.0148 8.29352C28.3381 8.29352 27.7822 8.46651 27.3477 8.80997C26.9132 9.15385 26.6958 9.6661 26.6958 10.3459C26.6958 10.8229 26.8516 11.2444 27.1621 11.608C27.473 11.9729 27.9351 12.1551 28.5486 12.1551C29.1624 12.1551 29.7325 11.8956 30.2583 11.3775C30.4889 11.7915 30.8515 12.0258 31.3455 12.0825C31.4496 12.001 31.5513 11.886 31.6505 11.7361C31.7506 11.5858 31.82 11.4422 31.8597 11.3049C31.6369 11.1193 31.5253 10.8031 31.5253 10.3576V7.88121Z" fill="#535E64"/>
<path fill-rule="evenodd" clip-rule="evenodd" d="M35.9677 10.2603C35.649 10.6978 35.2704 10.9161 34.8326 10.9161C34.5536 10.9161 34.3258 10.7624 34.1505 10.4555C33.9761 10.1469 33.8885 9.67411 33.8885 9.03506C33.8885 8.39517 33.9815 7.89972 34.1687 7.54786C34.356 7.19475 34.6007 7.01966 34.9037 7.01966C35.2067 7.01966 35.5614 7.14478 35.9677 7.39503V10.2603ZM37.4141 3.98437C37.4141 3.64427 37.3542 3.40368 37.2347 3.26135C37.1149 3.12027 36.9082 3.04889 36.6134 3.04889H36.0392L35.9677 3.13454V6.19334C35.5374 5.96703 35.1191 5.85366 34.7131 5.85366C34.067 5.85366 33.5152 6.1333 33.0576 6.69173C32.5991 7.25017 32.3701 8.01938 32.3701 8.99853C32.3701 9.97726 32.5487 10.749 32.9079 11.3116C33.2663 11.8743 33.7826 12.1552 34.4556 12.1552C35.129 12.1552 35.7007 11.8873 36.1707 11.3536C36.3782 11.7664 36.7333 12.0086 37.2347 12.0825C37.3381 12.0011 37.4402 11.886 37.5398 11.7361C37.639 11.5858 37.7093 11.4418 37.749 11.3049C37.5258 11.1101 37.4141 10.7624 37.4141 10.2603V3.98437Z" fill="#535E64"/>
<path fill-rule="evenodd" clip-rule="evenodd" d="M40.7335 10.8678C40.4066 10.8678 40.2437 10.6856 40.2437 10.3207V3.98395C40.2437 3.64427 40.1838 3.40368 40.0643 3.26135C39.9448 3.12027 39.7373 3.04889 39.443 3.04889H38.8688L38.7969 3.13454V10.6251C38.7969 11.5724 39.2276 12.0456 40.0878 12.0456C40.3747 12.0456 40.7497 12.0086 41.2118 11.936C41.2354 11.8386 41.2478 11.6979 41.2478 11.5119C41.2478 11.3246 41.2073 11.1101 41.1279 10.8678H40.7335Z" fill="#535E64"/>
<path fill-rule="evenodd" clip-rule="evenodd" d="M42.7807 5.03959C43.111 5.03959 43.3685 4.98417 43.5513 4.86954C43.631 4.68354 43.6711 4.48368 43.6711 4.2687C43.6711 4.05541 43.631 3.85386 43.5513 3.66786C43.3685 3.55491 43.123 3.49823 42.8163 3.49823C42.51 3.49823 42.2524 3.55491 42.0453 3.66786C41.9655 3.85386 41.9263 4.05541 41.9263 4.2687C41.9263 4.48368 41.9655 4.68354 42.0453 4.86954C42.2049 4.98417 42.4492 5.03959 42.7807 5.03959Z" fill="#535E64"/>
<path fill-rule="evenodd" clip-rule="evenodd" d="M42.6787 5.92603H42.4873C42.1921 5.92603 41.9015 5.94324 41.6146 5.97473C41.5749 6.12883 41.5547 6.31063 41.5547 6.52141C41.5547 6.73219 41.5749 6.90644 41.6146 7.04332H41.7581C42.1173 7.04332 42.2959 7.26207 42.2959 7.69958V11.9848C42.5352 12.0256 42.7866 12.0453 43.049 12.0453C43.312 12.0453 43.5546 12.0256 43.7782 11.9848V7.14073C43.7782 6.76788 43.6807 6.4727 43.4852 6.25395C43.29 6.03561 43.0209 5.92603 42.6787 5.92603Z" fill="#535E64"/>
<path fill-rule="evenodd" clip-rule="evenodd" d="M50.027 7.91811C50.027 7.30299 49.8898 6.80502 49.6144 6.42419C49.3395 6.04336 48.9138 5.85358 48.3359 5.85358C47.758 5.85358 47.178 6.11306 46.5964 6.63119C46.5087 6.14455 46.238 5.90228 45.7837 5.90228H45.2339L45.1504 5.97492V11.985C45.3889 12.0258 45.6402 12.0455 45.9031 12.0455C46.1656 12.0455 46.4091 12.0258 46.6319 11.985V7.8207C47.0147 7.41636 47.4331 7.21314 47.8874 7.21314C48.1341 7.21314 48.3061 7.29249 48.4012 7.45037C48.4975 7.60866 48.5446 7.8694 48.5446 8.23301V11.1234C48.5446 11.4459 48.605 11.6861 48.7244 11.8385C48.8435 11.9926 49.0647 12.0707 49.3875 12.0707C49.7099 12.0707 50.003 11.9653 50.2663 11.7545C50.1068 11.4871 50.027 11.1062 50.027 10.6133V7.91811Z" fill="#535E64"/>
<path fill-rule="evenodd" clip-rule="evenodd" d="M54.5666 8.3908H52.4869C52.5348 7.38688 52.8858 6.88513 53.5389 6.88513C53.8895 6.88513 54.1482 7.01193 54.3161 7.26218C54.4831 7.512 54.5666 7.83993 54.5666 8.24469V8.3908ZM53.4732 5.79303C52.6725 5.79303 52.057 6.0882 51.6267 6.67981C51.1967 7.26973 50.981 8.03517 50.981 8.97317C50.981 9.91243 51.1765 10.6779 51.5667 11.2682C51.9574 11.8598 52.6006 12.155 53.4972 12.155C54.3934 12.155 55.1606 11.9241 55.798 11.463C55.734 11.0667 55.5909 10.7585 55.3673 10.5397C54.7944 10.8227 54.2723 10.9651 53.8018 10.9651C53.3322 10.9651 53.0032 10.8332 52.8159 10.5695C52.6287 10.3075 52.5233 9.93763 52.4993 9.45939H55.8464C55.9254 9.11173 55.9655 8.7519 55.9655 8.37905C55.9655 7.63461 55.7501 7.01697 55.3202 6.52697C54.8894 6.03782 54.2743 5.79303 53.4732 5.79303Z" fill="#535E64"/>
<path fill-rule="evenodd" clip-rule="evenodd" d="M66.7338 5.96307C66.5106 5.92234 66.2634 5.90218 65.9922 5.90218C65.7223 5.90218 65.4751 5.92234 65.2519 5.96307V10.1392C64.8691 10.5435 64.4512 10.7467 63.9965 10.7467C63.7493 10.7467 63.5781 10.6674 63.4831 10.5095C63.3867 10.3512 63.3396 10.0862 63.3396 9.71508V6.82465C63.3396 6.50177 63.2793 6.34431 63.1598 6.19022C63.0403 6.0378 62.815 5.94711 62.4847 5.94711C62.4649 5.94711 62.4484 5.95593 62.4285 5.95677C62.4281 5.95509 62.4256 5.95341 62.4252 5.95131L60.1599 5.97482C60.1116 5.65866 60.088 5.35592 60.088 5.06453C60.088 4.77356 60.1636 4.54682 60.3149 4.38475C60.4667 4.22268 60.6816 4.14122 60.9606 4.14122C61.2397 4.14122 61.5617 4.19917 61.9292 4.31085C62.152 4.06858 62.264 3.73268 62.264 3.30483C61.7295 3.10203 61.1735 3 60.596 3C60.0185 3 59.5543 3.18768 59.2034 3.55886C58.8528 3.93171 58.6776 4.40449 58.6776 4.97888C58.6776 5.19763 58.7011 5.52555 58.7495 5.96307L57.7929 5.95131C57.7532 6.15285 57.7334 6.33969 57.7334 6.50974C57.7334 6.67979 57.7532 6.85782 57.7929 7.04341L58.8206 7.01989V11.9849C59.0603 12.0257 59.2976 12.0454 59.532 12.0454C59.7668 12.0454 60.0119 12.0257 60.2674 11.9849V7.01989L61.8291 7.03543C61.8382 7.13494 61.8568 7.21598 61.8568 7.3348V10.0417C61.8568 10.6573 61.9945 11.1536 62.2694 11.5289C62.5443 11.9056 62.9486 12.0945 63.4831 12.0945C64.1519 12.0945 64.7935 11.8031 65.4069 11.2195C65.6144 11.7217 66.0009 12.0084 66.5664 12.0823C66.8293 11.8871 66.9972 11.6331 67.0687 11.3169C66.8455 11.1389 66.7338 10.7912 66.7338 10.2739V5.96307Z" fill="#535E64"/>
<path fill-rule="evenodd" clip-rule="evenodd" d="M73.0182 7.91811C73.0182 7.30299 72.881 6.80502 72.6061 6.42419C72.3308 6.04336 71.905 5.85358 71.3271 5.85358C70.7492 5.85358 70.1692 6.11306 69.5876 6.63119C69.5 6.14455 69.2292 5.90228 68.7749 5.90228H68.2251L68.1416 5.97492V11.985C68.3801 12.0258 68.6314 12.0455 68.8944 12.0455C69.1573 12.0455 69.4003 12.0258 69.6236 11.985V7.8207C70.0059 7.41636 70.4247 7.21314 70.879 7.21314C71.1253 7.21314 71.2973 7.29249 71.3924 7.45037C71.4887 7.60866 71.5358 7.8694 71.5358 8.23301V11.1234C71.5358 11.4459 71.5962 11.6861 71.7157 11.8385C71.8351 11.9926 72.0559 12.0707 72.3787 12.0707C72.7011 12.0707 72.9942 11.9653 73.2576 11.7545C73.098 11.4871 73.0182 11.1062 73.0182 10.6133V7.91811Z" fill="#535E64"/>
<path fill-rule="evenodd" clip-rule="evenodd" d="M79.2291 7.91811C79.2291 7.30299 79.0915 6.80502 78.8166 6.42419C78.5417 6.04336 78.1159 5.85358 77.5376 5.85358C76.9601 5.85358 76.3802 6.11306 75.7985 6.63119C75.7109 6.14455 75.4401 5.90228 74.9858 5.90228H74.436L74.3525 5.97492V11.985C74.5911 12.0258 74.8424 12.0455 75.1053 12.0455C75.3678 12.0455 75.6113 12.0258 75.8341 11.985V7.8207C76.2169 7.41636 76.6352 7.21314 77.0895 7.21314C77.3363 7.21314 77.5083 7.29249 77.6033 7.45037C77.6992 7.60866 77.7468 7.8694 77.7468 8.23301V11.1234C77.7468 11.4459 77.8071 11.6861 77.9266 11.8385C78.0456 11.9926 78.2668 12.0707 78.5897 12.0707C78.9117 12.0707 79.2052 11.9653 79.4685 11.7545C79.3089 11.4871 79.2291 11.1062 79.2291 10.6133V7.91811Z" fill="#535E64"/>
<path fill-rule="evenodd" clip-rule="evenodd" d="M83.7687 8.3908H81.689C81.737 7.38688 82.0879 6.88513 82.7411 6.88513C83.0916 6.88513 83.3504 7.01193 83.5178 7.26218C83.6852 7.512 83.7687 7.83993 83.7687 8.24469V8.3908ZM82.6754 5.79303C81.8746 5.79303 81.2591 6.0882 80.8288 6.67981C80.3989 7.26973 80.1831 8.03517 80.1831 8.97317C80.1831 9.91243 80.3786 10.6779 80.7689 11.2682C81.1595 11.8598 81.8023 12.155 82.6993 12.155C83.5955 12.155 84.3628 11.9241 85.0002 11.463C84.9361 11.0667 84.7931 10.7585 84.5694 10.5397C83.9965 10.8227 83.4744 10.9651 83.004 10.9651C82.5344 10.9651 82.2053 10.8332 82.0181 10.5695C81.8308 10.3075 81.7254 9.93763 81.7014 9.45939H85.0485C85.1275 9.11173 85.1676 8.7519 85.1676 8.37905C85.1676 7.63461 84.9522 7.01697 84.5223 6.52697C84.0916 6.03782 83.4765 5.79303 82.6754 5.79303Z" fill="#535E64"/>
<path fill-rule="evenodd" clip-rule="evenodd" d="M88.6367 10.9585H88.2423C87.9158 10.9585 87.7525 10.7767 87.7525 10.4118V4.07502C87.7525 3.73534 87.6925 3.49433 87.5731 3.35199C87.454 3.21091 87.2465 3.13995 86.9518 3.13995H86.378L86.3057 3.22561V10.7162C86.3057 11.6634 86.7364 12.1366 87.5971 12.1366C87.8839 12.1366 88.2585 12.0997 88.721 12.0271C88.7446 11.9296 88.7566 11.7886 88.7566 11.6026C88.7566 11.4157 88.7161 11.2007 88.6367 10.9585Z" fill="#535E64"/>
<path fill-rule="evenodd" clip-rule="evenodd" d="M11.1831 0L10.7197 0.961735L11.1411 2.84038L12.8692 3.26112L13.8928 2.75264L11.7393 2.18765L11.1831 0Z" fill="#F82E1C"/>
<path fill-rule="evenodd" clip-rule="evenodd" d="M8.23101 7.43332C8.39291 8.18737 8.18689 9.00643 7.60983 9.59288C7.15924 10.0505 6.5682 10.2797 5.97747 10.2797C5.38705 10.2797 4.79601 10.0505 4.34511 9.59288C3.44364 8.67691 3.44364 7.19249 4.34511 6.27652C4.79601 5.81885 5.38705 5.5897 5.97747 5.5897C6.30189 5.5897 6.62538 5.66135 6.92681 5.79928L8.52871 4.19397C7.84879 3.71263 7.05266 3.43677 6.21333 3.39258V4.00775C6.21333 4.14 6.10799 4.24731 5.97747 4.24731C5.84696 4.24731 5.74161 4.14 5.74161 4.00775V3.39258C4.65027 3.45002 3.63133 3.8998 2.84638 4.68099L3.27521 5.11657C3.36719 5.21031 3.36719 5.36213 3.27521 5.45524C3.18292 5.54899 3.03314 5.54899 2.94147 5.45524L2.526 5.03324C1.91072 5.78666 1.56051 6.71241 1.51172 7.69498H2.11799C2.2485 7.69498 2.35416 7.80229 2.35416 7.93486C2.35416 8.06711 2.2485 8.17442 2.11799 8.17442H1.51265C1.56734 9.22296 1.97038 10.203 2.66646 10.9804L3.12139 10.5183C3.21368 10.4249 3.36284 10.4249 3.45513 10.5183C3.54712 10.6117 3.54712 10.7636 3.45513 10.8573L3.00113 11.3181C3.76371 12.0103 4.71957 12.4102 5.74161 12.4639V11.861C5.74161 11.7288 5.84696 11.6218 5.97747 11.6218C6.10799 11.6218 6.21333 11.7288 6.21333 11.861V12.4639C7.16453 12.4137 8.06165 12.0678 8.79595 11.4608L8.355 11.0129C8.26302 10.9195 8.26302 10.7677 8.355 10.6742C8.44729 10.5805 8.59676 10.5805 8.68874 10.6742L9.14679 11.1392C9.95566 10.316 10.3839 9.25357 10.4407 8.17442H9.83696C9.70675 8.17442 9.6011 8.06711 9.6011 7.93486C9.6011 7.80229 9.70675 7.69498 9.83696 7.69498H10.4414C10.4268 7.40459 10.3851 7.11611 10.3161 6.83235L9.6011 6.52871L8.23101 7.43332Z" fill="#1BA3A4"/>
<mask id="mask0" mask-type="alpha" maskUnits="userSpaceOnUse" x="0" y="1" width="12" height="13">
<path d="M0 1.85742H11.9497V13.9998H0V1.85742Z" fill="white"/>
</mask>
<g mask="url(#mask0)">
<path fill-rule="evenodd" clip-rule="evenodd" d="M9.77355 11.7834C8.7254 12.848 7.35159 13.3805 5.97777 13.3805C4.60396 13.3805 3.23014 12.848 2.1823 11.7834C0.0859995 9.65412 0.0859995 6.20204 2.1823 4.07278C3.23014 3.00815 4.60396 2.47599 5.97777 2.47599C7.10237 2.47599 8.22386 2.83897 9.17008 3.5523L9.24435 3.47781L9.27449 3.44751L9.23378 2.85791L9.23223 2.8355C6.9153 1.30499 3.78358 1.57012 1.75098 3.635C-0.583661 6.00572 -0.583661 9.85045 1.75098 12.2218C4.08532 14.5925 7.87022 14.5925 10.2049 12.2218C11.7334 10.6692 12.2539 8.4866 11.7813 6.49811L11.1915 6.65403C11.6122 8.43673 11.1433 10.3921 9.77355 11.7834Z" fill="#1BA3A4"/>
</g>
<path fill-rule="evenodd" clip-rule="evenodd" d="M6.41429 8.63322L6.37949 8.65626C6.37949 8.65626 6.14425 8.74274 6.01218 8.74274C5.79062 8.74274 5.58211 8.655 5.42549 8.49592C5.26856 8.33684 5.18218 8.12505 5.18218 7.89969C5.18218 7.67464 5.26856 7.46316 5.42829 7.30061L6.20982 6.51784C6.13368 6.50522 6.05662 6.49512 5.97769 6.49512C5.59889 6.49512 5.24308 6.64473 4.97522 6.9168C4.70766 7.18856 4.56006 7.55028 4.56006 7.93504C4.56006 8.31948 4.70766 8.68119 4.97522 8.95327C5.24308 9.22503 5.59889 9.37496 5.97769 9.37496C6.35618 9.37496 6.7123 9.22503 6.97985 8.95327C7.24274 8.68624 7.37667 8.33936 7.38973 7.98933L6.51124 8.56914C6.48017 8.59313 6.44785 8.61396 6.41429 8.63322Z" fill="#1BA3A4"/>
<path fill-rule="evenodd" clip-rule="evenodd" d="M5.8451 8.06948C5.89078 8.11588 5.95137 8.13955 6.01166 8.13955C6.07194 8.13955 6.13254 8.11588 6.17853 8.06948L7.13532 7.1109C7.08902 7.04304 7.03899 6.97708 6.97933 6.91679C6.92526 6.86155 6.86466 6.81484 6.80375 6.77002L5.8451 7.73049C5.75281 7.82424 5.75281 7.97574 5.8451 8.06948Z" fill="white"/>
<path fill-rule="evenodd" clip-rule="evenodd" d="M8.23154 7.43355L9.60163 6.52895L10.3167 6.83259C10.1939 6.3282 9.98882 5.84087 9.69454 5.39551L8.09326 6.99956C8.15355 7.14001 8.19954 7.28552 8.23154 7.43355Z" fill="#086D6A"/>
<path fill-rule="evenodd" clip-rule="evenodd" d="M10.371 4.71771L10.335 4.75369C10.7476 5.33698 11.0332 5.98246 11.1917 6.65444L11.7812 6.49852L11.7883 6.49662C11.7703 6.4215 11.7479 6.34764 11.7271 6.27315C11.7172 6.23749 11.7085 6.2015 11.6979 6.16615C11.6482 5.99981 11.5919 5.83569 11.5282 5.67313C11.5155 5.64094 11.5009 5.60906 11.4875 5.57718C11.4316 5.44177 11.3707 5.30858 11.3048 5.17696C11.2852 5.13814 11.2666 5.09931 11.2461 5.06081C11.187 4.94907 11.1239 4.83923 11.0574 4.73065L10.4036 4.68457L10.371 4.71771Z" fill="#086D6A"/>
<path fill-rule="evenodd" clip-rule="evenodd" d="M6.51123 8.56892L7.3894 7.9891C7.39282 7.89852 7.38723 7.80888 7.37418 7.71924L6.59886 8.49601C6.57152 8.52316 6.54137 8.54588 6.51123 8.56892Z" fill="#086D6A"/>
<path fill-rule="evenodd" clip-rule="evenodd" d="M4.72642 1.27889H7.22825C7.48897 1.27889 7.69996 1.06426 7.69996 0.799444C7.69996 0.535259 7.48897 0.320312 7.22825 0.320312H4.72642C4.4657 0.320312 4.25439 0.535259 4.25439 0.799444C4.25439 1.06426 4.4657 1.27889 4.72642 1.27889Z" fill="#1BA3A4"/>
<path fill-rule="evenodd" clip-rule="evenodd" d="M10.4069 1.60889L9.82546 2.81587L9.88482 3.67976L9.66388 3.90386L5.8451 7.73028C5.75281 7.82371 5.75281 7.97553 5.8451 8.06927C5.89109 8.11567 5.95137 8.13903 6.01166 8.13903C6.07225 8.13903 6.13254 8.11567 6.17884 8.06927L9.95349 4.28798L10.1744 4.06294L11.1197 4.12985L12.24 3.57339L10.7673 3.21451L10.4069 1.60889Z" fill="#F82E1C"/>
</svg>
