<svg width="64" height="14" viewBox="0 0 64 14" fill="none" xmlns="http://www.w3.org/2000/svg">
<path d="M14.7949 2.17038C12.8335 2.84733 10.8634 3.53294 8.84126 4.23592C8.84126 3.29862 8.8239 2.41339 8.84994 1.53684C8.85862 1.23308 8.75447 1.13762 8.47676 1.02479C7.78246 0.738395 7.15759 0.790467 6.46329 1.05951C4.85773 1.68438 3.22613 2.23981 1.6032 2.82129C1.53378 2.84732 1.4817 2.89072 1.3602 2.96015C2.37561 3.24655 3.33895 3.51559 4.30229 3.78463C5.43052 4.10574 6.57611 4.38346 7.69567 4.75664C8.3379 4.97361 8.90201 4.8955 9.5182 4.67854C11.5317 3.94952 13.5538 3.2639 15.576 2.56961C15.6541 2.54357 15.7408 2.52621 15.8537 2.50018C15.8623 2.63036 15.8797 2.7345 15.8797 2.84732C15.8797 4.51364 15.8797 6.17128 15.8884 7.83759C15.8884 8.08927 15.819 8.21078 15.576 8.30624C13.3108 9.19147 11.063 10.0854 8.79787 10.9706C8.65033 11.0314 8.4594 11.0314 8.31186 10.988C6.1335 10.3457 3.96382 9.69484 1.78546 9.05261C1.49038 8.96583 1.37756 8.83564 1.38624 8.51453C1.40359 6.95236 1.39492 5.39019 1.39492 3.81934C1.00437 3.68916 0.631188 3.53294 0.249324 3.43748C-0.0804678 3.35937 0.0236769 3.12504 0.00631944 2.92543C-0.011038 2.72582 -0.011038 2.55225 0.258002 2.45678C2.52315 1.66702 4.79698 0.851218 7.0708 0.0527756C7.20966 0.000703295 7.38324 -0.0166542 7.5221 0.0180607C9.93478 0.695001 12.3561 1.3893 14.7688 2.07492C14.7775 2.0836 14.7775 2.10095 14.7949 2.17038Z" fill="#0994F6"/>
<path d="M37.568 8.87035C37.0559 8.87035 36.6046 8.87035 36.1186 8.87035C36.1099 8.70545 36.1013 8.54923 36.1013 8.4017C36.1013 7.36025 36.1099 6.3188 36.0926 5.27736C36.0926 4.90417 36.0839 4.47023 35.6673 4.3227C35.2334 4.16648 34.8081 4.31402 34.487 4.65249C34.1051 5.06039 33.9403 5.55507 33.9316 6.11051C33.9316 7.02178 33.9316 7.92437 33.9316 8.86167C33.4369 8.86167 32.9856 8.86167 32.4735 8.86167C32.4735 7.37761 32.4735 5.89354 32.4735 4.38345C32.2305 4.36609 32.0396 4.34873 31.814 4.33137C31.814 3.92347 31.814 3.52425 31.814 3.12503C32.6905 2.80392 33.6625 3.03824 33.8795 3.65443C34.3829 3.19446 34.947 2.87335 35.6586 2.89939C36.3529 2.92542 36.9171 3.18578 37.2642 3.84537C37.811 3.23786 38.4619 2.86467 39.3037 2.89939C40.3365 2.94278 41.0828 3.61972 41.1176 4.66117C41.1523 5.6245 41.1262 6.58784 41.1262 7.56854C41.4213 7.5859 41.6036 7.59457 41.8032 7.61193C41.8032 8.03719 41.8032 8.43641 41.8032 8.87903C41.3172 8.87903 40.8225 8.91374 40.3451 8.87035C39.9546 8.83563 39.7376 8.54923 39.7376 8.15001C39.729 7.36893 39.7376 6.58784 39.7203 5.80676C39.7203 5.52036 39.7029 5.23396 39.6595 4.94756C39.5641 4.30534 39.1301 4.07969 38.54 4.35741C37.8717 4.67852 37.5853 5.26 37.5766 5.97165C37.5593 6.91763 37.568 7.87229 37.568 8.87035Z" fill="#0994F6"/>
<path d="M29.2187 5.23398C29.1666 4.43554 28.8889 4.12311 28.2727 4.13179C27.7433 4.14046 27.7173 4.17518 27.6565 5.02569C27.2226 5.02569 26.78 5.02569 26.294 5.02569C26.294 4.63515 26.2332 4.23593 26.32 3.87142C26.3808 3.62842 26.5977 3.34202 26.8234 3.22052C27.778 2.73451 28.7761 2.73451 29.7221 3.23788C30.3556 3.58503 30.616 4.20122 30.6333 4.90419C30.6507 5.77206 30.642 6.63126 30.642 7.54252C30.8677 7.55988 31.0759 7.56856 31.3103 7.58592C31.3103 7.99382 31.3103 8.39304 31.3103 8.86169C30.642 8.7749 29.887 9.16545 29.3142 8.42775C28.6112 9.02659 27.8214 9.20884 26.9449 8.89641C26.1638 8.61001 25.7298 8.01985 25.7125 7.24745C25.6951 6.45768 26.0683 5.85017 26.8841 5.58113C27.4482 5.3902 28.0557 5.32945 28.6459 5.23398C28.8195 5.20795 29.0191 5.23398 29.2187 5.23398ZM29.2361 6.35354C28.7848 6.38825 28.3682 6.39693 27.9603 6.47504C27.7433 6.50976 27.4916 6.6139 27.3528 6.77012C27.2313 6.90898 27.1792 7.20405 27.2399 7.37763C27.3701 7.75949 27.7346 7.8376 28.0905 7.80289C28.7327 7.73346 29.1232 7.23009 29.2361 6.35354Z" fill="#0994F6"/>
<path d="M52.3738 5.25136C52.4519 4.54838 52.2002 4.21859 51.5666 4.14916C51.0199 4.08841 50.9157 4.20991 50.8203 5.03439C50.3863 5.03439 49.9524 5.03439 49.4751 5.03439C49.4751 4.64385 49.397 4.25331 49.5011 3.90616C49.5879 3.62844 49.8396 3.316 50.0999 3.18582C50.9244 2.76924 51.801 2.7866 52.6515 3.12507C53.4586 3.44619 53.7797 4.12313 53.8058 4.93893C53.8318 5.8068 53.8144 6.66599 53.8144 7.5599C54.0401 7.56858 54.2397 7.58594 54.474 7.59462C54.474 8.00252 54.474 8.41042 54.474 8.89642C53.8144 8.74889 53.0594 9.20886 52.5213 8.42777C51.7923 9.05264 50.9765 9.23489 50.0826 8.87039C49.3883 8.59267 48.963 8.08062 48.9283 7.29954C48.8936 6.5011 49.2147 5.91094 49.9611 5.62455C50.4644 5.43361 51.0112 5.34683 51.5493 5.25136C51.801 5.20797 52.096 5.25136 52.3738 5.25136ZM52.3911 6.31016C51.853 6.41431 51.3063 6.46638 50.8029 6.63128C50.612 6.69203 50.3777 7.00446 50.3863 7.19539C50.395 7.38633 50.6467 7.63801 50.855 7.73348C51.5666 8.05459 52.4085 7.35161 52.3911 6.31016Z" fill="#0994F6"/>
<path d="M20.4102 7.8376C20.6532 7.51649 20.9048 7.19538 21.1912 6.83087C21.6599 7.45574 22.2153 7.84628 22.9791 7.74214C23.196 7.7161 23.387 7.49913 23.5866 7.36895C23.4564 7.19538 23.3609 6.96973 23.196 6.87426C22.6059 6.54447 21.955 6.32751 21.3995 5.95432C20.2887 5.23399 20.3668 3.73257 21.521 3.17713C22.1199 2.88205 22.7621 2.82998 23.4217 2.93412C23.4477 2.9428 23.4737 2.95148 23.5085 2.96016C24.6714 3.22052 24.9578 3.61974 24.8103 4.84344C24.4024 4.84344 23.9945 4.84344 23.5779 4.84344C23.4651 4.21858 22.9617 3.95821 22.3629 4.2099C22.0157 4.35743 21.9723 4.68723 22.3021 4.90419C22.5798 5.07777 22.9009 5.17323 23.196 5.32077C23.5779 5.51171 23.9945 5.66792 24.3329 5.92828C25.4091 6.75276 25.2789 8.09797 24.0813 8.74887C22.8923 9.39977 21.1131 8.96584 20.4102 7.8376Z" fill="#0994F6"/>
<path d="M47.7825 5.04305C47.3399 5.04305 46.9234 5.04305 46.446 5.04305C46.5588 4.52233 46.2985 4.26197 45.8125 4.19254C45.231 4.11443 44.5541 4.44422 44.2329 4.97363C43.7817 5.72867 43.9379 6.73541 44.5888 7.29084C45.2484 7.84628 46.3419 7.82025 47.0101 7.21274C47.149 7.09123 47.2358 6.91766 47.3833 6.72673C47.6263 7.12595 47.8259 7.41235 47.9735 7.7161C48.0169 7.81157 47.9995 8.0025 47.9388 8.08061C47.2445 8.9398 45.7604 9.26959 44.5107 8.86169C43.3998 8.49719 42.5666 7.42103 42.5146 6.28411C42.4451 4.70458 43.1308 3.56767 44.476 3.08166C45.231 2.81262 46.0034 2.81262 46.7585 3.08166C47.6697 3.40278 47.8867 3.83671 47.7825 5.04305Z" fill="#0994F6"/>
<path d="M63.7774 7.58591C63.7774 7.87231 63.7774 8.11531 63.7774 8.35832C63.7774 8.93112 63.7426 8.96583 63.1785 8.95715C61.7465 8.93111 60.9307 8.09796 60.9221 6.67465C60.9221 5.89356 60.9221 5.12116 60.9221 4.31403C60.6791 4.29668 60.4708 4.27932 60.2451 4.26196C60.2451 3.85406 60.2451 3.4722 60.2451 3.05562C60.4708 3.05562 60.6791 3.05562 60.9221 3.05562C60.9221 2.54357 60.9221 2.07492 60.9221 1.5542C61.4081 1.5542 61.8594 1.5542 62.3627 1.5542C62.3627 2.03153 62.3627 2.50886 62.3627 3.03826C62.8227 3.03826 63.2306 3.03826 63.6645 3.03826C63.6645 3.46352 63.6645 3.84538 63.6645 4.27064C63.2393 4.27064 62.8401 4.27064 62.4061 4.27064C62.4061 5.18191 62.3714 6.06714 62.4235 6.93501C62.4495 7.36027 62.7967 7.58591 63.248 7.58591C63.4042 7.58591 63.5691 7.58591 63.7774 7.58591Z" fill="#0994F6"/>
<path d="M57.3727 3.66313C57.8934 3.02959 58.5443 2.87337 59.3167 3.02091C59.3167 3.48956 59.3167 3.94085 59.3167 4.40083C59.0911 4.40083 58.8655 4.35743 58.6572 4.40951C57.8153 4.60912 57.3901 5.27738 57.3814 6.40561C57.3727 7.21273 57.3814 8.01986 57.3814 8.84433C56.878 8.84433 56.4094 8.84433 55.8973 8.84433C55.8973 7.33424 55.8973 5.85885 55.8973 4.36611C55.6717 4.34875 55.4894 4.3314 55.2725 4.32272C55.2725 3.88878 55.2725 3.48088 55.2725 3.08166C56.5048 2.88205 57.0429 3.02959 57.3727 3.66313Z" fill="#0994F6"/>
<path d="M8.23383 4.27066C6.57619 3.802 5.01402 3.35939 3.31299 2.88206C3.60806 2.76924 3.77296 2.69981 3.94654 2.63906C4.97062 2.26587 5.99471 1.91004 7.01013 1.51082C7.36595 1.37196 7.68707 1.40668 8.00818 1.52818C8.10364 1.56289 8.21647 1.70175 8.21647 1.79722C8.23383 2.58698 8.23383 3.37675 8.23383 4.27066Z" fill="#0994F6"/>
<path d="M13.9528 10.4759C13.9528 9.93783 14.3867 9.51257 14.9161 9.52993C15.4195 9.54729 15.8621 9.9899 15.8621 10.4759C15.8621 11.0053 15.4195 11.4393 14.8988 11.4306C14.3346 11.4219 13.9441 11.0314 13.9528 10.4759Z" fill="#0994F6"/>
<path d="M3.2001 11.1702C3.20878 11.7083 2.80088 12.1162 2.24544 12.1162C1.70736 12.1162 1.30814 11.7256 1.29946 11.1962C1.29078 10.6668 1.68132 10.2676 2.21072 10.2589C2.76616 10.2503 3.19142 10.6321 3.2001 11.1702Z" fill="#0994F6"/>
<path d="M7.5309 13.0622C7.52222 12.5241 7.93012 12.0988 8.4682 12.0902C8.98892 12.0815 9.44022 12.5328 9.44022 13.0448C9.44022 13.5221 8.98024 13.9821 8.51159 13.9995C7.97351 14.0168 7.53958 13.5916 7.5309 13.0622Z" fill="#0994F6"/>
</svg>
