<svg width="90" height="14" viewBox="0 0 90 14" fill="none" xmlns="http://www.w3.org/2000/svg">
<path d="M69.4957 9.50537C69.886 9.88299 70.2762 10.2606 70.6664 10.6382C69.0552 12.5389 65.4426 12.6019 63.5797 10.7893C61.679 8.93893 61.7293 5.37669 63.6929 3.53893C65.5559 1.80186 69.0048 1.90256 70.465 3.67739C70.1251 4.08019 69.7853 4.48298 69.4706 4.86061C67.444 3.68998 65.6943 3.79068 64.6622 5.09977C63.7055 6.29557 63.7685 8.33474 64.7755 9.45502C65.5685 10.3613 67.6076 10.9529 69.4957 9.50537Z" fill="#00C8C9"/>
<path d="M78.0803 11.834C77.5013 11.834 77.0104 11.834 76.4943 11.834C76.4691 11.5949 76.4566 11.3809 76.4314 11.1291C74.7447 12.3501 72.8314 12.3124 71.7363 11.0788C70.6034 9.79488 70.6034 7.35292 71.7489 6.09417C72.8691 4.8606 74.7824 4.78508 76.4062 5.95571C76.444 5.74172 76.4691 5.54033 76.4943 5.33893C76.5573 5.31375 76.6076 5.27599 76.6705 5.27599C78.0803 5.18788 78.0803 5.18788 78.0803 6.61026C78.0803 8.32215 78.0803 10.034 78.0803 11.834ZM76.3433 8.54872C76.3433 7.37809 75.588 6.57249 74.4803 6.57249C73.36 6.57249 72.5796 7.3655 72.567 8.52355C72.5544 9.71935 73.3349 10.5124 74.4929 10.5124C75.6258 10.5124 76.3433 9.75711 76.3433 8.54872Z" fill="#00C8C9"/>
<path d="M36.6552 11.8214C36.1895 11.8214 35.7111 11.8214 35.1447 11.8214C35.1447 10.9025 35.1447 10.0088 35.1447 9.11513C35.1447 8.76268 35.1573 8.39765 35.1195 8.0452C35.0188 7.22702 34.5783 6.77387 33.8734 6.68576C33.1181 6.59765 32.4258 6.98786 32.1867 7.70534C32.0482 8.10814 32.0356 8.57387 32.0356 9.00185C32.0104 9.92073 32.023 10.8396 32.023 11.7963C31.4692 11.7963 30.9783 11.7963 30.437 11.7963C30.437 8.71233 30.437 5.65359 30.437 2.54449C30.9405 2.54449 31.444 2.54449 32.0104 2.54449C32.0104 3.67736 32.0104 4.82282 32.0104 5.80464C32.7153 5.57806 33.3825 5.2382 34.0748 5.18785C35.4594 5.08716 36.5042 5.88016 36.63 7.25219C36.7685 8.76268 36.6552 10.2732 36.6552 11.8214Z" fill="#212121"/>
<path d="M59.7028 9.99624C60.0049 10.3109 60.307 10.6382 60.7224 11.0913C60.6469 11.1291 60.4958 11.192 60.3574 11.2802C58.9098 12.1864 57.3993 12.3123 55.8888 11.5193C54.5042 10.7892 53.9378 8.9263 54.5042 7.26476C55.0203 5.7291 56.5686 4.86056 58.3308 5.09973C60.3448 5.37665 61.4399 6.96266 61.0371 9.1277C59.3881 9.1277 57.7266 9.1277 56.0525 9.1277C56.2539 10.5878 57.9154 10.9529 59.7028 9.99624ZM56.0525 7.74309C57.1979 7.74309 58.3308 7.74309 59.4511 7.74309C59.3881 7.03819 58.9979 6.66057 58.2427 6.54728C57.1602 6.39623 56.4175 6.78644 56.0525 7.74309Z" fill="#212121"/>
<path d="M24.7348 4.10532C23.7153 4.10532 22.7964 4.10532 21.8271 4.10532C21.8271 3.56406 21.8271 3.07315 21.8271 2.55707C24.3572 2.55707 26.8621 2.55707 29.4174 2.55707C29.4174 3.06056 29.4174 3.55147 29.4174 4.10532C28.4481 4.10532 27.5167 4.10532 26.5097 4.10532C26.5097 6.69833 26.5097 9.2284 26.5097 11.8088C25.8929 11.8088 25.339 11.8088 24.7223 11.8088C24.7348 9.25358 24.7348 6.72351 24.7348 4.10532Z" fill="#212121"/>
<path d="M46.4985 5.31371C48.1853 5.15007 48.1978 5.15007 48.7643 6.58504C49.23 7.73049 49.6454 8.87595 50.1363 10.1473C50.3503 9.58084 50.5139 9.11511 50.6902 8.66196C51.0552 7.73049 51.4454 6.79902 51.7853 5.85497C51.9363 5.41441 52.1629 5.20042 52.6412 5.26336C52.9937 5.30112 53.3461 5.27594 53.7615 5.27594C53.6734 5.52769 53.623 5.70392 53.5475 5.86755C52.7797 7.70532 51.9867 9.53049 51.2314 11.3683C51.0678 11.7585 50.8664 11.8969 50.451 11.8843C49.2552 11.8592 49.2552 11.8843 48.7894 10.8018C48.0971 9.17805 47.4174 7.56686 46.7251 5.94308C46.6496 5.74168 46.5866 5.55287 46.4985 5.31371Z" fill="#212121"/>
<path d="M89.5224 10.2858C89.6734 10.7389 89.8245 11.1669 89.9629 11.5949C88.4273 12.4634 86.1993 11.897 86.2496 9.64383C86.2748 8.68719 86.2496 7.73054 86.2496 6.72355C85.8091 6.72355 85.4692 6.72355 85.0664 6.72355C85.0664 6.25781 85.0664 5.82984 85.0664 5.32634C85.4063 5.31375 85.7713 5.28858 86.2119 5.26341C86.2119 4.72215 86.2119 4.18089 86.2119 3.58928C86.8035 3.51375 87.3196 3.4634 87.9112 3.38788C87.9112 4.04242 87.9112 4.62145 87.9112 5.27599C88.5154 5.27599 89.0692 5.27599 89.6608 5.27599C89.6608 5.77949 89.6608 6.20746 89.6608 6.6732C89.0944 6.6732 88.5531 6.6732 87.9363 6.6732C87.9363 7.75572 87.8986 8.80047 87.9489 9.83264C87.9741 10.3361 88.4272 10.4746 88.8804 10.4368C89.0944 10.4117 89.2958 10.3361 89.5224 10.2858Z" fill="#00C8C9"/>
<path d="M15.4327 0.0144179C16.4397 0.0144179 16.5026 0.140292 16.339 1.034C15.8481 3.71512 15.3949 6.39624 14.8914 9.07737C14.8411 9.32911 14.5767 9.70674 14.3753 9.73191C13.9222 9.79485 13.4439 9.69415 12.9907 9.60604C12.9278 9.59345 12.8774 9.26618 12.9026 9.10254C13.3935 6.29555 13.897 3.48855 14.3879 0.681552C14.5138 0.0144179 14.9795 -0.0359318 15.4327 0.0144179Z" fill="#00C8C9"/>
<path d="M1.97679 1.96547C2.32924 1.96547 2.69428 1.99064 3.04673 1.96547C3.6761 1.92771 3.95302 2.24239 4.05372 2.82141C4.41876 4.9361 4.78379 7.05079 5.16141 9.16548C5.22435 9.53051 5.0733 9.71932 4.73344 9.79485C3.95302 9.95849 3.56281 9.69415 3.41176 8.91373C3.12225 7.31513 2.82015 5.71652 2.55582 4.10533C2.49288 3.75288 2.36701 3.6396 2.02714 3.66477C1.63693 3.68995 1.23414 3.72771 0.843926 3.65218C0.592178 3.60183 0.264905 3.37526 0.176793 3.14869C-0.20083 2.20463 0.000568764 1.96547 1.03274 1.95288C1.34742 1.96547 1.66211 1.96547 1.97679 1.96547Z" fill="#00A0A1"/>
<path d="M81.0383 11.834C80.4593 11.834 79.9684 11.834 79.4146 11.834C79.4146 9.66897 79.4146 7.50393 79.4146 5.35148C80.5852 5.12491 80.9125 5.21302 81.0887 5.8298C82.1586 4.96127 83.1404 4.8354 84.1726 5.40183C84.525 5.59064 84.6132 5.79204 84.3992 6.14449C84.2104 6.44659 84.0719 6.76127 83.9208 7.05078C83.4551 6.9375 83.0523 6.74868 82.6369 6.7361C81.6173 6.72351 81.0761 7.35288 81.0509 8.49834C81.0132 9.59344 81.0383 10.676 81.0383 11.834Z" fill="#00C8C9"/>
<path d="M39.7517 11.8214C39.16 11.8214 38.6943 11.8214 38.1782 11.8214C38.1782 9.6438 38.1782 7.50394 38.1782 5.36407C39.437 5.1375 39.6006 5.18785 39.7139 5.72911C40.2929 5.51512 40.8593 5.21303 41.4635 5.12491C42.1055 5.02421 42.7475 5.22561 43.2761 5.75428C43.0496 6.20743 42.823 6.6354 42.5838 7.11373C42.4579 7.0382 42.3698 7.00044 42.2817 6.95009C40.9852 6.30813 39.8146 6.97527 39.7642 8.41023C39.7391 9.31653 39.7517 10.2102 39.7517 11.1165C39.7517 11.3305 39.7517 11.5571 39.7517 11.8214Z" fill="#212121"/>
<path d="M10.5109 9.80742C9.69273 9.80742 9.59203 9.71931 9.7305 8.90113C9.99483 7.25217 10.3473 5.25077 10.662 3.56406C10.6997 3.35007 10.8885 3.19902 11.1025 3.21161L12.2228 3.23678C12.4871 3.23678 12.6885 3.47594 12.6382 3.74028C12.399 5.17525 12.0718 6.93749 11.8326 8.27175C11.8074 8.43539 11.7822 8.59903 11.7571 8.76266C11.606 9.66896 11.4298 9.82001 10.5109 9.80742Z" fill="#00B4B5"/>
<path d="M43.9561 5.28857C44.4721 5.28857 44.963 5.28857 45.4917 5.28857C45.4917 7.4662 45.4917 9.61865 45.4917 11.8089C44.9882 11.8089 44.4973 11.8089 43.9561 11.8089C43.9561 9.65641 43.9561 7.47879 43.9561 5.28857Z" fill="#212121"/>
<path d="M7.35145 9.80744C6.47033 9.80744 6.3948 9.70674 6.55844 8.81303C6.6969 8.05779 6.78501 7.28995 6.97382 6.53471C7.03676 6.28296 7.06194 5.91792 7.27592 5.89275C7.55285 5.85499 8.35844 5.85499 8.73606 5.86757C8.92488 5.86757 9.07592 6.05639 9.03816 6.2452C8.91229 6.89974 8.63536 8.27177 8.50949 8.87597C8.33327 9.75709 8.25774 9.80744 7.35145 9.80744Z" fill="#00A0A1"/>
<path d="M4.68331 11.7207C5.33785 11.7333 5.82876 12.2368 5.82876 12.8788C5.82876 13.5459 5.30009 14.0242 4.60778 13.999C3.95323 13.9865 3.46232 13.4704 3.50009 12.8158C3.51267 12.1613 4.01617 11.7081 4.68331 11.7207Z" fill="#00A0A1"/>
<path d="M13.6579 11.7207C14.3251 11.7207 14.7908 12.1864 14.7908 12.8536C14.7908 13.5459 14.3251 14.0116 13.6076 13.999C12.953 13.9864 12.4873 13.4955 12.4873 12.841C12.4999 12.199 12.9908 11.7207 13.6579 11.7207Z" fill="#00A0A1"/>
<path d="M45.6804 3.41302C45.6804 3.96687 45.2902 4.35708 44.7363 4.36966C44.1951 4.36966 43.7671 3.96687 43.7671 3.42561C43.7671 2.88435 44.1699 2.48155 44.7237 2.48155C45.2776 2.46896 45.6804 2.87176 45.6804 3.41302Z" fill="#212121"/>
</svg>
