<svg width="62" height="15" viewBox="0 0 62 15" fill="none" xmlns="http://www.w3.org/2000/svg">
<path fill-rule="evenodd" clip-rule="evenodd" d="M12.1428 0C11.619 0 11.1905 0.333333 11 0.761904H1.61905C0.714285 0.761904 0 1.42857 0 2.33333H1.04762C1.04762 2.04762 1.28571 1.80952 1.61905 1.80952H11.0476C11.2381 2.19047 11.6667 2.47619 12.1428 2.47619C12.8095 2.47619 13.3809 1.90476 13.3809 1.23809C13.3809 0.571428 12.8095 0 12.1428 0ZM12.1428 1.80952C11.8095 1.80952 11.5714 1.52381 11.5714 1.23809C11.5714 0.904761 11.8095 0.666666 12.1428 0.666666C12.4762 0.666666 12.7143 0.95238 12.7143 1.23809C12.7143 1.57143 12.4286 1.80952 12.1428 1.80952Z" fill="url(#paint0_linear)"/>
<path d="M1.04762 2.33331H0V12.3333H1.04762V2.33331Z" fill="url(#paint1_linear)"/>
<path fill-rule="evenodd" clip-rule="evenodd" d="M12.1905 12.3334C12.1905 12.6667 11.9524 12.9524 11.619 12.9524H1.61905C1.28571 12.9524 1.04762 12.6667 1.04762 12.3334H0C0 13.2381 0.761904 14 1.61905 14H11.619C12.5238 14 13.2381 13.2381 13.2381 12.3334" fill="url(#paint2_linear)"/>
<path fill-rule="evenodd" clip-rule="evenodd" d="M18.8807 8.70024C17.897 8.70024 17.1242 7.92738 17.1242 6.94373C17.1242 5.96008 17.897 5.18722 18.8807 5.18722C19.8643 5.18722 20.6372 5.96008 20.6372 6.94373C20.5669 7.92738 19.7941 8.70024 18.8807 8.70024ZM18.8807 4.06305C17.2647 4.06305 16 5.398 16 6.94373C16 8.55972 17.335 9.82441 18.8807 9.82441C19.513 9.82441 20.1454 9.61363 20.6372 9.26232V11.3701C20.6372 12.3538 19.8643 13.1267 18.8807 13.1267V14.3211C20.4967 14.3211 21.7614 12.9861 21.7614 11.4404V7.01399C21.7614 5.32774 20.4264 4.06305 18.8807 4.06305Z" fill="#656A67"/>
<path fill-rule="evenodd" clip-rule="evenodd" d="M27.0307 7.15452C27.0307 8.13816 26.2578 8.91103 25.2742 8.91103C24.2905 8.91103 23.5177 8.13816 23.5177 7.15452V4.48462H22.3232V7.15452C22.3232 8.77051 23.6582 10.0352 25.2039 10.0352C26.7497 10.0352 28.0846 8.70025 28.0846 7.15452V4.48462H26.8902V7.15452" fill="#656A67"/>
<path fill-rule="evenodd" clip-rule="evenodd" d="M36.306 4.20355C35.3223 4.20355 34.4792 4.69538 33.9874 5.39798C33.4253 4.69538 32.5822 4.20355 31.6688 4.20355C30.0528 4.20355 28.7881 5.5385 28.7881 7.08423V9.75413H29.9825V7.08423C29.9825 6.10058 30.7554 5.32772 31.739 5.32772C32.7227 5.32772 33.4955 6.10058 33.4955 7.08423V9.75413H34.69V7.08423C34.69 6.10058 35.4628 5.32772 36.4465 5.32772C37.4301 5.32772 38.203 6.10058 38.203 7.08423V9.75413H39.3974V7.08423C39.2569 5.5385 37.9219 4.20355 36.306 4.20355Z" fill="#656A67"/>
<path fill-rule="evenodd" clip-rule="evenodd" d="M39.8887 7.15449V9.82439H41.0831V7.15449C41.0831 6.17085 41.856 5.39798 42.8396 5.39798V4.20355C41.2236 4.20355 39.8887 5.5385 39.8887 7.15449Z" fill="#656A67"/>
<path fill-rule="evenodd" clip-rule="evenodd" d="M46.0716 8.70024C45.0879 8.70024 44.3151 7.92738 44.3151 6.94373C44.3151 5.96008 45.0879 5.18722 46.0716 5.18722C47.0552 5.18722 47.8281 5.96008 47.8281 6.94373C47.8281 7.92738 47.0552 8.70024 46.0716 8.70024ZM46.0716 4.06305C44.4556 4.06305 43.1909 5.398 43.1909 6.94373C43.1909 8.55972 44.5259 9.82441 46.0716 9.82441C47.6876 9.82441 48.9523 8.48946 48.9523 6.94373C49.0225 5.32774 47.6876 4.06305 46.0716 4.06305Z" fill="#656A67"/>
<path fill-rule="evenodd" clip-rule="evenodd" d="M52.4652 8.70024C51.4815 8.70024 50.7086 7.92738 50.7086 6.94373C50.7086 5.96008 51.4815 5.18722 52.4652 5.18722C53.4488 5.18722 54.2217 5.96008 54.2217 6.94373C54.2217 7.92738 53.4488 8.70024 52.4652 8.70024ZM52.4652 4.06305C50.8492 4.06305 49.5845 5.398 49.5845 6.94373C49.5845 8.55972 50.9194 9.82441 52.4652 9.82441C53.0975 9.82441 53.7298 9.61363 54.2217 9.26232V9.68389H55.4161V6.94373C55.4161 5.32774 54.0811 4.06305 52.4652 4.06305Z" fill="#656A67"/>
<path fill-rule="evenodd" clip-rule="evenodd" d="M58.9295 8.70028C57.9459 8.70028 57.173 7.92741 57.173 6.94377C57.173 5.96012 57.9459 5.18725 58.9295 5.18725C59.9132 5.18725 60.686 5.96012 60.686 6.94377C60.686 7.92741 59.8429 8.70028 58.9295 8.70028ZM60.686 1.39319V4.62517C60.1942 4.27387 59.5619 4.06309 58.9295 4.06309C57.3135 4.06309 56.0488 5.39804 56.0488 6.94377C56.0488 8.55976 57.3838 9.82444 58.9295 9.82444C60.5455 9.82444 61.8102 8.4895 61.8102 6.94377V1.39319H60.686Z" fill="#656A67"/>
<path d="M13.238 6.38098H12.1904V12.3334H13.238V6.38098Z" fill="url(#paint3_linear)"/>
<path fill-rule="evenodd" clip-rule="evenodd" d="M11.619 4.7619H5.66667C4.7619 4.7619 4 5.52381 4 6.38095H5.04762C5.04762 6.09523 5.33333 5.80952 5.66667 5.80952H11.619C11.9524 5.80952 12.1905 6.04761 12.1905 6.38095H13.2381C13.2381 5.47619 12.5238 4.7619 11.619 4.7619Z" fill="url(#paint4_linear)"/>
<path fill-rule="evenodd" clip-rule="evenodd" d="M8.90476 8.09527C8.42857 8.09527 8 8.38098 7.80952 8.76193H5.66667C5.38095 8.76193 5.04762 8.57146 5.04762 8.23812V6.38098H4V8.23812C4 9.09526 4.7619 9.80955 5.66667 9.80955H7.7619C7.95238 10.2857 8.38095 10.5715 8.90476 10.5715C9.57142 10.5715 10.1429 10 10.1429 9.33336C10.1429 8.66669 9.57142 8.09527 8.90476 8.09527ZM8.95238 9.95241C8.61904 9.95241 8.38095 9.66669 8.38095 9.38098C8.38095 9.09527 8.61904 8.80955 8.95238 8.80955C9.28571 8.80955 9.52381 9.09527 9.52381 9.38098C9.52381 9.66669 9.23809 9.95241 8.95238 9.95241Z" fill="url(#paint5_linear)"/>
<defs>
<linearGradient id="paint0_linear" x1="5.70719" y1="1.23809" x2="10.4105" y2="1.23809" gradientUnits="userSpaceOnUse">
<stop stop-color="#36B5B0"/>
<stop offset="1" stop-color="#1D72AA"/>
</linearGradient>
<linearGradient id="paint1_linear" x1="0.53838" y1="2.41003" x2="0.509285" y2="12.2403" gradientUnits="userSpaceOnUse">
<stop stop-color="#36B4AF"/>
<stop offset="0.9946" stop-color="#1B9184"/>
</linearGradient>
<linearGradient id="paint2_linear" x1="5.64628" y1="13.1667" x2="10.2994" y2="13.1667" gradientUnits="userSpaceOnUse">
<stop stop-color="#189183"/>
<stop offset="1" stop-color="#E35D30"/>
</linearGradient>
<linearGradient id="paint3_linear" x1="12.7142" y1="6.97627" x2="12.7142" y2="12.3568" gradientUnits="userSpaceOnUse">
<stop stop-color="#B23336"/>
<stop offset="1" stop-color="#E05E38"/>
</linearGradient>
<linearGradient id="paint4_linear" x1="7.94019" y1="5.57142" x2="11.1873" y2="5.57142" gradientUnits="userSpaceOnUse">
<stop stop-color="#BB4E38"/>
<stop offset="1" stop-color="#B23336"/>
</linearGradient>
<linearGradient id="paint5_linear" x1="6.62005" y1="8.47622" x2="8.77919" y2="8.47622" gradientUnits="userSpaceOnUse">
<stop offset="0.00227453" stop-color="#B94E3C"/>
<stop offset="0.9973" stop-color="#F09C3F"/>
</linearGradient>
</defs>
</svg>
