<svg width="81" height="12" viewBox="0 0 81 12" fill="none" xmlns="http://www.w3.org/2000/svg">
<path fill-rule="evenodd" clip-rule="evenodd" d="M9.95998 2.2472H9.93112L6.21157 11.6851L2.50417 2.2472H2.47582L0.650466 11.3265H0L2.29207 0L6.21157 9.98371L10.1432 0L12.4353 11.326H11.7848L9.95998 2.24669V2.2472ZM21.5347 10.178C20.574 10.9847 19.3515 11.472 18.0394 11.472C15.0397 11.472 12.5067 8.92369 12.5067 5.83875C12.5067 2.75381 15.0255 0.207528 18.0394 0.207528C19.355 0.207528 20.5755 0.692776 21.5342 1.49593C22.493 0.692776 23.7144 0.208545 25.03 0.208545C28.0439 0.208545 30.5628 2.75686 30.5628 5.83977C30.5628 8.9247 28.0298 11.473 25.03 11.473C23.718 11.473 22.495 10.9857 21.5347 10.179V10.178ZM21.0771 9.74871C20.4694 10.2514 19.748 10.5964 18.9764 10.7533C18.0334 10.944 17.0549 10.8426 16.1705 10.4623C15.2792 10.0778 14.5221 9.43522 13.9959 8.61646C13.4634 7.78916 13.182 6.82401 13.186 5.83875C13.2012 4.52135 13.7175 3.26195 14.6251 2.33214C15.0699 1.87349 15.6005 1.50765 16.1865 1.25565C16.7724 1.00365 17.4021 0.870439 18.0394 0.863681C19.1391 0.864448 20.2047 1.2466 21.0564 1.94557C20.058 2.9937 19.4997 4.3879 19.4973 5.83875C19.4973 7.34943 20.1047 8.73142 21.0766 9.74871H21.0771ZM21.9923 9.74871C22.3464 10.0412 22.7402 10.2814 23.1617 10.4623C24.0459 10.8425 25.0241 10.9439 25.967 10.7533C26.9138 10.5601 27.7809 10.0856 28.456 9.39113C29.1391 8.68841 29.6025 7.80003 29.7888 6.83569C29.9775 5.86719 29.8825 4.8645 29.5155 3.94913C29.1527 3.0409 28.5311 2.26056 27.7286 1.706C26.9343 1.15806 25.9935 0.864421 25.03 0.863681C23.9331 0.874333 22.8726 1.26024 22.0232 1.95778C22.9789 2.97202 23.5722 4.34231 23.5722 5.83875C23.5722 7.34943 22.9647 8.73142 21.9928 9.74871H21.9923ZM21.5464 2.40437C21.9643 2.85445 22.296 3.37813 22.5249 3.94913C22.8919 4.86215 22.987 5.86672 22.7982 6.83569C22.6183 7.76652 22.1803 8.62733 21.5347 9.3189C21.3314 9.10192 21.1479 8.867 20.9865 8.61697C20.4539 7.78952 20.1725 6.82419 20.1766 5.83875C20.1888 4.56193 20.6776 3.33625 21.5464 2.40437ZM41.0037 11.6902L32.0475 1.89623V11.3342H31.3687V0.218718L40.3254 9.92114V0.354526H41.0042V11.6907L41.0037 11.6902ZM52.5663 1.33876C53.1852 1.63869 53.7343 2.06645 54.1775 2.59409L54.1755 1.62919C53.2167 0.724593 51.9543 0.215624 50.6392 0.203458C47.6111 0.203458 45.0639 2.73652 45.0639 5.84943C45.0639 8.91962 47.6536 11.4679 50.625 11.4679C51.9335 11.4534 53.1933 10.9675 54.1755 10.0987V9.13783C53.3843 10.1317 51.8201 10.8159 50.5967 10.8159C49.3362 10.8159 48.0636 10.176 47.1727 9.30365C46.726 8.86181 46.3706 8.33562 46.1269 7.75533C45.8816 7.17166 45.752 6.54553 45.7452 5.91199C45.7452 3.22126 47.9371 0.863681 50.5987 0.863681C51.2795 0.87894 51.9497 1.04069 52.5663 1.33876ZM56.5551 10.6714H59.2714V11.326H55.8763V0.354526H56.5551V10.6714ZM61.1782 4.99389V1.00915H65.5933V0.354526H60.4954V11.3235H65.5933V10.6694H61.1782V5.64851H65.4789V4.99389H61.1782ZM72.6715 11.326H71.893L68.4138 6.13071H68.0732V11.326H67.3939V0.354526H68.7237C69.5882 0.354526 70.4366 0.369786 71.1585 0.906407C71.9213 1.45981 72.2331 2.33265 72.2331 3.26347C72.2331 5.17039 70.9464 6.16021 69.1742 6.13071L72.6715 11.326ZM68.9277 5.47659C69.5923 5.47659 70.2595 5.44709 70.7955 4.96693C71.0385 4.75431 71.2324 4.48829 71.3625 4.1887C71.4921 3.8886 71.5548 3.56256 71.5462 3.23448C71.5462 2.42065 71.1792 1.60478 70.4144 1.25636C69.8965 1.00356 69.2511 1.0061 68.6675 1.00865H68.0651V5.47659H68.9277ZM80.6654 0.354526H79.7603L74.7049 5.47659V0.354526H74.0256V11.326H74.7029V6.37334L74.9864 6.08188L80.1091 11.3255H81L75.4531 5.6358L80.6654 0.354526Z" fill="#22313E"/>
</svg>
