<svg width="49" height="14" viewBox="0 0 49 14" fill="none" xmlns="http://www.w3.org/2000/svg">
<path d="M48.5153 13.7309C47.5626 13.736 46.61 13.7411 45.6573 13.7309C45.5661 13.7309 45.4495 13.6347 45.3989 13.5485C44.6996 12.4742 44.0155 11.3999 43.3212 10.3206C43.2756 10.2496 43.23 10.1838 43.1439 10.0571C43.0932 11.3391 43.078 12.5452 43.6303 13.7157C42.556 13.7157 41.5223 13.7157 40.4987 13.7157C40.595 13.3661 40.7115 13.0367 40.7774 12.6921C40.8331 12.4033 40.8585 12.1094 40.8585 11.8155C40.8635 9.74797 40.8635 7.6754 40.8635 5.60283C40.8635 4.62989 40.8331 4.53868 40.1997 3.79377C41.35 3.35797 42.2165 2.54719 43.0425 1.68066C43.0679 1.6908 43.0881 1.70093 43.1135 1.71107C43.1135 4.38159 43.1135 7.05211 43.1135 9.72263C43.1388 9.7277 43.1591 9.73783 43.1844 9.7429C43.5746 9.33244 43.9699 8.92198 44.36 8.51152C44.5627 8.29869 44.7654 8.08079 44.9681 7.86796C45.4799 7.33082 45.5002 6.7582 45.0239 6.18052C45.0036 6.15518 44.9935 6.12478 44.958 6.06904C45.936 6.06904 46.8887 6.06904 47.8667 6.06904C47.3143 6.45922 46.7569 6.80888 46.2553 7.21934C45.7434 7.63993 45.2874 8.13147 44.7908 8.60274C45.0239 8.96252 45.2418 9.31217 45.4698 9.65169C46.1083 10.6196 46.7417 11.5925 47.3954 12.5553C47.6893 12.986 48.044 13.3712 48.5153 13.6245C48.5153 13.6651 48.5153 13.7005 48.5153 13.7309Z" fill="black"/>
<path d="M4.76336 0.0489595C5.36131 0.185779 5.90859 0.601306 6.13156 1.17899C6.31398 1.65533 6.26331 2.20261 6.03528 2.6536C5.78191 3.15021 5.29037 3.52013 4.73802 3.61641C4.10966 3.72283 3.6536 3.43905 3.233 3.00832C2.97457 2.74482 2.72119 2.48131 2.31074 2.608C1.96108 2.71948 1.70771 3.04886 1.68744 3.41878C1.65197 3.96099 1.93068 4.4424 2.48303 4.63496C2.86308 4.77178 3.28368 4.82752 3.68907 4.86299C4.12993 4.89846 4.57586 4.87313 5.01673 4.87313C5.01166 5.29879 4.98632 5.32919 4.6164 5.32919C4.28196 5.32919 3.94244 5.32919 3.56745 5.32919C3.56745 5.43054 3.56745 5.52175 3.56745 5.6079C3.56745 7.645 3.56745 9.67702 3.56745 11.7141C3.56745 12.2411 3.62319 12.758 3.92724 13.2141C4.04379 13.3864 4.19581 13.5283 4.36303 13.7157C3.12152 13.7157 1.91041 13.7157 0.684099 13.7157C0.689167 13.6853 0.684099 13.6448 0.704369 13.6245C1.17564 13.0671 1.31752 12.3982 1.31752 11.6939C1.32259 9.64155 1.31752 7.58925 1.31752 5.53696C1.31752 5.48122 1.30739 5.42041 1.30232 5.32413C0.881728 5.32413 0.466201 5.32413 0 5.32413C0.0709436 5.21771 0.106415 5.1569 0.146955 5.11129C0.62329 4.55895 0.962806 3.92552 1.25165 3.25663C1.49995 2.67894 1.77359 2.11139 2.0827 1.56411C2.48809 0.854676 3.17219 0.200982 3.99818 0.0388247C4.24142 -0.0169168 4.50999 -0.0118494 4.76336 0.0489595Z" fill="black"/>
<path d="M26.837 13.7208C25.8388 13.7208 24.8405 13.7208 23.8118 13.7208C23.8118 13.4066 23.8118 13.0823 23.8118 12.6972C23.6598 12.8543 23.5635 12.9658 23.4571 13.0671C21.8761 14.6481 19.2866 14.1566 18.4961 12.0688C17.8171 10.2851 18.0046 8.55713 19.2511 7.03691C19.92 6.22106 20.8423 5.82073 21.8811 5.75992C22.4791 5.72445 23.0872 5.79539 23.7307 5.82073C23.7358 5.13663 23.8219 4.37145 23.0213 3.81404C24.2273 3.35797 25.0888 2.54212 25.9198 1.68066C25.9452 1.6908 25.9705 1.70093 25.9908 1.71107C25.9908 1.80228 25.9908 1.89856 25.9908 1.98978C25.9908 4.80218 25.9756 7.60952 26.0009 10.4219C26.006 11.106 26.1023 11.7952 26.2036 12.4742C26.2644 12.8847 26.4621 13.2546 26.7712 13.5536C26.8016 13.584 26.8269 13.6195 26.8472 13.6499C26.8472 13.6651 26.837 13.6853 26.837 13.7208ZM23.7358 9.95573C23.7358 9.40339 23.7409 8.84597 23.7358 8.29362C23.7307 7.76155 23.6801 7.2396 23.4216 6.75313C22.9757 5.91701 22.0332 5.80046 21.4352 6.54537C21.2122 6.81901 21.0399 7.15853 20.9335 7.49297C20.5433 8.71929 20.5332 9.97093 20.7562 11.2327C20.8018 11.4962 20.8828 11.7547 20.9842 12.003C21.4656 13.133 22.6767 13.361 23.5432 12.4844C23.6497 12.3779 23.7257 12.2006 23.7307 12.0486C23.7459 11.3493 23.7358 10.655 23.7358 9.95573Z" fill="black"/>
<path d="M13.2915 5.72953C15.5769 5.7194 17.5329 7.62474 17.5329 9.8696C17.538 12.0891 15.6022 13.9793 13.327 13.9894C11.0264 13.9945 9.08049 12.1449 9.07035 9.93548C9.06022 7.63488 10.9656 5.73967 13.2915 5.72953ZM11.5838 10.1534C11.6091 10.4422 11.6395 10.9996 11.7206 11.5469C11.8118 12.1651 11.974 12.7682 12.4098 13.2496C12.9165 13.812 13.6564 13.8424 14.153 13.2749C14.3911 13.0063 14.5837 12.6617 14.6901 12.3222C15.1259 10.9388 15.1006 9.52502 14.8725 8.11121C14.7864 7.55887 14.6192 7.03185 14.2695 6.58086C13.7324 5.88662 12.8709 5.88155 12.3439 6.58592C12.1868 6.79875 12.0652 7.04706 11.9689 7.29536C11.6446 8.12135 11.6041 9.00307 11.5838 10.1534Z" fill="black"/>
<path d="M33.8755 9.13968C32.2438 9.13968 30.6425 9.13968 29.0057 9.13968C29.031 10.1582 29.1628 11.1616 30.0496 11.7798C31.3772 12.7021 32.6593 12.3423 33.9008 11.3795C33.8704 11.5112 33.8653 11.5923 33.8349 11.6734C33.1964 13.4216 31.7269 14.1463 30.0344 13.9588C27.9871 13.7307 26.624 12.0028 26.7304 9.77818C26.7963 8.38464 27.3334 7.21914 28.4989 6.39822C29.9229 5.39487 31.7978 5.53169 32.938 6.71746C33.5816 7.38129 33.8957 8.18194 33.8755 9.13968ZM29.0158 8.73429C29.705 8.73429 30.3638 8.72922 31.0174 8.73429C31.7624 8.74442 31.6255 8.69375 31.6154 8.11607C31.6053 7.58399 31.5546 7.05698 31.3012 6.57558C31.0174 6.03337 30.3891 5.89654 29.9128 6.28167C29.7557 6.41342 29.6138 6.58571 29.5175 6.76307C29.1729 7.38129 29.0614 8.05526 29.0158 8.73429Z" fill="black"/>
<path d="M9.23282 13.7209C7.9305 13.7209 6.67885 13.7209 5.39173 13.7209C5.4272 13.6449 5.44747 13.5892 5.47788 13.5435C5.88834 12.9 6.0657 12.1906 6.0657 11.4355C6.07076 9.63658 6.0657 7.83765 6.0657 6.03873C6.0657 5.43064 5.93901 4.86816 5.43227 4.4577C5.40187 4.43236 5.39173 4.39182 5.36133 4.33101C6.54203 3.90028 7.40856 3.06416 8.25482 2.1875C8.27508 2.19763 8.29535 2.20777 8.31562 2.2179C8.32069 2.31418 8.32576 2.4054 8.32576 2.50168C8.32576 5.43571 8.32069 8.36973 8.33083 11.3038C8.33083 11.6787 8.3967 12.0588 8.47271 12.4237C8.56393 12.8493 8.77169 13.2243 9.08587 13.5334C9.13654 13.579 9.16695 13.6348 9.23282 13.7209Z" fill="black"/>
<path d="M39.7385 7.93886C39.6676 7.83751 39.6169 7.76657 39.5663 7.70069C39.2014 7.16861 38.7909 6.68214 38.2285 6.34263C37.8281 6.10446 37.4025 5.94737 36.9312 6.04872C36.4447 6.15513 36.1914 6.49972 36.0849 6.95072C35.9836 7.37638 36.09 7.75643 36.4599 7.9946C36.84 8.23784 37.2555 8.42026 37.6609 8.63309C38.2285 8.927 38.8365 9.15504 39.3484 9.52496C40.1997 10.1381 40.4328 11.0401 40.2453 12.0384C40.0679 12.9911 39.4142 13.5282 38.5173 13.7866C37.22 14.1616 35.9481 13.964 34.6965 13.5485C34.6407 13.5282 34.5698 13.4522 34.5647 13.3965C34.5242 12.7326 34.4938 12.0688 34.4634 11.41C34.4634 11.3948 34.4786 11.3847 34.509 11.334C34.5749 11.405 34.6306 11.4607 34.6863 11.5215C35.1424 12.0283 35.5681 12.5654 36.0647 13.0265C36.3586 13.2951 36.7488 13.4927 37.1288 13.6194C37.6356 13.7917 38.1372 13.5333 38.3855 13.0721C38.6744 12.5451 38.6136 11.9472 38.193 11.5975C37.9396 11.3847 37.6406 11.2175 37.3417 11.0654C36.8805 10.8273 36.3839 10.6449 35.9279 10.3965C34.7522 9.74792 34.2607 8.67363 34.5698 7.48279C34.813 6.54026 35.4971 6.06899 36.389 5.86122C37.4227 5.62306 38.4464 5.71934 39.4598 6.01325C39.5308 6.03352 39.6321 6.11459 39.6372 6.18047C39.7031 6.72268 39.7487 7.26996 39.7943 7.81217C39.7994 7.83244 39.774 7.86285 39.7385 7.93886Z" fill="black"/>
</svg>
