<svg width="70" height="14" viewBox="0 0 70 14" fill="none" xmlns="http://www.w3.org/2000/svg">
<path d="M23.5988 10.2366H18.5049L17.1798 13.1269H15.2456L21.1328 0.47998L26.8119 13.1269H24.8473L23.5988 10.2366ZM22.8671 8.5495L21.1021 4.50341L19.2525 8.5495H22.8671Z" fill="#0079C1"/>
<path d="M26.5163 1.2274L29.6147 9.18084L32.8514 0.649414L35.9493 9.18084L39.2398 1.2274H41.1898L35.8722 13.8815L32.8127 5.45122L29.6223 13.8894L24.5674 1.2274H26.5163Z" fill="#0079C1"/>
<path d="M46.8046 9.78171H41.4256C41.4717 10.399 41.672 10.8893 42.0263 11.2538C42.3805 11.613 42.8358 11.7932 43.3906 11.7932C43.8219 11.7932 44.1791 11.6908 44.4617 11.4848C44.7395 11.2801 45.0546 10.8996 45.4094 10.3442L46.8733 11.1613C46.6478 11.5468 46.4081 11.8763 46.1576 12.1515C45.9048 12.4261 45.6354 12.6524 45.3479 12.8301C45.0603 13.0072 44.7492 13.1372 44.415 13.2193C44.0814 13.3013 43.7197 13.3417 43.3293 13.3417C42.209 13.3417 41.3099 12.9825 40.6316 12.2633C39.9537 11.5387 39.6147 10.5785 39.6147 9.38162C39.6147 8.19508 39.9432 7.23348 40.6007 6.4994C41.2639 5.77425 42.1422 5.41211 43.236 5.41211C44.3408 5.41211 45.2142 5.76447 45.856 6.46866C46.4934 7.16668 46.8121 8.13498 46.8121 9.37423L46.8046 9.78171ZM45.0242 8.36353C44.7825 7.43936 44.1992 6.97659 43.2752 6.97659C43.0645 6.97659 42.8665 7.0087 42.6814 7.07344C42.497 7.13715 42.3278 7.22987 42.1771 7.35059C42.0251 7.4713 41.8958 7.61657 41.7878 7.7864C41.6799 7.95536 41.5972 8.14854 41.5409 8.36353H45.0242Z" fill="#0079C1"/>
<path d="M49.8476 0.110352V6.49141C50.5411 5.77193 51.3276 5.41219 52.205 5.41219C53.2174 5.41219 54.0606 5.78961 54.7332 6.54533C55.4066 7.29554 55.7432 8.2307 55.7432 9.35096C55.7432 10.5068 55.4044 11.4617 54.7261 12.2174C54.0521 12.9674 53.2025 13.3424 52.1746 13.3424C51.3064 13.3424 50.5301 13.0078 49.8476 12.3405V13.1268H48.1138V0.110352H49.8476ZM53.9709 9.42754C53.9709 8.70823 53.7752 8.12286 53.3849 7.66988C52.9889 7.20849 52.4933 6.97667 51.8973 6.97667C51.2604 6.97667 50.7417 7.20059 50.3407 7.64721C49.9451 8.08903 49.7478 8.6641 49.7478 9.37363C49.7478 10.1029 49.9425 10.6864 50.3337 11.1227C50.724 11.5695 51.2374 11.7932 51.8748 11.7932C52.4753 11.7932 52.9738 11.5695 53.3694 11.1227C53.7704 10.6709 53.9709 10.1055 53.9709 9.42754Z" fill="#0079C1"/>
<path d="M63.7538 9.78171H58.3747C58.4207 10.399 58.6216 10.8893 58.9755 11.2538C59.3303 11.613 59.7848 11.7932 60.34 11.7932C60.7717 11.7932 61.1292 11.6908 61.4113 11.4848C61.6883 11.2801 62.0039 10.8996 62.359 10.3442L63.8229 11.1613C63.5969 11.5468 63.3578 11.8763 63.1073 12.1515C62.8546 12.4261 62.585 12.6524 62.2972 12.8301C62.0087 13.0072 61.6988 13.1372 61.3648 13.2193C61.0306 13.3013 60.6685 13.3417 60.278 13.3417C59.1581 13.3417 58.2595 12.9825 57.5812 12.2633C56.9024 11.5387 56.5635 10.5785 56.5635 9.38162C56.5635 8.19508 56.8928 7.23348 57.5505 6.4994C58.213 5.77425 59.0916 5.41211 60.1858 5.41211C61.2901 5.41211 62.1634 5.76447 62.8056 6.46866C63.4422 7.16668 63.7617 8.13498 63.7617 9.37423L63.7538 9.78171ZM61.9735 8.36353C61.7317 7.43936 61.1493 6.97659 60.2244 6.97659C60.0134 6.97659 59.8161 7.0087 59.631 7.07344C59.4459 7.13715 59.2776 7.22987 59.1263 7.35059C58.9742 7.4713 58.8454 7.61657 58.7369 7.7864C58.6292 7.95536 58.5469 8.14854 58.4906 8.36353H61.9735Z" fill="#0079C1"/>
<path d="M64.9907 5.6204H66.7245V6.29146C67.0427 5.95696 67.3259 5.72841 67.5721 5.60512C67.8238 5.47633 68.1219 5.41211 68.4657 5.41211C68.9238 5.41211 69.4012 5.56167 69.8992 5.8596L69.1057 7.44675C68.7774 7.21081 68.4561 7.09181 68.1425 7.09181C67.1974 7.09181 66.7245 7.80649 66.7245 9.23497V13.1267H64.9907V5.6204Z" fill="#0079C1"/>
<path d="M3.49695 0H3.33262C1.49236 0 0 1.49236 0 3.33262V10.6667C0 12.5076 1.49236 14 3.33262 14H3.70404C2.81422 11.8476 2.35385 9.52308 2.35385 6.71246C2.35385 4.14723 2.74193 1.9893 3.49695 0Z" fill="#0079C1"/>
<path d="M10.6664 0H6.00553C5.14129 1.95067 4.6665 4.08954 4.6665 6.71246C4.6665 9.59537 5.23831 11.9072 6.24387 14H10.6664C12.5078 14 14 12.5076 14 10.6667V3.33262C14 1.49236 12.5078 0 10.6664 0ZM8.4109 13.0616C8.29568 13.1512 8.16706 13.1892 8.03776 13.1892C7.88322 13.1892 7.72885 13.1119 7.60023 12.9452C6.28748 11.1562 5.59187 9.4568 5.59187 7.02395C5.59187 4.60365 6.28748 2.91725 7.61363 1.14121C7.74224 0.973274 7.90898 0.896003 8.06403 0.896003C8.19213 0.896003 8.30804 0.934638 8.4109 1.01174C8.579 1.11528 8.69474 1.26982 8.69474 1.44944C8.69474 1.5401 8.65542 1.64296 8.579 1.74599C7.41993 3.29038 6.73789 4.8097 6.73789 7.02395C6.73789 9.26327 7.43281 10.8077 8.56544 12.3275C8.64254 12.4434 8.68117 12.5461 8.68117 12.6357C8.68117 12.8165 8.56544 12.9587 8.4109 13.0616ZM10.648 10.5863C10.7019 10.6672 10.7287 10.739 10.7287 10.8015C10.7287 10.927 10.648 11.0257 10.54 11.0975C10.4591 11.1605 10.3696 11.1868 10.28 11.1868C10.1729 11.1868 10.0643 11.1338 9.97486 11.0166C9.06049 9.77069 8.57574 8.58655 8.57574 6.89208C8.57574 5.20619 9.06049 4.03133 9.98397 2.79464C10.0736 2.67753 10.19 2.62362 10.298 2.62362C10.388 2.62362 10.4684 2.65057 10.54 2.70381C10.6564 2.77627 10.7373 2.88342 10.7373 3.00894C10.7373 3.07162 10.7103 3.14391 10.6564 3.21551C9.84917 4.29182 9.37438 5.35026 9.37438 6.89208C9.37438 8.45193 9.85913 9.52788 10.648 10.5863Z" fill="#0079C1"/>
</svg>
